<svg xmlns="http://www.w3.org/2000/svg" xmlns:xlink="http://www.w3.org/1999/xlink" xmlns:lucid="lucid" width="1335" height="1105"><g transform="translate(-224 -44)" lucid:page-tab-id="0_0"><path d="M808 160c17.67 0 32 17.9 32 40s-14.33 40-32 40h-96c-17.67 0-32-17.9-32-40s14.33-40 32-40z" stroke="#54c45e" stroke-width="2" fill="#c3f7c8"/><use xlink:href="#a" transform="matrix(1,0,0,1,685,165) translate(7.688888888888869 28.066666666666663)"/><use xlink:href="#b" transform="matrix(1,0,0,1,685,165) translate(52.85185185185184 28.066666666666663)"/><use xlink:href="#c" transform="matrix(1,0,0,1,685,165) translate(80.72962962962963 28.066666666666663)"/><use xlink:href="#d" transform="matrix(1,0,0,1,685,165) translate(18.738888888888873 48.86666666666667)"/><use xlink:href="#e" transform="matrix(1,0,0,1,685,165) translate(42.812962962962956 48.86666666666667)"/><path d="M480 335.8a8.9 8.9 0 0 1 7.95-8.84l244.1-26.1A7.2 7.2 0 0 1 740 308v151.52a8 8 0 0 1-8 8H488a8 8 0 0 1-8-8z" stroke="#000" stroke-opacity="0" stroke-width="2" fill="#edf5ff"/><use xlink:href="#f" transform="matrix(1,0,0,1,485,332.92) translate(49.11296296296295 47.666666666666664)"/><use xlink:href="#g" transform="matrix(1,0,0,1,485,332.92) translate(116.32777777777777 47.666666666666664)"/><use xlink:href="#h" transform="matrix(1,0,0,1,485,332.92) translate(129.80925925925925 47.666666666666664)"/><use xlink:href="#i" transform="matrix(1,0,0,1,485,332.92) translate(18.22592592592592 68.46666666666667)"/><use xlink:href="#j" transform="matrix(1,0,0,1,485,332.92) translate(126.9925925925926 68.46666666666667)"/><use xlink:href="#k" transform="matrix(1,0,0,1,485,332.92) translate(224.10740740740744 68.46666666666667)"/><use xlink:href="#l" transform="matrix(1,0,0,1,485,332.92) translate(36.11296296296294 89.26666666666668)"/><use xlink:href="#m" transform="matrix(1,0,0,1,485,332.92) translate(120.6611111111111 89.26666666666668)"/><use xlink:href="#n" transform="matrix(1,0,0,1,485,332.92) translate(144.73518518518517 89.26666666666668)"/><path d="M820 331.76a8 8 0 0 1 8-8h224a8 8 0 0 1 8 8v104a8 8 0 0 1-8 8H828a8 8 0 0 1-8-8z" stroke="#6db1ff" stroke-width="2" fill="#edf5ff"/><use xlink:href="#o" transform="matrix(1,0,0,1,825,328.76) translate(13.527777777777757 37.666666666666664)"/><use xlink:href="#p" transform="matrix(1,0,0,1,825,328.76) translate(72.17222222222222 37.666666666666664)"/><use xlink:href="#q" transform="matrix(1,0,0,1,825,328.76) translate(90.42037037037036 37.666666666666664)"/><use xlink:href="#r" transform="matrix(1,0,0,1,825,328.76) translate(136.59444444444443 37.666666666666664)"/><use xlink:href="#s" transform="matrix(1,0,0,1,825,328.76) translate(178.96481481481482 37.666666666666664)"/><use xlink:href="#t" transform="matrix(1,0,0,1,825,328.76) translate(203.0388888888889 37.666666666666664)"/><use xlink:href="#u" transform="matrix(1,0,0,1,825,328.76) translate(3.874074074074059 58.46666666666666)"/><use xlink:href="#g" transform="matrix(1,0,0,1,825,328.76) translate(69.3074074074074 58.46666666666666)"/><use xlink:href="#v" transform="matrix(1,0,0,1,825,328.76) translate(82.78888888888888 58.46666666666666)"/><use xlink:href="#p" transform="matrix(1,0,0,1,825,328.76) translate(154 58.46666666666666)"/><use xlink:href="#w" transform="matrix(1,0,0,1,825,328.76) translate(172.24814814814815 58.46666666666666)"/><use xlink:href="#g" transform="matrix(1,0,0,1,825,328.76) translate(83.2462962962963 79.26666666666668)"/><use xlink:href="#x" transform="matrix(1,0,0,1,825,328.76) translate(96.72777777777777 79.26666666666668)"/><path d="M760 241.5v23.83a12 12 0 0 1-12 12H624.18a12 12 0 0 0-12 12v7.96" stroke="#333" fill="none"/><path d="M760.48 241.5h-.96v-.5h.96z" stroke="#333" stroke-width=".05" fill="#333"/><path d="M612.18 312.05l-4.63-14.26h9.27z" stroke="#333" fill="#333"/><path d="M740.5 383.76h62.12" stroke="#333" fill="none"/><path d="M740.5 384.24h-.5v-.95h.5z" stroke="#333" stroke-width=".05" fill="#333"/><path d="M817.38 383.76l-14.26 4.63v-9.27z" stroke="#333" fill="#333"/><path d="M453.15 78.58a8 8 0 0 1 8-8h836.75a8 8 0 0 1 8 8v25.15a8 8 0 0 1-8 8H461.15a8 8 0 0 1-8-8z" stroke="#000" stroke-opacity="0" stroke-width="2" fill="#fff" fill-opacity="0"/><use xlink:href="#y" transform="matrix(1,0,0,1,457.14655278534315,74.57761197839864) translate(312.3988888888889 23.657777777777778)"/><use xlink:href="#z" transform="matrix(1,0,0,1,457.14655278534315,74.57761197839864) translate(319.68283950617285 23.657777777777778)"/><use xlink:href="#A" transform="matrix(1,0,0,1,457.14655278534315,74.57761197839864) translate(446.27790123456793 23.657777777777778)"/><use xlink:href="#B" transform="matrix(1,0,0,1,457.14655278534315,74.57761197839864) translate(484.0816049382716 23.657777777777778)"/><path d="M734.8 110.4h300.5M734.82 110.4h-1.03M1035.28 110.4h1.03" stroke="#a9afb8" stroke-width="2" fill="none"/><path d="M453.15 119.73a8 8 0 0 1 8-8h837.7a8 8 0 0 1 8 8v2.85a8 8 0 0 1-8 8h-837.7a8 8 0 0 1-8-8z" stroke="#000" stroke-opacity="0" stroke-width="2" fill="#fff" fill-opacity="0"/><use xlink:href="#C" transform="matrix(1,0,0,1,457.1465527853436,115.73283593529744) translate(240.12008230452676 14.917037037037037)"/><use xlink:href="#D" transform="matrix(1,0,0,1,457.1465527853436,115.73283593529744) translate(280.8677160493827 14.917037037037037)"/><use xlink:href="#E" transform="matrix(1,0,0,1,457.1465527853436,115.73283593529744) translate(350.4658641975309 14.917037037037037)"/><use xlink:href="#F" transform="matrix(1,0,0,1,457.1465527853436,115.73283593529744) translate(415.8150411522634 14.917037037037037)"/><use xlink:href="#G" transform="matrix(1,0,0,1,457.1465527853436,115.73283593529744) translate(461.618950617284 14.917037037037037)"/><use xlink:href="#H" transform="matrix(1,0,0,1,457.1465527853436,115.73283593529744) translate(474.0684362139918 14.917037037037037)"/><use xlink:href="#I" transform="matrix(1,0,0,1,457.1465527853436,115.73283593529744) translate(553.0143209876544 14.917037037037037)"/><use xlink:href="#J" transform="matrix(1,0,0,1,457.1465527853436,115.73283593529744) translate(578.5081481481482 14.917037037037037)"/><path d="M1160 368a8 8 0 0 1 8-8h224a8 8 0 0 1 8 8v104a8 8 0 0 1-8 8h-224a8 8 0 0 1-8-8z" stroke="#6db1ff" stroke-width="2" fill="#edf5ff"/><use xlink:href="#K" transform="matrix(1,0,0,1,1165,365) translate(12.131481481481487 37.666666666666664)"/><use xlink:href="#L" transform="matrix(1,0,0,1,1165,365) translate(76.50555555555556 37.666666666666664)"/><use xlink:href="#M" transform="matrix(1,0,0,1,1165,365) translate(146.70555555555558 37.666666666666664)"/><use xlink:href="#k" transform="matrix(1,0,0,1,1165,365) translate(209.20185185185187 37.666666666666664)"/><use xlink:href="#N" transform="matrix(1,0,0,1,1165,365) translate(19.305555555555543 58.46666666666666)"/><use xlink:href="#O" transform="matrix(1,0,0,1,1165,365) translate(145.30925925925928 58.46666666666666)"/><use xlink:href="#M" transform="matrix(1,0,0,1,1165,365) translate(46.19629629629628 79.26666666666668)"/><use xlink:href="#g" transform="matrix(1,0,0,1,1165,365) translate(108.69259259259259 79.26666666666668)"/><use xlink:href="#P" transform="matrix(1,0,0,1,1165,365) translate(122.17407407407407 79.26666666666668)"/><path d="M1061.5 383.76h36.5a12 12 0 0 1 12 12V408a12 12 0 0 0 12 12h20.62" stroke="#333" fill="none"/><path d="M1061.5 384.24h-.5v-.95h.5z" stroke="#333" stroke-width=".05" fill="#333"/><path d="M1157.38 420l-14.26 4.63v-9.26z" stroke="#333" fill="#333"/><path d="M1160 548a8 8 0 0 1 8-8h224a8 8 0 0 1 8 8v104a8 8 0 0 1-8 8h-224a8 8 0 0 1-8-8z" stroke="#6db1ff" stroke-width="2" fill="#edf5ff"/><g><use xlink:href="#Q" transform="matrix(1,0,0,1,1165,545) translate(3.464814814814787 48.06666666666666)"/><use xlink:href="#R" transform="matrix(1,0,0,1,1165,545) translate(71.64259259259256 48.06666666666666)"/><use xlink:href="#S" transform="matrix(1,0,0,1,1165,545) translate(139.00185185185185 48.06666666666666)"/><use xlink:href="#g" transform="matrix(1,0,0,1,1165,545) translate(48.21851851851851 68.86666666666667)"/><use xlink:href="#T" transform="matrix(1,0,0,1,1165,545) translate(61.69999999999999 68.86666666666667)"/><use xlink:href="#U" transform="matrix(1,0,0,1,1165,545) translate(126.98888888888888 68.86666666666667)"/></g><path d="M1280 481.5v41.12" stroke="#333" fill="none"/><path d="M1280.47 481.5h-.94v-.5h.94z" stroke="#333" stroke-width=".05" fill="#333"/><path d="M1280 537.38l-4.63-14.26h9.27z" stroke="#333" fill="#333"/><path d="M1284.34 865.66a8 8 0 0 1 11.32 0l108.68 108.68a8 8 0 0 1 0 11.32l-108.68 108.68a8 8 0 0 1-11.32 0l-108.68-108.68a8 8 0 0 1 0-11.32z" stroke="#e08fff" stroke-width="2" fill="#f4d9ff"/><g><use xlink:href="#V" transform="matrix(1,0,0,1,1175,865) translate(24.625925925925927 108.06666666666666)"/><use xlink:href="#W" transform="matrix(1,0,0,1,1175,865) translate(55.34444444444445 108.06666666666666)"/><use xlink:href="#X" transform="matrix(1,0,0,1,1175,865) translate(140.9037037037037 108.06666666666666)"/><use xlink:href="#Y" transform="matrix(1,0,0,1,1175,865) translate(183.27407407407406 108.06666666666666)"/><use xlink:href="#R" transform="matrix(1,0,0,1,1175,865) translate(37.07222222222221 128.86666666666667)"/><use xlink:href="#m" transform="matrix(1,0,0,1,1175,865) translate(104.43148148148148 128.86666666666667)"/><use xlink:href="#Z" transform="matrix(1,0,0,1,1175,865) translate(128.50555555555556 128.86666666666667)"/></g><path d="M1280 661.5v95.15a5 5 0 0 0 5 5 5 5 0 0 1 5 5v79.28" stroke="#333" fill="none"/><path d="M1280.47 661.5h-.94v-.5h.94z" stroke="#333" stroke-width=".05" fill="#333"/><path d="M1290 860.7l-4.63-14.27h9.27z" stroke="#333" fill="#333"/><path d="M1057.13 967.98l.14 1.82.43 1.76.7 1.67.93 1.54 1.18 1.38 1.38 1.17 1.54.95 1.67.7 1.75.4 1.82.15h103.14v.96h-103.16l-1.94-.16-1.9-.45-1.8-.75-1.68-1.03-1.5-1.28-1.26-1.5-1.02-1.66-.75-1.8-.47-1.9-.15-1.94V900.8h.95zm-10.52-168.3l1.9.45 1.82.75 1.67 1.03 1.48 1.28 1.27 1.5 1.02 1.66.75 1.8.46 1.9.15 1.94v67.22h-.95v-67.18l-.14-1.82-.42-1.76-.7-1.67-.94-1.54-1.18-1.38-1.37-1.17-1.54-.95-1.68-.7-1.76-.4-1.82-.15h-87.26v-.96h87.3z" stroke="#333" stroke-width=".05" fill="#333"/><path d="M1172.3 980l.05.48h-.55v-.96h.55z" fill="#333"/><path stroke="#333" stroke-width=".05" fill="#333"/><path d="M956.88 804.63L942.62 800l14.26-4.63z" fill="#333"/><path d="M957.36 805.3l-16.28-5.3 16.28-5.3zm-13.2-5.3l12.25 3.98v-7.96z" stroke="#333" stroke-width=".05" fill="#333"/><g><use xlink:href="#aa" transform="matrix(1,0,0,1,1048.155298470926,879.2) translate(0.005000000000000782 14.4)"/></g><path d="M700 748a8 8 0 0 1 8-8h224a8 8 0 0 1 8 8v104a8 8 0 0 1-8 8H708a8 8 0 0 1-8-8z" stroke="#6db1ff" stroke-width="2" fill="#edf5ff"/><g><use xlink:href="#K" transform="matrix(1,0,0,1,705,745) translate(12.155555555555551 37.666666666666664)"/><use xlink:href="#ab" transform="matrix(1,0,0,1,705,745) translate(76.52962962962962 37.666666666666664)"/><use xlink:href="#W" transform="matrix(1,0,0,1,705,745) translate(94.77777777777777 37.666666666666664)"/><use xlink:href="#s" transform="matrix(1,0,0,1,705,745) translate(180.33703703703702 37.666666666666664)"/><use xlink:href="#t" transform="matrix(1,0,0,1,705,745) translate(204.4111111111111 37.666666666666664)"/><use xlink:href="#ac" transform="matrix(1,0,0,1,705,745) translate(30.331481481481475 58.46666666666666)"/><use xlink:href="#ad" transform="matrix(1,0,0,1,705,745) translate(66.87592592592593 58.46666666666666)"/><use xlink:href="#ae" transform="matrix(1,0,0,1,705,745) translate(99.61666666666667 58.46666666666666)"/><use xlink:href="#k" transform="matrix(1,0,0,1,705,745) translate(191.00185185185188 58.46666666666666)"/><use xlink:href="#af" transform="matrix(1,0,0,1,705,745) translate(56.307407407407396 79.26666666666668)"/></g><path d="M320 748a8 8 0 0 1 8-8h224a8 8 0 0 1 8 8v104a8 8 0 0 1-8 8H328a8 8 0 0 1-8-8z" stroke="#6db1ff" stroke-width="2" fill="#edf5ff"/><g><use xlink:href="#ag" transform="matrix(1,0,0,1,325,745) translate(21.712962962962948 48.06666666666666)"/><use xlink:href="#ah" transform="matrix(1,0,0,1,325,745) translate(124.65370370370371 48.06666666666666)"/><use xlink:href="#k" transform="matrix(1,0,0,1,325,745) translate(199.62037037037038 48.06666666666666)"/><use xlink:href="#ai" transform="matrix(1,0,0,1,325,745) translate(39.02222222222221 68.86666666666667)"/><use xlink:href="#aj" transform="matrix(1,0,0,1,325,745) translate(109.17407407407407 68.86666666666667)"/><use xlink:href="#ak" transform="matrix(1,0,0,1,325,745) translate(148.6074074074074 68.86666666666667)"/></g><path d="M698.5 800H577.38" stroke="#333" fill="none"/><path d="M699 800.48h-.5v-.96h.5z" stroke="#333" stroke-width=".05" fill="#333"/><path d="M562.62 800l14.26-4.63v9.26z" stroke="#333" fill="#333"/><path d="M448 980c17.67 0 32 17.9 32 40s-14.33 40-32 40h-96c-17.67 0-32-17.9-32-40s14.33-40 32-40z" stroke="#ff80df" stroke-width="2" fill="#fff0fb"/><g><use xlink:href="#al" transform="matrix(1,0,0,1,325,985) translate(3.837037037037021 28.066666666666663)"/><use xlink:href="#b" transform="matrix(1,0,0,1,325,985) translate(32.62962962962962 28.066666666666663)"/><use xlink:href="#am" transform="matrix(1,0,0,1,325,985) translate(60.5074074074074 28.066666666666663)"/><use xlink:href="#an" transform="matrix(1,0,0,1,325,985) translate(126.90370370370371 28.066666666666663)"/><use xlink:href="#e" transform="matrix(1,0,0,1,325,985) translate(30.77592592592591 48.86666666666667)"/></g><path d="M440 861.5V908a12 12 0 0 1-12 12h-8.08a12 12 0 0 0-12 12v30.62" stroke="#333" fill="none"/><path d="M440.48 861.5h-.96v-.5h.96z" stroke="#333" stroke-width=".05" fill="#333"/><path d="M407.92 977.38l-4.63-14.26h9.26z" stroke="#333" fill="#333"/><path d="M1448.16 968.02l-.15 1.93-.44 1.9-.75 1.8-1.02 1.68-1.27 1.5-1.48 1.26-1.67 1.02-1.8.75-1.9.45-1.94.15h-27.5v-.95h27.47l1.82-.14 1.75-.42 1.67-.7 1.54-.94 1.38-1.17 1.17-1.38.96-1.54.7-1.67.4-1.76.15-1.82V317.46h.96zm-10.52-768.34l1.9.45 1.8.75 1.68 1.03 1.5 1.28 1.26 1.5 1.03 1.66.76 1.8.45 1.9.16 1.94v83.88h-.95v-83.84l-.13-1.82-.42-1.76-.7-1.67-.94-1.54-1.16-1.38-1.38-1.17-1.54-.95-1.67-.7-1.76-.4-1.83-.16h-578.3v-.94h578.34z" stroke="#333" stroke-width=".05" fill="#333"/><path d="M1408.2 980.48h-.55l.04-.48-.05-.48h.55z" fill="#333"/><path stroke="#333" stroke-width=".05" fill="#333"/><path d="M856.9 204.63L842.6 200l14.26-4.63z" fill="#333"/><path d="M857.36 205.3l-16.28-5.3 16.28-5.3zm-13.2-5.3l12.25 3.98v-7.96z" stroke="#333" stroke-width=".05" fill="#333"/><g><use xlink:href="#ao" transform="matrix(1,0,0,1,1436.2143530581484,295.8556345801896) translate(0.005000000000000782 14.4)"/></g><defs><path d="M33 0v-248h34V0H33" id="ap"/><path d="M117-194c89-4 53 116 60 194h-32v-121c0-31-8-49-39-48C34-167 62-67 57 0H25l-1-190h30c1 10-1 24 2 32 11-22 29-35 61-36" id="aq"/><path d="M24-231v-30h32v30H24zM24 0v-190h32V0H24" id="ar"/><path d="M96-169c-40 0-48 33-48 73s9 75 48 75c24 0 41-14 43-38l32 2c-6 37-31 61-74 61-59 0-76-41-82-99-10-93 101-131 147-64 4 7 5 14 7 22l-32 3c-4-21-16-35-41-35" id="as"/><path d="M100-194c62-1 85 37 85 99 1 63-27 99-86 99S16-35 15-95c0-66 28-99 85-99zM99-20c44 1 53-31 53-75 0-43-8-75-51-75s-53 32-53 75 10 74 51 75" id="at"/><g id="a"><use transform="matrix(0.048148148148148155,0,0,0.048148148148148155,0,0)" xlink:href="#ap"/><use transform="matrix(0.048148148148148155,0,0,0.048148148148148155,4.814814814814816,0)" xlink:href="#aq"/><use transform="matrix(0.048148148148148155,0,0,0.048148148148148155,14.444444444444446,0)" xlink:href="#ar"/><use transform="matrix(0.048148148148148155,0,0,0.048148148148148155,18.24814814814815,0)" xlink:href="#as"/><use transform="matrix(0.048148148148148155,0,0,0.048148148148148155,26.914814814814818,0)" xlink:href="#ar"/><use transform="matrix(0.048148148148148155,0,0,0.048148148148148155,30.718518518518522,0)" xlink:href="#at"/></g><path d="M85-194c31 0 48 13 60 33l-1-100h32l1 261h-30c-2-10 0-23-3-31C134-8 116 4 85 4 32 4 16-35 15-94c0-66 23-100 70-100zm9 24c-40 0-46 34-46 75 0 40 6 74 45 74 42 0 51-32 51-76 0-42-9-74-50-73" id="au"/><path d="M100-194c63 0 86 42 84 106H49c0 40 14 67 53 68 26 1 43-12 49-29l28 8c-11 28-37 45-77 45C44 4 14-33 15-96c1-61 26-98 85-98zm52 81c6-60-76-77-97-28-3 7-6 17-6 28h103" id="av"/><path d="M24 0v-261h32V0H24" id="aw"/><g id="b"><use transform="matrix(0.048148148148148155,0,0,0.048148148148148155,0,0)" xlink:href="#au"/><use transform="matrix(0.048148148148148155,0,0,0.048148148148148155,9.629629629629632,0)" xlink:href="#av"/><use transform="matrix(0.048148148148148155,0,0,0.048148148148148155,19.259259259259263,0)" xlink:href="#aw"/></g><path d="M115-194c55 1 70 41 70 98S169 2 115 4C84 4 66-9 55-30l1 105H24l-1-265h31l2 30c10-21 28-34 59-34zm-8 174c40 0 45-34 45-75s-6-73-45-74c-42 0-51 32-51 76 0 43 10 73 51 73" id="ax"/><path d="M114-163C36-179 61-72 57 0H25l-1-190h30c1 12-1 29 2 39 6-27 23-49 58-41v29" id="ay"/><path d="M135-143c-3-34-86-38-87 0 15 53 115 12 119 90S17 21 10-45l28-5c4 36 97 45 98 0-10-56-113-15-118-90-4-57 82-63 122-42 12 7 21 19 24 35" id="az"/><g id="c"><use transform="matrix(0.048148148148148155,0,0,0.048148148148148155,0,0)" xlink:href="#ax"/><use transform="matrix(0.048148148148148155,0,0,0.048148148148148155,9.629629629629632,0)" xlink:href="#ay"/><use transform="matrix(0.048148148148148155,0,0,0.048148148148148155,15.359259259259261,0)" xlink:href="#at"/><use transform="matrix(0.048148148148148155,0,0,0.048148148148148155,24.988888888888894,0)" xlink:href="#as"/><use transform="matrix(0.048148148148148155,0,0,0.048148148148148155,33.655555555555566,0)" xlink:href="#av"/><use transform="matrix(0.048148148148148155,0,0,0.048148148148148155,43.2851851851852,0)" xlink:href="#az"/><use transform="matrix(0.048148148148148155,0,0,0.048148148148148155,51.95185185185187,0)" xlink:href="#at"/></g><g id="d"><use transform="matrix(0.048148148148148155,0,0,0.048148148148148155,0,0)" xlink:href="#au"/><use transform="matrix(0.048148148148148155,0,0,0.048148148148148155,9.629629629629632,0)" xlink:href="#av"/></g><path d="M141-36C126-15 110 5 73 4 37 3 15-17 15-53c-1-64 63-63 125-63 3-35-9-54-41-54-24 1-41 7-42 31l-33-3c5-37 33-52 76-52 45 0 72 20 72 64v82c-1 20 7 32 28 27v20c-31 9-61-2-59-35zM48-53c0 20 12 33 32 33 41-3 63-29 60-74-43 2-92-5-92 41" id="aA"/><path d="M210-169c-67 3-38 105-44 169h-31v-121c0-29-5-50-35-48C34-165 62-65 56 0H25l-1-190h30c1 10-1 24 2 32 10-44 99-50 107 0 11-21 27-35 58-36 85-2 47 119 55 194h-31v-121c0-29-5-49-35-48" id="aB"/><path d="M115-194c53 0 69 39 70 98 0 66-23 100-70 100C84 3 66-7 56-30L54 0H23l1-261h32v101c10-23 28-34 59-34zm-8 174c40 0 45-34 45-75 0-40-5-75-45-74-42 0-51 32-51 76 0 43 10 73 51 73" id="aC"/><path d="M24-231v-30h32v30H24zM-9 49c24 4 33-6 33-30v-209h32V24c2 40-23 58-65 49V49" id="aD"/><g id="e"><use transform="matrix(0.048148148148148155,0,0,0.048148148148148155,0,0)" xlink:href="#av"/><use transform="matrix(0.048148148148148155,0,0,0.048148148148148155,9.629629629629632,0)" xlink:href="#aq"/><use transform="matrix(0.048148148148148155,0,0,0.048148148148148155,19.259259259259263,0)" xlink:href="#az"/><use transform="matrix(0.048148148148148155,0,0,0.048148148148148155,27.92592592592593,0)" xlink:href="#aA"/><use transform="matrix(0.048148148148148155,0,0,0.048148148148148155,37.555555555555564,0)" xlink:href="#aB"/><use transform="matrix(0.048148148148148155,0,0,0.048148148148148155,51.951851851851856,0)" xlink:href="#aC"/><use transform="matrix(0.048148148148148155,0,0,0.048148148148148155,61.581481481481504,0)" xlink:href="#aw"/><use transform="matrix(0.048148148148148155,0,0,0.048148148148148155,65.38518518518521,0)" xlink:href="#aA"/><use transform="matrix(0.048148148148148155,0,0,0.048148148148148155,75.01481481481484,0)" xlink:href="#aD"/><use transform="matrix(0.048148148148148155,0,0,0.048148148148148155,78.81851851851854,0)" xlink:href="#av"/></g><path d="M137 0h-34L2-248h35l83 218 83-218h36" id="aE"/><path d="M101-234c-31-9-42 10-38 44h38v23H63V0H32v-167H5v-23h27c-7-52 17-82 69-68v24" id="aF"/><g id="f"><use transform="matrix(0.048148148148148155,0,0,0.048148148148148155,0,0)" xlink:href="#aE"/><use transform="matrix(0.048148148148148155,0,0,0.048148148148148155,10.592592592592593,0)" xlink:href="#av"/><use transform="matrix(0.048148148148148155,0,0,0.048148148148148155,20.222222222222225,0)" xlink:href="#ay"/><use transform="matrix(0.048148148148148155,0,0,0.048148148148148155,25.951851851851856,0)" xlink:href="#ar"/><use transform="matrix(0.048148148148148155,0,0,0.048148148148148155,29.75555555555556,0)" xlink:href="#aF"/><use transform="matrix(0.048148148148148155,0,0,0.048148148148148155,34.57037037037038,0)" xlink:href="#ar"/><use transform="matrix(0.048148148148148155,0,0,0.048148148148148155,38.37407407407408,0)" xlink:href="#as"/><use transform="matrix(0.048148148148148155,0,0,0.048148148148148155,47.040740740740745,0)" xlink:href="#aA"/><use transform="matrix(0.048148148148148155,0,0,0.048148148148148155,56.67037037037038,0)" xlink:href="#ay"/></g><path d="M179-190L93 31C79 59 56 82 12 73V49c39 6 53-20 64-50L1-190h34L92-34l54-156h33" id="aG"/><use transform="matrix(0.048148148148148155,0,0,0.048148148148148155,0,0)" xlink:href="#aG" id="g"/><path d="M177-190C167-65 218 103 67 71c-23-6-38-20-44-43l32-5c15 47 100 32 89-28v-30C133-14 115 1 83 1 29 1 15-40 15-95c0-56 16-97 71-98 29-1 48 16 59 35 1-10 0-23 2-32h30zM94-22c36 0 50-32 50-73 0-42-14-75-50-75-39 0-46 34-46 75s6 73 46 73" id="aH"/><path d="M9 0v-24l116-142H16v-24h144v24L44-24h123V0H9" id="aI"/><g id="h"><use transform="matrix(0.048148148148148155,0,0,0.048148148148148155,0,0)" xlink:href="#at"/><use transform="matrix(0.048148148148148155,0,0,0.048148148148148155,9.629629629629632,0)" xlink:href="#ay"/><use transform="matrix(0.048148148148148155,0,0,0.048148148148148155,15.359259259259261,0)" xlink:href="#aH"/><use transform="matrix(0.048148148148148155,0,0,0.048148148148148155,24.988888888888894,0)" xlink:href="#aA"/><use transform="matrix(0.048148148148148155,0,0,0.048148148148148155,34.61851851851853,0)" xlink:href="#aq"/><use transform="matrix(0.048148148148148155,0,0,0.048148148148148155,44.24814814814816,0)" xlink:href="#ar"/><use transform="matrix(0.048148148148148155,0,0,0.048148148148148155,48.051851851851865,0)" xlink:href="#aI"/><use transform="matrix(0.048148148148148155,0,0,0.048148148148148155,56.718518518518536,0)" xlink:href="#aA"/><use transform="matrix(0.048148148148148155,0,0,0.048148148148148155,66.34814814814817,0)" xlink:href="#ay"/></g><path d="M59-47c-2 24 18 29 38 22v24C64 9 27 4 27-40v-127H5v-23h24l9-43h21v43h35v23H59v120" id="aJ"/><g id="i"><use transform="matrix(0.048148148148148155,0,0,0.048148148148148155,0,0)" xlink:href="#as"/><use transform="matrix(0.048148148148148155,0,0,0.048148148148148155,8.666666666666668,0)" xlink:href="#at"/><use transform="matrix(0.048148148148148155,0,0,0.048148148148148155,18.296296296296298,0)" xlink:href="#aB"/><use transform="matrix(0.048148148148148155,0,0,0.048148148148148155,32.6925925925926,0)" xlink:href="#ax"/><use transform="matrix(0.048148148148148155,0,0,0.048148148148148155,42.32222222222223,0)" xlink:href="#at"/><use transform="matrix(0.048148148148148155,0,0,0.048148148148148155,51.951851851851856,0)" xlink:href="#aq"/><use transform="matrix(0.048148148148148155,0,0,0.048148148148148155,61.581481481481504,0)" xlink:href="#av"/><use transform="matrix(0.048148148148148155,0,0,0.048148148148148155,71.21111111111112,0)" xlink:href="#aq"/><use transform="matrix(0.048148148148148155,0,0,0.048148148148148155,80.84074074074076,0)" xlink:href="#aJ"/><use transform="matrix(0.048148148148148155,0,0,0.048148148148148155,85.65555555555557,0)" xlink:href="#av"/><use transform="matrix(0.048148148148148155,0,0,0.048148148148148155,95.2851851851852,0)" xlink:href="#az"/></g><path d="M100-194c62-1 85 37 85 99 1 63-27 99-86 99S16-35 15-95c0-66 28-99 85-99zM99-20c44 1 53-31 53-75 0-43-8-75-51-75s-53 32-53 75 10 74 51 75zM76-211c8-23 27-35 38-54h36v5l-58 49H76" id="aK"/><g id="j"><use transform="matrix(0.048148148148148155,0,0,0.048148148148148155,0,0)" xlink:href="#av"/><use transform="matrix(0.048148148148148155,0,0,0.048148148148148155,9.629629629629632,0)" xlink:href="#aw"/><use transform="matrix(0.048148148148148155,0,0,0.048148148148148155,13.433333333333335,0)" xlink:href="#av"/><use transform="matrix(0.048148148148148155,0,0,0.048148148148148155,23.062962962962967,0)" xlink:href="#as"/><use transform="matrix(0.048148148148148155,0,0,0.048148148148148155,31.729629629629635,0)" xlink:href="#aJ"/><use transform="matrix(0.048148148148148155,0,0,0.048148148148148155,36.54444444444445,0)" xlink:href="#ay"/><use transform="matrix(0.048148148148148155,0,0,0.048148148148148155,42.27407407407408,0)" xlink:href="#aK"/><use transform="matrix(0.048148148148148155,0,0,0.048148148148148155,51.90370370370371,0)" xlink:href="#aq"/><use transform="matrix(0.048148148148148155,0,0,0.048148148148148155,61.533333333333346,0)" xlink:href="#ar"/><use transform="matrix(0.048148148148148155,0,0,0.048148148148148155,65.33703703703705,0)" xlink:href="#as"/><use transform="matrix(0.048148148148148155,0,0,0.048148148148148155,74.00370370370372,0)" xlink:href="#at"/><use transform="matrix(0.048148148148148155,0,0,0.048148148148148155,83.63333333333335,0)" xlink:href="#az"/></g><use transform="matrix(0.048148148148148155,0,0,0.048148148148148155,0,0)" xlink:href="#aG" id="k"/><g id="l"><use transform="matrix(0.048148148148148155,0,0,0.048148148148148155,0,0)" xlink:href="#aB"/><use transform="matrix(0.048148148148148155,0,0,0.048148148148148155,14.396296296296299,0)" xlink:href="#aA"/><use transform="matrix(0.048148148148148155,0,0,0.048148148148148155,24.025925925925932,0)" xlink:href="#aJ"/><use transform="matrix(0.048148148148148155,0,0,0.048148148148148155,28.84074074074075,0)" xlink:href="#av"/><use transform="matrix(0.048148148148148155,0,0,0.048148148148148155,38.47037037037038,0)" xlink:href="#ay"/><use transform="matrix(0.048148148148148155,0,0,0.048148148148148155,44.20000000000001,0)" xlink:href="#ar"/><use transform="matrix(0.048148148148148155,0,0,0.048148148148148155,48.003703703703714,0)" xlink:href="#aA"/><use transform="matrix(0.048148148148148155,0,0,0.048148148148148155,57.63333333333334,0)" xlink:href="#aw"/><use transform="matrix(0.048148148148148155,0,0,0.048148148148148155,61.437037037037044,0)" xlink:href="#av"/><use transform="matrix(0.048148148148148155,0,0,0.048148148148148155,71.06666666666668,0)" xlink:href="#az"/></g><g id="m"><use transform="matrix(0.048148148148148155,0,0,0.048148148148148155,0,0)" xlink:href="#au"/><use transform="matrix(0.048148148148148155,0,0,0.048148148148148155,9.629629629629632,0)" xlink:href="#av"/></g><g id="n"><use transform="matrix(0.048148148148148155,0,0,0.048148148148148155,0,0)" xlink:href="#av"/><use transform="matrix(0.048148148148148155,0,0,0.048148148148148155,9.629629629629632,0)" xlink:href="#aB"/><use transform="matrix(0.048148148148148155,0,0,0.048148148148148155,24.025925925925932,0)" xlink:href="#aC"/><use transform="matrix(0.048148148148148155,0,0,0.048148148148148155,33.655555555555566,0)" xlink:href="#aA"/><use transform="matrix(0.048148148148148155,0,0,0.048148148148148155,43.2851851851852,0)" xlink:href="#aw"/><use transform="matrix(0.048148148148148155,0,0,0.048148148148148155,47.0888888888889,0)" xlink:href="#aA"/><use transform="matrix(0.048148148148148155,0,0,0.048148148148148155,56.718518518518536,0)" xlink:href="#aD"/><use transform="matrix(0.048148148148148155,0,0,0.048148148148148155,60.52222222222224,0)" xlink:href="#av"/></g><path d="M240 0l2-218c-23 76-54 145-80 218h-23L58-218 59 0H30v-248h44l77 211c21-75 51-140 76-211h43V0h-30" id="aL"/><g id="o"><use transform="matrix(0.048148148148148155,0,0,0.048148148148148155,0,0)" xlink:href="#aL"/><use transform="matrix(0.048148148148148155,0,0,0.048148148148148155,14.396296296296299,0)" xlink:href="#at"/><use transform="matrix(0.048148148148148155,0,0,0.048148148148148155,24.025925925925932,0)" xlink:href="#aq"/><use transform="matrix(0.048148148148148155,0,0,0.048148148148148155,33.655555555555566,0)" xlink:href="#aJ"/><use transform="matrix(0.048148148148148155,0,0,0.048148148148148155,38.47037037037038,0)" xlink:href="#aA"/><use transform="matrix(0.048148148148148155,0,0,0.048148148148148155,48.100000000000016,0)" xlink:href="#ay"/></g><g id="p"><use transform="matrix(0.048148148148148155,0,0,0.048148148148148155,0,0)" xlink:href="#aw"/><use transform="matrix(0.048148148148148155,0,0,0.048148148148148155,3.8037037037037043,0)" xlink:href="#aA"/></g><g id="q"><use transform="matrix(0.048148148148148155,0,0,0.048148148148148155,0,0)" xlink:href="#ax"/><use transform="matrix(0.048148148148148155,0,0,0.048148148148148155,9.629629629629632,0)" xlink:href="#aw"/><use transform="matrix(0.048148148148148155,0,0,0.048148148148148155,13.433333333333335,0)" xlink:href="#aA"/><use transform="matrix(0.048148148148148155,0,0,0.048148148148148155,23.062962962962967,0)" xlink:href="#as"/><use transform="matrix(0.048148148148148155,0,0,0.048148148148148155,31.729629629629635,0)" xlink:href="#aA"/></g><g id="r"><use transform="matrix(0.048148148148148155,0,0,0.048148148148148155,0,0)" xlink:href="#aC"/><use transform="matrix(0.048148148148148155,0,0,0.048148148148148155,9.629629629629632,0)" xlink:href="#aA"/><use transform="matrix(0.048148148148148155,0,0,0.048148148148148155,19.259259259259263,0)" xlink:href="#az"/><use transform="matrix(0.048148148148148155,0,0,0.048148148148148155,27.92592592592593,0)" xlink:href="#av"/></g><g id="s"><use transform="matrix(0.048148148148148155,0,0,0.048148148148148155,0,0)" xlink:href="#av"/><use transform="matrix(0.048148148148148155,0,0,0.048148148148148155,9.629629629629632,0)" xlink:href="#aq"/></g><g id="t"><use transform="matrix(0.048148148148148155,0,0,0.048148148148148155,0,0)" xlink:href="#aw"/><use transform="matrix(0.048148148148148155,0,0,0.048148148148148155,3.8037037037037043,0)" xlink:href="#aA"/></g><g id="u"><use transform="matrix(0.048148148148148155,0,0,0.048148148148148155,0,0)" xlink:href="#as"/><use transform="matrix(0.048148148148148155,0,0,0.048148148148148155,8.666666666666668,0)" xlink:href="#aA"/><use transform="matrix(0.048148148148148155,0,0,0.048148148148148155,18.296296296296298,0)" xlink:href="#ay"/><use transform="matrix(0.048148148148148155,0,0,0.048148148148148155,24.02592592592593,0)" xlink:href="#as"/><use transform="matrix(0.048148148148148155,0,0,0.048148148148148155,32.6925925925926,0)" xlink:href="#aA"/><use transform="matrix(0.048148148148148155,0,0,0.048148148148148155,42.32222222222223,0)" xlink:href="#az"/><use transform="matrix(0.048148148148148155,0,0,0.048148148148148155,50.988888888888894,0)" xlink:href="#aA"/></g><g id="v"><use transform="matrix(0.048148148148148155,0,0,0.048148148148148155,0,0)" xlink:href="#as"/><use transform="matrix(0.048148148148148155,0,0,0.048148148148148155,8.666666666666668,0)" xlink:href="#at"/><use transform="matrix(0.048148148148148155,0,0,0.048148148148148155,18.296296296296298,0)" xlink:href="#aq"/><use transform="matrix(0.048148148148148155,0,0,0.048148148148148155,27.92592592592593,0)" xlink:href="#av"/><use transform="matrix(0.048148148148148155,0,0,0.048148148148148155,37.555555555555564,0)" xlink:href="#as"/><use transform="matrix(0.048148148148148155,0,0,0.048148148148148155,46.22222222222223,0)" xlink:href="#aJ"/><use transform="matrix(0.048148148148148155,0,0,0.048148148148148155,51.037037037037045,0)" xlink:href="#aA"/><use transform="matrix(0.048148148148148155,0,0,0.048148148148148155,60.66666666666668,0)" xlink:href="#ay"/></g><path d="M34 0v-190h32V0H34zM24-211c8-23 27-35 38-54h36v5l-58 49H24" id="aM"/><g id="w"><use transform="matrix(0.048148148148148155,0,0,0.048148148148148155,0,0)" xlink:href="#aC"/><use transform="matrix(0.048148148148148155,0,0,0.048148148148148155,9.629629629629632,0)" xlink:href="#aA"/><use transform="matrix(0.048148148148148155,0,0,0.048148148148148155,19.259259259259263,0)" xlink:href="#aJ"/><use transform="matrix(0.048148148148148155,0,0,0.048148148148148155,24.07407407407408,0)" xlink:href="#av"/><use transform="matrix(0.048148148148148155,0,0,0.048148148148148155,33.70370370370371,0)" xlink:href="#ay"/><use transform="matrix(0.048148148148148155,0,0,0.048148148148148155,39.43333333333334,0)" xlink:href="#aM"/><use transform="matrix(0.048148148148148155,0,0,0.048148148148148155,44.248148148148154,0)" xlink:href="#aA"/></g><g id="x"><use transform="matrix(0.048148148148148155,0,0,0.048148148148148155,0,0)" xlink:href="#as"/><use transform="matrix(0.048148148148148155,0,0,0.048148148148148155,8.666666666666668,0)" xlink:href="#aA"/><use transform="matrix(0.048148148148148155,0,0,0.048148148148148155,18.296296296296298,0)" xlink:href="#aC"/><use transform="matrix(0.048148148148148155,0,0,0.048148148148148155,27.92592592592593,0)" xlink:href="#aw"/><use transform="matrix(0.048148148148148155,0,0,0.048148148148148155,31.729629629629635,0)" xlink:href="#av"/><use transform="matrix(0.048148148148148155,0,0,0.048148148148148155,41.35925925925927,0)" xlink:href="#az"/></g><path fill="#a9afb8" d="M24-248c120-7 223 5 221 122C244-46 201 0 124 0H24v-248zM76-40c74 7 117-18 117-86 0-67-45-88-117-82v168" id="aN"/><path fill="#a9afb8" d="M25-224v-37h50v37H25zM25 0v-190h50V0H25" id="aO"/><path fill="#a9afb8" d="M133-34C117-15 103 5 69 4 32 3 11-16 11-54c-1-60 55-63 116-61 1-26-3-47-28-47-18 1-26 9-28 27l-52-2c7-38 36-58 82-57s74 22 75 68l1 82c-1 14 12 18 25 15v27c-30 8-71 5-69-32zm-48 3c29 0 43-24 42-57-32 0-66-3-65 30 0 17 8 27 23 27" id="aP"/><path fill="#a9afb8" d="M195-6C206 82 75 100 31 46c-4-6-6-13-8-21l49-6c3 16 16 24 34 25 40 0 42-37 40-79-11 22-30 35-61 35-53 0-70-43-70-97 0-56 18-96 73-97 30 0 46 14 59 34l2-30h47zm-90-29c32 0 41-27 41-63 0-35-9-62-40-62-32 0-39 29-40 63 0 36 9 62 39 62" id="aQ"/><path fill="#a9afb8" d="M135-150c-39-12-60 13-60 57V0H25l-1-190h47c2 13-1 29 3 40 6-28 27-53 61-41v41" id="aR"/><path fill="#a9afb8" d="M220-157c-53 9-28 100-34 157h-49v-107c1-27-5-49-29-50C55-147 81-57 75 0H25l-1-190h47c2 12-1 28 3 38 10-53 101-56 108 0 13-22 24-43 59-42 82 1 51 116 57 194h-49v-107c-1-25-5-48-29-50" id="aS"/><g id="z"><use transform="matrix(0.0728395061728395,0,0,0.0728395061728395,0,0)" xlink:href="#aN"/><use transform="matrix(0.0728395061728395,0,0,0.0728395061728395,18.86543209876543,0)" xlink:href="#aO"/><use transform="matrix(0.0728395061728395,0,0,0.0728395061728395,26.14938271604938,0)" xlink:href="#aP"/><use transform="matrix(0.0728395061728395,0,0,0.0728395061728395,40.717283950617286,0)" xlink:href="#aQ"/><use transform="matrix(0.0728395061728395,0,0,0.0728395061728395,56.66913580246913,0)" xlink:href="#aR"/><use transform="matrix(0.0728395061728395,0,0,0.0728395061728395,66.86666666666666,0)" xlink:href="#aP"/><use transform="matrix(0.0728395061728395,0,0,0.0728395061728395,81.43456790123457,0)" xlink:href="#aS"/><use transform="matrix(0.0728395061728395,0,0,0.0728395061728395,104.7432098765432,0)" xlink:href="#aP"/></g><path fill="#a9afb8" d="M88-194c31-1 46 15 58 34l-1-101h50l1 261h-48c-2-10 0-23-3-31C134-8 116 4 84 4 32 4 16-41 15-95c0-56 19-97 73-99zm17 164c33 0 40-30 41-66 1-37-9-64-41-64s-38 30-39 65c0 43 13 65 39 65" id="aT"/><path fill="#a9afb8" d="M185-48c-13 30-37 53-82 52C43 2 14-33 14-96s30-98 90-98c62 0 83 45 84 108H66c0 31 8 55 39 56 18 0 30-7 34-22zm-45-69c5-46-57-63-70-21-2 6-4 13-4 21h74" id="aU"/><g id="A"><use transform="matrix(0.0728395061728395,0,0,0.0728395061728395,0,0)" xlink:href="#aT"/><use transform="matrix(0.0728395061728395,0,0,0.0728395061728395,15.95185185185185,0)" xlink:href="#aU"/></g><path fill="#a9afb8" d="M121-226c-27-7-43 5-38 36h38v33H83V0H34v-157H6v-33h28c-9-59 32-81 87-68v32" id="aV"/><path fill="#a9afb8" d="M25 0v-261h50V0H25" id="aW"/><path fill="#a9afb8" d="M85 4C-2 5 27-109 22-190h50c7 57-23 150 33 157 60-5 35-97 40-157h50l1 190h-47c-2-12 1-28-3-38-12 25-28 42-61 42" id="aX"/><path fill="#a9afb8" d="M25-224v-37h50v37H25zM75 22c2 45-34 59-81 51V38c22 5 31-5 31-27v-201h50V22" id="aY"/><path fill="#a9afb8" d="M110-194c64 0 96 36 96 99 0 64-35 99-97 99-61 0-95-36-95-99 0-62 34-99 96-99zm-1 164c35 0 45-28 45-65 0-40-10-65-43-65-34 0-45 26-45 65 0 36 10 65 43 65" id="aZ"/><g id="B"><use transform="matrix(0.0728395061728395,0,0,0.0728395061728395,0,0)" xlink:href="#aV"/><use transform="matrix(0.0728395061728395,0,0,0.0728395061728395,8.667901234567902,0)" xlink:href="#aW"/><use transform="matrix(0.0728395061728395,0,0,0.0728395061728395,15.951851851851854,0)" xlink:href="#aX"/><use transform="matrix(0.0728395061728395,0,0,0.0728395061728395,31.90370370370371,0)" xlink:href="#aY"/><use transform="matrix(0.0728395061728395,0,0,0.0728395061728395,39.187654320987654,0)" xlink:href="#aZ"/></g><path fill="#a9afb8" d="M30 0v-248h33v221h125V0H30" id="ba"/><path fill="#a9afb8" d="M84 4C-5 8 30-112 23-190h32v120c0 31 7 50 39 49 72-2 45-101 50-169h31l1 190h-30c-1-10 1-25-2-33-11 22-28 36-60 37" id="bb"/><path fill="#a9afb8" d="M24-231v-30h32v30H24zM24 0v-190h32V0H24" id="bc"/><path fill="#a9afb8" d="M135-143c-3-34-86-38-87 0 15 53 115 12 119 90S17 21 10-45l28-5c4 36 97 45 98 0-10-56-113-15-118-90-4-57 82-63 122-42 12 7 21 19 24 35" id="bd"/><path fill="#a9afb8" d="M141-36C126-15 110 5 73 4 37 3 15-17 15-53c-1-64 63-63 125-63 3-35-9-54-41-54-24 1-41 7-42 31l-33-3c5-37 33-52 76-52 45 0 72 20 72 64v82c-1 20 7 32 28 27v20c-31 9-61-2-59-35zM48-53c0 20 12 33 32 33 41-3 63-29 60-74-43 2-92-5-92 41" id="be"/><g id="C"><use transform="matrix(0.04248971193415638,0,0,0.04248971193415638,0,0)" xlink:href="#ba"/><use transform="matrix(0.04248971193415638,0,0,0.04248971193415638,8.497942386831275,0)" xlink:href="#bb"/><use transform="matrix(0.04248971193415638,0,0,0.04248971193415638,16.99588477366255,0)" xlink:href="#bc"/><use transform="matrix(0.04248971193415638,0,0,0.04248971193415638,20.352572016460904,0)" xlink:href="#bd"/><use transform="matrix(0.04248971193415638,0,0,0.04248971193415638,28.000720164609053,0)" xlink:href="#be"/></g><path fill="#a9afb8" d="M63-220v92h138v28H63V0H30v-248h175v28H63" id="bf"/><path fill="#a9afb8" d="M100-194c63 0 86 42 84 106H49c0 40 14 67 53 68 26 1 43-12 49-29l28 8c-11 28-37 45-77 45C44 4 14-33 15-96c1-61 26-98 85-98zm52 81c6-60-76-77-97-28-3 7-6 17-6 28h103" id="bg"/><path fill="#a9afb8" d="M114-163C36-179 61-72 57 0H25l-1-190h30c1 12-1 29 2 39 6-27 23-49 58-41v29" id="bh"/><path fill="#a9afb8" d="M117-194c89-4 53 116 60 194h-32v-121c0-31-8-49-39-48C34-167 62-67 57 0H25l-1-190h30c1 10-1 24 2 32 11-22 29-35 61-36" id="bi"/><path fill="#a9afb8" d="M85-194c31 0 48 13 60 33l-1-100h32l1 261h-30c-2-10 0-23-3-31C134-8 116 4 85 4 32 4 16-35 15-94c0-66 23-100 70-100zm9 24c-40 0-46 34-46 75 0 40 6 74 45 74 42 0 51-32 51-76 0-42-9-74-50-73" id="bj"/><g id="D"><use transform="matrix(0.04248971193415638,0,0,0.04248971193415638,0,0)" xlink:href="#bf"/><use transform="matrix(0.04248971193415638,0,0,0.04248971193415638,9.305246913580246,0)" xlink:href="#bg"/><use transform="matrix(0.04248971193415638,0,0,0.04248971193415638,17.80318930041152,0)" xlink:href="#bh"/><use transform="matrix(0.04248971193415638,0,0,0.04248971193415638,22.85946502057613,0)" xlink:href="#bi"/><use transform="matrix(0.04248971193415638,0,0,0.04248971193415638,31.357407407407408,0)" xlink:href="#be"/><use transform="matrix(0.04248971193415638,0,0,0.04248971193415638,39.855349794238684,0)" xlink:href="#bi"/><use transform="matrix(0.04248971193415638,0,0,0.04248971193415638,48.35329218106995,0)" xlink:href="#bj"/><use transform="matrix(0.04248971193415638,0,0,0.04248971193415638,56.851234567901244,0)" xlink:href="#be"/></g><path fill="#a9afb8" d="M205 0l-28-72H64L36 0H1l101-248h38L239 0h-34zm-38-99l-47-123c-12 45-31 82-46 123h93" id="bk"/><path fill="#a9afb8" d="M115-194c53 0 69 39 70 98 0 66-23 100-70 100C84 3 66-7 56-30L54 0H23l1-261h32v101c10-23 28-34 59-34zm-8 174c40 0 45-34 45-75 0-40-5-75-45-74-42 0-51 32-51 76 0 43 10 73 51 73" id="bl"/><path fill="#a9afb8" d="M100-194c62-1 85 37 85 99 1 63-27 99-86 99S16-35 15-95c0-66 28-99 85-99zM99-20c44 1 53-31 53-75 0-43-8-75-51-75s-53 32-53 75 10 74 51 75" id="bm"/><path fill="#a9afb8" d="M24 0v-261h32V0H24" id="bn"/><g id="E"><use transform="matrix(0.04248971193415638,0,0,0.04248971193415638,0,0)" xlink:href="#bk"/><use transform="matrix(0.04248971193415638,0,0,0.04248971193415638,10.19753086419753,0)" xlink:href="#bh"/><use transform="matrix(0.04248971193415638,0,0,0.04248971193415638,15.25380658436214,0)" xlink:href="#bl"/><use transform="matrix(0.04248971193415638,0,0,0.04248971193415638,23.751748971193415,0)" xlink:href="#bm"/><use transform="matrix(0.04248971193415638,0,0,0.04248971193415638,32.24969135802469,0)" xlink:href="#bn"/><use transform="matrix(0.04248971193415638,0,0,0.04248971193415638,35.60637860082304,0)" xlink:href="#bg"/><use transform="matrix(0.04248971193415638,0,0,0.04248971193415638,44.10432098765432,0)" xlink:href="#bj"/><use transform="matrix(0.04248971193415638,0,0,0.04248971193415638,52.602263374485595,0)" xlink:href="#be"/></g><path fill="#a9afb8" d="M30-248c87 1 191-15 191 75 0 78-77 80-158 76V0H30v-248zm33 125c57 0 124 11 124-50 0-59-68-47-124-48v98" id="bo"/><g id="F"><use transform="matrix(0.04248971193415638,0,0,0.04248971193415638,0,0)" xlink:href="#bo"/><use transform="matrix(0.04248971193415638,0,0,0.04248971193415638,10.19753086419753,0)" xlink:href="#be"/><use transform="matrix(0.04248971193415638,0,0,0.04248971193415638,18.695473251028805,0)" xlink:href="#bh"/><use transform="matrix(0.04248971193415638,0,0,0.04248971193415638,23.751748971193415,0)" xlink:href="#bh"/><use transform="matrix(0.04248971193415638,0,0,0.04248971193415638,28.808024691358025,0)" xlink:href="#be"/></g><path fill="#a9afb8" d="M32 76v-337h29V76H32" id="bp"/><use transform="matrix(0.04248971193415638,0,0,0.04248971193415638,0,0)" xlink:href="#bp" id="G"/><path fill="#a9afb8" d="M185-189c-5-48-123-54-124 2 14 75 158 14 163 119 3 78-121 87-175 55-17-10-28-26-33-46l33-7c5 56 141 63 141-1 0-78-155-14-162-118-5-82 145-84 179-34 5 7 8 16 11 25" id="bq"/><path fill="#a9afb8" d="M115-194c55 1 70 41 70 98S169 2 115 4C84 4 66-9 55-30l1 105H24l-1-265h31l2 30c10-21 28-34 59-34zm-8 174c40 0 45-34 45-75s-6-73-45-74c-42 0-51 32-51 76 0 43 10 73 51 73" id="br"/><path fill="#a9afb8" d="M59-47c-2 24 18 29 38 22v24C64 9 27 4 27-40v-127H5v-23h24l9-43h21v43h35v23H59v120" id="bs"/><path fill="#a9afb8" d="M210-169c-67 3-38 105-44 169h-31v-121c0-29-5-50-35-48C34-165 62-65 56 0H25l-1-190h30c1 10-1 24 2 32 10-44 99-50 107 0 11-21 27-35 58-36 85-2 47 119 55 194h-31v-121c0-29-5-49-35-48" id="bt"/><g id="H"><use transform="matrix(0.04248971193415638,0,0,0.04248971193415638,0,0)" xlink:href="#bq"/><use transform="matrix(0.04248971193415638,0,0,0.04248971193415638,10.19753086419753,0)" xlink:href="#bg"/><use transform="matrix(0.04248971193415638,0,0,0.04248971193415638,18.695473251028805,0)" xlink:href="#br"/><use transform="matrix(0.04248971193415638,0,0,0.04248971193415638,27.193415637860078,0)" xlink:href="#bs"/><use transform="matrix(0.04248971193415638,0,0,0.04248971193415638,31.442386831275712,0)" xlink:href="#bg"/><use transform="matrix(0.04248971193415638,0,0,0.04248971193415638,39.94032921810699,0)" xlink:href="#bt"/><use transform="matrix(0.04248971193415638,0,0,0.04248971193415638,52.64475308641975,0)" xlink:href="#bl"/><use transform="matrix(0.04248971193415638,0,0,0.04248971193415638,61.142695473251024,0)" xlink:href="#bg"/><use transform="matrix(0.04248971193415638,0,0,0.04248971193415638,69.6406378600823,0)" xlink:href="#bh"/></g><path fill="#a9afb8" d="M27 0v-27h64v-190l-56 39v-29l58-41h29v221h61V0H27" id="bu"/><path fill="#a9afb8" d="M155-56V0h-30v-56H8v-25l114-167h33v167h35v25h-35zm-30-156c-27 46-58 90-88 131h88v-131" id="bv"/><path fill="#a9afb8" d="M68-38c1 34 0 65-14 84H32c9-13 17-26 17-46H33v-38h35" id="bw"/><g id="I"><use transform="matrix(0.04248971193415638,0,0,0.04248971193415638,0,0)" xlink:href="#bu"/><use transform="matrix(0.04248971193415638,0,0,0.04248971193415638,8.497942386831275,0)" xlink:href="#bv"/><use transform="matrix(0.04248971193415638,0,0,0.04248971193415638,16.99588477366255,0)" xlink:href="#bw"/></g><path fill="#a9afb8" d="M101-251c82-7 93 87 43 132L82-64C71-53 59-42 53-27h129V0H18c2-99 128-94 128-182 0-28-16-43-45-43s-46 15-49 41l-32-3c6-41 34-60 81-64" id="bx"/><path fill="#a9afb8" d="M101-251c68 0 85 55 85 127S166 4 100 4C33 4 14-52 14-124c0-73 17-127 87-127zm-1 229c47 0 54-49 54-102s-4-102-53-102c-51 0-55 48-55 102 0 53 5 102 54 102" id="by"/><g id="J"><use transform="matrix(0.04248971193415638,0,0,0.04248971193415638,0,0)" xlink:href="#bx"/><use transform="matrix(0.04248971193415638,0,0,0.04248971193415638,8.497942386831275,0)" xlink:href="#by"/><use transform="matrix(0.04248971193415638,0,0,0.04248971193415638,16.99588477366255,0)" xlink:href="#bx"/><use transform="matrix(0.04248971193415638,0,0,0.04248971193415638,25.493827160493822,0)" xlink:href="#bv"/></g><path d="M212-179c-10-28-35-45-73-45-59 0-87 40-87 99 0 60 29 101 89 101 43 0 62-24 78-52l27 14C228-24 195 4 139 4 59 4 22-46 18-125c-6-104 99-153 187-111 19 9 31 26 39 46" id="bz"/><g id="K"><use transform="matrix(0.048148148148148155,0,0,0.048148148148148155,0,0)" xlink:href="#bz"/><use transform="matrix(0.048148148148148155,0,0,0.048148148148148155,12.470370370370372,0)" xlink:href="#at"/><use transform="matrix(0.048148148148148155,0,0,0.048148148148148155,22.1,0)" xlink:href="#aw"/><use transform="matrix(0.048148148148148155,0,0,0.048148148148148155,25.90370370370371,0)" xlink:href="#at"/><use transform="matrix(0.048148148148148155,0,0,0.048148148148148155,35.53333333333334,0)" xlink:href="#as"/><use transform="matrix(0.048148148148148155,0,0,0.048148148148148155,44.2,0)" xlink:href="#aA"/><use transform="matrix(0.048148148148148155,0,0,0.048148148148148155,53.829629629629636,0)" xlink:href="#ay"/></g><path d="M68-38c1 34 0 65-14 84H32c9-13 17-26 17-46H33v-38h35" id="bA"/><g id="L"><use transform="matrix(0.048148148148148155,0,0,0.048148148148148155,0,0)" xlink:href="#ax"/><use transform="matrix(0.048148148148148155,0,0,0.048148148148148155,9.629629629629632,0)" xlink:href="#aA"/><use transform="matrix(0.048148148148148155,0,0,0.048148148148148155,19.259259259259263,0)" xlink:href="#aq"/><use transform="matrix(0.048148148148148155,0,0,0.048148148148148155,28.888888888888893,0)" xlink:href="#aJ"/><use transform="matrix(0.048148148148148155,0,0,0.048148148148148155,33.70370370370371,0)" xlink:href="#aA"/><use transform="matrix(0.048148148148148155,0,0,0.048148148148148155,43.33333333333334,0)" xlink:href="#aw"/><use transform="matrix(0.048148148148148155,0,0,0.048148148148148155,47.13703703703705,0)" xlink:href="#aw"/><use transform="matrix(0.048148148148148155,0,0,0.048148148148148155,50.94074074074075,0)" xlink:href="#aA"/><use transform="matrix(0.048148148148148155,0,0,0.048148148148148155,60.57037037037038,0)" xlink:href="#bA"/></g><path d="M141-36C126-15 110 5 73 4 37 3 15-17 15-53c-1-64 63-63 125-63 3-35-9-54-41-54-24 1-41 7-42 31l-33-3c5-37 33-52 76-52 45 0 72 20 72 64v82c-1 20 7 32 28 27v20c-31 9-61-2-59-35zM48-53c0 20 12 33 32 33 41-3 63-29 60-74-43 2-92-5-92 41zm25-158c8-23 27-35 38-54h36v5l-58 49H73" id="bB"/><g id="M"><use transform="matrix(0.048148148148148155,0,0,0.048148148148148155,0,0)" xlink:href="#as"/><use transform="matrix(0.048148148148148155,0,0,0.048148148148148155,8.666666666666668,0)" xlink:href="#bB"/><use transform="matrix(0.048148148148148155,0,0,0.048148148148148155,18.296296296296298,0)" xlink:href="#aB"/><use transform="matrix(0.048148148148148155,0,0,0.048148148148148155,32.6925925925926,0)" xlink:href="#aA"/><use transform="matrix(0.048148148148148155,0,0,0.048148148148148155,42.32222222222223,0)" xlink:href="#ay"/><use transform="matrix(0.048148148148148155,0,0,0.048148148148148155,48.05185185185186,0)" xlink:href="#aA"/></g><g id="N"><use transform="matrix(0.048148148148148155,0,0,0.048148148148148155,0,0)" xlink:href="#aC"/><use transform="matrix(0.048148148148148155,0,0,0.048148148148148155,9.629629629629632,0)" xlink:href="#at"/><use transform="matrix(0.048148148148148155,0,0,0.048148148148148155,19.259259259259263,0)" xlink:href="#aJ"/><use transform="matrix(0.048148148148148155,0,0,0.048148148148148155,24.07407407407408,0)" xlink:href="#at"/><use transform="matrix(0.048148148148148155,0,0,0.048148148148148155,33.70370370370371,0)" xlink:href="#aq"/><use transform="matrix(0.048148148148148155,0,0,0.048148148148148155,43.33333333333334,0)" xlink:href="#av"/><use transform="matrix(0.048148148148148155,0,0,0.048148148148148155,52.96296296296297,0)" xlink:href="#az"/><use transform="matrix(0.048148148148148155,0,0,0.048148148148148155,61.62962962962965,0)" xlink:href="#bz"/><use transform="matrix(0.048148148148148155,0,0,0.048148148148148155,74.10000000000002,0)" xlink:href="#at"/><use transform="matrix(0.048148148148148155,0,0,0.048148148148148155,83.72962962962966,0)" xlink:href="#aw"/><use transform="matrix(0.048148148148148155,0,0,0.048148148148148155,87.53333333333336,0)" xlink:href="#at"/><use transform="matrix(0.048148148148148155,0,0,0.048148148148148155,97.162962962963,0)" xlink:href="#as"/><use transform="matrix(0.048148148148148155,0,0,0.048148148148148155,105.82962962962966,0)" xlink:href="#aA"/><use transform="matrix(0.048148148148148155,0,0,0.048148148148148155,115.4592592592593,0)" xlink:href="#ay"/></g><g id="O"><use transform="matrix(0.048148148148148155,0,0,0.048148148148148155,0,0)" xlink:href="#ax"/><use transform="matrix(0.048148148148148155,0,0,0.048148148148148155,9.629629629629632,0)" xlink:href="#aA"/><use transform="matrix(0.048148148148148155,0,0,0.048148148148148155,19.259259259259263,0)" xlink:href="#aq"/><use transform="matrix(0.048148148148148155,0,0,0.048148148148148155,28.888888888888893,0)" xlink:href="#aJ"/><use transform="matrix(0.048148148148148155,0,0,0.048148148148148155,33.70370370370371,0)" xlink:href="#aA"/><use transform="matrix(0.048148148148148155,0,0,0.048148148148148155,43.33333333333334,0)" xlink:href="#aw"/><use transform="matrix(0.048148148148148155,0,0,0.048148148148148155,47.13703703703705,0)" xlink:href="#aw"/><use transform="matrix(0.048148148148148155,0,0,0.048148148148148155,50.94074074074075,0)" xlink:href="#aA"/><use transform="matrix(0.048148148148148155,0,0,0.048148148148148155,60.57037037037038,0)" xlink:href="#bA"/></g><g id="P"><use transform="matrix(0.048148148148148155,0,0,0.048148148148148155,0,0)" xlink:href="#aC"/><use transform="matrix(0.048148148148148155,0,0,0.048148148148148155,9.629629629629632,0)" xlink:href="#at"/><use transform="matrix(0.048148148148148155,0,0,0.048148148148148155,19.259259259259263,0)" xlink:href="#aJ"/><use transform="matrix(0.048148148148148155,0,0,0.048148148148148155,24.07407407407408,0)" xlink:href="#at"/><use transform="matrix(0.048148148148148155,0,0,0.048148148148148155,33.70370370370371,0)" xlink:href="#aq"/><use transform="matrix(0.048148148148148155,0,0,0.048148148148148155,43.33333333333334,0)" xlink:href="#av"/><use transform="matrix(0.048148148148148155,0,0,0.048148148148148155,52.96296296296297,0)" xlink:href="#az"/></g><path d="M233-177c-1 41-23 64-60 70L243 0h-38l-65-103H63V0H30v-248c88 3 205-21 203 71zM63-129c60-2 137 13 137-47 0-61-80-42-137-45v92" id="bC"/><g id="Q"><use transform="matrix(0.048148148148148155,0,0,0.048148148148148155,0,0)" xlink:href="#bC"/><use transform="matrix(0.048148148148148155,0,0,0.048148148148148155,12.470370370370372,0)" xlink:href="#av"/><use transform="matrix(0.048148148148148155,0,0,0.048148148148148155,22.1,0)" xlink:href="#aA"/><use transform="matrix(0.048148148148148155,0,0,0.048148148148148155,31.729629629629635,0)" xlink:href="#aw"/><use transform="matrix(0.048148148148148155,0,0,0.048148148148148155,35.53333333333334,0)" xlink:href="#ar"/><use transform="matrix(0.048148148148148155,0,0,0.048148148148148155,39.33703703703704,0)" xlink:href="#aI"/><use transform="matrix(0.048148148148148155,0,0,0.048148148148148155,48.00370370370371,0)" xlink:href="#aA"/><use transform="matrix(0.048148148148148155,0,0,0.048148148148148155,57.63333333333334,0)" xlink:href="#ay"/></g><path d="M84 4C-5 8 30-112 23-190h32v120c0 31 7 50 39 49 72-2 45-101 50-169h31l1 190h-30c-1-10 1-25-2-33-11 22-28 36-60 37" id="bD"/><g id="R"><use transform="matrix(0.048148148148148155,0,0,0.048148148148148155,0,0)" xlink:href="#ax"/><use transform="matrix(0.048148148148148155,0,0,0.048148148148148155,9.629629629629632,0)" xlink:href="#ay"/><use transform="matrix(0.048148148148148155,0,0,0.048148148148148155,15.359259259259261,0)" xlink:href="#bD"/><use transform="matrix(0.048148148148148155,0,0,0.048148148148148155,24.988888888888894,0)" xlink:href="#av"/><use transform="matrix(0.048148148148148155,0,0,0.048148148148148155,34.61851851851853,0)" xlink:href="#aC"/><use transform="matrix(0.048148148148148155,0,0,0.048148148148148155,44.24814814814816,0)" xlink:href="#aA"/><use transform="matrix(0.048148148148148155,0,0,0.048148148148148155,53.877777777777794,0)" xlink:href="#az"/></g><g id="S"><use transform="matrix(0.048148148148148155,0,0,0.048148148148148155,0,0)" xlink:href="#aF"/><use transform="matrix(0.048148148148148155,0,0,0.048148148148148155,4.814814814814816,0)" xlink:href="#bD"/><use transform="matrix(0.048148148148148155,0,0,0.048148148148148155,14.444444444444446,0)" xlink:href="#aq"/><use transform="matrix(0.048148148148148155,0,0,0.048148148148148155,24.074074074074076,0)" xlink:href="#as"/><use transform="matrix(0.048148148148148155,0,0,0.048148148148148155,32.74074074074075,0)" xlink:href="#ar"/><use transform="matrix(0.048148148148148155,0,0,0.048148148148148155,36.54444444444445,0)" xlink:href="#at"/><use transform="matrix(0.048148148148148155,0,0,0.048148148148148155,46.174074074074085,0)" xlink:href="#aq"/><use transform="matrix(0.048148148148148155,0,0,0.048148148148148155,55.803703703703725,0)" xlink:href="#aA"/><use transform="matrix(0.048148148148148155,0,0,0.048148148148148155,65.43333333333335,0)" xlink:href="#aw"/><use transform="matrix(0.048148148148148155,0,0,0.048148148148148155,69.23703703703706,0)" xlink:href="#av"/><use transform="matrix(0.048148148148148155,0,0,0.048148148148148155,78.86666666666669,0)" xlink:href="#az"/></g><path d="M108 0H70L1-190h34L89-25l56-165h34" id="bE"/><g id="T"><use transform="matrix(0.048148148148148155,0,0,0.048148148148148155,0,0)" xlink:href="#bE"/><use transform="matrix(0.048148148148148155,0,0,0.048148148148148155,8.666666666666668,0)" xlink:href="#av"/><use transform="matrix(0.048148148148148155,0,0,0.048148148148148155,18.296296296296298,0)" xlink:href="#ay"/><use transform="matrix(0.048148148148148155,0,0,0.048148148148148155,24.02592592592593,0)" xlink:href="#ar"/><use transform="matrix(0.048148148148148155,0,0,0.048148148148148155,27.829629629629633,0)" xlink:href="#aF"/><use transform="matrix(0.048148148148148155,0,0,0.048148148148148155,32.644444444444446,0)" xlink:href="#ar"/><use transform="matrix(0.048148148148148155,0,0,0.048148148148148155,36.44814814814815,0)" xlink:href="#as"/><use transform="matrix(0.048148148148148155,0,0,0.048148148148148155,45.11481481481482,0)" xlink:href="#aA"/><use transform="matrix(0.048148148148148155,0,0,0.048148148148148155,54.744444444444454,0)" xlink:href="#ay"/></g><g id="U"><use transform="matrix(0.048148148148148155,0,0,0.048148148148148155,0,0)" xlink:href="#as"/><use transform="matrix(0.048148148148148155,0,0,0.048148148148148155,8.666666666666668,0)" xlink:href="#aA"/><use transform="matrix(0.048148148148148155,0,0,0.048148148148148155,18.296296296296298,0)" xlink:href="#aw"/><use transform="matrix(0.048148148148148155,0,0,0.048148148148148155,22.1,0)" xlink:href="#ar"/><use transform="matrix(0.048148148148148155,0,0,0.048148148148148155,25.90370370370371,0)" xlink:href="#au"/><use transform="matrix(0.048148148148148155,0,0,0.048148148148148155,35.53333333333334,0)" xlink:href="#aA"/><use transform="matrix(0.048148148148148155,0,0,0.048148148148148155,45.16296296296297,0)" xlink:href="#au"/></g><path d="M107 61C57 61 25 39 23-9c-2-65 71-58 78-115h30c1 64-76 54-76 114 0 30 21 42 52 43 32 0 53-17 56-46l32 2c-6 46-36 72-88 72zm26-251v35H99v-35h34" id="bF"/><path d="M30 0v-248h187v28H63v79h144v27H63v87h162V0H30" id="bG"/><g id="V"><use transform="matrix(0.048148148148148155,0,0,0.048148148148148155,0,0)" xlink:href="#bF"/><use transform="matrix(0.048148148148148155,0,0,0.048148148148148155,10.544444444444446,0)" xlink:href="#bG"/><use transform="matrix(0.048148148148148155,0,0,0.048148148148148155,22.1,0)" xlink:href="#aw"/></g><g id="W"><use transform="matrix(0.048148148148148155,0,0,0.048148148148148155,0,0)" xlink:href="#au"/><use transform="matrix(0.048148148148148155,0,0,0.048148148148148155,9.629629629629632,0)" xlink:href="#ar"/><use transform="matrix(0.048148148148148155,0,0,0.048148148148148155,13.433333333333335,0)" xlink:href="#az"/><use transform="matrix(0.048148148148148155,0,0,0.048148148148148155,22.1,0)" xlink:href="#ax"/><use transform="matrix(0.048148148148148155,0,0,0.048148148148148155,31.729629629629635,0)" xlink:href="#at"/><use transform="matrix(0.048148148148148155,0,0,0.048148148148148155,41.35925925925927,0)" xlink:href="#az"/><use transform="matrix(0.048148148148148155,0,0,0.048148148148148155,50.02592592592593,0)" xlink:href="#ar"/><use transform="matrix(0.048148148148148155,0,0,0.048148148148148155,53.829629629629636,0)" xlink:href="#aJ"/><use transform="matrix(0.048148148148148155,0,0,0.048148148148148155,58.64444444444445,0)" xlink:href="#ar"/><use transform="matrix(0.048148148148148155,0,0,0.048148148148148155,62.44814814814816,0)" xlink:href="#bE"/><use transform="matrix(0.048148148148148155,0,0,0.048148148148148155,71.11481481481482,0)" xlink:href="#at"/></g><g id="X"><use transform="matrix(0.048148148148148155,0,0,0.048148148148148155,0,0)" xlink:href="#ax"/><use transform="matrix(0.048148148148148155,0,0,0.048148148148148155,9.629629629629632,0)" xlink:href="#aA"/><use transform="matrix(0.048148148148148155,0,0,0.048148148148148155,19.259259259259263,0)" xlink:href="#az"/><use transform="matrix(0.048148148148148155,0,0,0.048148148148148155,27.92592592592593,0)" xlink:href="#aA"/></g><g id="Y"><use transform="matrix(0.048148148148148155,0,0,0.048148148148148155,0,0)" xlink:href="#aw"/><use transform="matrix(0.048148148148148155,0,0,0.048148148148148155,3.8037037037037043,0)" xlink:href="#aA"/><use transform="matrix(0.048148148148148155,0,0,0.048148148148148155,13.433333333333335,0)" xlink:href="#az"/></g><path d="M103-251c84 0 111 97 45 133-19 10-37 24-39 52H78c0-63 77-55 77-114 0-30-21-42-52-43-32 0-53 17-56 46l-32-2c7-45 34-72 88-72zM77 0v-35h34V0H77" id="bH"/><g id="Z"><use transform="matrix(0.048148148148148155,0,0,0.048148148148148155,0,0)" xlink:href="#as"/><use transform="matrix(0.048148148148148155,0,0,0.048148148148148155,8.666666666666668,0)" xlink:href="#aA"/><use transform="matrix(0.048148148148148155,0,0,0.048148148148148155,18.296296296296298,0)" xlink:href="#aw"/><use transform="matrix(0.048148148148148155,0,0,0.048148148148148155,22.1,0)" xlink:href="#ar"/><use transform="matrix(0.048148148148148155,0,0,0.048148148148148155,25.90370370370371,0)" xlink:href="#au"/><use transform="matrix(0.048148148148148155,0,0,0.048148148148148155,35.53333333333334,0)" xlink:href="#aA"/><use transform="matrix(0.048148148148148155,0,0,0.048148148148148155,45.16296296296297,0)" xlink:href="#au"/><use transform="matrix(0.048148148148148155,0,0,0.048148148148148155,54.7925925925926,0)" xlink:href="#bH"/></g><path fill="#666" d="M185-189c-5-48-123-54-124 2 14 75 158 14 163 119 3 78-121 87-175 55-17-10-28-26-33-46l33-7c5 56 141 63 141-1 0-78-155-14-162-118-5-82 145-84 179-34 5 7 8 16 11 25" id="bI"/><path fill="#666" d="M34 0v-190h32V0H34zM24-211c8-23 27-35 38-54h36v5l-58 49H24" id="bJ"/><g id="aa"><use transform="matrix(0.05,0,0,0.05,0,0)" xlink:href="#bI"/><use transform="matrix(0.05,0,0,0.05,12,0)" xlink:href="#bJ"/></g><g id="ab"><use transform="matrix(0.048148148148148155,0,0,0.048148148148148155,0,0)" xlink:href="#av"/><use transform="matrix(0.048148148148148155,0,0,0.048148148148148155,9.629629629629632,0)" xlink:href="#aw"/></g><g id="ac"><use transform="matrix(0.048148148148148155,0,0,0.048148148148148155,0,0)" xlink:href="#as"/><use transform="matrix(0.048148148148148155,0,0,0.048148148148148155,8.666666666666668,0)" xlink:href="#aA"/><use transform="matrix(0.048148148148148155,0,0,0.048148148148148155,18.296296296296298,0)" xlink:href="#aD"/><use transform="matrix(0.048148148148148155,0,0,0.048148148148148155,22.1,0)" xlink:href="#aA"/></g><g id="ad"><use transform="matrix(0.048148148148148155,0,0,0.048148148148148155,0,0)" xlink:href="#as"/><use transform="matrix(0.048148148148148155,0,0,0.048148148148148155,8.666666666666668,0)" xlink:href="#at"/><use transform="matrix(0.048148148148148155,0,0,0.048148148148148155,18.296296296296298,0)" xlink:href="#aq"/></g><g id="ae"><use transform="matrix(0.048148148148148155,0,0,0.048148148148148155,0,0)" xlink:href="#ax"/><use transform="matrix(0.048148148148148155,0,0,0.048148148148148155,9.629629629629632,0)" xlink:href="#ay"/><use transform="matrix(0.048148148148148155,0,0,0.048148148148148155,15.359259259259261,0)" xlink:href="#at"/><use transform="matrix(0.048148148148148155,0,0,0.048148148148148155,24.988888888888894,0)" xlink:href="#aJ"/><use transform="matrix(0.048148148148148155,0,0,0.048148148148148155,29.803703703703714,0)" xlink:href="#av"/><use transform="matrix(0.048148148148148155,0,0,0.048148148148148155,39.433333333333344,0)" xlink:href="#as"/><use transform="matrix(0.048148148148148155,0,0,0.048148148148148155,48.10000000000001,0)" xlink:href="#aJ"/><use transform="matrix(0.048148148148148155,0,0,0.048148148148148155,52.914814814814825,0)" xlink:href="#at"/><use transform="matrix(0.048148148148148155,0,0,0.048148148148148155,62.54444444444445,0)" xlink:href="#ay"/><use transform="matrix(0.048148148148148155,0,0,0.048148148148148155,68.2740740740741,0)" xlink:href="#av"/><use transform="matrix(0.048148148148148155,0,0,0.048148148148148155,77.90370370370373,0)" xlink:href="#az"/></g><g id="af"><use transform="matrix(0.048148148148148155,0,0,0.048148148148148155,0,0)" xlink:href="#au"/><use transform="matrix(0.048148148148148155,0,0,0.048148148148148155,9.629629629629632,0)" xlink:href="#at"/><use transform="matrix(0.048148148148148155,0,0,0.048148148148148155,19.259259259259263,0)" xlink:href="#as"/><use transform="matrix(0.048148148148148155,0,0,0.048148148148148155,27.92592592592593,0)" xlink:href="#bD"/><use transform="matrix(0.048148148148148155,0,0,0.048148148148148155,37.555555555555564,0)" xlink:href="#aB"/><use transform="matrix(0.048148148148148155,0,0,0.048148148148148155,51.951851851851856,0)" xlink:href="#av"/><use transform="matrix(0.048148148148148155,0,0,0.048148148148148155,61.581481481481504,0)" xlink:href="#aq"/><use transform="matrix(0.048148148148148155,0,0,0.048148148148148155,71.21111111111112,0)" xlink:href="#aJ"/><use transform="matrix(0.048148148148148155,0,0,0.048148148148148155,76.02592592592593,0)" xlink:href="#aA"/><use transform="matrix(0.048148148148148155,0,0,0.048148148148148155,85.65555555555557,0)" xlink:href="#as"/><use transform="matrix(0.048148148148148155,0,0,0.048148148148148155,94.32222222222224,0)" xlink:href="#ar"/><use transform="matrix(0.048148148148148155,0,0,0.048148148148148155,98.12592592592594,0)" xlink:href="#aK"/><use transform="matrix(0.048148148148148155,0,0,0.048148148148148155,107.75555555555557,0)" xlink:href="#aq"/></g><g id="ag"><use transform="matrix(0.048148148148148155,0,0,0.048148148148148155,0,0)" xlink:href="#ap"/><use transform="matrix(0.048148148148148155,0,0,0.048148148148148155,4.814814814814816,0)" xlink:href="#aq"/><use transform="matrix(0.048148148148148155,0,0,0.048148148148148155,14.444444444444446,0)" xlink:href="#az"/><use transform="matrix(0.048148148148148155,0,0,0.048148148148148155,23.111111111111114,0)" xlink:href="#ax"/><use transform="matrix(0.048148148148148155,0,0,0.048148148148148155,32.74074074074075,0)" xlink:href="#av"/><use transform="matrix(0.048148148148148155,0,0,0.048148148148148155,42.37037037037038,0)" xlink:href="#as"/><use transform="matrix(0.048148148148148155,0,0,0.048148148148148155,51.03703703703705,0)" xlink:href="#as"/><use transform="matrix(0.048148148148148155,0,0,0.048148148148148155,59.703703703703724,0)" xlink:href="#ar"/><use transform="matrix(0.048148148148148155,0,0,0.048148148148148155,63.50740740740743,0)" xlink:href="#at"/><use transform="matrix(0.048148148148148155,0,0,0.048148148148148155,73.13703703703706,0)" xlink:href="#aq"/><use transform="matrix(0.048148148148148155,0,0,0.048148148148148155,82.7666666666667,0)" xlink:href="#aA"/><use transform="matrix(0.048148148148148155,0,0,0.048148148148148155,92.39629629629633,0)" xlink:href="#ay"/></g><g id="ah"><use transform="matrix(0.048148148148148155,0,0,0.048148148148148155,0,0)" xlink:href="#av"/><use transform="matrix(0.048148148148148155,0,0,0.048148148148148155,9.629629629629632,0)" xlink:href="#aB"/><use transform="matrix(0.048148148148148155,0,0,0.048148148148148155,24.025925925925932,0)" xlink:href="#aC"/><use transform="matrix(0.048148148148148155,0,0,0.048148148148148155,33.655555555555566,0)" xlink:href="#aA"/><use transform="matrix(0.048148148148148155,0,0,0.048148148148148155,43.2851851851852,0)" xlink:href="#aw"/><use transform="matrix(0.048148148148148155,0,0,0.048148148148148155,47.0888888888889,0)" xlink:href="#aA"/><use transform="matrix(0.048148148148148155,0,0,0.048148148148148155,56.718518518518536,0)" xlink:href="#aD"/><use transform="matrix(0.048148148148148155,0,0,0.048148148148148155,60.52222222222224,0)" xlink:href="#av"/></g><g id="ai"><use transform="matrix(0.048148148148148155,0,0,0.048148148148148155,0,0)" xlink:href="#ax"/><use transform="matrix(0.048148148148148155,0,0,0.048148148148148155,9.629629629629632,0)" xlink:href="#ay"/><use transform="matrix(0.048148148148148155,0,0,0.048148148148148155,15.359259259259261,0)" xlink:href="#av"/><use transform="matrix(0.048148148148148155,0,0,0.048148148148148155,24.988888888888894,0)" xlink:href="#ax"/><use transform="matrix(0.048148148148148155,0,0,0.048148148148148155,34.61851851851853,0)" xlink:href="#aA"/><use transform="matrix(0.048148148148148155,0,0,0.048148148148148155,44.24814814814816,0)" xlink:href="#ay"/><use transform="matrix(0.048148148148148155,0,0,0.048148148148148155,49.97777777777779,0)" xlink:href="#aA"/><use transform="matrix(0.048148148148148155,0,0,0.048148148148148155,59.60740740740743,0)" xlink:href="#ay"/></g><g id="aj"><use transform="matrix(0.048148148148148155,0,0,0.048148148148148155,0,0)" xlink:href="#ax"/><use transform="matrix(0.048148148148148155,0,0,0.048148148148148155,9.629629629629632,0)" xlink:href="#aA"/><use transform="matrix(0.048148148148148155,0,0,0.048148148148148155,19.259259259259263,0)" xlink:href="#ay"/><use transform="matrix(0.048148148148148155,0,0,0.048148148148148155,24.988888888888894,0)" xlink:href="#aA"/></g><g id="ak"><use transform="matrix(0.048148148148148155,0,0,0.048148148148148155,0,0)" xlink:href="#av"/><use transform="matrix(0.048148148148148155,0,0,0.048148148148148155,9.629629629629632,0)" xlink:href="#aq"/><use transform="matrix(0.048148148148148155,0,0,0.048148148148148155,19.259259259259263,0)" xlink:href="#bE"/><use transform="matrix(0.048148148148148155,0,0,0.048148148148148155,27.92592592592593,0)" xlink:href="#aM"/><use transform="matrix(0.048148148148148155,0,0,0.048148148148148155,32.74074074074075,0)" xlink:href="#at"/></g><path d="M63-220v92h138v28H63V0H30v-248h175v28H63" id="bK"/><g id="al"><use transform="matrix(0.048148148148148155,0,0,0.048148148148148155,0,0)" xlink:href="#bK"/><use transform="matrix(0.048148148148148155,0,0,0.048148148148148155,10.544444444444446,0)" xlink:href="#ar"/><use transform="matrix(0.048148148148148155,0,0,0.048148148148148155,14.34814814814815,0)" xlink:href="#aq"/></g><g id="am"><use transform="matrix(0.048148148148148155,0,0,0.048148148148148155,0,0)" xlink:href="#ax"/><use transform="matrix(0.048148148148148155,0,0,0.048148148148148155,9.629629629629632,0)" xlink:href="#ay"/><use transform="matrix(0.048148148148148155,0,0,0.048148148148148155,15.359259259259261,0)" xlink:href="#at"/><use transform="matrix(0.048148148148148155,0,0,0.048148148148148155,24.988888888888894,0)" xlink:href="#as"/><use transform="matrix(0.048148148148148155,0,0,0.048148148148148155,33.655555555555566,0)" xlink:href="#av"/><use transform="matrix(0.048148148148148155,0,0,0.048148148148148155,43.2851851851852,0)" xlink:href="#az"/><use transform="matrix(0.048148148148148155,0,0,0.048148148148148155,51.95185185185187,0)" xlink:href="#at"/></g><g id="an"><use transform="matrix(0.048148148148148155,0,0,0.048148148148148155,0,0)" xlink:href="#au"/><use transform="matrix(0.048148148148148155,0,0,0.048148148148148155,9.629629629629632,0)" xlink:href="#av"/></g><path fill="#666" d="M190 0L58-211 59 0H30v-248h39L202-35l-2-213h31V0h-41" id="bL"/><path fill="#666" d="M100-194c62-1 85 37 85 99 1 63-27 99-86 99S16-35 15-95c0-66 28-99 85-99zM99-20c44 1 53-31 53-75 0-43-8-75-51-75s-53 32-53 75 10 74 51 75" id="bM"/><g id="ao"><use transform="matrix(0.05,0,0,0.05,0,0)" xlink:href="#bL"/><use transform="matrix(0.05,0,0,0.05,12.950000000000001,0)" xlink:href="#bM"/></g></defs></g></svg>