<svg xmlns="http://www.w3.org/2000/svg" xmlns:xlink="http://www.w3.org/1999/xlink" viewBox="0 0 121.98 241.09"><defs><style>.cls-1{fill:none;}.cls-2{isolation:isolate;}.cls-3{fill:#523566;}.cls-11,.cls-15,.cls-18,.cls-33,.cls-4,.cls-49,.cls-51,.cls-6,.cls-8{opacity:0.28;}.cls-11,.cls-15,.cls-18,.cls-20,.cls-27,.cls-30,.cls-33,.cls-4,.cls-40,.cls-43,.cls-44,.cls-45,.cls-49,.cls-51,.cls-6,.cls-8{mix-blend-mode:multiply;}.cls-4{fill:url(#linear-gradient);}.cls-5{fill:url(#linear-gradient-2);}.cls-6{fill:#005b4a;}.cls-7{fill:url(#linear-gradient-3);}.cls-31,.cls-44,.cls-8{fill:#634277;}.cls-9{fill:url(#linear-gradient-4);}.cls-10{fill:url(#linear-gradient-5);}.cls-11{fill:url(#linear-gradient-6);}.cls-12{fill:url(#linear-gradient-7);}.cls-13{fill:#422751;}.cls-14{fill:url(#linear-gradient-8);}.cls-15{fill:url(#linear-gradient-9);}.cls-16{fill:#7cb9ce;}.cls-17{fill:url(#linear-gradient-10);}.cls-18{fill:url(#linear-gradient-11);}.cls-19{fill:url(#linear-gradient-12);}.cls-20{fill:url(#linear-gradient-13);}.cls-21{clip-path:url(#clip-path);}.cls-22{fill:url(#linear-gradient-14);}.cls-23{fill:url(#linear-gradient-15);}.cls-24{fill:url(#linear-gradient-16);}.cls-25{fill:url(#linear-gradient-17);}.cls-26{fill:#fff;}.cls-27{fill:#838bc5;opacity:0.36;}.cls-28,.cls-39{opacity:0.67;mix-blend-mode:color-dodge;}.cls-28{fill:url(#linear-gradient-18);}.cls-29{fill:url(#linear-gradient-19);}.cls-30,.cls-40,.cls-43,.cls-45{opacity:0.24;}.cls-30{fill:url(#linear-gradient-20);}.cls-32{fill:#44170d;}.cls-33{fill:url(#linear-gradient-21);}.cls-34{clip-path:url(#clip-path-2);}.cls-35{fill:url(#linear-gradient-22);}.cls-36{fill:url(#linear-gradient-23);}.cls-37{fill:url(#linear-gradient-24);}.cls-38{fill:url(#linear-gradient-25);}.cls-39{fill:url(#linear-gradient-26);}.cls-40{fill:url(#linear-gradient-27);}.cls-41,.cls-42{opacity:0.4;}.cls-41,.cls-42,.cls-52{mix-blend-mode:screen;}.cls-41{fill:url(#linear-gradient-28);}.cls-42{fill:url(#linear-gradient-29);}.cls-43{fill:url(#linear-gradient-30);}.cls-44{opacity:0.18;}.cls-45{fill:url(#linear-gradient-31);}.cls-46{fill:#392647;}.cls-47{fill:#19907f;}.cls-48{fill:url(#linear-gradient-32);}.cls-49{fill:url(#linear-gradient-33);}.cls-50{fill:url(#linear-gradient-34);}.cls-51{fill:url(#linear-gradient-35);}.cls-52{opacity:0.49;fill:url(#linear-gradient-36);}</style><linearGradient id="linear-gradient" x1="45.19" y1="227.35" x2="62.85" y2="245" gradientUnits="userSpaceOnUse"><stop offset="0" stop-color="#634277"/><stop offset="0.11" stop-color="#68497c"/><stop offset="0.26" stop-color="#785b89"/><stop offset="0.44" stop-color="#90799f"/><stop offset="0.64" stop-color="#b3a3bd"/><stop offset="0.86" stop-color="#dfd8e3"/><stop offset="1" stop-color="#fff"/></linearGradient><linearGradient id="linear-gradient-2" y1="99.19" x2="22.52" y2="99.19" gradientUnits="userSpaceOnUse"><stop offset="0" stop-color="#98d893"/><stop offset="1" stop-color="#138d7e"/></linearGradient><linearGradient id="linear-gradient-3" x1="36.88" y1="112.19" x2="14.02" y2="135.06" gradientUnits="userSpaceOnUse"><stop offset="0.02" stop-color="#63387e"/><stop offset="0.04" stop-color="#63397f"/><stop offset="0.44" stop-color="#6758a0"/><stop offset="0.77" stop-color="#696bb4"/><stop offset="1" stop-color="#6a72bb"/></linearGradient><linearGradient id="linear-gradient-4" x1="39.34" y1="194.15" x2="47.17" y2="194.15" xlink:href="#linear-gradient-2"/><linearGradient id="linear-gradient-5" x1="60.48" y1="-1.48" x2="122.04" y2="60.08" gradientUnits="userSpaceOnUse"><stop offset="0" stop-color="#ad4d17"/><stop offset="0.07" stop-color="#9d4515"/><stop offset="0.24" stop-color="#7d3412"/><stop offset="0.41" stop-color="#642710"/><stop offset="0.59" stop-color="#521e0e"/><stop offset="0.78" stop-color="#47190d"/><stop offset="1" stop-color="#44170d"/></linearGradient><linearGradient id="linear-gradient-6" x1="57.87" y1="1.13" x2="119.43" y2="62.69" xlink:href="#linear-gradient"/><linearGradient id="linear-gradient-7" x1="12.07" y1="63.46" x2="22.76" y2="72.03" gradientUnits="userSpaceOnUse"><stop offset="0" stop-color="#98d893"/><stop offset="0.25" stop-color="#6fc18d"/><stop offset="0.59" stop-color="#3ea585"/><stop offset="0.85" stop-color="#1f9480"/><stop offset="1" stop-color="#138d7e"/></linearGradient><linearGradient id="linear-gradient-8" x1="49.16" y1="226.72" x2="88.27" y2="158.99" gradientUnits="userSpaceOnUse"><stop offset="0" stop-color="#6a72bb"/><stop offset="0.09" stop-color="#6263a6"/><stop offset="0.28" stop-color="#544981"/><stop offset="0.45" stop-color="#4a3667"/><stop offset="0.6" stop-color="#442b57"/><stop offset="0.72" stop-color="#422751"/><stop offset="1" stop-color="#422751"/></linearGradient><linearGradient id="linear-gradient-9" x1="60.89" y1="253.89" x2="60.89" y2="148.47" gradientUnits="userSpaceOnUse"><stop offset="0" stop-color="#fff"/><stop offset="0.14" stop-color="#dfd8e3"/><stop offset="0.36" stop-color="#b3a3bd"/><stop offset="0.56" stop-color="#90799f"/><stop offset="0.74" stop-color="#785b89"/><stop offset="0.89" stop-color="#68497c"/><stop offset="1" stop-color="#634277"/></linearGradient><linearGradient id="linear-gradient-10" x1="105.32" y1="101.82" x2="37.26" y2="169.88" gradientUnits="userSpaceOnUse"><stop offset="0.09" stop-color="#63387e"/><stop offset="0.33" stop-color="#633c82"/><stop offset="0.56" stop-color="#65468d"/><stop offset="0.78" stop-color="#6758a0"/><stop offset="0.99" stop-color="#6a71ba"/><stop offset="1" stop-color="#6a72bb"/></linearGradient><linearGradient id="linear-gradient-11" x1="64.1" y1="102.89" x2="93.63" y2="135.79" xlink:href="#linear-gradient"/><linearGradient id="linear-gradient-12" x1="41.53" y1="36.53" x2="93.59" y2="88.58" gradientUnits="userSpaceOnUse"><stop offset="0" stop-color="#98d893"/><stop offset="0.34" stop-color="#66bc8b"/><stop offset="0.79" stop-color="#2a9a82"/><stop offset="1" stop-color="#138d7e"/></linearGradient><linearGradient id="linear-gradient-13" x1="46.45" y1="90.83" x2="50.12" y2="70.72" gradientUnits="userSpaceOnUse"><stop offset="0" stop-color="#138d7e"/><stop offset="0.13" stop-color="#2a988b"/><stop offset="0.4" stop-color="#67b5ac"/><stop offset="0.78" stop-color="#c6e4e0"/><stop offset="1" stop-color="#fff"/></linearGradient><clipPath id="clip-path"><path class="cls-1" d="M38.69,62.55c6.11-6.94,5.05-18.77,0-25S24.54,31.71,16.75,45.1,18,64.85,22.56,65.84,34.63,67.16,38.69,62.55Z"/></clipPath><linearGradient id="linear-gradient-14" x1="40.98" y1="39.71" x2="17.47" y2="63.21" gradientUnits="userSpaceOnUse"><stop offset="0" stop-color="#b55b74"/><stop offset="0.04" stop-color="#bb677d"/><stop offset="0.23" stop-color="#d39da2"/><stop offset="0.41" stop-color="#e6c7c0"/><stop offset="0.57" stop-color="#f4e6d5"/><stop offset="0.71" stop-color="#fcf8e2"/><stop offset="0.8" stop-color="#ffffe7"/></linearGradient><linearGradient id="linear-gradient-15" x1="-5.3" y1="-46.25" x2="-23.98" y2="-36.42" gradientTransform="translate(57.45 88.19) rotate(-17.23)" gradientUnits="userSpaceOnUse"><stop offset="0.2" stop-color="#47a4ca"/><stop offset="0.46" stop-color="#4aa6cb"/><stop offset="0.65" stop-color="#53accf"/><stop offset="0.82" stop-color="#63b7d5"/><stop offset="0.97" stop-color="#79c6de"/><stop offset="1" stop-color="#7ec9e0"/></linearGradient><linearGradient id="linear-gradient-16" x1="141.5" y1="-174.76" x2="161.04" y2="-166.69" gradientTransform="matrix(-0.82, 0.29, 0.34, 0.94, 213.07, 169.28)" gradientUnits="userSpaceOnUse"><stop offset="0" stop-color="#56b8ff"/><stop offset="0.11" stop-color="#67c0fc"/><stop offset="0.34" stop-color="#85cef7"/><stop offset="0.57" stop-color="#9ad8f4"/><stop offset="0.79" stop-color="#a7def2"/><stop offset="1" stop-color="#abe0f1"/></linearGradient><linearGradient id="linear-gradient-17" x1="1428.94" y1="-253.33" x2="1444.2" y2="-247.57" gradientTransform="matrix(-0.69, 0.22, 0.3, 0.95, 1101.46, -22.16)" gradientUnits="userSpaceOnUse"><stop offset="0.2" stop-color="#47a4ca"/><stop offset="0.29" stop-color="#4fa9cd"/><stop offset="0.75" stop-color="#71c0db"/><stop offset="1" stop-color="#7ec9e0"/></linearGradient><linearGradient id="linear-gradient-18" x1="8" y1="36.72" x2="29.12" y2="57.85" gradientUnits="userSpaceOnUse"><stop offset="0" stop-color="#6a72bb"/><stop offset="0.3" stop-color="#464b7b"/><stop offset="0.89"/></linearGradient><linearGradient id="linear-gradient-19" x1="26.55" y1="72.09" x2="66.94" y2="139.99" gradientUnits="userSpaceOnUse"><stop offset="0" stop-color="#ffa4cc"/><stop offset="0.37" stop-color="#ff84a6"/><stop offset="0.78" stop-color="#ff6682"/><stop offset="1" stop-color="#ff5b74"/></linearGradient><linearGradient id="linear-gradient-20" x1="42.52" y1="121.82" x2="42.52" y2="75.06" gradientUnits="userSpaceOnUse"><stop offset="0" stop-color="#ce0000"/><stop offset="0.09" stop-color="#cf0707"/><stop offset="0.22" stop-color="#d31a1a"/><stop offset="0.37" stop-color="#d93939"/><stop offset="0.54" stop-color="#e16565"/><stop offset="0.72" stop-color="#ec9d9d"/><stop offset="0.92" stop-color="#f9dfdf"/><stop offset="1" stop-color="#fff"/></linearGradient><linearGradient id="linear-gradient-21" x1="90.55" y1="48.31" x2="112.87" y2="70.63" xlink:href="#linear-gradient"/><clipPath id="clip-path-2"><path class="cls-1" d="M63.71,73.85c-6.09-8.52-4.6-18.43,1.76-24.91s15.14-10.31,24.58.55,8,20.3,0,27.1S70.63,83.51,63.71,73.85Z"/></clipPath><linearGradient id="linear-gradient-22" x1="90.63" y1="49.96" x2="65.02" y2="75.56" xlink:href="#linear-gradient-14"/><linearGradient id="linear-gradient-23" x1="-31.35" y1="-26.2" x2="-53.54" y2="-25.93" gradientTransform="translate(122.52 72.91) rotate(-18.95)" xlink:href="#linear-gradient-15"/><linearGradient id="linear-gradient-24" x1="171.81" y1="-155.58" x2="194.49" y2="-156.2" gradientTransform="matrix(-0.6, 0.64, 0.73, 0.68, 297, 52.27)" xlink:href="#linear-gradient-16"/><linearGradient id="linear-gradient-25" x1="1466.2" y1="-234.89" x2="1483.72" y2="-234.8" gradientTransform="matrix(-0.52, 0.51, 0.7, 0.71, 1001.25, -523.02)" xlink:href="#linear-gradient-17"/><linearGradient id="linear-gradient-26" x1="48.42" y1="40.32" x2="80.25" y2="72.15" xlink:href="#linear-gradient-18"/><linearGradient id="linear-gradient-27" x1="12.86" y1="81.07" x2="31.54" y2="94.79" gradientUnits="userSpaceOnUse"><stop offset="0" stop-color="#fff"/><stop offset="0.08" stop-color="#f9dfdf"/><stop offset="0.28" stop-color="#ec9d9d"/><stop offset="0.46" stop-color="#e16565"/><stop offset="0.63" stop-color="#d93939"/><stop offset="0.78" stop-color="#d31a1a"/><stop offset="0.91" stop-color="#cf0707"/><stop offset="1" stop-color="#ce0000"/></linearGradient><linearGradient id="linear-gradient-28" x1="21.37" y1="75.11" x2="45.86" y2="99.6" gradientUnits="userSpaceOnUse"><stop offset="0" stop-color="#ffa4cc"/><stop offset="0.49" stop-color="#7e5165"/><stop offset="0.84" stop-color="#291b21"/><stop offset="1" stop-color="#070506"/></linearGradient><linearGradient id="linear-gradient-29" x1="17.13" y1="79.35" x2="24.26" y2="86.48" xlink:href="#linear-gradient-28"/><linearGradient id="linear-gradient-30" x1="38.24" y1="86.78" x2="53.28" y2="101.82" xlink:href="#linear-gradient-27"/><linearGradient id="linear-gradient-31" x1="14.18" y1="79.27" x2="32.87" y2="92.98" xlink:href="#linear-gradient-27"/><linearGradient id="linear-gradient-32" x1="52.8" y1="97.41" x2="72.79" y2="117.39" xlink:href="#linear-gradient-2"/><linearGradient id="linear-gradient-33" x1="53.84" y1="105.91" x2="70.55" y2="122.62" xlink:href="#linear-gradient"/><linearGradient id="linear-gradient-34" x1="107.28" y1="101.99" x2="70.05" y2="139.21" gradientUnits="userSpaceOnUse"><stop offset="0.02" stop-color="#63387e"/><stop offset="0.33" stop-color="#65468d"/><stop offset="0.91" stop-color="#696cb5"/><stop offset="1" stop-color="#6a72bb"/></linearGradient><linearGradient id="linear-gradient-35" x1="58.97" y1="231.82" x2="73.52" y2="246.37" xlink:href="#linear-gradient"/><linearGradient id="linear-gradient-36" x1="53.41" y1="97.02" x2="53.41" y2="75.27" gradientUnits="userSpaceOnUse"><stop offset="0" stop-color="aqua"/><stop offset="0.26" stop-color="#00b0b0"/><stop offset="0.53" stop-color="#006565"/><stop offset="0.75" stop-color="#002e2e"/><stop offset="0.91" stop-color="#000d0d"/><stop offset="1"/></linearGradient></defs><g class="cls-2"><g id="Capa_2" data-name="Capa 2"><g id="Layer_1" data-name="Layer 1"><path class="cls-3" d="M38,237a12.41,12.41,0,0,1,10.48-10.23c9.44-1.65,10.09,2.82,13.72,2.88s4.55,2.14,3.95,6.58l-4.34.11s.66-3.24-1.7-3.13-2.36,3.52-2.36,3.52Z"/><path class="cls-4" d="M57.76,236.7s0-3.41,2.36-3.52,1.7,3.13,1.7,3.13l4.34-.11c.6-4.44-.33-6.53-3.95-6.58-3-.05-4-3.08-9.49-3.23l-3.24.51s5.7,2.22,6.67,3.87S48.9,236,42.86,235.23c-2.6-.32-3.46-1.12-3.61-1.94A12,12,0,0,0,38,237Z"/><path class="cls-5" d="M17.94,112.5l-4.59-5.18S4.21,106.41,1,99.91a7.8,7.8,0,0,1,6-11.6S7.5,84,13.76,86.83s8.76,22.3,8.76,22.3Z"/><path class="cls-6" d="M13.35,107.32l4.59,5.18,4.58-3.37s-.18-1.36-.55-3.41c-2.84-4.79-7.71-13-8.84-15.11-1.61-3-6.12-2.3-6.12-2.3,3.62,1.23,3.79,9.55.9,9.83s-4.69-4-4.69-4a6,6,0,0,0,3.89,5.59S16.23,101.31,12,104c-3,1.88-7.52-.63-9.85-2.21C6,106.58,13.35,107.32,13.35,107.32Z"/><path class="cls-7" d="M50,114.12s-9.11,23.38-13.28,22.5-20.85-25.13-23.15-26.45c0,0,8.77-.73,10.2-5.41S27.39,113,27.39,113l7.79,10.86s-.22-5.32,1.65-2.66c0,0,4.29-8.2,3.35-10.84s4-11.2,4-11.2Z"/><path class="cls-8" d="M36.72,136.62c4.17.88,13.28-22.5,13.28-22.5l-2.07-5.31-7.85.63a2.77,2.77,0,0,0,.1,1c.48,1.34-.39,4.11-1.37,6.51,1.36-1.39,3.34-2.4,4.41,1.86,1.73,6.88-2.5,13.17-4.44,7.82,0,0-2.5,8.83-3,2.52,0,.32-.21,1.89-8.48-4.58-2.3-1.8-4.42-3.66-6.3-5.43C26.75,126.56,34.14,136.07,36.72,136.62Z"/><path class="cls-9" d="M41.08,201.06s-1.95-4.8-1.73-7.57,3.79-6.67,3.79-6.67l4,1.48-2.06,13.17Z"/><path class="cls-6" d="M39.74,196.83s5.66,1.67,2.77-1.45c0,0,2.34-5.81,0-2.47,0,0,1.08-3.67-2.33-1.92l1.23-2.11h6.26l-1.32,9.51-5.27,2.67S40.16,198.58,39.74,196.83Z"/><path class="cls-10" d="M101.57,26.34A17.66,17.66,0,0,1,107.17,8s-5.6,5.6-4.83,18.33c0,0,2.74-6.15,11.41-3.95,0,0-5.1,4.11-11,4.6,0,0,9.88,2.64,11,15.15,0,0-1.64-6.36-4.83-8.5,0,0,2.64,2.84,3.3,9S122,54.43,122,54.43s-6.36-.88-8.34-3.62c0,0,2.86,4.39,6.7,6.14a8.52,8.52,0,0,1-3.84-1.75s3.28,5.79-6.15,6.85-6.91,16.63-6.91,16.63L97.62,45.1l-49.81-29s6.8-13.31,25-7c0,0-11.41-4.06-13.82-9,0,0,1.53,3.07,12.51,6.25s15.91,6.59,19,9.77c0,0-6.37-8-15.25-10.64C75.24,5.38,94.55,9.22,101.57,26.34Z"/><path class="cls-8" d="M110.35,62.05c9.43-1.06,6.15-6.85,6.15-6.85A8.52,8.52,0,0,0,120.34,57c-3.84-1.75-6.7-6.14-6.7-6.14,2,2.74,8.34,3.62,8.34,3.62s-9.11-5.6-9.76-11.77-3.3-9-3.3-9c3.19,2.14,4.83,8.5,4.83,8.5-1.09-12.51-11-15.15-11-15.15,5.87-.49,11-4.6,11-4.6-8.67-2.2-11.41,3.95-11.41,3.95C101.57,13.61,107.17,8,107.17,8a17.66,17.66,0,0,0-5.6,18.33,30.8,30.8,0,0,0-4.42-7.53c8.14,14.12-6-1.58-6-1.58,1.86,3.95,2.08,4.5-3.73-1.65A23.29,23.29,0,0,0,74.25,8.67s12,3.84-4.83,2.08c-12.79-1.33-19.24,3.1-21.6,5.31l49.8,29,4.23,24.44,1.75-.18C104.35,65.81,106.18,62.51,110.35,62.05Z"/><path class="cls-11" d="M110.35,62.05c9.43-1.06,6.15-6.85,6.15-6.85A8.52,8.52,0,0,0,120.34,57c-3.84-1.75-6.7-6.14-6.7-6.14,2,2.74,8.34,3.62,8.34,3.62s-9.11-5.6-9.76-11.77-3.3-9-3.3-9c3.19,2.14,4.83,8.5,4.83,8.5-1.09-12.51-11-15.15-11-15.15s3.18,1.76,3.84,6.65S92.24,23.42,92.24,23.42l1,19.15,4.34,2.53,3.58,20.66,3.22.94A7.08,7.08,0,0,1,110.35,62.05Z"/><path class="cls-12" d="M17.94,62.88s-3.77-4.45-6.82-3,.83,13.5,8.4,12.27S17.94,62.88,17.94,62.88Z"/><path class="cls-6" d="M11.26,63.37s-.14-4.87,7.6,2.05,0,3.14,0,3.14-4.2-3-4.28.24c0,0-.67-4.5,3.36-2.35C17.94,66.45,12.46,59.46,11.26,63.37Z"/><path class="cls-6" d="M19.52,72.18c2.4-.39,3.12-1.47,3-2.76-.75-.77-2.17-1.52-4.23.23-3.22,2.74-7.62-4.23-7.62-4.23C11.88,69,15.06,72.91,19.52,72.18Z"/><polygon class="cls-13" points="64.62 234.39 61.82 236.31 57.54 235.1 58.69 231.43 62.7 232.64 64.62 234.39"/><polygon class="cls-13" points="78.03 238.51 75.24 240.43 70.96 239.22 72.11 235.54 76.11 236.75 78.03 238.51"/><path class="cls-14" d="M47.69,169.32s-6.58,20.19-8.12,21.4c0,0,3.57-2.91,4.06.55,0,0,3.71-3.3-.82,3.7,0,0,5.36,4.28-2.63,2.72,0,0,1.56,2.71-2.8,1l3.95,3.46,8.15,20.49s-5.27-.9,0,4.28L66,231.67s-1.75-5-4.06-6.91a6.21,6.21,0,0,0-4.36-5.92l-8.89-22.06s3.13-1.4.91-1.65c0,0,1.81-3.45.08-2.79,0,0,7-14.82,9.71-17.53s12-2.23,13.5-.09L61.08,194.89s5.8,29.21,5.25,30.86c0,0-3.24-1.73,0,3.62s12.35,6.17,12.35,6.17.42-8.72-1.39-7.9c0,0,2-9.13-1.48-7.08l-3.7-21.39s2.22-3.87.25-3.79c0,0,9.87-15,11.76-17.45s-6.33-21.23-6.33-21.23l-7.74-8.23s-9,3.87-10,4.36-9.21,12.35-9.21,12.35Z"/><path class="cls-15" d="M77.79,156.7l-7.74-8.23s-9,3.87-10,4.36-9.21,12.35-9.21,12.35l-3.19,4.14s-.91,2.79-2.13,6.35c8.65-7,7.4.77,4.33,9.51-3.21,9.13-7.08,9.79-7.08,9.79s5.36,4.28-2.63,2.72c0,0,1.56,2.71-2.8,1l3.95,3.46,8.15,20.49s-5.27-.9,0,4.28L66,231.67s-1.75-5-4.06-6.91a6.21,6.21,0,0,0-4.36-5.92l-8.89-22.06s3.13-1.4.91-1.65c0,0,1.81-3.45.08-2.79,0,0,7-14.82,9.71-17.53s12-2.23,13.5-.09c0,0,2.55-5.18,4.77,1.4s-14.24,28.81-16.54,18.77c0,0,5.8,29.21,5.25,30.86,0,0-3.24-1.73,0,3.62s12.35,6.17,12.35,6.17.42-8.72-1.39-7.9c0,0,2-9.13-1.48-7.08l-3.7-21.39s2.22-3.87.25-3.79c0,0,9.87-15,11.76-17.45S77.79,156.7,77.79,156.7Z"/><path class="cls-8" d="M82.37,168.39c-1.94-5.67-4.58-11.69-4.58-11.69l-7.74-8.23s-9,3.87-10,4.36c-.56.28-3.51,4.3-5.92,7.68,1.07.13,2.33.23,3.85.29,18.88.7,17.44,10.38,15.35,11s-16.68-4.24-16.68-4.24c5.38,1.76,1.68,8.47,1.68,8.47a9.18,9.18,0,0,1,1-1.22c2.72-2.72,12-2.23,13.5-.09C74.85,171.3,78.71,169.43,82.37,168.39Z"/><path class="cls-8" d="M46.35,196s4.32-4,1.23,0c0,0,2.31-.78-.2,2,0,0,7.83,15.75,8.27,19.92s-2.74,8.62-6.17,4.69c0,0,2.14,4.09,6.21,2.5s5.5-.93,4.29,2.19c-.95,2.46-8.49-.36-11.69-1.69.32.38.7.8,1.19,1.28L66,231.67s-1.75-5-4.06-6.91a6.21,6.21,0,0,0-4.36-5.92l-8.89-22.06s3.13-1.4.91-1.65c0,0,1.81-3.45.08-2.79,0,0,.72-1.53,1.78-3.68Z"/><path class="cls-8" d="M69.8,197.08s4.29-3.18.86,3.35c0,0,1.78-1.32,1.83,3.13s4.34,32.75-5.7,22.22c0,0,6.69,8.17,8.67-.88,0,0,.54,4.55-1.43,6s-8.94-4-8.94-4l.06.18a15.31,15.31,0,0,0,1.18,2.26,9.65,9.65,0,0,0,3,3L78.7,235c.06-1.86.14-8.08-1.41-7.38,0,0,2-9.13-1.48-7.08l-3.7-21.39s2.22-3.87.25-3.79c0,0,7.29-11.06,10.54-15.74,0-.72,0-1.14,0-1.14Z"/><path class="cls-16" d="M55.05,158.57c0-.44,6.47-1.32,12.18.65,0,0-3.3-5.15,0-2.19,0,0-.22-4.39,1.53-4.17s0,3.95,0,3.95,5,.33,1.9,3.4a33.19,33.19,0,0,0,2.82,3c.44.22,5.2-46.52,5.2-46.52l-23.63-9.88,1.2,46Z"/><path class="cls-8" d="M59.44,158s5.42-9.6.77-39.15-3.16-.41-3.16-.41l.41,39.9L46.17,173.88S57.46,169.65,59.44,158Z"/><path class="cls-17" d="M85.88,96.08s4.61-.39.66,6.08c0,0,4.84-6.85,13.17-6l1.42,15.8a249.42,249.42,0,0,1-16.35,69.54,41.13,41.13,0,0,1-13-21.56s2.14-19.09,0-29-13-19-13-19S64,149.46,57.54,161.8s-15,13.34-15,13.34,8.15-16.79,8.91-30c0,0-2.19-6.26,1.68-3.38,0,0-2.39-2.38-.83-4.28,0,0-7.32-21.53-11.16-26S46.6,103,46.6,103Z"/><path class="cls-18" d="M43.8,116.29s14.4,17.53,19.42,10.53c0,0,10.19,7.25,15.46,5.77s.37-23.87.37-23.87,10.26-8.28,8.82-15.17S43.8,116.29,43.8,116.29Z"/><path class="cls-8" d="M57.54,161.8c5.34-10.14,2.74-37.19,1.64-46.54l-6.39-1.15a29.84,29.84,0,0,1,6.64,17.14c.44,10.2-.27,12.66-4.38,7.56,0,0,8.44,11.09.43,3.51,0,0,3.74,11.42-.43,20.85s-10.26,10.78-9.3,4.4c-1.76,4.52-3.24,7.57-3.24,7.57S51,174.15,57.54,161.8Z"/><path class="cls-8" d="M90.77,102.67A16.81,16.81,0,0,0,89.64,112a11,11,0,0,1-.74-6.34,12.77,12.77,0,0,0,.5,9.73c2.46,4.87-10.72,26.81-10.72,26.81l-6.12-5c.14,2.2.18,4.52.16,6.8,1.63,2.41,7.22,10.19,8.69,5.8,1.73-5.16,10.51-12.51,10-.44s-6.37,26-11,23.48c-3.49-1.88-6.89-8.63-8.33-11.78a41.23,41.23,0,0,0,12.72,20.5A249.42,249.42,0,0,0,101.13,112l-1.42-15.8-.57,0C98.15,98.08,90.77,102.67,90.77,102.67Z"/><path class="cls-8" d="M75.32,105.84l5.88,4.55s4.18-4.39,4.68-7.27c0,0-1.26,6.26,1.29,10,0,0-2.64-8,1.52-13.27a14.8,14.8,0,0,0-2.15,2.27c3.95-6.47-.66-6.08-.66-6.08l-4.33.77-.64.48Z"/><path class="cls-19" d="M27.67,35.39S24.62,31.85,26.6,30s8.31-4.12,11.93-7,8.15-9,22.8-10.7,37.5,12,43.21,25.93a38.14,38.14,0,0,1,1.09,26s2.25-3.56,5.21-1.92,2.69,14.51-.93,19.16-7.46.82-7.46.82,0,2.3-3.4.21c0,0-10.4,18.36-22.09,21.9S27.5,86.91,27.5,86.91s-14-19-8.11-22.95S27.67,35.39,27.67,35.39Z"/><path class="cls-20" d="M62,74.3c-.16-.45-.31-.9-.44-1.35-3.31-7.62-19.51-8.38-21.88-7.3-3,1.34-2.38,5-2.38,5l0,.13a11.36,11.36,0,0,0,.1,3.73c.21,1,.62,2.62.91,4.07C43.2,82.54,56.33,91.5,61.2,80A9.56,9.56,0,0,0,62,74.3Z"/><path class="cls-6" d="M19.39,64c-5.89,4,8.11,22.95,8.11,22.95s37.78,21,49.46,17.45,22.09-21.9,22.09-21.9c3.4,2.09,3.4-.21,3.4-.21s3.84,3.84,7.46-.82,3.9-17.51.93-19.16-5.21,1.92-5.21,1.92a38.14,38.14,0,0,0-1.09-26C98.83,24.25,76,10.53,61.33,12.26a47.83,47.83,0,0,0-7.76,1.55c1.35-.25,18.89-3.18,31.33,9.14,12.94,12.82,5.7,23.14,1.64,20.94S82,40.17,78.22,35.61s-7.07-10.4-11.36-10-5.12,5.87-5.12,5.87a136.4,136.4,0,0,0-1.9,31S60,94.62,87.06,86c-1.59.45-11.25,2.89-16.4-3.07,0,0,8.31,5.24,16.87-2.88s6.69,8.45-.22,14-15.57-.42-15.57-.42L61.2,80s-4.73,4.48-8.76-8.77c0,0-2,11.85-8.11,2.06,0,0-2.29,8.88-7-2.63a11.67,11.67,0,0,0,.08,3.86c.41,1.9,1.64,6.59,1.07,6.87s-24-4.73-19.18-16c0,0,5.27,7.73,15.47,1a12.18,12.18,0,0,1-8.47,3.83S36.8,72.1,41.41,58.44s8.83-29.79,8.83-29.79-1.92-8.49-16.65.93c-5,3.23-7.09,3.52-7.61,2.52a8.15,8.15,0,0,0,1.69,3.29S25.28,60,19.39,64Z"/><g class="cls-21"><path class="cls-22" d="M38.69,62.55c6.11-6.94,5.05-18.77,0-25S24.54,31.71,16.75,45.1,18,64.85,22.56,65.84,34.63,67.16,38.69,62.55Z"/><path class="cls-23" d="M21.92,57.08c1.37,5.07,6.65,7.37,11.79,5.14s8.2-8.13,6.82-13.2-6.65-7.37-11.79-5.14S20.55,52,21.92,57.08Z"/><path class="cls-24" d="M22.91,56.65c1.23,4.53,5.94,6.58,10.54,4.59S40.77,54,39.54,49.45,33.6,42.87,29,44.86,21.68,52.12,22.91,56.65Z"/><path class="cls-25" d="M25.85,55.21c.73,3.39,3.73,5.17,6.7,4s4.78-4.9,4.05-8.29-3.73-5.16-6.7-4S25.12,51.82,25.85,55.21Z"/><path class="cls-26" d="M36.37,51.42c1.78.69,1.47-3.24.34-2.92S33.7,50.39,36.37,51.42Z"/><path class="cls-27" d="M15.87,43.89C16,43,23.33,35.44,32.33,37S46.6,68.82,22.67,66.45,36.61,80.33,36.61,80.33L48.46,37.2s-8.56-5.82-9-5.82-26.33,2.26-26.33,2.26Z"/><path class="cls-28" d="M26,39.09a11,11,0,0,0-8.59,5l-.6,1c-4.77,8.19-3.25,13.74-.3,17l.35.32C28,71.93,34.48,38.76,26,39.09Z"/></g><path class="cls-8" d="M50.05,62.42c.74,0,4.41,3.34,3.17,4.41S48.82,62.51,50.05,62.42Z"/><path class="cls-8" d="M48.9,61.52c-.78-.2-5.51,2.55-4.4,4.24S50.22,61.85,48.9,61.52Z"/><path class="cls-29" d="M37.38,74.56a6.85,6.85,0,0,0,3.25,3,6.6,6.6,0,0,1,5,.49,2.26,2.26,0,0,0,3.29.5,9.71,9.71,0,0,0,3.29-3.54s3.75,10,9,5c0,0,14.12,1.11,10,16.29,0,0,11.28.7,6.22,10s-6.46,12.22-6.46,12.22l-8,2.72a9.48,9.48,0,0,1-5.88-3.36s-8.19,6.36-15.35-4.5c0,0-16.54,5.72-22.26-5.76,0,0-11.57-1.94-12.92-9.71S10.71,86.13,15,85.51A4.27,4.27,0,0,1,16.64,80c3.25-2,6.5.29,6.5.29s-.66-4.41,4.4-7.12S37.38,74.56,37.38,74.56Z"/><path class="cls-30" d="M6.56,97.9c1.35,7.77,12.92,9.71,12.92,9.71,5.72,11.48,22.26,5.76,22.26,5.76,7.16,10.86,15.35,4.5,15.35,4.5A9.48,9.48,0,0,0,63,121.23l8-2.72s1.39-3,6.46-12.22-6.22-10-6.22-10C75.32,81.15,61.2,80,61.2,80c-5.22,5.06-9-5-9-5a9.71,9.71,0,0,1-3.29,3.54,2.26,2.26,0,0,1-3.29-.5s2.4,4.24,6-.74c0,0,5.14,9.1,9.09,4.69,0,0,11.31-.44,6.15,17.4,0,0,5.91-3.32,8.35,2.6s-13.91,6.68-18.3-2.86c0,0,2.17,9.25-11.26,4.3,0,0,2.7,6.79-4.21,7,0,0-19.12,5.84-22.68-6.9,0,0-16.23-.74-9.73-15A10.27,10.27,0,0,0,6.56,97.9Z"/><path class="cls-31" d="M51.42,241.09s1.65-9.77,11.09-11.42,9.49,4,13.11,4.06,4.55,2.14,3.95,6.59l-4.33.11s.65-3.24-1.7-3.13-2.36,3.51-2.36,3.51Z"/><path class="cls-32" d="M61.74,31.44s3.67-12.84,16.94,4.77C78.68,36.21,62.73,9.88,61.74,31.44Z"/><path class="cls-32" d="M50,29.58s-1.76-7.78-16.41,0C33.59,29.58,54.06,15.71,50,29.58Z"/><path class="cls-6" d="M44.33,61.07s7.12-6.18,9.59,1.89c0,0-.14-11.6-7.19-5.27,0,0,3.94-2.75,5.38.75C52.11,58.44,50.54,55.06,44.33,61.07Z"/><path class="cls-8" d="M50.05,62.42c.74,0,4.41,3.34,3.17,4.41S48.82,62.51,50.05,62.42Z"/><path class="cls-8" d="M48.9,61.52c-.78-.2-5.51,2.55-4.4,4.24S50.22,61.85,48.9,61.52Z"/><path class="cls-8" d="M111.45,72.75s.82-7.88-2.31-8-6.66,7.15-6.42,11.84c0,0,1.82-3.46,4.41-2.06s-1.11,5.6-1.11,5.6,3.45-2.47,3.45-5.43-2.08-3-4.16-2.26c0,0,1.2-4.62,3.67-5.42S111.45,72.75,111.45,72.75Z"/><path class="cls-33" d="M95.1,58.44c-16.56-.76,3.55,23.41,3.55,23.41s-1.65-4.36-.12-5.23,3.54,4.81,3.54,4.81-1.65-6.7-.25-11.52,3.81-5.72,3.81-5.72a38.14,38.14,0,0,0-1.09-26,23,23,0,0,0-1.27-2.6S111.65,59.2,95.1,58.44Z"/><g class="cls-34"><path class="cls-35" d="M63.71,73.85c-6.09-8.52-4.6-18.43,1.76-24.91s15.14-10.31,24.58.55,8,20.3,0,27.1S70.63,83.51,63.71,73.85Z"/><ellipse class="cls-36" cx="73.91" cy="62.05" rx="11.18" ry="10.37" transform="translate(-19.46 37.66) rotate(-25.37)"/><path class="cls-37" d="M66.91,69c3.83,3.47,10.07,3.15,13.94-.71s3.9-9.81.07-13.28-10.08-3.15-14,.71S63.07,65.57,66.91,69Z"/><path class="cls-38" d="M69.29,66.42a6.82,6.82,0,0,0,9.45.48,6.42,6.42,0,0,0-.2-9.22,6.82,6.82,0,0,0-9.46-.49A6.42,6.42,0,0,0,69.29,66.42Z"/><path class="cls-26" d="M79.69,60.13c2.3-.2-.2-3.56-1.25-2.76S76.23,60.43,79.69,60.13Z"/><path class="cls-27" d="M64.7,48.17s17.12-13.27,24,8.23c4.77,14.85,1.54,24.91-15.47,26.12S96.35,95.36,96.6,94.7s11.23-18.22,8.59-23S90.49,38.41,87.31,35.88s-8.45-3.5-10.87-2.24-15.8,10-15.8,10Z"/><path class="cls-39" d="M60.39,57.87S64.79,44.66,76,49.6c8,3.52,4.28,43.07-13,23.81S60.39,57.87,60.39,57.87Z"/></g><path class="cls-8" d="M98.51,38.09l5.15,1.25a13.8,13.8,0,0,0-6.14-2.82l-.24-.34A42.73,42.73,0,0,0,97,31.82a11.21,11.21,0,0,0-.82,2.92,30,30,0,0,0-3.37-3.6,25.73,25.73,0,0,0,2.93-.91,12.39,12.39,0,0,0-4,0,33.77,33.77,0,0,0-4.14-2.94,14.36,14.36,0,0,1,3.7-1.41,8.5,8.5,0,0,0-4.53.92,32.8,32.8,0,0,0-3.9-1.89l.25-.79a6.11,6.11,0,0,0-.51.69c-.83-.32-1.33-.47-1.36-.48a.58.58,0,0,0-.72.4.6.6,0,0,0,.41.72s.42.12,1.1.38a5.35,5.35,0,0,0-.4,2.9L82.58,26a31.3,31.3,0,0,1,3.15,1.49,8.34,8.34,0,0,0-2.54,3.15A18,18,0,0,1,86.53,28a31.79,31.79,0,0,1,3.84,2.6,12.24,12.24,0,0,0-2.51,1,10.73,10.73,0,0,0,3.56-.12A29.5,29.5,0,0,1,96,36.36a7.77,7.77,0,0,0-2.65.4c.63.18,1.54.42,2.55.68a59.53,59.53,0,0,0-.08,6.45,12.05,12.05,0,0,0,1.42-5.69,28.58,28.58,0,0,1,3.34,7.92.57.57,0,0,0,.56.44l.15,0a.59.59,0,0,0,.42-.71A29.88,29.88,0,0,0,98.51,38.09Z"/><path class="cls-40" d="M27.5,102s-8.31-3.87-4.28-7.82,8.56,0,8.56,0-4.2-6.5.82-11.93,8-4.61,8-4.61a6.85,6.85,0,0,1-3.25-3s-4.78-4.07-9.84-1.35-4.4,7.12-4.4,7.12S19.89,78,16.64,80A4.27,4.27,0,0,0,15,85.51c-4.32.62-9.83,4.61-8.47,12.39s12.92,9.71,12.92,9.71C15.4,98.76,27.5,102,27.5,102Z"/><path class="cls-41" d="M48.94,78.6a2.26,2.26,0,0,1-3.29-.5,6.6,6.6,0,0,0-5-.49s-3-.82-8,4.61-.82,11.93-.82,11.93-4.52-4-8.56,0S27.5,102,27.5,102a17.1,17.1,0,0,0-5.72-.47s-4.81,1.13,1.33,6.11c0,0,.44-7,13.06-3.06,0,0-5.81-2.62-6.47-5.36s6.47-1.53,6.47-1.53-4.14-7.22,1-11.78,11.95-1.82,13.49,3c0,0,0-4.71,2.81-4.49,0,0-5.49-.44-1.85-7a6.17,6.17,0,0,0,.73-2c-.08-.18-.12-.29-.12-.29A9.71,9.71,0,0,1,48.94,78.6Z"/><path class="cls-42" d="M10.08,97.33s-.9-12.18,10.4-9.1c0,0-3.76-2.53-2.54-4.94s8.57,1.53,8.57,1.53-3.73-5,.66-8.23,10.21-2,10.21-2-4.78-4.07-9.84-1.35-4.4,7.12-4.4,7.12S19.89,78,16.64,80A4.27,4.27,0,0,0,15,85.51a10.57,10.57,0,0,0-4.59,1.89C9.54,88.1,6.17,91.29,10.08,97.33Z"/><path class="cls-43" d="M55.4,96.08s-13.46-1.78-10.64,4.6A5,5,0,0,0,40.18,104s1.82-5.11-2.06-5.81c0,0,6.41,3,6.21-5.55,0,0,7.47,5.06,7.29-2,0,0,.74,4,7.81,2.14C59.43,92.75,54.33,94.13,55.4,96.08Z"/><path class="cls-44" d="M57.09,117.87A9.48,9.48,0,0,0,63,121.23l8-2.72s1.39-3,6.46-12.22-6.22-10-6.22-10C75.32,81.15,61.2,80,61.2,80s10.88,2.37,0,11.92c0,0,6,1.48,2.42,5.37s-7.15,0-7.15,0,4.06,9.38-4.94,12.34c0,0,3.62,4.72-.76,6.26s-9-2.51-9-2.51C48.9,124.23,57.09,117.87,57.09,117.87Z"/><path class="cls-45" d="M31.78,94.15s-2.94-4.59-.91-9.28a7.66,7.66,0,0,1-4.1,1c5.08,8.12-5.52,3.33-5.52,3.33a26.26,26.26,0,0,1,3,4.11C28,90.87,31.78,94.15,31.78,94.15Z"/><path class="cls-46" d="M66.46,130.58s4.22-12.4,9.76-9.35C76.22,121.23,75.46,134.31,66.46,130.58Z"/><path class="cls-47" d="M69.72,122.05s5.76,1.24,8.15-3.37.41-7.49.41-7.49l-9.22,5.5Z"/><path class="cls-8" d="M78.28,111.19l-9.22,5.5.66,5.36s5.76,1.24,8.15-3.37S78.28,111.19,78.28,111.19Zm-2.06,7.4c-3,3.87-5.56,2-5.56,2s-.07-6.5,4.66-6.52C75.32,114.11,79.27,114.73,76.22,118.59Z"/><path class="cls-48" d="M72.52,116.62s6.17.08,8.31-5.1-2.14-8.89-5.35-8.56.66,10.12-4,11.27c0,0,3-10.94-4.86-13s-9.71,2.22-7.65,4.36c0,0-6.91-1-7.41,4s8.65,1.57,8.65,1.57a5.09,5.09,0,0,1,.9,7.16c-3,4.2,2.72,8.89,5.84,8.8l3.87,7.9,4.86-5.84a41.46,41.46,0,0,1-3.79-5.84C70.3,120.32,72.52,116.62,72.52,116.62Z"/><path class="cls-6" d="M72.52,116.62s6.17.08,8.31-5.1a7.09,7.09,0,0,0,.57-2.94c-.11,5.77-5.85,7.13-7,6.64s1.24-3,.58-5.2a26.92,26.92,0,0,1-.64-6.06c-1,2.58,1,9.33-2.9,10.27a18.3,18.3,0,0,0,.33-7c.62,4.56-1.24,7.94-2.72,7.44s-.49-2.55-2.2-5.83-7.43-3.21-7.43-3.21c13.91,3.55,2.89,13.32,4,10s-3.26-6.82-3.26-6.82c-4.92,3.76-7.42,3-8.57,2,1,3.27,8.54.43,8.54.43a5.09,5.09,0,0,1,.9,7.16c-3,4.2,2.72,8.89,5.84,8.8l3.87,7.9,2.79-3.35a16.43,16.43,0,0,0,1.59-3.12,39.21,39.21,0,0,1-3.31-5.21C70.3,120.32,72.52,116.62,72.52,116.62Z"/><path class="cls-49" d="M70.84,115.63s-1.56,2.41-4.38.5c0,0-.94,3.37-3.24,1.15,0,0-2.88,4.44,1.32,7.08s7,1,6.77-3.13a9.44,9.44,0,0,1,1.21-4.61S70.89,116.13,70.84,115.63Z"/><path class="cls-50" d="M76.22,121.23s-3.06,10.67-9.76,9.35c0,0,10.42,18.55,13.06,16.79s24-35.11,25.23-39.5.88-11-5.59-11.74S88.29,103.64,90.82,112c0,0-4.94,12.1-7.57,16.16,0,0-.17-3.84-1.84,2.41C81.41,130.58,77,126.31,76.22,121.23Z"/><path class="cls-8" d="M79.52,147.37c2.63-1.75,24-35.11,25.23-39.5s.88-11-5.59-11.74H99c1.82,1.06,3,3.87,1,10.65-4.28,14.81-13.43,31.85-15.63,26.56,0,0-1.31,11.37-2.4,3.31,0,0,.26,7.23-4,8-1.32.23-3.12-1.3-5-3.52C75.64,144.93,78.35,148.15,79.52,147.37Z"/><path class="cls-51" d="M71.18,240.81s0-3.4,2.36-3.51,1.7,3.13,1.7,3.13l4.33-.11c.6-4.45-.33-6.53-3.95-6.59-2.28,0-3.15-2.28-5.83-3.54,7.06,3.91-1,9-7.45,9.58s-10.17-1.1-10.2-1.11a15,15,0,0,0-.72,2.43Z"/><path class="cls-52" d="M52.19,81.85c.25,3.41-1.14,5.39,1.28,5.72s-1,3.68,1,4.94.44-4.66,1.59-4.26,0,3.23.91,3.08,2.71-4.42,0-6,1-3.43-1.92-5.31c0,0,0-.08.06-.2a16.45,16.45,0,0,1-2.88-4.78,9.71,9.71,0,0,1-3.29,3.54,3.69,3.69,0,0,1-.53.26S52,78.43,52.19,81.85Z"/></g></g></g></svg>