<svg xmlns="http://www.w3.org/2000/svg" xmlns:xlink="http://www.w3.org/1999/xlink" viewBox="0 0 500 500"><defs><style>.cls-1{fill:none;}.cls-2{isolation:isolate;}.cls-3{clip-path:url(#clip-path);}.cls-10,.cls-25,.cls-4,.cls-5,.cls-58,.cls-8,.cls-9{fill:#3c3334;}.cls-10,.cls-12,.cls-13,.cls-15,.cls-17,.cls-20,.cls-25,.cls-27,.cls-28,.cls-29,.cls-30,.cls-37,.cls-38,.cls-43,.cls-44,.cls-45,.cls-46,.cls-48,.cls-49,.cls-5,.cls-52,.cls-53,.cls-55,.cls-58,.cls-60,.cls-63,.cls-64,.cls-9{mix-blend-mode:multiply;}.cls-16,.cls-18,.cls-19,.cls-24,.cls-31,.cls-32,.cls-33,.cls-34,.cls-35,.cls-36,.cls-41,.cls-42,.cls-50,.cls-51,.cls-56,.cls-57,.cls-59,.cls-6,.cls-61,.cls-62,.cls-7,.cls-8{mix-blend-mode:screen;}.cls-6{opacity:0.39;}.cls-8{opacity:0.42;}.cls-9{opacity:0.23;}.cls-10,.cls-18,.cls-61{opacity:0.4;}.cls-11,.cls-13,.cls-60{fill:#80b730;}.cls-12{opacity:0.33;}.cls-13,.cls-27,.cls-28{opacity:0.25;}.cls-14,.cls-41{fill:#eb5143;}.cls-15{opacity:0.48;}.cls-16{opacity:0.47;}.cls-17{opacity:0.38;}.cls-19{opacity:0.65;fill:url(#radial-gradient);}.cls-20{opacity:0.59;}.cls-21{fill:#fff;}.cls-22{clip-path:url(#clip-path-2);}.cls-23,.cls-42,.cls-43,.cls-44,.cls-45,.cls-48,.cls-50,.cls-56,.cls-61,.cls-62{fill:#f68f38;}.cls-24,.cls-34,.cls-41{opacity:0.46;}.cls-25{opacity:0.27;}.cls-26,.cls-27,.cls-36,.cls-37,.cls-57,.cls-64{fill:#ffdbcc;}.cls-29{opacity:0.13;}.cls-30{opacity:0.84;}.cls-31{fill:url(#radial-gradient-2);}.cls-32{fill:url(#radial-gradient-3);}.cls-33{fill:url(#radial-gradient-4);}.cls-34{fill:url(#radial-gradient-5);}.cls-35,.cls-36{opacity:0.35;}.cls-39{fill:url(#linear-gradient);}.cls-40{fill:#fac8c4;}.cls-42{opacity:0.44;}.cls-43{opacity:0.74;}.cls-45{opacity:0.63;}.cls-46{opacity:0.55;}.cls-47,.cls-51{opacity:0.64;}.cls-48,.cls-49,.cls-50{opacity:0.7;}.cls-52{opacity:0.26;}.cls-53,.cls-57,.cls-60{opacity:0.37;}.cls-54,.cls-55,.cls-63{fill:#637f00;}.cls-55{opacity:0.52;}.cls-56{opacity:0.34;}.cls-58{opacity:0.81;}.cls-59{opacity:0.56;}.cls-63{opacity:0.3;}.cls-64{opacity:0.43;}</style><clipPath id="clip-path"><circle class="cls-1" cx="250" cy="250" r="250.43"/></clipPath><radialGradient id="radial-gradient" cx="99.09" cy="351.04" r="40.05" gradientTransform="translate(445.56 229.57) rotate(87.54)" gradientUnits="userSpaceOnUse"><stop offset="0" stop-color="#f68f38"/><stop offset="0.04" stop-color="#f68f38" stop-opacity="0.9"/><stop offset="0.14" stop-color="#f68f38" stop-opacity="0.69"/><stop offset="0.25" stop-color="#f68f38" stop-opacity="0.51"/><stop offset="0.36" stop-color="#f68f38" stop-opacity="0.35"/><stop offset="0.47" stop-color="#f68f38" stop-opacity="0.22"/><stop offset="0.59" stop-color="#f68f38" stop-opacity="0.12"/><stop offset="0.71" stop-color="#f68f38" stop-opacity="0.05"/><stop offset="0.84" stop-color="#f68f38" stop-opacity="0.01"/><stop offset="1" stop-color="#f68f38" stop-opacity="0"/></radialGradient><clipPath id="clip-path-2"><path class="cls-1" d="M121.11,349.59q-.33.36-.69.72a31.89,31.89,0,0,1-12.44,7.5c-10.39,3.41-25.19,1.48-31.82-8.11A15.6,15.6,0,0,1,75,347.76a19.07,19.07,0,0,1-2.14-8.64c0-.24.06-3.78.35-3.78L88.4,335c-.12,2.15-.25,4.3-.36,6.45a5.23,5.23,0,0,0,.14,2,3.46,3.46,0,0,0,2.17,2,10.13,10.13,0,0,0,3,.43c1.19.05,2.55,0,3.32-.87a4.06,4.06,0,0,0,.66-2.64c0-2.53-.76-5.23-.74-7.76l4-.11c.37.84,0,10.35,1.27,10.58a21.08,21.08,0,0,0,6.49,0,1.62,1.62,0,0,0,1.83-1.93,38.89,38.89,0,0,0-1.15-9.12c5.6,0,11.05-.43,16.64,0a1.12,1.12,0,0,1,.59.17,1,1,0,0,1,.26.51C128.21,340.1,124.78,345.68,121.11,349.59Z"/></clipPath><radialGradient id="radial-gradient-2" cx="441.25" cy="296.63" r="28.22" gradientTransform="translate(304.55 -202.03) rotate(43.25) scale(1 0.91)" gradientUnits="userSpaceOnUse"><stop offset="0" stop-color="#f68f38"/><stop offset="0.04" stop-color="#f68f38" stop-opacity="0.9"/><stop offset="0.14" stop-color="#f68f38" stop-opacity="0.69"/><stop offset="0.25" stop-color="#f68f38" stop-opacity="0.51"/><stop offset="0.36" stop-color="#f68f38" stop-opacity="0.35"/><stop offset="0.47" stop-color="#f68f38" stop-opacity="0.22"/><stop offset="0.58" stop-color="#f68f38" stop-opacity="0.12"/><stop offset="0.71" stop-color="#f68f38" stop-opacity="0.05"/><stop offset="0.84" stop-color="#f68f38" stop-opacity="0.01"/><stop offset="1" stop-color="#f68f38" stop-opacity="0"/></radialGradient><radialGradient id="radial-gradient-3" cx="396.71" cy="313.5" r="28.22" gradientTransform="translate(628.08 -116.61) rotate(82.6) scale(1 0.91)" xlink:href="#radial-gradient-2"/><radialGradient id="radial-gradient-4" cx="420.45" cy="336.56" r="28.22" gradientTransform="translate(-9.14 43.71) rotate(-1.75) scale(1 0.91)" xlink:href="#radial-gradient-2"/><radialGradient id="radial-gradient-5" cx="407.6" cy="297.51" r="100.53" gradientTransform="translate(187.23 682.55) rotate(-135.33)" gradientUnits="userSpaceOnUse"><stop offset="0" stop-color="#f68f38"/><stop offset="0.09" stop-color="#f68f38" stop-opacity="0.97"/><stop offset="0.23" stop-color="#f68f38" stop-opacity="0.87"/><stop offset="0.4" stop-color="#f68f38" stop-opacity="0.72"/><stop offset="0.6" stop-color="#f68f38" stop-opacity="0.5"/><stop offset="0.82" stop-color="#f68f38" stop-opacity="0.23"/><stop offset="1" stop-color="#f68f38" stop-opacity="0"/></radialGradient><linearGradient id="linear-gradient" x1="333.34" y1="301.35" x2="341.78" y2="357.54" gradientUnits="userSpaceOnUse"><stop offset="0.2" stop-color="#fff"/><stop offset="1" stop-color="#fce7d3"/></linearGradient></defs><g class="cls-2"><g id="OBJECTS"><g class="cls-3"><polygon class="cls-4" points="500 -0.87 500 500 -0.86 500 -0.86 371.57 -1.11 371.57 -1.11 324.29 -0.86 324.29 -0.86 265.48 -1.11 265.48 -1.11 218.19 -0.86 218.19 -0.86 159.38 -1.11 159.38 -1.11 112.09 -0.86 112.09 -0.86 53.29 -1.11 53.29 -1.11 6 -0.86 6 -0.86 -0.87 500 -0.87"/><polygon class="cls-4" points="500 -0.87 500 500 -0.86 500 -0.86 371.57 -1.11 371.57 -1.11 324.29 -0.86 324.29 -0.86 265.48 -1.11 265.48 -1.11 218.19 -0.86 218.19 -0.86 159.38 -1.11 159.38 -1.11 112.09 -0.86 112.09 -0.86 53.29 -1.11 53.29 -1.11 6 -0.86 6 -0.86 -0.87 500 -0.87"/><polygon class="cls-5" points="500 -0.87 500 500 -0.86 500 -0.86 371.57 -1.11 371.57 -1.11 324.29 -0.86 324.29 -0.86 265.48 -1.11 265.48 -1.11 218.19 -0.86 218.19 -0.86 159.38 -1.11 159.38 -1.11 112.09 -0.86 112.09 -0.86 53.29 -1.11 53.29 -1.11 6 -0.86 6 -0.86 -0.87 500 -0.87"/><g class="cls-6"><g class="cls-7"><rect class="cls-4" x="-1.11" y="6" width="47.36" height="47.29"/><rect class="cls-4" x="52.03" y="6" width="47.37" height="47.29"/><rect class="cls-4" x="105.18" y="6" width="47.37" height="47.29"/><rect class="cls-4" x="158.32" y="6" width="47.37" height="47.29"/><rect class="cls-4" x="211.46" y="6" width="47.37" height="47.29"/><rect class="cls-4" x="263.93" y="6" width="47.37" height="47.29"/><rect class="cls-4" x="317.07" y="6" width="47.37" height="47.29"/><rect class="cls-4" x="370.22" y="6" width="47.37" height="47.29"/><rect class="cls-4" x="422.69" y="6" width="47.37" height="47.29"/><rect class="cls-4" x="475.83" y="6" width="24.17" height="47.29"/></g><g class="cls-7"><rect class="cls-4" x="-0.86" y="58.61" width="23.05" height="47.28"/><rect class="cls-4" x="27.96" y="58.61" width="47.37" height="47.29"/><rect class="cls-4" x="81.1" y="58.61" width="47.37" height="47.29"/><rect class="cls-4" x="134.25" y="58.61" width="47.37" height="47.29"/><rect class="cls-4" x="187.39" y="58.61" width="47.37" height="47.29"/><rect class="cls-4" x="239.86" y="58.61" width="47.37" height="47.29"/><rect class="cls-4" x="293" y="58.61" width="47.37" height="47.29"/><rect class="cls-4" x="346.14" y="58.61" width="47.37" height="47.29"/><rect class="cls-4" x="398.61" y="58.61" width="47.37" height="47.29"/><rect class="cls-4" x="451.75" y="58.61" width="48.25" height="47.29"/></g><g class="cls-7"><rect class="cls-4" x="-1.11" y="112.09" width="47.36" height="47.29"/><rect class="cls-4" x="52.03" y="112.1" width="47.37" height="47.29"/><rect class="cls-4" x="105.18" y="112.1" width="47.37" height="47.29"/><rect class="cls-4" x="158.32" y="112.1" width="47.37" height="47.29"/><rect class="cls-4" x="211.46" y="112.1" width="47.37" height="47.29"/><rect class="cls-4" x="263.93" y="112.1" width="47.37" height="47.29"/><rect class="cls-4" x="317.07" y="112.1" width="47.37" height="47.29"/><rect class="cls-4" x="370.22" y="112.1" width="47.37" height="47.29"/><rect class="cls-4" x="422.69" y="112.1" width="47.37" height="47.29"/><rect class="cls-4" x="475.83" y="112.09" width="24.17" height="47.29"/></g><g class="cls-7"><rect class="cls-4" x="-0.86" y="164.7" width="23.05" height="47.29"/><rect class="cls-4" x="27.96" y="164.7" width="47.37" height="47.29"/><rect class="cls-4" x="81.1" y="164.7" width="47.37" height="47.29"/><rect class="cls-4" x="134.25" y="164.7" width="47.37" height="47.29"/><rect class="cls-4" x="187.39" y="164.7" width="47.37" height="47.29"/><rect class="cls-4" x="239.86" y="164.7" width="47.37" height="47.29"/><rect class="cls-4" x="293" y="164.7" width="47.37" height="47.29"/><rect class="cls-4" x="346.14" y="164.7" width="47.37" height="47.29"/><rect class="cls-4" x="398.61" y="164.7" width="47.37" height="47.29"/><rect class="cls-4" x="451.75" y="164.7" width="48.25" height="47.29"/></g><g class="cls-7"><rect class="cls-4" x="-1.11" y="218.19" width="47.36" height="47.29"/><rect class="cls-4" x="52.03" y="218.19" width="47.37" height="47.29"/><rect class="cls-4" x="105.18" y="218.19" width="47.37" height="47.29"/><rect class="cls-4" x="158.32" y="218.19" width="47.37" height="47.29"/><rect class="cls-4" x="211.46" y="218.19" width="47.37" height="47.29"/><rect class="cls-4" x="263.93" y="218.19" width="47.37" height="47.29"/><rect class="cls-4" x="317.07" y="218.19" width="47.37" height="47.29"/><rect class="cls-4" x="370.22" y="218.19" width="47.37" height="47.29"/><rect class="cls-4" x="422.69" y="218.19" width="47.37" height="47.29"/><rect class="cls-4" x="475.83" y="218.19" width="24.17" height="47.29"/></g><g class="cls-7"><rect class="cls-4" x="-0.86" y="270.8" width="23.05" height="47.28"/><rect class="cls-4" x="27.96" y="270.8" width="47.37" height="47.29"/><rect class="cls-4" x="81.1" y="270.8" width="47.37" height="47.29"/><rect class="cls-4" x="134.25" y="270.8" width="47.37" height="47.29"/><rect class="cls-4" x="187.39" y="270.8" width="47.37" height="47.29"/><rect class="cls-4" x="239.86" y="270.8" width="47.37" height="47.29"/><rect class="cls-4" x="293" y="270.8" width="47.37" height="47.29"/><rect class="cls-4" x="346.14" y="270.8" width="47.37" height="47.29"/><rect class="cls-4" x="398.61" y="270.8" width="47.37" height="47.29"/><rect class="cls-4" x="451.75" y="270.8" width="48.25" height="47.29"/></g><g class="cls-7"><rect class="cls-4" x="-1.11" y="324.29" width="47.36" height="47.28"/><rect class="cls-4" x="52.03" y="324.29" width="47.37" height="47.29"/><rect class="cls-4" x="105.18" y="324.29" width="47.37" height="47.29"/><rect class="cls-4" x="158.32" y="324.29" width="47.37" height="47.29"/><rect class="cls-4" x="211.46" y="324.29" width="47.37" height="47.29"/><rect class="cls-4" x="263.93" y="324.29" width="47.37" height="47.29"/><rect class="cls-4" x="317.07" y="324.29" width="47.37" height="47.29"/><rect class="cls-4" x="370.22" y="324.29" width="47.37" height="47.29"/><rect class="cls-4" x="422.69" y="324.29" width="47.37" height="47.29"/><rect class="cls-4" x="475.83" y="324.29" width="24.17" height="47.28"/></g><g class="cls-7"><rect class="cls-4" x="-0.86" y="376.89" width="23.05" height="47.29"/><rect class="cls-4" x="27.96" y="376.9" width="47.37" height="47.29"/><rect class="cls-4" x="81.1" y="376.9" width="47.37" height="47.29"/><rect class="cls-4" x="134.25" y="376.9" width="47.37" height="47.29"/><rect class="cls-4" x="187.39" y="376.9" width="47.37" height="47.29"/><rect class="cls-4" x="239.86" y="376.9" width="47.37" height="47.29"/><rect class="cls-4" x="293" y="376.9" width="47.37" height="47.29"/><rect class="cls-4" x="346.14" y="376.9" width="47.37" height="47.29"/><rect class="cls-4" x="398.61" y="376.9" width="47.37" height="47.29"/><rect class="cls-4" x="451.75" y="376.9" width="48.25" height="47.29"/></g></g><path class="cls-4" d="M500,376.48V500H-.86V377.64q8.46-.39,16.94-.75,76.55-3.3,152.89-4.55l7.19-.1q41.37-.63,82.67-.67h16.22Q387.75,371.81,500,376.48Z"/><path class="cls-4" d="M500,376.48V500H-.86V377.64q8.46-.39,16.94-.75,76.55-3.3,152.89-4.55l7.19-.1q41.37-.63,82.67-.67h16.22Q387.75,371.81,500,376.48Z"/><path class="cls-8" d="M500,376.48V500H-.87V377.64l17-.75q76.55-3.3,152.88-4.55l7.2-.1q41.35-.63,82.67-.67h16.22Q387.75,371.81,500,376.48Z"/><path class="cls-9" d="M500,376.48v57.75c-2.56-.35-5.13-.7-7.69-1-28.79-3.75-58-1.34-86.56-5.33a99.43,99.43,0,0,1-17.38-3.69c-6.41-2.17-11.72-5.51-11-10.65s9.87-9,16.17-12.81a17.46,17.46,0,0,0,5.09-4.13,3.65,3.65,0,0,0,0-4.67l-.09-.13c-.44-.59-2.12-1.19-5-1.8-7.62-1.58-23.63-3.13-47.38-4.28-1.87-.1-3.79-.18-5.77-.27-13.56-.6-29.39-1.07-47.37-1.36l-5.78-.09q-21.71-.3-47.36-.22l-5.1,0q-22.29.1-47.37.56l-5.77.11q-22.63.44-47.37,1.21l-5.78.18q-22.83.72-47.36,1.76l-5.78.25q-23,1-47.38,2.28l-5.77.3q-11.37.62-23,1.29V377.64q8.46-.39,16.94-.75,76.55-3.3,152.89-4.55l7.19-.1q41.37-.63,82.67-.67h16.22Q387.75,371.81,500,376.48Z"/><path class="cls-8" d="M310.61,500H-.87V398.05c2.9,0,5.79.05,8.69.13,1.93.05,3.86.12,5.78.19,7.44.31,14.88.84,22.28,1.69a133.77,133.77,0,0,1,23.88,4.6L61,405a55.28,55.28,0,0,1,5.78,2.15,27,27,0,0,1,8.9,5.93,12.2,12.2,0,0,1,3.11,11.06,15.08,15.08,0,0,1-.68,2.37c-2,5.38-7.27,6.89-12.31,8.28-3.92,1.08-8.09,2.33-9.64,6.49-3.49,9.35,9,14.7,15.95,16.61,13.85,3.83,29,2.94,43.15,1.73,8.5-.72,17-1.72,25.5-2.37,8.71-.67,17.46-1,26.19-1.36,17.64-.77,35.38-1.14,53,.75a111.77,111.77,0,0,1,37.43,10.75c10.47,5.1,20.26,11.46,30,17.77C294.93,490.11,302.63,495.81,310.61,500Z"/><ellipse class="cls-10" cx="100.65" cy="390.17" rx="71.72" ry="5.73"/><path class="cls-11" d="M59.82,269.76c1.73,3.55,5.1,6.35,8.91,8.28a54.62,54.62,0,0,0,12.33,4.1c17.75,4.14,37.09,5.6,54.15-.32l3.14-12.36a57.16,57.16,0,0,1-12.1-3.1c-3.81-1.59-7.26-4.13-8.87-7.55a11.32,11.32,0,0,1,1.78-11.89c.3-.37.65-.74,1-1.1a7.91,7.91,0,0,0,2.31-4.26,6.92,6.92,0,0,0,.11-1.92,7.6,7.6,0,0,0-1.34-3.68,8.4,8.4,0,0,0-.85-1.06,9.46,9.46,0,0,0-2-1.57l-.13-.07a14.64,14.64,0,0,0-4.76-2.06,11.3,11.3,0,0,0-6.54,1.15c-6.12,2.82-10,8.29-13,13.73s-5.6,11.23-10.28,15.67C77.69,267.41,68.6,270.28,59.82,269.76Z"/><g class="cls-12"><path class="cls-11" d="M59.81,269.76c1.73,3.55,5.1,6.35,8.91,8.28a55,55,0,0,0,12.33,4.1,133.46,133.46,0,0,0,26.45,3.61c-4-.61-8-1.39-11.89-2.3a54.13,54.13,0,0,1-12.33-4.1c-3.82-1.94-7.19-4.72-8.93-8.27,8.79.5,17.87-2.37,23.84-8,4.7-4.45,7.27-10.23,10.29-15.67,2.75-5,6.21-9.95,11.44-12.93a9.56,9.56,0,0,0-1.54-1.13l-.14-.07a14.55,14.55,0,0,0-4.76-2.06,11.31,11.31,0,0,0-6.54,1.15c-6.12,2.82-10,8.29-13,13.73s-5.59,11.23-10.29,15.67C77.68,267.41,68.6,270.28,59.81,269.76Z"/></g><path class="cls-13" d="M92.09,272.68a15.85,15.85,0,0,0,9.56-4.77c5.12-5.26,6.07-12.37,9.25-18.48a38.08,38.08,0,0,1,6.18-8,28.86,28.86,0,0,0,4.16-5.47,8.4,8.4,0,0,0-.85-1.06,30.26,30.26,0,0,1-5.33,6.93,33.58,33.58,0,0,0-5.6,7.71c-1.45,3-2.43,6-3.64,9-2.25,5.6-6.2,12.16-13.72,13C91.3,271.64,91.28,272.76,92.09,272.68Z"/><path class="cls-13" d="M106.91,268.5A17,17,0,0,0,113.54,255c.09-2.5.23-5,1.89-7.12,1.89-2.43,4.81-4.09,7-6.27a6.92,6.92,0,0,0,.11-1.92,24.44,24.44,0,0,1-4.19,3.85,20.13,20.13,0,0,0-4.45,4.33c-1.42,2.1-1.58,4.5-1.67,6.88a17.36,17.36,0,0,1-1.61,7.32A17.15,17.15,0,0,1,106,267.7C105.42,268.19,106.31,269,106.91,268.5Z"/><path class="cls-13" d="M107.59,270.8a16.46,16.46,0,0,0,7.53-11.9c.07-.71,1.35-.71,1.28,0a17.69,17.69,0,0,1-8.17,12.87A.58.58,0,1,1,107.59,270.8Z"/><path class="cls-13" d="M96.87,248c2-3.24,3.26-6.85,5.69-9.89a13.14,13.14,0,0,1,8.35-5.12c.8-.11,1.14,1,.33,1.08-7.94,1.07-10,9.31-13.27,14.5C97.58,249.24,96.48,248.67,96.87,248Z"/><path class="cls-13" d="M92.79,264c4.71-3.1,6.81-8.15,8.66-12.84s3.77-9.63,8-13.15c.59-.5,1.49.29.9.79-8.62,7.17-7.14,19.71-16.93,26.17A.58.58,0,1,1,92.79,264Z"/><path class="cls-13" d="M87.73,266.18a64.64,64.64,0,0,1,7.88-14.31c.44-.61,1.54,0,1.1.57A63.57,63.57,0,0,0,89,266.49C88.69,267.16,87.46,266.86,87.73,266.18Z"/><path class="cls-14" d="M113.23,385.33c1.78.75,3.61,1.46,5.49,2.07.22.08.45.16.67.22,8.53,2.76,17.82,3.91,26.22,1.18a30.06,30.06,0,0,0,6-2.72,40,40,0,0,0,11.87-11,56.79,56.79,0,0,0,7-12.63c4.59-11.36,5.75-23.92,5.34-36.08-.34-10.22-1.72-20.56-6-30.11a47.57,47.57,0,0,0-21.67-23.45c-.44-.23-.91-.45-1.38-.66a40.9,40.9,0,0,0-26.9-2.59l-.82.22a31.15,31.15,0,0,0-4.5,1.67l-1.09,93.82Z"/><path class="cls-14" d="M113.23,385.33c1.78.75,3.61,1.46,5.49,2.07.22.08.45.16.67.22,8.53,2.76,17.82,3.91,26.22,1.18a30.06,30.06,0,0,0,6-2.72,40,40,0,0,0,11.87-11,56.79,56.79,0,0,0,7-12.63c4.59-11.36,5.75-23.92,5.34-36.08-.34-10.22-1.72-20.56-6-30.11a47.57,47.57,0,0,0-21.67-23.45c-.44-.23-.91-.45-1.38-.66a40.9,40.9,0,0,0-26.9-2.59l-.82.22a31.15,31.15,0,0,0-4.5,1.67l-1.09,93.82Z"/><g class="cls-15"><path class="cls-14" d="M113.23,385.33c1.78.75,3.61,1.46,5.49,2.07.22.08.45.16.67.22.52-.14,1-.3,1.56-.46a29.75,29.75,0,0,0,6-2.72,40,40,0,0,0,11.86-11,56.61,56.61,0,0,0,7-12.63c4.59-11.36,5.74-23.92,5.34-36.07-.35-10.23-1.73-20.57-6-30.12a47.55,47.55,0,0,0-21.66-23.45q-.68-.35-1.38-.66c-.72-.34-1.48-.64-2.24-.95l-.82.22a31.15,31.15,0,0,0-4.5,1.67l-1.09,93.82Z"/></g><path class="cls-14" d="M38.44,374.46a40,40,0,0,0,11.75,11.09,29.69,29.69,0,0,0,6,2.78c7,2.37,14.64,2,22,.28l.21-.06a71.83,71.83,0,0,0,10.25-3.34l0-24.09-.13-89.78a30.06,30.06,0,0,0-3-1.23c-.45-.16-.92-.3-1.37-.44-9-2.77-19.32-1.79-27.88,2-.46.21-.93.42-1.38.65a43.59,43.59,0,0,0-10.38,7.14,50.28,50.28,0,0,0-11.55,16.08c-4.31,9.51-5.8,19.84-6.25,30.06C25.86,342.51,28.12,360.16,38.44,374.46Z"/><path class="cls-14" d="M38.44,374.46a40,40,0,0,0,11.75,11.09,29.69,29.69,0,0,0,6,2.78c7,2.37,14.64,2,22,.28l.21-.06a71.83,71.83,0,0,0,10.25-3.34l0-24.09-.13-89.78a30.06,30.06,0,0,0-3-1.23c-.45-.16-.92-.3-1.37-.44-9-2.77-19.32-1.79-27.88,2-.46.21-.93.42-1.38.65a43.59,43.59,0,0,0-10.38,7.14,50.28,50.28,0,0,0-11.55,16.08c-4.31,9.51-5.8,19.84-6.25,30.06C25.86,342.51,28.12,360.16,38.44,374.46Z"/><g class="cls-16"><path class="cls-14" d="M112.69,382.8c1.69.71,3.44,1.39,5.23,2,.22.08.43.15.65.21,8.14,2.64,17,3.74,25,1.12a28.16,28.16,0,0,0,5.71-2.59A38.19,38.19,0,0,0,160.64,373,53.76,53.76,0,0,0,167.32,361c4.39-10.85,5.49-22.84,5.1-34.45-.33-9.76-1.65-19.64-5.69-28.75A45.45,45.45,0,0,0,146,275.37c-.43-.21-.87-.42-1.32-.62A39,39,0,0,0,119,272.28l-.77.21a28,28,0,0,0-4.3,1.59l-1,89.58Z"/></g><g class="cls-16"><path class="cls-14" d="M41.27,372.41A38.2,38.2,0,0,0,52.5,383a28.64,28.64,0,0,0,5.68,2.65c6.69,2.26,14,1.92,21,.27a.76.76,0,0,0,.2-.06,68.33,68.33,0,0,0,9.79-3.19l0-23L89,274c-.92-.43-1.88-.83-2.85-1.17-.43-.16-.87-.29-1.3-.42a38.86,38.86,0,0,0-26.62,1.94c-.45.2-.9.4-1.33.61a41.87,41.87,0,0,0-9.9,6.82,48.1,48.1,0,0,0-11,15.36c-4.12,9.08-5.54,18.94-6,28.7C29.27,341.91,31.42,358.76,41.27,372.41Z"/></g><g class="cls-15"><path class="cls-14" d="M60.24,374.57A39.94,39.94,0,0,0,72,385.66a29.72,29.72,0,0,0,6,2.79l.37.1a71.83,71.83,0,0,0,10.25-3.34l0-24.09-.13-89.78a30.06,30.06,0,0,0-3-1.23c-.45-.16-.92-.3-1.37-.44A40.93,40.93,0,0,0,78,271.81c-.46.21-.93.42-1.38.65a43.59,43.59,0,0,0-10.38,7.14,50.18,50.18,0,0,0-11.54,16.09c-4.32,9.5-5.81,19.83-6.26,30.05C47.66,342.62,49.92,360.27,60.24,374.57Z"/></g><path class="cls-14" d="M62.47,348.58c.16,1.42.36,2.84.56,4.25C64.57,363.33,66.67,375,73.56,384a27.37,27.37,0,0,0,4.54,4.65,31.09,31.09,0,0,0,25.09,6.13,33.17,33.17,0,0,0,15.53-7.34,47.78,47.78,0,0,0,10.47-12.82c.54-.95,1.07-1.92,1.59-2.88q1.54-2.9,2.88-5.87C144.05,343,144.78,318,135,294.6c-3.45-8.25-7.24-17.3-14.49-23.64-.46-.41-1-.79-1.45-1.16-7.23-5.4-17.3-6.6-26.15-3.4a37.07,37.07,0,0,0-7.49,3.71c-9.2,5.88-15.33,15.36-19.1,25.33a78.27,78.27,0,0,0-4.58,19.48A149.31,149.31,0,0,0,62.47,348.58Z"/><g class="cls-16"><path class="cls-14" d="M63.45,347.33c3.14,17,10.35,36.38,26.3,41.21,7.16,2.17,15.32.61,21.67-3s11.09-9,14.8-14.78c14.1-21.92,14.25-49.2,5.71-73.24-3.88-10.94-10.88-22.57-23.45-25.82-7.49-1.94-15.81-.39-22.44,3.22a42.61,42.61,0,0,0-15.43,15.11c-7.31,11.69-9.93,25.33-9.29,38.65A142.39,142.39,0,0,0,63.45,347.33Z"/></g><g class="cls-17"><path class="cls-14" d="M62.24,348.58c.17,1.42.37,2.84.57,4.25C64.34,363.33,66.44,375,73.33,384a27.37,27.37,0,0,0,4.54,4.65A31.15,31.15,0,0,0,103,394.74a33.12,33.12,0,0,0,15.53-7.34A47.86,47.86,0,0,0,129,374.57c.54-.94,1.06-1.91,1.58-2.87q1.55-2.9,2.89-5.87a88.37,88.37,0,0,0,7.47-48.67,90.82,90.82,0,0,1-7.35,24.92q-1.34,3-2.88,5.87c-.53,1-1.05,1.93-1.59,2.88a47.63,47.63,0,0,1-10.48,12.82A33.12,33.12,0,0,1,103.08,371,31.15,31.15,0,0,1,78,364.86a28.14,28.14,0,0,1-4.54-4.65c-6.88-9-9-20.63-10.52-31.13-.2-1.41-.4-2.83-.57-4.25-.38-3.06-.69-6.13-.9-9.21A149,149,0,0,0,62.24,348.58Z"/></g><g class="cls-18"><path class="cls-14" d="M105,270.25a11.47,11.47,0,0,1,7.75.21,18.85,18.85,0,0,1,10.62,10.82c1.69,4.25,2.33,10.44-1.57,14-2.35,2.14-6.35,2.33-9.47,1.16a19.6,19.6,0,0,1-7.59-5.8C102,287.49,99.55,284,99.13,280A9.36,9.36,0,0,1,105,270.25Z"/></g><g class="cls-18"><path class="cls-14" d="M135.21,273a15.58,15.58,0,0,1,7.93,1.82A42.15,42.15,0,0,1,155,283a9.51,9.51,0,0,1,1.18,1.36c.44.48.89,1,1.29,1.47a8.43,8.43,0,0,1,1.94,3.82,3.67,3.67,0,0,1-1.66,3.74,5.41,5.41,0,0,1-4.83-.1,19,19,0,0,1-3.9-2.84,33.79,33.79,0,0,0-10.12-5.67,34.65,34.65,0,0,1-6.08-2.4c-1.85-1.09-3.35-2.88-3.22-4.82C129.73,275.11,132.45,273.27,135.21,273Z"/></g><circle class="cls-19" cx="99.08" cy="343.61" r="40.05" transform="matrix(0.07, -1, 1, 0.07, -250.42, 419.31)"/><g class="cls-20"><path class="cls-14" d="M88.29,314.77C88,314.22,81.14,307,76,301.55a7.69,7.69,0,0,0-11.51.39,3.09,3.09,0,0,0-.21.29c-3.32,5.64-5.36,12.63-3.13,19.12a12.35,12.35,0,0,0,7.9,8c7.25,2.19,14.22-3.25,18-8.89C88.14,318.79,89.21,316.61,88.29,314.77Z"/></g><path class="cls-4" d="M87.44,314.22c-.25-.51-6.71-7.33-11.56-12.41a7.21,7.21,0,0,0-10.81.36,1.76,1.76,0,0,0-.2.27c-3.12,5.31-5,11.87-3,18A11.65,11.65,0,0,0,69.35,328c6.8,2,13.35-3.06,16.89-8.36C87.31,318,88.31,316,87.44,314.22Z"/><g class="cls-20"><path class="cls-14" d="M110.65,314.77c.27-.55,7.15-7.81,12.31-13.22a7.69,7.69,0,0,1,11.51.39,3.09,3.09,0,0,1,.21.29c3.32,5.64,5.36,12.63,3.14,19.12a12.39,12.39,0,0,1-7.91,8c-7.24,2.19-14.22-3.25-18-8.89C110.79,318.79,109.72,316.61,110.65,314.77Z"/></g><path class="cls-4" d="M111.49,314.22c.26-.51,6.71-7.33,11.56-12.41a7.21,7.21,0,0,1,10.81.36,1.76,1.76,0,0,1,.2.27c3.13,5.31,5,11.87,2.95,18a11.64,11.64,0,0,1-7.42,7.56c-6.81,2-13.36-3.06-16.9-8.36C111.62,318,110.62,316,111.49,314.22Z"/><path class="cls-21" d="M76,311.56h0a14.12,14.12,0,0,0,5.61,5.6h0a14.12,14.12,0,0,0-5.61,5.6h0a14,14,0,0,0-5.6-5.6h0a14,14,0,0,0,5.6-5.6Z"/><path class="cls-21" d="M119,311.56h0a14,14,0,0,0,5.6,5.6h0a14,14,0,0,0-5.6,5.6h0a14.16,14.16,0,0,0-5.6-5.6h0a14.16,14.16,0,0,0,5.6-5.6Z"/><g class="cls-20"><path class="cls-14" d="M126.53,336.36l-.68.18a5.92,5.92,0,0,0-1.79.77,26.87,26.87,0,0,0-3.08,2.24c-1.8,1.49-3.46,3.13-5.2,4.68a22,22,0,0,1-5.06,3.42,45.68,45.68,0,0,1-6,2.78c-4.21,1.38-8.92,1.32-13.27.82a12.2,12.2,0,0,1-5.62-1.75,15.49,15.49,0,0,1-3.93-4.18c-1-1.53-1.87-3.35-3.41-4.45s-3.7-1.26-5.62-1.4c0,.76,0,1.43,0,1.53A19.14,19.14,0,0,0,75,349.65a17.21,17.21,0,0,0,1.17,1.94c6.63,9.58,21.43,11.52,31.82,8.1a31.87,31.87,0,0,0,12.44-7.49q.36-.36.69-.72c3.67-3.91,7.1-9.49,5.45-15C126.56,336.41,126.54,336.39,126.53,336.36Z"/></g><path class="cls-4" d="M121.11,349.59q-.33.36-.69.72a31.89,31.89,0,0,1-12.44,7.5c-10.39,3.41-25.19,1.48-31.82-8.11A15.6,15.6,0,0,1,75,347.76a19.07,19.07,0,0,1-2.14-8.64c0-.24.06-3.78.35-3.78L88.4,335c-.12,2.15-.25,4.3-.36,6.45a5.23,5.23,0,0,0,.14,2,3.46,3.46,0,0,0,2.17,2,10.13,10.13,0,0,0,3,.43c1.19.05,2.55,0,3.32-.87a4.06,4.06,0,0,0,.66-2.64c0-2.53-.76-5.23-.74-7.76l4-.11c.37.84,0,10.35,1.27,10.58a21.08,21.08,0,0,0,6.49,0,1.62,1.62,0,0,0,1.83-1.93,38.89,38.89,0,0,0-1.15-9.12c5.6,0,11.05-.43,16.64,0a1.12,1.12,0,0,1,.59.17,1,1,0,0,1,.26.51C128.21,340.1,124.78,345.68,121.11,349.59Z"/><g class="cls-22"><rect class="cls-11" x="96.07" y="367.25" width="1.58" height="7.16"/><path class="cls-23" d="M107.55,356.88q-.1-.54-.24-1.08a39,39,0,0,0-2.37-6.62c-1.11-2.43-2.63-4.68-3.69-7.14a15.13,15.13,0,0,1-.75-3.07.54.54,0,0,0-1-.23,27.33,27.33,0,0,0-5.49,13,5.36,5.36,0,0,1-1-1.05,4.46,4.46,0,0,1-.54-2.7.39.39,0,0,0-.64-.34,3.53,3.53,0,0,0-.27.23,19.49,19.49,0,0,0-5.52,10.3,12.08,12.08,0,0,0,1.48,8.64,10.75,10.75,0,0,0,8.28,4.56c4,.24,7.89-1.1,10.25-4.52C108.18,363.89,108.23,360.32,107.55,356.88Z"/><g class="cls-24"><path class="cls-23" d="M104.69,360.79c0-.26-.11-.52-.18-.79a27.52,27.52,0,0,0-1.73-4.83c-.81-1.78-1.92-3.43-2.69-5.23a10.05,10.05,0,0,1-.55-2.24.4.4,0,0,0-.71-.17,20.08,20.08,0,0,0-4,9.52,4,4,0,0,1-.71-.77,3.24,3.24,0,0,1-.39-2,.29.29,0,0,0-.47-.25l-.2.17a14.27,14.27,0,0,0-4,7.52,8.78,8.78,0,0,0,1.08,6.32,7.81,7.81,0,0,0,6.05,3.33,8.11,8.11,0,0,0,7.49-3.3C105.15,365.92,105.19,363.3,104.69,360.79Z"/></g><g class="cls-24"><path class="cls-23" d="M101.8,364.75c0-.17-.07-.33-.12-.5a17.17,17.17,0,0,0-1.08-3c-.51-1.12-1.21-2.15-1.69-3.28a6.07,6.07,0,0,1-.35-1.41.25.25,0,0,0-.44-.1,12.51,12.51,0,0,0-2.52,6,2.06,2.06,0,0,1-.45-.48,2,2,0,0,1-.24-1.24.19.19,0,0,0-.3-.15l-.12.1A9,9,0,0,0,92,365.35a5.56,5.56,0,0,0,.68,4,4.94,4.94,0,0,0,3.8,2.09,5.12,5.12,0,0,0,4.71-2.07A5.86,5.86,0,0,0,101.8,364.75Z"/></g></g><path class="cls-25" d="M480.88,381.24c0,3-25.55,5.44-57.07,5.44s-57.08-2.43-57.08-5.44,25.56-5.43,57.08-5.43S480.88,378.24,480.88,381.24Z"/><path class="cls-26" d="M454,369.61a2.58,2.58,0,0,1-2.58,2.73H431.49a2.57,2.57,0,0,1-2.57-2.74c.11-2,.22-4,.31-6a410.64,410.64,0,0,0-.49-47.15h25.42C452.78,332.28,453,350.36,454,369.61Z"/><path class="cls-27" d="M432.35,368.13c-1.59-3.33-.84-42.28.48-51.68h-4.08a418.47,418.47,0,0,1,.16,53.15,2.6,2.6,0,0,0,2.58,2.75h4.82A10.5,10.5,0,0,1,432.35,368.13Z"/><path class="cls-27" d="M454.16,316.45h-2.88c-.31,2.06-.21,52.39-2.77,55.75l-.12.15h3a2.59,2.59,0,0,0,2.58-2.73C453,350.36,452.78,332.28,454.16,316.45Z"/><g class="cls-28"><path class="cls-26" d="M454,369.61a2.58,2.58,0,0,1-2.58,2.73H431.49a2.57,2.57,0,0,1-2.57-2.74c.11-2,.22-4,.31-6,2.47-.49,5.13-.53,7.4-1.62a11.13,11.13,0,0,0,5-5.54,29.51,29.51,0,0,0,1.95-7.36,304.38,304.38,0,0,0,3.2-32.63h7.34C452.78,332.28,453,350.36,454,369.61Z"/></g><path class="cls-26" d="M456.81,313.83a3.43,3.43,0,0,0-4.88.8,3.19,3.19,0,0,0-2.57-2.83c-.61-.11-1.25,0-1.86-.18a8,8,0,0,1-2.09-1.17,7.64,7.64,0,0,0-9.05,1,3.37,3.37,0,0,0-5.74,1.67,6.93,6.93,0,0,0-5,1.09,3.65,3.65,0,0,0-1.07,4.67c.9,1.36,2.77,1.69,4.37,1.46a13.07,13.07,0,0,1-1.21,6.49,15.1,15.1,0,0,0-.95,2.19,2.72,2.72,0,0,0,.28,2.3,2.54,2.54,0,0,0,3.63.09,5.33,5.33,0,0,0,1.43-3.73,32.68,32.68,0,0,1,.16-4.09,3.42,3.42,0,0,1,.95-2,1.72,1.72,0,0,1,2.05-.27c.68.45.79,1.39,1.13,2.14a3.31,3.31,0,0,0,6.28-1.89c-.07-.39-.12-.91.25-1a.7.7,0,0,1,.47,0l3.71,1.15a9.22,9.22,0,0,0,0,6.07c.56,2,1.42,3.9,1.81,5.93a7.3,7.3,0,0,0,.79,2.74,2.9,2.9,0,0,0,5.2-2.43,8.13,8.13,0,0,0-1.36-2.18,10.46,10.46,0,0,1-.7-10.78,4.91,4.91,0,0,0,4.81-2.21A4,4,0,0,0,456.81,313.83Z"/><g class="cls-29"><path class="cls-26" d="M457.66,318.89a4.91,4.91,0,0,1-4.81,2.21,10.46,10.46,0,0,0,.7,10.78,8.4,8.4,0,0,1,1.36,2.17,2.9,2.9,0,0,1-5.21,2.44,7.13,7.13,0,0,1-.76-2.59s0-.1,0-.15c-.39-2-1.25-3.94-1.81-5.93a9.22,9.22,0,0,1,0-6.07l-3.71-1.15a.7.7,0,0,0-.47,0h0a.56.56,0,0,0-.36,0c-.28.1-.24.51-.19.82a2.6,2.6,0,0,1-4.93,1.48c-.26-.59-.35-1.32-.88-1.68a1.3,1.3,0,0,0-1.45.09,1.76,1.76,0,0,0-1.87.37,3.39,3.39,0,0,0-.95,2,32.83,32.83,0,0,0-.16,4.09,7.72,7.72,0,0,1-.33,1.91,4.16,4.16,0,0,1-1.1,1.82,2.54,2.54,0,0,1-3.63-.09,2.7,2.7,0,0,1-.28-2.29,14.31,14.31,0,0,1,.95-2.2,13.09,13.09,0,0,0,1.21-6.5c-1.6.24-3.47-.09-4.37-1.44a3.66,3.66,0,0,1,1.07-4.68,6.89,6.89,0,0,1,5-1.09,3.35,3.35,0,0,1,5.72-1.67,7.65,7.65,0,0,1,9.06-1,8,8,0,0,0,2.09,1.17c.61.15,1.25.07,1.86.18a3.2,3.2,0,0,1,2.57,2.83,3.43,3.43,0,0,1,4.88-.8A4,4,0,0,1,457.66,318.89Z"/></g><g class="cls-29"><path class="cls-26" d="M454.09,319.23a3.84,3.84,0,0,1-3.77,1.74,8.21,8.21,0,0,0,.55,8.45,6.34,6.34,0,0,1,1.06,1.71,2.25,2.25,0,0,1-3,2.77s0-.1,0-.15c-.39-2-1.25-3.94-1.81-5.93a9.22,9.22,0,0,1,0-6.07l-3.71-1.15a.7.7,0,0,0-.47,0h0a.56.56,0,0,0-.36,0c-.28.1-.24.51-.19.82a2.6,2.6,0,0,1-4.93,1.48c-.26-.59-.35-1.32-.88-1.68a1.3,1.3,0,0,0-1.45.09,1.76,1.76,0,0,0-1.87.37,3.39,3.39,0,0,0-.95,2,32.83,32.83,0,0,0-.16,4.09,7.72,7.72,0,0,1-.33,1.91,1.73,1.73,0,0,1-1.69-.61,2.17,2.17,0,0,1-.22-1.8,11.94,11.94,0,0,1,.75-1.72,10.18,10.18,0,0,0,1-5.1,3.44,3.44,0,0,1-3.43-1.13,2.89,2.89,0,0,1,.84-3.67,5.42,5.42,0,0,1,3.94-.85,2.63,2.63,0,0,1,4.49-1.31,6,6,0,0,1,7.1-.79,6.1,6.1,0,0,0,1.65.92c.47.11,1,.05,1.46.14a2.51,2.51,0,0,1,2,2.22,2.7,2.7,0,0,1,3.83-.63A3.16,3.16,0,0,1,454.09,319.23Z"/></g><path class="cls-23" d="M441.4,305.94c0-.52-.78-.52-.8,0-.12,3.11-.08,6.21.11,9.32,0,.51.84.51.81,0A90.56,90.56,0,0,1,441.4,305.94Z"/><path class="cls-23" d="M445.94,298.75c-.48-2.21-3.18-12.89-4.29-17.28a.6.6,0,0,0-1.15-.05c-2.22,6.28-4.95,16.54-4.91,22.29a13.85,13.85,0,0,0,.67,4.71,5.6,5.6,0,0,0,3.18,3.38,5.22,5.22,0,0,0,5.39-1.63,8.6,8.6,0,0,0,1.92-5.52A25.65,25.65,0,0,0,445.94,298.75Z"/><g class="cls-7"><path class="cls-23" d="M444.52,302.6c-.34-1.57-2.26-9.16-3-12.27a.43.43,0,0,0-.82,0c-1.57,4.46-3.51,11.75-3.48,15.83a9.71,9.71,0,0,0,.47,3.35,4,4,0,0,0,2.26,2.39,3.69,3.69,0,0,0,3.83-1.15,6.07,6.07,0,0,0,1.36-3.92A18,18,0,0,0,444.52,302.6Z"/></g><path class="cls-23" d="M442.75,307.51c-.16-.75-1.08-4.39-1.46-5.88a.2.2,0,0,0-.39,0,28.72,28.72,0,0,0-1.67,7.59,4.81,4.81,0,0,0,.23,1.6,1.89,1.89,0,0,0,1.08,1.15,1.76,1.76,0,0,0,1.83-.56,2.87,2.87,0,0,0,.66-1.87A8.55,8.55,0,0,0,442.75,307.51Z"/><path class="cls-26" d="M408,379.54a2.6,2.6,0,0,1-2.59,2.73H385.47a2.59,2.59,0,0,1-2.58-2.74c.12-2,.22-4,.31-6a413,413,0,0,0-.48-47.15h25.42C406.75,342.2,407,360.28,408,379.54Z"/><path class="cls-27" d="M386.33,378.05c-1.6-3.33-.85-42.27.47-51.67h-4.08a418.29,418.29,0,0,1,.17,53.14,2.59,2.59,0,0,0,2.58,2.75h4.81A10.55,10.55,0,0,1,386.33,378.05Z"/><path class="cls-27" d="M408.14,326.38h-2.89c-.31,2.05-.21,52.38-2.77,55.74l-.12.15h3a2.6,2.6,0,0,0,2.59-2.73C407,360.29,406.75,342.2,408.14,326.38Z"/><g class="cls-28"><path class="cls-26" d="M408,379.54a2.6,2.6,0,0,1-2.59,2.73H385.47a2.59,2.59,0,0,1-2.58-2.74c.12-2,.22-4,.31-6,2.47-.49,5.13-.53,7.4-1.62a11,11,0,0,0,5-5.54,29.51,29.51,0,0,0,1.95-7.36,304.39,304.39,0,0,0,3.21-32.63h7.34C406.75,342.2,407,360.28,408,379.54Z"/></g><path class="cls-26" d="M410.79,323.75a3.44,3.44,0,0,0-4.89.8,3.19,3.19,0,0,0-2.56-2.83c-.62-.11-1.26,0-1.87-.18a7.45,7.45,0,0,1-2.09-1.17,7.64,7.64,0,0,0-9.05,1A3.36,3.36,0,0,0,384.6,323a7,7,0,0,0-5,1.09,3.67,3.67,0,0,0-1.06,4.68c.89,1.35,2.76,1.68,4.37,1.45a13.3,13.3,0,0,1-1.21,6.49,14.24,14.24,0,0,0-1,2.2,2.73,2.73,0,0,0,.28,2.29,2.54,2.54,0,0,0,3.63.09,5.33,5.33,0,0,0,1.43-3.73,31,31,0,0,1,.17-4.09,3.41,3.41,0,0,1,.94-2,1.72,1.72,0,0,1,2-.27c.68.46.79,1.39,1.13,2.14a3.31,3.31,0,0,0,6.28-1.89c-.06-.39-.12-.91.25-1a.7.7,0,0,1,.47,0l3.72,1.15a9.32,9.32,0,0,0,0,6.08c.57,2,1.43,3.89,1.81,5.92a7.59,7.59,0,0,0,.79,2.75,2.9,2.9,0,0,0,5.2-2.44,8.29,8.29,0,0,0-1.36-2.18,10.43,10.43,0,0,1-.69-10.78,4.89,4.89,0,0,0,4.8-2.21A4,4,0,0,0,410.79,323.75Z"/><g class="cls-29"><path class="cls-26" d="M411.63,328.81a4.89,4.89,0,0,1-4.81,2.21,10.46,10.46,0,0,0,.7,10.78,8.4,8.4,0,0,1,1.36,2.17,2.9,2.9,0,0,1-5.2,2.45,6.86,6.86,0,0,1-.76-2.6l0-.15c-.38-2-1.24-3.94-1.81-5.93a9.35,9.35,0,0,1,0-6.07l-3.71-1.15a.7.7,0,0,0-.47,0h0a.53.53,0,0,0-.35,0c-.29.1-.25.51-.19.82a2.6,2.6,0,0,1-4.93,1.48c-.27-.59-.35-1.32-.88-1.68a1.32,1.32,0,0,0-1.46.09,1.77,1.77,0,0,0-1.87.37,3.42,3.42,0,0,0-1,2,32.83,32.83,0,0,0-.16,4.09,8.21,8.21,0,0,1-.32,1.91,4.09,4.09,0,0,1-1.11,1.82,2.54,2.54,0,0,1-3.63-.09,2.7,2.7,0,0,1-.28-2.29,13.83,13.83,0,0,1,1-2.2,13.08,13.08,0,0,0,1.2-6.5c-1.6.24-3.47-.09-4.37-1.44a3.68,3.68,0,0,1,1.08-4.68,6.91,6.91,0,0,1,5-1.09,3.36,3.36,0,0,1,5.73-1.67,7.64,7.64,0,0,1,9.05-1,7.62,7.62,0,0,0,2.1,1.17c.6.15,1.24.07,1.86.18a3.19,3.19,0,0,1,2.56,2.83,3.44,3.44,0,0,1,4.89-.8A4,4,0,0,1,411.63,328.81Z"/></g><g class="cls-29"><path class="cls-26" d="M408.07,329.15a3.85,3.85,0,0,1-3.77,1.74,8.16,8.16,0,0,0,.55,8.45,6.34,6.34,0,0,1,1.06,1.71,2.34,2.34,0,0,1-1.21,2.73,2.29,2.29,0,0,1-1.78,0l0-.15c-.38-2-1.24-3.94-1.81-5.93a9.35,9.35,0,0,1,0-6.07l-3.71-1.15a.7.7,0,0,0-.47,0h0a.53.53,0,0,0-.35,0c-.29.1-.25.51-.19.82a2.6,2.6,0,0,1-4.93,1.48c-.27-.59-.35-1.32-.88-1.68a1.32,1.32,0,0,0-1.46.09,1.77,1.77,0,0,0-1.87.37,3.42,3.42,0,0,0-1,2,32.83,32.83,0,0,0-.16,4.09,8.21,8.21,0,0,1-.32,1.91,1.72,1.72,0,0,1-1.69-.6,2.16,2.16,0,0,1-.22-1.81,11.29,11.29,0,0,1,.74-1.72,10.18,10.18,0,0,0,.95-5.1,3.43,3.43,0,0,1-3.42-1.13,2.88,2.88,0,0,1,.83-3.67,5.42,5.42,0,0,1,3.94-.85,2.64,2.64,0,0,1,4.5-1.31,6,6,0,0,1,7.1-.79,5.79,5.79,0,0,0,1.64.92c.48.12,1,.06,1.46.14a2.5,2.5,0,0,1,2,2.22,2.69,2.69,0,0,1,3.83-.62A3.14,3.14,0,0,1,408.07,329.15Z"/></g><path class="cls-23" d="M395.37,315.86c0-.52-.78-.51-.8,0a90.53,90.53,0,0,0,.12,9.32c0,.51.83.51.8,0A90.53,90.53,0,0,1,395.37,315.86Z"/><path class="cls-23" d="M399.91,308.67c-.48-2.21-3.18-12.89-4.29-17.27a.6.6,0,0,0-1.15-.06c-2.22,6.29-4.94,16.55-4.9,22.29a13.34,13.34,0,0,0,.67,4.71,5.58,5.58,0,0,0,3.17,3.38,5.22,5.22,0,0,0,5.39-1.63,8.55,8.55,0,0,0,1.92-5.52A25.11,25.11,0,0,0,399.91,308.67Z"/><g class="cls-7"><path class="cls-23" d="M398.49,312.52c-.34-1.57-2.26-9.16-3.05-12.27a.42.42,0,0,0-.81,0c-1.58,4.46-3.52,11.75-3.49,15.83a9.71,9.71,0,0,0,.48,3.35,4,4,0,0,0,2.25,2.4,3.71,3.71,0,0,0,3.83-1.16,6.07,6.07,0,0,0,1.36-3.92A18.07,18.07,0,0,0,398.49,312.52Z"/></g><path class="cls-23" d="M396.73,317.43c-.17-.75-1.08-4.39-1.46-5.88a.21.21,0,0,0-.4,0,28.29,28.29,0,0,0-1.66,7.59,4.56,4.56,0,0,0,.22,1.6,1.92,1.92,0,0,0,1.08,1.15,1.79,1.79,0,0,0,1.84-.55,2.91,2.91,0,0,0,.65-1.88A8.53,8.53,0,0,0,396.73,317.43Z"/><path class="cls-26" d="M432.06,382.59a2.24,2.24,0,0,1-2.23,2.35H412.66a2.23,2.23,0,0,1-2.22-2.36c.11-1.73.2-3.45.28-5.16.62-13.79.49-14.68-.42-28h21.89C431,363.09,431.17,366,432.06,382.59Z"/><path class="cls-27" d="M413.41,381.31c-1.38-2.87-.73-23.76.4-31.85H410.3c1,14.93,1.06,17.54.14,33.12a2.23,2.23,0,0,0,2.22,2.36h4.15A9.06,9.06,0,0,1,413.41,381.31Z"/><path class="cls-27" d="M432.19,349.46H429.7c-.26,1.77-.18,32.46-2.38,35.36l-.11.12h2.62a2.24,2.24,0,0,0,2.23-2.35C431.17,366,431,363.09,432.19,349.46Z"/><g class="cls-28"><path class="cls-26" d="M432.06,382.59a2.24,2.24,0,0,1-2.23,2.35H412.66a2.23,2.23,0,0,1-2.22-2.36c.11-1.73.2-3.45.28-5.16,2.12-.43,4.41-.46,6.37-1.4a9.58,9.58,0,0,0,4.34-4.77,25.58,25.58,0,0,0,1.68-6.34c1.54-9.28,2.21-6,2.76-15.45h6.32C431,363.09,431.17,366,432.06,382.59Z"/></g><path class="cls-26" d="M434.47,347.2a3,3,0,0,0-4.21.69,2.74,2.74,0,0,0-2.21-2.44c-.53-.09-1.08,0-1.6-.16a6.71,6.71,0,0,1-1.81-1,6.57,6.57,0,0,0-7.79.86,2.89,2.89,0,0,0-4.93,1.44,6,6,0,0,0-4.33.94,3.15,3.15,0,0,0-.92,4,3.78,3.78,0,0,0,3.76,1.25,11.28,11.28,0,0,1-1,5.6,12,12,0,0,0-.82,1.88,2.36,2.36,0,0,0,.24,2,2.19,2.19,0,0,0,3.13.08,4.6,4.6,0,0,0,1.23-3.21,27.64,27.64,0,0,1,.14-3.53,3,3,0,0,1,.81-1.7,1.49,1.49,0,0,1,1.77-.23c.59.4.68,1.2,1,1.85a2.85,2.85,0,0,0,5.41-1.63c0-.33-.1-.78.21-.9a.73.73,0,0,1,.41,0l3.2,1a8,8,0,0,0,0,5.23c.49,1.71,1.23,3.35,1.56,5.1a6.42,6.42,0,0,0,.68,2.37,2.5,2.5,0,0,0,4.48-2.1,7,7,0,0,0-1.17-1.88,9,9,0,0,1-.6-9.28,4.2,4.2,0,0,0,4.13-1.9A3.47,3.47,0,0,0,434.47,347.2Z"/><g class="cls-29"><path class="cls-26" d="M435.19,351.56a4.22,4.22,0,0,1-4.13,1.9,9,9,0,0,0,.6,9.28,7.21,7.21,0,0,1,1.17,1.88,2.5,2.5,0,0,1-4.48,2.1,5.94,5.94,0,0,1-.66-2.24s0-.08,0-.13c-.33-1.74-1.07-3.39-1.56-5.1a8,8,0,0,1,0-5.23l-3.2-1a.65.65,0,0,0-.41,0h0a.45.45,0,0,0-.3,0c-.25.09-.21.44-.17.7a2.24,2.24,0,0,1-4.24,1.28c-.24-.51-.31-1.14-.76-1.45a1.12,1.12,0,0,0-1.25.08,1.53,1.53,0,0,0-1.62.32,2.92,2.92,0,0,0-.81,1.7,27.41,27.41,0,0,0-.14,3.52,6.48,6.48,0,0,1-.28,1.64,3.51,3.51,0,0,1-1,1.57,2.18,2.18,0,0,1-3.12-.08,2.34,2.34,0,0,1-.24-2,11.73,11.73,0,0,1,.82-1.89,11.28,11.28,0,0,0,1-5.6,3.76,3.76,0,0,1-3.76-1.25,3.13,3.13,0,0,1,.92-4,5.94,5.94,0,0,1,4.33-.94,2.89,2.89,0,0,1,4.93-1.44,6.58,6.58,0,0,1,7.8-.86,6.51,6.51,0,0,0,1.8,1c.52.13,1.07.06,1.6.16a2.75,2.75,0,0,1,2.21,2.44,3,3,0,0,1,4.21-.69A3.46,3.46,0,0,1,435.19,351.56Z"/></g><g class="cls-30"><path class="cls-26" d="M435.19,351.56a4.22,4.22,0,0,1-4.13,1.9,9,9,0,0,0,.6,9.28,7.21,7.21,0,0,1,1.17,1.88,2.5,2.5,0,0,1-4.48,2.1,5.94,5.94,0,0,1-.66-2.24s0-.08,0-.13c-.33-1.74-1.07-3.39-1.56-5.1a8,8,0,0,1,0-5.23l-3.2-1a.65.65,0,0,0-.41,0h0a.45.45,0,0,0-.3,0c-.25.09-.21.44-.17.7a2.24,2.24,0,0,1-4.24,1.28c-.24-.51-.31-1.14-.76-1.45a1.12,1.12,0,0,0-1.25.08,1.53,1.53,0,0,0-1.62.32,2.92,2.92,0,0,0-.81,1.7,27.41,27.41,0,0,0-.14,3.52,6.48,6.48,0,0,1-.28,1.64,3.51,3.51,0,0,1-1,1.57,2.18,2.18,0,0,1-3.12-.08,2.34,2.34,0,0,1-.24-2,11.73,11.73,0,0,1,.82-1.89,11.28,11.28,0,0,0,1-5.6,3.76,3.76,0,0,1-3.76-1.25,3.13,3.13,0,0,1,.92-4,5.94,5.94,0,0,1,4.33-.94,2.89,2.89,0,0,1,4.93-1.44,6.58,6.58,0,0,1,7.8-.86,6.51,6.51,0,0,0,1.8,1c.52.13,1.07.06,1.6.16a2.75,2.75,0,0,1,2.21,2.44,3,3,0,0,1,4.21-.69A3.46,3.46,0,0,1,435.19,351.56Z"/></g><g class="cls-29"><path class="cls-26" d="M432.13,351.85a3.34,3.34,0,0,1-3.25,1.5,7,7,0,0,0,.47,7.27,5.56,5.56,0,0,1,.92,1.47,2,2,0,0,1-1,2.36,2,2,0,0,1-1.54,0s0-.08,0-.13c-.33-1.74-1.07-3.39-1.56-5.1a8,8,0,0,1,0-5.23l-3.2-1a.65.65,0,0,0-.41,0h0a.45.45,0,0,0-.3,0c-.25.09-.21.44-.17.7a2.24,2.24,0,0,1-4.24,1.28c-.24-.51-.31-1.14-.76-1.45a1.12,1.12,0,0,0-1.25.08,1.53,1.53,0,0,0-1.62.32,2.92,2.92,0,0,0-.81,1.7,27.41,27.41,0,0,0-.14,3.52,6.48,6.48,0,0,1-.28,1.64,1.5,1.5,0,0,1-1.46-.52,1.87,1.87,0,0,1-.19-1.55,8.52,8.52,0,0,1,.65-1.48,8.87,8.87,0,0,0,.81-4.39,3,3,0,0,1-2.95-1,2.48,2.48,0,0,1,.73-3.16,4.66,4.66,0,0,1,3.39-.74,2.27,2.27,0,0,1,3.87-1.12,5.15,5.15,0,0,1,6.11-.68,5.1,5.1,0,0,0,1.42.79c.41.1.84.05,1.25.12a2.17,2.17,0,0,1,1.74,1.92,2.31,2.31,0,0,1,3.29-.55A2.73,2.73,0,0,1,432.13,351.85Z"/></g><path class="cls-23" d="M421.2,340.4c0-.44-.68-.44-.7,0-.1,2.68-.06,5.36.1,8,0,.44.72.44.7,0A76.8,76.8,0,0,1,421.2,340.4Z"/><path class="cls-23" d="M425.11,334.21c-.42-1.9-2.74-11.1-3.7-14.87a.52.52,0,0,0-1,0c-1.91,5.41-4.26,14.25-4.22,19.19a11.78,11.78,0,0,0,.57,4.06,4.79,4.79,0,0,0,2.74,2.91,4.5,4.5,0,0,0,4.64-1.4,7.37,7.37,0,0,0,1.65-4.76A22,22,0,0,0,425.11,334.21Z"/><g class="cls-7"><path class="cls-23" d="M423.88,337.53c-.29-1.36-1.94-7.89-2.62-10.57a.37.37,0,0,0-.71,0c-1.35,3.84-3,10.12-3,13.63a8.44,8.44,0,0,0,.41,2.88,3.43,3.43,0,0,0,1.94,2.07,3.18,3.18,0,0,0,3.3-1,5.19,5.19,0,0,0,1.17-3.38A15.22,15.22,0,0,0,423.88,337.53Z"/></g><path class="cls-23" d="M422.36,341.76c-.14-.65-.93-3.78-1.26-5.07a.17.17,0,0,0-.33,0,24.52,24.52,0,0,0-1.44,6.53,3.79,3.79,0,0,0,.2,1.38,1.58,1.58,0,0,0,.93,1,1.5,1.5,0,0,0,1.57-.48,2.47,2.47,0,0,0,.57-1.62A7.21,7.21,0,0,0,422.36,341.76Z"/><circle class="cls-31" cx="441.25" cy="296.63" r="25.49" transform="translate(-80.51 398.89) rotate(-45)"/><circle class="cls-32" cx="396.71" cy="313.5" r="25.49" transform="translate(45.65 677.38) rotate(-84.35)"/><circle class="cls-33" cx="420.45" cy="336.56" r="25.49"/><path class="cls-10" d="M466.73,428.37c5.76-2.14,8.87-4.4,8.87-6.74,0-12.8-92.54-23.18-206.7-23.18S62.2,408.83,62.2,421.63s92.54,23.18,206.7,23.18c24.58,0,48.15-.48,70-1.36,11.46,5.19,39.64,8.86,72.62,8.86,43.13,0,78.1-6.28,78.1-14C489.64,434.41,480.88,430.9,466.73,428.37Z"/><circle class="cls-34" cx="106.55" cy="184.41" r="100.53" transform="translate(-99.19 129.35) rotate(-45)"/><path class="cls-26" d="M405,191.08c6.44,20.36-11.69,38-26.48,48.71-11.56,8.37-24.22,16.32-38.44,17.74l-.62-2.09-1.41-4.8-8.19-27.77c11.26-2.38,19.73-11.41,27-20.33,6.56-8,13.33-16.95,22.58-22.1a17.15,17.15,0,0,1,15.86-.91,8.6,8.6,0,0,1,1.61.88A18.76,18.76,0,0,1,405,191.08Z"/><g class="cls-35"><path class="cls-26" d="M402.06,189.28c6.44,20.36-11.69,38-26.47,48.74-10.94,7.88-22.82,15.44-36.1,17.42l-1.41-4.8-8.19-27.77c11.26-2.38,19.73-11.41,27-20.33,6.56-8,13.33-16.95,22.58-22.1a17.15,17.15,0,0,1,15.86-.91,14.31,14.31,0,0,1,2.25,2A20,20,0,0,1,402.06,189.28Z"/></g><g class="cls-35"><path class="cls-26" d="M397,180.41a10.32,10.32,0,0,1,.64,1.13,20.09,20.09,0,0,1,1.33,3.25c6.44,20.36-11.69,38-26.48,48.71-10.44,7.57-21.79,14.78-34.36,17.14l-8.19-27.77c11.26-2.38,19.73-11.41,27-20.33,6.56-8,13.33-16.95,22.58-22.1a17.15,17.15,0,0,1,15.86-.91A8.6,8.6,0,0,1,397,180.41Z"/></g><path class="cls-26" d="M104.2,191.08c-6.45,20.36,11.69,38,26.48,48.71,11.56,8.37,24.22,16.32,38.44,17.74l.61-2.09,1.41-4.8,8.2-27.77c-11.26-2.38-19.73-11.41-27-20.33-6.56-8-13.33-16.95-22.58-22.1a17.17,17.17,0,0,0-15.87-.91,9.27,9.27,0,0,0-1.61.88A18.79,18.79,0,0,0,104.2,191.08Z"/><g class="cls-35"><path class="cls-26" d="M107.17,189.28c-6.44,20.36,11.69,38,26.47,48.74,10.94,7.88,22.82,15.44,36.09,17.42l1.41-4.8,8.2-27.77c-11.26-2.38-19.73-11.41-27-20.33-6.56-8-13.33-16.95-22.58-22.1a17.17,17.17,0,0,0-15.87-.91,15.26,15.26,0,0,0-2.25,2A20,20,0,0,0,107.17,189.28Z"/></g><g class="cls-35"><path class="cls-26" d="M112.27,180.41a12.28,12.28,0,0,0-.64,1.13,20.07,20.07,0,0,0-1.32,3.25c-6.44,20.36,11.69,38,26.48,48.71,10.44,7.57,21.79,14.78,34.35,17.14l8.2-27.77c-11.26-2.38-19.73-11.41-27-20.33-6.56-8-13.33-16.95-22.58-22.1a17.17,17.17,0,0,0-15.87-.91A9.27,9.27,0,0,0,112.27,180.41Z"/></g><path class="cls-26" d="M366.22,356.21c-112.86,65.58-176.61-3.71-176.61-3.71C163.18,331,146.1,297.24,146.1,259.23c0-64.88,49.7-117.48,111-117.48s111,52.6,111,117.48a124.44,124.44,0,0,1-12.9,55c-.08.19-.19.38-.29.57-2.29,4.62-5.4,9.84-7.43,15.12-3.06,8-3.63,16.2,4.8,22.8A23.37,23.37,0,0,0,363,356.8,5.86,5.86,0,0,0,366.22,356.21Z"/><path class="cls-26" d="M222.3,117.81c-2-1.58-4.27-3.07-6.67-3.06-2.59,0-5,1.73-7.06,3.6-13.72,12.18-22.06,33.19-21.5,54.14l55.28-26.76C240.24,135.43,229.57,123.41,222.3,117.81Z"/><path class="cls-26" d="M296,117.81c2-1.58,4.27-3.07,6.68-3.06,2.58,0,5,1.73,7.05,3.6,13.73,12.18,22.07,33.19,21.5,54.14l-55.28-26.76C278,135.43,288.71,123.41,296,117.81Z"/><path class="cls-36" d="M345.78,316.35a118.76,118.76,0,0,0,15.9-50.93c5-64.23-35.07-93.65-35.07-93.65.49-18.37-5.63-39.62-17.66-50.31-1.85-1.64-3.92-3.15-6.19-3.15-2.11,0-4.06,1.3-5.85,2.68-6.37,4.91-17.45,18.42-19.3,27.45l1.85.88a98.82,98.82,0,0,0-38.9-.83l.1-.05c-1.85-9-12.93-22.54-19.3-27.45-1.79-1.38-3.74-2.69-5.85-2.68s-4.34,1.51-6.18,3.15c-12,10.69-18.16,31.94-17.66,50.31l.07,0a113.71,113.71,0,0,0-39.19,78.56c-2.59,35.81,11.2,68.79,34.63,90.82,0,0,55.31,69.6,166.1,15.53-3.39,1.65-10.55-2.14-12.87-4.23-7.49-6.79-6.4-14.46-3-21.8C339.8,325.56,343.25,320.68,345.78,316.35Z"/><path class="cls-36" d="M320.7,329.82c2.84-4.29,6.67-8.29,9.58-11.91a108.84,108.84,0,0,0,21.49-44.43c12.38-55.32-20-109.65-72.24-121.35s-104.69,23.66-117.07,79c-7.25,32.41.86,64.47,19.3,87.83,0,0,41.13,71.24,149.88,36.86-3.33,1.05-9.36-3.39-11.19-5.62C314.51,343,316.56,336.07,320.7,329.82Z"/><path class="cls-37" d="M283.33,173.39a3.68,3.68,0,0,1,.37-1.6,6.55,6.55,0,0,1,3.69-3c3.05-1.17,10.65-2,10.78,3A3.27,3.27,0,0,1,296,175c-1.35.44-2.82-.12-4.24,0a13.88,13.88,0,0,0-3.51,1.1,4.36,4.36,0,0,1-3.59,0A3,3,0,0,1,283.33,173.39Z"/><path class="cls-37" d="M234.13,174.73a3.73,3.73,0,0,0-.17-1.63,6.61,6.61,0,0,0-3.29-3.4c-2.88-1.55-10.31-3.34-11.07,1.61a3.29,3.29,0,0,0,1.74,3.41c1.28.6,2.81.23,4.2.52a14.51,14.51,0,0,1,3.36,1.53,4.31,4.31,0,0,0,3.55.46A3,3,0,0,0,234.13,174.73Z"/><g class="cls-38"><path class="cls-39" d="M363,356.8c-16.4,3.14-36-7.5-44.09-21.29-1.9-3.24-3.38-6.93-3-10.67,1.54-15.38,25.36-10.84,35.29-10.17,1.19.09,2.44.13,3.73.13-2.29,4.62-5.4,9.84-7.43,15.12-3.06,8-3.63,16.2,4.8,22.8A23.37,23.37,0,0,0,363,356.8Z"/></g><path class="cls-37" d="M301.68,201.47c-.17,4.49-4,18.87-11.17,14.76-5.23-3-7-11.53-6.63-17,.27-4.48,1.9-11.14,7-12.35a7.64,7.64,0,0,1,6.91,2.25,13.58,13.58,0,0,1,3.37,6.69A22.28,22.28,0,0,1,301.68,201.47Z"/><path class="cls-37" d="M232.9,199.82c-.16,4.49-4,18.87-11.16,14.76-5.24-3-7-11.52-6.64-17,.28-4.48,1.91-11.15,7-12.35A7.61,7.61,0,0,1,229,187.5a13.46,13.46,0,0,1,3.37,6.69A21.72,21.72,0,0,1,232.9,199.82Z"/><path class="cls-4" d="M230.42,199.14c-.17,4.49-4,18.87-11.17,14.76-5.23-3-7-11.52-6.63-17,.27-4.48,1.9-11.15,7-12.35a7.63,7.63,0,0,1,6.92,2.25,13.44,13.44,0,0,1,3.36,6.69A21.77,21.77,0,0,1,230.42,199.14Z"/><path class="cls-4" d="M303.56,200.81c-.17,4.5-4,18.88-11.17,14.77-5.23-3-7-11.53-6.63-17,.27-4.48,1.9-11.15,7-12.35a7.62,7.62,0,0,1,6.92,2.25,13.58,13.58,0,0,1,3.37,6.69A22.25,22.25,0,0,1,303.56,200.81Z"/><path class="cls-4" d="M263.36,191.94c0,1.37-1.91,2.48-4.27,2.48s-4.28-1.11-4.28-2.48,1.91-2.48,4.28-2.48S263.36,190.57,263.36,191.94Z"/><path class="cls-40" d="M207.75,207.54c4.35,5.29,4.21,12.6-.32,16.32s-11.72,2.44-16.07-2.85-4.2-12.6.32-16.32S203.41,202.25,207.75,207.54Z"/><path class="cls-40" d="M318.46,227.27c-5.6,3.94-12.88,3.25-16.25-1.54s-1.56-11.87,4-15.81,12.87-3.26,16.25,1.53S324.06,223.32,318.46,227.27Z"/><path class="cls-4" d="M279.62,205.77c-.11,4.45-.22,8.92-.53,13.37a92.29,92.29,0,0,1-3.86,22.05c-2.32,7.21-6.31,15.11-13.92,17.81a16.81,16.81,0,0,1-13.66-1.14c-4.1-2.31-7-6.34-8.83-10.68a51.45,51.45,0,0,1-3.56-14.05,89.18,89.18,0,0,1-.37-15.74c.06-1.13.06-14.29,1.51-14.92a55.34,55.34,0,0,1,36.73-2.69c2.32.67,5,1.76,6.06,3.93A4.52,4.52,0,0,1,279.62,205.77Z"/><path class="cls-14" d="M279.09,219.14a92.29,92.29,0,0,1-3.86,22.05c-2.32,7.21-6.31,15.11-13.92,17.81a16.81,16.81,0,0,1-13.66-1.14c-4.1-2.31-7-6.34-8.83-10.68a51.45,51.45,0,0,1-3.56-14.05A30.37,30.37,0,0,1,263,214.39,29.5,29.5,0,0,1,279.09,219.14Z"/><path class="cls-41" d="M275.15,220a3,3,0,0,1,1.57,2.89,79.66,79.66,0,0,1-3.32,17.92c-2.08,6.48-5.66,13.57-12.5,16a15.06,15.06,0,0,1-12.26-1,19.36,19.36,0,0,1-7.93-9.59,41.67,41.67,0,0,1-2.27-7.16,13.59,13.59,0,0,1,2.21-11,26.91,26.91,0,0,1,21.81-11.3A26.38,26.38,0,0,1,275.15,220Z"/><path class="cls-21" d="M221.8,194h0a15.18,15.18,0,0,0,6,6.05h0a15.31,15.31,0,0,0-6,6h0a15.18,15.18,0,0,0-6.05-6h0A15.06,15.06,0,0,0,221.8,194Z"/><path class="cls-21" d="M294.65,194h0a15.06,15.06,0,0,0,6.05,6.05h0a15.18,15.18,0,0,0-6.05,6h0a15.31,15.31,0,0,0-6-6h0a15.18,15.18,0,0,0,6-6.05Z"/><path class="cls-40" d="M232.93,140.21a78.07,78.07,0,0,0-6-9.21c-2.65-3.54-7.56-12.21-12.89-8.12-8.89,6.84-15.6,18.51-18.18,29.31a21.81,21.81,0,0,0-.68,6.73c.06.77,1.15,6.52,2.6,5.08a9.65,9.65,0,0,1,1.11-1,5.79,5.79,0,0,1-.07.82,36.88,36.88,0,0,0,6.9-11,4.16,4.16,0,0,1,1.89,5.19,19.94,19.94,0,0,0,4.21-12.41,26,26,0,0,0,4,3.42,6.3,6.3,0,0,1,2.6,4.38,8.53,8.53,0,0,0,1.82-9.39,40,40,0,0,1,9.16,6,1.38,1.38,0,0,0,.53.34,1.32,1.32,0,0,0,.56,0c1-.19,5.73-.38,6.07-1.43a1.9,1.9,0,0,0-.15-1.21A52.69,52.69,0,0,0,232.93,140.21Z"/><path class="cls-40" d="M283.4,140.21a78.07,78.07,0,0,1,6-9.21c2.65-3.54,7.56-12.21,12.89-8.12,8.89,6.84,15.6,18.51,18.17,29.31a21.52,21.52,0,0,1,.69,6.73c-.06.77-1.15,6.52-2.6,5.08a9.65,9.65,0,0,0-1.11-1,5.79,5.79,0,0,0,.07.82,36.88,36.88,0,0,1-6.9-11,4.15,4.15,0,0,0-1.89,5.19,19.94,19.94,0,0,1-4.21-12.41,26,26,0,0,1-4,3.42,6.3,6.3,0,0,0-2.6,4.38,8.53,8.53,0,0,1-1.82-9.39,40,40,0,0,0-9.16,6,1.38,1.38,0,0,1-.53.34,1.32,1.32,0,0,1-.56,0c-1-.19-5.73-.38-6.07-1.43a1.9,1.9,0,0,1,.15-1.21A52.69,52.69,0,0,1,283.4,140.21Z"/><path class="cls-23" d="M59.47,122.84h80.42a2.41,2.41,0,0,1,2.41,2.41v92a2.14,2.14,0,0,1-2.14,2.14H59.47a0,0,0,0,1,0,0V122.84A0,0,0,0,1,59.47,122.84Z" transform="translate(80.15 -26.44) rotate(24.53)"/><path class="cls-21" d="M60.89,125.68h79.26a2.41,2.41,0,0,1,2.41,2.41v92a2.14,2.14,0,0,1-2.14,2.14H60.89a0,0,0,0,1,0,0V125.68a0,0,0,0,1,0,0Z" transform="translate(81.41 -26.53) rotate(24.53)"/><path class="cls-26" d="M117.73,236.28l-72.34-33,40.08-87.83,72.1,32.91a2.39,2.39,0,0,1,1.19,3.18l-38.19,83.7A2.15,2.15,0,0,1,117.73,236.28Z"/><path class="cls-21" d="M62.6,130.37h79.26a2.41,2.41,0,0,1,2.41,2.41v92a2.14,2.14,0,0,1-2.14,2.14H62.6a0,0,0,0,1,0,0V130.37a0,0,0,0,1,0,0Z" transform="translate(83.5 -26.82) rotate(24.53)"/><path class="cls-26" d="M63.45,132.71h79.26a2.41,2.41,0,0,1,2.41,2.41v92a2.14,2.14,0,0,1-2.14,2.14H63.45a0,0,0,0,1,0,0V132.71a0,0,0,0,1,0,0Z" transform="translate(84.55 -26.96) rotate(24.53)"/><path class="cls-23" d="M120.15,243.51,45,209.22C58.89,178,71.33,147.73,85.09,121.39L160,155.59a.46.46,0,0,1,.23.61c-12.11,28.48-25.34,57.63-39.8,87.2A.23.23,0,0,1,120.15,243.51Z"/><path class="cls-42" d="M120.08,240.35,48.83,207.83c13.16-29.59,25-58.3,38-83.28L157.89,157a.44.44,0,0,1,.22.58c-11.48,27-24,54.64-37.74,82.68A.22.22,0,0,1,120.08,240.35Z"/><path class="cls-43" d="M152.35,174.51a67.11,67.11,0,0,1-9.75,8.77A110.7,110.7,0,0,1,89,204.84c-13.51,1.57-27.39.31-39.89-4.79q-2,4.57-4.05,9.17l75.14,34.29a.23.23,0,0,0,.31-.11Q137.53,208.5,152.35,174.51Z"/><path class="cls-23" d="M155.64,142c1.35.62.74,1.61.74,1.61l-71-32.39c-1.46,2.61-1,5.69,1.75,9.37l71.92,32.82a2.09,2.09,0,0,1,1.09,1.17l.49,1.32L85.48,121.75c-4.08-4.83-4.62-9.14-2.78-13.1Z"/><path class="cls-44" d="M155.64,142c1.35.62.74,1.61.74,1.61l-71-32.39c-1.46,2.61-1,5.69,1.75,9.37l71.92,32.82a2.09,2.09,0,0,1,1.09,1.17l.49,1.32L85.48,121.75c-4.08-4.83-4.62-9.14-2.78-13.1Z"/><path class="cls-23" d="M85.4,121.53,45.32,209.36a13.16,13.16,0,0,1-2.78-13.09q1.47-3.3,2.9-6.59c.33-.74.66-1.49,1-2.23,11-25.14,20.51-49.11,30.4-68.37.47-.92,1-1.83,1.42-2.73,1.45-2.74,3-5.17,4.46-7.7C81.07,112.63,81.55,116.72,85.4,121.53Z"/><path class="cls-45" d="M80.62,112.14c.29,3.82.06,8.18,4.12,9.91a.41.41,0,0,1,.26.37l.4-.89c-3.85-4.81-4.33-8.9-2.7-12.87C82,109.82,81.32,111,80.62,112.14Z"/><path class="cls-45" d="M84.22,122.94a7.1,7.1,0,0,1-4.12-5.43,27,27,0,0,1-.38-3.81c-.5.86-1,1.74-1.47,2.66s-1,1.8-1.43,2.72c-9.89,19.26-19.43,43.23-30.4,68.37-.32.74-.65,1.48-1,2.23-.95,2.19-1.92,4.38-2.9,6.59a13,13,0,0,0,1.55,11.44,14.71,14.71,0,0,0,1.23,1.65L84.8,122.84A.54.54,0,0,1,84.22,122.94Z"/><path class="cls-42" d="M80.1,117.51a27,27,0,0,1-.38-3.81c-.5.86-1,1.74-1.47,2.66s-1,1.8-1.43,2.72c-9.89,19.26-19.43,43.23-30.4,68.37-.32.74-.65,1.48-1,2.23-.95,2.19-1.92,4.38-2.9,6.59a13,13,0,0,0,1.55,11.44l39-85.41A7.39,7.39,0,0,1,80.1,117.51Z"/><path class="cls-26" d="M51.63,195.54l-.75,1.64a21.47,21.47,0,0,1-5.44-7.5c.33-.74.66-1.49,1-2.23A20.28,20.28,0,0,0,51.63,195.54Z"/><path class="cls-26" d="M83.25,126.25l-.75,1.64c-2.77-2.4-5-5.3-5.68-8.81.47-.92,1-1.83,1.42-2.73a.85.85,0,0,1,.08.43C78.18,120.66,80.49,123.79,83.25,126.25Z"/><path class="cls-26" d="M152.15,157.29a3.94,3.94,0,0,0,1.58,2.26.29.29,0,0,1-.09.51,3.15,3.15,0,0,0-1.79,1.89.3.3,0,0,1-.51.11,2.53,2.53,0,0,0-1.1-.74,4.85,4.85,0,0,0-1.47-.22.29.29,0,0,1-.23-.47,3,3,0,0,0,.32-2.73.3.3,0,0,1,.36-.38,3.31,3.31,0,0,0,2.49-.45A.29.29,0,0,1,152.15,157.29Z"/><path class="cls-26" d="M146.84,153.68,90.11,127.79a1,1,0,0,0-.81,1.77L146,155.46A1,1,0,0,0,146.84,153.68Z"/><path class="cls-26" d="M145.53,157.73l-26.34-8.19c-1.19-.36-2,1.41-.81,1.78l26.34,8.19C145.9,159.87,146.73,158.1,145.53,157.73Z"/><path class="cls-26" d="M145.27,161.59l-11-.57c-1.24-.07-1.57,1.86-.31,1.93l11,.57C146.21,163.58,146.53,161.65,145.27,161.59Z"/><path class="cls-26" d="M150.16,164.85,133.66,201a1,1,0,0,0,1.78.81l16.49-36.15A1,1,0,0,0,150.16,164.85Z"/><path class="cls-26" d="M146,164.46q-3.81,4.95-8,9.58c-.84.93.66,2.18,1.5,1.25q4.18-4.64,8-9.57C148.29,164.72,146.79,163.46,146,164.46Z"/><path class="cls-26" d="M115.24,237.45a.17.17,0,0,0,.28.12,3.13,3.13,0,0,1,1.5-1,3.09,3.09,0,0,1,1.71.24.16.16,0,0,0,.2-.23,3,3,0,0,1,.73-3.58,3.71,3.71,0,0,1-2.19-.07,3,3,0,0,1-1.23-1.18.16.16,0,0,0-.3.07,3,3,0,0,1-2.26,2.39.16.16,0,0,0-.06.29A2.86,2.86,0,0,1,115.24,237.45Z"/><path class="cls-26" d="M109.54,235.41,52.81,209.52a1,1,0,0,1,.81-1.78l56.73,25.9A1,1,0,0,1,109.54,235.41Z"/><path class="cls-26" d="M111.74,231.77,88.3,217.23c-1.06-.66-.26-2.44.81-1.78L112.55,230C113.61,230.64,112.81,232.43,111.74,231.77Z"/><path class="cls-26" d="M114.49,229l-7.65-7.95c-.87-.89.38-2.4,1.25-1.5l7.65,7.95C116.61,228.44,115.36,230,114.49,229Z"/><path class="cls-26" d="M120.15,230.59l16.5-36.14a1,1,0,0,1,1.78.81l-16.5,36.14A1,1,0,0,1,120.15,230.59Z"/><path class="cls-26" d="M117.15,227.73q1.25-6.12,2-12.32c.15-1.25,2.08-.93,1.93.31q-.77,6.21-2,12.32C118.83,229.27,116.9,229,117.15,227.73Z"/><path class="cls-26" d="M93.92,140.1l.31,1.12a1.69,1.69,0,0,0,1.07,1.12l1.14.38a1.66,1.66,0,0,1,.41,2.93l-1.06.73a1.68,1.68,0,0,0-.71,1.34V149a1.66,1.66,0,0,1-2.68,1.28l-.88-.7a1.64,1.64,0,0,0-1.54-.27l-1.06.34a1.65,1.65,0,0,1-2.08-2.12l.43-1.19a1.67,1.67,0,0,0-.2-1.5l-.74-1.06a1.66,1.66,0,0,1,1.41-2.6l1.2,0a1.65,1.65,0,0,0,1.38-.69l.68-.93A1.65,1.65,0,0,1,93.92,140.1Z"/><path class="cls-26" d="M112.54,200.63l.31,1.12a1.67,1.67,0,0,0,1.06,1.12l1.14.38a1.66,1.66,0,0,1,.42,2.93l-1.06.73a1.65,1.65,0,0,0-.71,1.34l0,1.27a1.65,1.65,0,0,1-2.68,1.27l-.87-.7a1.66,1.66,0,0,0-1.55-.27l-1.06.35a1.66,1.66,0,0,1-2.07-2.13l.42-1.19a1.64,1.64,0,0,0-.2-1.5l-.73-1.06a1.65,1.65,0,0,1,1.4-2.6l1.2,0a1.66,1.66,0,0,0,1.39-.69l.68-.93A1.65,1.65,0,0,1,112.54,200.63Z"/><path class="cls-26" d="M138,208.27a9.58,9.58,0,0,0,5.69,1.08c3.16-.62,5.13-3.51,6-6.41v0a8.64,8.64,0,0,0-.37-5.65c-.41-1-.76-2-1.1-3-1.24-3.79-2.44-7.93-5.05-11.06a6.57,6.57,0,0,0-5.57-2.52,3.94,3.94,0,0,0-.7.09,7.26,7.26,0,0,0-4.38,2.72c-5.13,6.42-1.06,15.27,2.78,21.15.79,1.23,1.62,2.45,2.5,3.63A.51.51,0,0,1,138,208.27Z"/><g class="cls-35"><path class="cls-26" d="M143.66,209.35c3.16-.62,5.13-3.51,6-6.41v0a8.64,8.64,0,0,0-.37-5.65c-.41-1-.76-2-1.1-3-1.24-3.79-2.44-7.93-5.05-11.06a6.57,6.57,0,0,0-5.57-2.52,6,6,0,0,0-1.09.41,7.73,7.73,0,0,0-2.67,2.16c-5.13,6.42-1.06,15.28,2.76,21.17,1,1.56,2.11,3.13,3.28,4.62A7.72,7.72,0,0,0,143.66,209.35Z"/></g><g class="cls-35"><path class="cls-26" d="M143,209.44a4.18,4.18,0,0,0,.71-.09c3.16-.62,5.13-3.51,6-6.41v0a8.64,8.64,0,0,0-.37-5.65c-.41-1-.76-2-1.1-3-1.24-3.79-2.44-7.93-5.05-11.06a6.57,6.57,0,0,0-5.57-2.52,3.94,3.94,0,0,0-.7.09c-.13.1-.26.2-.39.32a8.64,8.64,0,0,0-.92,1c-5.13,6.42-1.06,15.28,2.77,21.16A52.24,52.24,0,0,0,143,209.44Z"/></g><path class="cls-40" d="M457.78,217.05c1.1,2.63-.65,5.53-2.42,7.77a80.45,80.45,0,0,1-60.86,29.71,5.38,5.38,0,0,1-5.25-4.15c-.34-1.44-.67-2.88-1-4.33q-3.5-15.27-6.46-30.64c-.08-.41-.15-.82-.23-1.23q-3.63-19.08-6.42-38.32l19.28-10.34,7.57-4.07q14.44,14.22,28.88,28.45h0c.5.51,1,1,1.54,1.53q11.67,11.46,23.31,23A8.13,8.13,0,0,1,457.78,217.05Z"/><g class="cls-38"><path class="cls-40" d="M404.87,198.4c-11.83,5.68-20.8,12.13-21.54,15.29q-3.39-17.91-6-35.94l25.18-13.53q13.54,13.34,27.1,26.69C425.94,190.14,415.92,193.08,404.87,198.4Z"/></g><path class="cls-23" d="M454.85,216.38c1,2.46-.61,5.2-2.28,7.29a75.46,75.46,0,0,1-47.93,27.15,74,74,0,0,1-9.16.72,5,5,0,0,1-4.93-3.89c-.68-2.91-1.35-5.82-2-8.73Q386,227.31,383.7,215.6c-.06-.25-.1-.5-.15-.75s0-.26-.07-.39-.1-.51-.14-.77c.73-3.16,9.7-9.62,21.53-15.3a100.29,100.29,0,0,1,17.38-6.65c3.27-.84,5.84-1.14,7.35-.83l.33.33,1.12,1.11q10.95,10.76,21.87,21.54A7.78,7.78,0,0,1,454.85,216.38Z"/><g class="cls-46"><path class="cls-23" d="M454.85,216.38c1,2.46-.61,5.2-2.28,7.29a75.46,75.46,0,0,1-47.93,27.15,8.49,8.49,0,0,1-2.68-6.49c.24-3.65,3.1-6.67,6.35-8.33s6.92-2.27,10.45-3.19c6.56-1.73,13.13-4.92,16.84-10.61,1.59-2.42,2.47-5.93.49-8.07-1.75-1.89-4.84-1.66-7.21-.65s-4.49,2.66-7,3.25c-1.62.4-3.87-.15-4-1.82a3.46,3.46,0,0,1,1.28-2.44l4.11-4.36a10.62,10.62,0,0,0,3-4.65c.42-1.83-.49-4.11-2.33-4.48a7.72,7.72,0,0,0-3.13.44,2.78,2.78,0,0,1-2.9-.75c-.78-1.16.17-2.66,1.11-3.69s2.08-2.2,3.17-3.24c3.27-.84,5.84-1.14,7.35-.83l.33.33,1.12,1.11q10.95,10.76,21.87,21.54A7.78,7.78,0,0,1,454.85,216.38Z"/></g><g class="cls-46"><path class="cls-23" d="M408.68,220.93a15,15,0,0,1-7.34,5.29,9.69,9.69,0,0,0-2.57,1,2.34,2.34,0,0,0-1.12,2.35A2.29,2.29,0,0,0,399,231a6.7,6.7,0,0,0,2,.33l3.23.2a2.52,2.52,0,0,1,.8,4.86,34,34,0,0,1-6.36,1.83,48.31,48.31,0,0,1-10.19.69Q386,227.31,383.7,215.6c6.36-1.82,12.21-5.83,18.78-7.15,1-.21,2.37-.23,2.9.69a1.83,1.83,0,0,1-.12,1.82,5.45,5.45,0,0,1-1.31,1.36l-4.08,3.36c-.49.4-1,1-.82,1.58s1.31.64,2.05.43l4-1.16a7.62,7.62,0,0,1,2.24-.41,2.5,2.5,0,0,1,2,.92C410.17,218.17,409.51,219.78,408.68,220.93Z"/></g><g class="cls-47"><path class="cls-48" d="M396.71,217.81a4.56,4.56,0,0,1-6.6,5.81,4.48,4.48,0,0,1-1.64-1.85,4.57,4.57,0,1,1,8.24-4Z"/><g class="cls-49"><path class="cls-23" d="M396.92,219.13a4.34,4.34,0,0,1-6.66,4.32,3.35,3.35,0,0,0,1.6-.81,4.72,4.72,0,0,0,1.31-2.33,11.08,11.08,0,0,0,.31-2.7v0a1.29,1.29,0,0,1,2.19-.88A4.44,4.44,0,0,1,396.92,219.13Z"/></g><path class="cls-50" d="M390.71,216.35a1.34,1.34,0,0,0-1,.44,3.39,3.39,0,0,0-1,1.75A3.5,3.5,0,0,0,389,221a.51.51,0,0,0,.92-.44.41.41,0,0,0,0-.19c0-.05,0-.09,0-.14h0V220c0-.15,0-.3.05-.44v0l0-.08a1.4,1.4,0,0,1,.14-.4s0-.07,0-.11v0a2.92,2.92,0,0,1,.24-.37l.12-.16s0,0,0,0h0l.09-.1c.26-.25.59-.45.69-.83A.82.82,0,0,0,390.71,216.35Z"/><path class="cls-48" d="M396.34,218.73a.88.88,0,0,0-1-.19,1.2,1.2,0,0,0-.59.73,2.88,2.88,0,0,0-.11.78c0,.11,0,.23,0,.34a1.07,1.07,0,0,1-.07.33,2.19,2.19,0,0,1-.12.33l0,.07v0h0l-.1.17a3.28,3.28,0,0,1-.42.52,1,1,0,0,0-.33,1,.78.78,0,0,0,.88.59,1.27,1.27,0,0,0,.54-.25h0a3.3,3.3,0,0,0,1.83-2.8A2.3,2.3,0,0,0,396.34,218.73Z"/><path class="cls-48" d="M451.45,217a4.1,4.1,0,0,1-1.92,5.49,4.06,4.06,0,0,1-4-.26,4,4,0,0,1-1.48-1.67,4.11,4.11,0,0,1,1.93-5.5,4.13,4.13,0,0,1,5.49,1.94Z"/><g class="cls-49"><path class="cls-23" d="M451.64,218.21a3.91,3.91,0,0,1-6,3.89,3,3,0,0,0,1.45-.73,4.24,4.24,0,0,0,1.18-2.1,10.35,10.35,0,0,0,.28-2.43v0a1.16,1.16,0,0,1,2-.79A3.94,3.94,0,0,1,451.64,218.21Z"/></g><path class="cls-50" d="M446.05,215.7a1.21,1.21,0,0,0-.88.4,3.1,3.1,0,0,0-.94,1.58,3.15,3.15,0,0,0,.29,2.21.46.46,0,0,0,.61.22.48.48,0,0,0,.22-.62.91.91,0,0,0,0-.17.49.49,0,0,1,0-.12h0a1.2,1.2,0,0,1,0-.19,2.85,2.85,0,0,1,0-.4v0a.19.19,0,0,0,0-.08l.06-.19s0-.11.07-.17l0-.09v0a3.13,3.13,0,0,1,.21-.34l.12-.14h0l.08-.09c.24-.23.53-.41.63-.75A.74.74,0,0,0,446.05,215.7Z"/><path class="cls-48" d="M451.13,217.85a.79.79,0,0,0-.93-.18,1.09,1.09,0,0,0-.53.66,2.42,2.42,0,0,0-.1.7c0,.11,0,.21,0,.32a1.36,1.36,0,0,1-.06.29c0,.1-.07.2-.11.3l0,.07h0l-.09.16a2.68,2.68,0,0,1-.38.47.93.93,0,0,0-.29.87.7.7,0,0,0,.79.53,1.29,1.29,0,0,0,.49-.23h0a3,3,0,0,0,1.65-2.52A2.06,2.06,0,0,0,451.13,217.85Z"/><path class="cls-48" d="M418.07,238a4.58,4.58,0,1,1-2.8-2.4A4.58,4.58,0,0,1,418.07,238Z"/><g class="cls-49"><path class="cls-23" d="M418.28,239.34a4.3,4.3,0,0,1-1.52,4,4.36,4.36,0,0,1-5.14.28,3.3,3.3,0,0,0,1.6-.81,4.82,4.82,0,0,0,1.32-2.33,11.59,11.59,0,0,0,.31-2.7v0a1.28,1.28,0,0,1,2.18-.88A4.44,4.44,0,0,1,418.28,239.34Z"/></g><path class="cls-50" d="M412.08,236.56a1.36,1.36,0,0,0-1,.44,3.44,3.44,0,0,0-1,1.75,3.5,3.5,0,0,0,.31,2.46.52.52,0,0,0,.69.24.53.53,0,0,0,.24-.68,1.21,1.21,0,0,0,0-.19c0-.05,0-.09,0-.14h0v-.21a3.32,3.32,0,0,1,.06-.44v-.05a.19.19,0,0,1,0-.08,1.42,1.42,0,0,1,.07-.22,1.34,1.34,0,0,1,.07-.18s0-.07,0-.11v0l0,0a2.85,2.85,0,0,1,.23-.37c0-.06.09-.11.13-.16h0l.09-.1c.26-.25.59-.45.7-.83A.82.82,0,0,0,412.08,236.56Z"/><path class="cls-48" d="M417.71,238.94a.89.89,0,0,0-1-.19,1.19,1.19,0,0,0-.59.73,2.88,2.88,0,0,0-.11.78c0,.11,0,.23,0,.34a1.5,1.5,0,0,1-.06.33,3.24,3.24,0,0,1-.13.33l0,.08h0a1,1,0,0,1-.1.17,2.8,2.8,0,0,1-.42.52,1,1,0,0,0-.32,1,.78.78,0,0,0,.88.59,1.33,1.33,0,0,0,.54-.25h0a3.3,3.3,0,0,0,1.83-2.8A2.34,2.34,0,0,0,417.71,238.94Z"/><path class="cls-48" d="M429.93,233.55a4,4,0,0,1-1.88,5.38,4,4,0,0,1-3.93-.26,3.9,3.9,0,0,1-1.45-1.63,4,4,0,0,1,1.89-5.38,3.91,3.91,0,0,1,2.9-.22A4,4,0,0,1,429.93,233.55Z"/><g class="cls-49"><path class="cls-23" d="M430.11,234.71a3.82,3.82,0,0,1-5.86,3.81,2.91,2.91,0,0,0,1.41-.71,4.2,4.2,0,0,0,1.16-2.06,10.44,10.44,0,0,0,.27-2.37v0a1.13,1.13,0,0,1,1.92-.78A3.9,3.9,0,0,1,430.11,234.71Z"/></g><path class="cls-50" d="M424.65,232.26a1.18,1.18,0,0,0-.87.39,3,3,0,0,0-.91,1.54,3.13,3.13,0,0,0,.27,2.17.47.47,0,0,0,.61.21.46.46,0,0,0,.21-.6.91.91,0,0,0,0-.17.37.37,0,0,1,0-.11h0a1.2,1.2,0,0,1,0-.19,2.58,2.58,0,0,1,0-.39v0a.24.24,0,0,0,0-.08l.06-.18a1.22,1.22,0,0,1,.07-.17.36.36,0,0,1,0-.09v0l.21-.33a1.34,1.34,0,0,0,.11-.14h0l.08-.09c.23-.22.52-.4.61-.73A.73.73,0,0,0,424.65,232.26Z"/><path class="cls-48" d="M429.61,234.36a.78.78,0,0,0-.91-.17,1.13,1.13,0,0,0-.52.65,2.6,2.6,0,0,0-.1.68c0,.1,0,.21,0,.31a1.15,1.15,0,0,1-.06.28c0,.1-.06.2-.1.3l0,.06h0l-.09.16a3.42,3.42,0,0,1-.37.45.94.94,0,0,0-.29.85.7.7,0,0,0,.78.52,1.3,1.3,0,0,0,.48-.22h0a2.91,2.91,0,0,0,1.61-2.47A2,2,0,0,0,429.61,234.36Z"/><path class="cls-48" d="M433.7,200a3.08,3.08,0,1,1-4.11-1.45,3,3,0,0,1,2.22-.17A3.08,3.08,0,0,1,433.7,200Z"/><g class="cls-49"><path class="cls-23" d="M433.84,200.88a2.88,2.88,0,0,1-1,2.72,2.94,2.94,0,0,1-3.47.19,2.22,2.22,0,0,0,1.08-.54,3.24,3.24,0,0,0,.89-1.58,7.29,7.29,0,0,0,.21-1.81v0a.87.87,0,0,1,1.47-.59A2.94,2.94,0,0,1,433.84,200.88Z"/></g><path class="cls-50" d="M429.66,199a.89.89,0,0,0-.66.3,2.31,2.31,0,0,0-.7,1.18,2.39,2.39,0,0,0,.21,1.66.34.34,0,1,0,.62-.3.53.53,0,0,0,0-.13s0-.06,0-.09h0v-.15c0-.1,0-.2,0-.3h0v0l0,0c0-.05,0-.1,0-.15a.61.61,0,0,0,0-.12l0-.07v0h0l.16-.26.08-.1s0,0,0,0h0l.07-.07c.17-.17.39-.31.46-.56A.55.55,0,0,0,429.66,199Z"/><path class="cls-48" d="M433.46,200.61a.59.59,0,0,0-.7-.13.88.88,0,0,0-.4.49,2.33,2.33,0,0,0-.07.53,1.79,1.79,0,0,1,0,.23.72.72,0,0,1,0,.22,2.09,2.09,0,0,1-.08.23l0,0h0a.75.75,0,0,1-.07.12,1.64,1.64,0,0,1-.28.34.72.72,0,0,0-.22.66.52.52,0,0,0,.59.39.93.93,0,0,0,.37-.16h0a2.2,2.2,0,0,0,1.23-1.89A1.53,1.53,0,0,0,433.46,200.61Z"/><path class="cls-48" d="M393.63,228a2.91,2.91,0,0,1-4.2,3.7,2.9,2.9,0,0,1,.32-5.07,2.85,2.85,0,0,1,2.1-.16A2.89,2.89,0,0,1,393.63,228Z"/><g class="cls-49"><path class="cls-23" d="M393.77,228.82a2.77,2.77,0,0,1-4.25,2.75,2,2,0,0,0,1-.52,2.93,2.93,0,0,0,.84-1.48,7.1,7.1,0,0,0,.2-1.72h0a.82.82,0,0,1,1.39-.56A2.79,2.79,0,0,1,393.77,228.82Z"/></g><path class="cls-50" d="M389.82,227.05a.84.84,0,0,0-.63.28,2.15,2.15,0,0,0-.66,1.11,2.25,2.25,0,0,0,.2,1.57.32.32,0,0,0,.43.15.33.33,0,0,0,.16-.43.24.24,0,0,0,0-.12.28.28,0,0,0,0-.09h0a.57.57,0,0,1,0-.13,1.27,1.27,0,0,1,0-.28v0h0s0,0,0-.06l0-.13,0-.12,0-.07h0l.15-.24.08-.1h0l.06-.06c.17-.16.38-.29.44-.52A.52.52,0,0,0,389.82,227.05Z"/><path class="cls-48" d="M393.4,228.56a.55.55,0,0,0-.65-.12.75.75,0,0,0-.38.47,2,2,0,0,0-.07.49,1.5,1.5,0,0,1,0,.22.71.71,0,0,1,0,.21,1.8,1.8,0,0,1-.08.21l0,.05h0a.75.75,0,0,1-.07.12,3,3,0,0,1-.26.32.64.64,0,0,0-.21.62.5.5,0,0,0,.56.37.76.76,0,0,0,.34-.16h0a2.08,2.08,0,0,0,1.16-1.78A1.5,1.5,0,0,0,393.4,228.56Z"/><path class="cls-48" d="M431.72,223.27a2.9,2.9,0,0,1-1.36,3.88,2.93,2.93,0,0,1-3.89-1.36,2.92,2.92,0,0,1,1.37-3.89,2.85,2.85,0,0,1,2.1-.16A2.89,2.89,0,0,1,431.72,223.27Z"/><g class="cls-49"><path class="cls-23" d="M431.86,224.11a2.77,2.77,0,0,1-4.25,2.75,2,2,0,0,0,1-.52,2.93,2.93,0,0,0,.84-1.48,7.1,7.1,0,0,0,.2-1.72h0a.82.82,0,0,1,1.39-.56A2.79,2.79,0,0,1,431.86,224.11Z"/></g><path class="cls-50" d="M427.9,222.34a.84.84,0,0,0-.62.28,2.17,2.17,0,0,0-.67,1.11,2.25,2.25,0,0,0,.21,1.57.32.32,0,0,0,.43.15.33.33,0,0,0,.16-.43.48.48,0,0,0,0-.12.28.28,0,0,0,0-.09h0v-.13a2.36,2.36,0,0,1,0-.28v0h0l0-.06,0-.13.05-.12,0-.07h0a2.52,2.52,0,0,1,.15-.24l.08-.1h0l.06-.06c.16-.16.37-.29.44-.53A.52.52,0,0,0,427.9,222.34Z"/><path class="cls-48" d="M431.49,223.85a.55.55,0,0,0-.65-.12.75.75,0,0,0-.38.47,1.61,1.61,0,0,0-.07.49c0,.08,0,.15,0,.22a.71.71,0,0,1,0,.21,1.8,1.8,0,0,1-.08.21l0,0h0l-.07.12a2.17,2.17,0,0,1-.27.32.66.66,0,0,0-.2.62.49.49,0,0,0,.56.37.81.81,0,0,0,.34-.16h0a2.07,2.07,0,0,0,1.17-1.78A1.49,1.49,0,0,0,431.49,223.85Z"/></g><path class="cls-48" d="M429.93,191.24a75.81,75.81,0,0,1-46.45,23.22c-.05-.26-.1-.51-.14-.77.73-3.16,9.7-9.62,21.53-15.3,11.06-5.31,21.07-8.25,24.73-7.48Z"/><g class="cls-51"><path class="cls-40" d="M379.91,183.66,387,221.35a1.63,1.63,0,0,0,2.14,1.24l4.05-1.4a1.64,1.64,0,0,0,1.07-1.88l-7.85-37.62a1.63,1.63,0,0,0-2.22-1.18l-3.26,1.34A1.63,1.63,0,0,0,379.91,183.66Z"/></g><g class="cls-38"><path class="cls-40" d="M457.78,217.05c1.1,2.63-.65,5.53-2.42,7.77a80.45,80.45,0,0,1-60.86,29.71,5.38,5.38,0,0,1-5.25-4.15c-.34-1.44-.67-2.88-1-4.33.52-.12,1.05-.2,1.57-.29A109.82,109.82,0,0,0,426.58,233c7.15-4,16.45-17.42,16.45-17.42l-48.61-50,7.57-4.07q14.44,14.22,28.88,28.45h0c.5.51,1,1,1.54,1.53q11.67,11.46,23.31,23A8.13,8.13,0,0,1,457.78,217.05Z"/></g><path class="cls-40" d="M407.19,157.57a8.48,8.48,0,0,1-.36,6.59c-1.42,2.9-4.34,4.7-7.1,6.36-3.74,2.24-7.49,4.5-11.42,6.36a54,54,0,0,1-5.38,2.25,14.73,14.73,0,0,1-7.59,1,8.79,8.79,0,0,1-7-9.08c.56-7.13,8.85-10.22,14.22-13.06,1.7-.89,3.42-1.84,5.18-2.72a32.14,32.14,0,0,1,8.5-3.09,10.92,10.92,0,0,1,6.4.56A8.54,8.54,0,0,1,407.19,157.57Z"/><g class="cls-51"><path class="cls-40" d="M380.23,172.8a7.69,7.69,0,0,0-1.78-.35,15.28,15.28,0,0,1-4.81-1.53,4.93,4.93,0,0,1-1.78-1.34,2.18,2.18,0,0,1-.4-2.1,5.59,5.59,0,0,0-1.82,5.61,5.36,5.36,0,0,0,3.28,4.13,8.42,8.42,0,0,0,6.64-.49,4.46,4.46,0,0,0,1.48-1,1.89,1.89,0,0,0,.45-1.68A2,2,0,0,0,380.23,172.8Z"/></g><g class="cls-38"><path class="cls-40" d="M407.19,157.57a8.48,8.48,0,0,1-.36,6.59c-1.42,2.9-4.34,4.7-7.1,6.36-3.74,2.24-7.49,4.5-11.42,6.36a2.86,2.86,0,0,1-1.09-1.49,4.25,4.25,0,0,1,1.16-3.76c1.74-2.15,4.28-3.7,5.42-6.23a7.26,7.26,0,0,0-1.28-7.59,8.08,8.08,0,0,0-4.74-2.53,32.14,32.14,0,0,1,8.5-3.09,10.92,10.92,0,0,1,6.4.56A8.54,8.54,0,0,1,407.19,157.57Z"/></g><path class="cls-14" d="M394.55,142.6c1.11,2.86,3.29,10.2,4.62,15-4.07,4.57-14,12.36-24.46,11.57a3,3,0,0,1-2.34-1.62l-.62-1.11c-1.73-3.08-3.79-6.56-5.28-9.32a6.88,6.88,0,0,1-.58-1.3,2.23,2.23,0,0,1-.08-.89,3.8,3.8,0,0,1,1.41-2.17,45.5,45.5,0,0,1,23-11.3c.61-.11,1.22-.2,1.83-.28a2.44,2.44,0,0,1,1.88.29A4.9,4.9,0,0,1,394.55,142.6Z"/><g class="cls-52"><path class="cls-14" d="M394.42,142.73c-.24.16-.48.32-.73.47l-.25.16c.19-.12-.08,0-.11.08a26.3,26.3,0,0,1-2.71,1.89l-.07,0,.06.21c.7,2,1.87,3.76,2.29,5.8a9.71,9.71,0,0,1-2.07,7.82,14.87,14.87,0,0,1-6.84,4.61,32,32,0,0,1-8.2,1.47,10.11,10.11,0,0,0-2.89.48,3.69,3.69,0,0,0-1.15.67l.62,1.11a3,3,0,0,0,2.34,1.62c10.42.79,20.39-7,24.46-11.57-1.32-4.76-3.5-12.07-4.61-14.94Z"/></g><g class="cls-53"><path class="cls-14" d="M394.55,142.6a32.89,32.89,0,0,1-4,2.75,100.53,100.53,0,0,1-21.71,10,6.57,6.57,0,0,1-3,.43,2.23,2.23,0,0,1-.08-.89,3.8,3.8,0,0,1,1.41-2.17,45.53,45.53,0,0,1,24.87-11.58,2.44,2.44,0,0,1,1.88.29A4.9,4.9,0,0,1,394.55,142.6Z"/></g><path class="cls-26" d="M377,205.7a9.61,9.61,0,0,1-5.79-.27c-2.93-1.33-4.18-4.6-4.35-7.62v0a8.62,8.62,0,0,1,1.67-5.41c.62-.88,1.2-1.79,1.76-2.7,2.09-3.4,4.21-7.15,7.47-9.59a6.64,6.64,0,0,1,6-1.17,3.77,3.77,0,0,1,.66.26,7.24,7.24,0,0,1,3.63,3.65c3.5,7.43-2.5,15.11-7.59,19.94-1.05,1-2.15,2-3.27,2.95Z"/><g class="cls-35"><path class="cls-26" d="M371.18,205.43c-2.93-1.33-4.18-4.6-4.35-7.62v0a8.62,8.62,0,0,1,1.67-5.41c.62-.88,1.2-1.79,1.76-2.7,2.09-3.4,4.21-7.15,7.47-9.59a6.64,6.64,0,0,1,6-1.17,6.29,6.29,0,0,1,1,.66,7.54,7.54,0,0,1,2.1,2.72c3.51,7.43-2.5,15.11-7.58,19.95-1.36,1.29-2.77,2.57-4.25,3.74A7.52,7.52,0,0,1,371.18,205.43Z"/></g><g class="cls-35"><path class="cls-26" d="M371.84,205.69a5.32,5.32,0,0,1-.66-.26c-2.93-1.33-4.18-4.6-4.35-7.62v0a8.62,8.62,0,0,1,1.67-5.41c.62-.88,1.2-1.79,1.76-2.7,2.09-3.4,4.21-7.15,7.47-9.59a6.64,6.64,0,0,1,6-1.17,3.77,3.77,0,0,1,.66.26,4.63,4.63,0,0,1,.3.4,7.3,7.3,0,0,1,.67,1.17c3.51,7.43-2.5,15.11-7.58,19.94A53.74,53.74,0,0,1,371.84,205.69Z"/></g><path class="cls-54" d="M429,425.68c-.62-.58-6.93,1.14-7.77,1.26a388,388,0,0,1-66.56,4,416.43,416.43,0,0,1-41.78-3.61c-13.7-1.72-27.62-3.38-40.67-8.1-7.08-2.55-13.74-7.13-21.53-7-5.39.06-10.45,2.43-15.49,4.34-13.79,5.22-28.43,7.09-43,8.78-27.66,3.2-54.48,5.62-82.48,3.81-9.46-.62-18.9-1.52-28.28-2.79-1.19-.16-9.6-2.41-10.49-1.61L77.21,419c2,.42,3.76.86,4.26.93q14.07,1.89,28.28,2.78c28,1.81,54.82-.59,82.48-3.8,14.56-1.7,29.2-3.57,43-8.78,5-1.91,10.1-4.28,15.49-4.34,7.79-.09,14.45,4.5,21.53,7.06,13.05,4.7,27,6.36,40.67,8.09,13.92,1.75,27.7,3.24,41.78,3.62a390.07,390.07,0,0,0,66.56-4c.24,0,1-.22,1.88-.43Z"/><path class="cls-55" d="M429,423.13c-.62-.58-6.93,1.14-7.77,1.26a389.05,389.05,0,0,1-66.56,4,416.43,416.43,0,0,1-41.78-3.61c-13.7-1.72-27.62-3.38-40.67-8.1-7.08-2.55-13.74-7.14-21.53-7.05-5.39.06-10.45,2.43-15.49,4.34-13.79,5.21-28.43,7.09-43,8.78-27.66,3.2-54.48,5.62-82.48,3.81-9.46-.62-18.9-1.52-28.28-2.79-1.19-.16-9.6-2.41-10.49-1.61l6.23-5.71c2,.42,3.76.86,4.26.93q14.07,1.89,28.28,2.78c28,1.81,54.82-.59,82.48-3.81,14.56-1.69,29.2-3.56,43-8.77,5-1.91,10.1-4.28,15.49-4.35,7.79-.08,14.45,4.51,21.53,7.07,13.05,4.7,27,6.36,40.67,8.09,13.92,1.75,27.7,3.24,41.78,3.61a388,388,0,0,0,66.56-4c.24,0,1-.21,1.88-.42Z"/><path class="cls-23" d="M378.62,368.86s-12.09,1.42-64-6.11q-3.53-.51-7-1.23c-10.24-2.13-48.54-8.29-58,16.2-9.35-24.44-48.41-18.34-58.82-16.24q-3.53.72-7.1,1.21c-52.52,7.41-64.77,6-64.77,6L81.27,392.38,103,412l62.07-7s82.64-2.22,83.78-2.22c.22,0,.46-.66.7-1.72.29,1.47.57,2.44.84,2.44,1.13,0,82.74,2.25,82.74,2.25l61.3,7.15,24.45-19.94Z"/><path class="cls-56" d="M378.62,368.86s-12.09,1.42-64-6.11q-3.53-.51-7-1.23c-10.24-2.13-48.54-8.29-58,16.2-9.35-24.44-48.41-18.34-58.82-16.24q-3.53.72-7.1,1.21c-52.52,7.41-64.77,6-64.77,6L81.27,392.38,103,412l62.07-7s82.64-2.22,83.78-2.22c.22,0,.46-.66.7-1.72.29,1.47.57,2.44.84,2.44,1.13,0,82.74,2.25,82.74,2.25l61.3,7.15,24.45-19.94Z"/><path class="cls-23" d="M424.42,419.41l1,.91c-1.83.38-3.75.88-4.19.95a389,389,0,0,1-66.56,4,417.39,417.39,0,0,1-41.79-3.61c-13.69-1.72-27.6-3.38-40.66-8.09-6.63-2.39-12.89-6.58-20.07-7-.48,0-1,0-1.46,0h-.27c-5.29.13-10.25,2.45-15.21,4.33-13.79,5.22-28.44,7.09-43,8.78-27.66,3.21-54.48,5.62-82.48,3.81-9.46-.61-18.89-1.52-28.28-2.79-.68-.09-3.75-.88-6.4-1.38-1.95-.35-3.68-.56-4.07-.23l2.42-2.21c1.07-1,2.4-2.21,3.77-3.46l.93-.87,6.58-6-.44-.36-4.51-3.71,7.61-1.48-1.24-1.74-4.85-6.77c50.65,8.51,99-8.88,99-8.88,56.66-20.81,69.12,7.41,70.95,12.82,2.44-6.71,15.72-32.89,69.85-12.42,0,0,47.77,17.67,97.79,9l-4.74,6.81-1.28,1.84,7.52,1.51-4.2,3.56-.69.58,6.48,6.12.66.62,3.95,3.73Z"/><path class="cls-56" d="M426.57,417.69,422.62,414l-.66-.62-6.48-6.12.69-.58,4.2-3.56-7.52-1.51,1.28-1.84c-47.35,4-89.21-10.73-89.21-10.73-57.05-20.46-71.05,5.71-73.63,12.42-1.92-5.41-15-33.63-74.78-12.82,0,0-42.42,14.47-90.39,10.55l1.24,1.74-7.61,1.48,4.51,3.71.44.36-6.58,6-.93.87c-1.37,1.25-2.7,2.46-3.77,3.46L71,419c.39-.33,2.12-.12,4.07.23,2.65.5,5.72,1.29,6.4,1.38,9.39,1.27,18.82,2.18,28.28,2.79,28,1.81,54.82-.6,82.48-3.81,14.56-1.69,29.21-3.56,43-8.78,5-1.88,9.92-4.2,15.21-4.33l0,.06a2.86,2.86,0,0,1,1.95-.14.48.48,0,0,1,.23.16c7,.59,13.12,4.64,19.6,7,13.06,4.71,27,6.37,40.66,8.09a417.39,417.39,0,0,0,41.79,3.61,389,389,0,0,0,66.56-4c.44-.07,2.36-.57,4.19-.95l-1-.91Z"/><path class="cls-56" d="M250.44,406.49c-5.29.13-10.25,2.45-15.21,4.33-13.79,5.22-28.44,7.09-43,8.78-27.66,3.21-54.48,5.62-82.48,3.81-9.46-.61-18.89-1.52-28.28-2.79-.68-.09-3.75-.88-6.4-1.38l.7-.61-2.35-1.83c1.07-1,2.4-2.21,3.77-3.46l1.39-.26-.46-.61,6.58-6-.44-.36c48.73,4.46,92.25-10.38,92.25-10.38C230.71,376.81,246.54,398.31,250.44,406.49Z"/><path class="cls-56" d="M424.42,419.41l1,.91c-1.83.38-3.75.88-4.19.95a389,389,0,0,1-66.56,4,417.39,417.39,0,0,1-41.79-3.61c-13.69-1.72-27.6-3.38-40.66-8.09-6.63-2.39-12.89-6.58-20.07-7,4.28-8.69,20.36-29.22,72.75-10.42,0,0,43.07,15.12,91.25,10.54l-.69.58,6.48,6.12-.32.43,1,.19,3.95,3.73Z"/><path class="cls-56" d="M250.46,381.33l.24,10.26s10.45-26.69,62.92-13.93a27.24,27.24,0,0,1,4,1.35c6.9,2.88,33.21,12.57,69.1,9.72l-18.37-17.19s-29.36.24-57.29-7.16C311.09,364.38,260.49,351,250.46,381.33Z"/><path class="cls-56" d="M250.7,381.33l-.24,10.26S240,364.9,187.54,377.66a27.24,27.24,0,0,0-4,1.35c-6.9,2.88-33.21,12.57-69.1,9.72l18.38-17.19s29.36.24,57.29-7.16C190.08,364.38,240.68,351,250.7,381.33Z"/><path class="cls-26" d="M465.69,431.72a2.82,2.82,0,0,1,0,2.06,2.48,2.48,0,0,1-.76,1.08l0,0-.1.08a2.74,2.74,0,0,1-4.3-1.22l-1-2.79-.46-1.31-.2-.55-4.5,2.78,1.91,5.72a2.8,2.8,0,0,1-.9,3.07,2.72,2.72,0,0,1-.61.38l-.35.15-1.21.51a2.79,2.79,0,0,1-3.69-1.87L448,434.59l-.24-.87,0-.11L441.2,436l1.12,5.47a3,3,0,0,1-.59,2.41,3.41,3.41,0,0,1-.42.43,2.92,2.92,0,0,1-1.56.65l-.09,0a5.72,5.72,0,0,1-6.16-4.46l-.6-2.79h0l-4.43.65-1.48.22a1.07,1.07,0,0,0-.89,1.16.07.07,0,0,1,0,.06,3.93,3.93,0,0,1-1.62,3.61,3.85,3.85,0,0,1-3,.6.23.23,0,0,1-.11,0,3.78,3.78,0,0,1-3-3.73v-4.19c-.65,0-1.27,0-1.91,0-31.29,0-56.67-20-56.67-44.75,0-19.17,15.26-35.53,36.71-41.91l.1,0a67.67,67.67,0,0,1,12.05-2.4,70.7,70.7,0,0,1,30.77,3.41c.76.27,1.53.54,2.3.87,18.64,7.3,31.43,22.5,31.43,40.06,0,10.58-4.66,20.3-12.44,28Z"/><path class="cls-57" d="M465.69,431.72a2.82,2.82,0,0,1,0,2.06,2.48,2.48,0,0,1-.76,1.08,2.73,2.73,0,0,1-2.23-1.8l-1.19-3.33-.47-1.31-2,1.24-.2-.55-4.5,2.78,1.91,5.72a2.8,2.8,0,0,1-.9,3.07,2.72,2.72,0,0,1-.61.38l-.35.15a2.79,2.79,0,0,1-2.69-2l-1.47-5.37-.24-.87-2.17.8,0-.11L441.2,436l1.12,5.47a3,3,0,0,1-.59,2.41,3.41,3.41,0,0,1-.42.43,5.7,5.7,0,0,1-5.6-4.49l-.52-2.43-.08-.37-5.91.87a1.14,1.14,0,0,0-.73.48l-1.48.22a1.07,1.07,0,0,0-.89,1.16.07.07,0,0,1,0,.06,3.93,3.93,0,0,1-1.62,3.61,3.88,3.88,0,0,1-.82-.09.18.18,0,0,1-.1,0,3.79,3.79,0,0,1-3-3.74v-4.19l-.87,0h-1c-31.29,0-56.67-20-56.67-44.75,0-18.51,14.23-34.4,34.51-41.22l.1,0A69.52,69.52,0,0,1,418.68,346h1a71.08,71.08,0,0,0-11.05,1.11,70.7,70.7,0,0,1,30.77,3.41c.76.27,1.53.54,2.3.87,18.64,7.3,31.43,22.5,31.43,40.06,0,10.58-4.66,20.3-12.44,28Z"/><path class="cls-57" d="M465.69,431.72a2.82,2.82,0,0,1,0,2.06,2.76,2.76,0,0,1-.39-.72l-1.66-4.64-2.13,1.31-2,1.24-.46-1.31-.2-.55-4.5,2.78,1.91,5.72a2.8,2.8,0,0,1-.9,3.07,2.74,2.74,0,0,1-1.06-1.52l-1.7-6.24-2.36.87-2.17.8-.24-.87,0-.11L441.2,436l1.12,5.47a3,3,0,0,1-.59,2.41,5.65,5.65,0,0,1-3.42-4.06l-.6-2.8-2.52.37-2.29.34h0l-4.43.65-1.48.22a1.07,1.07,0,0,0-.89,1.16.07.07,0,0,1,0,.06,3.81,3.81,0,0,1-1,3.08,3.77,3.77,0,0,1-1.91-3.32v-4.19c-.64,0-1.27.05-1.91.05h-1.56c-30.57-.66-55.11-20.44-55.11-44.74,0-21.3,18.84-39.13,44.06-43.65a70.7,70.7,0,0,1,30.77,3.41c.76.27,1.53.54,2.3.87,18.64,7.3,31.43,22.5,31.43,40.06,0,10.58-4.66,20.3-12.44,28Z"/><path class="cls-4" d="M446.72,419.78s-1.56.6-3.76,1.26c-3.07.89-7.38,1.91-10.41,1.5l3.8-15.89Z"/><path class="cls-58" d="M446.72,419.78s-1.56.6-3.76,1.26c-3.07.89-7.38,1.91-10.41,1.5l3.8-15.89Z"/><path class="cls-4" d="M456.36,406.92a4.58,4.58,0,0,1-1.2.25c-4.3.48-9.52-3.57-12.45-9.89-3.17-6.86-2.53-14,1.33-16.53a4.5,4.5,0,0,1,.75-.41S462.12,390.44,456.36,406.92Z"/><path class="cls-58" d="M456.36,406.92a4.58,4.58,0,0,1-1.2.25c-4.3.48-9.52-3.57-12.45-9.89-3.17-6.86-2.53-14,1.33-16.53a4.5,4.5,0,0,1,.75-.41S462.12,390.44,456.36,406.92Z"/><path class="cls-4" d="M457,406.69a4.92,4.92,0,0,1-.6.23c5.76-16.48-11.57-26.58-11.57-26.58a5.12,5.12,0,0,1,1.82-.48c.21,0,.44,0,.64,0a8.37,8.37,0,0,1,3.2.7,12.61,12.61,0,0,1,1.62.85c.27.17.53.36.8.54.52.4,1,.83,1.56,1.31a21.07,21.07,0,0,1,4.6,6.53C462.39,397,461.46,404.6,457,406.69Z"/><path class="cls-4" d="M418.06,385.11c1.47,2.53,3,7.4,1.1,15.2l-4.46,10.28a3.48,3.48,0,0,1-.44.27c-2.46,1.56-5,2-7.19,1-4.5-2.08-5.44-9.67-2.08-16.95,2.78-6,7.59-9.89,11.7-9.93a4.69,4.69,0,0,1,1.35.13Z"/><path class="cls-58" d="M418.06,385.11a16.78,16.78,0,0,1,2,8.95,24.57,24.57,0,0,1-2.09,9.08l-3.23,7.45a3.48,3.48,0,0,1-.44.27c-2.46,1.56-5,2-7.19,1-4.5-2.08-5.44-9.67-2.08-16.95,2.78-6,7.59-9.89,11.7-9.93a4.69,4.69,0,0,1,1.35.13Z"/><path class="cls-4" d="M421.31,402.44a16.72,16.72,0,0,1-1.16,2.18,6.1,6.1,0,0,1-.47.77c-.17.27-.34.52-.52.76s-.46.63-.69.92-.54.64-.83.95a15,15,0,0,1-1.74,1.66,8.07,8.07,0,0,1-.89.68,2.06,2.06,0,0,1-.31.23l3.15-7.28a24.74,24.74,0,0,0,2.16-9,16.94,16.94,0,0,0-1.95-9.22,5.27,5.27,0,0,1,1.18.39C423.76,387.57,424.67,395.16,421.31,402.44Z"/><path class="cls-4" d="M446.72,419.78s-1.56.6-3.76,1.26c-2.78-3.25-7.59-10-7.59-10l1-4.36Z"/><g class="cls-59"><path class="cls-26" d="M403.36,362.43a5.41,5.41,0,0,0-2.67-4,9.69,9.69,0,0,0-4-1c-15.61-1.09-29.62,14.28-27.76,29.63a13,13,0,0,0,3.15,7.38c3.76,4,9.33,3,12.19-1.46,2.06-3.2,2.64-7.08,4.19-10.51,1.92-4.22,5.09-6.72,8.58-9.54C400.17,370.39,403.93,366.86,403.36,362.43Z"/></g><path class="cls-21" d="M450.53,389.1h0a15.31,15.31,0,0,0,6.05,6h0a15.18,15.18,0,0,0-6.05,6.05h0a15.18,15.18,0,0,0-6-6.05h0a15.31,15.31,0,0,0,6-6Z"/><path class="cls-21" d="M412.12,392.4h0a15.31,15.31,0,0,0,6.05,6.05h0a15.18,15.18,0,0,0-6.05,6.05h0a15.06,15.06,0,0,0-6.05-6.05h0a15.18,15.18,0,0,0,6.05-6.05Z"/><path class="cls-11" d="M142.09,31.49a5.59,5.59,0,0,1,.45.52l8,10.3-12,12.06-10.34-8a6.35,6.35,0,0,1-.61-.54,5.66,5.66,0,0,1,.06-7.94l6.4-6.43A5.66,5.66,0,0,1,142.09,31.49Z"/><path class="cls-11" d="M142.09,31.49A23,23,0,0,1,136.36,40c-3,3-6.27,5.12-8.76,5.83a5.66,5.66,0,0,1,.06-7.94l6.4-6.43A5.66,5.66,0,0,1,142.09,31.49Z"/><path class="cls-60" d="M142.09,31.49A23,23,0,0,1,136.36,40c-3,3-6.27,5.12-8.76,5.83a5.66,5.66,0,0,1,.06-7.94l6.4-6.43A5.66,5.66,0,0,1,142.09,31.49Z"/><g class="cls-53"><path class="cls-11" d="M142.09,31.49a5.47,5.47,0,0,1,.45.51l8,10.31-12,12.06-2.53-2-1.39-1.07a6,6,0,0,1,1.27-1.6c1.4-1.23,3.16-1.94,4.63-3.06a5,5,0,0,0,1.89-2.37,5.57,5.57,0,0,0-.31-3.57A11.78,11.78,0,0,0,138,35.1a8.6,8.6,0,0,0-5.93-1.64l2-2,.4-.37A5.66,5.66,0,0,1,142.09,31.49Z"/></g><g class="cls-53"><path class="cls-11" d="M142.09,31.49a5.47,5.47,0,0,1,.45.51l8,10.31-12,12.06-2.53-2a6.87,6.87,0,0,1,.94-1c1.73-1.52,3.93-2.4,5.77-3.79a6.43,6.43,0,0,0,2.35-3,6.94,6.94,0,0,0-.38-4.46,14.71,14.71,0,0,0-5.09-7,11.12,11.12,0,0,0-5.14-2A5.66,5.66,0,0,1,142.09,31.49Z"/></g><path class="cls-26" d="M208,60.08c13.31,12.5,5.64,33.61-7,45.55a37.85,37.85,0,0,1-8.76,6.3,32.86,32.86,0,0,1-3.9,1.7,30.28,30.28,0,0,1-17.71,1.26,24.6,24.6,0,0,1-11-6,23.7,23.7,0,0,1-3.87-4.71,28.29,28.29,0,0,1-3.8-10h0c-.06-.34-.12-.68-.17-1a22.39,22.39,0,0,1-.23-2.3c-.07-1.29,0-2.58,0-3.87.19-4.6.92-9.22.29-13.79s-3.25-8.87-6.39-12.2l-6.61-7,11.23-11.28,7.08,6.54c6,5.53,13.35,5.3,20.76,3.92a42.6,42.6,0,0,1,8.35-.74,31.67,31.67,0,0,1,3.24.14c.32,0,.64,0,.95.08a36.16,36.16,0,0,1,7.75,1.67A26.68,26.68,0,0,1,208,60.08Z"/><path class="cls-44" d="M206.66,60.69c12.79,12,5.41,32.26-6.68,43.73a36.49,36.49,0,0,1-8.41,6A32.76,32.76,0,0,1,180,113.92a25.68,25.68,0,0,1-14.26-2.52,23.36,23.36,0,0,1-9.19-8.35,27,27,0,0,1-3.64-9.55h0c-.05-.33-.11-.65-.16-1a19,19,0,0,1-.2-2c3.78-1.86,11.59-8.32,19.93-16.7l.65-.64c8.22-8.34,14.47-16,16.09-19.63l.65.07.26,0a34.17,34.17,0,0,1,7.18,1.56A25.63,25.63,0,0,1,206.66,60.69Z"/><path class="cls-23" d="M189.18,53.56c-1.66,3.68-8.2,11.7-16.74,20.27-8.34,8.38-16.15,14.84-19.93,16.7a1.77,1.77,0,0,1,0-.23v0a12.11,12.11,0,0,1,2.63-8.12,167.84,167.84,0,0,1,12.15-13.46,160,160,0,0,1,14.46-13,10.31,10.31,0,0,1,7.16-2.11h.29Z"/><path class="cls-61" d="M189.18,53.56c-1.66,3.68-8.2,11.7-16.74,20.27-8.34,8.38-16.15,14.84-19.93,16.7a1.77,1.77,0,0,1,0-.23v0a12.11,12.11,0,0,1,2.63-8.12,167.84,167.84,0,0,1,12.15-13.46,160,160,0,0,1,14.46-13,10.31,10.31,0,0,1,7.16-2.11h.29Z"/><g class="cls-15"><path class="cls-23" d="M206.66,60.69c12.79,12,5.41,32.26-6.68,43.73a36.49,36.49,0,0,1-8.41,6A32.76,32.76,0,0,1,180,113.92a10.49,10.49,0,0,1-1.74-6.12,11.18,11.18,0,0,1,10.25-10.35,3.18,3.18,0,0,0,2.42-.71,1.87,1.87,0,0,0-.66-2.62,4.7,4.7,0,0,0-3-.44,8,8,0,0,1-3,0c-2.09-.64-3.05-3.2-2.66-5.35s1.79-3.94,3.14-5.65l6.09-7.7a2.22,2.22,0,0,0,.6-1.2c0-1-1.35-1.51-2.24-1.06A4.5,4.5,0,0,0,187.37,75a4.17,4.17,0,0,1-1.83,2.25c-1.49.64-3.23-.74-3.5-2.33a6.33,6.33,0,0,1,1.41-4.49c1.44-2.07,3.3-3.84,4.82-5.86a10.71,10.71,0,0,0,2.54-7c-.09-1.28-.53-2.63-.72-3.92a34.17,34.17,0,0,1,7.18,1.56A25.63,25.63,0,0,1,206.66,60.69Z"/><path class="cls-23" d="M172.84,78.77A1.67,1.67,0,0,0,174.48,80a14.84,14.84,0,0,0,2.2-.26,2.12,2.12,0,0,1,2,.7c.55.8.08,1.89-.48,2.68a12.81,12.81,0,0,1-3.67,3.44c-1,.64-2.26,1.34-2.3,2.53a2.28,2.28,0,0,0,1.36,2,11,11,0,0,0,2.42.7,5.51,5.51,0,0,1,3.41,2.09,2.64,2.64,0,0,1-.6,3.61c-1.33.77-3.39,0-4.33,1.2-.73,1-.08,2.33.23,3.51.77,3-1,6.18-3.68,7.74a11.46,11.46,0,0,1-5.34,1.49,23.36,23.36,0,0,1-9.19-8.35,27,27,0,0,1-3.64-9.55h0c-.05-.33-.11-.65-.16-1a19,19,0,0,1-.2-2c3.78-1.86,11.59-8.32,19.93-16.7l.65-.64a2.94,2.94,0,0,1,.82,3.31C173.54,77.27,172.72,77.92,172.84,78.77Z"/></g><path class="cls-37" d="M189.18,53.56c-1.66,3.68-8.2,11.7-16.74,20.27-8.34,8.38-16.15,14.84-19.93,16.7a1.77,1.77,0,0,1,0-.23,35.31,35.31,0,0,1,0-3.71c0-.33,0-.67.06-1,.22-4.08.78-8.19.22-12.24a21.9,21.9,0,0,0-6.14-11.71l-6.34-6.74,10.77-10.82,6.8,6.28c5.75,5.31,12.82,5.08,19.93,3.76a40.78,40.78,0,0,1,7-.71h1c1,0,2.09,0,3.11.14Z"/><g class="cls-28"><path class="cls-48" d="M164.73,86.86a4,4,0,1,1-5.6,0,4,4,0,0,1,5.6,0Z"/><g class="cls-49"><path class="cls-23" d="M165.28,87.88a3.69,3.69,0,0,1-.08,3.73,3.74,3.74,0,0,1-4.11,1.72,2.84,2.84,0,0,0,1.07-1.13,4.16,4.16,0,0,0,.41-2.28,9.63,9.63,0,0,0-.53-2.29v0a1.11,1.11,0,0,1,1.53-1.35A3.8,3.8,0,0,1,165.28,87.88Z"/></g><path class="cls-50" d="M159.41,87.4a1.11,1.11,0,0,0-.67.64,3.06,3.06,0,0,0-.35,1.73,3.1,3.1,0,0,0,1,1.92.46.46,0,0,0,.63,0,.45.45,0,0,0,0-.63.49.49,0,0,0-.05-.16.47.47,0,0,0-.05-.1h0l-.06-.18a2.45,2.45,0,0,1-.08-.37v0a.22.22,0,0,0,0-.08v-.37a.28.28,0,0,0,0-.09v0a2.33,2.33,0,0,1,.08-.38l.06-.17h0a.54.54,0,0,0,.05-.11,1.76,1.76,0,0,0,.33-.88A.7.7,0,0,0,159.41,87.4Z"/><path class="cls-48" d="M164.7,87.71a.76.76,0,0,0-.89.15,1,1,0,0,0-.28.76,2.58,2.58,0,0,0,.14.67l.08.29a1.55,1.55,0,0,1,0,.29c0,.1,0,.2,0,.31v.08h0a1.16,1.16,0,0,1,0,.18,2.15,2.15,0,0,1-.19.54.92.92,0,0,0,0,.88.67.67,0,0,0,.89.22,1,1,0,0,0,.37-.35h0a2.85,2.85,0,0,0,.69-2.82A2,2,0,0,0,164.7,87.71Z"/><path class="cls-48" d="M205,87.61a3.57,3.57,0,0,1,0,5,3.52,3.52,0,0,1-3.36.95,3.48,3.48,0,0,1-1.69-.94,3.57,3.57,0,1,1,5-5Z"/><g class="cls-49"><path class="cls-23" d="M205.53,88.52a3.33,3.33,0,0,1-.07,3.37,3.38,3.38,0,0,1-3.7,1.55,2.55,2.55,0,0,0,1-1,3.64,3.64,0,0,0,.37-2.06,9.2,9.2,0,0,0-.48-2.06h0A1,1,0,0,1,204,87.07,3.46,3.46,0,0,1,205.53,88.52Z"/></g><path class="cls-50" d="M200.25,88.09a1.1,1.1,0,0,0-.62.58,2.64,2.64,0,0,0-.3,1.56A2.7,2.7,0,0,0,200.2,92a.4.4,0,0,0,.56,0,.4.4,0,0,0,0-.57.37.37,0,0,0,0-.14,1,1,0,0,1,0-.1h0a.75.75,0,0,0,0-.16,3.38,3.38,0,0,1-.08-.34v0a.2.2,0,0,0,0-.07v-.33s0,0,0-.08v0c0-.11.05-.23.08-.34a.88.88,0,0,0,0-.15h0a1,1,0,0,1,0-.1,1.47,1.47,0,0,0,.29-.79A.63.63,0,0,0,200.25,88.09Z"/><path class="cls-48" d="M205,88.38a.68.68,0,0,0-.81.13,1,1,0,0,0-.24.69,2.13,2.13,0,0,0,.12.6c0,.09,0,.17.07.26a1.17,1.17,0,0,1,0,.26,2.72,2.72,0,0,1,0,.28v.06h0l0,.16a2.17,2.17,0,0,1-.18.49.8.8,0,0,0,0,.79.62.62,0,0,0,.81.21,1.15,1.15,0,0,0,.33-.33h0a2.58,2.58,0,0,0,.62-2.54A1.77,1.77,0,0,0,205,88.38Z"/><path class="cls-48" d="M189.35,98.41a3.48,3.48,0,1,1-2.62-1A3.48,3.48,0,0,1,189.35,98.41Z"/><g class="cls-49"><path class="cls-23" d="M189.84,99.3a3.27,3.27,0,0,1-.07,3.3,3.32,3.32,0,0,1-3.62,1.51,2.56,2.56,0,0,0,.94-1,3.6,3.6,0,0,0,.36-2,8.76,8.76,0,0,0-.47-2v0a1,1,0,0,1,1.35-1.19A3.37,3.37,0,0,1,189.84,99.3Z"/></g><path class="cls-50" d="M184.67,98.88a1,1,0,0,0-.6.57,2.65,2.65,0,0,0,.55,3.21.39.39,0,0,0,.56-.55.34.34,0,0,0-.05-.14.36.36,0,0,0,0-.09h0l-.06-.15a3.4,3.4,0,0,1-.07-.34h0v0a.17.17,0,0,1,0-.07c0-.06,0-.11,0-.17s0-.1,0-.15a.28.28,0,0,1,0-.09v0h0a1.87,1.87,0,0,1,.08-.34s0-.09,0-.14h0l0-.09a1.58,1.58,0,0,0,.29-.77A.63.63,0,0,0,184.67,98.88Z"/><path class="cls-48" d="M189.33,99.16a.67.67,0,0,0-.79.13.87.87,0,0,0-.24.67,2.36,2.36,0,0,0,.11.59,2.58,2.58,0,0,1,.08.26,2.42,2.42,0,0,1,0,.25,1.22,1.22,0,0,1,0,.27v.06h0a.8.8,0,0,1,0,.15,1.7,1.7,0,0,1-.17.48.83.83,0,0,0,0,.78.61.61,0,0,0,.79.19,1,1,0,0,0,.32-.31h0a2.54,2.54,0,0,0,.6-2.49A1.77,1.77,0,0,0,189.33,99.16Z"/><path class="cls-48" d="M192.44,59a2.67,2.67,0,0,1,0,3.78,2.63,2.63,0,0,1-2.51.7,2.55,2.55,0,0,1-1.27-.7A2.67,2.67,0,1,1,192.44,59Z"/><g class="cls-49"><path class="cls-23" d="M192.81,59.71A2.53,2.53,0,0,1,190,63.39a1.89,1.89,0,0,0,.72-.76,2.71,2.71,0,0,0,.27-1.54,6.87,6.87,0,0,0-.35-1.54h0a.75.75,0,0,1,1-.91A2.54,2.54,0,0,1,192.81,59.71Z"/></g><path class="cls-50" d="M188.86,59.39a.81.81,0,0,0-.46.43,2,2,0,0,0-.23,1.17,2,2,0,0,0,.65,1.3.3.3,0,0,0,.42,0,.29.29,0,0,0,0-.42.19.19,0,0,0,0-.1l0-.08h0a.56.56,0,0,1,0-.12,1.14,1.14,0,0,1-.06-.25v0h0V61a.13.13,0,0,1,0-.06v0h0a1.22,1.22,0,0,1,.06-.26l0-.11h0l0-.07a1.19,1.19,0,0,0,.22-.59A.47.47,0,0,0,188.86,59.39Z"/><path class="cls-48" d="M192.42,59.61a.5.5,0,0,0-.6.09.72.72,0,0,0-.19.52,2.39,2.39,0,0,0,.09.45l.06.2a.65.65,0,0,1,0,.19.74.74,0,0,1,0,.21v0h0a.5.5,0,0,0,0,.12,1.78,1.78,0,0,1-.14.37.62.62,0,0,0,0,.59.45.45,0,0,0,.6.15.71.71,0,0,0,.25-.24h0a1.91,1.91,0,0,0,.47-1.9A1.3,1.3,0,0,0,192.42,59.61Z"/><path class="cls-48" d="M162.62,97a2.52,2.52,0,0,1,0,3.57,2.54,2.54,0,0,1-3.57,0,2.53,2.53,0,0,1,0-3.57,2.48,2.48,0,0,1,1.66-.74A2.56,2.56,0,0,1,162.62,97Z"/><g class="cls-49"><path class="cls-23" d="M163,97.66a2.38,2.38,0,0,1,0,2.38,2.42,2.42,0,0,1-2.63,1.1,1.84,1.84,0,0,0,.69-.72,2.61,2.61,0,0,0,.25-1.46,5.64,5.64,0,0,0-.33-1.45h0a.71.71,0,0,1,1-.87A2.47,2.47,0,0,1,163,97.66Z"/></g><path class="cls-50" d="M159.24,97.36a.74.74,0,0,0-.44.41,1.94,1.94,0,0,0,.4,2.32.28.28,0,0,0,.4-.4.19.19,0,0,0,0-.1l0-.07h0s0-.08,0-.11a2,2,0,0,1-.05-.24h0V98.8s0,0,0,0h0a2,2,0,0,1,.05-.24l0-.1h0l0-.06a1.07,1.07,0,0,0,.21-.56A.45.45,0,0,0,159.24,97.36Z"/><path class="cls-48" d="M162.6,97.56a.49.49,0,0,0-.57.09.67.67,0,0,0-.17.49,1.42,1.42,0,0,0,.08.42l.06.19a.55.55,0,0,1,0,.18,1.34,1.34,0,0,1,0,.2v0h0l0,.11a1.2,1.2,0,0,1-.12.35.56.56,0,0,0,0,.56.43.43,0,0,0,.57.14.8.8,0,0,0,.23-.22h0a1.82,1.82,0,0,0,.44-1.8A1.28,1.28,0,0,0,162.6,97.56Z"/><path class="cls-48" d="M191.37,88.45a2.54,2.54,0,0,1,0,3.57,2.52,2.52,0,1,1,0-3.57Z"/><g class="cls-49"><path class="cls-23" d="M191.72,89.1a2.38,2.38,0,0,1-.05,2.38,2.41,2.41,0,0,1-2.62,1.1,1.89,1.89,0,0,0,.68-.72A2.62,2.62,0,0,0,190,90.4a6.31,6.31,0,0,0-.34-1.46h0a.71.71,0,0,1,1-.86A2.47,2.47,0,0,1,191.72,89.1Z"/></g><path class="cls-50" d="M188,88.8a.74.74,0,0,0-.43.4,1.91,1.91,0,0,0,.4,2.33.28.28,0,0,0,.4,0,.29.29,0,0,0,0-.4l0-.1,0-.07h0l0-.11a.86.86,0,0,1-.06-.23v0h0v-.35h0a1.05,1.05,0,0,1,.06-.24l0-.11h0l0-.06c.08-.19.22-.35.2-.56A.44.44,0,0,0,188,88.8Z"/><path class="cls-48" d="M191.35,89a.47.47,0,0,0-.57.09.68.68,0,0,0-.18.49,2.1,2.1,0,0,0,.09.42,1.33,1.33,0,0,1,.05.19,1.13,1.13,0,0,1,0,.18,1.41,1.41,0,0,1,0,.2v0h0s0,.08,0,.11a1.59,1.59,0,0,1-.13.35.59.59,0,0,0,0,.56.43.43,0,0,0,.57.14.63.63,0,0,0,.23-.23h0a1.81,1.81,0,0,0,.43-1.79A1.23,1.23,0,0,0,191.35,89Z"/></g><g class="cls-51"><path class="cls-26" d="M148.19,57.54l0,0a2.24,2.24,0,0,0-.24,3.11c1.59,1.91,4,5.05,4.55,7a44.43,44.43,0,0,1,1.1,8.93,72.1,72.1,0,0,0,4.34,21.6,2.24,2.24,0,0,0,3.64.82L164,96.65a2.26,2.26,0,0,0,.18-3c-2.48-3.23-3.77-7.32-4.52-11.37-.87-4.72-1.13-9.55-2.38-14.19-1.07-4-3-7.93-6.14-10.55A2.26,2.26,0,0,0,148.19,57.54Z"/></g><g class="cls-38"><path class="cls-26" d="M208,60.08c13.31,12.5,5.64,33.61-7,45.55a37.85,37.85,0,0,1-8.76,6.3,32.86,32.86,0,0,1-3.9,1.7,30.28,30.28,0,0,1-17.71,1.26,3.43,3.43,0,0,1,.07-.56,6.84,6.84,0,0,1,2.52-3.53c4.7-4.07,10.28-7,15.5-10.36s10.23-7.51,13-13.1,2.66-12.93-1.6-17.47c-3.21-3.42-8.11-4.69-12.79-5s-9.42,0-14-.81c-6.08-1.11-11.63-4.31-16.36-8.31a84,84,0,0,1-9.73-10l2.88-2.89,7.08,6.54c6,5.53,13.35,5.3,20.76,3.92a42.6,42.6,0,0,1,8.35-.74,31.67,31.67,0,0,1,3.24.14c.32,0,.64,0,.95.08a36.16,36.16,0,0,1,7.75,1.67A26.68,26.68,0,0,1,208,60.08Z"/></g><path class="cls-26" d="M152.44,39.67l3,3a1.82,1.82,0,0,1,0,2.57L141.37,59.35a1.82,1.82,0,0,1-2.53,0l-3-3a1.82,1.82,0,0,1,0-2.57l14.07-14.12A1.82,1.82,0,0,1,152.44,39.67Z"/><g class="cls-51"><path class="cls-26" d="M137,53.71a2.06,2.06,0,0,0-.68,1,1.1,1.1,0,0,0,0,.48,1.24,1.24,0,0,0,2,.48c1.37-1.31,3.95-3.77,5.28-5.14A13.49,13.49,0,0,0,147,45.25a.51.51,0,0,0-.84-.52Q141.51,49.16,137,53.71Z"/></g><g class="cls-38"><path class="cls-26" d="M152.44,39.67l3,3a1.82,1.82,0,0,1,0,2.57L141.37,59.35a1.82,1.82,0,0,1-2.53,0,3.48,3.48,0,0,1,.14-.64,8.52,8.52,0,0,1,2.19-3.21,71.85,71.85,0,0,0,5-5.18,11.12,11.12,0,0,0,2.67-6.55,19.16,19.16,0,0,1,0-3,.35.35,0,0,0,0-.11l1-1A1.82,1.82,0,0,1,152.44,39.67Z"/></g><polygon class="cls-54" points="326.17 108.79 293.66 89.83 311.44 42.8 358.34 70.16 326.17 108.79"/><polygon class="cls-23" points="324.63 107.89 295.19 90.72 313.65 44.09 356.13 68.86 324.63 107.89"/><path class="cls-62" d="M312.76,94.43h0c-7.88-4.6-11.68-13.49-8.93-20.91l9.32-25.22,39.56,23.07L335.35,91.91C330.24,98,320.64,99,312.76,94.43Z"/><path class="cls-62" d="M314.49,91.46h0a15.23,15.23,0,0,1-6.58-18.71l9.31-23.61L350,68.24,334,88A15.25,15.25,0,0,1,314.49,91.46Z"/><polygon class="cls-54" points="307.93 98.17 307.99 98.09 330.07 58 332.48 59.42 335.75 61.33 311.86 100.48 307.93 98.17"/><polygon class="cls-54" points="308.66 98.49 307.99 98.09 330.07 58 332.48 59.42 308.66 98.49"/><polygon class="cls-54" points="302.23 94.84 298.31 92.54 298.33 92.46 314.38 48.8 317.01 50.34 320.04 52.13 302.23 94.84"/><polygon class="cls-54" points="299.22 92.97 298.33 92.46 314.38 48.8 317.01 50.34 299.22 92.97"/><polygon class="cls-54" points="350.47 69.96 320.52 105.55 316.58 103.26 316.64 103.19 344.79 66.62 347.75 68.37 350.47 69.96"/><polygon class="cls-54" points="347.75 68.37 317.87 103.9 316.64 103.19 344.79 66.62 347.75 68.37"/><path class="cls-54" d="M326.34,111.5a1.5,1.5,0,0,1-.3.32,2,2,0,0,1-2.27.17l-31.72-18.5a2,2,0,0,1-1-2.06,2.06,2.06,0,0,1,.14-.44,1.43,1.43,0,0,1,.13-.28,2,2,0,0,1,2.7-.65l31.73,18.5A2,2,0,0,1,326.34,111.5Z"/><path class="cls-54" d="M326.34,111.5a1.5,1.5,0,0,1-.3.32,2,2,0,0,1-2.27.17l-31.72-18.5a2,2,0,0,1-1-2.06,2.06,2.06,0,0,1,.14-.44,2.22,2.22,0,0,1,.41.19l34.25,20A3.27,3.27,0,0,1,326.34,111.5Z"/><path class="cls-54" d="M361.63,75.22c-21.8-.78-40.12-12.79-55.94-32.81A2.11,2.11,0,0,1,307.13,39l.57-.06,4.33-.42,27.36-2.72,2.35-.23.3.15L346,37.63l3.86,1.89.51.26,1.94,4.74,9.48,23.13,1.9,4.65A2.12,2.12,0,0,1,361.63,75.22Z"/><g class="cls-59"><path class="cls-54" d="M336.58,63.94c-.51.32-1.15,0-1.66-.33A103.66,103.66,0,0,1,307.7,38.93l4.33-.42,27.36-2.72,2.35-.23.3.15L346,37.63c-.67.36-1.43.63-2.09,1a6.38,6.38,0,0,0-2.47,8.94c.49.81,1.16,1.5,1.64,2.32a3.1,3.1,0,0,1,.41,2.72,3,3,0,0,1-2.75,1.64,25.61,25.61,0,0,1-3.37-.32,4,4,0,0,0-3.18.86,3.37,3.37,0,0,0-.52,3.6,9.08,9.08,0,0,0,2.34,3,3.85,3.85,0,0,1,.92,1.18A1.16,1.16,0,0,1,336.58,63.94Z"/></g><path class="cls-63" d="M361.78,67.65a1.42,1.42,0,0,1-.7.09C342.74,66,326.74,55.68,312.43,39.23a1.72,1.72,0,0,1-.4-.72l27.36-2.72,2.65-.08h.3l7.47,3.76,0,.06,2.45,5Z"/><path class="cls-54" d="M352.35,23.87,340.62,30a3.1,3.1,0,0,0-1,4.7,21.59,21.59,0,0,0,12.52,7.91,3.11,3.11,0,0,0,3.72-2.8l1-12.93A3.09,3.09,0,0,0,352.35,23.87Z"/><path class="cls-21" d="M378.15,124.16a13.67,13.67,0,0,1-11-24.27,13.43,13.43,0,0,1,5.67-2.57,13.68,13.68,0,1,1,5.29,26.84Z"/><path class="cls-64" d="M378.15,124.16a13.67,13.67,0,0,1-11-24.27,16.22,16.22,0,0,0,.2,5.09,16.57,16.57,0,0,0,19.46,13l.28-.06A13.62,13.62,0,0,1,378.15,124.16Z"/><path class="cls-64" d="M378.14,124.11a13.68,13.68,0,0,1-7-26.4,13.68,13.68,0,0,0,11,24.27,13.36,13.36,0,0,0,1.68-.44A13.51,13.51,0,0,1,378.14,124.11Z"/><path class="cls-23" d="M379.24,113.21a6.23,6.23,0,1,1,4.91-7.31A6.23,6.23,0,0,1,379.24,113.21Z"/><path class="cls-23" d="M379.15,112.73a5.74,5.74,0,1,1,4.52-6.74A5.75,5.75,0,0,1,379.15,112.73Z"/><polygon class="cls-4" points="376.13 108.62 376.13 108.62 376.13 108.62 376.13 108.62"/><path class="cls-4" d="M379,111.45a3.12,3.12,0,0,0-.31-2.08l.15,0a3.53,3.53,0,0,0,.46-.15,6.49,6.49,0,0,1,.59,1.25.4.4,0,0,0,.18.16.36.36,0,0,0,.25,0,.28.28,0,0,0,.16-.18.36.36,0,0,0,0-.25,6.4,6.4,0,0,0-.59-1.24,3.07,3.07,0,0,0,1.39-3.2A2.81,2.81,0,0,0,381,105l.39,0,0,0,.9.66a.31.31,0,0,0,.44-.09.33.33,0,0,0-.08-.45l-.44-.32.24,0a.32.32,0,0,0,.25-.37.33.33,0,0,0-.38-.26,9.49,9.49,0,0,1-1.76.28,2.52,2.52,0,0,0-.21-.25,2.59,2.59,0,0,1,.21-.3s0,0,0,0l.05,0,.12-.09,0,0,.05,0,.06,0h0l.12,0h.14s.08,0,.05,0,0,0,0,0a.32.32,0,0,0,.44-.09.33.33,0,0,0-.08-.45,1.17,1.17,0,0,0-1.4.19,2.09,2.09,0,0,0-.4.49,2.32,2.32,0,0,0-.47-.24v-.08a.78.78,0,0,0,0-.16.29.29,0,0,0,0-.09h0v0a3.09,3.09,0,0,1,.22-.67.32.32,0,0,0-.2-.41.32.32,0,0,0-.41.2,3.55,3.55,0,0,0-.29,1.06,3.17,3.17,0,0,0-1,0,1.66,1.66,0,0,1-.11-.38,1.22,1.22,0,0,1,.05-.5.94.94,0,0,1,.12-.22A.75.75,0,0,1,378,102a.32.32,0,1,0-.29-.58,1.53,1.53,0,0,0-.68,1.46,1.59,1.59,0,0,0,.13.53,2.84,2.84,0,0,0-.87.52,2.43,2.43,0,0,0,0-1.46.34.34,0,0,0-.38-.26.33.33,0,0,0-.26.38,2.74,2.74,0,0,1,.09.39s0,.13,0,0,0,0,0,.07a1.34,1.34,0,0,1,0,.2,1.38,1.38,0,0,1,0,.2v0a.3.3,0,0,1,0,.1h0a10.69,10.69,0,0,0-1.44-.71.32.32,0,0,0-.41.2.32.32,0,0,0,.2.41,10.81,10.81,0,0,1,1.76.9,2.67,2.67,0,0,0-.22.36,12.39,12.39,0,0,0-1.91-.28.32.32,0,0,0-.05.64,10.42,10.42,0,0,1,1.69.24c0,.06-.05.12-.07.19a1.07,1.07,0,0,0-.83-.19.77.77,0,0,0-.59.93c0,.13.07.27.09.41l-.9-.24a.36.36,0,0,0-.25,0,.38.38,0,0,0-.16.19.34.34,0,0,0,.2.41l1,.25a.9.9,0,0,1-.68.37.33.33,0,0,0-.25.38.34.34,0,0,0,.38.26,1.51,1.51,0,0,0,1.35-1.54,2.93,2.93,0,0,0-.1-.53.47.47,0,0,1,0-.2v0h0l0,0s0,0,0,0,.05,0,.07,0h.06l.07,0a1.54,1.54,0,0,1,.42.26h0a2.45,2.45,0,0,0,.06.6.07.07,0,0,0,0,0,3.83,3.83,0,0,0-1.39,1.94.33.33,0,0,0,.2.41.34.34,0,0,0,.41-.2,3,3,0,0,1,.11-.32l.07-.16s0,0,0,0a.16.16,0,0,0,0-.07,4.91,4.91,0,0,1,.38-.55l0,0,.05-.06.11-.12.21-.17a3.43,3.43,0,0,0,.28.49.64.64,0,0,0-.2.2,1.4,1.4,0,0,0-.12.7s0,.09,0,.14v0s0,0,0,0,0,.09,0,.11h0l0,0,0,.05v0a.39.39,0,0,1-.1.08l-.05,0h0l-.12.06a.32.32,0,0,0-.15.43.33.33,0,0,0,.43.14,1.23,1.23,0,0,0,.74-.87,4.46,4.46,0,0,0,.05-.63h0l0,0h0v0s0,0,0,0h0s0,0,0,0h.09a3.05,3.05,0,0,0,1.75.78,2.12,2.12,0,0,1,.28.51,1.27,1.27,0,0,0-1.23,1.17.33.33,0,0,0,.65,0,.49.49,0,0,1,0-.12h0s0,0,0-.06v0h0l0,0,.07-.11h0l0,0,.1-.08h0l.06,0,.07,0,.16,0h.08a.16.16,0,0,0,.1,0,2.61,2.61,0,0,1,0,.88c0,.17.14.33.3.34A.31.31,0,0,0,379,111.45Z"/><path class="cls-4" d="M375.17,109.56Z"/><path class="cls-21" d="M382.08,109.62a1.89,1.89,0,1,1,1.49-2.22A1.9,1.9,0,0,1,382.08,109.62Z"/><path class="cls-21" d="M263.46,77.55a13.68,13.68,0,1,1,.22-10.91A13.7,13.7,0,0,1,263.46,77.55Z"/><path class="cls-64" d="M263.46,77.55a13.68,13.68,0,0,1-26.11-5.32A16.19,16.19,0,0,0,241.6,75a16.56,16.56,0,0,0,22-8.14l.12-.26A13.64,13.64,0,0,1,263.46,77.55Z"/><path class="cls-64" d="M263.41,77.53a13.68,13.68,0,0,1-25.49-9.8A13.68,13.68,0,0,0,264,73a13.84,13.84,0,0,0,.62-1.62A13.55,13.55,0,0,1,263.41,77.53Z"/><path class="cls-23" d="M255.21,70.26A6.23,6.23,0,1,1,252.15,62,6.22,6.22,0,0,1,255.21,70.26Z"/><path class="cls-23" d="M254.77,70.05A5.74,5.74,0,1,1,252,62.44,5.75,5.75,0,0,1,254.77,70.05Z"/><polygon class="cls-4" points="249.67 70.09 249.67 70.09 249.67 70.09 249.67 70.09"/><path class="cls-4" d="M253.66,69.39a3.15,3.15,0,0,0-1.87-1,.54.54,0,0,0,.07-.13,2.8,2.8,0,0,0,.16-.46,6.18,6.18,0,0,1,1.35.25.35.35,0,0,0,.24-.06.3.3,0,0,0,.13-.21.31.31,0,0,0-.05-.23.38.38,0,0,0-.21-.14,6.84,6.84,0,0,0-1.35-.25,3.09,3.09,0,0,0-1.78-3,3.84,3.84,0,0,0-.78-.23l.18-.34h.07l1.06-.34a.32.32,0,1,0-.23-.6l-.51.16c0-.07.07-.14.1-.22a.32.32,0,0,0-.16-.42.33.33,0,0,0-.43.15,10.34,10.34,0,0,1-.81,1.59l-.32,0a2.91,2.91,0,0,1-.12-.35s0,0,0,0a.2.2,0,0,0,0-.07s0-.1,0-.15v0a2932841728565.68,2932841728565.68,0,0,1,0-.12v0a.61.61,0,0,0,0-.12h0l0,0,0,0h0l0,0,0,0a.33.33,0,0,0,.19-.42.33.33,0,0,0-.41-.19,1.17,1.17,0,0,0-.67,1.24,2.69,2.69,0,0,0,.16.62,2.32,2.32,0,0,0-.47.24l-.06,0-.11-.11-.07-.07h0l0,0a4.09,4.09,0,0,1-.42-.58.32.32,0,0,0-.44-.08.33.33,0,0,0-.08.45,3.83,3.83,0,0,0,.69.87,2.85,2.85,0,0,0-.6.81,1.71,1.71,0,0,1-.38-.13,1.08,1.08,0,0,1-.37-.34.57.57,0,0,1-.11-.22.83.83,0,0,1,0-.22.33.33,0,0,0-.26-.37.31.31,0,0,0-.37.27,1.52,1.52,0,0,0,.78,1.41,2.37,2.37,0,0,0,.5.2,3.17,3.17,0,0,0-.09,1,2.33,2.33,0,0,0-1.16-.89.34.34,0,0,0-.43.16.33.33,0,0,0,.16.43,1.46,1.46,0,0,1,.36.16l0,0,.06,0,.16.12.14.13,0,0h0l.07.07h0a10.74,10.74,0,0,0-1.42.76.32.32,0,0,0-.08.45.34.34,0,0,0,.45.08,10.12,10.12,0,0,1,1.76-.91,2.83,2.83,0,0,0,.17.4,11,11,0,0,0-1.35,1.38.33.33,0,0,0,0,.45.34.34,0,0,0,.46,0,9.83,9.83,0,0,1,1.18-1.23,1,1,0,0,0,.11.17,1.07,1.07,0,0,0-.64.56.77.77,0,0,0,.4,1c.13.07.26.11.39.17l-.72.59a.3.3,0,0,0-.13.21.34.34,0,0,0,0,.24.32.32,0,0,0,.45.07l.78-.63a1,1,0,0,1-.1.77.31.31,0,0,0,.16.42.33.33,0,0,0,.43-.16,1.51,1.51,0,0,0-.46-2,3.12,3.12,0,0,0-.49-.23.69.69,0,0,1-.17-.1h0v0s0,0,0,0,0,0,0-.06h0l0,0,.05,0a1.37,1.37,0,0,1,.47-.19h0a2.82,2.82,0,0,0,.53.31l0,0a3.76,3.76,0,0,0,.75,2.26.33.33,0,0,0,.45.08.32.32,0,0,0,.08-.45,2.75,2.75,0,0,1-.19-.28l-.09-.15s0,0,0,0,0-.05,0-.08a3.35,3.35,0,0,1-.22-.63s0,0,0,0,0,0,0-.07a1,1,0,0,1,0-.16,1.24,1.24,0,0,1,0-.27,2.6,2.6,0,0,0,.56.06.64.64,0,0,0,.06.28,1.38,1.38,0,0,0,.48.51l.12.09h0s0,0,0,0,.05.09.07.1h0a130131875846.6,130131875846.6,0,0,0,0,.12h0s0,.09,0,.13a.13.13,0,0,0,0,.06v0a.78.78,0,0,1,0,.14.32.32,0,0,0,.26.37.33.33,0,0,0,.37-.27,1.24,1.24,0,0,0-.27-1.11,3.64,3.64,0,0,0-.48-.4h0l0,0h0v0s0,0,0,0v0s0,0,0,0v0h0l0-.06a3.05,3.05,0,0,0,1.66-1,2.25,2.25,0,0,1,.58.07,1.25,1.25,0,0,0,.22,1.68.34.34,0,0,0,.46,0,.33.33,0,0,0,0-.45l-.09-.08h0l0,0,0,0h0v0a.61.61,0,0,1-.05-.12h0a.11.11,0,0,1,0,0,.57.57,0,0,1,0-.13h0s0-.05,0-.07a.31.31,0,0,1,0-.08.84.84,0,0,1,.06-.14l.05-.07a.14.14,0,0,0,.05-.08,2.75,2.75,0,0,1,.7.53.32.32,0,0,0,.45,0A.33.33,0,0,0,253.66,69.39Z"/><path class="cls-4" d="M249.86,71.42Z"/><path class="cls-21" d="M254,65.85a1.89,1.89,0,1,1-.93-2.5A1.89,1.89,0,0,1,254,65.85Z"/></g></g></g></svg>