<svg xmlns="http://www.w3.org/2000/svg" xmlns:xlink="http://www.w3.org/1999/xlink" viewBox="0 0 500 500"><defs><style>.cls-1{fill:none;}.cls-2{isolation:isolate;}.cls-3{clip-path:url(#clip-path);}.cls-17,.cls-4,.cls-5{fill:#3c3334;}.cls-10,.cls-11,.cls-14,.cls-16,.cls-17,.cls-18,.cls-19,.cls-21,.cls-23,.cls-24,.cls-25,.cls-27,.cls-31,.cls-35,.cls-5,.cls-8,.cls-9{mix-blend-mode:multiply;}.cls-5{opacity:0.76;}.cls-6{fill:#fff;}.cls-27,.cls-34,.cls-7,.cls-8,.cls-9{fill:#f68f38;}.cls-8{opacity:0.42;}.cls-10{opacity:0.17;}.cls-12,.cls-15,.cls-26,.cls-29,.cls-30,.cls-33,.cls-34,.cls-36,.cls-37,.cls-38,.cls-39{mix-blend-mode:screen;}.cls-12{opacity:0.36;}.cls-13,.cls-14,.cls-15{fill:#fce7d3;}.cls-16{opacity:0.95;}.cls-17,.cls-23{opacity:0.32;}.cls-18,.cls-19{opacity:0.73;}.cls-18{fill:url(#linear-gradient);}.cls-19{fill:url(#linear-gradient-2);}.cls-20,.cls-21{fill:#637f00;}.cls-21{opacity:0.25;}.cls-22{fill:#fac8c4;}.cls-24,.cls-27{opacity:0.48;}.cls-25{opacity:0.38;}.cls-26{opacity:0.4;}.cls-28,.cls-30,.cls-31{fill:#ffdbcc;}.cls-29,.cls-30{opacity:0.35;}.cls-32,.cls-33,.cls-35{fill:#eb5143;}.cls-33{opacity:0.51;}.cls-35{opacity:0.3;}.cls-36{opacity:0.56;}.cls-37{opacity:0.18;}.cls-38{opacity:0.53;}.cls-39{opacity:0.55;fill:url(#radial-gradient);}</style><clipPath id="clip-path"><circle class="cls-1" cx="250" cy="250" r="250.43"/></clipPath><linearGradient id="linear-gradient" x1="348.82" y1="439.46" x2="349.7" y2="397.12" gradientUnits="userSpaceOnUse"><stop offset="0.31" stop-color="#fff"/><stop offset="1" stop-color="#3c3334"/></linearGradient><linearGradient id="linear-gradient-2" x1="115.33" y1="448.3" x2="114.67" y2="417.77" gradientTransform="translate(12.73 -3.24) rotate(1.71)" gradientUnits="userSpaceOnUse"><stop offset="0.37" stop-color="#fff"/><stop offset="1" stop-color="#3c3334"/></linearGradient><radialGradient id="radial-gradient" cx="245.16" cy="315.41" r="105.85" gradientUnits="userSpaceOnUse"><stop offset="0.01" stop-color="#f68f38"/><stop offset="0.09" stop-color="#f68f38" stop-opacity="0.97"/><stop offset="0.23" stop-color="#f68f38" stop-opacity="0.87"/><stop offset="0.41" stop-color="#f68f38" stop-opacity="0.72"/><stop offset="0.61" stop-color="#f68f38" stop-opacity="0.5"/><stop offset="0.83" stop-color="#f68f38" stop-opacity="0.23"/><stop offset="1" stop-color="#f68f38" stop-opacity="0"/></radialGradient></defs><g class="cls-2"><g id="OBJECTS"><g class="cls-3"><rect class="cls-4" y="0.07" width="499.77" height="499.93"/><rect class="cls-5" y="0.07" width="499.77" height="499.93"/><path class="cls-6" d="M212.55,212.26h0a8.37,8.37,0,0,0,3.31,3.31h0a8.49,8.49,0,0,0-3.31,3.31h0a8.37,8.37,0,0,0-3.31-3.31h0a8.24,8.24,0,0,0,3.31-3.31Z"/><path class="cls-6" d="M344,68.15h0a15.39,15.39,0,0,0,6.13,6.13h0A15.36,15.36,0,0,0,344,80.4h0a15.36,15.36,0,0,0-6.13-6.12h0A15.39,15.39,0,0,0,344,68.15Z"/><path class="cls-6" d="M164.31,246.75h0a15.36,15.36,0,0,0,6.13,6.12h0a15.39,15.39,0,0,0-6.13,6.13h0a15.39,15.39,0,0,0-6.13-6.13h0a15.36,15.36,0,0,0,6.13-6.12Z"/><path class="cls-6" d="M166.76,185.38h0a8.37,8.37,0,0,0,3.31,3.31h0a8.43,8.43,0,0,0-3.31,3.31h0a8.3,8.3,0,0,0-3.31-3.31h0a8.24,8.24,0,0,0,3.31-3.31Z"/><path class="cls-6" d="M115.76,186h0a8.3,8.3,0,0,0,3.31,3.31h0a8.24,8.24,0,0,0-3.31,3.31h0a8.33,8.33,0,0,0-3.32-3.31h0a8.39,8.39,0,0,0,3.32-3.31Z"/><path class="cls-6" d="M337.84,111.75h0a8.37,8.37,0,0,0,3.31,3.31h0a8.37,8.37,0,0,0-3.31,3.31h0a8.24,8.24,0,0,0-3.31-3.31h0a8.24,8.24,0,0,0,3.31-3.31Z"/><path class="cls-6" d="M375.46,53.87h0a8.43,8.43,0,0,0,3.31,3.31h0a8.3,8.3,0,0,0-3.31,3.31h0a8.24,8.24,0,0,0-3.31-3.31h0a8.37,8.37,0,0,0,3.31-3.31Z"/><path class="cls-6" d="M55.56,121h0a15.43,15.43,0,0,0,6.12,6.13h0a15.36,15.36,0,0,0-6.12,6.13h0a15.39,15.39,0,0,0-6.13-6.13h0A15.45,15.45,0,0,0,55.56,121Z"/><path class="cls-6" d="M65.14,65.58h0a15.51,15.51,0,0,0,6.13,6.13h0a15.49,15.49,0,0,0-6.13,6.12h0A15.4,15.4,0,0,0,59,71.71h0a15.43,15.43,0,0,0,6.12-6.13Z"/><path class="cls-6" d="M39.51,111.94h0a8.24,8.24,0,0,0,3.31,3.31h0a8.37,8.37,0,0,0-3.31,3.31h0a8.49,8.49,0,0,0-3.31-3.31h0a8.37,8.37,0,0,0,3.31-3.31Z"/><path class="cls-6" d="M194.34,179.1h0a19.14,19.14,0,0,0,7.59,7.6h0a19.11,19.11,0,0,0-7.59,7.59h0a19.14,19.14,0,0,0-7.6-7.59h0a19.16,19.16,0,0,0,7.6-7.6Z"/><path class="cls-6" d="M377.57,121.34h0a19.14,19.14,0,0,0,7.6,7.59h0a19.16,19.16,0,0,0-7.6,7.6h0a19.1,19.1,0,0,0-7.6-7.6h0a19.07,19.07,0,0,0,7.6-7.59Z"/><path class="cls-6" d="M170.54,57.47h0a8.4,8.4,0,0,0,1.67,4.37h0a8.4,8.4,0,0,0-4.38,1.67h0a8.3,8.3,0,0,0-1.66-4.38h0a8.3,8.3,0,0,0,4.37-1.66Z"/><path class="cls-6" d="M309,29.21h0a8.4,8.4,0,0,0,1.67,4.38h0a8.32,8.32,0,0,0-4.38,1.67h0a8.3,8.3,0,0,0-1.66-4.38h0A8.25,8.25,0,0,0,309,29.21Z"/><path class="cls-6" d="M122.25,33h0a8.3,8.3,0,0,0,1.66,4.38h0A8.3,8.3,0,0,0,119.53,39h0a8.27,8.27,0,0,0-1.66-4.37h0A8.4,8.4,0,0,0,122.25,33Z"/><path class="cls-6" d="M31.74,33h0a8.4,8.4,0,0,0,1.67,4.38h0A8.3,8.3,0,0,0,29,39h0a8.27,8.27,0,0,0-1.66-4.37h0A8.4,8.4,0,0,0,31.74,33Z"/><path class="cls-6" d="M161.29,20.48h0a19.16,19.16,0,0,0,3.83,10.05h0a19.06,19.06,0,0,0-10.05,3.82h0a19.06,19.06,0,0,0-3.82-10h0a19,19,0,0,0,10-3.82Z"/><path class="cls-6" d="M422.61,7.58h0a19.23,19.23,0,0,0,3.82,10h0a19.06,19.06,0,0,0-10,3.82h0a19.14,19.14,0,0,0-3.82-10h0a19,19,0,0,0,10-3.82Z"/><path class="cls-7" d="M171,123.16a25.52,25.52,0,0,1,6.51,20.4l-1.13,7.22a26.42,26.42,0,0,1-12.9-5.72,19.16,19.16,0,0,1-6.75-12.22c-.35-3.23.25-6.54-.39-9.72a12.88,12.88,0,0,0-5.21-7.94A25.51,25.51,0,0,1,171,123.16Z"/><path class="cls-8" d="M169.59,122.65A20.51,20.51,0,0,1,174.82,139l-.91,5.81a21.38,21.38,0,0,1-10.36-4.6,15.41,15.41,0,0,1-5.42-9.82c-.28-2.59.2-5.25-.31-7.8a10.37,10.37,0,0,0-4.19-6.38A20.5,20.5,0,0,1,169.59,122.65Z"/><path class="cls-7" d="M172.44,145.44a30.54,30.54,0,0,0-2.06-12.51,31.87,31.87,0,0,0-17.42-18,30.5,30.5,0,0,0-12.43-2.48,37.24,37.24,0,0,1,12,3.45,34.62,34.62,0,0,1,16.88,17.46A37.32,37.32,0,0,1,172.44,145.44Z"/><path class="cls-9" d="M172.44,145.44a30.54,30.54,0,0,0-2.06-12.51,31.87,31.87,0,0,0-17.42-18,30.5,30.5,0,0,0-12.43-2.48,37.24,37.24,0,0,1,12,3.45,34.62,34.62,0,0,1,16.88,17.46A37.32,37.32,0,0,1,172.44,145.44Z"/><path class="cls-7" d="M61.25,198.19A27.86,27.86,0,0,1,66,221.09l-2,7.72a28.91,28.91,0,0,1-13.38-7.67,20.92,20.92,0,0,1-6-14c0-3.55,1-7.07.67-10.61a14.11,14.11,0,0,0-4.77-9.21A27.85,27.85,0,0,1,61.25,198.19Z"/><path class="cls-8" d="M59.78,197.47a22.37,22.37,0,0,1,3.85,18.39L62,222.07a23.15,23.15,0,0,1-10.75-6.16,16.81,16.81,0,0,1-4.78-11.28c0-2.85.8-5.68.53-8.52a11.29,11.29,0,0,0-3.83-7.4A22.43,22.43,0,0,1,59.78,197.47Z"/><path class="cls-7" d="M60.32,222.56a33.48,33.48,0,0,0-.83-13.82,35.45,35.45,0,0,0-6.24-12.51,35.34,35.34,0,0,0-10.67-9,33.54,33.54,0,0,0-13.23-4.1A40.86,40.86,0,0,1,42,188.2a37.81,37.81,0,0,1,16.38,20.87A40.56,40.56,0,0,1,60.32,222.56Z"/><path class="cls-9" d="M60.32,222.56a33.48,33.48,0,0,0-.83-13.82,35.45,35.45,0,0,0-6.24-12.51,35.34,35.34,0,0,0-10.67-9,33.54,33.54,0,0,0-13.23-4.1A40.86,40.86,0,0,1,42,188.2a37.81,37.81,0,0,1,16.38,20.87A40.56,40.56,0,0,1,60.32,222.56Z"/><path class="cls-7" d="M68.39,179.44l0,.58c-3.28,2.36-6.68,4.77-10.62,5.65a17.17,17.17,0,0,1-14.08-3.42,14.83,14.83,0,0,1,11.58-6.86A19.85,19.85,0,0,1,68.39,179.44Z"/><path class="cls-8" d="M66.33,179.68l0,.48c-2.72,2-5.55,4-8.83,4.7A14.33,14.33,0,0,1,45.81,182a12.36,12.36,0,0,1,9.63-5.71A16.53,16.53,0,0,1,66.33,179.68Z"/><path class="cls-7" d="M60.58,180.16c-2.84.37-5.65.73-8.47,1s-5.63.44-8.44.43c-1.4,0-2.8-.06-4.19-.15l-2.09-.19c-.69-.12-1.38-.22-2.07-.32a22.44,22.44,0,0,1-7.87-2.87,17,17,0,0,0,7.62,4,34.23,34.23,0,0,0,8.6,1,52.44,52.44,0,0,0,8.59-.76A49.57,49.57,0,0,0,60.58,180.16Z"/><path class="cls-9" d="M60.58,180.16c-2.84.37-5.65.73-8.47,1s-5.63.44-8.44.43c-1.4,0-2.8-.06-4.19-.15l-2.09-.19c-.69-.12-1.38-.22-2.07-.32a22.44,22.44,0,0,1-7.87-2.87,17,17,0,0,0,7.62,4,34.23,34.23,0,0,0,8.6,1,52.44,52.44,0,0,0,8.59-.76A49.57,49.57,0,0,0,60.58,180.16Z"/><path class="cls-7" d="M89.94,211.18l.56.11C92,215.06,93.42,219,93.28,223a17.17,17.17,0,0,1-6.88,12.75,14.82,14.82,0,0,1-3.7-12.94A19.83,19.83,0,0,1,89.94,211.18Z"/><path class="cls-8" d="M89.64,213.23l.47.09c1.21,3.14,2.43,6.38,2.31,9.74a14.29,14.29,0,0,1-5.72,10.61,12.36,12.36,0,0,1-3.08-10.77A16.56,16.56,0,0,1,89.64,213.23Z"/><path class="cls-7" d="M88.65,218.92c-.36,2.84-.72,5.65-1.18,8.44s-1,5.55-1.73,8.26c-.34,1.37-.76,2.7-1.2,4l-.72,2c-.29.63-.56,1.27-.83,1.92a22.72,22.72,0,0,1-4.77,6.89,17.08,17.08,0,0,0,5.8-6.36A34.23,34.23,0,0,0,87.17,236a51.35,51.35,0,0,0,1.44-8.5A48.22,48.22,0,0,0,88.65,218.92Z"/><path class="cls-9" d="M88.65,218.92c-.36,2.84-.72,5.65-1.18,8.44s-1,5.55-1.73,8.26c-.34,1.37-.76,2.7-1.2,4l-.72,2c-.29.63-.56,1.27-.83,1.92a22.72,22.72,0,0,1-4.77,6.89,17.08,17.08,0,0,0,5.8-6.36A34.23,34.23,0,0,0,87.17,236a51.35,51.35,0,0,0,1.44-8.5A48.22,48.22,0,0,0,88.65,218.92Z"/><path class="cls-7" d="M140.62,71.82l.67.36c.37,5.27.73,10.7-1,15.7a22.49,22.49,0,0,1-13.46,13.33,19.4,19.4,0,0,1,.29-17.6A26,26,0,0,1,140.62,71.82Z"/><path class="cls-8" d="M139.47,74.28l.55.29c.32,4.38.62,8.91-.81,13.06A18.73,18.73,0,0,1,128,98.72a16.15,16.15,0,0,1,.24-14.64A21.63,21.63,0,0,1,139.47,74.28Z"/><path class="cls-7" d="M136.07,81c-1.53,3.42-3,6.79-4.69,10.11s-3.37,6.56-5.31,9.68c-.94,1.58-2,3.09-3,4.58l-1.65,2.19c-.6.68-1.19,1.38-1.77,2.08a29.5,29.5,0,0,1-8.58,6.8,22.25,22.25,0,0,0,9.66-5.74,44.48,44.48,0,0,0,7-8.89,67.79,67.79,0,0,0,5-10.09A63,63,0,0,0,136.07,81Z"/><path class="cls-9" d="M136.07,81c-1.53,3.42-3,6.79-4.69,10.11s-3.37,6.56-5.31,9.68c-.94,1.58-2,3.09-3,4.58l-1.65,2.19c-.6.68-1.19,1.38-1.77,2.08a29.5,29.5,0,0,1-8.58,6.8,22.25,22.25,0,0,0,9.66-5.74,44.48,44.48,0,0,0,7-8.89,67.79,67.79,0,0,0,5-10.09A63,63,0,0,0,136.07,81Z"/><path class="cls-7" d="M150.06,213.64l.41.41c-.86,3.95-1.76,8-4.1,11.31a17.19,17.19,0,0,1-12.75,6.89,14.83,14.83,0,0,1,4-12.85A19.86,19.86,0,0,1,150.06,213.64Z"/><path class="cls-8" d="M148.69,215.2l.34.33c-.71,3.29-1.47,6.67-3.41,9.41a14.3,14.3,0,0,1-10.6,5.73A12.32,12.32,0,0,1,138.35,220,16.5,16.5,0,0,1,148.69,215.2Z"/><path class="cls-7" d="M144.74,219.41c-1.86,2.18-3.7,4.33-5.62,6.41s-3.89,4.09-6,6c-1,.95-2.11,1.84-3.21,2.71l-1.68,1.25c-.59.37-1.17.76-1.75,1.15a22.7,22.7,0,0,1-7.77,3.14,17,17,0,0,0,8.34-2.13,34.13,34.13,0,0,0,7.06-5,52.33,52.33,0,0,0,5.87-6.32A49.23,49.23,0,0,0,144.74,219.41Z"/><path class="cls-9" d="M144.74,219.41c-1.86,2.18-3.7,4.33-5.62,6.41s-3.89,4.09-6,6c-1,.95-2.11,1.84-3.21,2.71l-1.68,1.25c-.59.37-1.17.76-1.75,1.15a22.7,22.7,0,0,1-7.77,3.14,17,17,0,0,0,8.34-2.13,34.13,34.13,0,0,0,7.06-5,52.33,52.33,0,0,0,5.87-6.32A49.23,49.23,0,0,0,144.74,219.41Z"/><path class="cls-4" d="M179.66,118c-4.07.06-7,2-10.87,2.4-6.51.74-4.29-4.67-8.66-7.89,4.91-3.08,12.61-2.08,18.09-4.08,4.67-1.71,10.18-6.2,14-9.3-3.38-2.63-4-2.64-7.15-1.71-3.43,1-7,3.25-10.41,4.53-6.39,2.39-12.63,3.21-19.19,4.77-10.64,2.54-22.69,4.41-32.07,10.41-5.57,3.56-11.79,12.37-18.6,13.29,4.72-5.4,11.1-10.35,14.79-16.52,3.11-5.21,2.89-15.18,4-21.23,2.22-12.71,2.37-26.22,3.53-39-7.14-3-6.33,4.84-7,9.48-1,6.62-2.47,13.1-2.61,19.8-2-3.67-3.31-8.39-6.17-11.55-1.16-1.29.29-1.61-2.06-2-1.21-.2-3.84,1.39-5,1.88,5,4.86,9.94,10.47,9.91,17.44,0,6.36,1.48,15.15-.18,21.22-1,3.69-5.19,6.59-7.6,9.47-4.23,5.06-8.67,8.66-13.67,12.91-9.09,7.71-18.94,15.86-29.86,20.85-16.07,7.36-35.31,10.15-49.54,20.86C6.39,179.25,0,189.81,0,189.81v176l52.05-1.44a303.64,303.64,0,0,1-20.17-34.46c-3.25-6.64-6.39-13.1-10.58-19.2-4.74-6.91-.91-10.33,4.46-16.08,11.12-11.91,26.76-18,38.93-29,4.62-4.18,9.37-9.91,14.88-12.93,6.1-3.35,14.59-2.18,21.3-3.91s10.17-3.66,16.62-1c2.57,1.07,5.28,2.61,7.86,3.43,3.38,1.07,4-.77,6.85-2.85-2.67-1.66-6.63-1.52-9.65-2.57-2.72-.95-5.3-2.57-8-3.18,3-1.59,6.52-2.32,9.65-3.63,3.39-1.42,9.87-2.68,12.59-5,3.25-2.8.79-3.48-2.47-2.74s-6.21,2-9.37,2.93c-9.35,2.66-18.91,4.46-28.2,7.25-5.78,1.73-11.64,5.18-17.31,6.46-.94-2.43.73-7.24.83-10.06a31.22,31.22,0,0,0-1.32-11.37c-2.68.73-3.26.29-4.16,2.61s0,6.82,0,9.33c0,5.34,1.32,10.17-3.44,13.43-5.83,4-12.26,6.8-18,11-4.66,3.46-10.91,7.8-16.54,8.92.92-5.79,4.17-11,5.06-17,.54-3.72.24-7.5.78-11.16.62-4.21,3.74-6.8,7.4-9.26,2.17-1.46,5.64-2.18,3.13-5.23-3.52-.22-8,4-11.34,5.4-1.46-4.77.08-11.26,0-16.37-2.18-.09-4.41,1.32-6.74,1.39.38,4.94,1.66,9.73,1.65,14.92a96.24,96.24,0,0,1-3.33,25.88c-1.37,5.14-2.62,12.1-5.9,16.46-2.83,3.77-8.41,6.79-12.17,9.08-1.77-9.35,4-20.24,4.39-29.74C20.22,245,15.16,234.12,17,223c1.76-10.76,8.16-20.83,11.34-31.32,1.52-5,2.61-5.66,7.54-8.48,7.94-4.53,16.17-8.54,24.14-13,4.91-2.77,10.79-5.18,15.19-8.79,3.76-3.08,6.56-7.65,9.58-11.42,7.43-9.3,19.53-15.2,30.3-19.62,10.3-4.22,19.51-10.85,29.77-14.9,3.67-1.44,6.69-2.08,10.23.41s4.25,7.13,7.5,9.63c4.1,3.14,10.81.5,15.7-.09,2.46-.29,10.35,0,12.3-1.51,1.64-1.27,1.1-4.71.84-6.66C187.48,117.29,183.62,117.9,179.66,118Z"/><g class="cls-10"><g class="cls-11"><path class="cls-4" d="M71,156.34a170.4,170.4,0,0,0-26.31,12.39c-4.19,2.43-8.24,5.09-12.19,7.9s-7.77,5.82-11.52,9a87.72,87.72,0,0,1,10.69-10.06,101.64,101.64,0,0,1,12.12-8.33A95.55,95.55,0,0,1,71,156.34Z"/></g><g class="cls-11"><path class="cls-4" d="M18.46,197.11a146.67,146.67,0,0,0-7.89,15.76,44.55,44.55,0,0,0-3.72,16.92,32.92,32.92,0,0,0,1.21,8.54c.75,2.8,1.74,5.56,2.65,8.39a44.77,44.77,0,0,1,2,8.75,38.76,38.76,0,0,1-.19,9c-.79,5.93-2.41,11.61-3,17.38a63.81,63.81,0,0,0,.69,17.39,106.1,106.1,0,0,0,4.45,17c1.83,5.59,4,11,6.16,16.55-2.48-5.35-4.86-10.74-7-16.26a105.25,105.25,0,0,1-5-17,60.68,60.68,0,0,1-1-17.8c.61-5.95,2.18-11.68,2.9-17.44a37.09,37.09,0,0,0,.26-8.61,42.67,42.67,0,0,0-1.91-8.44c-.86-2.79-1.85-5.59-2.59-8.48a31.64,31.64,0,0,1-1.09-8.93,45.17,45.17,0,0,1,4.29-17.26A128.06,128.06,0,0,1,18.46,197.11Z"/></g><g class="cls-11"><path class="cls-4" d="M16,296.14c2.43-2.42,5-4.68,7.61-6.86S29,285,31.68,283s5.56-4,8.43-5.81,5.79-3.62,8.83-5.2c-2.63,2.2-5.32,4.27-8,6.33s-5.45,4.08-8.18,6.1-5.49,4-8.27,6S18.9,294.29,16,296.14Z"/></g><g class="cls-11"><path class="cls-4" d="M6.29,306c.22,4.59.36,9.17.53,13.74s.37,9.14.63,13.71.52,9.13.82,13.7.65,9.13.91,13.72c-1-4.49-1.72-9-2.29-13.59s-.95-9.15-1.21-13.74-.33-9.19-.23-13.78S5.77,310.6,6.29,306Z"/></g><g class="cls-11"><path class="cls-4" d="M10,323.3c1.32,2.79,2.47,5.64,3.56,8.51s2.1,5.77,3.08,8.67,1.89,5.84,2.72,8.79,1.63,5.93,2.24,9c-1.31-2.79-2.46-5.64-3.55-8.51S16,344,15,341s-1.88-5.84-2.71-8.79S10.64,326.33,10,323.3Z"/></g><g class="cls-11"><path class="cls-4" d="M21.81,317.69c.92,3.5,1.66,7,2.51,10.49a92.58,92.58,0,0,0,3.05,10.22A49.15,49.15,0,0,0,32,347.89,37,37,0,0,0,39,356a26.13,26.13,0,0,1-8.07-7.29A38.62,38.62,0,0,1,25.71,339,59,59,0,0,1,23,328.46,95,95,0,0,1,21.81,317.69Z"/></g><g class="cls-11"><path class="cls-4" d="M21.41,177a50.66,50.66,0,0,0-6.6,6.58,46.78,46.78,0,0,0-8.63,16.14,51.18,51.18,0,0,0-1.81,9.14,28.54,28.54,0,0,1,.47-9.48,35,35,0,0,1,3.29-9,34.64,34.64,0,0,1,5.66-7.72A28.58,28.58,0,0,1,21.41,177Z"/></g><g class="cls-11"><path class="cls-4" d="M15.22,189.27c-.56,1.34-1.18,2.6-1.78,3.86l-1.77,3.76L10,200.68c-.56,1.28-1.12,2.57-1.78,3.87a16,16,0,0,1,.47-4.31,21.82,21.82,0,0,1,3.62-7.82A16.07,16.07,0,0,1,15.22,189.27Z"/></g><g class="cls-11"><path class="cls-4" d="M96.42,135c-1.88,1.36-3.68,2.72-5.4,4.18a57,57,0,0,0-9.1,9.86c-1.32,1.82-2.54,3.73-3.75,5.71a24.55,24.55,0,0,1,2.59-6.46,31.19,31.19,0,0,1,4.12-5.65,30.71,30.71,0,0,1,5.31-4.55A24.15,24.15,0,0,1,96.42,135Z"/></g><g class="cls-11"><path class="cls-4" d="M17.14,289.09c1.49-1.18,3-2.27,4.48-3.38s3-2.21,4.41-3.35,2.88-2.29,4.33-3.45,2.86-2.36,4.38-3.51a26.56,26.56,0,0,1-3.44,4.52,34.55,34.55,0,0,1-4.19,3.83,35.67,35.67,0,0,1-4.75,3.12A25.85,25.85,0,0,1,17.14,289.09Z"/></g></g><path class="cls-7" d="M341.47,48l-.27-.64c2.75-4,5.6-8,9.68-10.63A20.61,20.61,0,0,1,368.11,35a17.76,17.76,0,0,1-10.29,12.37A23.75,23.75,0,0,1,341.47,48Z"/><path class="cls-8" d="M343.69,46.91l-.22-.52c2.28-3.3,4.66-6.69,8-8.84a17.09,17.09,0,0,1,14.32-1.49,14.72,14.72,0,0,1-8.55,10.28A19.69,19.69,0,0,1,343.69,46.91Z"/><path class="cls-7" d="M350,44.06a41.33,41.33,0,0,1,5.73-4.29,55,55,0,0,1,13-6,39.69,39.69,0,0,1,7-1.56c-2.18,1-4.35,1.92-6.51,2.85S364.86,37,362.74,38s-4.25,2-6.37,3S352.15,43.06,350,44.06Z"/><path class="cls-9" d="M350,44.06a41.33,41.33,0,0,1,5.73-4.29,55,55,0,0,1,13-6,39.69,39.69,0,0,1,7-1.56c-2.18,1-4.35,1.92-6.51,2.85S364.86,37,362.74,38s-4.25,2-6.37,3S352.15,43.06,350,44.06Z"/><path class="cls-7" d="M389.67,215.12a21.09,21.09,0,0,0-3.62,17.32l1.55,5.85a21.88,21.88,0,0,0,10.12-5.81,15.82,15.82,0,0,0,4.5-10.63c0-2.68-.76-5.35-.5-8a10.64,10.64,0,0,1,3.6-7A21.08,21.08,0,0,0,389.67,215.12Z"/><path class="cls-8" d="M390.78,214.58a16.89,16.89,0,0,0-2.9,13.91l1.24,4.7a17.65,17.65,0,0,0,8.13-4.67,12.67,12.67,0,0,0,3.61-8.53c0-2.16-.61-4.3-.4-6.45a8.55,8.55,0,0,1,2.89-5.6A16.92,16.92,0,0,0,390.78,214.58Z"/><path class="cls-7" d="M390.38,233.56A25.35,25.35,0,0,1,391,223.1a26.22,26.22,0,0,1,12.78-16.31,25.15,25.15,0,0,1,10-3.1,30.79,30.79,0,0,0-9.57,3.86,28.71,28.71,0,0,0-12.39,15.8A31.05,31.05,0,0,0,390.38,233.56Z"/><path class="cls-9" d="M390.38,233.56A25.35,25.35,0,0,1,391,223.1a26.22,26.22,0,0,1,12.78-16.31,25.15,25.15,0,0,1,10-3.1,30.79,30.79,0,0,0-9.57,3.86,28.71,28.71,0,0,0-12.39,15.8A31.05,31.05,0,0,0,390.38,233.56Z"/><path class="cls-7" d="M421.18,169.67l-.58.24c-.81,4.32-1.62,8.79-.67,13.09a18.77,18.77,0,0,0,9.9,12.31,16.2,16.2,0,0,0,1.41-14.6A21.7,21.7,0,0,0,421.18,169.67Z"/><path class="cls-8" d="M421.9,171.82l-.48.19c-.67,3.6-1.34,7.31-.56,10.89a15.6,15.6,0,0,0,8.23,10.23A13.43,13.43,0,0,0,430.26,181,17.92,17.92,0,0,0,421.9,171.82Z"/><path class="cls-7" d="M424.08,177.71c.95,3,1.9,5.91,2.94,8.81s2.18,5.76,3.49,8.52c.63,1.39,1.34,2.74,2.08,4.08l1.16,2c.43.63.85,1.26,1.27,1.9a24.77,24.77,0,0,0,6.47,6.44,18.65,18.65,0,0,1-7.47-5.67,37.37,37.37,0,0,1-5-8,56.23,56.23,0,0,1-3.22-8.83A53.22,53.22,0,0,1,424.08,177.71Z"/><path class="cls-9" d="M424.08,177.71c.95,3,1.9,5.91,2.94,8.81s2.18,5.76,3.49,8.52c.63,1.39,1.34,2.74,2.08,4.08l1.16,2c.43.63.85,1.26,1.27,1.9a24.77,24.77,0,0,0,6.47,6.44,18.65,18.65,0,0,1-7.47-5.67,37.37,37.37,0,0,1-5-8,56.23,56.23,0,0,1-3.22-8.83A53.22,53.22,0,0,1,424.08,177.71Z"/><path class="cls-7" d="M390.55,71.71l-.58.23c-.81,4.33-1.62,8.8-.67,13.1a18.73,18.73,0,0,0,9.9,12.3,16.2,16.2,0,0,0,1.41-14.6A21.67,21.67,0,0,0,390.55,71.71Z"/><path class="cls-8" d="M391.27,73.85l-.48.2c-.67,3.59-1.34,7.31-.56,10.88a15.62,15.62,0,0,0,8.23,10.24A13.45,13.45,0,0,0,399.63,83,17.92,17.92,0,0,0,391.27,73.85Z"/><path class="cls-7" d="M393.45,79.75c.95,3,1.9,5.91,2.94,8.81s2.18,5.75,3.49,8.51c.63,1.4,1.34,2.74,2.08,4.08l1.16,2c.43.62.85,1.25,1.27,1.89a24.47,24.47,0,0,0,6.47,6.44,18.47,18.47,0,0,1-7.47-5.67,37.13,37.13,0,0,1-5-8,56.12,56.12,0,0,1-3.22-8.82A53.41,53.41,0,0,1,393.45,79.75Z"/><path class="cls-9" d="M393.45,79.75c.95,3,1.9,5.91,2.94,8.81s2.18,5.75,3.49,8.51c.63,1.4,1.34,2.74,2.08,4.08l1.16,2c.43.62.85,1.25,1.27,1.89a24.47,24.47,0,0,0,6.47,6.44,18.47,18.47,0,0,1-7.47-5.67,37.13,37.13,0,0,1-5-8,56.12,56.12,0,0,1-3.22-8.82A53.41,53.41,0,0,1,393.45,79.75Z"/><path class="cls-4" d="M499.77.07c-1.5-.06-31.61-.13-68.59,0,.48,3.48,1,7.16,1.75,10.58a38.14,38.14,0,0,0,1.44,4.93,32.53,32.53,0,0,0,2.6,5.09,102.29,102.29,0,0,1,7.69,15.52c2,5.32,2.79,10.88,4.2,16.35a45.23,45.23,0,0,0,5.95,13.86c1.49,2.25,3.24,4.3,4.76,6.52a54.38,54.38,0,0,1,4.28,7.39c2.38,5,4,10.6,3.36,16.19a.89.89,0,0,1-1.65.45c-3.29-6-6.29-12.11-9.82-18a81.82,81.82,0,0,0-6-8.72,98.83,98.83,0,0,0-7.17-7.59A99.82,99.82,0,0,1,431.16,48.2c-1.74-2.56-3.46-5.13-5.25-7.66a52.45,52.45,0,0,0-5.62-7.06c-7.6-7.47-19-8.84-28.83-11.57-12.48-3.48-24.32-8.57-36-14.07C350.23,5.39,345,2.49,339.82.07c-25.76,0-45.4.3-49.45,0,8.71,6.4,20.21,11.42,30.1,15.9,11.9,5.39,24.33,9.22,36.83,12.92s26.54,6.79,37.14,15c16.7,12.86,32.95,30.05,43.34,48.49a53.82,53.82,0,0,1,6.43,17.23c1.11,6.56,3.46,11.7,6.05,17.85a73.36,73.36,0,0,0,7.3,13.52c-6.44-4.09-16.38-7.77-19.35-14.88a237.84,237.84,0,0,0-10.45-21.63c-3.45-6.39-8.31-11.66-12.59-17.65-2.05-2.88-10-20.41-13.86-19,1.53,4.34,5.55,9.1,7.83,13.46,2.43,4.64,4.71,9.19,7.34,13.74,4.87,8.47,10.38,18.13,13.31,27.39-4.75-1.44-10.88-3.48-14.65-6.75-2.67-2.31-4.66-5.67-7.45-8.06-3.83-3.27-7.61-6.63-11.67-9.61-1.9-1.4-4.83-2.74-6.23-4.67-1.55-2.14-1.77-5.57-2.89-8-2.08-4.52-1.92-6.32-7.13-6.33-.29,3.19,2.73,9.48,4,12.7-6.76,3.1-17.21.44-24.49.35-5-.07-10.09-.39-15.15-.37-1,5,4.53,3.34,7.81,3.34,7.26,0,14.39,1,21.63,1.49,4.12.29,10.17-.26,14.19,1.11,4.45,1.51,7.59,7.54,10.34,11.16,11.16,14.68,29.08,25.18,43.37,36.66,6.93,5.57,14.73,9.78,22,14.82,4.54,3.15,4.25,4.51,4.48,10.05.55,12.74,1.67,26,1.13,38.7-.2,4.56-1.61,8.45-2.64,12.83-.54,2.32-.43,5.68-2.21,7.42-2.87-2.17-6.16-4.22-8.89-6.57-5.44-4.67-3.5-12.7-3.36-19.18a167.33,167.33,0,0,0-1.14-25c-.43-3.33.62-10.71-3-12.37-1.13,3.93-.22,9-.4,13.06-.27,6.21-1,12.41-1.42,18.61-.38,5.56-.08,11.27-.43,16.74-3.14-5.18-7.89-9.12-11.74-13.65-3.12-3.67-8.61-6-11.27-9.63.05,4.84-10,9.17-14.3,10.5-4.13,1.26-8.7,1.48-13,2-6.42.78-14.7.2-20.61,2.7-.42,7.3,19.27,1.66,23.19,1.22,9-1,18.9-3.61,25.9-9.73,3,1.19,5.63,7.46,8.39,9.81,5.24,4.48,10,9.16,14.9,14a73.22,73.22,0,0,1,14,19.35,23.15,23.15,0,0,1,2.9,9.32c.34,5.24-5.48,115.07-5.48,115.07h41.28S500.29.29,499.77.07Z"/><g class="cls-12"><path class="cls-4" d="M448.71,29.2A100.24,100.24,0,0,1,460.9,44.29a111.55,111.55,0,0,1,9.17,17.19,141.21,141.21,0,0,1,6.38,18.42c1.71,6.28,3,12.64,4.14,19s1.9,12.83,2.58,19.26,1.21,12.87,1.66,19.32l1.34,19.31c.4,6.44,1,12.86,1.58,19.29-2.32-12.71-3.68-25.59-5-38.42-.69-6.42-1.3-12.83-2.09-19.22s-1.6-12.77-2.7-19.1-2.34-12.62-4-18.82a155.53,155.53,0,0,0-5.86-18.28A118.68,118.68,0,0,0,448.71,29.2Z"/><path class="cls-4" d="M493.85,20.48c-.09,9.59-.32,19.16-.51,28.72l-.28,14.35-.23,14.34-.11,7.17-.08,7.17-.15,14.35c-.09,9.57-.15,19.14-.35,28.72-.91-9.54-1.43-19.12-1.73-28.7-.17-4.79-.21-9.58-.28-14.37s0-9.59.05-14.38.21-9.58.38-14.37.4-9.58.71-14.36C491.86,39.55,492.66,30,493.85,20.48Z"/><path class="cls-4" d="M436.18,64.33a43.51,43.51,0,0,0,6.52,9.81c2.56,3,5.37,5.74,8.14,8.59a83.09,83.09,0,0,1,7.93,9.06,43.85,43.85,0,0,1,5.7,10.78,69.81,69.81,0,0,1,3,11.71c.64,4,1.12,7.92,1.48,11.88.74,7.91,1.32,15.76,3,23.54-2.74-7.48-3.93-15.47-5.05-23.29s-2.24-15.66-5-22.92a43.17,43.17,0,0,0-5.25-10.25,102,102,0,0,0-7.4-9.11c-2.63-3-5.28-5.95-7.65-9.19A36.6,36.6,0,0,1,436.18,64.33Z"/><path class="cls-4" d="M497.83,185.81q-3.1,19.75-4.89,39.61l-.79,9.93-.6,10-.43,9.95-.21,9.95-.06,10,.17,10,.33,10,.53,9.95q1.28,19.89,3.84,39.72a342.15,342.15,0,0,1-5.91-39.56l-.78-10-.53-10-.24-10v-10l.28-10,.51-10,.79-10,1.05-9.95A345.13,345.13,0,0,1,497.83,185.81Z"/><path class="cls-4" d="M484.65,197.59c.22,9.09.19,18.18.06,27.26,0,4.54-.18,9.07-.27,13.61L484,252.08l-.56,13.6c-.23,4.54-.42,9.07-.7,13.61-.52,9.06-1.14,18.13-2,27.18-.23-9.09-.2-18.18-.07-27.26,0-4.54.18-9.08.27-13.62l.42-13.61.56-13.61c.23-4.53.42-9.07.7-13.6C483.16,215.71,483.78,206.64,484.65,197.59Z"/><path class="cls-4" d="M497.75,242.64a89.1,89.1,0,0,1,1.43,9.55c.34,3.2.55,6.39.68,9.59s.18,6.4.1,9.61a86.84,86.84,0,0,1-.64,9.64,84.33,84.33,0,0,1-1.43-9.55c-.34-3.19-.55-6.39-.68-9.59s-.18-6.4-.1-9.61A92,92,0,0,1,497.75,242.64Z"/><path class="cls-4" d="M463.4,7.58c1.8,4.39,3.34,8.86,4.8,13.34.75,2.24,1.42,4.5,2.12,6.75l2,6.79,1.84,6.83c.56,2.29,1.17,4.56,1.69,6.87,1.08,4.59,2.07,9.2,2.81,13.89-1.8-4.39-3.35-8.85-4.81-13.34-.75-2.23-1.41-4.49-2.12-6.74l-2-6.79-1.83-6.83c-.57-2.29-1.18-4.57-1.7-6.87C465.13,16.89,464.14,12.27,463.4,7.58Z"/><path class="cls-4" d="M494.52,146.26a53.07,53.07,0,0,1,1,6.37c.23,2.12.39,4.22.49,6.33s.16,4.23.14,6.35a50.27,50.27,0,0,1-.4,6.44,34.1,34.1,0,0,1-1.68-6.26,52.32,52.32,0,0,1-.63-12.83A34.45,34.45,0,0,1,494.52,146.26Z"/></g><path class="cls-13" d="M302.34,77.57a47.34,47.34,0,0,1-65.51,47.11h0a47.7,47.7,0,0,1-19.06-14.63,46.82,46.82,0,0,1-9.42-22h0c-.19-1.2-.32-2.4-.41-3.62A47.33,47.33,0,0,1,251.7,33.8c1.67-.12,3.34-.15,5-.11a47.37,47.37,0,0,1,36.19,18.75h0a46.92,46.92,0,0,1,8,16.54A45.75,45.75,0,0,1,302.34,77.57Z"/><path class="cls-14" d="M302.34,77.57a47.34,47.34,0,0,1-65.51,47.11h0a47.68,47.68,0,0,1-11.9-7.24,47.48,47.48,0,0,1-5.21-5.68,46.55,46.55,0,0,1-9.37-21.87h0c-.18-1.19-.31-2.38-.4-3.59a47.14,47.14,0,0,1,43.57-50.42,48.47,48.47,0,0,1,5-.1,47.14,47.14,0,0,1,34.42,16.66h0a46.92,46.92,0,0,1,8,16.54A45.75,45.75,0,0,1,302.34,77.57Z"/><path class="cls-15" d="M242,53.82a9,9,0,0,1-.8,2.38,13.64,13.64,0,0,1-9.48,6.95c-3.65.71-8.43-.26-10.06-3.85-3.48-7.67,7.74-19.3,15.94-14.8A8.71,8.71,0,0,1,242,53.82Z"/><path class="cls-15" d="M223,66.07a3.56,3.56,0,0,1-.19,1,5.23,5.23,0,0,1-3.25,3.11c-1.35.46-3.21.33-4-.95-1.71-2.74,2-7.72,5.3-6.43A3.35,3.35,0,0,1,223,66.07Z"/><path class="cls-14" d="M287.33,105.36a9.68,9.68,0,0,1-.47,2.58,13.79,13.79,0,0,1-8.4,8.49c-3.5,1.24-8.36.89-10.46-2.61-4.48-7.49,5-21.06,13.7-17.52A9.21,9.21,0,0,1,287.33,105.36Z"/><path class="cls-14" d="M221.33,106.93a5.77,5.77,0,0,0,.49,1.45,8,8,0,0,0,5.57,4.2c2.13.42,4.9-.2,5.82-2.4,1.95-4.7-4.67-11.74-9.39-9A5.37,5.37,0,0,0,221.33,106.93Z"/><path class="cls-14" d="M245.25,36.49a4.34,4.34,0,0,0-1.12.17,6,6,0,0,0-3.79,3.58c-.58,1.52-.47,3.64,1,4.59,3.22,2,9.23-2,7.78-5.8A4,4,0,0,0,245.25,36.49Z"/><path class="cls-14" d="M254.67,62.3a4.37,4.37,0,0,0-1.13.18,6,6,0,0,0-3.79,3.58c-.57,1.51-.47,3.63,1,4.58,3.21,2,9.23-2,7.77-5.79A4,4,0,0,0,254.67,62.3Z"/><path class="cls-14" d="M211.59,75.53a4.44,4.44,0,0,0-.81.81,6,6,0,0,0-1,5.12c.42,1.56,1.75,3.22,3.53,3.1,3.79-.24,6.32-7,2.89-9.25A4,4,0,0,0,211.59,75.53Z"/><path class="cls-14" d="M280.23,51.13a5.85,5.85,0,0,0-.65-1.39,8.48,8.48,0,0,0-6.31-3.55c-2.3-.18-5.18.74-5.94,3-1.63,4.9,6.07,11.17,10.81,7.87A5.29,5.29,0,0,0,280.23,51.13Z"/><path class="cls-14" d="M256.24,119.23a5.36,5.36,0,0,0-.66-1.39,8.41,8.41,0,0,0-6.31-3.55c-2.29-.18-5.17.74-5.93,3-1.63,4.9,6.06,11.17,10.81,7.87A5.31,5.31,0,0,0,256.24,119.23Z"/><g class="cls-16"><path class="cls-13" d="M302.34,77.57a47.34,47.34,0,0,1-65.51,47.11h0a47.54,47.54,0,0,1-19.06-14.63c10.23,3.52,21.11,4.93,31.72,3.11,15.6-2.69,30.27-13.2,35.42-28.16a42,42,0,0,0-1-28.76,47.14,47.14,0,0,0-16.29-20.9A47.42,47.42,0,0,1,300.92,69,45.75,45.75,0,0,1,302.34,77.57Z"/></g><path class="cls-4" d="M500,333.18V500H0V333.18a1771.81,1771.81,0,0,1,188.25-16.95l4.78-.15q29.06-1,58.06-1h7.52A1726.57,1726.57,0,0,1,500,333.18Z"/><path class="cls-4" d="M500,333.18V500H0V333.18a1771.81,1771.81,0,0,1,188.25-16.95l4.78-.15q29.06-1,58.06-1h7.52A1726.57,1726.57,0,0,1,500,333.18Z"/><path class="cls-17" d="M500,333.18V453.11c-1.33-1.13-2.57-2.21-3.67-3.08a204.72,204.72,0,0,0-29.6-19.89c-21-11.29-42.5-19-64-25.2-19.09-5.47-38.47-2-57.41-7.78-5-1.54-19.75-6-18.84-20.9.81-13.1,18.11-19.79,14.05-31.69-3.27-9.59-108.61-21.72-282.45,2.24-19.73,2.72-38.74,14.67-58,23.08V333.18a1771.81,1771.81,0,0,1,188.25-16.95l4.78-.15q29.06-1,58.06-1h7.52A1726.57,1726.57,0,0,1,500,333.18Z"/><ellipse class="cls-18" cx="349.27" cy="417.7" rx="76.65" ry="11.94"/><ellipse class="cls-19" cx="114.82" cy="425.03" rx="89.08" ry="11.94" transform="translate(-12.63 3.61) rotate(-1.71)"/><path class="cls-20" d="M57.53,309.6a24.59,24.59,0,0,0,11.32,10.5,58.62,58.62,0,0,0,15,4.55c21.42,4.18,44.49,4.59,64.18-4.83l2.59-17c-5-.68-10-1.37-14.64-3.22s-9-5-11.2-9.52a17.16,17.16,0,0,1,1-16.26c.33-.54.71-1.07,1.09-1.58a11.36,11.36,0,0,0,2.35-6,10.85,10.85,0,0,0-.05-2.61,11.31,11.31,0,0,0-1.92-4.89,10.91,10.91,0,0,0-1.1-1.36,11.88,11.88,0,0,0-2.54-2l-.16-.08a16.28,16.28,0,0,0-5.84-2.4A12,12,0,0,0,110,255c-7,4.32-11.08,12.06-14.16,19.68s-5.62,15.68-10.77,22.09C78.5,305,68,309.59,57.53,309.6Z"/><g class="cls-11"><path class="cls-20" d="M57.52,309.6a24.56,24.56,0,0,0,11.33,10.5,59.07,59.07,0,0,0,15,4.55,138.78,138.78,0,0,0,31.69,2.74c-4.81-.49-9.6-1.22-14.31-2.14a59.14,59.14,0,0,1-15-4.55c-4.71-2.32-9-5.83-11.33-10.5,10.46,0,21-4.66,27.53-12.82,5.17-6.41,7.69-14.46,10.77-22.08,2.8-7,6.45-14,12.38-18.46a10.69,10.69,0,0,0-1.93-1.42l-.18-.08a16.19,16.19,0,0,0-5.82-2.4A12,12,0,0,0,110,255c-7,4.32-11.08,12.06-14.16,19.68s-5.6,15.68-10.76,22.09C78.5,305,68,309.59,57.52,309.6Z"/></g><path class="cls-21" d="M96.07,310.93A18.06,18.06,0,0,0,107,303.68c5.6-7.54,6.06-17.26,9.28-25.81,1.58-4.18,4.05-7.73,6.59-11.36a38.35,38.35,0,0,0,4.44-7.76,10.91,10.91,0,0,0-1.1-1.36c-1.24,3.59-3.52,6.73-5.7,9.84a46,46,0,0,0-5.93,10.91c-1.44,4.11-2.33,8.38-3.48,12.57-2.16,7.77-6.25,17-15.09,18.7C95,309.59,95.1,311.11,96.07,310.93Z"/><path class="cls-21" d="M113.25,304.05a24.24,24.24,0,0,0,5.48-9.18,27.81,27.81,0,0,0,1.15-9.73c-.12-3.4-.18-6.76,1.59-9.81,2-3.46,5.33-5.95,7.77-9.08a10.85,10.85,0,0,0-.05-2.61,30.62,30.62,0,0,1-4.61,5.56,26,26,0,0,0-4.88,6.24c-1.49,3-1.47,6.23-1.36,9.46A26.33,26.33,0,0,1,117.11,295a23,23,0,0,1-5,8.09C111.45,303.75,112.58,304.76,113.25,304.05Z"/><path class="cls-21" d="M114.26,307.12a23,23,0,0,0,7.85-16.76c0-1,1.54-1.07,1.52-.09a24.67,24.67,0,0,1-8.52,18.11C114.37,309,113.53,307.75,114.26,307.12Z"/><path class="cls-21" d="M99.48,277.12c2.1-4.55,3.24-9.55,5.84-13.87,2.13-3.54,5.28-6.69,9.43-7.62.94-.21,1.45,1.22.49,1.44-9.32,2.09-11,13.43-14.4,20.74C100.43,278.69,99.07,278,99.48,277.12Z"/><path class="cls-21" d="M96.1,299.05c5.29-4.59,7.33-11.6,9.09-18.12s3.59-13.36,8.3-18.49c.66-.72,1.8.28,1.13,1C105.06,273.87,108,290.76,97,300.31,96.21,301,95.37,299.69,96.1,299.05Z"/><path class="cls-21" d="M90.29,302.48a93.36,93.36,0,0,1,8-20.06c.47-.86,1.82-.18,1.36.68a91.43,91.43,0,0,0-7.91,19.69C91.52,303.72,90,303.42,90.29,302.48Z"/><path class="cls-7" d="M147.24,302.63,150.71,356l.69,10.58.12,1.79,1.75,27.05,1.3,19.94c.43.11.89.18,1.33.26a28.24,28.24,0,0,0,3.77.34c10.59.34,21.19-4.76,28.61-12.48a56.7,56.7,0,0,0,11.52-18.38,85.87,85.87,0,0,0,3.52-10.89c.31-1.31.61-2.61.87-3.91a92.5,92.5,0,0,0,2-19.2c0-1.56,0-3.12-.13-4.68-.06-.93-.13-1.84-.22-2.77a67.36,67.36,0,0,0-1.92-10.71c-3.2-12.15-10.18-23.5-20.43-30.75-5.41-3.82-11.78-6.49-18.41-6.71a24.43,24.43,0,0,0-9,1.41,20.63,20.63,0,0,0-8.24,5.23C147.6,302.24,147.42,302.44,147.24,302.63Z"/><path class="cls-22" d="M202.16,359.68c-3.07,1.91-6.89,1.32-8.52-1.31s-.45-6.3,2.62-8.21,6.88-1.31,8.51,1.31S205.23,357.78,202.16,359.68Z"/><g class="cls-23"><path class="cls-7" d="M147.25,302.63l6,92.75,1.3,19.95,1.33.25a41.5,41.5,0,0,0,18.74-11.28,56.63,56.63,0,0,0,11.52-18.38,83.63,83.63,0,0,0,4.39-14.81c2.53-12.31,2.92-25.2-.29-37.35s-10.18-23.5-20.43-30.75A36.7,36.7,0,0,0,156,296.85a20.77,20.77,0,0,0-8.23,5.23A5.53,5.53,0,0,0,147.25,302.63Z"/></g><path class="cls-7" d="M126,417.49c1.61.64,3.26,1.24,5,1.74l.6.18c7.66,2.25,15.88,2.85,23.05-.4a25.11,25.11,0,0,0,5.06-3.09,37.53,37.53,0,0,0,9.65-11.71,60.14,60.14,0,0,0,5.28-13.08c3.25-11.66,3.41-24.31,2.24-36.47-1-10.22-2.9-20.5-7.26-29.81s-11.33-17.66-20.56-22.2c-.41-.2-.83-.38-1.25-.57a31.74,31.74,0,0,0-23.75-1l-.7.27a23.74,23.74,0,0,0-3.83,1.94l5.38,94.07Z"/><path class="cls-7" d="M126,417.49c1.61.64,3.26,1.24,5,1.74l.6.18c7.66,2.25,15.88,2.85,23.05-.4a25.11,25.11,0,0,0,5.06-3.09,37.53,37.53,0,0,0,9.65-11.71,60.14,60.14,0,0,0,5.28-13.08c3.25-11.66,3.41-24.31,2.24-36.47-1-10.22-2.9-20.5-7.26-29.81s-11.33-17.66-20.56-22.2c-.41-.2-.83-.38-1.25-.57a31.74,31.74,0,0,0-23.75-1l-.7.27a23.74,23.74,0,0,0-3.83,1.94l5.38,94.07Z"/><g class="cls-24"><path class="cls-7" d="M126,417.49c1.61.64,3.26,1.24,5,1.74l.6.18c.45-.17.89-.36,1.33-.56a24.39,24.39,0,0,0,5.06-3.09,37.42,37.42,0,0,0,9.65-11.71A59.64,59.64,0,0,0,152.89,391c3.25-11.65,3.42-24.31,2.24-36.46-1-10.22-2.9-20.51-7.25-29.82S136.54,307,127.31,302.5c-.4-.21-.83-.39-1.25-.58-.66-.29-1.34-.55-2-.81l-.7.27a23.74,23.74,0,0,0-3.83,1.94l5.38,94.07Z"/></g><path class="cls-7" d="M20.93,381.77c4,11.77,10.27,23.12,19.94,30.94,8.33,6.73,19.49,10.45,29.94,8.79a28.16,28.16,0,0,0,5-1.22L73.23,378,69,307.55l-.58-.48a22,22,0,0,0-13.75-4.74,25.11,25.11,0,0,0-4.25.32c-6.54,1.05-12.51,4.49-17.4,9-9.27,8.48-14.77,20.61-16.44,33.07S16.88,369.87,20.93,381.77Z"/><g class="cls-23"><path class="cls-7" d="M20.93,381.77c4,11.77,10.27,23.12,19.94,30.94,8.33,6.73,19.49,10.45,29.94,8.79a28.16,28.16,0,0,0,5-1.22L75.17,410a40.58,40.58,0,0,1-24.11-9.17c-9.67-7.82-15.93-19.17-19.94-30.93s-6.05-24.64-4.4-37.1a58,58,0,0,1,7.82-22.5c-.54.43-1.06.88-1.57,1.34-9.27,8.48-14.77,20.62-16.44,33.07S16.88,369.87,20.93,381.77Z"/></g><path class="cls-7" d="M59.77,411.09a37.38,37.38,0,0,0,11,10.41,24.32,24.32,0,0,0,5.4,2.43c6.3,1.95,13,1.14,19.25-1l.18-.07a58.23,58.23,0,0,0,8.76-4l-1.65-24.13-6.17-90a23.87,23.87,0,0,0-2.7-1c-.4-.15-.82-.26-1.22-.37-8.06-2.23-17-.63-24.29,3.72-.4.24-.79.47-1.17.73a38.42,38.42,0,0,0-8.61,7.78,50.85,50.85,0,0,0-9,16.81c-3.14,9.78-3.75,20.22-3.46,30.49C46.59,379.84,49.76,397.39,59.77,411.09Z"/><path class="cls-7" d="M59.77,411.09a37.38,37.38,0,0,0,11,10.41,24.32,24.32,0,0,0,5.4,2.43c6.3,1.95,13,1.14,19.25-1l.18-.07a58.23,58.23,0,0,0,8.76-4l-1.65-24.13-6.17-90a23.87,23.87,0,0,0-2.7-1c-.4-.15-.82-.26-1.22-.37-8.06-2.23-17-.63-24.29,3.72-.4.24-.79.47-1.17.73a38.42,38.42,0,0,0-8.61,7.78,50.85,50.85,0,0,0-9,16.81c-3.14,9.78-3.75,20.22-3.46,30.49C46.59,379.84,49.76,397.39,59.77,411.09Z"/><g class="cls-24"><path class="cls-7" d="M78.87,409.89a37.54,37.54,0,0,0,11,10.41,24.32,24.32,0,0,0,5.4,2.43l.32.09a58.23,58.23,0,0,0,8.76-4l-1.65-24.13-6.17-90a23.87,23.87,0,0,0-2.7-1c-.4-.15-.82-.26-1.22-.37a32.28,32.28,0,0,0-5.19,2.52c-.39.24-.79.47-1.17.72a38.92,38.92,0,0,0-8.61,7.79,51,51,0,0,0-9,16.81c-3.15,9.78-3.75,20.22-3.46,30.49C65.7,378.64,68.87,396.19,78.87,409.89Z"/></g><path class="cls-7" d="M79.07,383.72c.24,1.41.51,2.82.78,4.22,2.06,10.43,4.68,22,11.32,30.57a26.57,26.57,0,0,0,4.29,4.38,24.8,24.8,0,0,0,22.4,4.63A27.77,27.77,0,0,0,131,419.23a47.34,47.34,0,0,0,8.31-13.48c.41-1,.8-2,1.19-3q1.17-3,2.13-6A99.58,99.58,0,0,0,139,325.27c-3.58-8.07-7.51-16.9-14.29-22.82a15.46,15.46,0,0,0-1.35-1.07,22.13,22.13,0,0,0-23.14-1.83,30.82,30.82,0,0,0-6.31,4.17c-7.66,6.44-12.39,16.31-15,26.52a88,88,0,0,0-2.7,19.8A171.91,171.91,0,0,0,79.07,383.72Z"/><path class="cls-22" d="M104,374.44c4.94,2.67,10.8,1.4,13.08-2.82s.13-9.81-4.81-12.48-10.79-1.41-13.08,2.82S99,371.77,104,374.44Z"/><g class="cls-25"><path class="cls-7" d="M78.87,383.73c.24,1.41.51,2.83.78,4.22,2.06,10.43,4.69,22,11.32,30.57a26.63,26.63,0,0,0,4.3,4.38,24.81,24.81,0,0,0,22.39,4.64,27.82,27.82,0,0,0,13.11-8.3,47.34,47.34,0,0,0,8.31-13.48c.41-1,.8-2,1.2-3q1.16-3,2.13-6a100.38,100.38,0,0,0,3.26-49.22,101.25,101.25,0,0,1-4.76,25.42q-1,3-2.13,6.05c-.39,1-.79,2-1.2,3a47.12,47.12,0,0,1-8.31,13.48,27.75,27.75,0,0,1-13.11,8.29,24.82,24.82,0,0,1-22.39-4.63,25.87,25.87,0,0,1-4.29-4.39c-6.64-8.58-9.27-20.13-11.32-30.56-.27-1.4-.54-2.81-.78-4.23-.54-3-1-6.09-1.42-9.17A171,171,0,0,0,78.87,383.73Z"/></g><g class="cls-26"><path class="cls-7" d="M111,302.67a8.94,8.94,0,0,1,6.8-.25c4.66,1.61,8.16,5.76,10,10.19,1.77,4.17,2.75,10.33-.43,14.11-1.91,2.28-5.41,2.72-8.22,1.73s-5.06-3.12-7-5.35c-2.62-3-5-6.37-5.62-10.28S107.49,304.43,111,302.67Z"/></g><g class="cls-26"><path class="cls-7" d="M165.94,297.87a12.32,12.32,0,0,1,7.08,1.35,37,37,0,0,1,10.91,7.45,8.49,8.49,0,0,1,1.12,1.28c.42.46.85.91,1.23,1.4a9.08,9.08,0,0,1,2,3.71,3.94,3.94,0,0,1-1.21,3.85,4.19,4.19,0,0,1-4.24.19,17.37,17.37,0,0,1-3.61-2.61,28.89,28.89,0,0,0-9.24-5.08,27.57,27.57,0,0,1-5.49-2,5.79,5.79,0,0,1-3.15-4.64C161.29,300.31,163.55,298.31,165.94,297.87Z"/></g><path class="cls-4" d="M112.75,338.09c0,.05-.06.08,0,0h0Z"/><path class="cls-4" d="M178.8,344.45a10,10,0,0,0,14.21-7.1,11.15,11.15,0,0,0-.4-5.49,8.78,8.78,0,0,0-.33-.85,18.85,18.85,0,0,0-4.48-6l-.05-.1a180.94,180.94,0,0,0-14.31,12.51A10.07,10.07,0,0,0,178.8,344.45Z"/><path class="cls-7" d="M177.92,346.08a10.76,10.76,0,0,0,15.36-7.67,12.24,12.24,0,0,0-.67-6.55,11.15,11.15,0,0,1,.4,5.49,10,10,0,0,1-19.57,0,180.94,180.94,0,0,1,14.31-12.51l0-.05a195.84,195.84,0,0,0-15.6,13.63A10.89,10.89,0,0,0,177.92,346.08Z"/><g class="cls-11"><path class="cls-7" d="M177.92,346.08a10.76,10.76,0,0,0,15.36-7.67,12.24,12.24,0,0,0-.67-6.55,11.15,11.15,0,0,1,.4,5.49,10,10,0,0,1-19.57,0,180.94,180.94,0,0,1,14.31-12.51l0-.05a195.84,195.84,0,0,0-15.6,13.63A10.89,10.89,0,0,0,177.92,346.08Z"/></g><path class="cls-4" d="M178.8,344.45a10,10,0,0,0,14.21-7.1,11.15,11.15,0,0,0-.4-5.49,14.07,14.07,0,0,0-.52-1.36,17,17,0,0,0-4.15-5.59l-.07-.14a.63.63,0,0,0-.12.11,180.94,180.94,0,0,0-14.31,12.51A10.07,10.07,0,0,0,178.8,344.45Z"/><path class="cls-7" d="M139.32,354.33a10.77,10.77,0,0,1-16.73,3.87,12.39,12.39,0,0,1-3.66-5.48,11.14,11.14,0,0,0,3.19,4.48,10,10,0,0,0,15.12-12.43,179.86,179.86,0,0,0-19-.53v-.06a196.06,196.06,0,0,1,20.71.57A10.93,10.93,0,0,1,139.32,354.33Z"/><g class="cls-11"><path class="cls-7" d="M139.32,354.33a10.77,10.77,0,0,1-16.73,3.87,12.39,12.39,0,0,1-3.66-5.48,11.14,11.14,0,0,0,3.19,4.48,10,10,0,0,0,15.12-12.43,179.86,179.86,0,0,0-19-.53v-.06a196.06,196.06,0,0,1,20.71.57A10.93,10.93,0,0,1,139.32,354.33Z"/></g><path class="cls-4" d="M137.6,353.62a10,10,0,0,1-15.48,3.58,11.14,11.14,0,0,1-3.19-4.48,13.13,13.13,0,0,1-.46-1.38,17,17,0,0,1-.36-6.95l0-.15h.17a179.86,179.86,0,0,1,19,.53A10.08,10.08,0,0,1,137.6,353.62Z"/><path class="cls-4" d="M144.08,341.16c.3.24,4,4.5,7.48,4a39.8,39.8,0,0,0,4.16,5.84l.49-6.73,4.6,5.16.15-6.9a20.92,20.92,0,0,0,4.16-7.85,23.72,23.72,0,0,1,3,10.35,13.93,13.93,0,0,1-3,9.08,10.28,10.28,0,0,1-9.06,3.73c-3.13-.38-5.75-2.44-7.66-4.85A23,23,0,0,1,144.08,341.16Z"/><path class="cls-7" d="M148.36,353c1.9,2.42,4.51,4.48,7.65,4.85a10.26,10.26,0,0,0,9.05-3.72,14,14,0,0,0,3-9.09,21.11,21.11,0,0,0-1.65-7.52,19.45,19.45,0,0,1,1,5.71,13.84,13.84,0,0,1-3,9.08,10.26,10.26,0,0,1-9.05,3.72c-3.13-.37-5.75-2.44-7.65-4.84a18.54,18.54,0,0,1-2.57-4.55A19.63,19.63,0,0,0,148.36,353Z"/><path class="cls-9" d="M148.36,353c1.9,2.42,4.51,4.48,7.65,4.85a10.26,10.26,0,0,0,9.05-3.72,14,14,0,0,0,3-9.09,21.11,21.11,0,0,0-1.65-7.52,19.45,19.45,0,0,1,1,5.71,13.84,13.84,0,0,1-3,9.08,10.26,10.26,0,0,1-9.05,3.72c-3.13-.37-5.75-2.44-7.65-4.84a18.54,18.54,0,0,1-2.57-4.55A19.63,19.63,0,0,0,148.36,353Z"/><path class="cls-27" d="M118.18,337.72a3.52,3.52,0,0,1-.11-1.61,6.51,6.51,0,0,1,2.63-3.85c2.45-1.91,9-4.76,10.85-.76a3.35,3.35,0,0,1-.23,3.38c-1.15,1.58-3.11,1.28-4.71,1.91a14,14,0,0,0-3,2,4.29,4.29,0,0,1-3.38,1A2.94,2.94,0,0,1,118.18,337.72Z"/><path class="cls-27" d="M183.93,321.53a3.55,3.55,0,0,0-.53-1.52,6.49,6.49,0,0,0-3.93-2.52c-3-.8-10.12-.86-10.28,3.55a3.37,3.37,0,0,0,1.53,3c1.68,1,3.37,0,5.08-.08a13.79,13.79,0,0,1,3.57.71,4.24,4.24,0,0,0,3.51-.38A3,3,0,0,0,183.93,321.53Z"/><path class="cls-28" d="M213.73,260.81a21.18,21.18,0,0,0,5.63,10.12,13.1,13.1,0,0,0,10.69,3.67c5.16-.78,9.47-5.23,14.69-5.07,3.56.1,6.63,2.33,9.72,4.09a41.67,41.67,0,0,0,22.72,5.31c7-.41,14.8-3.39,17.38-10l.2-.78.49-1.86,6.13-23.43c-8.37,3.22-17.84.37-25.88-3.62s-15.67-9.18-24.46-11a34.37,34.37,0,0,0-31.16,9.87c-.39.39-.75.79-1.09,1.19a27.58,27.58,0,0,0-2.27,3h0a21.87,21.87,0,0,0-3.09,6.84A23.39,23.39,0,0,0,213.73,260.81Z"/><g class="cls-29"><path class="cls-28" d="M215.64,245a19.4,19.4,0,0,1,.88-2.67h0a27.58,27.58,0,0,1,2.27-3c.34-.4.7-.8,1.09-1.19A34.37,34.37,0,0,1,251,228.29a39.06,39.06,0,0,1,5.66,1.64c-.51,3.33-1.34,6.59-2,9.89s-.94,6.93-1.26,10.41-.61,7-.83,10.43q-.19,3.16-.31,6.31a12.52,12.52,0,0,0-5.36-1.59c-5.22-.16-9.51,4.28-14.68,5.07a13.16,13.16,0,0,1-10.7-3.69,21,21,0,0,1-5.61-10.1A23.58,23.58,0,0,1,215.64,245Z"/></g><g class="cls-29"><path class="cls-28" d="M219.14,240.45a16.48,16.48,0,0,1,.74-2.29A34.37,34.37,0,0,1,251,228.29a39.06,39.06,0,0,1,5.66,1.64c-.51,3.33-1.34,6.59-2,9.89s-.94,6.93-1.26,10.41-.61,7-.83,10.43c0,.15,0,.3,0,.45a9.64,9.64,0,0,0-2.14-.33c-5.22-.15-9.53,4.29-14.7,5.07a13.06,13.06,0,0,1-10.69-3.68,21.13,21.13,0,0,1-5.62-10.11A23.43,23.43,0,0,1,219.14,240.45Z"/></g><path class="cls-28" d="M292,353.47s8.42,5.09,11.91,7.32c27.36,17.46,64.47,15.9,93.45,3.35,37.55-16.27,67-53.61,71.69-94.53a102.83,102.83,0,0,0,.37-20.23,107.88,107.88,0,0,0-50.54-82.49,101.47,101.47,0,0,0-23.66-10.74c-1-.29-1.91-.56-2.88-.83-28.4-7.82-59.72-3.75-84.83,11.84A106.4,106.4,0,0,0,281,190.61c-.79,1-1.57,2-2.31,3a106.36,106.36,0,0,0,18,146.64l.15.13c5.35,4.31,2.55,13-4.32,13.11Z"/><path class="cls-30" d="M299.29,351.45s8.34,4.62,11.8,6.63c27.14,15.82,63,12.88,90.49-.37,35.7-17.19,62.71-54.43,65.7-94.18a100.06,100.06,0,0,0-.42-19.58,104.31,104.31,0,0,0-56.13-80c-1.8-.92-3.65-1.78-5.53-2.59-.92-.4-1.86-.8-2.82-1.16s-1.89-.74-2.85-1.08c-.64-.23-1.27-.45-1.91-.66a2.53,2.53,0,0,0-.36-.12c-.49-.17-1-.34-1.5-.48s-1.11-.36-1.68-.52l-1.39-.38a4.28,4.28,0,0,0-.51-.15c-.27-.08-.52-.15-.78-.21l-.13,0c-.51-.14-1-.26-1.52-.38-1.67-.42-3.37-.78-5.08-1.1,0,0-.08,0-.13,0a105.55,105.55,0,0,0-43.78.94c-1.4.33-2.82.69-4.2,1.09-2.38.65-4.7,1.39-7,2.22a100,100,0,0,0-22.47,11.34,103,103,0,0,0-24.67,23.59l-.07.09,0,0-.05.06c-.71.95-1.42,1.92-2.07,2.9-.26.36-.52.75-.77,1.13-1.14,1.67-2.21,3.37-3.23,5.08-.61,1-1.2,2.08-1.76,3.13-1.32,2.39-2.52,4.79-3.6,7.25-.46,1-.89,2-1.31,3-.29.72-.59,1.45-.87,2.19a103,103,0,0,0,34.6,119.32l.15.12c5.34,4,3,12.46-3.68,12.85Z"/><path class="cls-30" d="M308.63,351.84s8.47,3.89,12,5.62c27.61,13.5,62.37,8.06,88.29-6.85,33.6-19.33,57.3-57.61,57.36-96.61a98.62,98.62,0,0,0-1.81-19.09c-7.78-39.84-39.88-72.38-79.8-79.79-28.4-5.28-58.65,1.79-81.37,19.73a100.84,100.84,0,0,0-22.48,24.9c-.64,1-1.27,2-1.86,3.05a100.73,100.73,0,0,0,32.61,136.07l.16.11c5.49,3.48,3.78,11.94-2.66,12.8Z"/><path class="cls-31" d="M302.5,201.55a3.55,3.55,0,0,1-.06-1.62,6.47,6.47,0,0,1,2.74-3.77c2.61-1.91,9.62-4.69,11.05.05a3.27,3.27,0,0,1-1.24,3.57c-1.17.76-2.71.61-4,1.09a13.66,13.66,0,0,0-3.07,2,4.3,4.3,0,0,1-3.41.93A3,3,0,0,1,302.5,201.55Z"/><path class="cls-31" d="M356.69,188.81a4.44,4.44,0,0,1,1-1.71,8,8,0,0,1,5.37-2c4-.22,13.08,1.62,11.37,7.47a4,4,0,0,1-3.67,2.85c-1.73,0-3.22-1.19-4.9-1.59a17.67,17.67,0,0,0-4.48,0,5.23,5.23,0,0,1-4.14-1.33A3.63,3.63,0,0,1,356.69,188.81Z"/><path class="cls-4" d="M312.59,223.54c.77,5.13-.16,13.36-4.86,16.63-6.45,4.49-11.27-8.8-11.81-13a21.45,21.45,0,0,1,0-5.37,13.54,13.54,0,0,1,2.21-6.06l14.27,6.84C312.48,222.89,312.54,223.22,312.59,223.54Z"/><path class="cls-4" d="M377.88,212.59c.77,5.13-.16,13.36-4.86,16.63-6.46,4.49-11.27-8.8-11.81-13a21.45,21.45,0,0,1,0-5.37,13.43,13.43,0,0,1,2.21-6.06l14.26,6.84C377.77,211.94,377.82,212.27,377.88,212.59Z"/><path class="cls-22" d="M283.39,253.47c4.86,2.82,10.74,1.73,13.15-2.42s.42-9.81-4.44-12.62-10.74-1.73-13.15,2.43S278.53,250.66,283.39,253.47Z"/><ellipse class="cls-22" cx="395.49" cy="227.88" rx="10.16" ry="8.69" transform="translate(-35.62 377.84) rotate(-49.13)"/><path class="cls-4" d="M356,252.39c-.25.26-.51.51-.77.74a30.19,30.19,0,0,1-22.82,8.2,23.43,23.43,0,0,1-14.18-6c-.1-.1-.23-.22-.33-.33-.35-.36-.67-.71-1-1.1a12.21,12.21,0,0,1-3.05-6.83,9.52,9.52,0,0,1,4.81-8.59l2.46,8.16,6-8.64h0c2.54,1,5,2.36,7.65,2,3.15-.41,5.13-2.93,7.13-5.57l7.28,4.82-.9-10.76a10.28,10.28,0,0,1,10.69,2.42C365.73,237.68,361.7,246.68,356,252.39Z"/><path class="cls-32" d="M355.58,251.61a6,6,0,0,1,.44.78c-.23.25-.48.49-.72.73l0,0a30.23,30.23,0,0,1-22.83,8.19,24,24,0,0,1-12.91-4.87c-.43-.36-.86-.73-1.27-1.12-.11-.1-.22-.22-.33-.33a26.89,26.89,0,0,1,8-7.52C336.72,240.79,350,242.62,355.58,251.61Z"/><path class="cls-33" d="M355.3,253.12l0,0a30.23,30.23,0,0,1-22.83,8.19,24,24,0,0,1-12.91-4.87,26.37,26.37,0,0,1,7-6.2C336.8,243.88,349.32,245.23,355.3,253.12Z"/><polygon class="cls-32" points="267.34 366.23 215.72 363.71 207.62 295.16 282.09 298.79 267.34 366.23"/><polygon class="cls-7" points="264.91 366.11 218.16 363.83 211.14 295.33 278.57 298.62 264.91 366.11"/><path class="cls-34" d="M241.91,357.22h0c-12.51-.61-22.76-9-24.12-19.82l-4.59-36.63L276,303.84l-8.14,36C265.45,350.45,254.43,357.83,241.91,357.22Z"/><path class="cls-34" d="M242.14,352.5h0a20.9,20.9,0,0,1-19.86-18.62l-3.6-34.66,52,2.54-7,34.14A20.91,20.91,0,0,1,242.14,352.5Z"/><polygon class="cls-32" points="238.4 364.84 238.41 364.7 239.94 301.87 243.78 302.08 248.97 302.34 244.65 365.16 238.4 364.84"/><polygon class="cls-35" points="239.49 364.76 238.41 364.7 239.94 301.87 243.78 302.08 239.49 364.76"/><polygon class="cls-32" points="229.35 364.39 223.1 364.07 223.09 363.95 215 300.61 219.18 300.82 224 301.07 229.35 364.39"/><polygon class="cls-35" points="224.49 364.01 223.09 363.95 215 300.61 219.18 300.82 224.49 364.01"/><polygon class="cls-32" points="272.37 303.54 258.4 365.86 252.16 365.56 252.19 365.45 263.35 303.07 268.05 303.32 272.37 303.54"/><polygon class="cls-35" points="268.05 303.32 254.14 365.53 252.19 365.45 263.35 303.07 268.05 303.32"/><path class="cls-32" d="M269.27,369.42a1.81,1.81,0,0,1-.17.59,2.71,2.71,0,0,1-2.66,1.64l-50.35-2.45a2.74,2.74,0,0,1-2.48-1.9,1.82,1.82,0,0,1-.11-.63,1.2,1.2,0,0,1,0-.42,2.74,2.74,0,0,1,2.87-2.5l50.38,2.46A2.71,2.71,0,0,1,269.27,369.42Z"/><path class="cls-35" d="M269.27,369.42a1.81,1.81,0,0,1-.17.59,2.71,2.71,0,0,1-2.66,1.64l-50.35-2.45a2.74,2.74,0,0,1-2.48-1.9,1.82,1.82,0,0,1-.11-.63,3.22,3.22,0,0,1,.62,0l54.37,2.66A4.71,4.71,0,0,1,269.27,369.42Z"/><path class="cls-32" d="M289.3,302.89c-27.05,12.84-57,9.81-88.92-4.57a2.9,2.9,0,0,1-.42-5.08l.66-.44,5-3.25,31.62-20.63,2.72-1.77h.46l6-.15,5.89-.15h.78l5.37,4.55,26.2,22.18L290,298A2.91,2.91,0,0,1,289.3,302.89Z"/><g class="cls-36"><path class="cls-32" d="M251.65,305c-.43.71-1.42.73-2.25.66a142.42,142.42,0,0,1-48.78-12.85l5-3.25,31.62-20.63,2.72-1.77h.46l6-.15c-.6.85-1.36,1.67-1.93,2.52a8.87,8.87,0,0,0-1.36,6.79,9,9,0,0,0,4,5.66c1.1.68,2.36,1.11,3.46,1.79a4.3,4.3,0,0,1,2.23,3.06,4.14,4.14,0,0,1-2.32,3.74,35.28,35.28,0,0,1-4.31,1.74,5.48,5.48,0,0,0-3.32,3.06,4.62,4.62,0,0,0,1.64,4.71,12.28,12.28,0,0,0,4.76,2.2,5.07,5.07,0,0,1,1.87.86A1.59,1.59,0,0,1,251.65,305Z"/></g><path class="cls-35" d="M284.7,293.56a2,2,0,0,1-.81.56c-23.42,9.51-49.47,7.05-77.33-3.94a2.59,2.59,0,0,1-.94-.63l31.62-20.63,3.18-1.78.37-.2,11.47-.15.09,0,6.15,4.54Z"/><path class="cls-32" d="M245.49,246.18,235.05,261a4.25,4.25,0,0,0,1.78,6.35c8.81,3.78,16,3,20.26,1.7a4.26,4.26,0,0,0,2.76-5.76l-7-16.37A4.25,4.25,0,0,0,245.49,246.18Z"/><circle class="cls-28" cx="237.14" cy="248.47" r="15.21" transform="translate(-75.35 105.92) rotate(-21.82)"/><circle class="cls-30" cx="237.14" cy="248.47" r="15.21" transform="translate(-70.4 95.52) rotate(-19.89)"/><circle class="cls-30" cx="237.14" cy="248.47" r="15.21" transform="translate(-70.4 95.52) rotate(-19.89)"/><path class="cls-28" d="M394.76,307.36a39.74,39.74,0,0,0,17.31-14.07c1.92-2.8,3.63-6,6.65-7.58,4.43-2.31,10-.29,14.75-1.78a12.53,12.53,0,0,0,7.66-7.64,20.24,20.24,0,0,0,.61-11.05,23.2,23.2,0,0,0-3.86-9.16c-.23-.32-.48-.63-.73-.94s-.43-.49-.65-.72a23.74,23.74,0,0,0-8.1-5.51,32.86,32.86,0,0,0-32.35,4c-.29.21-.57.44-.84.67-6.24,5.26-9.57,13.41-15.6,19a43,43,0,0,0-3.08,3.16c-10.82,12.41-5.56,23.2-2.31,27.78a18.58,18.58,0,0,0,1.91,2.32C380.62,310.63,388.53,310,394.76,307.36Z"/><g class="cls-37"><path class="cls-28" d="M393.06,304.56a39.51,39.51,0,0,0,17.3-14.06c1.93-2.81,3.65-6,6.66-7.59,4.42-2.31,10-.29,14.75-1.77a12.48,12.48,0,0,0,7.65-7.65,20.17,20.17,0,0,0,.61-11,24.49,24.49,0,0,0-2.15-6.38c-.15-.2-.3-.41-.46-.6l-.27-.34c-.21-.25-.43-.49-.65-.72a23.74,23.74,0,0,0-8.1-5.51,32.86,32.86,0,0,0-32.35,4c-.29.21-.57.44-.84.67-6.24,5.26-9.57,13.41-15.6,19a20.83,20.83,0,0,1-2.36,2.52,13.45,13.45,0,0,0-1.34,1.38c-5.39,6.53-6.39,12.59-5.65,17.48l0,.13a14.8,14.8,0,0,0,17.24,12.16A27.94,27.94,0,0,0,393.06,304.56Z"/></g><g class="cls-38"><path class="cls-28" d="M390.92,298.77c6.95-3.1,13.12-9.49,16.91-15,1.92-2.82,3.64-6,6.65-7.6,5.08-2.67,11.11.15,16.31-2.45a12.55,12.55,0,0,0,5.75-6.37,18,18,0,0,0,.88-11.87l-.27-.34c-.21-.25-.43-.49-.65-.72a23.74,23.74,0,0,0-8.1-5.51,32.86,32.86,0,0,0-32.35,4c-.29.21-.57.44-.84.67-6.24,5.26-9.57,13.41-15.6,19a22.6,22.6,0,0,1-3.08,3.16c-4,4.63-5.83,9-6.33,13a9.93,9.93,0,0,0,5,10l.07,0C380.49,301.5,385.9,301,390.92,298.77Z"/></g><path class="cls-28" d="M403.29,247.94c-12.18,5.23-21.77,16-28.3,27.27-3.2,5.55-6.05,12.27-5.34,18.82.59,5.42,3.57,10.79,8.45,13.47a15.69,15.69,0,0,0,7.82,1.75c2.34,0,5.49,0,7.44-1.48,1.52-1.16,0-3.76-1.52-2.6s-3.86,1.06-5.61,1.08a13.46,13.46,0,0,1-5.86-1c-4.44-2-7.31-6.83-7.75-11.6-.55-5.95,2.06-11.93,5-17a77,77,0,0,1,10.87-14.51,50,50,0,0,1,16.35-11.69c1.77-.76.25-3.35-1.51-2.59Z"/><circle class="cls-39" cx="245.16" cy="315.41" r="105.85"/></g></g></g></svg>