<svg xmlns="http://www.w3.org/2000/svg" xmlns:xlink="http://www.w3.org/1999/xlink" viewBox="0 0 203.74 232.88"><defs><style>.cls-1{fill:url(#linear-gradient);}.cls-2{fill:none;}.cls-3{isolation:isolate;}.cls-4{fill:#422751;}.cls-5{fill:url(#linear-gradient-2);}.cls-6{fill:url(#linear-gradient-3);}.cls-7{fill:#4c3060;}.cls-8{fill:url(#linear-gradient-4);}.cls-11,.cls-13,.cls-20,.cls-25,.cls-26,.cls-28,.cls-31,.cls-49,.cls-50,.cls-52,.cls-53,.cls-9{opacity:0.28;}.cls-11,.cls-13,.cls-15,.cls-16,.cls-20,.cls-25,.cls-26,.cls-28,.cls-31,.cls-38,.cls-49,.cls-50,.cls-52,.cls-53,.cls-9{mix-blend-mode:multiply;}.cls-9{fill:url(#linear-gradient-5);}.cls-10{fill:url(#linear-gradient-6);}.cls-11{fill:#005b4a;}.cls-12{fill:url(#linear-gradient-7);}.cls-13,.cls-51{fill:#634277;}.cls-14{fill:url(#linear-gradient-8);}.cls-15{opacity:0.24;fill:url(#linear-gradient-9);}.cls-16{fill:#ce0000;opacity:0.46;}.cls-17{fill:#44170d;}.cls-18{fill:url(#linear-gradient-10);}.cls-19{fill:url(#linear-gradient-11);}.cls-20{fill:url(#linear-gradient-12);}.cls-21{fill:url(#linear-gradient-13);}.cls-22{clip-path:url(#clip-path);}.cls-23{fill:#33100a;}.cls-24{fill:#280b08;}.cls-25{fill:url(#linear-gradient-15);}.cls-26{fill:url(#linear-gradient-16);}.cls-27{fill:url(#linear-gradient-17);}.cls-29{fill:url(#linear-gradient-18);}.cls-30{fill:url(#linear-gradient-19);}.cls-31{fill:url(#linear-gradient-20);}.cls-32{clip-path:url(#clip-path-2);}.cls-33{fill:url(#linear-gradient-21);}.cls-34{fill:url(#linear-gradient-22);}.cls-35{fill:url(#linear-gradient-23);}.cls-36{fill:url(#linear-gradient-24);}.cls-37{fill:#fff;}.cls-38{fill:#838bc5;opacity:0.36;}.cls-39,.cls-45,.cls-54,.cls-55{opacity:0.67;mix-blend-mode:color-dodge;}.cls-39{fill:url(#linear-gradient-25);}.cls-40{clip-path:url(#clip-path-3);}.cls-41{fill:url(#linear-gradient-26);}.cls-42{fill:url(#linear-gradient-27);}.cls-43{fill:url(#linear-gradient-28);}.cls-44{fill:url(#linear-gradient-29);}.cls-45{fill:url(#linear-gradient-30);}.cls-46{fill:url(#linear-gradient-31);}.cls-47{clip-path:url(#clip-path-4);}.cls-48{fill:url(#linear-gradient-32);}.cls-49{fill:url(#linear-gradient-33);}.cls-50{fill:url(#linear-gradient-34);}.cls-52{fill:url(#linear-gradient-35);}.cls-53{fill:url(#linear-gradient-36);}.cls-54{fill:url(#linear-gradient-37);}.cls-55{fill:url(#linear-gradient-38);}</style><linearGradient id="linear-gradient" x1="110.83" y1="92.02" x2="82.28" y2="101.29" gradientUnits="userSpaceOnUse"><stop offset="0" stop-color="#ff5b74"/><stop offset="0.16" stop-color="#c34553"/><stop offset="0.33" stop-color="#8d3135"/><stop offset="0.47" stop-color="#65231f"/><stop offset="0.58" stop-color="#4d1a12"/><stop offset="0.65" stop-color="#44170d"/></linearGradient><linearGradient id="linear-gradient-2" x1="0.7" y1="170.87" x2="79.84" y2="170.87" gradientUnits="userSpaceOnUse"><stop offset="0" stop-color="#44170d"/><stop offset="0.16" stop-color="#5b1f1a"/><stop offset="0.48" stop-color="#96353a"/><stop offset="0.95" stop-color="#f5576e"/><stop offset="1" stop-color="#ff5b74"/></linearGradient><linearGradient id="linear-gradient-3" x1="116.52" y1="83.97" x2="188.03" y2="155.48" gradientUnits="userSpaceOnUse"><stop offset="0" stop-color="#007736"/><stop offset="1" stop-color="#68d879"/></linearGradient><linearGradient id="linear-gradient-4" x1="16.8" y1="223.61" x2="16.8" y2="157.55" gradientUnits="userSpaceOnUse"><stop offset="0" stop-color="#68d879"/><stop offset="1" stop-color="#007736"/></linearGradient><linearGradient id="linear-gradient-5" x1="65.39" y1="219.33" x2="57.66" y2="227.06" gradientUnits="userSpaceOnUse"><stop offset="0" stop-color="#634277"/><stop offset="0.11" stop-color="#68497c"/><stop offset="0.26" stop-color="#785b89"/><stop offset="0.44" stop-color="#90799f"/><stop offset="0.64" stop-color="#b3a3bd"/><stop offset="0.86" stop-color="#dfd8e3"/><stop offset="1" stop-color="#fff"/></linearGradient><linearGradient id="linear-gradient-6" x1="50.22" y1="220.91" x2="50.22" y2="152.85" xlink:href="#linear-gradient-4"/><linearGradient id="linear-gradient-7" x1="0.82" y1="26.06" x2="126.27" y2="26.06" gradientUnits="userSpaceOnUse"><stop offset="0" stop-color="#44170d"/><stop offset="0.16" stop-color="#4a1a0e"/><stop offset="0.39" stop-color="#5c230f"/><stop offset="0.64" stop-color="#793212"/><stop offset="0.93" stop-color="#a24716"/><stop offset="1" stop-color="#ad4d17"/></linearGradient><linearGradient id="linear-gradient-8" x1="80.22" y1="103.61" x2="0.7" y2="183.13" gradientUnits="userSpaceOnUse"><stop offset="0" stop-color="#ffa4cc"/><stop offset="0.01" stop-color="#ffa2ca"/><stop offset="0.08" stop-color="#ff8caf"/><stop offset="0.16" stop-color="#ff7a99"/><stop offset="0.25" stop-color="#ff6c88"/><stop offset="0.37" stop-color="#ff627d"/><stop offset="0.54" stop-color="#ff5d76"/><stop offset="1" stop-color="#ff5b74"/></linearGradient><linearGradient id="linear-gradient-9" x1="73.93" y1="106.91" x2="-5.58" y2="186.41" gradientUnits="userSpaceOnUse"><stop offset="0" stop-color="#ce0000"/><stop offset="0.09" stop-color="#cf0707"/><stop offset="0.22" stop-color="#d31a1a"/><stop offset="0.37" stop-color="#d93939"/><stop offset="0.54" stop-color="#e16565"/><stop offset="0.72" stop-color="#ec9d9d"/><stop offset="0.92" stop-color="#f9dfdf"/><stop offset="1" stop-color="#fff"/></linearGradient><linearGradient id="linear-gradient-10" x1="21.4" y1="64.03" x2="43.33" y2="85.96" xlink:href="#linear-gradient-4"/><linearGradient id="linear-gradient-11" x1="122.56" y1="59.41" x2="7.98" y2="106.66" xlink:href="#linear-gradient-4"/><linearGradient id="linear-gradient-12" x1="71.79" y1="93.21" x2="59.29" y2="118.27" gradientUnits="userSpaceOnUse"><stop offset="0" stop-color="#005b4a"/><stop offset="0.32" stop-color="#5b968b"/><stop offset="0.65" stop-color="#b3cec9"/><stop offset="0.89" stop-color="#eaf1f0"/><stop offset="1" stop-color="#fff"/></linearGradient><linearGradient id="linear-gradient-13" x1="30.44" y1="76.74" x2="156.55" y2="18.59" xlink:href="#linear-gradient-7"/><clipPath id="clip-path"><path class="cls-1" d="M99.55,97.23A3,3,0,0,1,96.79,96S91.1,99.22,89.4,95c0,0-4.37.71-3.75-.76,0,0-6.83,2.56-10.86,6.78s-3,5.69-1.37,3.89,10.76-9.25,15.69-4.36c0,0,.76-3,5.29,1,0,0,.12-4,6.33-.23,0,0-.09-1.29,1.14-1.1C101.87,100.21,99.64,98.93,99.55,97.23Z"/></clipPath><linearGradient id="linear-gradient-15" x1="30.15" y1="76.11" x2="77.09" y2="54.46" gradientUnits="userSpaceOnUse"><stop offset="0" stop-color="#fff"/><stop offset="0.14" stop-color="#dfd8e3"/><stop offset="0.36" stop-color="#b3a3bd"/><stop offset="0.56" stop-color="#90799f"/><stop offset="0.74" stop-color="#785b89"/><stop offset="0.89" stop-color="#68497c"/><stop offset="1" stop-color="#634277"/></linearGradient><linearGradient id="linear-gradient-16" x1="39.05" y1="95.42" x2="214.79" y2="14.4" xlink:href="#linear-gradient-5"/><linearGradient id="linear-gradient-17" x1="16.2" y1="61.15" x2="132.18" y2="27.61" gradientUnits="userSpaceOnUse"><stop offset="0" stop-color="#44170d"/><stop offset="1" stop-color="#ad4d17"/></linearGradient><linearGradient id="linear-gradient-18" x1="45.11" y1="45.4" x2="79.34" y2="45.4" xlink:href="#linear-gradient-5"/><linearGradient id="linear-gradient-19" x1="69.75" y1="38.4" x2="112.72" y2="38.4" xlink:href="#linear-gradient-5"/><linearGradient id="linear-gradient-20" x1="31.93" y1="79.98" x2="78.87" y2="58.34" xlink:href="#linear-gradient-5"/><clipPath id="clip-path-2"><path class="cls-2" d="M85.29,78.05S83.39,82.84,72,71.21,57.72,59.58,52.79,64.89,50.13,84.61,62.4,89.17,85.41,86.4,85.29,78.05Z"/></clipPath><linearGradient id="linear-gradient-21" x1="67.82" y1="90.56" x2="67.82" y2="61.47" gradientUnits="userSpaceOnUse"><stop offset="0.2" stop-color="#ffffc7"/><stop offset="0.29" stop-color="#fcf8c4"/><stop offset="0.43" stop-color="#f4e6ba"/><stop offset="0.59" stop-color="#e6c7ab"/><stop offset="0.77" stop-color="#d39d95"/><stop offset="0.96" stop-color="#bb677a"/><stop offset="1" stop-color="#b55b74"/></linearGradient><linearGradient id="linear-gradient-22" x1="47.49" y1="94.59" x2="47.49" y2="71.85" gradientTransform="translate(-13.01 26.49) rotate(-29.49)" gradientUnits="userSpaceOnUse"><stop offset="0" stop-color="#a87979"/><stop offset="0.23" stop-color="#a56e6c"/><stop offset="0.66" stop-color="#9d504a"/><stop offset="0.8" stop-color="#9a453d"/></linearGradient><linearGradient id="linear-gradient-23" x1="-240.74" y1="-47.26" x2="-232" y2="-27.51" gradientTransform="matrix(-0.74, 0.46, 0.53, 0.85, -85.97, 216.47)" gradientUnits="userSpaceOnUse"><stop offset="0" stop-color="#a15151"/><stop offset="0" stop-color="#a15151"/><stop offset="0.26" stop-color="#bd6f6f"/><stop offset="0.52" stop-color="#d08484"/><stop offset="0.77" stop-color="#dc9191"/><stop offset="1" stop-color="#e09595"/></linearGradient><linearGradient id="linear-gradient-24" x1="1000.74" y1="-117.67" x2="1000.74" y2="-132.57" gradientTransform="matrix(-0.37, -0.63, -0.86, 0.5, 327.73, 766.12)" xlink:href="#linear-gradient-22"/><linearGradient id="linear-gradient-25" x1="40.04" y1="56.49" x2="69.46" y2="85.91" gradientUnits="userSpaceOnUse"><stop offset="0" stop-color="#6a72bb"/><stop offset="0.3" stop-color="#464b7b"/><stop offset="0.89"/></linearGradient><clipPath id="clip-path-3"><path class="cls-2" d="M104.63,75.63s-4.55,15.18,6.83,17.71,16.19-12.52,15.43-20.74-4.3-12.28-9.61-9S113.61,70.2,104.63,75.63Z"/></clipPath><linearGradient id="linear-gradient-26" x1="115.35" y1="93.62" x2="115.35" y2="62.47" xlink:href="#linear-gradient-21"/><linearGradient id="linear-gradient-27" x1="73.99" y1="85.01" x2="73.99" y2="63.15" gradientTransform="translate(119.76 -27.4) rotate(47.67)" xlink:href="#linear-gradient-22"/><linearGradient id="linear-gradient-28" x1="-271.16" y1="-53.16" x2="-262.41" y2="-33.4" gradientTransform="matrix(-0.81, 0.32, 0.36, 0.93, -86.21, 202.45)" xlink:href="#linear-gradient-23"/><linearGradient id="linear-gradient-29" x1="965.11" y1="-126.42" x2="965.11" y2="-140.73" gradientTransform="matrix(-0.69, 0.24, 0.33, 0.94, 820.49, -27.54)" xlink:href="#linear-gradient-22"/><linearGradient id="linear-gradient-30" x1="97.55" y1="71.78" x2="118.37" y2="92.6" xlink:href="#linear-gradient-25"/><linearGradient id="linear-gradient-31" x1="23.47" y1="97.01" x2="32.09" y2="105.63" xlink:href="#linear-gradient-4"/><clipPath id="clip-path-4"><path class="cls-2" d="M46.27,104.66a27,27,0,0,0-14.69,12.08c-5.3,9.39,18.64-2.73,18.64-2.73Z"/></clipPath><linearGradient id="linear-gradient-32" x1="7.92" y1="100.03" x2="83.69" y2="175.8" xlink:href="#linear-gradient-3"/><linearGradient id="linear-gradient-33" x1="16.79" y1="223.58" x2="16.79" y2="192.63" gradientUnits="userSpaceOnUse"><stop offset="0" stop-color="#fff"/><stop offset="0.11" stop-color="#eaf1f0"/><stop offset="0.35" stop-color="#b3cec9"/><stop offset="0.68" stop-color="#5b968b"/><stop offset="1" stop-color="#005b4a"/></linearGradient><linearGradient id="linear-gradient-34" x1="52.96" y1="220.91" x2="52.96" y2="189.89" xlink:href="#linear-gradient-33"/><linearGradient id="linear-gradient-35" x1="22.58" y1="221.78" x2="7.44" y2="236.92" xlink:href="#linear-gradient-5"/><linearGradient id="linear-gradient-36" x1="62.94" y1="221.39" x2="49.2" y2="235.12" xlink:href="#linear-gradient-5"/><linearGradient id="linear-gradient-37" x1="23.69" y1="218.87" x2="15.66" y2="226.89" gradientUnits="userSpaceOnUse"><stop offset="0" stop-color="#6a72bb"/><stop offset="0.34" stop-color="#464b7b"/><stop offset="1"/></linearGradient><linearGradient id="linear-gradient-38" x1="65.15" y1="217.23" x2="57.33" y2="225.05" xlink:href="#linear-gradient-37"/></defs><g class="cls-3"><g id="Capa_2" data-name="Capa 2"><g id="Layer_1" data-name="Layer 1"><path class="cls-4" d="M5.05,232.88s4.27-2,5.66-2.14-4.93-7.88-4.93-7.88l-2.33,2.85S3.28,231,5.05,232.88Z"/><path class="cls-5" d="M.7,183.13s6.69-11.38,19.89,1.06c0,0,4.76-12.38,16.73-4.11,0,0,4.75-6.51,9.5-.35,0,0,.47-6.81,4.11-4.11l-6.54-12.09-38.58-6Z"/><path class="cls-6" d="M96.57,103.92s34.27-4.57,56.44-2.7,36.73,6,45.65,17.37,4.23,26,0,24.76-4-4-3-7.39,4.93-8.8,1.88-12.32c0,0-1.29,11.14-11.74,10.32s-7.15-5.63-7.15-5.63a3.87,3.87,0,0,1-.83-3.87c.71-2.47,3.88-3.76,8.22-3.29,0,0,.12-5.51-6.69-6.22s-3.64,7.7-9.86,7-.35-11.65,7.63-11.18c0,0-39-6.1-78.38,3.28Z"/><path class="cls-7" d="M64.76,228.39l3.29,2.35s.94-6.93,0-9.39S59.92,215,59.92,215s-5.59-.3-7.47,3.68,6.57,8.44,6.92,8.67S64.76,228.39,64.76,228.39Z"/><path class="cls-8" d="M22.41,166.23s9,24.29,8.33,27.34S9.27,222,9.27,222l-6.45,1.64S23,195.45,22.18,192.4,8.1,157.55,8.1,157.55Z"/><path class="cls-9" d="M52.45,218.66c-1.88,4,6.56,8.44,6.92,8.67s5.39,1.06,5.39,1.06l3.29,2.35s.76-5.61.22-8.53a3.17,3.17,0,0,0-.09.65c-.12,3.48-5.82-3.09-6.94-5.17s1.17-1.22,1.23-1.2c-1.42-.89-2.55-1.51-2.55-1.51S54.33,214.68,52.45,218.66Z"/><path class="cls-10" d="M39,163.53s3.28,21.95,5.16,26.52,14.2,30.86,14.2,30.86L61.49,219s-9.86-25.94-11.27-31.1-4.1-35.09-4.1-35.09Z"/><path class="cls-11" d="M2.82,223.61,9.27,222s2.86-3.49,6.5-8c-10.95,10.24,7.78-21.6,7.78-21.6s-3.16-4.75-3-8.15,3.56,1.49,3.56,1.49c-2-13.58,3.1-5.68,3.1-5.68-2.28-6.89-4.84-13.76-4.84-13.76L15.48,162l-5.66-.34C13.43,170.4,21.54,190,22.18,192.4,23,195.45,2.82,223.61,2.82,223.61Z"/><path class="cls-11" d="M58.32,220.91,61.49,219s-2.22-5.83-4.7-12.51c4.12,19.24-10.08-10.65-13-19.72s1.88-7.55,1.88-7.55c0-7.35,3.68,3.76,3.68,3.76-.58-4.15-1.23-10-1.79-15.39l-.27-.41-7.19,3.52c1.13,6.83,2.85,16.46,4,19.31C46,194.63,58.32,220.91,58.32,220.91Z"/><path class="cls-11" d="M168.85,121.8a3.45,3.45,0,0,1-.67-2.79c.57-7.32,8.89-8.28,8.89-8.28C169.36,110.28,163.63,120.44,168.85,121.8Z"/><path class="cls-11" d="M198.81,129.86c2.28-6.6-1.48-10.24-4.32-12.18s-8.09-3.53-13-4.1S175,116.7,175,116.7c.77-1.15,1.93-2,4.26-1.75,6.81.71,6.69,6.22,6.69,6.22-4.34-.47-7.51.82-8.22,3.29a3.87,3.87,0,0,0,.83,3.87s-3.29,4.81,7.15,5.63,11.74-10.32,11.74-10.32c3,3.52-.94,8.91-1.88,12.32-.87,3.13-1.12,5.67,2.15,7.06C193.29,139.55,196.54,136.47,198.81,129.86Z"/><path class="cls-11" d="M98.69,114c39.42-9.38,78.38-3.28,78.38-3.28-28-8.2-60.93.57-61.72-3.87-.48-2.74,2.73-4.42,5.25-5.3-13.32.93-24,2.36-24,2.36Z"/><path class="cls-12" d="M57,33s12.52-9.5,1.14-30.75c0,0,8.22,15.56-3.54,27.32,0,0,8.47-27.07-17.33-29.47S.82,26.76.82,26.76,5.62,14.05,23,12.28c0,0-22.64,7.84-20.49,22.51s12,17.32,12,17.32-5.31-12.26,8-23c0,0-10,9.86-7.08,22.13,0,0,.5-12.22,7.59-18.19a26,26,0,0,0-6.2,16.29S24.56,32.2,42.09,38.8,57,33,57,33Z"/><path class="cls-13" d="M57,33s12.49-9.48,1.18-30.67c.56,1.12,7.73,15.93-3.58,27.24,0,0,4.44-14.23-3-23,5.91,9.58,1.44,20.62,1.44,20.62C56.69-5.43,21.5,8.13,21.5,8.13,45.76,2,48.38,15.3,48.38,15.3c-8.54-8.09-22.19-3.64-22.19-3.64,22.46-3.42,22,10.71,22,10.71-3.08-10.92-17.43-9-17.43-9,15.61,4.79,12,16.29,12,16.29S43.25,9,21.16,16.92C7.86,21.67,3.85,30.35,2.76,36.5,5.39,49.66,14.47,52.11,14.47,52.11s-5.31-12.26,8-23c0,0-10,9.86-7.08,22.13,0,0,.5-12.22,7.59-18.19a26,26,0,0,0-6.2,16.29S24.56,32.2,42.09,38.8C48,41,51.56,41.1,53.76,40.23l2.07-1.48C57.69,36.47,57,33,57,33Z"/><path class="cls-14" d="M49.4,100.05s-.7,2.7-8,5.16S10,124.46,3.87,146.28.7,183.13.7,183.13s6.58-15.14,11.74-.59c0,0-6-38.37,10.56,1.65,0,0-3.4-24.18,10.09-3.17,0,0-2-20.42,10-2.23,0,0-1.45-11.8,5.67-.51,0,0-5.32-14.16,2.19-2.66,0,0-5.22-19.83-3.14-22.77s5.84-2.22,3.72-5.39c0,0,4.89-.43.63-4,0,0,1.88.74,1.74-1.31s4.67-1.23,4.67-1.23l4.11,4.22s3.87-9.21,8-8.68c3.26.41,1.86,7,6,7s9.8-15.1,12.06-27.89S49.4,100.05,49.4,100.05Z"/><path class="cls-15" d="M74.63,135.62c-.17-3.85-3.08-4.45-7.58,1.79s-6.77,1.19-6.77,1.19l-2.82-15.28s-2.05-10.51.6-10.84,3.24,10.58,10.67,11.78,12.85-9,12.85-9l3.12,1,4-2.11C88,102.56,49.4,100.05,49.4,100.05s-.7,2.7-8,5.16S10,124.46,3.87,146.28.7,183.13.7,183.13s6.58-15.14,11.74-.59c0,0-5.11-32.73,7.15-6.19-4.62-13.3-2.9-24.52.49-24.61,4-.1,7.46,14.45,12.81,15.48s7.46-8.89,7.46-8.89c-2.79,6.84-5.13,6.38-5.13,6.38,4-1.93,6.1-12.06,6.1-12.06s-3.08,7.51-6.1,10.24-12.73-11.84-7.13-16.17,19.94,3,19.94,3-18.67-10.59-13.81-11.84S49,145.12,49,145.12c-23.54-20.72,1.38-3,1.38-3-24-19.64-6.59-29.48-5-19.32,1.31,8.6,7,16.47,8.72,18.68.82-1.22,4.51-.59,4.51-.59l4.11,4.22s3.87-9.21,8-8.68c3.26.41,1.86,7,6,7,1.09,0,2.3-1.07,3.53-2.89C76.83,144.75,74.8,139.46,74.63,135.62Z"/><path class="cls-16" d="M10.09,141.94a21.33,21.33,0,0,1,6.37-12.53,2.54,2.54,0,0,1,1.62-.74,25.2,25.2,0,0,1,8.53.62,2.58,2.58,0,0,1,1.66,3.31,69.81,69.81,0,0,0-3.1,13.22A2.6,2.6,0,0,1,21.78,148l-9.92-3.29A2.58,2.58,0,0,1,10.09,141.94Z"/><polygon class="cls-17" points="20.27 143.16 19.96 148.64 20.98 148.26 20.55 143.2 20.27 143.16"/><polygon class="cls-17" points="29.32 139.99 27.39 138.36 28.62 136.55 27.55 136.35 26.8 137.87 25.44 136.72 25.21 136.88 26.55 138.39 25.31 140.91 25.53 141.09 27.02 138.91 28.86 140.98 29.32 139.99"/><polygon class="cls-17" points="16.43 143.72 18.89 148.16 19.17 148.09 17.22 142.96 16.43 143.72"/><polygon class="cls-17" points="9.94 146.26 10.98 146.57 13.66 142.25 13.45 142.04 9.94 146.26"/><polygon class="cls-17" points="18.31 127.09 20.76 131.53 21.04 131.46 19.09 126.32 18.31 127.09"/><polygon class="cls-17" points="25.19 127.6 23.2 132.27 23.43 132.44 26.28 127.75 25.19 127.6"/><path class="cls-18" d="M83.17,112.48S66.72,138.82,58,107.32,83.17,112.48,83.17,112.48Z"/><path class="cls-11" d="M50.93,102.42s12.7,18.12,19.77,17.31S83.17,114,83.17,114L68.76,103.22Z"/><path class="cls-19" d="M34.9,85.15c.22.47-4.94-4.17-8.22-1.39s11.12,19.47,15,11.76c0,0,6,9.61,22.39,13.78,0,0,5.31,7,12.77,3.8,0,0,8.34,8.6,19.22,5.06s11-9.49,11-9.49,2.72,2.15,7.56-3.67,22.16-20.23,10.78-25.92-.1-6.22-.1-6.22,5.53-5.55,5.53-9.59-5.94-4.93-8.22-10.11S119,37.35,94.08,33.81s-40,6.32-40,6.32S22.12,58.72,34.9,85.15Z"/><path class="cls-11" d="M29.07,88.58s-2.39-2.5.29-3,8,3.71,11,7.18c0,0-8.09-1.6-5.53,2.11,0,0-3.75-3.76,2.4-3.93C37.22,90.92,26.85,82.38,29.07,88.58Z"/><path class="cls-11" d="M125.82,64.56c-2.51-5.07-4.45-9.13-10-2.09s-11.23,11.84-16.37,3.75c0,0-.94,4.31,1.68,6.93,0,0-2.16-.34-2.9-3.53,0,0-.46,3.13,3.19,6.15s.78,10.37,4.32,13.9,4.66,11.07,15.05,2.88c-1,.76-4.64,3.28-7.65,2.35,0,0,9,0,11.86-10.48.6-2.18,1-3.75,1.27-4.88-.25-.16-.51-.31-.8-.46-11.38-5.69-.1-6.22-.1-6.22s4.43-4.46,5.36-8.29C130.65,64.67,128.29,69.58,125.82,64.56Z"/><path class="cls-11" d="M113.4,103.44c-5.18,1.54-6.2-7.28-6.2-7.28s-2.45,4.44-4.22-.46a11.59,11.59,0,0,1-4.1.51C96.79,96,100,93,100,93s-4.27,3.48-7.57,3,1.24-3.53,1.24-3.53-3.92,1.88-6.25,1.68,1.74-2.25,1.74-2.25-10.51,3.59-15.92,9.51-2.05,6.09-2.05,6.09-13,4.27.28-10.42c0,0-6.09,6.84-15.37,1.14s-7-15.71-5.47-15.83,3.76,14.35,22.44,9c0,0-8.88,4.84-13,1.65,0,0,2.22,4.84,15.09-.85S86.07,78.05,86.07,78.05s3.55.49,7.86-4.38a11.79,11.79,0,0,1-6.46,3,2.46,2.46,0,0,1-.55.09l.55-.09c1.31-.35,4.76-2.11,7.43-10.91l-8,5.36L79.35,68s6.28,5.35,2.23,8S67.51,61.14,61.24,59.77s9.12-6.72,9.12-6.72a15.9,15.9,0,0,0,14.69-8.77s-2.91,7.56-7.63,8.42c0,0,9.72-.79,9.5-9.84,0,0,11.37,11,22.5,8.08,10.75-2.78,12.9,1.45,13,1.73-2.18-5.33-4.21-15.43-28.37-18.86-24.92-3.54-40,6.32-40,6.32s-32,18.59-19.22,45c.22.47-4.94-4.17-8.22-1.39s11.12,19.47,15,11.76c0,0,6,9.61,22.39,13.78,0,0,5.31,7,12.77,3.8,0,0,8.34,8.6,19.22,5.06s11-9.49,11-9.49,2.72,2.15,7.56-3.67c2.36-2.84,7.7-7.73,11.22-12.66C125.26,93.14,118.35,102,113.4,103.44Zm-7.12,5c-.92,3.23-9.82,11.33-21,6.26S77,102.48,80.66,100.77s7.17-1.2,8.11.62c0,0,2.77-2.39,6.07,1.2,0,0-.06-2.22,1.73-2.11s5.3,2.8,5.3,2.8-.82-2.45.77-2.51S107.58,103.86,106.28,108.4Z"/><path class="cls-13" d="M93.44,84.17c-.21.08-5.37,3.23-4,4.36S94.71,83.7,93.44,84.17Z"/><path class="cls-13" d="M99.13,88.09c1.34-.58-2.46-4.17-3.28-4.11S98.19,88.5,99.13,88.09Z"/><path class="cls-20" d="M106.4,98.29s-2.09,2-3.67-1.75a4.59,4.59,0,0,1-3.18.69c-2.25-.13-6.3,1.57-6.3,1.57s-13.7-1.15-7.6-4.61c0,0-14.81,6.58-13.68,2.73,0,0-26,9.48-26.86-23-.39-14.31-5.63-14.9-11.36-11.1a27.1,27.1,0,0,0,1.15,22.3c.22.47-4.94-4.17-8.22-1.39s11.12,19.47,15,11.76c0,0,6,9.61,22.39,13.78,0,0,5.31,7,12.77,3.8,0,0,8.34,8.6,19.22,5.06s11-9.49,11-9.49,2.72,2.15,7.56-3.67c2.06-2.48,6.4-6.53,9.81-10.8C124.3,94.34,110.59,105.59,106.4,98.29Zm-1,8.29c-1.25.18-2.67-2.06-3-2.67.42.74,2.08,4.12-1.41,4.8-3.93.77-5.72-4.7-5.72-4.7s1.49,5.68-2.56,4.91A4.45,4.45,0,0,1,89,104.13c.2,2.89-8,8.3-10,3.64-1.92-4.39.86-6.48,1.23-6.73a4.67,4.67,0,0,1,.49-.27c3.65-1.71,7.17-1.2,8.11.62,0,0,2.77-2.39,6.07,1.2,0,0-.06-2.22,1.73-2.11s5.3,2.8,5.3,2.8-.82-2.45.77-2.51a1.7,1.7,0,0,1,.6.11,2.85,2.85,0,0,1,.72.36,5.32,5.32,0,0,1,1.42,1.39C106,104.09,106.82,106.36,105.37,106.58Z"/><path class="cls-21" d="M127,45.39s6.75,4.7,16.11-2.25a17.89,17.89,0,0,1-15.3-7.46c-6.45-8.48-6-13.91-14.93-13.66,0,0,6.85-2.75,11.26,3.54,0,0-3.16-6.51-10.48-4.9a4.15,4.15,0,0,1-.9.22c.31-.09.6-.15.9-.22,1.45-.49,4.37-2.14,6.56-7.62a16.33,16.33,0,0,1-15.68,7.13C93.89,18.86,88.7,18.1,84.4,25.94c0,0-.25-14.92-4.55-19.35,0,0-.13,14.29,3.54,19.35,0,0-3.55-3.17-3.54-10.75,0,0-1.14,7.08,1.64,10.75,0,0-6.19-7-17.32,0S31.42,46.55,23,44.27c0,0,6.57,2.17,18.2-3.27,0,0-10.74,5.17-17.19,15s-2.91,15.68-2.91,15.68-1.77-6.95,2.78-11.63A21.86,21.86,0,0,0,30,83l.12,0L30.76,78A8.81,8.81,0,0,1,31,76l-.28,2a12.24,12.24,0,0,0,1.1,5.47,16.26,16.26,0,0,0,.9,1.67A17.48,17.48,0,0,0,37,89.69s3.25,4.52,4.38,5.61a14.21,14.21,0,0,1,1.1,1.23,28.1,28.1,0,0,0,3.13,3.3A7.94,7.94,0,0,0,50.33,102a32.78,32.78,0,0,1-5.75-13.17,34.31,34.31,0,0,1,.53-15.67s-.87,8.53,1.93,16a21.31,21.31,0,0,0,1.58,3.35,27,27,0,0,1-1-3.29c-1.16-4.76-2.42-14,2-22.94C56,53.38,65.4,55.72,68.31,48.9,70.54,43.64,77,36.42,80.6,33.1c1.08-1,1.78-1.6,1.78-1.6s16.85,2,19.49,2.4S117.15,42,117.15,42l.53,1.75c3.06,3.47,3.93,7,5,9.41,2.28,5.18,8.22,6.07,8.22,10.11s-5.53,9.59-5.53,9.59-11.28.53.1,6.22a12.06,12.06,0,0,1,1.15.68c1.82-1.12,6.77-5.05,7.38-14.9,0,0,1.39,7.36-3.1,12.55C130.87,77.41,149.43,61.81,127,45.39Z"/><path class="cls-17" d="M69.75,60.81S84.18,72.57,86.46,72.47s8.44-6.73,8.44-6.73-6.42,3.79-9.61,3S69.75,60.81,69.75,60.81Z"/><path class="cls-17" d="M99.42,66.22s2.25,4.83,4.32,4.55,9.37-12.43,9.37-12.43-7.46,9.49-9.37,9.58S99.42,66.22,99.42,66.22Z"/><path class="cls-11" d="M98.75,81.38s-.17-6.88-10.42,1.67c0,0,6.92-3,9.48,0a5,5,0,0,0-5.55-1.88S97.73,77.37,98.75,81.38Z"/><path class="cls-1" d="M99.55,97.23A3,3,0,0,1,96.79,96S91.1,99.22,89.4,95c0,0-4.37.71-3.75-.76,0,0-6.83,2.56-10.86,6.78s-3,5.69-1.37,3.89,10.76-9.25,15.69-4.36c0,0,.76-3,5.29,1,0,0,.12-4,6.33-.23,0,0-.09-1.29,1.14-1.1C101.87,100.21,99.64,98.93,99.55,97.23Z"/><g class="cls-22"><path class="cls-13" d="M76,89.54s26.66,3.88,18.8,13-26.42,7.57-26.42,7.57S69.29,92,76,89.54Z"/></g><path class="cls-23" d="M114.17,66.31s5.18-6.38,8.34-4.2,3.7,4,4.9,7.74,5.35,0,5.35,0-2.48,4.55-5.79,1.88c0,0,1.46,4.84,5.39,2.22,0,0-3,3.53-5.69-.23S114.17,66.31,114.17,66.31Z"/><path class="cls-24" d="M71.59,70.78S64,59.86,59.05,60.34s-6,3.87-7.37,3.82S48.26,61.82,49.37,59c0,0-2.3,4.35,1.51,6.09a6.23,6.23,0,0,1-6.57-1.25,6.29,6.29,0,0,0,8.74,1.73C58.63,62.33,71.59,70.78,71.59,70.78Z"/><path class="cls-25" d="M23,44.27s6.57,2.17,18.2-3.27c0,0-10.74,5.17-17.19,15s-2.91,15.68-2.91,15.68-1.77-6.95,2.78-11.63A21.86,21.86,0,0,0,30,83l.12,0L30.76,78A8.81,8.81,0,0,1,31,76l-.28,2a12.24,12.24,0,0,0,1.1,5.47,16.26,16.26,0,0,0,.9,1.67A17.48,17.48,0,0,0,37,89.69s3.25,4.52,4.38,5.61a14.21,14.21,0,0,1,1.1,1.23,28.1,28.1,0,0,0,3.13,3.3A7.94,7.94,0,0,0,50.33,102a32.78,32.78,0,0,1-5.75-13.17,34.31,34.31,0,0,1,.53-15.67s-.87,8.53,1.93,16a21.31,21.31,0,0,0,1.58,3.35,27,27,0,0,1-1-3.29c-1.16-4.76-2.42-14,2-22.94C56,53.38,65.4,55.72,68.31,48.9c1.74-4.1,6-9.39,9.57-13.09-4.23,1.31-7.48,3.95-8.13,8.87,0,0-32.76,10.93-15.22-1.48,0,0-7.59,3.95-12,1.71s13.59-14,13.59-14C44.69,37.84,29.67,46.08,23,44.27Z"/><path class="cls-26" d="M124.57,49.41l-.1-.06.1.06c1.07.66,10.45,6.32,2.4-2.56-4.57-5.05-11.24-7.53-16.45-8.75,3.48,2,6.63,3.9,6.63,3.9l.53,1.75c3.06,3.47,3.93,7,5,9.41,2.28,5.18,8.22,6.07,8.22,10.11s-5.53,9.59-5.53,9.59-11.28.53.1,6.22a9.54,9.54,0,0,1,.85.49,20,20,0,0,0,5.33-14.71C131.31,54,125.4,49.93,124.57,49.41Z"/><path class="cls-27" d="M85.29,37S94,49.33,109.57,50.09c0,0-13.53-4.3-16.95-11,0,0,10.12,9.1,19.86,10.12,0,0-7.35-1.67-16.77-8.89,0,0,16.77,10.17,33.71-.33,0,0-11,.74-16.94-4.44,0,0,10.87,6.7,24.91-3.92,0,0-13.15,1.9-23.78-3.54S92.75,22,84.28,29.61c0,0-2.74-4.81-12.31-.13S59.74,41,59.74,41s4.94-6,9.11-6.46c0,0-5.31,3.16-8.09,7.08s-15.65,7.59-15.65,7.59,15.39,4,23.23-2a17.83,17.83,0,0,1-12.9,4.55s13.28,5.19,23.9-8.47c0,0-4.25,7-9.59,8.85C69.75,52.11,83,50.47,85.29,37Z"/><g class="cls-28"><path class="cls-29" d="M68.31,48.07a41.23,41.23,0,0,0,8.54-10s-14.1,10-17.09,9c-2.16-.74-.48-3.55.62-5.05C57,45.82,45.11,49.21,45.11,49.21s15.39,4,23.23-2a17.83,17.83,0,0,1-12.9,4.55s13.28,5.19,23.9-8.47C74.33,49.13,62.82,52.66,68.31,48.07Z"/><path class="cls-30" d="M110.52,35.77s-13.06-9.45-19.27-4.88c0,0,3-3.94,12.84,0,0,0-6.49-4-12-1.61,0,0,6.49-4.36,20.58,2,0,0-12.42-9.15-24.92-2.87a15.3,15.3,0,0,1,5.31-3.77,21.65,21.65,0,0,0-8.83,4.92A4.68,4.68,0,0,0,82,27.88c3.45,1.51,4.74,8.24.38,14.72-4.77,7.09-3,.66-3,.66s-4.25,7-9.59,8.85c0,0,13.26-1.64,15.54-15.11A35,35,0,0,0,102,48.74,23.5,23.5,0,0,1,88.26,37C88.79,33.33,92.12,26.85,110.52,35.77Z"/></g><path class="cls-31" d="M47,60S45.3,77.14,40.86,76.45s0-20.37,0-20.37S34.48,71,29.81,68.55s1.48-14.28,1.48-14.28c-6.81,4.42-5.14-.15-3.93-2.63A36.81,36.81,0,0,0,24,56c-6.45,9.87-2.91,15.68-2.91,15.68s-1.77-6.95,2.78-11.63A21.86,21.86,0,0,0,30,83l.12,0L30.76,78A8.81,8.81,0,0,1,31,76l-.28,2a12.24,12.24,0,0,0,1.1,5.47,16.26,16.26,0,0,0,.9,1.67A17.48,17.48,0,0,0,37,89.69s3.25,4.52,4.38,5.61a14.21,14.21,0,0,1,1.1,1.23,28.1,28.1,0,0,0,3.13,3.3A7.94,7.94,0,0,0,50.33,102a32.78,32.78,0,0,1-5.75-13.17,34.31,34.31,0,0,1,.53-15.67s-.87,8.53,1.93,16a21.31,21.31,0,0,0,1.58,3.35,27,27,0,0,1-1-3.29c-1.16-4.76-2.42-14,2-22.94.2-.41.4-.81.61-1.19C46.34,67.72,47,60,47,60Z"/><g class="cls-32"><path class="cls-33" d="M85.29,78.05S83.39,82.84,72,71.21,57.72,59.58,52.79,64.89,50.13,84.61,62.4,89.17,85.41,86.4,85.29,78.05Z"/><path class="cls-34" d="M58.79,82.3c3.17,5.41,10.44,6.77,16.24,3S83,74.2,79.8,68.79s-10.44-6.77-16.24-3S55.62,76.89,58.79,82.3Z"/><path class="cls-35" d="M59.91,81.58c2.83,4.83,9.33,6,14.51,2.71s7.09-10,4.26-14.78-9.33-6.05-14.51-2.71S57.08,76.75,59.91,81.58Z"/><ellipse class="cls-36" cx="69.29" cy="75.54" rx="7.6" ry="7.01" transform="translate(-6.85 144.17) rotate(-89.5)"/><path class="cls-37" d="M74.53,82.09c2.39-.51-.55-4.09-1.57-3S70.92,82.85,74.53,82.09Z"/><path class="cls-38" d="M48.62,73.8s2.65-13.37,11.85-9.39,12.9,17.36,21.72,16c0,0,.28,7.11-6.54,9.67s5.78,9.2,7.11,6.45S94.8,74,92.15,71.9s2.84.29-10.25-3.6S51.46,53.69,51.46,53.69,48.14,56.92,48.14,58,48.62,73.8,48.62,73.8Z"/><path class="cls-39" d="M50.36,72s.53-7.84,7.61-6S79,81.7,69.23,85.25,50.21,82.59,50.36,72Z"/></g><g class="cls-40"><path class="cls-41" d="M104.63,75.63s-4.55,15.18,6.83,17.71,16.19-12.52,15.43-20.74-4.3-12.28-9.61-9S113.61,70.2,104.63,75.63Z"/><ellipse class="cls-42" cx="114.81" cy="77.19" rx="12.01" ry="9.46" transform="translate(-1.62 151.92) rotate(-66.61)"/><path class="cls-43" d="M106.3,81.74c1.35,5.17,6.25,7.32,11,4.8a12.85,12.85,0,0,0,6.06-13.91c-1.34-5.16-6.24-7.31-10.94-4.8A12.88,12.88,0,0,0,106.3,81.74Z"/><path class="cls-44" d="M109.31,79.94c.81,3.87,3.94,5.78,7,4.27s4.84-5.9,4-9.77-3.94-5.79-7-4.27S108.49,76.06,109.31,79.94Z"/><path class="cls-37" d="M119,81.25c1.12,1.62,3.35-2.33,2.16-2.64S117.31,78.8,119,81.25Z"/><path class="cls-38" d="M103.34,92.48S103.05,79,107.23,77s8.34-7.21,10.81-11,11.19,3,7.21,17.08,5.59,13.27,6,11.38,6.55-45.91,5.69-46-46.28,16-46.28,16Z"/><path class="cls-45" d="M105.31,89s-2.7-10,4.76-12.27S126,93.4,114.75,93.62,105.31,89,105.31,89Z"/></g><path class="cls-46" d="M46.27,104.66a27,27,0,0,0-14.69,12.08c-5.3,9.39,18.64-2.73,18.64-2.73Z"/><path class="cls-11" d="M182.36,115.75a6.16,6.16,0,0,1,3.63,5.42c-4.34-.47-7.51.82-8.22,3.29a3.87,3.87,0,0,0,.83,3.87s-3.29,4.81,7.15,5.63a11.26,11.26,0,0,0,4.49-.48c-.64.17-5.59,1.31-8.94-1.92-3.58-3.46,0-4.53,1.07-4.57a16.29,16.29,0,0,1,8.54,1.66,7.84,7.84,0,0,0,2-5.46s-.79,3.32-2.61,3.88c0,0-4.86-2.34-9.18-.68s-3.2-3.41-.21-4.29,6.36-.36,7.81,1.64a5.32,5.32,0,0,0-.51-3.28c-.85-1.59,2.91-1.16,4.7,2.17,0,0,.72-2.69,4.57,1C197.49,123.64,194,117.88,182.36,115.75Z"/><g class="cls-47"><path class="cls-11" d="M40.52,107.42s4.78-3,3.87,3.34S30.73,122.22,30.81,119s-2.72,4.9-2.72,4.9l24.41-4.15L49.69,102S43.22,103.92,40.52,107.42Z"/></g><path class="cls-48" d="M87.17,190.6s5.87,11.14,3.17,15.6-5.4,2.23-5.75-4.22a30.73,30.73,0,0,0-2.46-10.8S83.5,206.33,76,206.45s-9-1.64-9.39-3.87,1.09-3.18,4-1.89c0,0-5.4-4.7.23-5.64,0,0,1.29-4.45-2.34-7.27s2.34-5.63.82-11.15S51,139.26,47.16,118.14s-1.23-20.6,4.05-19.36S57,125.53,62.65,141s6.51,32.21,16.54,38.19C79.19,179.21,93.57,185.43,87.17,190.6Z"/><path class="cls-11" d="M87.78,206.76c-2.23.05-2.22-4.93-2.74-8.23a24.6,24.6,0,0,0-2.91-7.35A30.73,30.73,0,0,1,84.59,202c.35,6.45,3,8.68,5.75,4.22a5.44,5.44,0,0,0,.67-2.43C90.55,205.78,89.28,206.73,87.78,206.76Z"/><path class="cls-11" d="M47.16,118.14c3.87,21.12,20.65,53,22.18,58.49s-4.46,8.33-.82,11.15,2.34,7.27,2.34,7.27c-5.63.94-.23,5.64-.23,5.64-2.94-1.29-4.38-.34-4,1.89s1.88,4,9.39,3.87c2.59,0,4.24-2.17,5.3-4.95-1.49,2.44-4.55,1.5-4.33-1.19a47,47,0,0,0-.68-10.51c.42,8.46-.2,10.86-2.57,9.82a2.9,2.9,0,0,1-1.13-1.38,8.08,8.08,0,0,1-.77-4.17c.1-1.48.06-3.61-.82-4.56-1.41-1.54-2.34-5.21-1.16-7.49s3.14-1.93-4.14-17.42S46.78,113.07,46,103.84a10.21,10.21,0,0,1,.51-5C44.86,100.32,44.77,105.1,47.16,118.14Z"/><path class="cls-11" d="M86.58,188.23c-1.45-2.65-5.29-5.21-5.29-5.21,2.73,1.88,5.88,7.58,5.88,7.58A3.87,3.87,0,0,0,88.79,188C88.42,189.13,87.49,189.89,86.58,188.23Z"/><path class="cls-11" d="M79.18,205s-2.34,2-7.93.14-1-3.88.56-3.2,4.08-1.61,4.3-2.65c0,0-2.44,3-4.56,2-3.5-3.33-.69-6.29-.69-6.29-5.63.94-.23,5.64-.23,5.64a8.52,8.52,0,0,0-.86-.32c-2.35-.75-3.49.21-3.17,2.21.35,2.23,1.88,4,9.39,3.87a4.57,4.57,0,0,0,3.21-1.32Z"/><path class="cls-49" d="M30.74,193.57s-4,7.38-8.56-1.17c.81,3-18.93,30.61-19.34,31.18,0,0,6.43-1.61,6.43-1.61S30,196.62,30.74,193.57Z"/><path class="cls-50" d="M61.49,219s-9.86-25.94-11.27-31.1c0,0,1.17,10.58-5.4,3.24l-.39-.4c2.63,6.11,13.89,30.13,13.89,30.13Z"/><path class="cls-51" d="M2.82,232.3s-3.52-6.69-1.18-9.74,12.21-5.17,16.43-2.82,15.26,11,13.61,13.14H10.09s-3.52-6.22-4.93-6.22-.11,6.22-.11,6.22Z"/><path class="cls-51" d="M44.82,230.74s0-10.81,10.21-12.86,13,12.86,13,12.86Z"/><path class="cls-52" d="M1.64,222.56c-2.34,3.05,1.18,9.74,1.18,9.74l2.23.58s-1.29-6.22.11-6.22,4.93,6.22,4.93,6.22H31.68c.88-1.13-1.88-4.15-5.28-7.07,0,0,4.63,4.71-.2,5.29s-21-4.44-21.53-7.49,4.24-4.42,4.4-4.47C5.81,219.76,2.81,221,1.64,222.56Z"/><path class="cls-53" d="M44.82,230.74H68.05a26.27,26.27,0,0,0-2.35-6.58l0,.05c3.32,6.26-11.69,6.53-15.51,3.82s-1.1-7.19-1-7.35C44.82,224.58,44.82,230.74,44.82,230.74Z"/><path class="cls-54" d="M17.29,219.38s-5.87-1.77-6.55,1.3,11.59,8.69,14.43,8S22.56,221.66,17.29,219.38Z"/><path class="cls-55" d="M62.64,220s-6.46-4.68-8.85,0S73.81,231.58,62.64,220Z"/></g></g></g></svg>