<svg xmlns="http://www.w3.org/2000/svg" xmlns:xlink="http://www.w3.org/1999/xlink" viewBox="0 0 106.98 226.96"><defs><style>.cls-1{fill:none;}.cls-2{isolation:isolate;}.cls-3{fill:url(#linear-gradient);}.cls-4{fill:#634277;}.cls-12,.cls-13,.cls-15,.cls-34,.cls-36,.cls-38,.cls-39,.cls-4{opacity:0.28;}.cls-10,.cls-12,.cls-13,.cls-15,.cls-22,.cls-31,.cls-34,.cls-36,.cls-38,.cls-39,.cls-4,.cls-9{mix-blend-mode:multiply;}.cls-5{fill:url(#linear-gradient-2);}.cls-6{fill:url(#linear-gradient-3);}.cls-7{fill:url(#linear-gradient-4);}.cls-8{fill:url(#linear-gradient-5);}.cls-10,.cls-9{opacity:0.32;}.cls-9{fill:url(#linear-gradient-6);}.cls-10,.cls-13{fill:#ce0000;}.cls-11{fill:#7cb9ce;}.cls-12{fill:#4742a6;}.cls-14{fill:url(#linear-gradient-7);}.cls-15,.cls-31{fill:#005b4a;}.cls-16{clip-path:url(#clip-path);}.cls-17{fill:url(#linear-gradient-8);}.cls-18{fill:url(#linear-gradient-9);}.cls-19{fill:url(#linear-gradient-10);}.cls-20{fill:url(#linear-gradient-11);}.cls-21{fill:#fff;}.cls-22{fill:#838bc5;opacity:0.36;}.cls-23,.cls-29{opacity:0.67;mix-blend-mode:color-dodge;}.cls-23{fill:url(#linear-gradient-12);}.cls-24{clip-path:url(#clip-path-2);}.cls-25{fill:url(#linear-gradient-13);}.cls-26{fill:url(#linear-gradient-14);}.cls-27{fill:url(#linear-gradient-15);}.cls-28{fill:url(#linear-gradient-16);}.cls-29{fill:url(#linear-gradient-17);}.cls-30{fill:url(#linear-gradient-18);}.cls-31{opacity:0.5;}.cls-32{clip-path:url(#clip-path-3);}.cls-33{fill:#44170d;}.cls-34{fill:url(#linear-gradient-19);}.cls-35{mix-blend-mode:screen;fill:url(#linear-gradient-20);}.cls-36{fill:url(#linear-gradient-21);}.cls-37{fill:url(#linear-gradient-22);}.cls-38{fill:url(#linear-gradient-23);}.cls-39{fill:url(#linear-gradient-24);}.cls-40{fill:#1f2744;}</style><linearGradient id="linear-gradient" x1="4.69" y1="31.74" x2="22.28" y2="49.33" gradientUnits="userSpaceOnUse"><stop offset="0" stop-color="#d4d3f9"/><stop offset="0.22" stop-color="#c1bfea"/><stop offset="0.61" stop-color="#a39ed2"/><stop offset="0.83" stop-color="#9892c9"/></linearGradient><linearGradient id="linear-gradient-2" x1="90.42" y1="36.09" x2="105.05" y2="50.73" xlink:href="#linear-gradient"/><linearGradient id="linear-gradient-3" x1="52.89" y1="2.66" x2="65.59" y2="15.36" xlink:href="#linear-gradient"/><linearGradient id="linear-gradient-4" x1="55.51" y1="222.51" x2="55.51" y2="141.26" gradientUnits="userSpaceOnUse"><stop offset="0" stop-color="#3372bb"/><stop offset="0.23" stop-color="#336bb4"/><stop offset="0.56" stop-color="#3358a0"/><stop offset="0.96" stop-color="#33397f"/><stop offset="0.98" stop-color="#33387e"/></linearGradient><linearGradient id="linear-gradient-5" x1="11.96" y1="76.27" x2="153.33" y2="217.64" gradientUnits="userSpaceOnUse"><stop offset="0" stop-color="#ff5b74"/><stop offset="0.03" stop-color="#ff576f"/><stop offset="0.28" stop-color="#ff3a51"/><stop offset="0.53" stop-color="#ff263b"/><stop offset="0.76" stop-color="#ff192d"/><stop offset="0.98" stop-color="#ff1529"/></linearGradient><linearGradient id="linear-gradient-6" x1="52.35" y1="142.62" x2="52.35" y2="96.23" gradientUnits="userSpaceOnUse"><stop offset="0" stop-color="#fff"/><stop offset="0.08" stop-color="#f9dfdf"/><stop offset="0.28" stop-color="#ec9d9d"/><stop offset="0.46" stop-color="#e16565"/><stop offset="0.63" stop-color="#d93939"/><stop offset="0.78" stop-color="#d31a1a"/><stop offset="0.91" stop-color="#cf0707"/><stop offset="1" stop-color="#ce0000"/></linearGradient><linearGradient id="linear-gradient-7" x1="22.32" y1="21.19" x2="144.12" y2="143" gradientUnits="userSpaceOnUse"><stop offset="0" stop-color="#98d893"/><stop offset="0.27" stop-color="#95d793"/><stop offset="0.44" stop-color="#8dd291"/><stop offset="0.57" stop-color="#7fca8f"/><stop offset="0.69" stop-color="#6abe8c"/><stop offset="0.81" stop-color="#50af88"/><stop offset="0.91" stop-color="#309d83"/><stop offset="0.98" stop-color="#138d7e"/></linearGradient><clipPath id="clip-path"><path class="cls-1" d="M63.82,58.79c5.11,7.32,14.59,11.94,23.35,7S93,30.66,73.34,30.63C59.72,30.61,57.67,50,63.82,58.79Z"/></clipPath><linearGradient id="linear-gradient-8" x1="76.19" y1="67.85" x2="76.19" y2="30.63" gradientUnits="userSpaceOnUse"><stop offset="0.2" stop-color="#ffffc7"/><stop offset="0.29" stop-color="#fcf8c4"/><stop offset="0.43" stop-color="#f4e6ba"/><stop offset="0.59" stop-color="#e6c7ab"/><stop offset="0.77" stop-color="#d39d95"/><stop offset="0.96" stop-color="#bb677a"/><stop offset="1" stop-color="#b55b74"/></linearGradient><linearGradient id="linear-gradient-9" x1="63.94" y1="239.63" x2="63.94" y2="215.44" gradientTransform="translate(-145.25 -27.33) rotate(-55.71)" gradientUnits="userSpaceOnUse"><stop offset="0" stop-color="#7ec9e0"/><stop offset="0.03" stop-color="#79c6de"/><stop offset="0.18" stop-color="#63b7d5"/><stop offset="0.35" stop-color="#53accf"/><stop offset="0.54" stop-color="#4aa6cb"/><stop offset="0.8" stop-color="#47a4ca"/></linearGradient><linearGradient id="linear-gradient-10" x1="-780.43" y1="108.22" x2="-770.75" y2="130.08" gradientTransform="matrix(-0.62, 0.61, 0.7, 0.71, -485.58, 440.43)" gradientUnits="userSpaceOnUse"><stop offset="0" stop-color="#56b8ff"/><stop offset="0.11" stop-color="#67c0fc"/><stop offset="0.34" stop-color="#85cef7"/><stop offset="0.57" stop-color="#9ad8f4"/><stop offset="0.79" stop-color="#a7def2"/><stop offset="1" stop-color="#abe0f1"/></linearGradient><linearGradient id="linear-gradient-11" x1="393.51" y1="29.48" x2="393.51" y2="13.64" gradientTransform="matrix(-0.63, 0.36, 0.5, 0.87, 315.7, -113.15)" gradientUnits="userSpaceOnUse"><stop offset="0" stop-color="#7ec9e0"/><stop offset="0.25" stop-color="#71c0db"/><stop offset="0.71" stop-color="#4fa9cd"/><stop offset="0.8" stop-color="#47a4ca"/></linearGradient><linearGradient id="linear-gradient-12" x1="49.6" y1="32.9" x2="80.83" y2="64.13" gradientUnits="userSpaceOnUse"><stop offset="0" stop-color="#6a72bb"/><stop offset="0.3" stop-color="#464b7b"/><stop offset="0.89"/></linearGradient><clipPath id="clip-path-2"><path class="cls-1" d="M46,132.48c10.91,5.29,19.2,1.23,23.66-8.91s-5.09-17.14-14.9-17.82C43.69,105,31.1,125.26,46,132.48Z"/></clipPath><linearGradient id="linear-gradient-13" x1="54.98" y1="142.56" x2="54.98" y2="105.17" gradientUnits="userSpaceOnUse"><stop offset="0" stop-color="#b55b74"/><stop offset="0.04" stop-color="#bb677a"/><stop offset="0.23" stop-color="#d39d95"/><stop offset="0.41" stop-color="#e6c7ab"/><stop offset="0.57" stop-color="#f4e6ba"/><stop offset="0.71" stop-color="#fcf8c4"/><stop offset="0.8" stop-color="#ffffc7"/></linearGradient><linearGradient id="linear-gradient-14" x1="-142.3" y1="398.27" x2="-126.67" y2="412.19" gradientTransform="translate(-337.12 287.92) rotate(-131.68)" xlink:href="#linear-gradient-9"/><linearGradient id="linear-gradient-15" x1="-531.05" y1="282.27" x2="-546.66" y2="295.5" gradientTransform="matrix(-0.62, 0.62, 0.7, 0.71, -482.31, 245.3)" gradientUnits="userSpaceOnUse"><stop offset="0" stop-color="#abe0f1"/><stop offset="0.21" stop-color="#a7def2"/><stop offset="0.43" stop-color="#9ad8f4"/><stop offset="0.66" stop-color="#85cef7"/><stop offset="0.89" stop-color="#67c0fc"/><stop offset="1" stop-color="#56b8ff"/></linearGradient><linearGradient id="linear-gradient-16" x1="675.97" y1="193.88" x2="662.64" y2="202.58" gradientTransform="matrix(0.49, 0.54, 0.74, -0.67, -417.46, -109.83)" xlink:href="#linear-gradient-11"/><linearGradient id="linear-gradient-17" x1="38.14" y1="103.41" x2="55.36" y2="120.64" xlink:href="#linear-gradient-12"/><linearGradient id="linear-gradient-18" x1="75.91" y1="112.49" x2="54.38" y2="143.08" gradientUnits="userSpaceOnUse"><stop offset="0" stop-color="#98d893"/><stop offset="1" stop-color="#138d7e"/></linearGradient><clipPath id="clip-path-3"><path class="cls-1" d="M50.3,35.55s-5.83-7.18-21,1.43S15.17,56,22.54,62.74,37.81,70,47.74,57.56,59.31,31.45,41,30.63C41,30.63,49.18,31.86,50.3,35.55Z"/></clipPath><linearGradient id="linear-gradient-19" x1="53.72" y1="95.67" x2="53.72" y2="67.04" gradientUnits="userSpaceOnUse"><stop offset="0" stop-color="#fff"/><stop offset="0.1" stop-color="#d7e6e3"/><stop offset="0.29" stop-color="#97bcb5"/><stop offset="0.47" stop-color="#61998f"/><stop offset="0.64" stop-color="#377e71"/><stop offset="0.78" stop-color="#196b5c"/><stop offset="0.91" stop-color="#075f4f"/><stop offset="1" stop-color="#005b4a"/></linearGradient><linearGradient id="linear-gradient-20" x1="24.25" y1="3.62" x2="44.1" y2="23.47" gradientUnits="userSpaceOnUse"><stop offset="0" stop-color="#6aed00"/><stop offset="0.47" stop-color="#377b00"/><stop offset="1"/></linearGradient><linearGradient id="linear-gradient-21" x1="63.89" y1="129.97" x2="47.07" y2="146.79" gradientUnits="userSpaceOnUse"><stop offset="0" stop-color="#005b4a"/><stop offset="0.09" stop-color="#075f4f"/><stop offset="0.22" stop-color="#196b5c"/><stop offset="0.36" stop-color="#377e71"/><stop offset="0.53" stop-color="#61998f"/><stop offset="0.71" stop-color="#97bcb5"/><stop offset="0.9" stop-color="#d7e6e3"/><stop offset="1" stop-color="#fff"/></linearGradient><linearGradient id="linear-gradient-22" x1="34.5" y1="119.59" x2="92.56" y2="177.64" xlink:href="#linear-gradient-18"/><linearGradient id="linear-gradient-23" x1="74.17" y1="222.51" x2="74.17" y2="185.36" gradientUnits="userSpaceOnUse"><stop offset="0" stop-color="#fff"/><stop offset="0.14" stop-color="#dfd8e3"/><stop offset="0.36" stop-color="#b3a3bd"/><stop offset="0.56" stop-color="#90799f"/><stop offset="0.74" stop-color="#785b89"/><stop offset="0.89" stop-color="#68497c"/><stop offset="1" stop-color="#634277"/></linearGradient><linearGradient id="linear-gradient-24" x1="39.41" y1="222.51" x2="39.41" y2="177.52" xlink:href="#linear-gradient-23"/></defs><g class="cls-2"><g id="Capa_2" data-name="Capa 2"><g id="Layer_1" data-name="Layer 1"><path class="cls-3" d="M20.09,33.19s-2.1-11.06-9.4-5.94c0,0,5.43-2.46,6.64,3.38,0,0-5.45-6-7.59,0,0,0-12.1.7-9.33,13.92,0,0-.6-9.31,5.85-10.95,0,0-7.85,4.81-1.47,12.7a15,15,0,0,0,15.3,5.23Z"/><path class="cls-4" d="M9.79,30.53c.36-.63,2.7-4,8.25,3.56a28.39,28.39,0,0,1,2.05,3.09V33.53l-1.59-.44S12.5,25.05,9.79,30.53Z"/><path class="cls-4" d="M20.09,38.35a15.48,15.48,0,0,1-3.28-2.27,7.4,7.4,0,0,0-5.76-4.76s4.79,1.8,4,5.15c0,0-4.75-6.2-9.8.46,0,0,3.79-3.84,7.58-.92,0,0-7.89-1.39-8.12,5.37a5.9,5.9,0,0,0,2.58,5.15A23.34,23.34,0,0,0,14,48.89a14.9,14.9,0,0,1-6.7-2.36c-3.14-1.76-5.87-4.7-4.26-9.41C2,39.31,1.66,42.43,4.79,46.3a14.91,14.91,0,0,0,14.87,5.33l.43-4.12Z"/><path class="cls-5" d="M92.91,35.29s7-13.67,12.14-5.58c0,0-4-5.12-8.46,3.38,0,0,4.74-6.46,8.46,0,0,0-3.41-5.51-8.7,2.67,0,0,4.36-4.8,8.7,0s0,11.15,0,11.15,1.89,1.46-1.29,5.08-12.32,6.43-12.32,6.43Z"/><path class="cls-6" d="M47.58,8S55.94.21,62.9,0s9.42,4.61,9.42,4.61-6.27-8.3-18.6.61c0,0,15.12-6.72,17.06,4.93,0,0-2.5-11.37-17.48-1.75S47.58,8,47.58,8Z"/><path class="cls-4" d="M93.24,38.62C91.32,43.15,96.1,55.8,96.1,55.8l1.88.05A18.52,18.52,0,0,0,103.76,52a7.08,7.08,0,0,0,1.76-3c0-.41.15-3.69-7.14.26,0,0,4.59-4.25,6.67-2.33a12.65,12.65,0,0,0,1.87-5.16c-.27-1.72-1.2-3.68-4.16-2.9-5,1.3-6,8.29-6,8.29s-.41-13.28,8.28-9.44c0,0-5.06-4.23-8.36,2.3s-2.37-1.64-.34-4.24A11.75,11.75,0,0,1,100,31.88S95.16,34.09,93.24,38.62Z"/><path class="cls-4" d="M70.78,10.16C68.84-1.49,53.72,5.23,53.72,5.23,58.26,2,62,1,64.86,1.12c0,0-6.42-1.68-14.64,6.85C49,9.26,48.67,10.25,49,11c1.14-.63,2.55-1.48,4.3-2.6C68.28-1.21,70.78,10.16,70.78,10.16Z"/><path class="cls-7" d="M28,141.26l13.37,38.93s-1.54-2.23-.77,3.45c0,0-.72-1.23-1.43,4.76s-9.32,22.28-9.32,22.28-1.69-2.15-3.07,3.22-1.24,7.22-1.24,7.22,13.22-6,17.37-4.3-.77-3.38,2-10.44,8.34-22.89,8.34-22.89l-2.5-16.9,11.52,2,.62,15.16s7.78,19.41,7.88,23.25-2.4,3.84,0,7.22,14.39,8.3,14.39,8.3,1.54-15.21-2.61-13.37A7.12,7.12,0,0,0,80.72,203c-2.61-2.61-7.34-20.86-7.22-21.82,0,0,1.84-5.22-.77-3.53l7.69-30.74-29.51-3.37Z"/><path class="cls-4" d="M82.56,209.14A7.12,7.12,0,0,0,80.72,203c-2.61-2.61-7.34-20.86-7.22-21.82,0,0,1.84-5.22-.77-3.53l7.69-30.74-29.51-3.37L28,141.26l13.37,38.93s-1.54-2.23-.77,3.45c0,0-.72-1.23-1.43,4.76s-9.32,22.28-9.32,22.28-1.69-2.15-3.07,3.22-1.24,7.22-1.24,7.22,13.22-6,17.37-4.3c3.13,1.28,1.1-1.3,1.1-5.68-3.8,1.57-10.67,3.66-12.78-.56,0,0,5.12,4.71,12.5-3.59,0,0-4.41,4.51-9.84,2.87s9.84-21.51,9.84-21.51-5.43-8.81-.21-4.2c0,0-4.92-6.45,1-3.17L32.48,151s30.52,15.32,44.86.64l-7.48,30.28s4.1-8.59,2.46,1.65c0,0,6.86,19.05,7.78,22s-4.4,6.86-8.09.82c0,0,3.79,10.25,9.53,3.18,0,0-5.27,10-10.85-1.18-.41,2.51-2,2.92.09,5.83,2.41,3.38,14.39,8.3,14.39,8.3S86.71,207.3,82.56,209.14Z"/><path class="cls-4" d="M66.52,161.52C63.63,164,55.8,169,47.13,160.39c0,0,3.17,3.08,3.63,6.2l11.52,2A18.08,18.08,0,0,1,66.52,161.52Z"/><path class="cls-8" d="M88.86,121.58c-1.08-6-1.08-15.21-2.46-27.35-.93-8.19-6.2-7.42-9.53-6.06-.27-.54-.45-.86-.45-.86l-33.34-4s-13.1,4.61-14.23,7A11.37,11.37,0,0,0,27.1,89s-6.6-4.15-8.45,5.07-5.07,28.2-7.06,33-3.69,8,2.3,8.79a98.94,98.94,0,0,0,10.34.34c-.08,2.51.27,4.4,1.33,5.06,0,0-2.91,1.21,4.92,6.43s26.43,10.6,38.72,6,14-9.9,11.06-10.75c0,0,2.3-2.31.15-5.68a29.13,29.13,0,0,1-2.06-6.18l4.83-2C89.47,126.35,89.94,127.57,88.86,121.58ZM23.42,129s2.15-2.3-1.39-2c0,0,2.46-17,4.77-20.24.18-.27.41-.58.64-.92.8,3.09,1.41,6.88.74,9.92s-2.08,8.18-3,13.2ZM80,122s-1.43.56-3.28,1.32c-1.7-9.28-2.5-19.89,1-21,1.54,4.16,3.3,10.82,2.59,13.5-.92,3.46.77,4.44.77,4.44C78.11,119.88,80,122,80,122Z"/><path class="cls-9" d="M25.25,91c4,2.69-3.91,34.42-5.21,35.34,0,0,2.76.69-.47,3.38,0,0,5.15-3.46,2.77,0,0,0,8.22-.79,15.76-.7-2.36-.07-10.46-.83-10-7.56.54-7.87,6.07-21.2,6.07-21.2s-2.53,6.15-5.2,5.65,4.85-6.76,4.85-6.76-3.61,2.95-4.26,2.76,3.27-7,7.26-5.8c0,0,8.22,11.64,14.82,13.44S64,108,69.16,96.44c0,0,7,.24,8.06,3.93s-5.83-2.32-5.83-2.32,3.53,3.25,3,5.82-3-3.84-3-3.84,4.46,18.32,4,21.35S71.08,125,71.08,125l.31,1.06L80,122s-1.43.56-3.28,1.32c-1.7-9.28-2.5-19.89,1-21,1.54,4.16,3.3,10.82,2.59,13.5-.92,3.46.77,4.44.77,4.44C78.11,119.88,80,122,80,122s-1.28-2.66,4-.46c0,0-5.46-3.54-.34-2.2a4.26,4.26,0,0,1-1.88-4.33c.46-3-2.18-14.15-3.15-17.54s1.22-10.94,6.55-7.62c-2-3.45-5.69-2.77-8.25-1.72-.27-.54-.45-.86-.45-.86l-33.34-4s-13.1,4.61-14.23,7A11.37,11.37,0,0,0,27.1,89s-4.62-2.9-7.21,1.54C20.76,89.93,22.4,89.09,25.25,91Zm2.19,14.91c.8,3.09,1.41,6.88.74,9.92s-2.08,8.18-3,13.2H23.42s2.15-2.3-1.39-2c0,0,2.46-17,4.77-20.24C27,106.56,27.21,106.25,27.44,105.91Z"/><path class="cls-10" d="M13.89,135.86a98.94,98.94,0,0,0,10.34.34c-.08,2.51.27,4.4,1.33,5.06,0,0-2.91,1.21,4.92,6.43s26.43,10.6,38.72,6,14-9.9,11.06-10.75c0,0,2.3-2.31.15-5.68a29.13,29.13,0,0,1-2.06-6.18l4.83-2c3.67-1.56,5.35-1.81,5.9-2.92-1.46,1.9-20.65,5.37-20.65,5.37l-27,4.23-4-2.46s-24.3,2.49-26.12.54c-.73-.78-.64-3-.27-5.34C9.33,132.48,8.5,135.17,13.89,135.86Z"/><path class="cls-11" d="M34.17,91.16s13.33,18.35,21.34,18.39S75.22,83.32,75.22,83.32Z"/><path class="cls-12" d="M38.47,92.69s8,10,16.51,9.64,13.86-8.61,13.86-8.61Z"/><path class="cls-13" d="M24.23,136.2l16.6-1,8.91,3.53,12.59-2.15,4.41-2.71,11.61-2.8s-8.28,2.49-9.87,4.64.3,8.81-13.5,10.19c0,0,13.89,1.33,23.14-2.56,0,0-4.26,16-45.13,3.53,0,0,19.15,5.53,32.62,2.2,0,0-22,2.11-39.79-7.73,0,0,15.47,7.63,31.24,6.4,0,0-12-1.38-17.62-6.4S24.23,136.2,24.23,136.2Z"/><path class="cls-4" d="M23.68,88.47s4.52,8.62,11.06,6.87c3.53,4.08,10.45,10.16,20.17,9.75,11.53-.49,18.7-9.31,21.18-13,1.06,0,2.84-.64,4.42-3.67C83,83.78,23.68,88.47,23.68,88.47Z"/><path class="cls-14" d="M103.45,50.29a4.89,4.89,0,0,0-6.29,3.54s-4.15-6-3.23-17.06S90.09,21.1,78.87,15,51.38,2.82,35.71,10.5,19,31.55,19,31.55,13.28,37.23,14,44.15a23.47,23.47,0,0,1,0,4.74C12,47,7.57,44,2.68,47.43c-6.37,4.5,2.07,19.4,8,19.79-.12.77-.24,1.53-.33,2.28-1.08,8.6,9.83,14.13,9.83,14.13,8.6,14.59,18.28,9.06,18.28,9.06s7.37,6.92,15.36,8.15,14.44-6.46,14.44-6.46c6.46,2.31,9.38-4.91,9.38-4.91,15.67,2,20.73-17.36,20.73-17.36C105.76,75.18,108.68,51.52,103.45,50.29Z"/><path class="cls-15" d="M10.69,67.22c-.12.77-.24,1.53-.33,2.28-1.08,8.6,9.83,14.13,9.83,14.13,8.6,14.59,18.28,9.06,18.28,9.06s7.37,6.92,15.36,8.15,14.44-6.46,14.44-6.46c6.46,2.31,9.38-4.91,9.38-4.91,15.67,2,20.73-17.36,20.73-17.36,6.45,2.68,9.49-15,6.67-20.38,0,.05,1.31,3.64-.14,4.48s-.76-3.69-4.53-1.69c-3.2,1.7-3-1.61-1.9-3.06a5.68,5.68,0,0,0-1.32,2.37s-4.15-6-3.23-17.06S90.09,21.1,78.87,15C71.3,10.81,61.41,6.73,51,6.89c5.66.1,17.37,2,31.29,13.94C101.92,37.7,81,32.46,81,32.46s-7.34-1.25-10.68-6.13a16.38,16.38,0,0,0-7.76-6.27,7.41,7.41,0,0,0-3.23,4.12c-.61,2.61-1.51,17.43,1.67,27.76s8.08,17.31,23.24,20.31c-.54-.12-4.91-1.17-7.62-3.6,0,0,5.68,3.84,10.29.62s3.69-8.91,6.22-7.92,1.46,18.82-7.91,23.36S73.73,73.57,73.73,73.57s-.42,9.43-2.9,10.59S68.5,58.59,64.05,68.88c0,0,2.19-1.46,2.88,3.23s-6.07,1-7.72-.92c0,0,1.46,4.45-.42,4.53s-3.74-5.3-3.74-5.3,1.08,5.34-.36,5.34-3-5.07-3-5.07.72,5.64-2.12,5.76-5.71-4.15-5.44-5.34,2.3-4.53,2.76-1.42c0,0,.35-8.49-4.18.8s-9.95,16.17-13.94,15S22,72.18,22,72.18s.86,9-3.3,8.15S8.05,72.42,12.58,63.58s6.53-3.22,8.61,0,4.61,7.23,14,4.27c0,0-3,2-10.37,1.72a21.69,21.69,0,0,0,18.28-4.68c4.4-3.72,7.72-9.28,9.92-13.8a26.22,26.22,0,0,0,2.46-14.41,104.62,104.62,0,0,0-2.2-13c-2-7.45-9.11-.23-11.87,3.61s-18.77,15.36-24.06,14a3.44,3.44,0,0,1-2.74-2.29A12.93,12.93,0,0,0,14,44.15a23.47,23.47,0,0,1,0,4.74A13.06,13.06,0,0,0,11.4,47a4.34,4.34,0,0,1,1.65,4.15c-.39,2.76-6.84-5-9.91,2.3C1,58.41.54,54.8.42,52,.13,58.12,6.14,66.92,10.69,67.22ZM57.6,79.84c9.6.31,11.21,6.15,8.06,8.76s-12.22,1.92-16.14-2C45.91,83,48,79.53,57.6,79.84Z"/><g class="cls-16"><path class="cls-17" d="M63.82,58.79c5.11,7.32,14.59,11.94,23.35,7S93,30.66,73.34,30.63C59.72,30.61,57.67,50,63.82,58.79Z"/><path class="cls-18" d="M73.71,58.86c5.17,4.13,11.62,2.63,14.42-3.35a16,16,0,0,0-4.3-18.3c-5.16-4.13-11.62-2.63-14.41,3.35A15.92,15.92,0,0,0,73.71,58.86Z"/><ellipse class="cls-19" cx="78.77" cy="48.04" rx="9.35" ry="11.87" transform="translate(-8.98 19.53) rotate(-13.38)"/><ellipse class="cls-20" cx="78.77" cy="48.04" rx="6.22" ry="8.41" transform="translate(-13.1 39.53) rotate(-26.08)"/><path class="cls-21" d="M83.64,44.8c2.1-.6-1.24-4.35-2-3.21S80.47,45.69,83.64,44.8Z"/><path class="cls-22" d="M60.52,54.7S57.88,39.13,71.3,35.29,97.62,58.93,83.89,68.7,105,72.52,105,72.52L99.66,39.74,89,26.94S84.81,25.1,82,25.1s-22.23,4.61-22.23,4.61L53.27,45.27Z"/><path class="cls-23" d="M61.78,54.69S58.9,44.05,68.63,39.44,92.8,69.75,72.42,65.86,61.78,54.69,61.78,54.69Z"/></g><g class="cls-24"><path class="cls-25" d="M46,132.48c10.91,5.29,19.2,1.23,23.66-8.91s-5.09-17.14-14.9-17.82C43.69,105,31.1,125.26,46,132.48Z"/><path class="cls-26" d="M64.26,126.42c5.26-4,5.37-10.64.24-14.8a15.94,15.94,0,0,0-18.79-.27c-5.26,4-5.37,10.64-.24,14.8A15.94,15.94,0,0,0,64.26,126.42Z"/><ellipse class="cls-27" cx="54.98" cy="118.89" rx="9.35" ry="11.87" transform="translate(-64.51 172.53) rotate(-89.35)"/><path class="cls-28" d="M60.15,123.33c3.6-2.49,4.21-6.5,1.36-9s-8.08-2.42-11.69.07-4.22,6.5-1.37,9S56.54,125.82,60.15,123.33Z"/><path class="cls-21" d="M62.21,116c2.11-.58-1.22-4.35-2-3.21S59.05,116.93,62.21,116Z"/><path class="cls-22" d="M60.75,105.37S75.19,113.74,65,127s-28.68,1.54-25.78-7.91-12.7-3.84-12.7-3.84l9.29,23s46.4,4.77,46.4,3.92S76.11,102.37,73.42,101,60.75,105.37,60.75,105.37Z"/><path class="cls-29" d="M44.06,111s9.21-9.55,16.79-1S26.76,134.63,44.06,111Z"/></g><path class="cls-30" d="M68.89,133.28c3.19-3.34-.39-5.76,5.3-10.37,3.08-2.5-2.1-5.62-4.69-2.31s-2.22,8.3-4.38,9.6-3.56,4.56-9.78,4.28-2,4.33-2,4.33,7.14,5.53,11.36,0S65.51,136.81,68.89,133.28Z"/><path class="cls-31" d="M50.3,35.55S45,29.19,29.82,37.8,15.17,56,22.54,62.74,37.81,70,47.74,57.56,59.31,31.45,41,30.63C41,30.63,49.18,31.86,50.3,35.55Z"/><g class="cls-32"><path class="cls-15" d="M52.45,52.24s4.61-19.87-18-5.84-4.72,23.76,3.78,20.28S52.45,52.24,52.45,52.24Z"/></g><path class="cls-33" d="M59.36,24.18s3.47-7.29,11,2.15C70.35,26.33,63,11.89,59.36,24.18Z"/><path class="cls-33" d="M53.26,23.64s-3.5-5.84-11.87,3.61C41.39,27.25,50.53,12.81,53.26,23.64Z"/><path class="cls-15" d="M3.29,56.44s.23-5.61,4.38-4.84S12,62.35,12,62.35s-3.3-6.9-5.3.39c0,0-.92-6,3.53-4.77C10.2,58,7,47,3.29,56.44Z"/><path class="cls-15" d="M104.15,61.43s-.23-7.76-3.54-5.07-2.53,8.07-2.53,8.07,4.3-2.76,2.61,4.27c0,0,3.64-7.58-1.38-6,0,0-.15-3.57,1.76-4.92S104.15,61.43,104.15,61.43Z"/><path class="cls-15" d="M15,49.83a23.62,23.62,0,0,1-1-5.28A26.41,26.41,0,0,1,14,48.89c1,5-3.34,18.33-3.34,18.33C12.49,61.72,15.81,51.91,15,49.83Z"/><path class="cls-15" d="M97.16,53.83s-3.15-4.56-3.35-13c0,0,.2,5.9.81,13.51s3.76,17.82,3.76,17.82C95.7,58.28,97.16,53.83,97.16,53.83Z"/><path class="cls-15" d="M44.15,69.44c-2.76,5.18,7,14.13,8.25,7,0,0,3.34,5.22,4-.16,0,0,5.29,6.08,5.21-1.19,0,0,3,1.36,5.16.08s-.71-9.91-2.47-6.87c-.09.18-.18.36-.27.57,0,0,2.19-1.46,2.88,3.23s-5,3-6.62,1c0,0,1.24,4.32-.64,4.4s-4-4.4-4-4.4.73,4.64-.71,4.64-3-5.07-3-5.07.72,5.65-2.12,5.76-6-6.18-5.75-7.37,2.3-4.53,2.76-1.42C46.84,69.69,46.92,64.27,44.15,69.44Z"/><path class="cls-15" d="M43.23,77.56s-2.9,7.91.43,13.44,22,7.69,25.84-5.68c0,0-.38,5.53-6.76,10.37s-16.13.75-16.13.75,7.46,2,11.3,0c0,0-7.61,1.32-12.07-1.21S39.85,84.32,43.23,77.56Z"/><path class="cls-34" d="M10.69,67.22c-.12.77-.24,1.53-.33,2.28-1.08,8.6,9.83,14.13,9.83,14.13,8.6,14.59,18.28,9.06,18.28,9.06s7.37,6.92,15.36,8.15,14.44-6.46,14.44-6.46c6.46,2.31,9.38-4.91,9.38-4.91,15.67,2,20.73-17.36,20.73-17.36,3.11,1.29,5.42-2.16,6.67-6.68-.84,2-2.17,4.32-4,4.53-3.3.38-5-6.63-5-6.63s.13,4.25-7.7,13.92-13.9,3.31-13.9,3.31C73.19,88.62,69.81,85,69.81,85c-4.07,7.12-15.67,11.31-22,5.94s-4.2-15.29-4.2-15.29a29.51,29.51,0,0,1-11.1,5.45C26.33,82.48,23,75.78,23,75.78a6.41,6.41,0,0,1-8.88-2.21C10.36,68.11,12,63.3,12,63.3c-4.19,3-7.7-.87-9.58-3.79C4.48,63.58,7.87,67,10.69,67.22Z"/><path class="cls-35" d="M32.28,12.41s-9.84,6.85-8.71,14.84S77,6.3,44.72,7.51A34.92,34.92,0,0,0,32.28,12.41Z"/><path class="cls-15" d="M51.25,8.93c.57-2,8.94-.64,7.85,1.5S50.31,12.17,51.25,8.93Z"/><path class="cls-15" d="M43.94,11.32c2.88-3.14,8.78,1,7.91,1.87S40.44,15.11,43.94,11.32Z"/><path class="cls-15" d="M53.3,13.8c-.13-2.06,4.93-1,4.81.15S53.53,17.29,53.3,13.8Z"/><path class="cls-4" d="M56.24,60.32c1.42.4,4.53,4.07,2.46,4.07S55,60,56.24,60.32Z"/><path class="cls-4" d="M54,59.55c-1.3,0-3.07,5.07-1.76,5.38S55.32,59.55,54,59.55Z"/><path class="cls-15" d="M50.91,58.59s4.31-5.6,8,.92c0,0-.54-11.52-5.91-4.38,0,0,3.15-4.37,4.65,1C57.64,56.15,54.6,53,50.91,58.59Z"/><path class="cls-4" d="M56.24,60.32c1.42.4,4.53,4.07,2.46,4.07S55,60,56.24,60.32Z"/><path class="cls-4" d="M54,59.55c-1.3,0-3.07,5.07-1.76,5.38S55.32,59.55,54,59.55Z"/><path class="cls-36" d="M65.46,130a1.76,1.76,0,0,1-.34.25c-2.15,1.31-3.56,4.56-9.78,4.28s-3,1.28-3,1.28,1.48,7.27,8.7,3.79C66.23,137.25,65.48,131.25,65.46,130Z"/><path class="cls-15" d="M70.78,126.11c-1.43,2.53-4.41,1.89-2.77-2.74-.8,2.13-1.12,4.35-1.9,5.75A2.46,2.46,0,0,1,69,129c2.46,1.46-3.3,5.3-3.3,5.3A5.86,5.86,0,0,1,61.9,139c-3.52,1.3-6-4.47-6.07-4.52s-3,3.76-3,3.76c.25.33.45.56.45.56s7.14,5.53,11.36,0,.85-2,4.23-5.53c3.19-3.34-.39-5.76,5.3-10.37A7,7,0,0,0,70.78,126.11Z"/><path class="cls-37" d="M46,132.35c-1.86-1-2.34-1.81-.62-4.22s1.21-8.3-3.07-11.14-6.45-.07-4.61,3.84,2.38,7.61.31,8.91-3.53,2.81.31,4.94a93.47,93.47,0,0,1,10.52,6.66C52.53,144,55,139.81,55,139.81s2.69,1.38,4.46-.54a3,3,0,0,0,.38-3.84,1.7,1.7,0,0,0,.52-1.79A20,20,0,0,1,46,132.35Z"/><path class="cls-15" d="M38,129.74c-2.07,1.31-3.53,2.81.31,4.94a93.47,93.47,0,0,1,10.52,6.66C52.53,144,55,139.81,55,139.81s2.69,1.38,4.46-.54a3,3,0,0,0,.38-3.84,1.7,1.7,0,0,0,.52-1.79,18.88,18.88,0,0,1-4.35.74c3,.82,4,2.59,3.63,3.22-.46.87-3.23,1.8-5-.71s-7-2.08-7-2.08c4.84.25,7.76,3.28,6.84,4.51s-3.31,2.15-6.84-.77-4.93-1.34-7.3-4.61-.15-4.53,1.17-4.91,3,2,3,2c-.3-.69-.06-1.55.93-2.94a7.12,7.12,0,0,0,.74-5.29,6.84,6.84,0,0,1-.28,1.88c-.92,3-4.14,2.23-5.91-.61-.71-1.14-1.48-2.23-2.17-3.14C39.55,124.84,40.06,128.45,38,129.74Z"/><path class="cls-15" d="M50.58,134A17.45,17.45,0,0,1,46,132.35c-.16-.08-.3-.17-.44-.25C46,132.88,47.15,134,50.58,134Z"/><path class="cls-38" d="M62.9,183.74s7.78,19.41,7.88,23.25-2.4,3.84,0,7.22,14.39,8.3,14.39,8.3,1.54-15.21-2.61-13.37A7.12,7.12,0,0,0,80.72,203c-2.61-2.61-7.34-20.86-7.22-21.82C67.4,192.14,62.9,183.74,62.9,183.74Z"/><path class="cls-39" d="M40.62,183.64s-.72-1.23-1.43,4.76-9.32,22.28-9.32,22.28-1.69-2.15-3.07,3.22-1.24,7.22-1.24,7.22,13.22-6,17.37-4.3-.77-3.38,2-10.44,8.34-22.89,8.34-22.89c-4,3.77-8.82-.42-12.55-5.27l.68,2S39.85,178,40.62,183.64Z"/><path class="cls-40" d="M48.92,227s-.08-13.36-11.6-13.06S22.65,227,22.65,227Z"/><path class="cls-40" d="M57.37,225.27l26,.23,1.84-3-4.53-2.61s-3.61-7.06-11-7.07C63.82,212.82,59.44,217.05,57.37,225.27Z"/><path class="cls-4" d="M22.65,227H48.92a18.69,18.69,0,0,0-1.43-6.52c0,.13,1.22,5.18-10.5,4.47-11.88-.71-12.41-2.6-7.64-8.26C24.25,220.48,22.65,227,22.65,227Z"/><path class="cls-4" d="M83.33,225.5l1.84-3-4.53-2.61a14.78,14.78,0,0,0-2.23-3c0,.08,3,5.28-1.89,6.29s-20.1,3.11-16.62-4.32a24.08,24.08,0,0,0-2.53,6.42Z"/></g></g></g></svg>