<svg id="Layer_1" data-name="Layer 1" xmlns="http://www.w3.org/2000/svg" xmlns:xlink="http://www.w3.org/1999/xlink" viewBox="0 0 139.4 124"><defs><style>.cls-1{fill:#895633;}.cls-10,.cls-2{fill:#af7546;}.cls-2{opacity:0.7;}.cls-3{fill:#753b14;opacity:0.73;}.cls-4{fill:url(#linear-gradient);}.cls-5{fill:#ffd18f;opacity:0.33;}.cls-6{fill:#b74f08;opacity:0.27;}.cls-7{fill:#ad4600;opacity:0.26;}.cls-8{fill:#bf8758;}.cls-9{fill:#e8c08b;}.cls-11{fill:#9b6238;}.cls-12,.cls-13{fill:#895229;}.cls-13{opacity:0.31;}.cls-14{fill:#ddaa5f;}.cls-15{fill:#996322;}.cls-16{fill:#844d1a;}.cls-17{fill:#66581b;}.cls-18,.cls-19,.cls-20{fill:#999479;}.cls-18{opacity:0.44;}.cls-19{opacity:0.74;}.cls-20{opacity:0.29;}.cls-21{fill:#fff;}.cls-22{fill:#0f0c01;}.cls-23{fill:#561207;}.cls-24,.cls-27{fill:#2d2606;}.cls-25{fill:#c1b581;}.cls-25,.cls-26{opacity:0.78;}.cls-26{fill:#c6ba85;}.cls-27{opacity:0.42;}.cls-28{fill:#995410;}.cls-29{fill:#ef9b3f;opacity:0.25;}.cls-30{fill:#663610;}</style><linearGradient id="linear-gradient" x1="56.59" y1="72.16" x2="75.12" y2="97.66" gradientUnits="userSpaceOnUse"><stop offset="0" stop-color="#efb744"/><stop offset="1" stop-color="#d5793a"/></linearGradient></defs><path class="cls-1" d="M62.5,71.6c4.79-1,9.41-2.2,13.23-5.35-2.81-2.33-6.84-3.83-10-5.93-3.39-2.28-6.74-4.8-9.89-7-2.83,4.78-3.18,11.36-5.74,16.64h.33C48.31,74,60.82,71.94,62.5,71.6Z"/><path class="cls-1" d="M81.61,67.33c-2.13.65-3,.23-3.41,2.59-.27,1.41.6,4.07.74,5.68.38,4.37.55,8.77,1.16,13.11.32,2.27.71,7.29,3.52,7.47,1.22.07,5.33-3.58,6.31-4.35a43.66,43.66,0,0,0,7-6.8,62,62,0,0,0,9-15.06,30.57,30.57,0,0,1-10.32,0c-3.88-.8-3.69-3.19-5.09-6.62A40.87,40.87,0,0,1,81.61,67.33Z"/><path class="cls-2" d="M89.76,70.6c3.8.52,7.66,1.35,11.43.2l1.79-.53a25.9,25.9,0,0,1-7.42-.35c-3.76-.77-3.7-3-5-6.32A36.57,36.57,0,0,1,89.76,70.6Z"/><path class="cls-3" d="M81.61,67.33c-2.13.65-3,.23-3.41,2.59-.27,1.41.6,4.07.74,5.68.38,4.37.55,8.77,1.16,13.11.32,2.27.71,7.29,3.52,7.47,1.22.07,5.33-3.58,6.31-4.35a43.66,43.66,0,0,0,7-6.8,62,62,0,0,0,9-15.06l-.42,0c-1.54,1.82-2.86,3.75-4.27,5.68-.79,1.09-3.8,5.44-5.62,3.28-1-1.25-1.27-2.9-2.22-4.21-1.51-2.06-3.61-3.23-5.47-4.89-1.71-1.54-2.11-2.94-1.61-4.35A38.66,38.66,0,0,1,81.61,67.33Z"/><path class="cls-1" d="M44.65,73c-4-.33-8.57-1.68-10.2-4.79a30.57,30.57,0,0,0,.81,15.42c1.09,4,3,9.68,7.46,11.09C50.66,97.24,56.81,78.38,57.79,73,53.41,72.76,49,73.36,44.65,73Z"/><path class="cls-3" d="M62.5,71.6c4.79-1,9.41-2.2,13.23-5.35-2.81-2.33-6.84-3.83-10-5.93-1.5-1-3-2.06-4.46-3.12a4,4,0,0,1,.14.75c.28,2.48-1.46,3.88-3.53,4.84-1,.46-4.15,1.83-4.88.11a5.69,5.69,0,0,1-.28-.94,42.19,42.19,0,0,1-2.62,8h.33C48.31,74,60.82,71.94,62.5,71.6Z"/><path class="cls-3" d="M45.12,73a13.62,13.62,0,0,1-5.77,3.14c-3.67.74-4.27-4.77-4.65-7.55l-.25-.41a30.57,30.57,0,0,0,.81,15.42c1.09,4,3,9.68,7.46,11.09C50.66,97.24,56.81,78.38,57.79,73,53.57,72.77,49.34,73.31,45.12,73Z"/><path class="cls-4" d="M55.18,65.59C48,69.52,38.76,76.3,38.15,85.32c-.88,12.89,12.9,20.64,24,20.67,4.9,0,8.64-2.45,12.81-4.48,6.11-3,17.46-6.65,20.18-13.63C98,80.45,88.44,70.6,82.52,67.59,74.07,63.28,64.12,60.67,55.18,65.59Z"/><path class="cls-5" d="M67.23,65.66a19.05,19.05,0,0,0-9.78,1,29.46,29.46,0,0,0-7.4,4.42c-2.65,2.32-6.12,6.21-3.73,9.78C51,88,64.27,82,70.27,79.69c1.49-.59,3.83-1.31,5.92-2.3,2-2.25,3.23-5,.68-7.3A20.45,20.45,0,0,0,67.23,65.66Z"/><path class="cls-5" d="M65.22,67.09a15,15,0,0,0-7.46.76,22.72,22.72,0,0,0-5.65,3.24c-2,1.7-4.66,4.55-2.84,7.16,3.59,5.18,13.7.83,18.27-.88,1.14-.43,2.92-1,4.51-1.69,1.51-1.64,2.47-3.68.53-5.34A15.92,15.92,0,0,0,65.22,67.09Z"/><path class="cls-6" d="M76.48,83.12c-4.7.86-7.57,4.95-12.31,5.62-4.45.63-9.4,1.46-13.81.13-3.74-1.13-7.39-3.82-8.79-7.6a10.09,10.09,0,0,1-.65-3.73,16.11,16.11,0,0,0-2.77,7.78c-.88,12.89,12.9,20.64,24,20.67,4.9,0,8.64-2.45,12.81-4.48,6.11-3,17.46-6.65,20.18-13.63C98,80.49,88.54,70.71,82.62,67.64a14.71,14.71,0,0,1,1.09,1.3,8.31,8.31,0,0,1,1.48,7.84C83.81,80.91,80.41,82.4,76.48,83.12Z"/><path class="cls-7" d="M85.83,85.43c-1.24.48-2.61.48-3.84.95s-1.76,1.86-2.44,3a9.23,9.23,0,0,1-4.37,3.12c-2.41,1-5,1.4-7.45,2.14-2.15.64-4.31,1.36-6.52,1.79-4.17.81-8.22.79-11.82-1.72A30.49,30.49,0,0,1,41,85.29a12.72,12.72,0,0,1-1.56-5.07,15,15,0,0,0-1.3,5.1c-.88,12.89,12.9,20.64,24,20.67,4.9,0,8.64-2.45,12.81-4.48,6.11-3,17.46-6.65,20.18-13.63,2.12-5.47-2.52-12.23-7.47-16.63a17.8,17.8,0,0,1,2.53,6.15A7.33,7.33,0,0,1,85.83,85.43Z"/><path class="cls-7" d="M90.09,84.23c-4-.67-4.12,3.43-5.92,5.85a10.1,10.1,0,0,1-5.83,3.69c-.26.21-.53.43-.81.63-5.41,3.75-12.2,4-18.57,4-4.75,0-9.16-.58-12.54-4.23S39.79,86.26,39,81.4a14.34,14.34,0,0,0-.83,3.92c-.88,12.89,12.9,20.64,24,20.67,4.9,0,8.64-2.45,12.81-4.48,6.11-3,17.46-6.65,20.18-13.63,1.82-4.67-1.32-10.31-5.37-14.59.16.23.32.46.47.71a12,12,0,0,1,1.11,9.5A1.07,1.07,0,0,1,90.09,84.23Z"/><path class="cls-8" d="M88,81.58c-.73,6-6.42,13.14-6.42,13.14l-4.46,2.17a81,81,0,0,1-14.61,5.35c-5.72,1.57-9,2.57-13.34-2.25a82.75,82.75,0,0,1-11-15.2A22.81,22.81,0,0,1,35,76.62c-.3-2.63-.59-8.41-.59-8.41-2.06,5-.23,12.79,1.2,17.81,2,7.2,6.36,13.44,9.74,20a33.61,33.61,0,0,1,2.74,6.62c.62,2.3.43,4.58,2.26,6.43,3.08,3.11,9.47,4.62,13.52,4.84a27.7,27.7,0,0,0,8-.58c2.13-.56,3.31-2.28,5.31-3,2.67-1,4.5,0,6-2.66,1-1.69,1.39-4.25,2-6.34a64.08,64.08,0,0,1,4.85-12.66c2.25-4.3,3.89-8,7.44-14.35C92,87.92,88,81.58,88,81.58Z"/><path class="cls-9" d="M34.49,68.9c-.16,3.4-.62,6.95,0,10.28a22.64,22.64,0,0,0,4.38,9.36A86.65,86.65,0,0,0,46.57,97a76.33,76.33,0,0,1-8.45-12.18A22.81,22.81,0,0,1,35,76.62C34.8,74.54,34.57,70.5,34.49,68.9Z"/><path class="cls-10" d="M34.45,68.21c-2.06,5-.23,12.79,1.2,17.81,2,7.2,6.36,13.44,9.74,20a33.61,33.61,0,0,1,2.74,6.62c.62,2.3.43,4.58,2.26,6.43,3.08,3.11,9.47,4.62,13.52,4.84a27.7,27.7,0,0,0,8-.58c2.13-.56,3.31-2.28,5.31-3,2.67-1,4.5,0,6-2.66,1-1.69,1.39-4.25,2-6.34a64.08,64.08,0,0,1,4.85-12.66c2.25-4.3,3.89-8,7.44-14.35C92,87.92,88,81.58,88,81.58c-.73,6-6.42,13.14-6.42,13.14l-4.46,2.17-.47.22a66.14,66.14,0,0,1-4.4,10.14c-2.88,5.35-8,15.16-15.85,12.81-3.54-1.07-5.33-4.06-6.57-7.38-.94-2.52-1.62-6.48-3.76-9.92-2.48-4-5.29-7.85-7.36-12.08a58.25,58.25,0,0,1-4.2-12c-.8-3.35-1.28-6.69,0-9.91C34.46,68.43,34.45,68.21,34.45,68.21Z"/><path class="cls-11" d="M88.36,86c.17-1.12.31-2.25.45-3.37A9.21,9.21,0,0,1,88,81.58c-.42,3.47-2.49,7.31-4.17,9.94-2.08,8.63-4.53,17.7-10.4,24.34a21.74,21.74,0,0,1-17,6.65A30.14,30.14,0,0,0,63.91,124a27.7,27.7,0,0,0,8-.58c2.13-.56,3.31-2.28,5.31-3,2.67-1,4.5,0,6-2.66,1-1.69,1.39-4.25,2-6.34a64.08,64.08,0,0,1,4.85-12.66c2.25-4.3,3.89-8,7.44-14.35a7.11,7.11,0,0,1-2,.92,111.22,111.22,0,0,0-6.94,14c-1.84,4.58-3.34,9.38-6.16,13.49-.46.66-1.73.71-1.9-.25-1-5.71,1.76-11.2,4.28-16.16A33.52,33.52,0,0,0,88.36,86Z"/><path class="cls-12" d="M80.75,106.2c-2.74,7.13-6.39,14.11-12.33,17.7a18.63,18.63,0,0,0,3.45-.53c2.13-.56,3.31-2.28,5.31-3,2.67-1,4.5,0,6-2.66,1-1.69,1.39-4.25,2-6.34.53-1.75,1-3.27,1.47-4.66-.74,2.11-1.43,4.25-2.3,6.32-.6,1.42-2,4.35-3.85,4.35a1.06,1.06,0,0,1-1-1,23,23,0,0,1,1-8.84Q80.6,106.83,80.75,106.2Z"/><path class="cls-13" d="M52,102.42c.87,3.47,2.1,6.87,2.64,10.41,2.84-3.21,6.7-5.19,10.53-7.18,6.25-3.78,9.45-5.7,9.45-7.59a86.22,86.22,0,0,1-12.09,4.18C58.08,103.45,55.08,104.31,52,102.42Z"/><path class="cls-14" d="M46.4,96.76c1.26,4.69,3.48,8.47,3.81,13.54,4.55-2,8.14-4.12,13-5.57C67,103.58,73.38,100.3,76,97.42a59.33,59.33,0,0,1-16,3.82C57.19,101.46,48.64,100.12,46.4,96.76Z"/><path class="cls-9" d="M51.87,104.93c-2.55-1.67-3.68-4.54-4.72-7.31a4.29,4.29,0,0,1-.75-.86c1.26,4.69,3.48,8.47,3.81,13.54,4.55-2,8.14-4.12,13-5.57C67,103.58,73.38,100.3,76,97.42l-.69.25c-4.1,3.31-9.89,5.38-14.36,6.67C58.46,105.06,54.31,106.51,51.87,104.93Z"/><path class="cls-9" d="M88,81.58c-.73,6-6.42,13.14-6.42,13.14l-4.46,2.17c-.15.08,3.51-.69,5-2.1s6.48-11.33,6.48-11.33c2.37,2.26,4.79,2.79,7.46,1.61C91.3,86.81,88,81.58,88,81.58Z"/><path class="cls-15" d="M47,70.24c1.39-.77,3-1.88,3.56-3.16.31-.69.58-2.53-.7-2a10.61,10.61,0,0,0-3.36,2.25,5.84,5.84,0,0,1-3.58,1.95,10.32,10.32,0,0,1-2.36,0,2.63,2.63,0,0,0-1.15-.09c-.78.27-.41,1.21.15,1.49a7.92,7.92,0,0,0,6.33.13Z"/><path class="cls-16" d="M49.88,65.12a11.43,11.43,0,0,0-2.81,1.75,4.33,4.33,0,0,1-1.86,2.72c-1.59,1-4,1.51-5.59.32a1.29,1.29,0,0,1-.44-.59c-.43.37-.09,1.11.4,1.35a7.92,7.92,0,0,0,6.33.13L47,70.24c1.39-.77,3-1.88,3.56-3.16C50.89,66.39,51.16,64.55,49.88,65.12Z"/><path class="cls-15" d="M49.48,64.31l.34-.16a13.79,13.79,0,0,0,1.83-1.26c.64-.43,1.52-.68,2-1.31a1.72,1.72,0,0,0,.22-1.69c-.45-.65-1.54-.15-2.1.07a15.68,15.68,0,0,0-2.51,1.52,15.9,15.9,0,0,1-2.43,1.33,23.86,23.86,0,0,0-3.91,1.48c-1.29.82.67,1.28,1.38,1.32A10.68,10.68,0,0,0,49.48,64.31Z"/><path class="cls-16" d="M53.87,59.89c-.45-.65-1.54-.15-2.1.07a10.86,10.86,0,0,0-2,1.19c-.83,2.39-4.84,5.14-7,3.23-1,.77.81,1.2,1.5,1.23a10.68,10.68,0,0,0,5.18-1.3l.34-.16a13.79,13.79,0,0,0,1.83-1.26c.64-.43,1.52-.68,2-1.31A1.72,1.72,0,0,0,53.87,59.89Z"/><path class="cls-15" d="M46.6,82.13c0,.07,0,.13,0,.18.33.94,1,2.33,2,2.53.49-1,.16-1.38-.16-2.31a8.66,8.66,0,0,1-.24-3.33,8,8,0,0,1,.94-3.33c.47-.86,1.71-2,.38-2.66C46.13,71.58,46.08,80.08,46.6,82.13Z"/><path class="cls-16" d="M46.77,76.2c.51,2,.4,4,.8,5.93a18.62,18.62,0,0,0,.74,2.58,1.32,1.32,0,0,0,.38.13c.49-1,.16-1.38-.16-2.31a8.66,8.66,0,0,1-.24-3.33,8,8,0,0,1,.94-3.33c.47-.86,1.71-2,.38-2.66-1.65-.77-2.53.72-2.94,2.73A1.57,1.57,0,0,1,46.77,76.2Z"/><path class="cls-17" d="M47.92,66.25C44.41,75.12,51.32,87,61.55,85.31c9.58-1.62,20-7.85,19.21-18.76C80.36,60.84,76.9,55.14,71,54,61,52,51.62,56.88,47.92,66.25Z"/><path class="cls-18" d="M80.76,66.52C80.36,60.82,76.9,55.11,71,54c-9.93-2-19.35,2.91-23,12.27C44.41,75.1,51.32,87,61.55,85.29,71.13,83.67,81.53,77.43,80.76,66.52Zm-11.7,12.9c-6.45,4-16,5.45-19.24-4-1.25-3.61.31-9.08,2.39-12.12a14.42,14.42,0,0,1,5.3-4.75c4.09-2.89,9.7-3.42,13.78.53C76.86,64.49,75.66,75.31,69.06,79.42Z"/><path class="cls-19" d="M80.76,66.52C80.36,60.82,76.9,55.11,71,54c-9.93-2-19.35,2.91-23,12.27C44.41,75.1,51.32,87,61.55,85.29,71.13,83.67,81.53,77.43,80.76,66.52Zm-20,18c-8.58.49-14.08-7.91-12.37-16a17.29,17.29,0,0,1,11.94-13c7.1-2.79,15.69-.32,18.38,8C81.79,73.16,71.58,83.88,60.75,84.49Z"/><path class="cls-20" d="M57.42,55.69a5.61,5.61,0,0,0-.45.92c-1.06,2.71-2.23,6.64.05,9,4.39,4.6,12.56.88,16-3,2-2.23,3-4.42,1.72-7.14A10.7,10.7,0,0,0,71,54,21,21,0,0,0,57.42,55.69Z"/><path class="cls-20" d="M70.24,53.84a21.33,21.33,0,0,0-7.57.1c-1.61.31-3.18,2.14-4,3.45a9.29,9.29,0,0,0-1.52,5.07c.14,4.07,4.85,5.29,8,4,2.89-1.17,6-3.49,6.47-6.78A7,7,0,0,0,70.24,53.84Z"/><path class="cls-21" d="M52.69,73.08c1.76.86,3.7-2.26,3.92-3.63s-.21-3.69-1.86-3.75C51.73,65.57,49.88,71.69,52.69,73.08Z"/><path class="cls-22" d="M52.71,70.32a1.25,1.25,0,0,0,.16.35c1.35,1.84,3.3-2.39,1.63-3.2C53.21,66.85,52.38,69.17,52.71,70.32Z"/><path class="cls-21" d="M53.09,68.73c.07.12.61.48.72.39.27-.19-.45-1.33-.73-.66A.26.26,0,0,0,53.09,68.73Z"/><path class="cls-21" d="M53.18,69.43c.21-.13.17-.37-.1-.36S52.83,69.64,53.18,69.43Z"/><path class="cls-21" d="M59,75.92c1.76.87,3.7-2.26,3.92-3.62s-.22-3.69-1.86-3.76C58.05,68.42,56.21,74.54,59,75.92Z"/><path class="cls-22" d="M59,73.17a1,1,0,0,0,.16.35c1.35,1.84,3.3-2.4,1.62-3.2C59.53,69.7,58.71,72,59,73.17Z"/><path class="cls-21" d="M59.42,71.58c.06.11.61.48.72.39s-.45-1.33-.74-.66A.28.28,0,0,0,59.42,71.58Z"/><path class="cls-21" d="M59.51,72.27c.2-.12.17-.36-.1-.35S59.16,72.5,59.51,72.27Z"/><path class="cls-23" d="M53.08,78.08l-.33-.49a17.49,17.49,0,0,0-1.15-1.66c-.14-.16-.29-.25-.29-.48.63.38,1.06,1.32,1.56,1.86a5.06,5.06,0,0,0,2,1.45,7.75,7.75,0,0,0,2.76.07,2.44,2.44,0,0,1,1.05.15,1.23,1.23,0,0,0,1.36-.32,4,4,0,0,0,1.57-2,5.44,5.44,0,0,1-.49,1.93,3.4,3.4,0,0,1-.87,1.68c-1.34,1-2.37-.16-3.72-.24a3.59,3.59,0,0,1-2-.32A6.14,6.14,0,0,1,53.08,78.08Z"/><path class="cls-24" d="M54.94,74.71a1.81,1.81,0,0,0,.25.74l-.19,0a.61.61,0,0,1-.15-.13,1.47,1.47,0,0,1-.21-.22,1.18,1.18,0,0,1-.14-.88.86.86,0,0,1,.75-.54,1.11,1.11,0,0,1,.44.08c.12.05,1,.69,1,.83-.33-.09-1.43-.75-1.64-.35A.9.9,0,0,0,54.94,74.71Z"/><path class="cls-25" d="M59.32,62.75a2.28,2.28,0,0,0,2.81,1.51,6.5,6.5,0,0,0,2.15-1.42,1.3,1.3,0,0,1,.91-.37,9.59,9.59,0,0,0,1.42-.09,8.81,8.81,0,0,0,.92-.18,3.3,3.3,0,0,0,.82-.36,4.82,4.82,0,0,0,.7-.48,3,3,0,0,0,.59-.82c.85-1.89-1.12-3.39-2.61-4.12a6.14,6.14,0,0,0-5.43-.11,2.49,2.49,0,0,0-.8.75,3.65,3.65,0,0,0-.5,1.51,4.19,4.19,0,0,0,.24,1.21.76.76,0,0,1-.23.83,3,3,0,0,0-1,1.85A1.43,1.43,0,0,0,59.32,62.75Z"/><path class="cls-26" d="M63,63.66a3.81,3.81,0,0,1-1.07.43,2.23,2.23,0,0,1-1.57-.33l-.05,0a1.42,1.42,0,0,1-.67-.54,1.81,1.81,0,0,1,0-1.79,1.9,1.9,0,0,0-.4,1.08,1.43,1.43,0,0,0,0,.29,2.28,2.28,0,0,0,2.81,1.51,3.66,3.66,0,0,0,1.39-.8A5.21,5.21,0,0,0,63,63.66Z"/><path class="cls-24" d="M63.78,58.67c.09-.11.17-.24.24-.32.35-.48.1-.78-.41-1a1.71,1.71,0,0,0-1.65.32,1.26,1.26,0,0,0-.42.63.58.58,0,0,0,.05.39c.14.26.71.24,1,.27a1.54,1.54,0,0,0,1-.15A1.09,1.09,0,0,0,63.78,58.67Z"/><path class="cls-24" d="M67.52,60.34a.54.54,0,0,0,.1-.3,1.59,1.59,0,0,0-.77-1.18,2,2,0,0,0-.78-.36c-.4-.09-.62.25-.77.57a1.8,1.8,0,0,0-.15.55,1.45,1.45,0,0,0,.35.9c.24.38.78.34,1.19.27A1.34,1.34,0,0,0,67.52,60.34Z"/><path class="cls-24" d="M60.54,61.51a.07.07,0,0,0,0,0,3.11,3.11,0,0,0,.17-1.17,1.29,1.29,0,0,1-.52,1.91A6.33,6.33,0,0,0,60.54,61.51Z"/><path class="cls-24" d="M63.73,62.37a2.21,2.21,0,0,0-1.14.47,2.09,2.09,0,0,0-.55.56,1.53,1.53,0,0,0,.31-.16,6,6,0,0,1,1.55-.65,4,4,0,0,0,.77-.13,1.48,1.48,0,0,0-.75-.1Z"/><path class="cls-26" d="M60.75,59.68c.09.19.21.57.39.68a.88.88,0,0,0,.71,0,6.65,6.65,0,0,0,.56-.36,5,5,0,0,1,.52-.38c.12-.06.39-.19.19-.34s-.75,0-1,0a1.12,1.12,0,0,1-.83-.62c-.05-.1-.09-.25-.19-.32-.56-.32-.53.77-.43,1C60.66,59.47,60.7,59.58,60.75,59.68Z"/><path class="cls-26" d="M64.55,59.83c-.08-.17-.19-.3-.33-.29-.39,0-.51.7-.56,1a1.19,1.19,0,0,0,.3,1.18,2.66,2.66,0,0,0,1.68.42,2.37,2.37,0,0,0,1.47-.38.78.78,0,0,0,.24-.82c-.18-.31-.94,0-1.19,0a1,1,0,0,1-.69-.07,1.27,1.27,0,0,1-.61-.38C64.76,60.38,64.67,60.06,64.55,59.83Z"/><path class="cls-27" d="M60.2,62.2a2.51,2.51,0,0,0,.32-.48c.08-.15.35-.87.35-.87a2.94,2.94,0,0,0,1,1.11,6.27,6.27,0,0,0,1.88.5,4.57,4.57,0,0,0-1.25.52,3.82,3.82,0,0,1-.47.42A1.78,1.78,0,0,1,60.2,62.2Z"/><path class="cls-24" d="M63.64,60.69a2.9,2.9,0,0,0,.34-.93c0-.49-.45-.23-.69-.09s-1.48.82-1,1.21a1.29,1.29,0,0,0,.76.26.5.5,0,0,0,.52-.37S63.62,60.73,63.64,60.69Z"/><path class="cls-28" d="M68.56,51.58c-.15.19-.33.38-.42.53s-.41.82-.16,1,.39-.13.5-.17a2,2,0,0,1,.68-.09c.34,0,1.07.06,1.29.37-.12.13-.42.14-.58.19a6.68,6.68,0,0,0-1.07.44c-.24.13-.79.51-.7.85s.72.07,1,0a1.87,1.87,0,0,1,.81.08c.34.08,1.14.29,1.06.78a2.1,2.1,0,0,0-2,.65c-.21.32-.2.76-.47,1.05a1.15,1.15,0,0,1-1,.34,4.42,4.42,0,0,1-2.63-.88c-.64-.51-1.17-1.17-2-1.27-.3-.05-.63,0-.94,0a1.16,1.16,0,0,1,.87-.37c-.14-.25-.81-.19-1-.16a1.92,1.92,0,0,0-1,.43c-.11-.82.69-2.75,1.7-2.16a2.7,2.7,0,0,1,.13-1.75,3.45,3.45,0,0,1,.43-.83c.09-.13.41-.39.45-.52-.16.52-.49,1.21,0,1.67a.42.42,0,0,0,.68,0c.09-.09.56-.64.43-.78.45.49-.08,1.39,0,2,0,0,.65-.62.69-.66a5.23,5.23,0,0,0,.66-.67,2.57,2.57,0,0,0,.69-1.89,1.67,1.67,0,0,1,1,.4,1.9,1.9,0,0,1,.6,1.27,3.5,3.5,0,0,1,.87-.27A1.28,1.28,0,0,1,68.56,51.58Z"/><path class="cls-29" d="M67.81,51.34a.88.88,0,0,1,0,.17.22.22,0,0,0,.24,0,1,1,0,0,1,.58-.24c-.14.23-.36.34-.53.53a2.49,2.49,0,0,0-.67,1.76c0,.28.46-.12.69-.23A3.21,3.21,0,0,1,69,53a4.14,4.14,0,0,1,.86.05.49.49,0,0,1,.33.11,3.37,3.37,0,0,1-.83.21,2.06,2.06,0,0,0-.91.35c-.24.21-.58.53-.54.88s.36.38.61.39.6,0,.91,0a.86.86,0,0,1,.42,0,1.91,1.91,0,0,1,.5.19,1.62,1.62,0,0,1,.35.17c.06,0,.12.17.19.2l0,0c0-.48-.72-.68-1.06-.76a1.87,1.87,0,0,0-.81-.08c-.23,0-.87.26-1,0s.46-.72.7-.85a6.68,6.68,0,0,1,1.07-.44c.16,0,.46-.06.58-.19-.22-.31-1-.35-1.29-.37a2,2,0,0,0-.68.09c-.11,0-.38.24-.5.17s.06-.81.16-1,.27-.34.42-.53a1.28,1.28,0,0,0,.29-.49,3.5,3.5,0,0,0-.87.27,1.9,1.9,0,0,0-.6-1.27,1.67,1.67,0,0,0-1-.4,2.57,2.57,0,0,1-.69,1.89,5.23,5.23,0,0,1-.66.67s-.69.7-.69.66c0-.57.49-1.47,0-2,.13.14-.34.69-.43.78a.42.42,0,0,1-.68,0c-.46-.46-.13-1.15,0-1.67,0,.13-.36.39-.45.52a3.45,3.45,0,0,0-.43.83,2.7,2.7,0,0,0-.13,1.75c-1-.59-1.81,1.34-1.7,2.16a1.92,1.92,0,0,1,1-.43c.24,0,.91-.09,1,.16a1.16,1.16,0,0,0-.87.37c.31,0,.64,0,.94,0a2,2,0,0,1,.92.35c-.09-.06-.23-.28-.4-.4a3,3,0,0,0-.66-.15c.1-.1.51-.15.28-.35a1.21,1.21,0,0,0-.46-.17,2,2,0,0,0-1,0c-.11,0-.62.17-.65.31.1-.51.22-1.06.71-1.29s1.13,0,1.33-.2c.32-.4-.43-.93-.31-1.75,0-.23.15-.67.39-.77,0,.41,0,.84.35,1.09a.66.66,0,0,0,1-.26,5.12,5.12,0,0,1-.1.54,1,1,0,0,0-.1.5c.09.36.41.17.59,0s.26-.18.39-.3.3-.28.44-.43a2.67,2.67,0,0,0,.64-.78,6,6,0,0,0,.38-.91c0-.09.18-.53.14-.58l0,0a1.19,1.19,0,0,1,.76.42,2.2,2.2,0,0,1,.37.77C67.75,51.16,67.79,51.25,67.81,51.34Z"/><path class="cls-29" d="M67.37,54.3a1.62,1.62,0,0,0-.62,1.5,1.55,1.55,0,0,1-.12-1.1c.09-.37.25-.7.34-1.05a3.19,3.19,0,0,0,.1-2.07c-.47,1.17-.89,1.09-1.42,1.71a2.57,2.57,0,0,0-.5,1.37c-.36-.51-.87-1.25-1.5-1.42a1.37,1.37,0,0,0,.42.7,3.24,3.24,0,0,1,.69,1.8c-.2-.09-.35-.34-.5-.5s-.53-.34-.71-.53a3.18,3.18,0,0,1,.6,1.1l.18.46.52.46a4.42,4.42,0,0,0,2.63.88,1.5,1.5,0,0,0,.68-.13,1.64,1.64,0,0,1,0-1,4,4,0,0,1,.61-1.13,3,3,0,0,0-1.46.72A4.69,4.69,0,0,1,67.37,54.3Z"/><path class="cls-15" d="M80.1,73c-.34.58-.69,1.18-1.12,1.32-.89.28-1.35-.94-1.42-1.65-.11-1,.5-2.06.76-3.06s.36-2.23,1.36-2.74c1.52-.78,3.15,1.49,4.1,2.33,3,2.63,6.29,2.36,9.88,3.06-.27,2.61-7.26,1.23-8.75.65-1.18-.46-2.72-1.9-4-1A4,4,0,0,0,80.1,73Z"/><path class="cls-16" d="M90,72.94a15.11,15.11,0,0,1-7.71-2.66,14.71,14.71,0,0,1-2.52-.36,2.9,2.9,0,0,1-1.3-.9c0,.2-.09.41-.14.59-.26,1-.87,2-.76,3.06.07.71.53,1.93,1.42,1.65.43-.14.78-.74,1.12-1.32a4,4,0,0,1,.83-1.09c1.26-.9,2.8.54,4,1,1.4.55,7.62,1.78,8.59-.23A11.9,11.9,0,0,1,90,72.94Z"/><path class="cls-15" d="M77.06,77.2c-.11.2-.22.38-.28.47a13.22,13.22,0,0,1-2.38,3,5.17,5.17,0,0,1-2,1.07c-.25.07-2,.08-2.06.16.65-1,3.48-4.43,3.87-5.43.76-2,.91-4.06,1.57-6.06.18-.53.64-2.08,1.36-2.12,1.61-.09,1.85,4.62,2.19,5.77a7.27,7.27,0,0,0,3.06,4.4c1.77,1.21,3.72.8,5.55,1.76,2.27,1.18-1.88,1.38-2.72,1.34a9.07,9.07,0,0,1-5.45-1.92c-.48-.41-1.7-3.12-2.14-3.15C77.5,76.51,77.26,76.88,77.06,77.2Z"/><path class="cls-16" d="M80.73,78.57c-1.65-1.49-2.17-4.26-2.88-6.28-.89-2.51-1.25,1.33-1.46,2.3a3.9,3.9,0,0,1-1.17,1.82,1.26,1.26,0,0,1-1.08.32C73.5,78,71,81,70.39,81.93c.06-.08,1.81-.09,2.06-.16a5.17,5.17,0,0,0,2-1.07,13.22,13.22,0,0,0,2.38-3c.06-.09.17-.27.28-.47s.44-.69.62-.68c.44,0,1.66,2.74,2.14,3.15a9.07,9.07,0,0,0,5.45,1.92c.7,0,3.69-.1,3.35-.83A9.88,9.88,0,0,1,80.73,78.57Z"/><path class="cls-30" d="M76,78.83a6.06,6.06,0,0,0-1.46-2,1.87,1.87,0,0,0-.32-.08h-.08C73.5,78,71,81,70.39,81.93c.06-.08,1.81-.09,2.06-.16a5.17,5.17,0,0,0,2-1.07A8.06,8.06,0,0,0,76,78.84Z"/><path class="cls-15" d="M72.22,78.77A8.78,8.78,0,0,1,70,82.52,5,5,0,0,1,65.77,84c.65-1,3.47-4.44,3.86-5.43.77-2,.92-4.06,1.58-6.06.18-.54.63-2.08,1.37-2.12,1-.06,1.24,2.07,1.36,2.73.52,3,.15,6.86,1.45,9.67,2.66,5.72,6.44,4.88,6.31,5.7-1.79.34-4.26.57-6.11-1.34A12.53,12.53,0,0,1,72.22,78.77Z"/><path class="cls-16" d="M75.7,85.69a38.82,38.82,0,0,1-2.33-5.63c-.35-1.14,0-5.74-1.59-5.1-.56,2.87-.8,6-3.75,6.56a1.09,1.09,0,0,1-.44,0c-.77,1-1.52,2-1.82,2.43A5,5,0,0,0,70,82.52a8.78,8.78,0,0,0,2.25-3.75,12.53,12.53,0,0,0,3.37,8.33,5.86,5.86,0,0,0,5.31,1.47C78.79,88.42,76.63,87.52,75.7,85.69Z"/><path class="cls-15" d="M65.27,84.54c-.76.26-1.58.51-1.57.21a12.3,12.3,0,0,1,.87-2.63,25.3,25.3,0,0,1,.77-2.61c.58-1.47,1.47-3.82,3-2,2,2.49,3.32,8,.28,10.23-1.55,1.13-6.41,4-7.38.89-.15-.46-.21-2,.29-2.22.69-.32,1,.9,1.51,1.17a2.93,2.93,0,0,0,3.79-1.29c.3-.62.46-1.86-.27-2.14A5.28,5.28,0,0,0,65.27,84.54Z"/><path class="cls-16" d="M62,86.85c.43,2.09,2,2.36,4,1.61,2.61-1,3.28-3.23,3-5.84a8,8,0,0,0-1.77-3.79,8,8,0,0,1-.77,2.09,3.44,3.44,0,0,1-2.14,1.89,5.94,5.94,0,0,0-.62,1.94c0,.3.81,0,1.57-.21a5.28,5.28,0,0,1,1.26-.36c.73.28.57,1.52.27,2.14A2.93,2.93,0,0,1,63,87.61c-.41-.21-.68-1-1.1-1.17C61.93,86.57,62,86.71,62,86.85Z"/><path class="cls-30" d="M66.53,84.18a.91.91,0,0,1,.52.87c1.28-1.88,1-4,.31-6h0c-.25,2.23-.85,4.55-2.29,5.59l.2-.06A5.28,5.28,0,0,1,66.53,84.18Z"/></svg>