<?xml version="1.0" encoding="utf-8"?>
<!-- Generator: Adobe Illustrator 26.0.0, SVG Export Plug-In . SVG Version: 6.00 Build 0)  -->
<svg version="1.1" id="Layer_1" xmlns="http://www.w3.org/2000/svg" xmlns:xlink="http://www.w3.org/1999/xlink" x="0px" y="0px"
	 viewBox="0 0 65.6 153.1" style="enable-background:new 0 0 65.6 153.1;" xml:space="preserve">
<style type="text/css">
	.st0{fill:#848076;}
	.st1{fill:#35332E;}
	.st2{fill:#231703;}
	.st3{fill:#FF831D;}
	.st4{fill:#FFD366;}
	.st5{fill:#F4610F;}
	.st6{fill:#752903;}
	.st7{fill:#B56133;}
	.st8{fill:#0A0200;}
	.st9{fill:#CDC6BA;}
	.st10{fill:#B4AEA3;}
	.st11{fill:#968E83;}
	.st12{fill:#A69F95;}
	.st13{fill:#6E6960;}
	.st14{fill:#646159;}
	.st15{fill:#221E19;}
	.st16{opacity:0.49;fill:#837B71;enable-background:new    ;}
	.st17{fill:#837B71;}
	.st18{fill:#38322D;}
	.st19{fill:#5D5751;}
	.st20{fill:#0F0A0C;}
	.st21{fill:#4B4238;}
	.st22{fill:url(#SVGID_1_);}
	.st23{opacity:0.73;fill:url(#SVGID_00000057108669688575508690000006852567511738873270_);enable-background:new    ;}
	.st24{opacity:0.6;fill:#CC8800;enable-background:new    ;}
	.st25{fill:#FFFFFF;fill-opacity:0;}
	.st26{opacity:8.000000e-02;fill:#FFFFFF;enable-background:new    ;}
	.st27{opacity:0.15;fill:#FFFFFF;enable-background:new    ;}
	.st28{opacity:0.23;fill:#FFFFFF;enable-background:new    ;}
	.st29{opacity:0.31;fill:#FFFFFF;enable-background:new    ;}
	.st30{opacity:0.38;fill:#FFFFFF;enable-background:new    ;}
	.st31{opacity:0.46;fill:#FFFFFF;enable-background:new    ;}
	.st32{opacity:0.54;fill:#FFFFFF;enable-background:new    ;}
	.st33{opacity:0.62;fill:#FFFFFF;enable-background:new    ;}
	.st34{opacity:0.69;fill:#FFFFFF;enable-background:new    ;}
	.st35{opacity:0.77;fill:#FFFFFF;enable-background:new    ;}
	.st36{opacity:0.85;fill:#FFFFFF;enable-background:new    ;}
	.st37{opacity:0.92;fill:#FFFFFF;enable-background:new    ;}
	.st38{fill:#FFFFFF;}
	.st39{fill:#E4E0DA;}
	.st40{fill:#877D74;}
	.st41{fill:#F3EFE8;}
	.st42{fill:#A1998F;}
	.st43{fill:#DFDAD1;}
	.st44{fill:url(#SVGID_00000108299800675462745160000007310793676482584742_);}
	.st45{fill:url(#SVGID_00000181083291850780314370000016869706947905698951_);}
	.st46{opacity:0.75;fill:#9C9387;enable-background:new    ;}
	.st47{fill:#6B655B;}
	.st48{fill:url(#SVGID_00000133506579528435572010000002972872117327304372_);}
	.st49{opacity:0.74;fill:#D39988;enable-background:new    ;}
	.st50{opacity:0.58;fill:#C47962;enable-background:new    ;}
	.st51{fill:#C47962;}
	.st52{fill:#87421F;}
	.st53{opacity:0.6;fill:#6D2C0F;enable-background:new    ;}
	.st54{opacity:0.5;fill:#A5613C;enable-background:new    ;}
	.st55{fill:#5B2009;}
	.st56{opacity:0.6;fill:#AD6744;enable-background:new    ;}
	.st57{fill:#010101;}
	.st58{opacity:0.6;fill:#723615;enable-background:new    ;}
	.st59{opacity:0.39;fill:url(#SVGID_00000005963951715499712900000002290154670352689045_);enable-background:new    ;}
	.st60{clip-path:url(#SVGID_00000106114628114954171620000003438910788285978774_);}
	.st61{opacity:0.71;}
	.st62{fill:#CE1602;}
	.st63{fill:url(#SVGID_00000000906811566832724080000008057815502550917530_);}
	.st64{opacity:0.39;fill:url(#SVGID_00000169555182189233647250000015036609600496320939_);enable-background:new    ;}
	.st65{clip-path:url(#SVGID_00000090266114302682103450000001868126696063244215_);}
</style>
<path class="st0" d="M64.9,125.7c0,6.4-12.9,11.6-28.9,11.6s-28.9-5.2-28.9-11.6s12.9-11.6,28.9-11.6S64.9,119.3,64.9,125.7z"/>
<path class="st1" d="M36.1,137.3c-15.9,0-28.9-5.2-28.9-11.6v15.8c0,6.4,12.9,11.6,28.9,11.6s28.9-5.2,28.9-11.6v-15.8
	C64.9,132.1,51.9,137.3,36.1,137.3z"/>
<path class="st2" d="M36.1,137.3c-15.9,0-28.9-5.2-28.9-11.6v15.8c0,2,1.2,3.9,3.4,5.5c-1.8-4-3.9-11.9,0.2-12.5
	c2.9-0.5,6.2,1.2,8.8,2.2c4.8,2,9.8,3.2,15,3.4c5.2,0.2,10.2-1.4,15.4-1.5c2.1-0.1,4.8,0,5.7,2.4c1.2,3.3,0.5,7-1.8,9.7
	c6.7-2.1,11-5.4,11-9.1v-15.7C64.9,132.1,51.9,137.3,36.1,137.3z"/>
<path class="st3" d="M6.9,136.9c1.1,1.8,2.8,3.2,4.8,4c0.9,0.3,1,0.1,1.6,1s0.5,1.2,1.3,1.7c0.7,0.4,1.5,0.5,2.2,0.9
	c0.5,0.2,1.1,0.9,1.6,1c0.7,0.2,1.5-0.4,2.2-0.2c2.5,0.4,3.4,2.5,6.2,1.9c1.1-0.3,2.2-0.4,3.2-0.2c0.9,0.3,1.8,0.5,2.7,0.7
	c2.4,0.3,4.3-0.6,6.6-1s4.1,0.4,6.2-0.2c1.1-0.3,2.2-0.2,3.3-0.4s2.2-0.9,3.3-1.1c1.9-0.2,3.8-0.7,5.7-1.2c1.9-0.9,3.7-2.1,5.4-3.4
	c1.5-1.1,2.4-2.8,2.5-4.7c0-0.8-0.5-1.4-0.5-2.2c-2,0.3-3,2.9-4.4,3.9c-0.8,0.4-1.8,0.7-2.7,0.9c-1,0.4-1,1-1.9,1.6
	s-2.3,0.2-3.3,0.3c-1.2,0.1-1.3,0.5-2.2,1.2c-1,0.8-1.6,0.4-2.9,0.4c-1.1,0-2.2,0.2-3.3,0.5c-2.4,0.6-5.6,1-8,0.3
	c-0.9-0.4-2-0.5-3-0.3c-0.8,0.4-1.6,0.6-2.4,0.8c-2.1,0.1-4.1-1-6-1.4c-1.1-0.2-2,0.4-3,0.3s-1.8-1.3-2.5-1.8
	c-0.5-0.4-1-0.6-1.6-0.6c-0.7-0.2-1.4-0.5-2.1-0.8c-0.5-0.1-1.1-0.3-1.6-0.6c-0.7-0.6-0.6-0.8-1.5-1.1c-1.2-0.2-2.4-0.8-3.2-1.7
	c-0.4-0.5-0.5-1.1-1-1.5s-0.8-0.6-1.2-1.3c-0.3-0.5-0.8,2-0.8,2.2C6.2,135.3,6.5,136.2,6.9,136.9z"/>
<path class="st4" d="M52.7,140c-1.2,0.1-1.3,0.5-2.2,1.2c-1,0.8-1.6,0.4-2.9,0.4c-1.1,0-2.2,0.2-3.3,0.5c-2.4,0.6-5.6,1-8,0.3
	c-0.9-0.4-2-0.5-3-0.3c-0.8,0.4-1.6,0.6-2.4,0.8c-2.1,0.1-4.1-1-6-1.4c-1.1-0.2-2,0.4-3,0.3s-1.8-1.3-2.5-1.8
	c-0.5-0.4-1-0.6-1.6-0.6c-0.7-0.2-1.4-0.5-2.1-0.8c-0.5-0.1-1.1-0.3-1.6-0.6c-0.7-0.6-0.6-0.8-1.5-1.1c-1.2-0.2-2.4-0.8-3.2-1.7
	c-0.3-0.4-0.5-0.8-0.8-1.2c0.2,2.4,2.6,3.7,4.5,4.6s4.2,1.2,6,2.4c1.1,0.7,2.2,2,3.8,1.9c1-0.1,2-0.2,3-0.2c2,0.2,4,0.8,6,0.9
	c0.9,0,1.5-0.4,2.4-0.4s2,0.6,3,0.7c1.8,0.2,3.6,0,5.4-0.3c1.7-0.4,3.1-1.2,4.8-0.7c2.2,0.6,2.8-0.6,4.3-1.6
	c0.9-0.4,1.7-0.7,2.7-0.8C53.8,140,53.2,140,52.7,140z"/>
<path class="st5" d="M65.1,133.4c-2,0.3-3,2.9-4.4,3.9c-0.8,0.4-1.8,0.7-2.7,0.9c-0.5,0.2-1,0.5-1.3,1c2.4,6.6-19.7,6.4-22.7,6.6
	c-3.9,0.2-7.2-0.7-11-1.2c-2.5-0.3-5.1-0.5-7-2.2c-1-0.9-2.5-1.1-3.4-2.1c-0.9-1-1.9-1.9-3.2-2.4c-1.3-0.6-1-1.8-1.8-2.4
	c-0.3-0.2-0.5-0.6-0.3-1c0.2-0.4,0.5-0.7,0.9-1c-0.5-0.5-0.8-0.6-1.2-1.3c-0.3-0.5-0.8,2-0.8,2.2c0,0.9,0.3,1.8,0.8,2.6
	c1.1,1.8,2.8,3.2,4.8,4c0.9,0.3,1,0.1,1.6,1s0.5,1.2,1.3,1.7c0.7,0.4,1.5,0.5,2.2,0.9c0.5,0.2,1.1,0.9,1.6,1
	c0.7,0.2,1.5-0.4,2.2-0.2c2.5,0.4,3.4,2.5,6.2,1.9c1.1-0.3,2.2-0.4,3.2-0.2c0.9,0.3,1.8,0.5,2.7,0.7c2.4,0.3,4.3-0.6,6.6-1
	s4.1,0.4,6.2-0.2c1.1-0.3,2.2-0.2,3.3-0.4s2.2-0.9,3.3-1.1c1.9-0.2,3.8-0.7,5.7-1.2c1.9-0.9,3.7-2.1,5.4-3.4
	c1.5-1.1,2.4-2.8,2.6-4.7C65.6,134.7,65.1,134.1,65.1,133.4z"/>
<path class="st0" d="M64.6,108.7c0,6.4-12.9,11.6-28.9,11.6s-28.9-5.2-28.9-11.6s12.9-11.6,28.9-11.6S64.6,102.2,64.6,108.7z"/>
<path class="st1" d="M35.8,120.3c-16,0-28.9-5.2-28.9-11.6v15.8c0,6.4,12.9,11.6,28.9,11.6s28.9-5.2,28.9-11.6v-15.8
	C64.6,115.1,51.7,120.3,35.8,120.3z"/>
<path class="st2" d="M35.8,120.3c-16,0-28.9-5.2-28.9-11.6v15.8c0,2,1.2,3.9,3.4,5.5c-1.8-4-3.9-11.9,0.2-12.5
	c2.9-0.5,6.2,1.2,8.8,2.2c4.8,2,9.8,3.2,15,3.4c5.2,0.2,10.2-1.3,15.4-1.5c2.1-0.1,4.8,0,5.7,2.4c1.3,3.3,0.6,7-1.8,9.7
	c6.7-2.1,11-5.4,11-9.1v-15.8C64.6,115.1,51.7,120.3,35.8,120.3z"/>
<path class="st3" d="M6.7,119.9c1.1,1.8,2.8,3.2,4.8,4c0.9,0.4,1,0.1,1.6,1s0.5,1.2,1.3,1.7c0.7,0.4,1.5,0.5,2.2,0.8
	c0.5,0.2,1.1,0.9,1.6,1c0.7,0.2,1.5-0.4,2.2-0.2c2.5,0.4,3.4,2.5,6.2,1.9c1.1-0.3,2.2-0.4,3.2-0.2c0.9,0.3,1.8,0.5,2.7,0.7
	c2.3,0.3,4.3-0.6,6.6-1s4.1,0.4,6.2-0.2c1.1-0.3,2.2-0.2,3.3-0.4s2.2-0.9,3.3-1.1c1.9-0.2,3.8-0.6,5.7-1.2c1.9-0.9,3.7-2.1,5.4-3.4
	c1.5-1.2,2.4-2.9,2.6-4.8c0-0.8-0.5-1.4-0.5-2.2c-2,0.3-3,2.9-4.4,3.9c-0.9,0.4-1.8,0.7-2.7,0.9c-1,0.3-1,1-1.9,1.6
	s-2.3,0.2-3.3,0.3c-1.2,0.1-1.3,0.5-2.2,1.2c-1,0.8-1.6,0.4-2.9,0.4c-1.1,0-2.2,0.2-3.3,0.5c-2.4,0.6-5.6,1-8,0.3
	c-0.9-0.4-2-0.5-3-0.3c-0.8,0.4-1.6,0.6-2.4,0.8c-2.1,0.1-4.1-1-6.1-1.4c-1.1-0.2-2,0.4-3,0.2s-1.8-1.3-2.6-1.8
	c-0.5-0.4-1-0.6-1.6-0.6c-0.7-0.2-1.4-0.5-2.1-0.8c-0.5-0.1-1.1-0.3-1.6-0.6c-0.7-0.6-0.6-0.8-1.5-1.1c-1.2-0.2-2.4-0.8-3.2-1.7
	c-0.4-0.5-0.6-1.1-1-1.5s-0.8-0.6-1.3-1.3c-0.3-0.5-0.8,2.1-0.8,2.2C5.9,118.2,6.2,119.1,6.7,119.9z"/>
<path class="st4" d="M52.4,123c-1.2,0.1-1.3,0.5-2.2,1.2c-1,0.8-1.6,0.4-2.9,0.4c-1.1,0-2.2,0.2-3.3,0.5c-2.4,0.6-5.6,1-8,0.3
	c-0.9-0.4-2-0.5-3-0.3c-0.8,0.4-1.6,0.6-2.4,0.8c-2.1,0.1-4.1-1-6.1-1.4c-1.1-0.2-2,0.4-3,0.2s-1.8-1.3-2.6-1.8
	c-0.5-0.4-1-0.6-1.6-0.6c-0.7-0.2-1.4-0.5-2.1-0.8c-0.5-0.1-1.1-0.3-1.6-0.6c-0.7-0.6-0.6-0.8-1.5-1.1c-1.2-0.2-2.4-0.8-3.2-1.7
	c-0.3-0.4-0.6-0.8-0.8-1.2c0.2,2.4,2.6,3.7,4.5,4.6s4.2,1.2,6,2.4c1.1,0.7,2.2,2,3.8,1.9c1-0.1,2-0.2,3-0.2c2,0.2,4,0.8,6,0.9
	c0.9,0,1.5-0.4,2.4-0.4s2,0.6,3,0.7c1.8,0.1,3.6,0,5.4-0.3c1.7-0.4,3.1-1.2,4.8-0.7c2.2,0.6,2.8-0.6,4.3-1.6
	c0.9-0.4,1.7-0.7,2.7-0.8C53.4,123,52.9,123,52.4,123z"/>
<path class="st5" d="M64.8,116.3c-2,0.3-3,2.9-4.4,3.9c-0.9,0.4-1.8,0.7-2.7,0.9c-0.5,0.2-1,0.5-1.3,1c2.4,6.6-19.7,6.4-22.7,6.6
	c-3.9,0.2-7.2-0.7-11-1.2c-2.5-0.3-5.1-0.4-7-2.2c-1-0.9-2.5-1.1-3.4-2.1c-0.9-1-1.9-1.9-3.2-2.4c-1.3-0.6-1-1.8-1.8-2.4
	c-0.3-0.2-0.5-0.7-0.3-1c0.2-0.4,0.5-0.7,0.9-1c-0.5-0.5-0.8-0.6-1.2-1.3c-0.3-0.5-0.8,2.1-0.8,2.2c0,0.9,0.3,1.8,0.8,2.6
	c1.1,1.8,2.8,3.2,4.8,4c0.9,0.4,1,0.1,1.6,1s0.5,1.2,1.3,1.7c0.7,0.4,1.5,0.5,2.2,0.8c0.5,0.2,1.1,0.9,1.6,1
	c0.7,0.2,1.5-0.4,2.2-0.2c2.5,0.4,3.4,2.5,6.2,1.9c1.1-0.3,2.2-0.4,3.2-0.2c0.9,0.3,1.8,0.5,2.7,0.7c2.3,0.3,4.3-0.6,6.6-1
	s4.1,0.4,6.2-0.2c1.1-0.3,2.2-0.2,3.3-0.4s2.2-0.9,3.3-1.1c1.9-0.2,3.8-0.6,5.7-1.2c1.9-0.9,3.7-2.1,5.4-3.4
	c1.5-1.2,2.4-2.9,2.6-4.8C65.3,117.7,64.8,117.1,64.8,116.3z"/>
<path class="st6" d="M41.6,125.4c-0.7,0-1.4-0.3-1.9-0.8c-1.2-1.1-1.4-3-1.5-4.6c-0.1-1.7,1-3.2,1.9-4.4l0.4-0.6
	c1.8-2.3,3.9-4.3,6.4-5.9l0.6-0.4c2.2-1.7,4.6-3.3,7.2-4.6c0.4-0.2,0.9-0.4,1.4-0.6c0.8-0.3,1.7-0.7,2.4-1.2c-0.4,0-0.7,0-1.1,0
	c-1.7,0.2-3.4,0.7-4.9,1.3c-1.5,0.6-2.9,1.3-4.2,2.1c-0.5,0.3-1,0.7-1.5,1.1c-0.6,0.5-1.1,0.9-1.8,1.3c-1.3,0.8-2.5,1.7-3.7,2.7
	l-1.2,0.9c-1.8,1.4-3.5,2.9-5.1,4.3l-0.7,0.6c-1.3,1-2.5,2.2-3.5,3.6c-0.2,0.4-0.4,0.9-0.4,1.4c-0.1,1-0.5,1.9-1.1,2.6
	c-0.5,0.5-1.2,0.8-1.9,0.5c-1.1-0.4-1.5-1.9-1.7-3.2c-0.2-1.6,0.1-3.1,0.9-4.5c1.6-2.8,3.5-5.3,5.9-7.5c1.7-1.6,3.5-3,5.4-4.2
	c1.2-0.8,2.4-1.7,3.5-2.6s2.2-1.7,3.4-2.4l0.9-0.6c0.6-0.4,1.2-0.8,1.8-1.2c-1.7,0.3-3.4,1-5,1.8c-0.4,0.2-0.8,0.4-1.1,0.5
	c-4.2,1.9-8.2,4.2-11.9,6.9c-2.2,1.5-4.4,3.2-6.4,5c-1.8,1.5-3.3,3.4-4.5,5.4c-0.1,0.3-0.2,0.7-0.2,1c-0.2,1.3-0.5,2.7-1.5,3.1
	c-0.5,0.2-1,0.1-1.5-0.1c-1-0.6-1.2-2.2-1.4-3.8v-0.2c-0.2-1.5,0.2-3,1-4.2c3.3-5.4,7.9-9.9,13.4-13.2l0.9-0.5
	c1.2-0.7,2.3-1.4,3.4-2.1c0.4-0.3,0.7-0.5,1-0.7c-1.6,0.4-3.2,1.1-4.6,2c-0.6,0.3-1.1,0.6-1.6,0.9c-3.1,1.6-6,3.4-8.8,5.4
	c-1.7,1.2-3.4,2.6-5,4c-1.7,1.4-2.7,3.4-2.9,5.6c-0.1,0.9-0.3,2.6-1.8,2.7c-1.7,0.1-1.9-2-2.1-3.1c0-0.2,0-0.3,0-0.4
	c-0.5-1.8-0.4-3.7,0.4-5.4c0.8-1.6,1.9-3.1,3.2-4.3c3.1-2.8,6.6-5.2,10.3-7.2c0.5-0.3,1.1-0.1,1.4,0.3c0,0,0,0,0,0.1
	c0.3,0.5,0.1,1.1-0.4,1.4c-3.6,1.9-6.9,4.1-10,6.7c-1.2,1.1-2.1,2.4-2.8,3.8c-0.5,1.2-0.6,2.5-0.2,3.8c0.4-2.3,1.6-4.3,3.4-5.8
	c1.6-1.5,3.4-2.9,5.2-4.1c2.9-2.1,5.9-3.9,9.1-5.5c0.5-0.2,1-0.5,1.6-0.8c2.1-1.2,4.5-2.5,6.7-2.2c1.2,0.1,1.6,0.7,1.7,1.2
	c0.2,1-0.5,2-2.6,3.4c-1.1,0.8-2.3,1.5-3.5,2.2l-0.9,0.5c-5.1,3.1-9.5,7.4-12.6,12.5c-0.6,0.9-0.8,2-0.7,3v0.2c0,0.4,0.1,0.8,0.1,1
	c0-0.1,0-0.2,0.1-0.3c0.1-0.5,0.2-1.1,0.4-1.6c1.3-2.3,2.9-4.3,4.9-6c2.1-1.9,4.3-3.6,6.6-5.1c3.8-2.8,8-5.2,12.3-7.2l1-0.5
	c2.5-1.2,6.4-3.1,8.2-1.2c0.4,0.4,0.6,0.9,0.5,1.5c-0.2,0.8-0.9,1.2-1.5,1.4l-0.3,0.2c-0.6,0.3-1.1,0.7-1.7,1.1l-0.9,0.6
	c-1.1,0.8-2.2,1.5-3.2,2.3c-1.2,0.9-2.4,1.8-3.7,2.7c-1.8,1.2-3.5,2.5-5.1,4c-2.2,2-4,4.4-5.5,7c-0.6,1-0.8,2.1-0.6,3.3
	c0.1,0.4,0.2,0.7,0.3,1.1c0.2-0.4,0.3-0.8,0.3-1.2c0.1-0.8,0.3-1.5,0.8-2.2c1.1-1.5,2.4-2.8,3.8-4l0.7-0.6c1.7-1.5,3.4-3,5.2-4.4
	c0.4-0.3,0.8-0.6,1.2-0.9c1.2-1,2.5-2,3.9-2.9c0.5-0.3,1-0.7,1.5-1.2c0.5-0.5,1.1-0.9,1.7-1.3c1.4-0.9,3-1.7,4.5-2.3
	c1.8-0.7,3.6-1.2,5.5-1.5c0,0,3.2-0.3,3.8,1.3c0.3,0.8,0,1.6-0.8,2.1c-1.1,0.8-2.2,1.4-3.4,1.8c-0.4,0.2-0.9,0.4-1.3,0.6
	c-2.4,1.2-4.7,2.7-6.8,4.4l-0.6,0.4c-2.2,1.5-4.2,3.3-5.9,5.4l-0.4,0.6c-0.7,1-1.6,2.1-1.5,3.1c0.1,1.7,0.4,2.7,0.8,3.2
	c0.1,0.1,0.2,0.1,0.3,0.2c0-0.2,0-0.3,0-0.5c0-0.3,0-0.5,0-0.8c0.1-1.6,0.8-3.1,1.9-4.3c2.5-2.6,5.4-4.9,8.6-6.7l1.5-0.9
	c1.5-0.9,3-1.9,4.6-2.8l0.6-0.3c1.6-1,3.3-1.7,5.2-2.2c0.6-0.1,1.1,0.3,1.2,0.8s-0.3,1.1-0.8,1.2c-1.6,0.4-3.1,1.1-4.5,1.9l-0.6,0.3
	c-1.6,0.8-3.1,1.8-4.5,2.7l-1.5,0.9c-3,1.7-5.7,3.8-8.1,6.3c-0.8,0.9-1.2,2-1.3,3.1c0,0.1,0,0.3,0,0.5c0.2,0.8-0.1,1.6-0.6,2.2
	C42.6,125.2,42.1,125.4,41.6,125.4z"/>
<path class="st7" d="M18.4,100.3c0.6-0.3,1.1-0.6,1.8-0.8c0.3-0.2,1.5-0.7,1.5-1.2c0-0.8-2.8,1-3.1,1.2c-2.3,1.4-4.5,3-6.6,4.7
	c-0.7,0.5-1.4,1-1.9,1.6c-0.5,0.6-0.9,1.3-1.3,2c-0.4,0.6-0.8,1.2-1.1,1.8c-0.2,0.8-0.4,1.6-0.5,2.4c-0.1,1.1,0,2.2,0.4,3.2
	c0.2,0.7,0.3,1.3,1,1.7s1.3-0.3,1.4-1.1c0-0.8,0.1-1.6,0.2-2.3c0.3-0.8,0.5-1.6,0.5-2.4c-0.6,0-0.9,1.6-1,2.1s-0.2,2.1-0.7,2.3
	c-0.7,0.2-1-1.8-1.1-2.2c-0.2-0.8-0.2-1.6,0-2.4c0.8-3.7,4.3-6,7.2-8.1C16.2,102,17.3,101.1,18.4,100.3z"/>
<path class="st7" d="M13.6,108.4c0.7-0.7,1.5-1.4,2.4-2.1c1.6-1.3,3.3-2.5,5-3.6c1.8-1.1,3.8-2.2,5.7-3.2c1.6-0.9,3.4-1.5,5-2.4
	c0.3-0.2,0.7-0.3,0.6-0.7c-0.7-0.3-1.8,0.5-2.4,0.8c-0.9,0.4-1.8,0.9-2.7,1.4c-1.7,1-3.5,1.8-5.3,2.7c-3.1,1.6-6,3.7-8.4,6.2
	c-0.5,0.5-2.8,1.8-2.2,2.7C12.1,110.3,13.1,108.9,13.6,108.4z"/>
<path class="st7" d="M32.2,99.6c0.1-0.1,0.8-0.6,0.6-0.8s-1,0.5-1.2,0.6c-0.7,0.4-1.4,0.7-2.1,1.1s-1.2,0.8-1.8,1.2
	c-1.1,0.8-2.1,1.7-3.2,2.6s-2,1.5-2.9,2.3c-1.7,1.6-3.2,3.3-4.5,5.2c-1,1.2-1.8,2.6-2.4,4c-0.3,1.2-0.4,2.4-0.2,3.7
	c0.1,0.6,1,2.7,1.8,2.4c0.2-0.4-0.2-0.6-0.5-0.9c-0.2-0.3-0.4-0.6-0.5-0.9c-0.1-0.9-0.1-1.7,0-2.6c0.2-1.9,0.9-3.7,2-5.2
	c0.4-0.7,0.9-1.3,1.3-1.9c1.1-1.2,2.3-2.4,3.6-3.4c1.2-1.2,2.6-2.3,3.9-3.4c1.3-1.1,2.7-2,4.2-2.9C31.1,100.4,31.6,100,32.2,99.6z"
	/>
<path class="st7" d="M28.7,106.7c-2.1,1.8-4.5,3.1-6.5,5c-1.9,1.5-3.4,3.3-4.7,5.3c-0.4,0.7-0.6,1.6-0.6,2.4
	c-0.1,0.4-0.1,0.8-0.2,1.2c0.1,0.5,0.3,0.2,0.5-0.2c0.8-1.5,0.9-3.3,2-4.7c0.7-0.9,1.4-1.7,2.3-2.4c2-1.8,4.3-3.3,6.4-5.1
	c0.3-0.3,0.6-0.5,0.9-0.7c1.1-0.8,2.2-1.6,3.3-2.4c0.4-0.3,1-0.5,1.5-0.9c0.2-0.2,0.5-0.7,0-0.8s-1.2,0.7-1.5,0.9
	C30.9,105,29.8,105.8,28.7,106.7z"/>
<path class="st7" d="M39.4,100.6c1-0.5,2.1-0.9,3.1-1.3s1.9-0.8,2.8-1.1c0.5-0.2,2.4-0.8,2.8-0.3c0.8,1-6.2,5.2-7,5.8
	s-1.6,1.1-2.3,1.7c-2.1,1.7-4.4,3.2-6.3,5.1c-0.6,0.6-1.2,1.2-1.8,1.8c-2.4,2.3-6.5,8.6-3.6,11.8c1.6,1.8,2.4-2.6,2.8-3.5
	c0.8-1.7,2.1-3.2,3.6-4.2c0.8-0.7,1.6-1.3,2.3-2s1.6-1.3,2.4-1.9c1.5-1.2,2.9-2.5,4.4-3.6c2-1.7,4.2-3.2,6.5-4.6
	c1.8-1,3.6-1.8,5.5-2.4c1-0.3,2-0.5,3-0.5c0.4,0,1.6,0.3,1.6,0.8c0,0.8-1.6,1.3-2.1,1.5c-1.2,0.5-2.3,1.1-3.4,1.7
	c-2.2,1.2-4.3,2.5-6.3,3.9c-1.7,1.3-3.3,2.7-4.9,4.2c-1.5,1.3-2.7,2.8-3.6,4.5c-0.5,1.2-0.5,2.5-0.2,3.8c0.3,1.4,0.9,3.1,2.6,3.2
	c0.2,0,0.8,0,0.7-0.4c0-0.1-0.6-0.2-0.7-0.2c-1.5-0.6-1.7-2.4-1.7-3.8c0.1-1.8,0.7-3.5,1.8-4.9c1.2-1.6,2.6-3,4.1-4.1
	c0.8-0.6,1.6-1.2,2.4-1.8c1-0.8,2-1.6,3.1-2.2c1.8-1.2,3.8-2.2,5.8-3.1c0.7-0.3,1.5-0.6,2.2-0.9c0.5-0.2,0.9-0.6,1.3-0.9
	c0.4-0.6,0.2-0.7-0.3-1.1c-1-0.7-2.3-0.9-3.5-0.6c-1.9,0.2-3.8,0.8-5.5,1.7c-1.4,0.8-2.9,1.3-4.3,2.2c-1.8,1.2-3.5,2.5-5.1,3.9
	c-0.9,0.8-1.8,1.4-2.7,2.1c-1.2,0.9-2.3,2-3.5,3c-1.6,1.2-3.1,2.5-4.5,4c-0.6,0.6-1.1,1.4-1.5,2.3c-0.3,0.8-0.6,1.6-0.8,2.4
	c-0.1,0.5-0.3,1.5-1.1,1.2s-0.8-1.9-0.7-2.6c0.2-2.4,1.2-4.7,2.7-6.6c1.4-1.9,3.3-3.2,5-4.9c0.6-0.7,1.4-1.2,2.1-1.8
	c0.6-0.4,1.3-0.8,1.9-1.2c1.1-0.7,2-1.5,3-2.2c2.3-1.5,4.6-3.2,6.7-5c1.1-1,0.8-2.4-0.9-2.2c-2,0.3-3.9,0.9-5.6,1.9
	c-0.9,0.4-1.9,0.9-2.8,1.3c-0.5,0.2-1.6,0.6-1.9,1.2s0.2,0.6,0.6,0.3C38.3,101.4,38.8,100.8,39.4,100.6z"/>
<path class="st7" d="M64,105.3c1,0.4-1.9,1.4-2.2,1.5c-0.8,0.4-1.6,0.7-2.4,1.1c-1.7,0.8-3.3,1.8-4.9,2.8c-2.1,1.3-4.1,2.7-6.1,4.2
	c-1.2,0.9-2.4,1.9-3.5,3c-0.9,0.8-1.6,1.8-1.9,2.9c-0.1,0.5,0.1,2-0.6,2c-0.8-1.7,0.4-4,1.6-5.2s2.2-1.9,3.3-2.9
	c2.1-1.8,4.3-3.3,6.7-4.7c2.7-1.5,5.4-2.9,8.2-4.2c0.5-0.2,1.2-0.7,1.7-0.6C63.8,105.3,63.9,105.3,64,105.3z"/>
<path class="st8" d="M34.5,105.6c0.1-0.9-10.8-101-10.8-101h2.2l11,101H34.5z"/>
<path class="st8" d="M28.7,50.1c0.5,4.2,0.9,8.4,1.4,12.6c0.7-0.2,1.4-0.4,2.1-0.6l-1.3-11.7C30.2,50.1,29.4,49.9,28.7,50.1z"/>
<path class="st8" d="M35.1,88.7c-0.2-0.1-0.5-0.2-0.7-0.2c-0.5,0-1.1,0.2-1.5,0.5c1,9.8,1.7,16.4,1.7,16.6c0.3,0.3,0.8,0.4,1.2,0.4
	c0.4,0,0.8-0.1,1.2-0.4L35.1,88.7z"/>
<path class="st9" d="M6,44c0.9-2.2,1.3-5.6,2.4-7.6c0.8-1.4,2.1-1.5,3.4-2.6c6.2-8.2,13.7-11.8,23.8-12.9
	c10.8-1.1,18.2,3.7,23.2,13.3c4,7.6,1,23.1-6.4,29.7c-1.8,1.6-3.7,1.9-5.7,3.2s-3,3.3-4.8,4.8c-2.3,1.9-5,1.6-7.6-0.7l-1.9,0.5
	c-2.3,5.3-3.3,7.3-7,7.9c-1.9,0.3-4.2,0-6.8,1.5c-4.1,2.4-11.2,0.1-14.4-1.7c-4.4-2.4-4.6-7.6-3.8-12.7c0-0.2,0-0.3,0.1-0.5
	c-0.2-0.2-0.2-0.4-0.2-0.7c0.2-0.7,0.6-1.4,1-2c1.3-3,3.4-4.3,4.7-7.9c0.8-2.3-1.2-1.9-2-4.8C3.3,48.8,5.1,46.2,6,44z"/>
<path class="st10" d="M33.3,68.4c1.4-1,2.7-2.5,4.4-2.5c1.9,0,3.8,0.4,5.6,1c-1.4,0.1-2.8,0.2-3.9,1.4s-2.8,2.9-4.6,3.4
	c-0.2-0.1-0.4-0.3-0.6-0.5l-1.9,0.5c-0.2,0.6-0.5,1.1-0.7,1.6c-1.2,0-2.4,0.2-3.5,0.4c-1.5,0.6-3.1,1.1-4.6,1.4
	c1.3-1.7,2.6-3.7,4.5-4.7C29.7,69.6,31.8,69.5,33.3,68.4z"/>
<path class="st11" d="M2,62.2c1.2-2.1,2.8-3.4,3.9-6.4c0.2-0.5,0.3-1,0.1-1.5c0.6,0.2,1.3,0.3,2,0.3c-0.6,2-1,4-1.3,6
	c0,0,0,0.1,0,0.1C5,60.6,3.3,61.1,2,62.2z"/>
<path class="st10" d="M10.3,34.6c1.3,0.8,2.3,2,2.7,3.4c0.6,1.2,1.1,2.5,1.4,3.8c0.2,1.2-0.4,5.7-1.7,6c-0.7,0.2-2.2,3-5.5,3.8
	C6.1,51.8,5,51.7,4,51.2c0,0,0-0.1,0-0.2C3.3,48.8,5.1,46.2,6,44s1.3-5.6,2.4-7.6C8.9,35.6,9.5,35,10.3,34.6z"/>
<path class="st12" d="M1.2,63.7c0.2-0.5,0.5-1,0.8-1.5c1.2,1.7,1.2,4.1,2.8,5.5c1.5,1.3,3.2,2.2,5.1,2.7c2.1,0.6,4.5,1.7,6.7,1.3
	c1.1-0.3,2.2-0.3,3.3-0.2c0.5,0.1,1.4,0.4,0.8,1.1l0,0c0-0.2-0.1-0.3-0.2-0.4c-0.3-0.2-0.6-0.3-0.9-0.2c-0.4,0-0.8,0.1-1.1,0.3
	c-0.7,0.2-1.5-0.3-2.1,0.1c-0.5,0.3-1,0.3-1.4,0.7c-0.4-1.1-1.3-0.8-2.3-1.1c-0.6-0.2-1.1-0.5-1.7-0.1c-0.3,0.2-0.5,0.4-0.8,0.6
	c0,0,0-0.1,0-0.2c0.3-1.9-1.5-1.4-2.8-1.2c0-0.7,0.2-1.1-0.5-1.5c-0.7-0.2-1.5-0.2-2.1,0.2C5.1,69,5.5,68,4.8,67.7
	c-1.1-0.2-2.2,0.4-2.8,1.3c-0.5-1,1.9-2.5,0.8-3.6c-0.5-0.4-1.1,0.2-1.3,0.5c-0.2,0.3-0.4,0.6-0.5,0.9c-0.1,0.3-0.2,0.4-0.3,0.3
	c0-0.2-0.1-0.4-0.2-0.5l0,0c0-0.1,0-0.3,0.1-0.4c-0.2-0.2-0.2-0.4-0.2-0.7C0.5,64.9,0.8,64.3,1.2,63.7z"/>
<path class="st12" d="M5.4,74.5c0.3,0.1,0.6,0.2,0.9,0.2c-0.1,0,0.4,0.3,0.4,0.3l0,0c1,0.4,2.1,0.2,2.8-0.4c0.1,0.6,0.4,1.2,1,1.5
	c0.6,0.2,1.2,0,1.8,0.1c0.3,0.1,0.7,0.1,1,0.1c1-0.2,3.5,0.5,4.1-0.9c0.6,0.3,1.2,0.7,1.9,0.4s0.5-0.7,0.6-1.2
	c0.5,0.3,1,0.5,1.5,0.7c-0.5,0.5-1.1,0.8-1.7,1.1c-1,0.4-2.1,0.6-3.1,0.8c-1.2,0.3-2.5,0.4-3.7,0.3c-1.1-0.2-2.3-0.4-3.3-0.8
	c-2.2-0.6-4.5-0.8-6.3-2.2c-1.1-0.7-1.9-1.7-2.4-2.8c-0.2-0.7-0.4-1.4-0.7-2c0-0.7,0.1-1.3,0.2-2c0.1,0.3,0.2,0.6,0.2,0.7
	c0.1,0.4,0.1,1.3,0.4,1.7s0.8-0.9,1.3-0.2s0,3.4,1.7,2.1c0.6-0.4,0.4,0.5,0.5,0.2C4,72.5,4,73,4.1,73.4C4.4,74,4.8,74.3,5.4,74.5z"
	/>
<path class="st10" d="M10.9,39.4c1.1,3,2.9,6.2,2,9.5c0,0,0,0.1,0,0.1c-1,1.7-2.4,3.5-4.2,4.4c-1.2,0.5-2.5,0.4-3.6-0.2
	c-0.6-0.6-1-1.3-1.2-2.2C3.3,48.8,5.1,46.2,6,44c0.8-1.9,1.2-4.7,2-6.8C9.9,36.3,10.3,37.8,10.9,39.4z"/>
<path class="st13" d="M7.7,41.8c0.2-1.4,0.5-4.2,2.3-4.1c0,0,0.1,0,0.1,0c0.3,0.5,0.6,1.1,0.8,1.7c1.1,3,2.8,6.2,2,9.4
	c-0.7,0.6-1.2,1.4-1.9,2c-1,1-2.4,1.3-3.7,0.8c-1.3-0.5-1.8-2.4-1.7-3.9c0.2-1.1,0.7-2.1,1.3-2.9C7.8,43.3,7.5,43.5,7.7,41.8z"/>
<path class="st14" d="M19.7,71.6c0.3,0,0.5,0,0.8,0.1c0.4,0.1,0.9,0.3,1.3,0.5c-0.8-0.3-1.6-0.4-2.4-0.3c-0.3,0-0.6,0.1-0.8,0.2
	h-0.2c0.3-0.1,0.6-0.2,0.9-0.3h0.1L19.7,71.6z"/>
<path class="st14" d="M6.8,69L6.8,69c0.3,0.2,1,0.7,1.2,0.8c0.7,0.4,1.2,0.4,1.9,0.8c0.3,0.2,0.7,0.3,1,0.4c-2-0.6-3.9-1.5-5.6-2.8
	c-0.2-0.5-0.6-0.8-1.1-1l-0.2-0.1c-0.1-0.1-0.2-0.3-0.3-0.4c0,0,0.1-0.1,0.1-0.1C4,67,4.3,67.2,4.5,67.3C5.2,68,6,68.5,6.8,69z"/>
<path class="st14" d="M1.5,71.9c0.2,0.4,0.5,0.7,0.9,1c0.1,0.1,0.3,0.2,0.5,0.3c0.1,0,0.2,0,0.2,0l0,0c0,0,0,0.1,0,0.1
	c0.3,0.4,0.7,0.7,1.2,0.9c0.3,0.2,1.4,0.6,1.5,0.7c0.1,0,0.2,0,0.3-0.1h0.1c0.1,0.3,0.7,0.4,1,0.5s0.9,0.4,1.2,0.2l0,0L9,75.7
	l0.5,0.1c0.3,0.3,0.7,0.4,1.2,0.4l0.3,0.1c0.3,0.1,0.7,0.1,1-0.1c0.7,0.1,1.4,0.1,2.2,0.1c0.6,0.3,1.3,0.3,1.9,0.1
	c0.5,0,0.9,0,1.3-0.3l0,0c0.2,0,0.4,0,0.6-0.1c0.1,0,0.3,0,0.4,0c0.6,0.1,1.2-0.1,1.8-0.4h0.1L20.2,76l-0.2,0.1
	c-0.4,0.1-0.8,0.1-1.1,0.2c-0.4-0.1-0.9,0-1.3,0.1l-0.6,0.2c-0.6,0-1.1,0.1-1.7,0.1l-1.1,0c-0.3,0-0.5-0.1-0.8-0.1
	c-0.5-0.1-1-0.1-1.4,0c-0.6-0.1-1.2-0.1-1.7-0.2c-0.3-0.1-0.7-0.3-1-0.4c-0.3-0.1-0.6-0.1-0.9,0c-5-1.3-7.8-3.6-8.1-6.9v-0.1
	c0,0.2,0.1,0.5,0.2,0.7c0.1,0.5,0.3,1,0.7,1.4l0,0L0.9,71c0,0,0,0.1,0,0.1c0,0.3,0.3,0.6,0.5,0.8C1.5,71.9,1.5,71.9,1.5,71.9z"/>
<path class="st15" d="M25.6,72.4c-1.2,1.3-2.6,2.4-4.2,3.2c-0.4,0.1-0.8,0.2-1.1,0.3c0-0.1-0.1-0.1-0.1-0.2c-0.3-0.5-0.6-1-1-1.5
	c1-0.3,1.5-1.3,1.4-2.3C22,72,23.3,73,25.6,72.4z"/>
<path class="st11" d="M8.2,78.3c4.4,1.1,9,0.4,12.8-1.9c1.8-1,3.5-2.4,5.4-3.3s3.9-0.9,5.8-1.2c-2.2,5.1-3.2,7-6.9,7.7
	c-1.9,0.3-4.2,0-6.8,1.5c-4.1,2.4-11.2,0.1-14.4-1.7c-2.2-1.3-3.7-3.5-4-6.1l0,0C1.9,76,2.7,77.1,8.2,78.3z"/>
<path class="st16" d="M13.1,81.3c1.7-0.3,3.4-0.8,5-1.5c4.2-1.4,11.7-2,11.6-7.5c0.9-0.1,1.8-0.2,2.7-0.4c-2.2,5.1-3.2,7-6.9,7.7
	c-1.9,0.3-4.2,0-6.8,1.5c-4.1,2.4-11.2,0.1-14.4-1.7C3,78.9,2,78,1.4,76.9c1.7,1.5,3.7,2.6,5.8,3.4C9,81.1,11,81.4,13.1,81.3z"/>
<path class="st17" d="M12.9,80.8c3-0.4,5.8-1.5,8.3-3.2c1.3-0.7,2.5-1.5,3.7-2.4c1.1-0.8,2-1.8,3.1-2.6c1.4-0.4,2.9-0.4,4.4-0.7
	c-0.7,1.5-1.2,2.8-1.8,3.8c-3.3-1.7-7,1.1-9.8,3.1c-2.3,1.7-5,2.8-7.9,3.3c-3.1-0.3-6-1.2-8.8-2.7c-1.9-1-3.3-2.9-3.8-5
	C2.1,78.8,8.5,81.1,12.9,80.8z"/>
<path class="st11" d="M42.3,66.9c1.3,0.2,2.7,0.3,4.1,0.3c-1.8,1.3-2.8,3.2-4.5,4.6c-2.3,1.9-5,1.6-7.6-0.7l-0.2,0.1
	c4-1.4,3.4-2.2,5.2-4.1C40,66.4,41.1,67,42.3,66.9z"/>
<path class="st17" d="M37.7,73c-1.3-0.3-2.4-0.9-3.3-1.8l-0.2,0.1c4-1.4,3.4-2.2,5.2-4.1c0.7-0.7,1.8-0.2,3-0.3
	c1.3,0.2,2.7,0.3,4.1,0.3c-0.4,0.3-0.7,0.6-1.1,0.9c-1.7-0.2-3.4-0.5-5,0.1c-0.9,0.4-1.5,1.3-2.1,2s-1.2,1-0.8,2
	C37.4,72.5,37.5,72.7,37.7,73z"/>
<path class="st18" d="M9.8,37.5c1.7-0.3,3.6,3.9,3.9,5.1c0.4,1.8,0.2,5.1-1.1,6.5c-1.1,0.9-1.2,2.1-2.9,2.2
	c-1.3,0.1-2.6-0.6-3.1-1.8c-1-2.2,0.5-3.9,1.3-5.8C8.3,42.5,8.5,37.8,9.8,37.5z"/>
<path class="st19" d="M10.7,49.3c0.4,0.3,0.9,0.4,1.4,0.2c-0.7,0.8-1,1.6-2.5,1.7c-1.3,0.1-2.6-0.6-3.1-1.8c-1-2.2,0.5-3.9,1.3-5.8
	c0.5-1.2,0.7-5.8,2-6.1c0.6-0.1,1.3,0.4,1.9,1.2c-1.7,1.4-1.5,3.3-2.1,5.3S8.9,48,10.7,49.3z"/>
<path class="st20" d="M10.1,58.5c0.3,1.2,2.3,4.6,1.7,5.7c-1,1.7-5.5-1.9-5.7-3.2c-0.4-2,0.7-4.1,1.4-6c0.2-0.5,0.4-0.8,0.5-1.3
	C10.1,53.7,9.6,56.9,10.1,58.5z"/>
<path class="st19" d="M4.5,67.4c-1.1-0.4-1.8,0.7-2.7,1.2c0.5-0.8,1.5-1.8,1.3-2.9C3.4,66.3,3.9,66.9,4.5,67.4z"/>
<path class="st19" d="M3.1,65.7L3.1,65.7L3.1,65.7z"/>
<path class="st13" d="M1.2,63.5c0.2-0.5,0.4-0.9,0.7-1.3c0.1,0.4,0.3,1.1,0.4,1.6c0.1,0.5,0.4,1,0.6,1.4l0.1,0.1
	c-0.8-1-1.5,0.2-2.1,0.8C1.1,65.8,2.9,62.9,1.2,63.5z"/>
<path class="st21" d="M13.5,71.7c0.8,0,2.1,0.1,3.1,0.1s2-0.1,3-0.1c-1.2,0.2-1.3,0.7-2.1,1.6c0.1-0.7-0.4-1.3-1.1-1.4
	c-0.1,0-0.2,0-0.2,0c-0.8,0.1-1.1,1-1.3,1.6C15.1,72.4,14.2,72.2,13.5,71.7z"/>
<path class="st21" d="M8.4,75.6c0.5-0.3,0.9-0.9,1-1.5c0-0.1-0.1-0.3-0.1-0.3c0.1,0,0.1-0.1,0.2-0.1c0.5-0.9,0.7-2,0.6-3
	c0.4,0.2,0.8,0.3,1.3,0.4c-0.9,0-1.2,1-1.4,1.8c0.1,0.7,1,1,1.7,1.2c0.2,0.1,0.4-0.2,0.4-0.3c0.5,0.3,1,0.6,1.6,0.8
	c0.4,0,0.8-0.1,1.1-0.3c0,0,0.1,0.2,0.5,0.2c0.7,0.1,1.4,0.3,1.8,0.1l0.2-0.5c0,0,0,0.1,0,0.2c0,0.6,0.4,1.8,1,1.8
	c-0.2,0.1-0.5,0.1-0.8,0.2c-0.2-0.6,0-0.8-0.3-1.3c-0.8-0.3-1.6-0.4-2.4-0.1c-0.4,0.2-0.5,1.2-0.6,1.7c-0.7,0-1.4-0.1-2.1-0.2
	c0-0.7,0.2-1.3-0.4-1.8s-1.7-1.1-2.1-0.2c-0.1,0.3-0.1,0.6-0.2,0.9c0,0.2,0,0.5,0.1,0.7C9.3,75.8,8.8,75.7,8.4,75.6z"/>
<path class="st15" d="M8.4,75.6c0.5-0.3,0.9-0.9,1-1.5c0-0.1-0.1-0.3-0.1-0.3c0.1,0,0.1-0.1,0.2-0.1c0.2-0.2,0.3-0.5,0.4-0.8
	l0.2-0.2c0,0.1,0,0.2-0.1,0.3c0.1,0.7,1,1,1.7,1.2c0.2,0.1,0.4-0.2,0.4-0.3c0.5,0.3,1,0.6,1.6,0.8c0.4,0,0.8-0.1,1.1-0.3
	c0,0,0.1,0.2,0.5,0.2c0.7,0.1,1.4,0.3,1.8,0.1l0.2-0.5c0,0,0,0.1,0,0.2c0,0.6,0.4,1.8,1,1.8c-0.2,0.1-0.5,0.1-0.8,0.2
	c-0.2-0.6,0-0.8-0.3-1.3c-0.8-0.3-1.6-0.4-2.4-0.1c-0.4,0.2-0.5,1.2-0.6,1.7c-0.7,0-1.4-0.1-2.1-0.2c0-0.7,0.2-1.3-0.4-1.8
	s-1.7-1.1-2.1-0.2c-0.1,0.3-0.1,0.6-0.2,0.9c0,0.2,0,0.5,0.1,0.7C9.3,75.8,8.8,75.7,8.4,75.6z"/>
<path class="st21" d="M18.4,73.8c0.3,0,0.5,0.2,0.8,0.3c-0.4,0-0.7,0-1-0.1c-0.2,0-0.4,0-0.5,0.1c-0.1,0.2-0.2,0.4-0.2,0.6l-0.2-0.1
	c0.2-0.5,0.3-0.7,0.3-0.9c0-0.2,0.1-0.3,0.1-0.5c0,0.2-0.1,0.5-0.1,0.7C17.8,74,18.1,73.8,18.4,73.8z"/>
<path class="st14" d="M12.6,72.6c0-0.2-0.5-1.3-0.9-1.4c0.1,0,1.8,0.5,1.8,0.5S12.6,72.4,12.6,72.6z"/>
<linearGradient id="SVGID_1_" gradientUnits="userSpaceOnUse" x1="-1989.683" y1="77.0215" x2="-1988.1229" y2="74.4215" gradientTransform="matrix(-1 0 0 -1 -1975.1899 149.1)">
	<stop  offset="0.34" style="stop-color:#E1BD54"/>
	<stop  offset="1" style="stop-color:#C29F44"/>
</linearGradient>
<path class="st22" d="M13.1,71.9c0.6-0.3,1.4,0,1.7,0.6c0,0,0,0.1,0,0.1c0.3,0.6,0.3,1.3,0,1.9c-0.4,0.3-0.9,0.2-1.3,0.2
	c-0.7-0.1-1.5-0.2-1.3-1C12.3,72.9,12.6,72.3,13.1,71.9z"/>
<linearGradient id="SVGID_00000078036709365800100390000008203511492694345358_" gradientUnits="userSpaceOnUse" x1="-1989.1195" y1="74.45" x2="-1989.1195" y2="77.36" gradientTransform="matrix(-1 0 0 -1 -1975.1899 149.1)">
	<stop  offset="0.41" style="stop-color:#EACA5E"/>
	<stop  offset="1" style="stop-color:#FBF581"/>
</linearGradient>
<path style="opacity:0.73;fill:url(#SVGID_00000078036709365800100390000008203511492694345358_);enable-background:new    ;" d="
	M14,71.8c0.5,0.6,0.8,1.3,0.7,2.1c0,0.3-0.2,0.6-0.4,0.8c-0.3,0-0.5,0-0.8,0h-0.2c0.6-0.8,0.8-1.9,0.5-2.8
	C13.8,71.8,13.9,71.8,14,71.8z"/>
<path class="st24" d="M14.5,74.4c0.1,0,0.2,0,0.3-0.1v0.1c-0.4,0.3-0.9,0.2-1.3,0.2c-0.7-0.1-1.5-0.2-1.3-1c0.2-0.7,0.5-1.3,1-1.8
	c0.2-0.1,0.4-0.1,0.6-0.1c-0.4,0.1-0.6,0.4-0.7,0.7c-0.2,0.4-0.4,1.1-0.1,1.5C13.3,74.3,13.9,74.5,14.5,74.4z"/>
<path class="st25" d="M15.3,72.6c0.2,0.5-0.1,1.1-0.6,1.3c-0.5,0.2-1.1-0.1-1.3-0.6c-0.2-0.5,0.1-1.1,0.6-1.3c0,0,0,0,0.1,0
	C14.6,71.8,15.1,72,15.3,72.6z"/>
<path class="st26" d="M15.2,72.6c0.2,0.5,0,1-0.5,1.2s-1,0-1.2-0.5c0,0,0-0.1,0-0.1c-0.2-0.5,0.1-1,0.5-1.2c0,0,0,0,0,0
	C14.5,71.8,15.1,72,15.2,72.6C15.2,72.5,15.2,72.5,15.2,72.6z"/>
<path class="st27" d="M15.2,72.6c0.2,0.4-0.1,0.9-0.5,1.1c0,0,0,0,0,0c-0.5,0.2-0.9-0.1-1.1-0.5c0,0,0,0,0,0c-0.2-0.5,0.1-1,0.5-1.1
	C14.5,71.8,15,72.1,15.2,72.6C15.2,72.5,15.2,72.5,15.2,72.6z"/>
<path class="st28" d="M15.1,72.6c0.1,0.4-0.1,0.9-0.5,1c-0.4,0.1-0.9-0.2-0.9-0.7c0-0.3,0.1-0.6,0.4-0.8
	C14.5,71.9,15,72.1,15.1,72.6C15.1,72.5,15.1,72.5,15.1,72.6z"/>
<path class="st29" d="M15.1,72.6c0.1,0.4-0.1,0.8-0.5,1s-0.8-0.1-1-0.5s0.1-0.8,0.5-1S14.9,72.1,15.1,72.6z"/>
<path class="st30" d="M15.1,72.6c0.1,0.4-0.1,0.8-0.5,0.9c-0.4,0.1-0.7-0.1-0.9-0.4c-0.1-0.4,0.1-0.8,0.5-0.9
	C14.5,72,14.9,72.2,15.1,72.6z"/>
<path class="st31" d="M15,72.6c0.2,0.3,0,0.7-0.3,0.9c-0.3,0.2-0.7,0-0.9-0.3c0,0,0-0.1-0.1-0.2c-0.1-0.4,0.1-0.7,0.4-0.8
	c0,0,0,0,0,0C14.5,72.1,14.9,72.2,15,72.6z"/>
<path class="st32" d="M14.9,72.6c0.1,0.3,0,0.7-0.4,0.8c0,0,0,0,0,0c-0.3,0.1-0.7-0.1-0.8-0.4c0,0,0,0,0,0c-0.1-0.3,0.1-0.7,0.4-0.8
	S14.8,72.3,14.9,72.6L14.9,72.6z"/>
<path class="st33" d="M14.9,72.6c0.1,0.3-0.1,0.6-0.4,0.7s-0.6-0.1-0.7-0.4l0,0c-0.1-0.3,0.1-0.6,0.4-0.7
	C14.5,72.2,14.8,72.3,14.9,72.6z"/>
<path class="st34" d="M14.8,72.7c0.1,0.3,0,0.6-0.3,0.7c0,0,0,0,0,0c-0.3,0.1-0.6-0.1-0.7-0.3c-0.1-0.3,0.1-0.6,0.3-0.7
	C14.5,72.2,14.7,72.4,14.8,72.7C14.8,72.6,14.8,72.6,14.8,72.7z"/>
<path class="st35" d="M14.8,72.7c0.1,0.2,0,0.5-0.3,0.6c0,0,0,0,0,0c-0.3,0.1-0.5,0-0.6-0.3c-0.1-0.3,0.1-0.5,0.3-0.6
	C14.4,72.3,14.7,72.4,14.8,72.7C14.8,72.7,14.8,72.7,14.8,72.7z"/>
<path class="st36" d="M14.8,72.7c0.1,0.2,0,0.5-0.3,0.6c-0.2,0.1-0.5-0.1-0.5-0.3c-0.1-0.2,0-0.5,0.3-0.5S14.7,72.5,14.8,72.7
	C14.8,72.7,14.8,72.7,14.8,72.7z"/>
<path class="st37" d="M14.7,72.7c0.1,0.2,0,0.4-0.2,0.5c0,0,0,0,0,0c-0.2,0.1-0.4,0-0.5-0.2c-0.1-0.2,0-0.4,0.2-0.5
	S14.6,72.5,14.7,72.7z"/>
<path class="st38" d="M14.7,72.7c0.1,0.2,0,0.4-0.2,0.5s-0.4,0-0.5-0.2c0,0,0-0.1,0-0.1c0-0.2,0.1-0.4,0.3-0.4
	C14.5,72.5,14.6,72.6,14.7,72.7z"/>
<path class="st38" d="M13.4,72.6c0.2,0,0.5,0,0.8,0c0.3-0.1,0.4-0.7,0.4-0.7c0,0.3,0,0.6,0.2,0.8c0.2,0.2,0.4,0.3,0.6,0.4
	c-0.3-0.1-0.5-0.1-0.8-0.1c-0.2,0.1-0.5,0.7-0.5,0.7c0-0.3,0-0.5,0-0.8C14,72.7,13.4,72.6,13.4,72.6z"/>
<path class="st13" d="M0.3,67.2c0.1-0.3,0.1-0.6,0.1-0.8c0,0.1,0.1,0.2,0.2,0.2c-0.1,0.6,0.8,2.3,1.5,1.8c-0.4,1-0.2,1.3,0.7,1.9
	s1,0.4,1.8-0.2c-0.9,0.8,0.1,1.2,0.8,1.6c0.8,0.5,1.5,0.7,1.9-0.4C7.2,71.6,7.1,72,7,72.4c0.1,0.1,0.9,0.8,1.2,0.9
	c0.3,0.2,0.5,0.3,0.8,0.5c-0.5,0-1,0-1.4,0.2c-1,0.2-1.1,0.4-1.6,1.2c0.4-1,0.7-2.2-0.4-2.8c-0.6-0.3-1.1-0.4-1.6-0.1
	c-0.4,0.3-0.8,0.6-1.1,1c0.4-0.6,0.7-1.3,1-2c-0.5-0.4-1-0.8-1.6-1c-0.4-0.2-0.3-0.2-0.8,0.1C1.4,70.5,1.1,70.7,1,71
	c0.2-0.8,0.7-1.3,0.5-2.1C1.3,68.2,0.6,67,0.3,67.2z"/>
<path class="st21" d="M7.4,71.2c0.2-0.5,0.3-1,0.3-1.5c0.2,0.2,0.5,0.3,0.7,0.4C7.8,70.3,7.7,70.8,7.4,71.2z"/>
<path class="st21" d="M4.9,69.6c0.3-0.5,0.4-1.1,0.4-1.6c0.2,0.1,0.6,0.5,0.8,0.6C5.7,68.8,5.6,68.8,4.9,69.6z"/>
<path class="st39" d="M9.3,74.1c-0.1,0.3-0.2,0.6-0.4,0.8l0,0c0-1.2-1.2-0.4-1.9-0.4C7.2,74.1,8.1,74,8.6,74
	C8.8,73.9,9.3,73.7,9.3,74.1z"/>
<path class="st39" d="M8.8,74.9"/>
<path class="st39" d="M11.4,73.2c0.2-0.1,0.4-0.2,0.5-0.4c0.2-0.2,0-0.7,0.2-0.8c0.2,0.6-0.1,1.9-0.8,1.8c-0.4-0.1-0.7-0.2-1-0.4
	c-0.2-0.2-0.1-0.9,0.1-1.1c-0.1,0.4,0.2,0.8,0.6,0.9C11.2,73.2,11.3,73.2,11.4,73.2z"/>
<path class="st39" d="M17.1,74.4c-0.2,0.3-0.6,0-0.9,0c-0.3,0-0.7-0.1-1-0.2c0-0.4,0.5-0.1,0.7-0.1c0.3,0.1,0.6,0.1,0.8-0.1
	c0.4-0.2,0.5-1.2,0.3-1.5C17.6,72.7,17.4,74.1,17.1,74.4z"/>
<path class="st39" d="M9.8,71c0.1,0.1,0.2,0.1,0.1,0.2l0,0c-0.2,0.4-0.4,2.3-1.3,1.7c-0.3-0.2,0.2-1,0.3-1.4c0-0.2,0.1-0.5,0.2-0.6
	S9.6,71,9.8,71z"/>
<path class="st39" d="M6.2,70.8c0.3-0.1,0.8-0.9,1-0.7l0.1,0.1c-0.2,0.6-0.4,1.6-1.2,1.5c-0.3,0-1.8-1-1.2-1.2
	C5.2,70.9,5.7,71,6.2,70.8z"/>
<path class="st40" d="M1.8,67.7c-0.1,0.7-0.4,0-0.7-0.2s-0.7-0.9-0.3-1.2c0.5-0.4,1-0.7,1.6-1c0.1,0.2-0.6,0.9-0.6,1.1
	C1.7,66.8,1.9,67.2,1.8,67.7z"/>
<path class="st40" d="M0.9,69c0.1,0.4,0.3,0.9,0.1,1.4C0.6,70,0.3,69.5,0.1,69c0-0.5,0.1-0.9,0.3-1.3h0.1C0.7,68.1,0.8,68.6,0.9,69z
	"/>
<path class="st40" d="M3.5,70.1c0,0.3-0.4,0.2-0.5,0.2c-0.2-0.1-0.4-0.2-0.5-0.4c-0.4-0.2-0.6-0.8-0.4-1.2c0.2-0.2,0.3-0.4,0.5-0.6
	c0.3-0.2,0.6-0.4,0.9-0.5c0,0.3-0.2,0.5-0.3,0.7c-0.2,0.2-0.3,0.5-0.4,0.8c0,0.2,0.1,0.4,0.2,0.6C3.1,69.7,3.5,70,3.5,70.1z"/>
<path class="st39" d="M5.5,73.6c-0.2-0.3-0.7-0.7-0.6-1.1c0.8,0.3,1.3,1.1,1.1,2l0,0c0,0,0,0,0,0.1C5.8,74.2,5.7,73.8,5.5,73.6z"/>
<path class="st39" d="M11.5,74.6c0.2,0.3,0.7,1,0.4,1.3c-0.2,0-0.4-0.2-0.5-0.4s-0.1-0.4-0.2-0.5s-0.4-0.2-0.6-0.3
	c-0.4-0.1-0.9-0.6-0.2-0.7C10.8,74,11.3,74.2,11.5,74.6z"/>
<path class="st12" d="M20.4,72.1c0.4,0.2-0.2,1-0.3,1.2c-0.2,0.4-0.6,0.6-1,0.6c0-0.3,0.3-0.5,0.3-0.8s-0.4-0.4-0.5-0.7
	C18.8,71.9,20.1,72.1,20.4,72.1z"/>
<path class="st12" d="M18.1,74.9c0.1,0.2,0.3,0.3,0.5,0.4c0.4,0.1,0.9,0.2,1.3,0.2c0.2,0.3-0.9,0.5-1.1,0.5c-0.4,0-0.9-0.2-1.1-0.6
	c-0.1-0.2-0.5-1.1-0.1-1.1C17.9,74.4,18.1,74.8,18.1,74.9z"/>
<path class="st40" d="M16.1,76c0.4-0.1,0.8-0.3,1-0.6l0,0c0,0.2,0.2,0.6,0,0.8s-0.6,0.1-0.8,0.1s-1.8,0.2-1.4-0.3
	C15.3,76,15.7,76,16.1,76z"/>
<path class="st41" d="M11.5,65.1c0.9,1.8,1.8,3.7,1.3,5.6c-0.5-0.1-1.1-0.2-1.6-0.2c0.4-1.7,0.5-3.4,0.2-5.1L11.5,65.1z"/>
<path class="st41" d="M10.3,65.7c-0.3,1.2-0.1,3-0.9,3.9c-0.4,0-0.8-0.2-1.1-0.4c0.4-1.4,1.1-2.6,2-3.7L10.3,65.7z"/>
<path class="st41" d="M10.9,64.7c-0.2,0-0.5-0.1-0.7-0.1C10.4,64.7,10.6,64.7,10.9,64.7z"/>
<path class="st41" d="M11.3,57.8l0.1-0.3c0,2.6,3.5,7.6-0.6,7.2C13.6,64.8,10.9,59.3,11.3,57.8z"/>
<path class="st10" d="M2.2,63c-0.1-0.6,0.1-0.5,0.6-0.7s0.7-0.6,1.1-0.5c-0.3,0.7-1.3,1-1.3,1.9c0.9-0.5,1.9-1.6,2.9-1.8
	c-0.3,0.5-1,1-1.4,1.4s-1.2,1.5-0.8,2l-0.2,0.3c0.2-0.3-0.3-1.1-0.5-1.4C2.4,63.8,2.3,63.4,2.2,63z"/>
<path class="st10" d="M17.4,57.5h0.2c0,0,0.5,0.3,0.7,0.4c0.2,0.2,0.4,0.4,0.6,0.6c0.5,0.6,1.1,1.1,1.8,1.6c1.2,0.9,2.6,1.5,4.1,1.7
	c0.7,0.1,1.5,0.1,2.2,0.2c0.4,0.1,1.2,0.2,1.4,0.6c0.4,0.7-0.4,1.7-0.8,2.1c-0.6,0.7-1.3,1.2-2.2,1.4c-1.9,0.1-3.9-0.4-5.4-1.6
	c-0.6-0.4-1.1-1.1-1.8-1.6s-1.3-0.7-1.9-0.9s-1.7-0.1-1.9-0.8c-0.2-0.6-1.2-1.9-1.3-2.5s0.8-1.4,1.5-1.7
	C15.6,56.8,16.7,56.9,17.4,57.5z"/>
<path class="st42" d="M14.9,51.9c0.4-0.6,0.7-1.9,1.5-2.1c0.6-0.2,1.6,0.7,2.3,0.8c0.8,0.2,2.5,0.2,2.1,0.8c-1,0.3-3.1,6-3.9,6.3
	c-3.2-0.8-1.8,4-2.4,3.6s-1.8-3.5-2.1-4c-0.9-1.7-0.2-2.7,1-3.9C13.9,53,14.4,52.5,14.9,51.9z"/>
<path class="st18" d="M20.4,50.8c1.5-0.2,2.9,1.5,4,2.4c2.2,1.8,4.1,4,5.5,6.4c1.1,2.2-1.2,3.4-2.8,4.7c-1.9,1.5-3.5,1.1-5.4-0.2
	c-2.7-1.8-6.6-7.3-4.7-10.6C17.6,52.6,19.2,51,20.4,50.8z"/>
<path class="st19" d="M26.8,64.5c-1.8,1.3-3.3,0.9-5.1-0.3c-2.7-1.8-6.6-7.3-4.7-10.6c0.6-1,2.2-2.6,3.4-2.8s2.4,1,3.4,1.9
	c-1.1,0.8-2.4,1.6-2.7,3c-0.4,2,0.1,4.2,1.4,5.8C23.5,63,25,64.1,26.8,64.5z"/>
<path class="st10" d="M17.6,65.8c0.9,0.3,1.7,0.9,2.4,1.6c0.5,0.7,1.1,1.3,1.7,1.9c1.4,0.9,3,2,4.8,1.6h0h0.1
	c0.1,0.3-4.7,0.4-5.2,0.3c-1.8-0.2-3.9-1.3-5.7-0.2c-0.1-0.6-0.2-1.3-0.5-1.9c-0.2-0.5-0.7-1.2-0.7-1.8c0.1-0.7,0.5-1.3,1.1-1.7
	C16.3,65.5,17,65.5,17.6,65.8z"/>
<path class="st42" d="M18,64.7c1.1,1.3,1.8,2.4,3.4,4.4c-2.8-1.4-2.4-2.9-4.8-1.9c-0.6,0.3-1.4,1.6-1.7,1.3
	c-0.5-1.1-0.7-2.3-0.5-3.5C15.1,62.5,16.3,62.8,18,64.7z"/>
<path class="st43" d="M14.8,70.3c0.9,0.6,1.4-0.4,2.2-0.6c1-0.1,2,0.1,2.8,0.6c3.4,1.3,7.3,0.9,10.2-1.3c-1,1.5-2.5,2.5-4.3,2.7
	c-2.1,0.5-3.6-0.4-5.8-0.7c-1.7-0.2-4.3,1-5.9-0.1c-1.1-0.7-0.9-3.5-1.1-4.8v-0.1C14.4,66.7,13.5,69.6,14.8,70.3z"/>
<radialGradient id="SVGID_00000156586235253943862850000004045966884610563725_" cx="-2008.1959" cy="111.42" r="15.32" gradientTransform="matrix(-1 0 0 -1 -1975.1899 149.1)" gradientUnits="userSpaceOnUse">
	<stop  offset="0" style="stop-color:#F3EFE8"/>
	<stop  offset="0.93" style="stop-color:#CDC6BA"/>
</radialGradient>
<path style="fill:url(#SVGID_00000156586235253943862850000004045966884610563725_);" d="M36.4,24.3c8.9,2.3,14.7,10.1,12.8,17.5
	s-10.6,11.6-19.5,9.3S15,41,16.8,33.6S27.5,22,36.4,24.3z"/>
<path class="st43" d="M12.9,38.9c-0.4-1.6,0.2-1.5,0.7-1.3c1.8,0.7,3.3,1.5,3.8,3.6c0.4,1.6,1.3,4.6,0.2,6c-0.6,0.7-1.5,1-2.1,1.8
	c-0.4,0.9-1,1.6-1.7,2.3c-1.4,1.1-2.5,2.7-3.1,4.4c-0.2-0.8-1.3-0.9-1.3-1.8c0-0.7,0.8-1.2,1.4-1.6c1.3-0.8,2.3-1.9,3.2-3.2
	c1.2-1.4,1.7-3.3,1.2-5.1C14.7,42.2,13.4,40.7,12.9,38.9z"/>
<path class="st43" d="M28.8,56.9c-1.8-1.7-3.2-3.5-4.6-5c-0.8-0.9-2-1.3-3.1-1.3c-0.9-0.1-2.6,0.1-3-0.9c-0.1-0.5,0.1-0.9,0.4-1.3
	c3.7-4.4,7.9,3.5,9.5,6.3c1.1,1.8,3.8,2.2,4.2,4.3c0.2,1.6-0.6,4.6-2,5.6c-0.9,0.7-1.6-0.9-0.4-1.5C31.8,61.9,31.1,59,28.8,56.9z"/>
<linearGradient id="SVGID_00000162324942897090021870000013075143157869008050_" gradientUnits="userSpaceOnUse" x1="-2019.9639" y1="111.5686" x2="-2024.1344" y2="81.9152" gradientTransform="matrix(-1 0 0 -1 -1975.1899 149.1)">
	<stop  offset="0.25" style="stop-color:#CDC6BA"/>
	<stop  offset="1" style="stop-color:#968E83"/>
</linearGradient>
<path style="fill:url(#SVGID_00000162324942897090021870000013075143157869008050_);" d="M40.1,50.5c6.9-4.3,17.2-6.1,19.2-15.1
	c3,7.9,0,22.1-7,28.3c-1.8,1.6-3.7,1.9-5.7,3.2c-0.3,0.2-0.6,0.4-0.8,0.6h-0.3c-1.9,0-3.6-1.1-5.5-1c-1.3,0.1-2.4,1.2-3.7,1.2
	c-1.9-0.1-3.3-0.9-2.7-2.9c0.9-3.2,0.1-6.6,1.8-9.6C36.6,53.3,38.2,51.7,40.1,50.5z"/>
<path class="st46" d="M41.4,61.6c1.4,1.7,3.9,1.2,5.7,1c2.1,0,4.3-0.4,6.3-1.1c0.5-0.2,1.1-0.5,1.6-0.8c-0.8,1.1-1.7,2.1-2.7,3.1
	c-1.8,1.6-3.7,1.9-5.7,3.2c-0.3,0.2-0.6,0.4-0.8,0.6h-0.3c-1.9,0-3.6-1.1-5.5-1c-1.3,0.1-2.4,1.2-3.7,1.2c-1.9-0.1-3.3-0.9-2.7-2.9
	c0.9-3.2,0.1-6.6,1.8-9.6c1.2-1.9,2.8-3.6,4.7-4.7c0.4-0.2,0.7-0.4,1.1-0.7c-1.8,2.2-4,4.6-3.4,7.4C38.3,59.4,40.2,60.1,41.4,61.6z"
	/>
<path class="st47" d="M39.1,66.1c-0.2,1.4-2.3,2.3-3.5,2.2c-1.5-0.1-3-0.4-4.5-0.9c-1.6-0.8,1.1-1.7,1.6-3.7
	c0.6-2.2-0.4-1.5-0.3-3.7c0.2-4.6,4.8-8.6,9-9.9c-2,1.3-3.8,2.9-5.2,4.8c-1.3,2.3-1.1,2.6-1.1,4.9c0,1.9-1.2,4.1-0.7,5.9
	C35,67.8,37.1,67.2,39.1,66.1z"/>
<path class="st8" d="M28.5,28.5l-2.6-24h-2.2c0,0,1.1,10.2,2.6,24.1C27,29.2,27.9,29.1,28.5,28.5z"/>
<radialGradient id="SVGID_00000181796487713226076210000012542568826880297857_" cx="24.99" cy="141.89" r="7.21" gradientTransform="matrix(1 0 0 -1 0 149.1)" gradientUnits="userSpaceOnUse">
	<stop  offset="0.3" style="stop-color:#FFF3ED"/>
	<stop  offset="0.75" style="stop-color:#EAC6B2"/>
	<stop  offset="0.91" style="stop-color:#DF9B80"/>
</radialGradient>
<path style="fill:url(#SVGID_00000181796487713226076210000012542568826880297857_);" d="M32.2,7.2c0,4-3.2,7.2-7.2,7.2
	c-4,0-7.2-3.2-7.2-7.2S21,0,25,0c0,0,0,0,0,0C29,0,32.2,3.2,32.2,7.2z"/>
<path class="st49" d="M25,0c-4,0-7.2,3.2-7.2,7.2s3.2,7.2,7.2,7.2c4,0,7.2-3.2,7.2-7.2c0,0,0,0,0,0C32.2,3.2,29,0,25,0z M28,11.5
	c-2.5,1.9-6.1,1.3-8-1.2c-0.1-0.1-0.2-0.2-0.2-0.3c-1.4-2.2-1.1-5.1,0.5-7.1c2.1-2.2,6.2-2.7,8.6-0.2C30.9,4.8,31,9.6,28,11.5
	L28,11.5z"/>
<path class="st50" d="M25,0c-4,0-7.2,3.2-7.2,7.2s3.2,7.2,7.2,7.2c4,0,7.2-3.2,7.2-7.2c0,0,0,0,0,0C32.2,3.2,29,0,25,0z M22.9,13.3
	c-2.5-0.5-5.1-3.5-4.5-7.6c0.8-3.6,4.4-5.9,8-5.1c0.3,0.1,0.5,0.1,0.8,0.2c4.3,1.4,4.5,6.6,3.1,9.3C28.6,13.4,25.3,13.8,22.9,13.3z"
	/>
<path class="st51" d="M25,0c-4,0-7.2,3.2-7.2,7.2s3.2,7.2,7.2,7.2c4,0,7.2-3.2,7.2-7.2c0,0,0,0,0,0C32.2,3.2,29,0,25,0z M25,14.1
	c-3.9,0-7-3.1-7-7C18,7.1,18,7,18,7c0.2-2.2,1.6-6.7,7-6.9c5.6,0.2,6.9,5.1,6.8,7.6C31.8,9.6,29.8,14.2,25,14.1z"/>
<path class="st52" d="M28.5,6.4c0,2.3-1.9,4.2-4.2,4.2c-2.3,0-4.2-1.9-4.2-4.2c0-2.3,1.9-4.2,4.2-4.2c0,0,0,0,0,0
	C26.6,2.3,28.5,4.1,28.5,6.4z"/>
<path class="st53" d="M24.3,2.3c-2.3,0-4.2,1.9-4.2,4.2c0,2.3,1.9,4.2,4.2,4.2c2.3,0,4.2-1.9,4.2-4.2c0,0,0,0,0,0
	C28.5,4.1,26.7,2.3,24.3,2.3C24.4,2.3,24.4,2.3,24.3,2.3z M27.6,4.6c0,0.2-0.4,0.3-0.5,0.4s-0.5,0.3-0.4,0.4c0.3,0,0.5-0.1,0.8-0.2
	c0.1,0,0.2-0.1,0.3,0s-0.2,0.1-0.2,0.2c0.2,0,0.5,0,0.3,0.2S27.3,5.7,27.3,6s0.3,0.1,0.4,0.2s0.6,0.1,0.6,0.3c0,0,0,0.1,0,0.1
	c-0.1,0-0.2,0-0.3,0c-0.1,0-0.6,0-0.7,0.1S27.9,6.8,28,7c0.3,0.4-0.2,0.2-0.3,0.2c0.1,0.1,0.5,0.2,0.3,0.5s-0.4,0-0.6,0
	s0.2,0.2,0.2,0.2s0.2,0.2,0,0.2C27.1,8.3,26.7,8,26.4,8c0.1,0.2,0.4,0.2,0.5,0.4c0.1,0.1,0.2,0.2,0.3,0.4c-0.2,0-0.3-0.1-0.5-0.2
	c0,0,0.1,0.2,0.2,0.3s0.2,0.2,0.1,0.3s-0.5-0.3-0.7-0.3c0,0.2,0.2,0.2,0.3,0.4c0.1,0.1,0.1,0.3,0.1,0.4c-0.3,0-0.7-0.7-0.8-0.6
	S26,9.8,25.9,10c-0.1,0-0.2-0.2-0.3-0.3c0,0.1,0,0.1,0,0.2c-0.2-0.1-0.1-0.2-0.2-0.4s-0.1,0.5-0.1,0.5s-0.2,0.3-0.3,0.3
	s-0.3-0.4-0.4-0.5c0,0.1,0,0.2-0.1,0.2c-0.2-0.2,0-0.9-0.1-1.2c-0.2,0.2-0.3,0.4-0.3,0.6c0,0.2-0.1,0.5-0.3,0.4c0,0.1,0,0.1-0.1,0.2
	c-0.1,0-0.1-0.4-0.1-0.4s0.2-0.4,0-0.4s-0.4,0.3-0.5,0.3s0-0.2-0.1-0.2s-0.3,0.2-0.5,0s0-0.4,0-0.6C22.2,8.7,22,9,21.8,9
	c0.1-0.2,0.3-0.6,0.1-0.7s-0.3,0.1-0.4-0.1s0.2-0.3,0.1-0.4s-0.2,0.2-0.3,0.2c-0.2,0.1,0-0.4,0-0.5s0.5-0.3,0.6-0.5
	c-0.3,0-0.6,0.4-0.9,0.4c0-0.1,0.2-0.2,0.2-0.4c-0.1,0-0.2,0-0.4,0c0.1-0.1,0.7-0.2,0.5-0.4s-0.5,0-0.7,0s-0.1-0.2,0.1-0.3
	s0.4,0,0.6-0.1c0-0.3-0.7,0.1-0.7-0.4c0-0.3,0.7-0.1,0.8-0.1c0-0.2-0.3-0.3-0.2-0.5c0.1,0,0.3,0.1,0.4,0s-0.6-0.6,0-0.4
	c-0.1-0.1-0.3-0.4-0.1-0.5s0.4,0.2,0.5,0.1s-0.5-1,0-0.8c0.2,0.1,0.4,0.3,0.6,0.2c0.1,0.1,0.2,0.3,0.3,0.3c0-0.3-0.4-0.5-0.3-0.7
	c0.1,0.1,0.1,0.1,0.2,0.2c0.1-0.1,0.1-0.3,0.3-0.2s0.1,0.3,0.3,0.3c0.1-0.2-0.1-0.5,0.1-0.7s0.3-0.2,0.3,0.1C24,3.1,24.1,2.8,24.2,3
	s0,0.6,0.2,0.4s0.2-1,0.7-0.8c0.1-0.1,0.2-0.1,0.3,0c0,0,0,0.1,0.1,0.1c0.1,0.2,0,0.5,0,0.8c0.2-0.1,0.3-0.6,0.5-0.6s0,0.7,0,0.8
	c0-0.1,0.4-0.2,0.4,0S26.1,3.9,26,4l0.5-0.2c0.1,0,0.3,0,0.4,0.1c0.3,0.4-0.3,0.4-0.5,0.7c0.2,0,0.3-0.1,0.5-0.1
	c0.1-0.1,0.3-0.1,0.4-0.1C27.3,4.3,27.6,4.3,27.6,4.6z"/>
<path class="st54" d="M22.6,4.7c0.1,0.1,0.2,0.2,0.4,0.3c0.1-0.2-0.1-0.6-0.2-0.8c-0.2-0.3-0.2-0.6-0.2-0.9c0,0.1,0.2,0.3,0.2,0.4
	s0.1,0.3,0.2,0.5s0.6,0.7,0.6,0.6s-0.1-0.4-0.1-0.5s0-0.4-0.1-0.6c0.2,0,0.2,0.4,0.3,0.6s0.2,0.4,0.3,0.4c0.3-0.1-0.1-0.9,0.3-1
	c0.1,0.3-0.1,0.7,0.1,1s0.2-0.4,0.2-0.4c0-0.2,0.1-0.5,0.1-0.7s0-0.6,0.3-0.7c0,0.2,0,0.4,0,0.6c-0.1,0.4-0.1,0.8-0.1,1.2
	c0,0.2,0,0.5,0.2,0.2s0.4-0.8,0.7-0.8c0.1,0.3-0.4,0.6-0.3,1c0.2-0.1,0.3-0.3,0.5-0.5c0.2-0.2,0.5-0.4,0.7-0.5
	c0,0.2-0.4,0.5-0.6,0.7s-0.5,0.3-0.4,0.6c0.5,0.1,1-0.3,1.4-0.4c-0.2,0.4-0.9,0.4-1,0.9c0.3,0,0.7,0,1-0.2c0.1,0,1-0.3,1-0.2
	S27.1,5.8,27,5.8S25.9,6,26.1,6.2s0.7,0.1,1,0.1s0.7-0.1,0.9,0.1c0,0-0.6,0.1-0.6,0.1c-0.2,0-1.1-0.1-1.3,0.2s0.5,0.5,0.7,0.6
	s1.1,0.1,1,0.3s-0.9-0.1-1-0.1c-0.2,0-0.3-0.1-0.5-0.1c-0.1,0-0.3-0.2-0.4-0.1c0,0.3,0.6,0.4,0.6,0.6c-0.2,0-0.4-0.1-0.5-0.2
	s-0.4-0.1-0.3,0.1c0.1,0.2,0.3,0.4,0.5,0.6c0.1,0.1,0.3,0.3,0.3,0.4l-0.6-0.5c-0.1-0.1-0.3-0.3-0.5-0.3c0,0.2,0.1,0.4,0.2,0.5
	c0.1,0.2,0.2,0.5-0.1,0.3S25.1,8.2,25,8.1s0,0.6,0,0.7s0,0.5,0.1,0.7c0.1,0.2,0.1,0.4,0,0.5c-0.3,0-0.3-0.5-0.4-0.7
	c-0.1-0.4-0.1-0.7-0.2-1.1c-0.4,0-0.3,1.1-0.5,1c0-0.4,0.1-0.9,0-1.3c-0.2,0-0.4,0.2-0.5,0.4s-0.2,0.5-0.3,0.5c0-0.2,0.2-0.6,0-0.8
	s-0.2,0.2-0.3,0.3S22.3,8.9,22.3,9c-0.1-0.5,0.6-1,0.7-1.6c-0.2,0.3-0.5,0.5-0.9,0.7c0.1-0.2,0.7-0.5,0.6-0.8s-0.6,0-0.8,0.1
	S21.3,7.9,21,7.8c0.3-0.3,0.6-0.5,1-0.7c0.1-0.1,0.7-0.6,0.8-0.5c-0.4,0-0.8,0-1.2,0c-0.2,0-1.2,0-1-0.1c0.4-0.1,0.9-0.1,1.3-0.1
	c0.7-0.1,1-0.2,1-0.2c-0.2-0.5-1.2-0.6-1.5-1.2c0.5,0,0.9,0.5,1.3,0.6c0.1,0-0.1-0.5-0.2-0.6c-0.1-0.2-0.3-0.3-0.4-0.5
	c-0.2-0.3-0.5-0.7-0.5-1.1c0.1,0.1,0.3,0.3,0.4,0.5c0.1,0.1,0.2,0.2,0.3,0.4C22.5,4.4,22.6,4.6,22.6,4.7z"/>
<path class="st55" d="M27.1,9.3c0,0.1-0.2,0-0.2,0.1s-0.1,0.1-0.1,0.2s-0.2,0.3-0.4,0.3c-0.1,0-0.3,0-0.4-0.1
	c-0.1,0.2-0.1,0.4-0.1,0.5C28,9.5,29,7.1,28.2,4.9s-3.3-3.2-5.4-2.4S19.6,5.8,20.4,8c0.6,1.6,2.2,2.6,3.9,2.6c0.5,0,1-0.1,1.5-0.3
	c-0.1-0.1-0.2-0.2-0.3-0.3c-0.2,0.2-0.1,0.2-0.3,0.3c0,0-0.3,0.1-0.2,0.1l-0.2-0.1c-0.4,0.1-0.5,0.2-0.8-0.2
	c-0.1,0.1-0.4,0.2-0.5,0.1c-0.2-0.1-0.1-0.3-0.2-0.5c-0.1,0.1-0.2,0.1-0.3,0.1c0-0.2,0-0.4,0-0.6c-0.1,0.1-0.2,0.5-0.4,0.4
	s-0.2-0.4-0.2-0.6c-0.3,0-0.5,0.1-0.7,0.3c0-0.1,0-0.3,0-0.4c-0.2,0-0.3-0.1-0.3-0.3c-0.1,0-0.1-0.1-0.2,0s0-0.3,0-0.4
	C21,8.2,21,8.1,20.9,8c0,0,0-0.1,0-0.2s-0.2,0-0.2-0.1s0-0.2-0.1-0.4l0,0c0-0.1,0.1-0.2,0.1-0.2c0-0.2-0.2-0.1-0.3-0.2l0,0l0,0
	c-0.1-0.2,0.1-0.1,0.1-0.3s0-0.3,0.2-0.5c-0.2-0.1-0.2-0.3-0.2-0.5s-0.1-0.4,0.3-0.4C20.3,5,21.2,5,21.2,5c0.2-0.2-0.5-0.6,0-0.6
	C21,4.1,21.3,3.9,21.6,4c0-0.2,0-0.4,0.2-0.4c0-0.1,0-0.1,0.1-0.2c0.1,0.2,0.4-0.1,0.6-0.2C22.6,3,22.8,2.9,23,2.8
	c0.1,0,0.2,0.1,0.3,0s0-0.2,0.1-0.3c0.2-0.1,0.4,0,0.6,0.1c0.1-0.1,0.2-0.1,0.4-0.2c0.1,0,0.2,0.1,0.3,0.1s0.2-0.2,0.3-0.2
	s0.2,0.1,0.3,0.1s0.3-0.1,0.6,0.2c0,0,0.1,0,0.2,0.1s0,0.1,0,0.2c0.1,0.1,0.2,0.1,0.3,0.1c-0.1,0.5,0.3,0.2,0.6,0.1
	c0,0.2-0.2,0.3-0.3,0.5c0.3,0,0.5,0.1,0.8,0.1C27.5,3.9,27.4,4,27.3,4h0.3c0,0.1,0,0.2-0.1,0.3c0.1,0,0.2,0.1,0.2,0.2
	c0.1,0,0.2,0.1,0.2,0.1c-0.1,0.1-0.1,0.1-0.2,0.2C28.2,5,28.2,5,28.2,5.3c0,0.2,0,0.4,0.1,0.6c-0.1,0.1-0.4,0-0.4,0.2
	c0.4,0.1,0.6,0.1,0.6,0.6c-0.1,0.3-0.3,0.6-0.4,0.9c0,0.1,0,0.2,0,0.3S27.9,7.9,27.9,8S27.8,8,27.8,8.1s0,0.2,0,0.3s-0.3,0-0.4,0.1
	c0,0.2,0,0.3,0,0.5C27.1,9,27.2,9.2,27.1,9.3z"/>
<path class="st56" d="M22.2,4.9c0.2-0.1,0.5,0.3,0.7,0c0-0.1-0.1-0.4,0-0.4s0.2,0.1,0.3,0.1c0-0.2,0.2-0.1,0.3-0.1S23.3,4,23.4,4
	s0.2,0.3,0.4,0.3c0-0.1,0-0.1,0-0.1C24,4.3,24,4.2,24.1,4c0.1,0.1,0.2,0.2,0.3,0.1s0.1-0.4,0.3-0.5c0.1,0.4,0,0.6,0.5,0.4
	c0,0.1,0,0.3,0.1,0.4c0,0.1,0,0.1,0.1,0.2s0.2,0,0.3,0c-0.1,0.3,0.4,0.2,0.5,0.2c0,0.1-0.1,0.3,0,0.4s0.2,0.1,0.2,0.1s0,0.1,0,0.2
	s0,0.1,0,0.2s-0.1,0.1,0,0.2s0.3,0.1,0.4,0.3c-0.1,0-0.3,0.1-0.3,0.2c0,0.1,0.1,0.1,0.2,0.2c-0.1,0-0.4,0-0.3,0.1s0.3,0.1,0.4,0.4
	c-0.1,0-0.4,0-0.5,0.2s0.2,0.3,0.3,0.4c-0.1,0-0.5-0.1-0.5,0.1c0-0.1-0.1-0.1-0.2-0.1c0,0.1,0,0.2,0,0.3c-0.3-0.1-0.2,0.4-0.2,0.5
	c-0.1-0.1-0.2-0.1-0.3-0.1c0,0.2,0,0.4-0.1,0.6c-0.2-0.1-0.2-0.3-0.3-0.4s-0.3,0-0.3,0.2c-0.1-0.3-0.3,0-0.5,0L24,8.7
	c-0.1-0.1-0.1-0.1-0.1-0.2s-0.2,0.1-0.4,0.2s-0.1,0-0.2,0c-0.1,0-0.2,0.1-0.4,0.2c-0.1-0.2,0.2-0.5,0.2-0.7S22.9,8,22.8,8.1
	c0-0.3,0-0.3-0.4-0.3c0,0,0.2-0.1,0.2-0.1c-0.2-0.4-0.8,0.4-1,0.3c0.1-0.2,0.2-0.3,0.3-0.4c0.1-0.1,0.4-0.2,0.4-0.4
	c-0.1,0-0.1,0-0.2,0c0.1,0,0.1-0.1,0.2-0.1c-0.2-0.3-0.5,0-0.8-0.1c0-0.2,0.3-0.2,0.4-0.2c0.3-0.1,0-0.1-0.1-0.2
	c0.1,0,0.3,0,0.3-0.1S22.1,6.2,22,6.2c-0.1,0-0.3,0-0.4,0C21.7,6,22,6.1,22.2,6.1s0.1-0.3,0.1-0.6l0.2,0.1
	C22.5,5.3,22.2,5.1,22.2,4.9z"/>
<path class="st57" d="M26.3,6.4c0,1.1-0.8,2-1.9,2c-1.1,0-2-0.8-2-1.9c0-1.1,0.8-2,1.9-2c0,0,0,0,0.1,0C25.4,4.5,26.3,5.4,26.3,6.4z
	"/>
<path class="st58" d="M22.4,6.4c0,1.1,0.8,2,1.9,2c1.1,0,2-0.8,2-1.9c0-1.1-0.8-2-1.9-2c0,0,0,0-0.1,0C23.3,4.5,22.4,5.4,22.4,6.4z
	 M24.5,4.6c0.1,0.1,0.1,0.3,0.3,0.1C24.7,4.9,25,4.8,25,4.8s0.3,0,0.3,0.1s0,0.3,0.1,0.4s0.2-0.1,0.3,0s0.1,0.2,0.1,0.3
	s-0.1,0.2,0,0.3S26,6,26.1,6.1S25.9,6.3,26,6.5s0.1,0.2,0.1,0.3c-0.2,0-0.1,0.3-0.1,0.5s-0.1,0.1-0.2,0.2c-0.1,0.1-0.1,0.2-0.1,0.3
	c-0.1,0-0.2,0-0.2,0.1s0,0.2-0.3,0.2s-0.3-0.1-0.5,0s-0.1,0.1-0.2,0.1s-0.1-0.1-0.2-0.1c0,0.1-0.2,0.2-0.4,0.2c0,0-0.1,0-0.1-0.1
	c0,0-0.2-0.4-0.2-0.3s-0.2,0.3-0.2,0h-0.2c0-0.1,0.1-0.3,0-0.4c-0.1,0-0.2,0.2-0.3,0.1s-0.1-0.1-0.1-0.2s-0.1-0.1-0.2-0.1
	c0.1-0.1,0.1-0.1,0.1-0.2c-0.5,0,0.1-0.5,0-0.6s-0.2-0.1-0.2-0.2s0.2-0.1,0.3-0.2c-0.3-0.1,0-0.3,0.2-0.4c0-0.1,0-0.1,0-0.2
	c-0.1-0.1-0.2-0.3,0.1-0.3c0-0.2,0.2-0.3,0.3-0.2c-0.1-0.5,0.3,0,0.3,0c0-0.1,0-0.2,0-0.3c0.1,0,0.2,0.1,0.2,0.2S24,4.8,24,4.8
	s0,0.1,0.1,0.1C24.1,4.6,24.4,4.6,24.5,4.6z"/>
<path class="st38" d="M21.5,5.8c0.1,0,0.3,0,0.4,0c0.4,0,0.7,0,1.1,0c0.3,0,0.6,0.1,0.8-0.1c0.1-0.1,0.1-0.3-0.1-0.4c0,0,0,0-0.1,0
	c-0.4-0.1-0.9-0.1-1.3,0.1C22.2,5.3,21.3,5.6,21.5,5.8L21.5,5.8z"/>
<path class="st38" d="M21.2,5.9c0.1-0.2-0.1-0.3-0.2-0.1S21.1,6.2,21.2,5.9z"/>
<linearGradient id="SVGID_00000163074529973513828950000013141837906291603842_" gradientUnits="userSpaceOnUse" x1="25.0419" y1="143.4204" x2="21.3105" y2="147.7119" gradientTransform="matrix(1 0 0 -1 0 149.1)">
	<stop  offset="0" style="stop-color:#FFFFFF"/>
	<stop  offset="1" style="stop-color:#FFF0E9"/>
</linearGradient>
<path style="opacity:0.39;fill:url(#SVGID_00000163074529973513828950000013141837906291603842_);enable-background:new    ;" d="
	M26.1,4.1c0.4-1,0.3-2-0.3-2.9c-0.8-1-2.3-0.6-3.3-0.2s-3.5,1.8-3,3.3c0.7,2.1,4.8,2.6,6.1,0.9C25.8,4.9,25.9,4.5,26.1,4.1z"/>
<g>
	<defs>
		<path id="SVGID_00000085946372910822494000000003412820273801766328_" d="M32.2,7.2c0,4-3.2,7.2-7.2,7.2c-4,0-7.2-3.2-7.2-7.2
			S21,0,25,0c0,0,0,0,0,0C29,0,32.2,3.2,32.2,7.2z"/>
	</defs>
	<clipPath id="SVGID_00000001626474895941041480000011868922635332475062_">
		<use xlink:href="#SVGID_00000085946372910822494000000003412820273801766328_"  style="overflow:visible;"/>
	</clipPath>
	<g style="clip-path:url(#SVGID_00000001626474895941041480000011868922635332475062_);">
		<g class="st61">
			<path class="st62" d="M24.1,14.8L24.1,14.8c-0.3-0.1-0.1-0.3-0.1-0.5c0-0.2,0-0.4-0.2-0.5c0-0.1-0.1-0.2-0.2-0.3
				c-0.2-0.1-0.6,0.2-0.8,0.1c0-0.1,0.2-0.1,0.3-0.1s0.4-0.1,0.4-0.2s-0.2-0.2-0.2-0.3s-0.2-0.2-0.2-0.4c0.1,0.1,0.1,0.2,0.2,0.3
				c0.1,0.1,0.2,0.2,0.2,0.3c0.1,0.1,0.1,0.2,0.2,0.3c0,0.1,0.2,0.3,0.2,0.3c0.2-0.6,0.7-1.1,0.3-1.8c-0.1-0.1-0.2-0.2-0.4-0.2
				c-0.1-0.1-0.3-0.1-0.3-0.3c-0.2-0.1-0.3-0.3-0.4-0.5c0.3,0.2,0.5,0.5,0.8,0.6s0.3,0,0.3-0.3c0-0.1,0-0.2,0-0.3s0-0.2,0.1-0.2
				c0,0.2,0,0.5-0.1,0.7c0,0.1-0.1,0.2,0,0.3s0.1,0.2,0.2,0.3c0.1,0.1,0.1,0.3,0.1,0.4c0,0.1-0.1,0.3,0,0.4s0.4,0,0.5,0
				c0.1,0,0.2-0.1,0.3-0.1c0.1,0,0.2-0.1,0.3-0.1c-0.1,0.2-0.4,0.3-0.6,0.4s-0.4,0-0.6,0.1c-0.1,0.2-0.2,0.3-0.2,0.5
				c-0.1,0.2-0.1,0.4-0.2,0.7c0,0.2,0.1,0.3,0,0.5S24.2,14.9,24.1,14.8z"/>
			<path class="st62" d="M31.1,2.3L31.1,2.3c0,0.2-0.2,0.2-0.3,0.3c-0.1,0.1-0.2,0.2-0.3,0.4c0,0.1-0.1,0.2-0.1,0.3s0.4,0.2,0.5,0.4
				c-0.1,0-0.2-0.1-0.3-0.2s-0.3-0.2-0.3-0.1s-0.1,0.2-0.1,0.3s-0.1,0.2-0.1,0.3c0-0.1,0.1-0.2,0.1-0.2c0-0.1,0-0.2,0.1-0.3
				c0-0.1,0.1-0.2,0.1-0.3s0.1-0.3,0-0.3c-0.5,0.1-1.1,0.2-1.3,0.7c0,0.1,0,0.2,0.1,0.4c0,0.1,0,0.2,0,0.4c0,0.2,0,0.3-0.1,0.5
				c0-0.3,0.1-0.6,0-0.9S29,3.6,28.8,3.8s-0.2,0.1-0.2,0.1S28.4,4,28.4,4c0.1-0.1,0.3-0.2,0.5-0.3c0.1,0,0.2-0.1,0.2-0.1
				s0-0.2,0.1-0.2c0.1-0.1,0.1-0.2,0.2-0.3c0.1,0,0.2-0.1,0.2-0.2s-0.2-0.2-0.3-0.3l-0.2-0.1c0,0-0.2-0.1-0.2-0.1
				c0.2,0,0.4,0.1,0.5,0.2c0.1,0.1,0.2,0.3,0.4,0.3c0.2,0,0.3-0.1,0.4-0.1c0.2-0.1,0.3-0.1,0.5-0.2c0.1-0.1,0.2-0.2,0.3-0.3
				S31.1,2.2,31.1,2.3z"/>
			<path class="st62" d="M17.4,5.2L17.4,5.2c0.2-0.1,0.2,0.1,0.4,0.2c0.1,0.1,0.3,0.2,0.4,0.1c0.1,0,0.2,0,0.3,0
				c0.2-0.1,0.1-0.5,0.3-0.6c0,0.1,0,0.2-0.1,0.3s-0.1,0.3,0,0.4s0.2,0,0.3,0c0.1,0,0.2,0,0.3,0c-0.1,0-0.1,0-0.2,0
				c-0.1,0-0.2,0-0.3,0c-0.1,0-0.2,0-0.3,0c-0.1,0-0.3,0-0.3,0.1c0.3,0.4,0.5,0.9,1.1,1c0.1,0,0.2-0.1,0.3-0.2
				c0.1-0.1,0.2-0.1,0.3-0.1c0.2-0.1,0.3-0.1,0.5-0.1c-0.2,0.1-0.6,0.1-0.8,0.3s-0.1,0.2,0,0.4L19.8,7c0.1,0,0.1,0.1,0.1,0.1
				c-0.2-0.1-0.3-0.2-0.4-0.4s-0.1-0.1-0.2-0.2s-0.2,0-0.2,0c-0.1,0-0.2,0-0.3-0.1c-0.1,0-0.2-0.2-0.2-0.1s-0.2,0.3-0.2,0.4
				c0,0.1,0,0.2-0.1,0.3c0,0,0,0.2,0,0.3c-0.1-0.1,0-0.4,0-0.5s0.2-0.3,0.2-0.5S18.2,6,18.1,5.9c-0.1-0.1-0.2-0.3-0.4-0.4
				c-0.1,0-0.2-0.1-0.3-0.1C17.3,5.2,17.3,5.2,17.4,5.2z"/>
			<path class="st62" d="M32.5,8.7L32.5,8.7c-0.1-0.2-0.3,0-0.4,0.1c-0.2,0-0.3,0-0.4-0.1c-0.1,0-0.2-0.1-0.2-0.1s0.1-0.5,0-0.7
				c-0.1,0.1,0,0.2-0.1,0.3s0,0.3-0.1,0.3S31,8.4,31,8.3c-0.1-0.1-0.2-0.1-0.3-0.1c0.1,0,0.1,0.1,0.2,0.1c0.1,0.1,0.2,0.1,0.3,0.2
				l0.3,0.1c0,0,0.2,0.1,0.2,0.2c-0.4,0.3-0.9,0.6-1.4,0.4c-0.1-0.1-0.2-0.2-0.2-0.3c-0.1-0.1-0.1-0.2-0.2-0.3
				c-0.2-0.1-0.3-0.2-0.4-0.3c0.2,0.2,0.5,0.3,0.6,0.6s0,0.2-0.2,0.3l-0.2,0.1c-0.1,0-0.1,0-0.2,0.1c0.2,0,0.4-0.1,0.5-0.1
				c0.1,0,0.2-0.1,0.2-0.1s0.2,0.1,0.2,0.1c0.1,0,0.2,0.1,0.3,0.1c0.1,0,0.2-0.1,0.3,0s0,0.3,0,0.4c0,0.1,0,0.2-0.1,0.3
				c0,0.1,0,0.2-0.1,0.2c0.1-0.1,0.2-0.3,0.2-0.5s0-0.4,0.1-0.5c0.1-0.1,0.2-0.2,0.4-0.2c0.2-0.1,0.3-0.2,0.5-0.2c0.1,0,0.2,0,0.4,0
				S32.6,8.8,32.5,8.7z"/>
			<path class="st62" d="M29.8,11.4c0.1,0.1,0.2,0.1,0.2,0.2s0,0.2,0,0.3c0,0.1,0.1,0.3,0.2,0.4c0.1,0.1,0.2,0.1,0.2,0.2h0.2
				c-0.3-0.2-0.5-0.4-0.6-0.8c0-0.2,0.1-0.3,0.2-0.4c0.1-0.1,0.1-0.3,0.1-0.4c0-0.2,0-0.4,0-0.6c-0.1,0.3,0,0.7-0.2,1
				s-0.2,0.2-0.4,0l-0.2-0.2c-0.1-0.1-0.1-0.1-0.2-0.1C29.4,11.1,29.6,11.3,29.8,11.4z"/>
			<path class="st62" d="M27.3,13.4c0,0.1-0.1,0.2,0.1,0.3c0.1,0.1,0.2,0.1,0.3,0.1c0.1,0,0.2,0,0.3,0c0.2,0.2-0.3,0.4-0.4,0.5
				c0.2-0.3-0.2-0.5-0.5-0.5h-0.3c-0.2,0-0.4,0-0.6-0.1c-0.1,0-0.2,0-0.3,0c-0.2,0-0.3,0.3-0.5,0.2c0.1-0.1,0.4-0.2,0.4-0.4
				s-0.1-0.4-0.1-0.5c0.2,0.2,0.1,0.5,0.4,0.6c0.2,0.1,0.5,0.1,0.8,0.1c0.4-0.1,0.3-0.6,0.2-0.9C27.1,12.6,27,12.3,27,12
				c0-0.2,0-0.5,0-0.7c-0.1-0.2-0.3-0.3-0.3-0.5c0-0.2,0-0.3,0.1-0.4c0,0.1,0,0.2,0,0.3c0,0.1,0,0.2,0.1,0.3
				c0.2,0.2,0.3,0.4,0.5,0.3c0.3-0.1,0.5-0.2,0.7-0.3c-0.1,0.2-0.3,0.3-0.5,0.4c-0.1,0.1-0.4,0-0.5,0.2c-0.1,0.1-0.1,0.3-0.1,0.5
				c0,0.2,0,0.3,0,0.5c0,0.1,0,0.3,0.1,0.4s0.3,0,0.4,0c0.2-0.1,0.5-0.3,0.7-0.5c0.2-0.1,0.3-0.4,0.3-0.6c0-0.2,0-0.3,0-0.5
				c0-0.1,0-0.3,0.1-0.4c0-0.1,0.2-0.2,0.2-0.3c0-0.1,0-0.2-0.1-0.3c0-0.1,0-0.2,0-0.3c0,0.1,0,0.2,0.1,0.3c0,0.1,0,0.2,0,0.2
				s0.2,0,0.3,0s0,0.1-0.1,0.1c-0.1,0-0.2,0.1-0.2,0.2c-0.1,0.2-0.1,0.4-0.1,0.6c0.1,0.3,0,0.7-0.2,0.9c-0.2,0.2-0.4,0.4-0.7,0.5
				c-0.1,0.1-0.2,0.2-0.4,0.2C27.3,13,27.3,13.2,27.3,13.4L27.3,13.4z"/>
			<path class="st62" d="M18.7,10.5c0.2,0,0.4,0,0.6,0c0.2-0.1,0.3-0.2,0.5-0.3c0.2-0.1,0.4-0.2,0.6-0.2c0.1,0,0.2,0,0.3,0.1
				c0.1,0.1,0.1,0.2,0.2,0.1c0-0.1-0.2-0.1-0.1-0.2s0.1-0.1,0.2-0.1c0.1-0.1,0.1-0.1,0.2-0.2c-0.1,0-0.2,0-0.3,0.1s-0.1,0.1-0.2,0.2
				c-0.1,0-0.2,0-0.3,0c-0.1,0-0.3,0-0.4,0.1c-0.1,0.1-0.3,0.2-0.4,0.2c-0.4,0.2-0.7,0-1.1-0.1c0,0-0.2-0.1-0.2,0s0,0.2,0.1,0.3
				C18.4,10.5,18.6,10.5,18.7,10.5z"/>
			<path class="st62" d="M18.2,4.5c0.2,0,0.4,0,0.6,0c0.2-0.1,0.3-0.2,0.5-0.3C19.5,4.1,19.7,4,19.8,4c0.1,0,0.2,0,0.3,0.1
				c0.1,0.1,0.1,0.2,0.2,0.1c0-0.1-0.2-0.1-0.1-0.3s0.1-0.1,0.2-0.1c0.1-0.1,0.1-0.1,0.2-0.2c-0.1,0.1-0.2,0.1-0.3,0.1
				S20.2,3.9,20.1,4s-0.2,0-0.3,0c-0.1,0-0.3,0-0.4,0.1c-0.1,0.1-0.3,0.2-0.4,0.2c-0.4,0.2-0.7,0-1.1-0.1c-0.1,0-0.2,0-0.2,0
				c-0.1,0.1,0,0.2,0.1,0.3C17.9,4.5,18.1,4.5,18.2,4.5z"/>
			<path class="st62" d="M27.6,2.6c0,0.1,0,0.2-0.1,0.4C27.5,2.9,27.7,2.8,27.6,2.6c0.1-0.1,0.1-0.2,0.2-0.3S28,2.1,28.1,2
				c0.1-0.1,0.2-0.2,0.3-0.4c0.1-0.2,0.2-0.4,0.2-0.6c0.1-0.3,0.4-0.5,0.7-0.5c0.3-0.1,0.7-0.2,1-0.2l-0.1-0.1h-0.2
				c-0.3,0.1-0.7,0.2-1,0.3s-0.6,0.6-0.7,1C28.3,1.7,28.2,2,28,2.1c-0.1,0.1-0.2,0.1-0.3,0.1c-0.1,0-0.2-0.1-0.3,0
				c0.1,0,0.3,0,0.3,0.1S27.6,2.6,27.6,2.6z"/>
			<path class="st62" d="M24.8,1.6c0,0.1,0.1,0.2,0.1,0.3C24.9,1.8,24.9,1.7,24.8,1.6c0.1-0.1,0-0.2,0-0.3c0-0.1,0.1-0.3,0.2-0.4
				c0.1-0.2,0.1-0.3,0.1-0.5c0-0.2,0-0.4-0.1-0.6c0-0.3,0.1-0.6,0.3-0.8c0.3-0.2,0.5-0.5,0.8-0.7H26l-0.1,0.1
				c-0.3,0.2-0.6,0.5-0.8,0.7c-0.2,0.3-0.3,0.8-0.2,1.2c0,0.2,0,0.5-0.1,0.7c0,0.1-0.1,0.2-0.2,0.3c-0.1,0-0.2,0-0.3,0.2
				c0.1,0,0.2-0.1,0.4,0S24.8,1.5,24.8,1.6z"/>
			<path class="st62" d="M17.9,9.4l0.2-0.1c0.1-0.1,0.3-0.2,0.4-0.3c0.1-0.1,0.3-0.1,0.4-0.2c0.2,0,0.3,0.2,0.4,0.3
				c0.2,0.1,0.4,0.2,0.6,0.2c-0.3-0.1-0.5-0.2-0.6-0.4c-0.2-0.2,0-0.4,0-0.6s0-0.2,0.2-0.2L19.7,8c-0.2,0-0.3,0-0.4,0.1
				c-0.1,0.1-0.1,0.4-0.2,0.5c-0.2,0.2-0.4,0.3-0.7,0.3C18.2,9,18,9,17.9,9C17.7,9.1,17.9,9.2,17.9,9.4z"/>
			<path class="st62" d="M20.1,1.4c0,0,0.1,0.1,0.1,0.1c0.1,0.1,0.2,0.3,0.3,0.4c0.1,0.1,0.2,0.3,0.2,0.4c0,0.2-0.2,0.3-0.3,0.4
				c-0.1,0.2-0.2,0.4-0.2,0.6c0.1-0.3,0.2-0.5,0.3-0.7c0.2-0.2,0.4-0.1,0.6,0c0.1,0,0.2,0.1,0.2,0.2l0.2,0.2c0-0.2-0.1-0.3-0.2-0.4
				c-0.2-0.1-0.4-0.1-0.5-0.2c-0.2-0.2-0.3-0.4-0.4-0.6c0-0.1-0.1-0.3-0.1-0.4C20.3,1.2,20.2,1.3,20.1,1.4z"/>
			<path class="st62" d="M20.4,12.9c-0.2,0.2-0.8-0.1-0.4-0.3c0.2-0.1,0.3-0.2,0.5-0.3c0.2-0.2,0.3-0.4,0.3-0.7c0-0.3,0-0.5,0.1-0.8
				c0.1-0.2,0.3-0.5,0.5-0.6l0.2-0.2c0,0.1-0.2,0.2-0.3,0.4c-0.1,0.1-0.2,0.3-0.3,0.4c0,0.2-0.1,0.3-0.1,0.5c0,0.2-0.1,0.3-0.1,0.5
				c0.2,0,0.3,0,0.5,0.1c-0.2,0.1-0.4,0-0.5,0.1s-0.2,0.3-0.2,0.4C20.6,12.6,20.5,12.8,20.4,12.9z"/>
			<path class="st62" d="M31.4,4.5c-0.1,0.2-0.2,0.4-0.3,0.5c-0.3,0.3-0.6,0.2-1,0.1s-0.6,0.4-0.6,0.7l-0.1,0.4c0,0.1,0,0.4,0,0.4
				c0.1-0.1,0-0.2,0.1-0.4c0-0.1,0-0.3,0.1-0.4c0-0.2,0.1-0.3,0.2-0.4c0.2-0.3,0.6-0.1,0.8-0.1c0.2,0,0.3,0,0.4-0.1
				c0.1-0.1,0.3-0.2,0.4-0.3c0.1-0.1,0.3-0.1,0.5-0.1c0.1,0,0.2,0,0.3,0c0.2,0,0.4,0.1,0.3-0.2c-0.1-0.1-0.2-0.2-0.4-0.3
				C31.8,4.2,31.5,4.3,31.4,4.5z"/>
			<path class="st62" d="M22,13.8c0.1-0.2,0.2-0.3,0.3-0.5c0.2-0.4-0.1-0.6-0.3-0.9s0-0.6,0.3-0.9l0.3-0.2c0.1,0,0.3-0.2,0.4-0.2
				s-0.2,0.2-0.3,0.2c-0.1,0.1-0.2,0.2-0.4,0.3c-0.1,0.1-0.2,0.2-0.3,0.4c-0.1,0.3,0.1,0.6,0.3,0.8c0.1,0.1,0.1,0.3,0.1,0.4
				c0,0.2-0.1,0.3-0.1,0.5c0,0.2,0,0.3,0.1,0.5c0,0.1,0.1,0.2,0.2,0.3c0.1,0.1,0.3,0.4,0,0.3c-0.2,0-0.3-0.1-0.5-0.2
				C21.9,14.3,21.9,14,22,13.8z"/>
			<path class="st62" d="M21.3,0.4c0.1,0.1,0.2,0.2,0.4,0.3s0.1,0.5,0,0.8s0.2,0.5,0.5,0.6c0.1,0,0.2,0.1,0.3,0.1
				c0.1,0,0.3,0.1,0.3,0s-0.2-0.1-0.3-0.1c-0.1,0-0.2-0.1-0.3-0.1c-0.1,0-0.2-0.1-0.3-0.2c-0.2-0.2,0-0.5,0-0.7c0-0.1,0-0.2,0-0.4
				c-0.1-0.1-0.1-0.2-0.2-0.3c0-0.1,0-0.3,0-0.4c0-0.1,0-0.2,0-0.2c0-0.1,0.1-0.3-0.1-0.2c-0.1,0.1-0.2,0.2-0.3,0.3
				C21.1,0,21.2,0.3,21.3,0.4z"/>
			<path class="st62" d="M31.5,6.6c0.1-0.2,0.3-0.1,0.5-0.1s0.7,0.1,0.7-0.2c0-0.1-0.1-0.3-0.3-0.2s-0.2,0.2-0.2,0.2
				s-0.4,0.2-0.6,0.1s-0.4-0.4-0.7-0.3s-0.3,0.2-0.5,0.3c-0.1,0.1-0.2,0.1-0.3,0.2c0,0-0.2,0-0.2,0.1s0.2,0,0.3,0
				c0.1,0,0.1,0,0.2-0.1c0.1-0.1,0.2-0.2,0.3-0.3C30.8,6,31,6,31.2,6c0.1,0,0.2,0.1,0.3,0.2c0.1,0.1-0.1,0.4-0.2,0.5
				C31.2,6.9,31.1,7,31,7.1c-0.2,0.1-0.3,0.1-0.5,0.2c-0.1,0.1-0.1,0.2-0.2,0.2c0,0-0.1,0-0.1,0c-0.1,0-0.2,0-0.3,0
				c-0.1,0-0.2,0-0.3-0.1c-0.1,0-0.2-0.1-0.2-0.1c0,0.1,0.3,0.2,0.4,0.2c0.2,0.1,0.5,0.1,0.7,0c0.1,0,0.2-0.1,0.2-0.2
				c0.1-0.1,0.1-0.1,0.2-0.2s0.3-0.1,0.4-0.2C31.3,6.9,31.4,6.7,31.5,6.6z"/>
			<path class="st62" d="M22.8,0.7c-0.2,0-0.2-0.1-0.3-0.2S22.3,0,22.1,0.2c-0.1,0.1-0.1,0.2,0,0.3c0.1,0,0.2,0,0.2,0
				s0.3,0.1,0.3,0.3s0,0.4,0.1,0.6c0.1,0.1,0.3,0.1,0.4,0.1c0.1,0,0.2,0.1,0.2,0.1c0,0,0.1,0.1,0.2,0.1s-0.1-0.1-0.2-0.1l-0.1-0.1
				c-0.1,0-0.2-0.1-0.3-0.1c-0.1,0-0.2-0.1-0.2-0.2c0-0.1,0-0.2,0-0.3c0-0.1,0.3-0.1,0.4-0.1c0.1,0,0.2,0,0.3,0.1
				c0.1,0.1,0.2,0.1,0.3,0.2c0.1,0,0.2,0,0.2,0c0,0,0.1,0,0.1,0.1c0,0,0.1,0.1,0.1,0.2c0.1,0.1,0.1,0.2,0.1,0.2c0,0.1,0,0.1,0.1,0.2
				c0.1,0,0-0.3-0.1-0.3C24.2,1.2,24.1,1,24,0.9c-0.1,0-0.1-0.1-0.2-0.1c-0.1,0-0.1,0-0.2-0.1c-0.1,0-0.2-0.1-0.3-0.1
				C23.1,0.7,23,0.7,22.8,0.7z"/>
			<path class="st62" d="M26,1.9c0,0,0.1-0.2,0.1-0.2c0-0.1,0-0.1,0-0.2c0-0.1,0-0.3,0-0.4c0-0.1,0-0.3,0.2-0.4
				c0.1-0.1,0.2-0.1,0.3-0.1c0.1,0,0.2,0.2,0.3,0.3c0,0.1,0,0.3,0,0.4c0,0.1,0,0.3,0,0.4c0,0.1,0,0.2,0,0.3c0,0,0,0.1,0,0.1
				c0,0.1-0.1,0.1-0.1,0.2c-0.1,0.1-0.1,0.1-0.2,0.2l0,0l0.1,0c0.1-0.1,0.3-0.3,0.3-0.5c0-0.1,0-0.2,0-0.3c0-0.1,0-0.2,0-0.2
				C27,1.5,27,1.4,27,1.2c0-0.2-0.1-0.3-0.2-0.4c-0.1-0.2,0.1-0.3,0.1-0.4s0.4-0.4,0.1-0.6c-0.1,0-0.2,0-0.3,0.1s0,0.2,0,0.3
				s0,0.4-0.2,0.4s-0.5,0.1-0.5,0.3c0,0.2,0,0.3,0,0.5c0,0.1,0,0.2,0,0.3C26.1,1.7,25.9,1.8,26,1.9z"/>
		</g>
	</g>
</g>
<radialGradient id="SVGID_00000094581255194288625340000017784949257068991404_" cx="22.25" cy="90.93" r="5.43" gradientTransform="matrix(1 0 0 -1 0 149.1)" gradientUnits="userSpaceOnUse">
	<stop  offset="0.3" style="stop-color:#FFF3ED"/>
	<stop  offset="0.75" style="stop-color:#EAC6B2"/>
	<stop  offset="0.91" style="stop-color:#DF9B80"/>
</radialGradient>
<path style="fill:url(#SVGID_00000094581255194288625340000017784949257068991404_);" d="M27.7,58.2c0,3-2.4,5.4-5.4,5.4
	c-3,0-5.4-2.4-5.4-5.4s2.4-5.4,5.4-5.4c0,0,0,0,0,0C25.2,52.7,27.7,55.2,27.7,58.2z"/>
<path class="st49" d="M22.2,52.7c-3,0-5.4,2.4-5.4,5.4c0,3,2.4,5.4,5.4,5.4c3,0,5.4-2.4,5.4-5.4c0,0,0,0,0,0
	C27.7,55.2,25.3,52.7,22.2,52.7C22.3,52.7,22.3,52.7,22.2,52.7z M24.5,61.4c-1.9,1.4-4.6,1-6-0.9c-0.1-0.1-0.1-0.2-0.2-0.2
	c-1.3-2-0.8-4.8,1.3-6.1c1.8-1.2,4.1-0.9,5.6,0.6C26.7,56.4,26.8,59.9,24.5,61.4z"/>
<path class="st50" d="M22.2,52.7c-3,0-5.4,2.4-5.4,5.4c0,3,2.4,5.4,5.4,5.4c3,0,5.4-2.4,5.4-5.4c0,0,0,0,0,0
	C27.7,55.2,25.3,52.7,22.2,52.7C22.3,52.7,22.3,52.7,22.2,52.7z M20.7,62.7c-2.6-0.8-4.1-3.5-3.3-6.2c0.8-2.6,3.5-4.1,6.2-3.3
	c0.1,0,0.3,0.1,0.4,0.1c3.2,1,3.4,5,2.3,7C25.2,62.4,22.9,63.4,20.7,62.7L20.7,62.7z"/>
<path class="st51" d="M22.2,52.7c-3,0-5.4,2.4-5.4,5.4c0,3,2.4,5.4,5.4,5.4c3,0,5.4-2.4,5.4-5.4c0,0,0,0,0,0
	C27.7,55.2,25.3,52.7,22.2,52.7C22.3,52.7,22.3,52.7,22.2,52.7z M22.2,63.4c-2.9,0-5.3-2.3-5.3-5.2c0-0.1,0-0.1,0-0.2
	c0-2.9,2.3-5.3,5.2-5.3c2.9,0,5.3,2.3,5.3,5.2c0,0.2,0,0.4,0,0.6C27.3,60,25.9,63.4,22.2,63.4z"/>
<path class="st52" d="M24.9,57.5c0,1.7-1.4,3.2-3.2,3.2s-3.1-1.4-3.1-3.2s1.4-3.1,3.1-3.1S24.9,55.8,24.9,57.5
	C24.9,57.5,24.9,57.5,24.9,57.5z"/>
<path class="st53" d="M21.8,54.4c-1.7,0-3.1,1.4-3.1,3.2c0,1.7,1.4,3.1,3.2,3.1c1.7,0,3.1-1.4,3.1-3.2c0,0,0,0,0,0
	C24.9,55.8,23.5,54.4,21.8,54.4z M24.3,56.1c0,0.2-0.3,0.2-0.4,0.3s-0.4,0.2-0.3,0.3c0.2,0,0.4,0,0.6-0.1c0.1,0,0.2-0.1,0.2,0
	s-0.2,0.1-0.2,0.2s0.3,0,0.2,0.2S24,57.1,24,57.2s0.2,0.1,0.3,0.1s0.5,0.1,0.5,0.3s0,0.1,0,0.1c-0.1,0-0.2,0-0.2,0
	c-0.1,0-0.5,0-0.5,0.1s0.4,0.1,0.5,0.2c0.2,0.3-0.1,0.2-0.2,0.2c0,0.1,0.4,0.2,0.2,0.4s-0.3,0-0.5,0s0.1,0.2,0.1,0.2s0.1,0.1,0,0.2
	s-0.5-0.1-0.8-0.1c0,0.1,0.3,0.2,0.4,0.3c0.1,0.1,0.2,0.2,0.2,0.3c-0.2,0-0.2-0.1-0.4-0.1s0.1,0.2,0.1,0.2s0.2,0.1,0,0.2
	s-0.4-0.2-0.5-0.3c0,0.1,0.2,0.2,0.2,0.3c0.1,0.1,0.1,0.2,0.1,0.3c-0.2,0-0.5-0.5-0.6-0.5s0.2,0.7,0.1,0.8s-0.1-0.2-0.2-0.2
	c0,0,0,0.1,0,0.1c-0.1,0-0.1-0.2-0.2-0.3s0,0.4,0,0.4s-0.2,0.2-0.2,0.2s-0.3-0.3-0.3-0.4c0,0.1,0,0.1-0.1,0.2
	c-0.2-0.2,0-0.7-0.1-0.9c-0.1,0.1-0.2,0.3-0.2,0.5c0,0.2-0.1,0.4-0.3,0.3c0,0.1,0,0.1-0.1,0.2c-0.1,0-0.1-0.3,0-0.3s0.2-0.3,0-0.3
	S21.1,60,20.9,60s0-0.2-0.1-0.2s-0.3,0.1-0.4,0s0-0.3,0-0.5c-0.2,0-0.4,0.2-0.5,0.2c0-0.1,0.2-0.5,0-0.6s-0.2,0.1-0.3-0.1
	s0.1-0.3,0.1-0.3s-0.2,0.1-0.2,0.2s0-0.3,0-0.3s0.4-0.2,0.4-0.4c-0.3,0-0.5,0.3-0.7,0.3c0-0.1,0.1-0.2,0.2-0.3c-0.1,0-0.2,0-0.3,0
	c0.1,0,0.6-0.2,0.4-0.3s-0.4,0-0.5,0s-0.1-0.1,0.1-0.2s0.3,0,0.4-0.1c0-0.2-0.6,0-0.5-0.3s0.5-0.1,0.6-0.1s-0.2-0.2-0.2-0.3
	s0.2,0.1,0.3,0s-0.4-0.4,0-0.3c0-0.1-0.2-0.3-0.1-0.4s0.3,0.1,0.4,0.1s-0.4-0.8,0-0.6c0.1,0,0.3,0.2,0.4,0.2s0.1,0.2,0.2,0.2
	c0-0.2-0.3-0.3-0.2-0.6l0.1,0.2c0.1-0.1,0.1-0.3,0.2-0.1s0.1,0.2,0.2,0.2c0.1-0.2,0-0.3,0.1-0.5s0.2-0.1,0.3,0.1
	c0.1,0,0.2-0.3,0.3-0.1s0,0.4,0.2,0.3s0.2-0.8,0.5-0.6c0-0.1,0.1-0.1,0.2,0c0,0,0,0,0,0c0.1,0.2,0,0.4,0,0.6c0.2,0,0.2-0.5,0.4-0.4
	s0,0.5,0,0.6c0,0,0.3-0.2,0.3,0s-0.2,0.2-0.2,0.3s0.3-0.1,0.3-0.1c0.1,0,0.2,0,0.3,0.1c0.2,0.3-0.2,0.3-0.3,0.5l0.4-0.1
	c0.1,0,0.2-0.1,0.3-0.1C24,56,24.2,56,24.3,56.1z"/>
<path class="st54" d="M20.5,56.3c0.1,0.1,0.2,0.2,0.3,0.2c0.1-0.2-0.1-0.5-0.2-0.6c-0.1-0.2-0.2-0.5-0.2-0.7c0,0,0.1,0.2,0.1,0.3
	s0.1,0.2,0.2,0.4s0.5,0.6,0.5,0.5c0-0.1,0-0.3-0.1-0.4c0-0.1,0-0.3-0.1-0.4c0.1,0,0.2,0.3,0.2,0.4s0.2,0.3,0.2,0.3
	c0.2-0.1,0-0.7,0.2-0.8c0.1,0.2-0.1,0.5,0,0.7s0.2-0.3,0.2-0.3c0-0.2,0.1-0.3,0.1-0.5c0-0.2,0-0.5,0.2-0.5c0,0.1,0,0.3,0,0.4
	c0,0.3-0.1,0.6-0.1,0.9s0,0.3,0.2,0.2s0.3-0.6,0.5-0.6c0,0.2-0.3,0.5-0.2,0.8c0,0,0.3-0.3,0.4-0.3c0.2-0.2,0.3-0.3,0.5-0.4
	c0,0.2-0.3,0.4-0.4,0.5s-0.4,0.3-0.3,0.5c0.4,0.1,0.7-0.2,1-0.3c-0.2,0.3-0.7,0.3-0.8,0.7c0.3,0,0.5,0,0.8-0.1
	c0.1,0,0.8-0.2,0.8-0.2s-0.7,0.3-0.8,0.3s-0.8,0.1-0.6,0.3s0.5,0.1,0.7,0s0.5-0.1,0.7,0.1c0,0-0.4,0.1-0.5,0.1s-0.8,0-1,0.2
	s0.4,0.4,0.5,0.4s0.8,0.1,0.8,0.2s-0.7,0-0.8-0.1c-0.1,0-0.2-0.1-0.4-0.1c-0.1,0-0.2-0.1-0.3-0.1c0,0.2,0.5,0.3,0.5,0.5
	c-0.2,0-0.3-0.1-0.4-0.2c-0.1-0.1-0.3-0.1-0.2,0.1c0.1,0.2,0.2,0.3,0.3,0.4c0.1,0.1,0.2,0.2,0.2,0.3s-0.4-0.3-0.5-0.4
	s-0.2-0.2-0.4-0.2c0,0.1,0,0.3,0.1,0.4c0,0.1,0.1,0.4-0.1,0.2s-0.2-0.4-0.3-0.5s0,0.4,0,0.5s0,0.3,0.1,0.5c0,0.1,0,0.3,0,0.4
	c-0.2,0-0.2-0.4-0.3-0.6c0-0.3-0.1-0.5-0.2-0.8c-0.3,0-0.2,0.8-0.4,0.8c0-0.3,0-0.6,0-1c-0.2,0-0.3,0.1-0.3,0.3s-0.1,0.3-0.2,0.4
	c0-0.2,0.1-0.5,0-0.6s-0.2,0.2-0.2,0.2s-0.5,0.4-0.4,0.5c-0.1-0.4,0.4-0.8,0.5-1.2c-0.2,0.2-0.4,0.4-0.7,0.5
	c0.1-0.2,0.5-0.4,0.5-0.6s-0.4,0-0.6,0.1s-0.5,0.3-0.7,0.3c0.2-0.2,0.4-0.4,0.7-0.5c0.1,0,0.5-0.4,0.6-0.4c-0.3,0-0.6,0-0.9,0
	s-0.9,0-0.8-0.1s0.8-0.1,1-0.1c0.5-0.1,0.8-0.1,0.8-0.1c-0.2-0.4-0.9-0.4-1.1-0.9c0.3,0,0.7,0.4,1,0.5c0.1,0-0.1-0.4-0.1-0.4
	s-0.2-0.2-0.3-0.4s-0.4-0.5-0.4-0.8c0.1,0.1,0.2,0.2,0.3,0.3s0.2,0.2,0.3,0.3S20.4,56.2,20.5,56.3z"/>
<path class="st55" d="M23.8,59.8c0,0-0.1,0-0.2,0.1s-0.1,0.1-0.1,0.2s-0.2,0.2-0.3,0.2c-0.1,0-0.2,0-0.3-0.1
	c-0.1,0.1-0.1,0.3-0.1,0.4c1.6-0.6,2.4-2.5,1.8-4.1s-2.5-2.4-4.1-1.8s-2.4,2.5-1.8,4.1c0.5,1.2,1.6,2,2.9,2c0.4,0,0.8,0,1.1-0.2
	c-0.1-0.1-0.1-0.2-0.2-0.2c-0.1,0.2-0.1,0.2-0.2,0.2c0,0-0.2,0-0.2,0h-0.2c-0.3,0-0.4,0.2-0.6-0.1c-0.1,0.1-0.3,0.1-0.4,0
	C21,60.3,21,60.2,21,60.1c-0.1,0-0.1,0.1-0.2,0.1c0-0.1,0-0.3,0-0.4c-0.1,0.1-0.2,0.3-0.3,0.3s-0.2-0.3-0.2-0.4
	c-0.2,0-0.4,0.1-0.5,0.2c0-0.1,0-0.2,0-0.3c-0.2,0-0.2-0.1-0.2-0.2s-0.1,0-0.2,0s0-0.2,0-0.3c0-0.1-0.1-0.1-0.2-0.2c0,0,0-0.1,0-0.2
	s-0.1,0-0.1-0.1s0-0.2-0.1-0.3l0,0c0-0.1,0-0.1,0-0.2c0-0.2-0.1-0.1-0.2-0.2l0,0l0,0c-0.1-0.2,0-0.1,0.1-0.2s0-0.2,0.2-0.4
	c-0.1-0.1-0.1-0.2-0.2-0.3s-0.1-0.3,0.2-0.3c-0.4-0.2,0.3-0.2,0.3-0.2c0.2-0.2-0.4-0.5,0-0.5c-0.2-0.2,0.1-0.3,0.3-0.3
	c0-0.1,0-0.3,0.2-0.3c0,0,0-0.1,0-0.1c0.1,0.1,0.3-0.1,0.5-0.2c0.1-0.1,0.3-0.2,0.5-0.2c0.1,0,0.1,0.1,0.2,0s0-0.2,0.1-0.2
	c0.2-0.1,0.3,0,0.5,0.1c0.1-0.1,0.2-0.1,0.3-0.1c0.1,0,0.1,0.1,0.2,0.1s0.1-0.2,0.2-0.2s0.2,0.1,0.2,0.1s0.3,0,0.5,0.1
	c0,0,0.1,0,0.1,0s0,0.1,0,0.1c0.1,0.1,0.2,0.1,0.3,0.1c-0.1,0.3,0.2,0.2,0.4,0.1c0,0.2-0.2,0.2-0.2,0.3c0.2,0,0.4,0.1,0.6,0.1
	c0,0.1-0.1,0.1-0.2,0.2h0.3c0,0.1,0,0.1,0,0.2c0.1,0,0.1,0.1,0.1,0.2c0.1,0,0.1,0,0.2,0.1c-0.1,0-0.1,0.1-0.1,0.1
	c0.3,0.1,0.3,0.1,0.3,0.3c0,0.1,0,0.3,0,0.4c-0.1,0.1-0.3,0-0.3,0.2c0.3,0.1,0.5,0.1,0.4,0.5c0,0.2-0.1,0.5-0.2,0.7
	c0,0.1,0,0.1,0,0.2s-0.1,0.1-0.1,0.1s-0.1,0-0.1,0.1s0,0.2,0,0.2s-0.2,0-0.3,0.1s0,0.3,0,0.4C23.8,59.5,23.9,59.7,23.8,59.8z"/>
<path class="st56" d="M20.2,56.4c0.2,0,0.4,0.2,0.5,0c0,0,0-0.3,0-0.3s0.1,0.1,0.2,0.1c0-0.2,0.1-0.1,0.2-0.1s-0.1-0.3,0-0.4
	s0.2,0.2,0.3,0.2s0-0.1,0-0.1c0.1,0.2,0.2,0.1,0.2-0.1c0.1,0.1,0.1,0.2,0.2,0.1s0.1-0.3,0.2-0.3c0.1,0.3,0,0.4,0.4,0.3
	c0,0.1,0,0.2,0,0.3c0,0.1,0,0.1,0.1,0.1c0.1,0,0.2,0,0.2,0c-0.1,0.2,0.3,0.2,0.4,0.1s-0.1,0.2,0,0.3s0.1,0,0.2,0.1s0,0.1,0,0.1
	s0,0.1,0,0.1s-0.1,0,0,0.1s0.3,0.1,0.3,0.2c-0.1,0-0.2,0.1-0.2,0.2c0,0.1,0,0.1,0.1,0.2c-0.1,0-0.3,0-0.2,0.1s0.3,0.1,0.3,0.3
	c-0.1,0-0.3,0-0.3,0.1s0.2,0.2,0.2,0.3s-0.3-0.1-0.3,0c0,0,0,0-0.1,0c0,0.1,0,0.2,0,0.3c-0.2-0.1-0.2,0.3-0.2,0.4
	c-0.1-0.1-0.2-0.1-0.3-0.1c0,0.2,0,0.3-0.1,0.5c-0.1-0.1-0.1-0.2-0.3-0.3s-0.2,0-0.2,0.2c-0.1-0.2-0.2,0-0.3,0l-0.2-0.1
	c-0.1-0.1,0-0.1-0.1-0.2s-0.2,0.1-0.3,0.1c-0.1,0-0.1,0-0.2,0c-0.1,0-0.2,0.1-0.3,0.2c-0.1-0.1,0.2-0.4,0.2-0.5s-0.2-0.2-0.3-0.1
	c0-0.2,0-0.2-0.3-0.2l0.1-0.1c-0.1-0.3-0.6,0.3-0.7,0.2c0.1-0.1,0.2-0.2,0.3-0.3c0.1-0.1,0.3-0.2,0.3-0.3h-0.1c0,0,0.1-0.1,0.1-0.1
	c-0.1-0.2-0.4,0-0.6-0.1c0-0.2,0.2-0.1,0.3-0.2s0-0.1,0-0.2s0.2,0,0.3-0.1s-0.1-0.1-0.2-0.1c-0.1,0-0.2,0-0.3,0
	c0.1-0.1,0.3-0.1,0.5-0.1s0.1-0.3,0.1-0.4h0.2C20.3,56.7,20.1,56.5,20.2,56.4z"/>
<path class="st57" d="M23.2,57.5c0,0.8-0.7,1.5-1.5,1.5s-1.5-0.7-1.5-1.5c0-0.8,0.7-1.5,1.5-1.5c0,0,0,0,0,0
	C22.6,56.1,23.2,56.7,23.2,57.5C23.2,57.5,23.2,57.5,23.2,57.5z"/>
<path class="st58" d="M20.3,57.5c0,0.8,0.7,1.5,1.5,1.5c0.8,0,1.5-0.7,1.5-1.5c0-0.8-0.7-1.5-1.5-1.5c0,0,0,0,0,0
	C21,56.1,20.3,56.7,20.3,57.5C20.3,57.5,20.3,57.5,20.3,57.5z M21.9,56.2c0.1,0.1,0.1,0.2,0.2,0.1c-0.1,0.2,0.1,0.1,0.2,0.1
	s0.2,0,0.2,0s0,0.2,0.1,0.3s0.1-0.1,0.2,0s0.1,0.2,0.1,0.2s-0.1,0.2,0,0.3s0.1,0,0.2,0.1S23,57.4,23,57.5s0.1,0.1,0.1,0.2
	s0,0.3-0.1,0.4s-0.1,0.1-0.1,0.1c0,0.1-0.1,0.1-0.1,0.2c-0.1,0-0.2,0-0.2,0.1s0,0.2-0.2,0.2s-0.2-0.1-0.3,0s0,0.1-0.1,0.1
	s-0.1-0.1-0.2-0.1c0,0.1-0.2,0.2-0.3,0.1c0,0-0.1,0-0.1,0c0,0-0.1-0.3-0.2-0.2c0,0.1-0.2,0.2-0.2,0h-0.1c0-0.1,0-0.2,0-0.3
	s-0.1,0.1-0.2,0.1s-0.1-0.1-0.1-0.1s-0.1,0-0.2-0.1s0.1-0.1,0.1-0.2c-0.4,0,0.1-0.4,0-0.4s-0.2-0.1-0.2-0.2s0.2-0.1,0.2-0.2
	c-0.2-0.1,0-0.2,0.1-0.3s0-0.1,0-0.1s-0.1-0.2,0.1-0.2c0-0.1,0.1-0.2,0.2-0.2c0-0.4,0.2,0,0.3,0c0-0.1,0-0.2,0-0.2
	c0.1,0,0.1,0.1,0.2,0.1s0-0.1,0-0.1s0,0,0.1,0.1C21.5,56.2,21.8,56.2,21.9,56.2L21.9,56.2z"/>
<path class="st38" d="M19.6,57.1c0.1,0,0.2,0,0.3,0c0.3,0,0.5,0,0.8,0c0.2,0,0.4,0.1,0.6-0.1c0.1-0.1,0-0.2-0.1-0.3c0,0,0,0,0,0
	c-0.3-0.1-0.7-0.1-1,0.1C20.1,56.8,19.4,57,19.6,57.1L19.6,57.1z"/>
<path class="st38" d="M19.4,57.2c0-0.2-0.1-0.2-0.2-0.1S19.3,57.4,19.4,57.2z"/>
<linearGradient id="SVGID_00000083053279516235787520000003342519340841946511_" gradientUnits="userSpaceOnUse" x1="22.28" y1="92.0753" x2="19.4811" y2="95.2939" gradientTransform="matrix(1 0 0 -1 0 149.1)">
	<stop  offset="0" style="stop-color:#FFFFFF"/>
	<stop  offset="1" style="stop-color:#FFF0E9"/>
</linearGradient>
<path style="opacity:0.39;fill:url(#SVGID_00000083053279516235787520000003342519340841946511_);enable-background:new    ;" d="
	M23.1,55.8c0.3-0.7,0.2-1.5-0.2-2.2c-0.6-0.7-1.7-0.4-2.5-0.2s-2.7,1.4-2.3,2.5c0.5,1.6,3.6,2,4.6,0.7C22.8,56.4,23,56.1,23.1,55.8z
	"/>
<g>
	<defs>
		<path id="SVGID_00000176028984717607000010000015952005384521069230_" d="M27.7,58.2c0,3-2.4,5.4-5.4,5.4c-3,0-5.4-2.4-5.4-5.4
			s2.4-5.4,5.4-5.4c0,0,0,0,0,0C25.2,52.7,27.7,55.2,27.7,58.2z"/>
	</defs>
	<clipPath id="SVGID_00000116944010976991225580000017854675822696514176_">
		<use xlink:href="#SVGID_00000176028984717607000010000015952005384521069230_"  style="overflow:visible;"/>
	</clipPath>
	<g style="clip-path:url(#SVGID_00000116944010976991225580000017854675822696514176_);">
		<g class="st61">
			<path class="st62" d="M21.6,63.9L21.6,63.9c-0.2-0.1,0-0.3,0-0.4c0-0.1,0-0.3-0.1-0.4c0,0-0.1-0.2-0.2-0.2s-0.4,0.2-0.6,0.1
				c0-0.1,0.2-0.1,0.3-0.1s0.3-0.1,0.3-0.2s-0.2-0.2-0.2-0.2c-0.1-0.1-0.1-0.2-0.1-0.3c0.1,0.1,0.1,0.1,0.1,0.2
				c0.1,0.1,0.1,0.2,0.2,0.2c0,0.1,0.1,0.2,0.1,0.3c0,0,0.1,0.2,0.2,0.2c0.2-0.4,0.5-0.9,0.2-1.3c-0.1-0.1-0.2-0.1-0.3-0.2
				c-0.1,0-0.2-0.1-0.3-0.2c-0.1-0.1-0.3-0.2-0.3-0.3c0.2,0.1,0.4,0.4,0.6,0.5s0.2,0,0.3-0.2s0-0.2,0-0.2s0-0.1,0.1-0.2
				c0,0.2,0,0.3-0.1,0.5c0,0.1-0.1,0.2,0,0.2s0.1,0.1,0.1,0.2c0,0.1,0.1,0.2,0.1,0.3c0,0.1-0.1,0.2,0,0.3s0.3,0,0.4,0
				c0.1,0,0.2,0,0.3-0.1c0,0,0.2-0.1,0.2-0.1c-0.1,0.1-0.3,0.2-0.4,0.3s-0.3,0-0.5,0.1c-0.1,0.1-0.1,0.2-0.2,0.4
				c-0.1,0.2-0.1,0.3-0.1,0.5c0,0.1,0,0.2,0,0.3C21.7,64,21.7,63.9,21.6,63.9z"/>
			<path class="st62" d="M26.9,54.4L26.9,54.4c0,0-0.2,0.2-0.2,0.2c-0.1,0.1-0.2,0.2-0.2,0.3c0,0.1-0.1,0.2,0,0.2s0.3,0.2,0.4,0.3
				s-0.1-0.1-0.2-0.1s-0.2-0.2-0.2-0.1s0,0.2-0.1,0.2s0,0.2-0.1,0.2s0-0.1,0-0.2c0-0.1,0-0.2,0.1-0.3c0-0.1,0.1-0.1,0.1-0.2
				c0,0,0.1-0.2,0-0.2c-0.4,0.1-0.8,0.1-1,0.5c0,0.1,0,0.2,0,0.3c0,0.1,0,0.2,0,0.3c0,0.1,0,0.3,0,0.4c0-0.2,0.1-0.4,0-0.6
				s-0.1-0.1-0.3,0l-0.2,0.1c0,0-0.1,0.1-0.1,0.1c0.1-0.1,0.2-0.2,0.4-0.2c0,0,0.1,0,0.2-0.1s0-0.1,0.1-0.2c0-0.1,0.1-0.2,0.2-0.2
				c0,0,0.2-0.1,0.2-0.1s-0.2-0.2-0.2-0.2c-0.1,0-0.1-0.1-0.2-0.1c0,0-0.1-0.1-0.2-0.1c0.1,0,0.3,0.1,0.4,0.1c0.1,0,0.2,0.2,0.3,0.2
				c0.1,0,0.2,0,0.3-0.1c0.1,0,0.3-0.1,0.4-0.2c0.1-0.1,0.1-0.2,0.2-0.2S26.8,54.4,26.9,54.4z"/>
			<path class="st62" d="M16.5,56.6L16.5,56.6c0.1-0.1,0.2,0.1,0.3,0.2c0.1,0.1,0.2,0.1,0.3,0.1c0,0,0.2,0,0.2,0s0.1-0.3,0.2-0.4
				s0,0.2,0,0.2s-0.1,0.2,0,0.3s0.2,0,0.2,0s0.2,0,0.2,0c-0.1,0-0.1,0-0.2,0c-0.1,0-0.2,0-0.3,0c-0.1,0-0.2,0-0.2,0c0,0-0.2,0-0.2,0
				c0.2,0.3,0.4,0.7,0.8,0.7c0.1,0,0.2-0.1,0.2-0.1c0.1-0.1,0.2-0.1,0.2-0.1c0.1,0,0.3-0.1,0.4-0.1c-0.2,0.1-0.4,0.1-0.6,0.2
				s-0.1,0.2,0,0.3s0.1,0.1,0.2,0.1s0.1,0,0.1,0.1s-0.2-0.2-0.3-0.3S18,57.7,18,57.7s-0.1,0-0.2,0c-0.1,0-0.2,0-0.3-0.1
				c0,0-0.1-0.1-0.2-0.1s-0.1,0.2-0.1,0.3c0,0.1,0,0.1,0,0.2c0,0,0,0.2,0,0.2s0-0.3,0-0.4s0.1-0.2,0.1-0.4s-0.1-0.2-0.2-0.3
				c-0.1-0.1-0.2-0.2-0.3-0.3c-0.1,0-0.2-0.1-0.3-0.1S16.5,56.7,16.5,56.6z"/>
			<path class="st62" d="M27.9,59.3L27.9,59.3c-0.1-0.1-0.2,0-0.3,0c-0.1,0.1-0.2,0.1-0.3,0c0,0-0.2-0.1-0.2-0.1s0.1-0.4,0-0.5
				c0,0.1,0,0.2,0,0.2s0,0.2-0.1,0.2s-0.2-0.1-0.2-0.1c-0.1,0-0.1-0.1-0.2-0.1c0,0,0.1,0,0.2,0.1c0.1,0,0.1,0.1,0.2,0.1l0.2,0.1
				c0.1,0,0.2,0.1,0.2,0.1c-0.3,0.2-0.7,0.5-1.1,0.3c-0.1,0-0.1-0.2-0.2-0.2c-0.1-0.1-0.1-0.1-0.2-0.2c-0.1-0.1-0.2-0.2-0.3-0.2
				c0.1,0.2,0.4,0.3,0.5,0.5s0,0.2-0.2,0.2h-0.2c0,0-0.1,0-0.1,0.1c0.1,0,0.3,0,0.4-0.1c0,0,0.1-0.1,0.2-0.1s0.1,0.1,0.2,0.1
				c0.1,0,0.2,0,0.3,0c0.1,0,0.2-0.1,0.2,0s0,0.2,0,0.3c0,0.1,0,0.1,0,0.2c0,0,0,0.2-0.1,0.2s0.1-0.2,0.2-0.4s0-0.3,0-0.4
				s0.2-0.1,0.3-0.2c0.1-0.1,0.3-0.1,0.4-0.1C27.7,59.4,27.8,59.4,27.9,59.3C28,59.4,28,59.3,27.9,59.3z"/>
			<path class="st62" d="M25.9,61.3c0,0,0.2,0.1,0.2,0.2c0,0.1,0,0.1,0,0.2c0,0.1,0.1,0.2,0.1,0.3c0,0,0.1,0.1,0.2,0.2
				c0.1,0,0.1,0,0.2,0c-0.2-0.1-0.4-0.3-0.5-0.6c0-0.1,0.1-0.2,0.1-0.3c0-0.1,0.1-0.2,0.1-0.3c0-0.2,0-0.3,0-0.5
				c-0.1,0.3,0,0.5-0.2,0.8s-0.2,0.1-0.3,0l-0.2-0.2c0,0-0.1-0.1-0.2-0.1C25.6,61.1,25.7,61.3,25.9,61.3z"/>
			<path class="st62" d="M24,62.8c0,0.1,0,0.2,0,0.2c0.1,0,0.2,0.1,0.3,0.1c0.1,0,0.1,0,0.2,0c0.2,0.1-0.2,0.3-0.3,0.4
				c0.1-0.2-0.2-0.4-0.4-0.4h-0.2c-0.1,0-0.3,0-0.4-0.1c-0.1,0-0.2,0-0.2,0c-0.1,0-0.2,0.2-0.4,0.2c0.1-0.1,0.3-0.1,0.3-0.3
				s-0.1-0.3-0.1-0.4c0.1,0.1,0.1,0.4,0.3,0.4c0.2,0.1,0.4,0.1,0.6,0.1c0.3-0.1,0.2-0.5,0.2-0.7c-0.1-0.2-0.1-0.4-0.1-0.6
				c0-0.2,0-0.4,0-0.5c0-0.1-0.2-0.2-0.2-0.3c0-0.1,0-0.2,0.1-0.3c0,0.1,0,0.2,0,0.2c0,0.1,0,0.2,0.1,0.2c0.1,0.1,0.2,0.3,0.4,0.2
				c0.2,0,0.4-0.1,0.5-0.3c-0.1,0.1-0.2,0.2-0.3,0.3c-0.1,0-0.3,0-0.4,0.1c0,0.1,0,0.2,0,0.4c0,0.1,0,0.2,0,0.4c0,0.1,0,0.2,0.1,0.3
				s0.2,0,0.3,0s0.3-0.3,0.5-0.4c0.2-0.1,0.3-0.3,0.3-0.5v-0.4c0-0.1,0-0.2,0.1-0.3c0-0.1,0.1-0.2,0.1-0.2c0-0.1,0-0.1,0-0.2
				c0-0.1,0-0.1,0-0.2c0,0.1,0,0.1,0,0.2c0,0,0,0.1,0,0.2s0.1,0,0.2,0s-0.1,0.1-0.2,0.1c-0.1,0-0.1,0.1-0.2,0.1
				c-0.1,0.1-0.1,0.3-0.1,0.4c0.1,0.2,0,0.5-0.2,0.7c-0.2,0.1-0.3,0.3-0.5,0.4c-0.1,0.1-0.2,0.1-0.3,0.2C23.9,62.6,24,62.7,24,62.8
				L24,62.8z"/>
			<path class="st62" d="M17.6,60.6c0.1,0,0.3,0,0.4,0c0.1-0.1,0.2-0.1,0.4-0.2c0.1-0.1,0.3-0.1,0.4-0.1c0.1,0,0.1,0,0.2,0.1
				c0,0,0.1,0.1,0.2,0.1S19,60.3,19,60.2s0.1-0.1,0.1-0.1c0,0,0.1-0.1,0.2-0.1c-0.1,0-0.1,0-0.2,0.1S19,60.2,19,60.2
				c-0.1,0-0.2,0-0.3,0c-0.1,0-0.2,0-0.3,0.1l-0.4,0.2c-0.3,0.1-0.5,0-0.8-0.1c0,0-0.1,0-0.2,0s0,0.2,0,0.2
				C17.3,60.6,17.4,60.6,17.6,60.6z"/>
			<path class="st62" d="M17.2,56.1c0.1,0,0.3,0,0.4,0c0.1-0.1,0.2-0.1,0.4-0.2c0.1-0.1,0.3-0.1,0.4-0.1c0.1,0,0.1,0,0.2,0.1
				c0,0,0.1,0.1,0.2,0.1s-0.1-0.1-0.1-0.2s0.1-0.1,0.1-0.1c0-0.1,0.1-0.1,0.2-0.1c-0.1,0-0.1,0-0.2,0.1s-0.1,0.1-0.2,0.1
				c-0.1,0-0.2,0-0.3,0c-0.1,0-0.2,0-0.3,0.1L17.7,56c-0.3,0.1-0.5,0-0.8-0.1c0,0-0.1,0-0.2,0s0,0.2,0,0.2
				C16.9,56.1,17,56.2,17.2,56.1z"/>
			<path class="st62" d="M24.2,54.7c0,0.1,0,0.2-0.1,0.3C24.2,54.9,24.3,54.8,24.2,54.7c0.1-0.1,0.1-0.2,0.1-0.2
				c0-0.1,0.2-0.1,0.3-0.2c0.1-0.1,0.2-0.2,0.2-0.3c0.1-0.2,0.2-0.3,0.3-0.5c0.1-0.2,0.3-0.4,0.5-0.4c0.3-0.1,0.5-0.1,0.8-0.2
				l-0.1-0.1h-0.1c-0.3,0.1-0.5,0.1-0.8,0.2c-0.3,0.1-0.4,0.4-0.5,0.7c-0.1,0.2-0.2,0.3-0.3,0.5c-0.1,0.1-0.2,0.1-0.2,0.1
				c-0.1,0-0.2-0.1-0.2,0s0.2,0,0.2,0.1S24.2,54.7,24.2,54.7z"/>
			<path class="st62" d="M22.1,53.9c0,0.1,0.1,0.2,0.1,0.3C22.2,54.1,22.2,54,22.1,53.9c0-0.1,0-0.2,0-0.3c0-0.1,0.1-0.2,0.1-0.3
				c0-0.1,0-0.2,0-0.3c0-0.2,0-0.3,0-0.5c0-0.2,0.1-0.5,0.2-0.6c0.2-0.2,0.4-0.4,0.6-0.5H23c0,0-0.1,0-0.1,0.1
				c-0.2,0.2-0.4,0.4-0.6,0.6c-0.2,0.3-0.2,0.6-0.1,0.9c0,0.2,0,0.4,0,0.6c0,0.1-0.1,0.2-0.2,0.2c-0.1,0-0.2,0-0.2,0.1
				s0.2-0.1,0.3,0C22.1,53.8,22.1,53.8,22.1,53.9z"/>
			<path class="st62" d="M16.9,59.8c0,0,0.1-0.1,0.1-0.1c0.1-0.1,0.2-0.1,0.3-0.2c0.1-0.1,0.2-0.1,0.3-0.1c0.1,0,0.2,0.2,0.3,0.2
				c0.1,0.1,0.3,0.2,0.4,0.2c-0.2-0.1-0.4-0.2-0.5-0.3c-0.1-0.2,0-0.3,0-0.5s0-0.1,0.1-0.2l0.2-0.1c-0.1,0-0.2,0-0.3,0.1
				c-0.1,0.1-0.1,0.3-0.2,0.4c-0.1,0.1-0.3,0.2-0.5,0.2c-0.1,0-0.2,0-0.3,0S16.9,59.7,16.9,59.8z"/>
			<path class="st62" d="M18.6,53.8l0.1,0.1c0.1,0.1,0.2,0.2,0.2,0.3c0.1,0.1,0.2,0.2,0.2,0.3s-0.2,0.2-0.2,0.3
				c-0.1,0.1-0.1,0.3-0.1,0.4c0-0.2,0.1-0.4,0.3-0.5c0.2-0.2,0.3-0.1,0.5,0s0.1,0,0.2,0.1l0.1,0.2c0-0.1-0.1-0.2-0.1-0.3
				c-0.1-0.1-0.3,0-0.4-0.1c-0.1-0.1-0.3-0.3-0.3-0.5c0-0.1,0-0.2-0.1-0.3C18.8,53.6,18.7,53.8,18.6,53.8z"/>
			<path class="st62" d="M18.8,62.5c-0.1,0.2-0.6-0.1-0.3-0.2c0.1,0,0.2-0.1,0.3-0.2c0.1-0.1,0.2-0.3,0.2-0.5c0-0.2,0-0.4,0.1-0.6
				c0.1-0.2,0.2-0.3,0.4-0.5l0.2-0.1c0,0.1-0.2,0.2-0.2,0.3c-0.1,0.1-0.2,0.2-0.2,0.3c0,0.1,0,0.3,0,0.4s0,0.2,0,0.4
				c0.1,0,0.3,0,0.4,0.1c-0.1,0.1-0.3,0-0.4,0S19.1,62,19,62.1C19,62.2,18.9,62.4,18.8,62.5z"/>
			<path class="st62" d="M27.1,56.1c-0.1,0.1-0.1,0.3-0.2,0.4s-0.5,0.1-0.7,0.1s-0.4,0.3-0.5,0.5c0,0.1,0,0.2,0,0.3s0,0.3,0,0.3
				c0-0.1,0-0.2,0-0.3c0-0.1,0-0.2,0-0.3c0-0.1,0.1-0.2,0.1-0.3c0.2-0.2,0.4-0.1,0.6-0.1c0.1,0,0.2,0,0.3-0.1
				c0.1-0.1,0.2-0.2,0.3-0.3c0.1-0.1,0.2-0.1,0.4-0.1h0.2c0.1,0,0.3,0.1,0.2-0.1c-0.1-0.1-0.2-0.2-0.3-0.2
				C27.4,55.9,27.2,56,27.1,56.1z"/>
			<path class="st62" d="M20,63.1c0-0.1,0.2-0.2,0.2-0.4c0.1-0.3-0.1-0.5-0.2-0.7s0-0.5,0.2-0.7l0.2-0.2c0.1,0,0.2-0.2,0.3-0.1
				c-0.1,0.1-0.1,0.1-0.2,0.2l-0.3,0.2c-0.1,0.1-0.2,0.2-0.2,0.3c-0.1,0.2,0.1,0.4,0.2,0.6c0.1,0.1,0.1,0.2,0.1,0.3
				c0,0.1-0.1,0.3-0.1,0.4c0,0.1,0,0.3,0.1,0.4c0,0.1,0.1,0.1,0.1,0.2c0.1,0.1,0.2,0.3,0,0.2c-0.1,0-0.3-0.1-0.4-0.2
				C19.9,63.5,19.9,63.3,20,63.1z"/>
			<path class="st62" d="M19.5,53.1c0.1,0.1,0.2,0.1,0.3,0.2s0,0.4,0,0.6s0.2,0.4,0.4,0.4l0.2,0.1c0,0,0.2,0.1,0.2,0s-0.2,0-0.2-0.1
				c-0.1,0-0.2,0-0.3-0.1c-0.1,0-0.2-0.1-0.2-0.1c-0.1-0.1,0-0.3,0-0.5c0-0.1,0-0.2,0-0.3c0-0.1-0.1-0.2-0.2-0.3c0-0.1,0-0.2,0-0.3
				c0-0.1,0-0.1,0-0.2c0-0.1,0.1-0.2-0.1-0.2c-0.1,0-0.2,0.1-0.2,0.2C19.4,52.8,19.4,52.9,19.5,53.1z"/>
			<path class="st62" d="M27.2,57.7c0.1-0.1,0.2-0.1,0.4-0.1s0.6,0.1,0.5-0.2c0-0.1-0.1-0.2-0.2-0.2s-0.1,0.1-0.2,0.2
				s-0.3,0.2-0.4,0.1s-0.3-0.3-0.5-0.2s-0.3,0.2-0.4,0.3c-0.1,0.1-0.1,0.1-0.2,0.1c0,0-0.2,0-0.2,0.1s0.2,0,0.2,0l0.2-0.1
				c0.1-0.1,0.2-0.2,0.3-0.2c0.1-0.1,0.2-0.1,0.3-0.1c0.1,0,0.2,0.1,0.2,0.2c0,0.1-0.1,0.3-0.1,0.4c-0.1,0.1-0.1,0.2-0.3,0.2
				c-0.1,0-0.2,0.1-0.3,0.2c-0.1,0-0.1,0.1-0.2,0.2h-0.1h-0.2c-0.1,0-0.2,0-0.3-0.1c-0.1,0-0.1,0-0.2-0.1c0,0.1,0.2,0.1,0.3,0.1
				c0.2,0,0.3,0,0.5,0c0.1,0,0.1-0.1,0.2-0.1c0-0.1,0.1-0.1,0.2-0.1c0.1,0,0.2-0.1,0.3-0.1C27,57.9,27.1,57.8,27.2,57.7z"/>
			<path class="st62" d="M20.6,53.3c-0.1,0-0.2-0.1-0.2-0.2s-0.2-0.4-0.3-0.2s-0.1,0.2,0,0.2s0.1,0,0.2,0s0.2,0.1,0.2,0.2
				s0,0.3,0.1,0.4c0.1,0.1,0.2,0.1,0.3,0.1c0.1,0,0.1,0,0.2,0.1c0,0,0.1,0.1,0.1,0.1s-0.1-0.1-0.1-0.1H21c-0.1,0-0.2,0-0.2,0
				c-0.1,0-0.2-0.1-0.2-0.2c0-0.1,0-0.1,0-0.2c0-0.1,0.2-0.1,0.3-0.1c0.1,0,0.2,0,0.3,0c0.1,0.1,0.2,0.1,0.3,0.1c0.1,0,0.1,0,0.2,0
				c0,0,0,0,0.1,0l0.1,0.1c0,0.1,0.1,0.1,0.1,0.2c0,0,0,0.1,0,0.1c0.1,0,0-0.2,0-0.2c-0.1-0.1-0.1-0.2-0.2-0.3c-0.1,0-0.1,0-0.2,0
				c0,0-0.1,0-0.2,0L21,53.3C20.9,53.3,20.7,53.3,20.6,53.3z"/>
			<path class="st62" d="M23,54.1c0,0,0.1-0.1,0.1-0.2c0,0,0-0.1,0-0.1c0-0.1,0-0.2,0-0.3c0-0.1,0-0.2,0.1-0.3
				c0.1-0.1,0.1-0.1,0.2-0.1c0.1,0,0.2,0.2,0.2,0.3c0,0.1,0,0.2,0,0.3c0,0.1,0,0.2,0,0.3c0,0.1,0,0.1,0,0.2c0,0,0,0.1,0,0.1
				c0,0.1-0.1,0.1-0.1,0.2c0,0.1-0.1,0.1-0.2,0.1l0,0l0,0c0.1-0.1,0.2-0.2,0.2-0.4c0-0.1,0-0.1,0-0.2c0-0.1,0-0.1,0-0.2
				c0-0.1,0-0.2,0-0.3c0-0.1-0.1-0.2-0.1-0.3c-0.1-0.1,0-0.2,0.1-0.3s0.3-0.3,0.1-0.5s-0.2,0-0.2,0.1s0,0.1,0,0.2s0,0.3-0.2,0.3
				s-0.3,0.1-0.4,0.2c0,0.1,0,0.3,0,0.4c0,0.1,0,0.1,0,0.2C22.9,54,23,54.1,23,54.1z"/>
		</g>
	</g>
</g>
</svg>
