<?xml version="1.0" encoding="utf-8"?>
<!-- Generator: Adobe Illustrator 26.0.0, SVG Export Plug-In . SVG Version: 6.00 Build 0)  -->
<svg version="1.1" id="Layer_1" xmlns="http://www.w3.org/2000/svg" xmlns:xlink="http://www.w3.org/1999/xlink" x="0px" y="0px"
	 viewBox="0 0 93.3 80.7" style="enable-background:new 0 0 93.3 80.7;" xml:space="preserve">
<style type="text/css">
	.st0{fill:url(#SVGID_1_);}
	.st1{opacity:0.46;fill:#F47208;enable-background:new    ;}
	.st2{opacity:0.47;fill:#DD6605;enable-background:new    ;}
	.st3{opacity:0.68;fill:#C96B05;enable-background:new    ;}
	.st4{opacity:0.68;fill:#BC5B04;enable-background:new    ;}
	.st5{opacity:0.68;fill:#7F3401;enable-background:new    ;}
	.st6{opacity:0.75;fill:#C96B05;enable-background:new    ;}
	.st7{opacity:0.44;fill:url(#SVGID_00000129186291230973447600000000391432131133059478_);enable-background:new    ;}
	.st8{opacity:0.52;fill:url(#SVGID_00000053536984260429153750000018438492898807658119_);enable-background:new    ;}
	.st9{opacity:0.33;fill:url(#SVGID_00000022561066386649961410000006992209164857810077_);enable-background:new    ;}
	.st10{opacity:0.26;fill:url(#SVGID_00000109031116631857798110000005500108431651318927_);enable-background:new    ;}
	.st11{opacity:0.24;fill:#FFED80;enable-background:new    ;}
	.st12{fill:#7F6700;}
	.st13{fill:#6D5803;}
	.st14{fill:#A08410;}
	.st15{fill:#594903;}
	.st16{opacity:0.42;fill:#DDC250;enable-background:new    ;}
	.st17{opacity:0.42;fill:#CECB4A;enable-background:new    ;}
	.st18{fill:#FFED80;}
	.st19{opacity:0.42;fill:#F2C86B;enable-background:new    ;}
	.st20{opacity:0.41;fill:#EFBA25;enable-background:new    ;}
	.st21{fill:none;}
	.st22{fill:url(#SVGID_00000105407283760082622030000017106124107669948347_);}
	.st23{opacity:0.36;fill:#C96B05;enable-background:new    ;}
	.st24{fill:#F5DA88;}
	.st25{fill:#DABF68;}
	.st26{fill:#F3DFA4;}
	.st27{fill:#FFF1B6;}
	.st28{fill:#DDCD87;}
	.st29{fill:#FCF6DB;}
</style>
<radialGradient id="SVGID_1_" cx="46.6413" cy="-4352.0376" r="47.5689" fx="20.4603" fy="-4364.7886" gradientTransform="matrix(1 0 0 -0.66 0 -2818.082)" gradientUnits="userSpaceOnUse">
	<stop  offset="0" style="stop-color:#FFB533"/>
	<stop  offset="0.25" style="stop-color:#FFAF2D"/>
	<stop  offset="0.58" style="stop-color:#FF9F1E"/>
	<stop  offset="0.95" style="stop-color:#FF8304"/>
	<stop  offset="1" style="stop-color:#FF7F00"/>
</radialGradient>
<path class="st0" d="M92.4,50.1c-2-6-6.4-11.7-10.9-16c-4.9-4.8-9.4-9.6-15.9-12.1c-6.8-2.5-12.4,2.4-18.4,0.3
	c-2.7-0.9-4.1-3.1-7.2-3.3s-5.6,2-8.5,2.8c-6.4,1.8-10.4-1.3-16.2,3c-5.3,3.9-9.1,8.1-11.8,14.3c-4.4,10-6.8,27.7,6.1,32.7
	c1.1,0.4,2.2,0.6,3.4,0.6c0-0.1,0.1-0.1,0.2-0.1c6.8-4,14.7-6.2,22.5-7.7c0.9-0.2,1.8-0.3,2.7-0.4c0.1,0,0.1-0.1,0.2-0.1
	c1.7-0.3,4.1-1,5.8-0.1c1.3,0.8,2.3,2,2.8,3.4c1,1.1,1.9,2.3,2.6,3.6c0.3,0.3,0.6,0.7,0.9,1.1c1.1,1.2,1.9,2.5,2.6,4
	c0.2,0.3,0.3,0.5,0.4,0.8c0.1,0.3,0.2,0.7,0.3,1l0,0c0.2,0.1,0.3,0.2,0.5,0.3c1.4,0.5,2.7,1.2,4.2,1.7l0.8,0.3
	c1.3,0.3,2.5,0.4,3.8,0.4c5.9,0,14-2.1,18.4-6.4c2.1-2.1,2.6-5.1,4.5-7.2C90.8,62.1,95.1,58.1,92.4,50.1z"/>
<path class="st1" d="M12.9,72.6c0-0.1,0.1-0.1,0.2-0.1c4.2-2.4,8.7-4.2,13.3-5.5c-0.3-1-0.5-1.9-0.8-2.7c-0.6-1.8-2.2-1.3-3.2-2.7
	c-1.2-1.7,0-3.7,0-5.4c0-2.2-0.4-3.1,0.5-5.2c0.8-1.8,0.3-3.7,0.7-5.6c0.4-1.6,2.3-3,1.3-4.6c-1,2.1-1.2,4.3-2.2,6.2
	c-0.7,1.2-1.1,1.5-1.3,2.8c-0.1,1.1-0.4,2.2-0.6,3.2c-0.6,2.3-1.1,2.9-3,4.3c-1.5,1.2-2.7,2.9-4.2,4.2c-1.2,1-2.4,3.2-4.1,3.2
	c-1.9,0.1-4.6-2.6-5.6-4.1c-1.7-2.5-1-6.3-2.1-9c-0.4-1-0.9-1.8-1.2-2.8c-1.7,9.3-0.3,19.7,9.3,23.2C10.9,72.4,11.9,72.5,12.9,72.6z
	"/>
<path class="st1" d="M92.4,50.1c-0.4-1.1-0.8-2.1-1.2-3.1c-0.1,0.4-0.2,1-0.4,1.6c-1.4,4-2.7,3.7-6.2,2.3c-1.9-0.8-2.9-2.1-4-3.9
	c-1.7-2.6-4.3-2.9-6.3-5s-1.9-5.2-3.7-7.3s-4.7-3.5-6.2-6.1c-0.3-0.5-0.4-1.1-0.7-1.6c-0.4-0.6-1.1-0.8-1.5-1.3
	c-1.1-1.3-0.5-2.1-0.2-3.5c-2.8,0-5.2,1.7-7.2,3.2c-1.6,1.2-6.2,3.5-5.1,6.2c2,0,3.1-1.2,5.4-0.5c1.7,0.5,2.9,2,4.4,2.7
	c2.1,0.9,2.5,1.5,3.9,3.4c0.9,1.3,2.3,2,3.1,3.4c0.7,1.2,1.2,2.6,1.8,3.8s0.3,2.5,0.8,3.9c0.3,1.1,1.4,2,1.8,3
	c0.6,1.3,1.1,2.6,1.5,4c1,2.6,1.1,5.4,0.2,8c-0.6,1.6-0.1,2.8-0.5,4.3c-1.6,5.9-7.3,5-11.9,4.3c-3.3-0.4-2.9-3.9-3.6-6.6
	c-0.3-1.3-1-2.6-2-3.5c-1.2-1.1-2.2-1.7-2.5-3.4c-0.2-1.5,0.5-3,0-4.6c-0.5-1.8-1.9-3-2.2-4.9c-0.3-2.7-0.4-5.5-0.7-8.2
	c-0.1-0.8-0.4-1.6-0.7-2.3c-0.5-1.7-0.7-3.5-0.5-5.2c0.3-1.6,0.7-3.2,1.2-4.7c-0.9,0.2-1.7,0.8-2.7,1c-0.6,0.1-2.7,0-3,0.5
	c-0.8,1.3,1.5,2.8,2.1,3.8c1,1.6,0.7,3.2,0.8,5.1s-0.2,3.8,0.2,5.5c0.4,1.5,1.2,1.9,0.7,3.6c-0.7,2.8-1.1,4.4-3.1,6.7
	c-1.2,1.3-1.4,1.3-0.7,2.9c0.6,1.4,1.2,2.3,0.6,3.8c-0.2,0.6-1,1.1-1.1,1.6c-0.1,0.2-0.1,0.5,0,0.7c0.3,0.1,0.7,0.2,1,0.3
	c1.3,0.8,2.3,2,2.8,3.4c1,1.1,1.9,2.3,2.6,3.6c0.3,0.3,0.6,0.7,0.9,1.1c1.1,1.2,1.9,2.5,2.6,4c0.2,0.3,0.3,0.5,0.4,0.8
	c0.1,0.3,0.2,0.7,0.3,1l0,0c0.2,0.1,0.3,0.2,0.5,0.3c1.4,0.5,2.7,1.2,4.2,1.7l0.8,0.3c1.3,0.3,2.5,0.4,3.8,0.4
	c5.9,0,14-2.1,18.4-6.4c2.1-2.1,2.6-5.1,4.5-7.2C90.8,62.1,95.1,58.1,92.4,50.1z"/>
<path class="st2" d="M90.9,59.1c-0.8,0.6-1.5,1.4-2.2,2.1c0.2-0.2,0-0.3-0.3-0.4c-0.5-0.1-1-0.1-1.4-0.1c-0.9,0.3-1.1,1.5-2.5,1.2
	c0.2-1.2-0.8-1.3-1.8-1.3c0.4-3.2-4.1-3.3-4.8-5.6c-0.2-0.7,0.1-1.6,0-2.3s-0.5-1.1-0.7-1.6c-0.5-1.8,0.7-2.6-0.8-4
	c-1.6-1.5-1.5-1.3-1.8-3.2c-0.3-1.7-1.4-2-2.6-3.3c-1.5-1.7-3.3-3.3-4.7-5.1c-0.8-1-1.7-1.8-2.5-2.8c-0.8-0.9-1.7-1.4-2.4-2.3
	c-0.7-1-1.5-1.9-2.4-2.6c-0.6-0.4-2.5-1.4-0.7-1.8c-2.2-1.3,4.3-4,5.4-4.4c-6.4-1.8-11.8,2.6-17.5,0.6c-2.7-0.9-4.1-3.1-7.2-3.3
	s-5.6,2-8.5,2.8c-6.2,1.7-10.1-1.1-15.6,2.6c1.5-0.3,3-0.3,4.5-0.2c1.2,0.2,2.8,0.1,3.9,0.3s0.8,0.8,1.3,1.3c0.8,0.6,2.4,0.3,3,1.1
	c0.9,1.1-1,3.2-1.2,4.4c-0.1,0.8,0.3,1.5,0.2,2.3c-0.2,1.2-1,2.2-1.3,3.4c-0.1,0.6,0,1.3-0.2,1.8c-0.3,0.8-0.7,0.9-1,1.5
	c-2,3.1-2.3,7.2-3.7,10.6c-0.5,1.2-0.4,3.2-1.1,4.2c-1.1,1.4-2.2,0.8-2.8,2.9s-0.8,4.4-1.8,6.2c-0.9,1.8-1.9,1.3-3.5,1.8
	c-0.6,0.2-0.8,0.8-1.3,1c-0.9,0.4-0.7,0.2-1.8,0c-2.4-0.5-3-0.8-4.6-2.5C3.2,63.3,0.7,62,0.4,60c0.9,5.2,3.6,9.7,9.2,11.9
	c1.1,0.4,2.2,0.6,3.4,0.6c0-0.1,0.1-0.1,0.2-0.1c3.5-2,7.3-3.6,11.2-4.9c-0.4-2.2-0.8-4.3-1-6.5c-0.3-2.6-0.2-5.2,0.3-7.8
	c0.4-2.5,1.1-4.5,1.5-7.1c0.2-1.3,0-2.8,0.6-4s1.6-1.7,2.4-2.7c1.3-1.8,1.2-3.4,2.9-5c0.9-0.9,2-1.6,3.1-2.1
	c0.8-0.3,1.7-0.5,2.6-0.4c0.6,0.2,1,1,1.5,1.1c1.4,0.2,2.3-1.4,3.8-0.8c1.6,0.7,2.7,2.2,2.8,3.9c0.3,1.6,1,3.2,1,4.7
	c-0.2,1.5-0.3,3-0.2,4.5c0.2,1.7,1.4,2.8,1.7,4.5c0.2,1.3,0.3,2.6,0.6,3.9c0.3,1.3,0.2,2.6-0.2,3.8c-0.7,2.6,1,4.6,0,7.2
	c-0.1,0.3-0.3,1.4-0.5,2.8c1,1.1,1.8,2.3,2.6,3.5c0.3,0.4,0.6,0.7,0.9,1.1c1.1,1.2,1.9,2.5,2.6,4c0.2,0.3,0.3,0.5,0.4,0.8
	c0.1,0.3,0.2,0.7,0.3,1l0,0c0.2,0.1,0.3,0.2,0.5,0.3c1.4,0.5,2.7,1.2,4.2,1.7l0.8,0.3c1.3,0.3,2.5,0.4,3.8,0.4
	c5.9,0,14-2.1,18.4-6.4c2.1-2.1,2.6-5.1,4.5-7.2c3.1-3.3,5.9-6.1,6.9-9.7C92.6,58.5,91.6,58.6,90.9,59.1z M78.6,67.3
	c-0.5,0.5-1.7-0.2-2.1,0.2c-1,0.8,0,1.9,0,2.8c0,0.2,0,0.3,0,0.5c-0.2,1-0.8,1.8-1.7,2.3c-0.8,0.7-0.4,0.7-1.5,0.9
	c-0.7,0.1-1.2-0.4-1.9-0.1c-1.2,0.4-1.6,1.7-2.9,2c-0.6,0.1-1.8-0.1-2.6,0c-2,0.2-3.9-0.9-5.8-0.2c-1.6,0.6-1.9,1.3-2.9-0.7
	c-0.6-1.3-0.5-2.1-1.6-3.1c-0.4-0.3-0.9-0.4-1.3-0.8c-1-1-0.4-0.9-0.6-2c-0.3-1.8-0.8-1.4-1.9-2.7c-1.3-1.7,0.6-4.7-0.4-6.8
	c-0.5-0.8-1-1.7-1.4-2.7c-0.4-1.4,0.1-2.8-0.3-4.2c-0.3-1-1-1.7-1-2.8c0-0.8,0.7-1.4,0.8-2.2c0.1-1.1-0.8-1.6-1-2.6
	c-0.1-0.9,0-1.7,0.2-2.6c0.3-1.9-0.1-4.1,0.5-5.9c0.2-0.6,1-0.7,1.1-1.3s-0.4-1-0.4-1.5c0.1-1,0.4-1.4,1.3-2
	c-0.8-1.9,4.3-1.2,5.2-0.8c1.3,0.7,0.9,1,2.6,0.7c1.2-0.2,1.7-0.7,2.8,0s1.3,1.3,2.7,1.5c0,1.1,0.3,2.2,1,3.1
	c0.7,0.9,1.8,0.8,2.6,1.5c1,0.8,0.7,1.7,1,2.7c0.8,2.6,2.6,2.8,4,4.7c0.4,0.8,0.7,1.7,1,2.6c0.9,2.1,1.5,4.3,2.3,6.4
	c0.6,1.5,2.5,3.3,2.3,5s-1.8,2.1-1.2,3.9C77.7,64.1,79.7,66.3,78.6,67.3z"/>
<path class="st3" d="M24.7,22.5c0.9,0.2,1.7,0.5,2.5,0.9c1.6,0.7,5.8,1.2,6.3,3.1c0.3,0.9-0.4,1.8-1.3,2.6c-0.9,0.7-1.6,1.4-2.3,2.3
	c-0.9,1.7-2.4,4.5-2.5,6.4c1.8-1.8,2.7-4.3,4.8-5.8c1.1-0.8,2.3-0.8,3.4-1.6c1.3-0.9,1.3-1.1,2.9-1.2c2.9-0.2,3.5,0.6,5.5,2.8
	c1.7,2,2.8,4.3,3.4,6.8c0.1,0.8,0.4,1.6,0.8,2.4c0.6-1.7,0-4.3-0.1-6c-0.2-2-0.3-4.2,1.2-5.6s3.3-1.1,5.3-0.9c1.2,0.1,2.2-0.2,3.3,0
	s1.9,0.8,2.9,0.8c-1.2-1.5-3-2.4-4.9-2.6c-1,0-3.8,0.8-4.2-0.7c-0.3-1.1,3.1-3,4-3.3s2.5-0.8,3.9-1.3c-3.7,0.4-7.2,1.9-10.8,1.3
	c-0.3,0.3-0.7,0.7-1.1,1.1c-2,1.9-5.8,0.6-8.3,0.4c-2.6-0.3-5.2-1.1-7.5-2.3c0,0,0,0-0.1,0L31.6,22C29.3,22.5,27,22.7,24.7,22.5z"/>
<path class="st4" d="M52.5,26.9c-2.3-0.8-0.8-1.8,0.1-3.2c-0.8,1.2-2.6,0.8-3.6,1.3c-0.7,0.3-1,0.8-1.8,1c-1.8,0.2-3.7,0.2-5.5,0
	c-1.5,0-3,0.6-4.4,0.1c-0.6-0.2-1.1-0.6-1.7-0.8c-2.4-1-4.8-2-7.3-2.9c-0.4,0-0.7,0-1,0c2.8,0.8,6.6,2.6,6.8,5.1
	c0.1,1.4-2.8,3.4-3.5,4.4c-0.5,0.7-0.9,1.5-1.3,2.2c3.1-3.3,7.6-7.3,12-5.1c2.3,1.2,4.3,3,5.7,5.2c0.3-3.1,1.3-6.2,4.8-6.8
	c1-0.2,2-0.3,2.9-0.3C53.9,27.3,53.2,27.2,52.5,26.9z"/>
<path class="st5" d="M48.3,28.8c1-0.5,2-1,3-1.4l-0.2-0.1c-0.5-0.3-0.7-0.9-0.4-1.4c0,0,0-0.1,0.1-0.1c-0.1,0-0.1-0.1-0.2-0.1
	c-0.8-0.2-1.6-0.2-2.5,0c-0.3,0.2-0.5,0.3-0.8,0.3c-1.8,0.2-3.7,0.2-5.5,0c-1.5,0-3,0.6-4.4,0.1c-0.3-0.1-0.6-0.2-0.9-0.4
	c-0.7-0.1-1.4-0.2-2.1-0.2c0.8,1,0.7,2.5-0.1,3.5c-0.1,0.1-0.1,0.2-0.2,0.3c2.2-1.1,4.7-1.4,7-0.7c1.7,0.5,3.2,1.3,4.6,2.4
	C45.9,29.9,47.1,29.4,48.3,28.8z"/>
<path class="st6" d="M19.7,69.2l1-0.4c0-0.7,0-1.5,0-2c0-3,0.3-6,0.8-9c-0.8,2-1.4,4.1-1.8,6.2C19.5,65.6,19.9,67.6,19.7,69.2z"/>
<path class="st6" d="M12.9,72.6c0-0.1,0.1-0.1,0.2-0.1c0.5-0.3,1-0.5,1.5-0.8c-1.2-0.2-2.3-0.4-3.4-0.8c-1.3-0.2-2.7-0.2-4.1-0.1
	C8,71.3,9,71.7,9.9,72C10.9,72.3,11.9,72.5,12.9,72.6z"/>
<path class="st6" d="M89.1,63.5c-0.9,1.2-2.2,0.8-3.2,1.8c-0.2-0.4-0.4-0.8-0.5-1.3c-0.9,0.9-1.3,2.1-2.1,2.9
	c-0.8-0.6-0.9-1.7-1.1-2.6c-0.2-1.3-0.7-2.5-1.3-3.7c-1.2-2.1-2.3-4.3-3.3-6.6c0.9,2.8,1.6,5.6,2.1,8.4c0.2,1.5,1.4,5.3,0.2,6.4
	c-0.7-0.5-1.1-1.4-1-2.3c-0.7,3,0.1,6.8-3.4,8.3c-2.2,1-4.7,2.5-7.3,3.2c-1.6,0.4-2.2-0.4-3.6-0.5c-1.7-0.1-3.4,1.4-5.1,1.3
	c-2.2-0.1-4.6-2.7-6-4.1c-1-0.7-1.8-1.6-2.5-2.6c-0.6-1.2-0.7-2.7-1.3-3.8c-0.2,0.5-0.4,1.1-0.6,1.6c0.2,0.3,0.4,0.5,0.5,0.8
	l0.9,1.1c1.1,1.2,1.9,2.5,2.6,4c0.2,0.3,0.3,0.5,0.4,0.8c0.1,0.3,0.2,0.7,0.3,1l0,0c0.2,0.1,0.3,0.2,0.5,0.3
	c1.4,0.5,2.7,1.2,4.2,1.7l0.8,0.3c1.3,0.3,2.5,0.4,3.8,0.4c5.9,0,14-2.1,18.4-6.4c2.1-2.1,2.6-5.1,4.5-7.2c2-2,3.8-4.1,5.4-6.5
	C89.8,60.8,90,62.4,89.1,63.5z"/>
<linearGradient id="SVGID_00000091719633678905946080000013990276356111688069_" gradientUnits="userSpaceOnUse" x1="10.9246" y1="9.4294" x2="19.517" y2="-14.1771" gradientTransform="matrix(1 0 0 -1 0 39.4193)">
	<stop  offset="0" style="stop-color:#FFDC33"/>
	<stop  offset="0.58" style="stop-color:#FFC517"/>
	<stop  offset="1" style="stop-color:#FFB200"/>
</linearGradient>
<path style="opacity:0.44;fill:url(#SVGID_00000091719633678905946080000013990276356111688069_);enable-background:new    ;" d="
	M18.1,27.4c-1.8,0.4-3,1.5-4.5,3.2c-1.8,2-4,3.7-5.4,5.9c-1.4,2.4-2.6,5-3.5,7.7c-1,2.9-1.2,9.5,1.5,11.7c3.7,3,7.7-0.3,9-4
	c0.6-1.6,0.2-3.1,0.9-4.6c0.9-1.9,1.9-3.8,3-5.6c1-2.1,2.1-4,3.5-5.8c1.5-1.7,3.6-3,3.1-5.7s-2.8-2.8-5.1-2.9
	C19.8,27.2,19,27.2,18.1,27.4z"/>
<linearGradient id="SVGID_00000102509026139621566710000015812319414792044973_" gradientUnits="userSpaceOnUse" x1="27.5679" y1="-3.3623" x2="41.691" y2="-19.0546" gradientTransform="matrix(1 0 0 -1 0 39.4193)">
	<stop  offset="0" style="stop-color:#FFDC33"/>
	<stop  offset="0.58" style="stop-color:#FFC517"/>
	<stop  offset="1" style="stop-color:#FFB200"/>
</linearGradient>
<path style="opacity:0.52;fill:url(#SVGID_00000102509026139621566710000015812319414792044973_);enable-background:new    ;" d="
	M28.4,58.5c-0.1,2.6,0.3,6.7,3.9,6.9c0.1,0,0.2,0,0.3,0l1.2-0.2c2.8-1,4.8-5.2,5-7.8c0-1.3,0.1-2.7,0.3-4c0.3-1.2,1.1-2.3,1.6-3.5
	c0.9-2.3,1.8-4.8,1.4-7.4c-0.2-1.6-1.7-4.9-3.2-5.7c-3.2-1.7-6.5,1.1-7.9,3.8c-1,2-1.5,4.1-1.6,6.3c-0.1,1.1,0.1,2.4-0.1,3.5
	s-0.7,1.9-0.9,2.9C28.1,55,28.5,56.7,28.4,58.5z"/>
<linearGradient id="SVGID_00000116932999619963781320000017881849792705318585_" gradientUnits="userSpaceOnUse" x1="50.1111" y1="0.4661" x2="72.7271" y2="-24.6494" gradientTransform="matrix(1 0 0 -1 0 39.4193)">
	<stop  offset="0" style="stop-color:#FFDC33"/>
	<stop  offset="0.58" style="stop-color:#FFC517"/>
	<stop  offset="1" style="stop-color:#FFB200"/>
</linearGradient>
<path style="opacity:0.33;fill:url(#SVGID_00000116932999619963781320000017881849792705318585_);enable-background:new    ;" d="
	M56.8,57.5c0.1,0.9,0.2,1.7,0.4,2.6c1.1,4,5.1,9.5,9.8,8.5c3.9-0.9,3.3-5.4,2.3-8.2c-0.6-1.6-1.8-2.9-1.7-4.5
	c0.1-0.8,0.9-1.4,0.8-2.4c-0.3-1-0.7-1.9-1.3-2.7c-2.6-4.9-1.1-12.5-7.1-15.3c-2.3-1.1-5.9-0.9-7.2,1.5c-1.9,3.4,0.4,8,0.9,11.4
	c0.3,1.7-0.4,3,0.4,4.7c0.6,1.3,1.8,2.1,2.4,3.4C56.6,56.7,56.8,57.1,56.8,57.5z"/>
<linearGradient id="SVGID_00000016056082321652561290000003247694879834847423_" gradientUnits="userSpaceOnUse" x1="63.7588" y1="2.8439" x2="85.3045" y2="2.8439" gradientTransform="matrix(1 0 0 -1 0 39.4193)">
	<stop  offset="0" style="stop-color:#FFDC33"/>
	<stop  offset="0.58" style="stop-color:#FFC517"/>
	<stop  offset="1" style="stop-color:#FFB200"/>
</linearGradient>
<path style="opacity:0.26;fill:url(#SVGID_00000016056082321652561290000003247694879834847423_);enable-background:new    ;" d="
	M70.3,33.3c1.2,1.2,1.7,2.8,2.7,4.2c1.6,2.2,3.1,5.6,5,7.5c1.1,1.1,1.9,0.8,3.3,1.2c1.6,0.3,2.4,1.1,3.7,1.7c2.3-5-6.2-11.7-9-14.8
	c-1.5-1.6-2.7-4.3-4.3-5.6c-1.1-1-7.6-3.7-7.9-0.6C63.6,28.7,69,32.1,70.3,33.3z"/>
<path class="st11" d="M31.3,45.8c-0.1,0.8-0.1,1.5,0,2.3c0.1,1.3-0.4,8.6,0.4,8.9c2,0.7,4.3-5.2,4.9-6.4c1.7-3.5,9.5-10.7,4.2-13.9
	C34.7,32.8,31.7,41.1,31.3,45.8z"/>
<path class="st11" d="M9.3,38.8c-0.4,1.2-1.8,3.6-1.4,4.9c0.8,2.4,3.3,0.2,4.4-1.1c1.3-1.5,2.1-3.8,3.8-4.9s3.5-1.3,5.1-2.4
	c1.3-0.9,4.4-3.1,4-5.1c-0.2-1.1-1.8-1.9-2.8-2.5c-4.8-2.8-6.3,2.5-8.3,5.2C12.4,35,10.3,35.8,9.3,38.8z"/>
<path class="st11" d="M53.6,47.4c1.8,4.4,2.9,0.8,3.7-2c0.7-2.3,3.3-5.3,2.6-8s-4-3.2-6.1-1.5C51.1,38.2,52.4,44.6,53.6,47.4z"/>
<path class="st12" d="M38.9,19.4c-0.7,1.7-1.7,3.2-2.8,4.7c-0.7,0.8-1.4,2.9-0.3,3.7c0.8,0.5,2.2,0.1,3.1,0.1c0.8-0.1,1.5-0.1,2.3,0
	c0.6,0.3,1.1,0.6,1.6,0.9c1.7,0.6,3.6,0.5,5.3-0.2c0.8-0.2,1.4-0.9,1.7-1.7c0.4-1.4-0.8-2.1-1-3.4c-0.1-1.2-0.1-2.3,0.1-3.5
	c0.2-1.3,0.6-2.5,1.2-3.7c1.2-2.7,3.3-5,6-6.3c3.8-1.8,9.3-2.1,12.8,0.6c1.7,1.3,1.7,2.7,4.1,2.4c1.6-0.2,3.1-0.8,4.5-1.7
	c3.3-2.3-2.9-6.8-4.7-7.8C69.5,1.4,65.9,0.3,62.2,0c-6.1-0.3-13.5,2.5-17.4,7.2c-2.1,2.5-3,5.7-4.3,8.5C40,17,39.5,18.2,38.9,19.4z"
	/>
<path class="st13" d="M70.8,4.1c2.6,1.8,4.9,3.9,7,6.2l0,0c-0.4-2-4.8-5.6-6.5-6.6c-2.6-1.4-5.5-2.3-8.4-2.4
	c-5.3-0.2-12.6,1.2-16.3,5.3s-4.4,10.1-6.1,15.1c-0.9,2.3-2.2,4.4-3.8,6.2c0.8,0,1.5-0.1,2.3-0.2c0.8-0.1,1.5-0.1,2.3,0h0.1
	c1.3-2.3,1.9-6.2,2.5-8.3s0.1-5.3,1.1-7.2c2-3.8,5.6-7.7,9.8-9.2c4.4-1.5,9.2-1.2,13.7,0c0.7,0.2,1.4,0.4,2.1,0.8
	C70.6,3.9,70.7,4,70.8,4.1z"/>
<path class="st13" d="M72.5,9.9c-0.1-0.1-0.1-0.1-0.2-0.2c-2.1-2-1.9-4.2-5.7-4.8c-5.8-1-11.9-1.4-16.3,3.4
	c-2.3,2.2-3.6,5.3-3.8,8.5c-0.1,2.1-1.2,4.3-1.8,6.3c-0.7,2.4-0.7,4.1-1.6,5.7c1.6,0.4,3.3,0.3,4.9-0.3c0.8-0.2,1.4-0.9,1.7-1.7
	c0.4-1.4-0.8-2.1-1-3.4c-0.1-1.2-0.1-2.3,0.1-3.4c0.2-1.3,0.6-2.5,1.2-3.7c1.2-2.7,3.3-5,6-6.3c3.8-1.8,9.3-2.1,12.8,0.6
	c1.7,1.3,1.7,2.7,4.1,2.4c0.6-0.1,1.2-0.2,1.8-0.4C73.9,11.7,73.1,10.9,72.5,9.9z"/>
<path class="st14" d="M38.6,21.3c-0.5,0.9-2.6,3.4-2,4.5s1.8-2.7,2.1-3.2c0.5-0.9,1.2-1.7,1.7-2.6c0.6-1.1,0.9-2.3,1.1-3.5
	c0.3-1.2,0.8-2.3,1.2-3.4C41.4,15.9,40.1,18.7,38.6,21.3z"/>
<path class="st14" d="M46.1,13c-0.6,1.4-1,2.8-1.4,4.3c-0.3,1.9-0.6,3.9-0.9,5.8c-0.4,1.7-1.1,3-1.1,4.8c0.5-1,0.8-2.1,1.2-3.1
	c1-2.6,1.1-5.2,1.6-7.9c0.2-1.5,0.7-3,1.4-4.4c0.4-0.7,0.5-1.5,0.9-2.1s0.9-1,1.3-1.6c0.7-1.1,1.6-2,2.7-2.7c5-3,12.7-3.8,18-0.8
	c1.4,0.8,2.4,2.2,3.6,3.3c0.8,0.8,1.5,2.1,2.3,2.8c-0.1-1-0.3-1.9-0.8-2.8c-0.5-0.9-1.2-1.7-2.1-2.2c-1.3-0.8-2.5-2-3.8-2.7
	c-1.6-0.8-3.3-1.3-5-1.3c-4.5-0.2-9,1.1-12.7,3.7c-0.6,0.4-1.2,0.7-1.7,1.2c-0.9,0.7-1.7,1.5-2.3,2.5C46.7,10.8,46.3,11.9,46.1,13z"
	/>
<path class="st15" d="M52.7,2.7c-0.8,0.3-1.6,0.7-2.3,1.1c-1.4,0.8-2.7,1.9-3.7,3.2c-1.9,2.7-3.3,5.7-4,8.9c-0.4,1.5-0.7,3-1.1,4.5
	c-0.4,1.3-0.9,2.7-1.5,3.9c-0.3,0.7-1.7,2.2-2.1,3.4c0.4-0.1,0.7-0.1,1-0.1c0.6,0,1.2,0,1.7,0c0.3-0.8,0.6-1.6,0.8-2.5
	c0.6-1.4,1-2.8,1.3-4.3c0.4-3,0.9-6,1.6-9c0.6-2.3,2.5-4,4-5.6c1.9-2,4.3-3.1,6.8-4.2C54.4,2.4,53.5,2.4,52.7,2.7z"/>
<path class="st15" d="M72.3,10.5c0.6,0.7,1,1.5,1.5,2.2c0.1,0,0.3,0,0.4,0c-0.1-0.2-0.3-0.4-0.4-0.6c-0.5-0.7-0.6-1.4-1-2.1
	c-0.9-1.2-2-2.1-3.4-2.7c-2.7-1.4-5.7-2.2-8.8-2.3c-4.5,0-8.7,2.1-11.3,5.8c-0.6,0.7-1.1,1.6-1.5,2.4c-0.3,0.8-0.3,1.7-0.5,2.6
	c-0.6,2.1-1,4.3-1.3,6.4c-0.3,1.3-0.6,2.7-1,4c-0.3,0.9-0.6,1.9-0.8,2.8c0.4,0,0.7,0.1,1.1,0.1c0.2-0.8,0.2-1.6,0.2-2
	c0.2-1.4,0.6-2.8,1-4.2c0.7-2.8,0.8-5.9,2.3-8.6c0.9-1.7,2.1-3.2,3.1-4.8c0.6-1.4,1.8-2.4,3.3-2.7c0.4-0.1,0.7-0.2,1.1-0.3
	c1.2-0.2,2.4-0.3,3.6-0.5C63,5.7,66.2,6,68.9,7.8C70.2,8.6,71.3,9.5,72.3,10.5z"/>
<path class="st15" d="M72.5,13c-0.2-0.3-0.5-0.6-0.7-0.9c-0.7-0.9-1.5-1.8-2.4-2.5c-1.2-0.9-2.8-1-4.2-1.3c-3.1-0.9-6.4-0.9-9.5-0.1
	c-1.4,0.4-2.6,1.2-3.5,2.3c-0.7,1.2-1.5,2.4-2.3,3.7c-1,1.5-1,2.7-1.3,4.4s-0.7,3.1-1,4.6c-0.3,1.5-0.5,3-0.6,4.6c0,0.4,0,0.9,0,1.3
	c0.4-0.1,0.8-0.2,1.2-0.4c0.8-0.2,1.4-0.9,1.7-1.7c0.4-1.4-0.8-2.1-1-3.4c-0.1-1.2-0.1-2.3,0.1-3.5c0.2-1.3,0.6-2.5,1.2-3.7
	c1.2-2.7,3.3-5,6-6.3c3.8-1.8,9.3-2.1,12.8,0.6C70.4,11.7,70.5,13.1,72.5,13z"/>
<path class="st16" d="M48.7,4.5l-0.5,0.3c-2.6,1.9-4,4.7-5.3,7.6c-0.7,1.5-1.1,3-1.8,4.5s-1.8,2.9-2.4,4.5c-0.3,0.8-1.2,3.1,0.3,1.4
	S41,19,42,17.2c1.4-2.5,2.7-5,4-7.5c0.5-1.3,1.3-2.6,2.3-3.6c2.3-2,6-2.7,8.8-3.7c3.6-1.2,7.4-1,10.8,0.6c1.5,0.7,3.4,1.6,4.2,3.1
	c0.4,0.7,1.4,3.9,2.7,3.3c-0.1-1.4-0.6-2.7-1.5-3.7c-1-0.9-2.1-1.8-3.2-2.6c-1.1-0.7-2.4-1.3-3.7-1.7c-3.8-1.3-8-1.2-11.8,0.2
	C52.8,2.4,50.7,3.3,48.7,4.5z"/>
<path class="st17" d="M42.9,12.5c-0.8,1.4-1.6,2.9-2.2,4.4c-0.2,0.5-1.2,2.7-0.7,3s0.9-0.9,1.1-1.2c0.6-1,1.2-2,1.7-3
	c0.4-1,0.5-2.3,1.2-3.1c0.4-0.5,0.9-0.8,1.3-1.4s0.6-1.1,1.2-1.1c0,1-0.9,2-1,3c-0.2,1-0.4,2.1-0.4,3.2c0.7-0.9,1.1-2.1,1.3-3.2
	c0.6-2.5,2.2-4.7,4.3-6.1c1.4-1,3-1.8,4.6-2.5c1.5-0.7,3.1-1.6,4.8-1.5s3.5,0.8,5.3,0.6c-0.1-1-5.5-1.4-6.5-1.3
	c1.2-1,3.9-0.3,5.3-0.1c1.4,0.2,4,1.8,5.1,0.7c-1.7-1.3-3.8-1.6-5.9-1.7c-2.4-0.1-4.8,0.2-7.1,0.8c-1.8,0.4-3.7,1-5.4,1.7
	c-1.4,0.7-2.7,1.6-3.9,2.7C44.8,8,44.2,10.2,42.9,12.5z"/>
<path class="st4" d="M19.2,69.5c0.5-0.2,1-0.4,1.5-0.6c-0.5-3.5-0.3-7.1,0.6-10.5c-0.6,0.8-1,1.7-1.2,2.6c-0.2,1.1-0.7,2.2-1,3.2
	c-0.3,1.1,0.5,1.8,0.5,2.8C19.5,67.9,19.4,68.7,19.2,69.5z"/>
<path class="st4" d="M49.6,71.1l0.9,1.1l0.1,0.2c-0.3-1.5-0.4-3-0.3-4.5c0.1-2.6-0.5-5-0.5-7.6c-1,2.5-0.3,5.8-0.7,8.8
	c0,0.4,0,0.9,0,1.3C49.3,70.6,49.5,70.8,49.6,71.1z"/>
<path class="st4" d="M81.5,74.3c1.9-1.8,2.4-4.4,3.9-6.3c-0.2,0-0.4,0-0.6,0c-1.9-0.3-1.8-3.3-2.5-4.7C81.6,62,80.8,60.4,80,59
	c0.6,1.8,1,3.6,1.3,5.5c0.4,2,0.5,4,0.3,6.1c-0.2,1.4-0.4,0.8-1.4,1.5c-1.7,1.2-0.6,2.6-1.8,3.8c-0.5,0.6-2.6,1.3-3.2,2.3
	C77.6,77.3,79.7,76,81.5,74.3z"/>
<path class="st18" d="M43.7,30.3c-2-0.8-4.2,0.9-6,0.1c-0.8-0.5-1.6-1.2-2.3-1.9c-1.4-1.3-3-2.7-5-3c-1.4-0.2-3.7,0.6-5,1.1
	c-1.8,0.9-3.5,2-4.9,3.3c-2.5,2-4.1,6-5.4,8.9c-2,4.2-3.3,8.7-4,13.2c-0.5,3.3-1.3,19.3,1.9,20.5c1.1,0.4,5.3,1.6,14.8-1.9
	c2.7-1,12.6-5.2,15.3-6.1c0,0,4.2,7.9,9.7,12.7c4.4,3.8,4.3-2.6,4.4-6.5c0.2-7.7-0.7-15.5-2.4-23C54,45,50.1,32.9,43.7,30.3z"/>
<path class="st19" d="M48.2,69.3c-0.7-1.1-1.2-2.2-1.5-2.8c-1.3-2.4-2.8-5.2-6-4.3c-1.3,0.4-2.6,0.9-3.9,1.6c-3.1,1.7-6.4,3-9.9,4
	c-4.6,1.1-11.6,2-13.9-3.4c-1.9-4.6-1-10.4,0.1-15.1c1.6-6.9,4.2-15.1,8.9-20.7c-0.6,0.4-1.2,0.9-1.7,1.3c-2.5,2-4.1,6-5.4,8.9
	c-2,4.2-3.3,8.7-4,13.2c-0.5,3.3-1.3,19.3,1.9,20.5c1.1,0.4,5.3,1.6,14.8-1.9c2.7-1,12.6-5.2,15.3-6.1c0,0,4.2,7.9,9.7,12.7
	c2.7,2.3,3.7,0.9,4.1-1.5C52.8,75.6,49.4,73,48.2,69.3z"/>
<path class="st19" d="M57,64.4c0,2.6-0.3,12.2-5.4,10.1c-2.9-1.2-3.4-4.4-4.9-6.8c-5-7.7-11.5-0.6-17,1.5c-3.1,1.1-7.1,2.5-10.5,2.1
	l-0.7,0.1c-4.9,0.3-7.2-3-7.9-7c0.2,4.1,0.8,7.7,2.3,8.2c1.1,0.4,5.3,1.6,14.8-1.9c2.7-1,12.6-5.2,15.3-6.1c0,0,4.2,7.9,9.7,12.7
	c4.4,3.8,4.3-2.6,4.4-6.5C57.2,68.6,57.1,66.5,57,64.4z"/>
<path class="st20" d="M43.7,30.3c-1.9-0.8-3.9,0.7-5.7,0.2c1.9,5.6,3.1,11.4,3.4,17.4c0.5,6.6,1.5,15.5,1.5,16.8l0.2-0.1
	c0,0,4.2,7.9,9.7,12.7c4.4,3.8,4.3-2.6,4.4-6.5c0.2-7.7-0.7-15.5-2.4-23C54,45,50.1,32.9,43.7,30.3z"/>
<path class="st21" d="M44.8,36.5c-0.1-0.1-0.2-0.2-0.3-0.2c-1.4-1.3-1.7-1.2-3.3-0.9c-2.5,0.5-3.6-1.6-5.7-2.3
	c-1.4-0.3-2.8-0.3-4.1-0.2c-3.6,0-5.4,1.3-6.8,4.6c-1.3,3.1-2.3,6.4-3,9.7c-0.5,2.6-1.4,6.8,0.2,9.2c4.7,7.2,13.8,1.3,19.9,0.9
	c4.8-0.3,5.7,5.2,8.6,7.7c3.1,2.6,3.7-3.7,3.7-5.8c-0.1-2.6-0.6-5.3-1.4-7.8C50.8,46.1,48.9,40.4,44.8,36.5z"/>
<radialGradient id="SVGID_00000107546171830118706630000015453518592409531290_" cx="35.7732" cy="-9.7475" r="17.0306" fx="35.7747" fy="-9.7434" gradientTransform="matrix(1 0 0 -1 0 39.4193)" gradientUnits="userSpaceOnUse">
	<stop  offset="0" style="stop-color:#FFB533"/>
	<stop  offset="0.25" style="stop-color:#FFAF2D"/>
	<stop  offset="0.58" style="stop-color:#FF9F1E"/>
	<stop  offset="0.95" style="stop-color:#FF8304"/>
	<stop  offset="1" style="stop-color:#FF7F00"/>
</radialGradient>
<path style="fill:url(#SVGID_00000107546171830118706630000015453518592409531290_);" d="M29.1,32.5c-4.2,1.9-7,7.8-8.3,11.8
	c-1.8,5.6-4,18.1,4.3,19.9c6,1.3,11-4.8,16.9-4.2c2.4,0.2,3.8,3.1,5.5,4.7c6.3,6.1,5.2-5.1,4.7-8.6c-0.5-4.6-1.4-9.2-2.8-13.7
	c-1-3-1.9-6.9-4.8-8.6c-1.9-1-2.6-0.4-4.4,0.1c-2,0.6-3-1.1-4.6-1.7C33.4,31.6,31.1,31.7,29.1,32.5z"/>
<path class="st3" d="M22.4,42.4c3.1-1,5.9,0.4,9-0.1c-1.5-0.5-2.5-1.5-4-2.3c-1-0.6-3.4-1-3.6-2.4c-1.3,2.1-2.3,4.3-3,6.6
	c-0.1,0.3-0.2,0.7-0.3,1.1c1.1-1.3,5-1.3,6.4-1.6C25.6,43.1,23.6,43.1,22.4,42.4z"/>
<path class="st3" d="M34.6,35.1c0.3,0.2,0.7,0.4,1,0.6C35.2,35.5,34.9,35.3,34.6,35.1z"/>
<path class="st3" d="M30.4,38.4c-0.8-0.4-1.8-0.7-1.5-1.8c0.7,0,1.4,0.2,2.1,0.1c-0.2-1.2-2.2-1.8-2.3-3.2c1.8-0.3,4.1,0.5,5.8,1.5
	c-1.3-0.8-2.4-1.9-3.3-3.2c-0.8,0.1-1.5,0.3-2.2,0.6c-2,1.1-3.7,2.7-4.9,4.6C26.1,36.5,28.6,38,30.4,38.4z"/>
<path class="st3" d="M35.4,56.6c-2,2.7-6.5,7.6-10.1,7c-0.1-1.7,2.3-2.3,3.3-3.5c0.8-0.9,1.3-2.1,2.1-3c-2.4,2-6.6,4.8-9.1,3.8
	c0.6-1.3,1.7-2.4,3-3c-1,0.5-3.9,1.1-3.9-0.2c0-1.2,3-2.6,3.9-2.8c-1.8,0-3.6,0.1-5.4,0c0-3.2,7.6-4.9,9.9-5.6
	c-2.1-1-4.8,0.3-6.8-0.6c0.4-0.6,1.8-1.1,1.6-1.9c-0.2-0.6-2.9-0.7-3.7-0.9C18.6,52,17.5,62.6,25,64.2c3.2,0.7,6.2-0.8,9.1-2.1
	c0-0.3,0-0.7,0-1C34.2,59.5,35.5,58.2,35.4,56.6z"/>
<path class="st3" d="M30.7,57.2c0.4-0.3,0.8-0.7,1-0.9C31.3,56.5,31,56.8,30.7,57.2z"/>
<path class="st3" d="M52.4,58.9c-1,0-2.1,0-3.2,0c0.7,0.6,2.2,0.7,2.4,1.6c-1.9,0.3-3.5-0.9-5.2-1.4c1.7,1.6,3.3,3.3,4.7,5.2
	c-2.5,0.4-7.2-6.4-8.1-5.6c-0.2,0.2-0.3,0.8-0.2,1.5c1.9,0.8,3.1,3.1,4.6,4.5C52.4,69.6,52.7,63.4,52.4,58.9z"/>
<path class="st3" d="M44.3,37.9c1,0.1,1.9-0.5,3-0.3c-0.3,0.4-0.5,0.9-0.6,1.4c0.3,0,0.7,0.1,1,0c-0.3,0.8-1.1,1.2-1.4,2
	c0,0.1,4.8,0.2,1.8,3c-1.4,1.3-3.5,1.7-5.2,2.2c1.9,1.5,9-0.6,5.1,3.5c1.1,0.2,2.1,0.8,2.8,1.7c-0.7,0.2-1.6,0.1-2.3,0.4
	c0.8,0.8,2.4,0.6,2.5,2.1c-2.4,0.1-4.7-0.3-7-1c3,0.8,5.8,2.2,8.2,4.1c0-0.3-0.1-0.5-0.1-0.7c-0.5-4.6-1.4-9.2-2.8-13.7
	c-0.9-2.8-1.8-6.4-4.4-8.2c-0.4,1-2.5,2.6-3,3.1c1,0,2-0.6,3-0.7C44.8,36.9,44.6,37.5,44.3,37.9z"/>
<path class="st3" d="M40.7,33.8c-0.6,0.9-1.1,1.8-1.6,2.4c1.5-0.3,2.9-2.3,4.4-2.8C42.5,33.3,41.5,33.4,40.7,33.8z"/>
<path class="st23" d="M44.5,49.8c-0.7-0.9-2.2-0.7-3.2-0.9c0.7-0.3,1.4-0.7,1.6-1.4c-0.9-0.3-1.9-0.5-2.9-0.4
	c0.5-0.7,1.3-1.3,1.8-2.1c-0.7-0.3-1.5-0.5-2.3-0.4c1.8-1.1,4.6-2.6,5.2-4.8c-1.6-0.1-3,1.6-4.6,1.8c0.9-0.9,2.1-1.5,2.3-2.8
	c-0.6,0-1.2-0.1-1.8,0c0-1,0.9-1.7,1-2.7c-0.7,0.1-1.3,0.4-1.9,0.6c0.2-0.9,1.2-1.7,1.4-2.6c-0.2-0.1-0.5-0.1-0.7,0h-0.1l0,0
	c-0.7,0.2-1.2,0.9-1.9,1.3c-1.2,0.6-2.6,0.3-3.5,1.4c0.8,0,3.6,1,4.1,0.8c-0.4,0.3-0.9,0.5-1.3,0.9c2,0.2,1,1.3,2,2.2
	c-1,0.3-2,0.8-2.9,1.4c0.7,0.3,1.4,0.2,2,0.5c-1.9,0.9-4.1,1.7-5.8,2.7c1.7,0.2,3.4-0.2,5-0.1c-2,1.4-5.1,0.8-7.2,1.9
	c2.1,0.1,4.2-0.1,6.2,0.1c-1.1,0.4-2.1,0.9-3,1.6c1.6,0.2,3.1-0.2,4.7-0.1c-0.6,0.7-2,1-2.7,1.8c1,0,2,0,3-0.1
	c-0.7,0.6-1.6,0.9-2.1,1.8c0.9,0.1,1.8,0,2.7-0.3c-0.9,0.7-1.7,1.5-2.3,2.3c0.9,0.4,2.1-0.4,3.1-0.6c-1,2-4.4,2.8-4.9,5.2
	c1.9-1.1,3.6-2.6,5-4.3c-0.9,1.8-2.1,3.6-2.4,5.6c0.7-0.8,1.2-2,2.1-2.4c0,0.5,0.1,2.4,0.9,1.9c0.6-0.3,0.2-3,0-3.6
	c0.8,0.7,1.4,2.1,2.5,2.1c0.4-2.6-1.7-3.6-3.2-5.2c1.6,0.1,5.2,1.5,6.4,0c-1.5-1.1-3.8-1.2-5.6-1.8C42.3,50.5,43.6,50.5,44.5,49.8z"
	/>
<path class="st23" d="M48.6,56.8c-1.6-0.9-4-0.8-5.7-1.4c0.3-0.7,2.1-1,2.7-1c-1.1-0.2-2.2-0.4-3.2-0.7c-0.3-0.1-1.1-0.3-1.2-0.6
	c-0.2-0.7,1.1-1,1.6-1c1.1-0.2,2.2-0.3,3.3-0.3c-1.4-0.4-3-0.2-4.5-0.6c0-0.6,1.7-1.3,2.2-1.5c0.7-0.3,1.4-0.4,2.1-0.7
	c0.5-0.2,1-0.5,1.5-0.8c-2.5-0.2-4.8,1.2-7.4,1.1c0.7-0.8,1.9-1.1,2.7-1.7c-0.8,0.1-1.6,0-2.3-0.2c-0.4-2.6,5.2-2.6,5.2-5.6
	c-1.7-0.2-3.4,0.6-5.2,0.5c0.8-0.8,2.5-1.3,2.5-2.5c-0.9,0-1.9,0.2-2.7,0.6c0.8-1,1.9-2,2-3.4c-1.4-0.1-3.3,0.4-2.6-1.7
	c0.3-0.9,1.6-1.3,2.3-1.9c-0.6,0.1-1.1,0.4-1.9,0.6c-1.4,0.4-2.2-0.2-3.2-0.9c-1.4,0.2-2.7,0.3-3,0.3c0.7,0.4,3.5,0.9,3.4,2.1
	c-0.1,1-2.8,0.6-3.6,1.1c1,1,3.1,0.5,4.5,1.1c5.1,2.3-6.8,3.9-7.9,4.3c2.6,0.8,5.6,0.6,8.3,0.8c-1.8,1.2-4.2,1-6,2.1
	c1.3,0.1,2.7,0,4.1,0c0.6,0,2.7,0.1,1.5,1.1c-0.6,0.4-1.3,0.6-2.1,0.8c0.6,0.3,1.7,0,2.2,0.6s-0.4,1.2-1,1.4c-1.7,0.6-4,0.1-5.5,0.9
	c0.8,0.1,4.8-0.3,5.2,0.4s-2.6,1.3-3.1,1.1c0.7,0.2,2.6-0.5,3.1,0c0.9,0.8-1.5,1.4-1.9,1.5c-0.6,0.1-1.2,0.3-1.7,0.5
	c0.7-0.1,1.4-0.2,2.1-0.1c0.8-0.1,1.5-0.1,2.3,0c0.2,0.8-2.9,2.1-3.5,2.8c1.3,0,2.8-0.6,4.1-0.7c-0.1,1.4-2.5,3.4-3.5,4.3
	c1.1-0.1,2.2-0.2,3.3-0.2l-1,1.2c1.4-0.5,2.9-0.8,4.4-0.7c0-0.3,0-0.6,0-0.9c1.2-0.2,2.3,0.5,3.4,0.8c0.3-0.9-1.2-2.3-0.7-2.8
	c0.2-0.2,0.9-0.2,1.2-0.2C46.6,56.9,47.6,56.9,48.6,56.8z"/>
<path class="st24" d="M20.1,57.8c0.1,0,0.2-0.1,0.3-0.1c0.4,0,0.7,0.2,1,0.3c0.7,0.2,1.4,0.1,2.1-0.2c1.1-0.4,1.9-1.1,2.4-2.2
	c0.4-1.1-0.8-1.9-1.7-2c-1.1-0.1-2.1,0.2-2.9,0.9c-0.4,0.3-0.7,0.8-1,1.2c-0.2,0.4-0.2,1-0.5,1.4c-0.1,0.2-0.5,0.4-0.1,0.5
	C19.9,57.9,20,57.9,20.1,57.8z"/>
<path class="st25" d="M24.1,56.8c-0.7,0.4-1.5,0.6-2.3,0.6c-0.7-0.1-1.5-0.4-1-1.5c0.3-0.6,0.8-1.1,1.4-1.5c-0.9,0.3-1.5,1.1-1.7,2
	c0,0.2-0.1,0.4-0.2,0.6c-0.1,0.1-0.4,0.4-0.4,0.6s0.7,0.1,0.8,0.1c0.3,0.1,0.7,0.1,1,0.2c0.3,0,0.6,0,0.9,0c0.9,0,1.8-0.4,2.4-1.1
	c0.6-0.6,1.1-1.5,0.6-2.2c-0.2-0.3-0.5-0.4-0.9-0.4c0.4,0.2,0.6,0.6,0.6,1c0,0.4-0.2,0.7-0.5,0.9C24.6,56.4,24.3,56.6,24.1,56.8z"/>
<path class="st26" d="M22.3,54.4c-0.5,0.2-0.9,0.6-1.2,1.1c-0.2,0.3-0.3,0.6-0.3,0.9c0,0.3,0.4,0.3,0.6,0.2s0.5-0.6,0.8-0.8
	c0.3-0.2,0.6-0.4,0.9-0.6l0.3-0.1c0.3-0.1,0.5-0.2,0.8-0.2s0.4-0.1,0.5-0.3c0.1-0.4-0.6-0.4-0.9-0.4C23.2,54.1,22.7,54.2,22.3,54.4z
	"/>
<path class="st24" d="M21.7,46.6c0.1,0,0.2,0,0.3,0c0.4,0,0.7,0.2,1,0.3c0.7,0.2,1.5,0.1,2.1-0.2c1.1-0.4,1.9-1.1,2.4-2.2
	c0.4-1.1-0.8-1.9-1.7-2c-1.6-0.1-3.1,0.7-3.9,2.2c-0.2,0.4-0.2,1-0.5,1.4c-0.1,0.2-0.5,0.4-0.1,0.6C21.4,46.7,21.6,46.7,21.7,46.6z"
	/>
<path class="st25" d="M25.7,45.6c-0.7,0.5-1.5,0.7-2.3,0.6c-0.7-0.1-1.5-0.4-1-1.5c0.3-0.6,0.8-1.1,1.4-1.5c-0.9,0.3-1.5,1.1-1.7,2
	c0,0.2-0.1,0.4-0.2,0.6c-0.1,0.2-0.4,0.4-0.4,0.6s0.7,0,0.8,0.1c0.4,0,0.7,0.2,1,0.2c0.3,0,0.6,0.1,0.9,0.1c0.9,0,1.7-0.4,2.4-1.1
	c0.6-0.6,1.1-1.5,0.6-2.3c-0.2-0.3-0.5-0.4-0.9-0.4c0.4,0.2,0.6,0.6,0.6,1c0,0.4-0.2,0.7-0.5,0.9C26.2,45.2,25.9,45.4,25.7,45.6z"/>
<path class="st26" d="M23.9,43.2c-0.5,0.2-0.9,0.6-1.2,1.1c-0.2,0.3-0.3,0.6-0.3,0.9c0,0.3,0.4,0.3,0.6,0.2s0.5-0.6,0.8-0.8
	c0.3-0.2,0.6-0.4,0.9-0.6l0.3-0.1c0.2-0.1,0.5-0.2,0.8-0.2s0.4-0.1,0.5-0.3c0.1-0.4-0.6-0.4-0.8-0.4C24.8,42.9,24.4,43,23.9,43.2z"
	/>
<path class="st24" d="M25.7,57.9c0.1,0.1,0.2,0.1,0.2,0.2c0.3,0.3,0.3,0.7,0.4,1c0.4,0.6,0.9,1.1,1.5,1.4c1,0.6,2.1,0.7,3.2,0.4
	c1.1-0.4,1-1.8,0.4-2.6c-1-1.3-2.6-1.9-4.2-1.5c-0.5,0.1-0.9,0.5-1.4,0.5c-0.2,0-0.6-0.1-0.5,0.3C25.5,57.8,25.6,57.9,25.7,57.9z"/>
<path class="st25" d="M29,60.3c-0.8-0.2-1.5-0.7-2-1.4c-0.4-0.6-0.7-1.4,0.5-1.8c0.7-0.1,1.4-0.1,2,0.1c-0.8-0.4-1.8-0.4-2.6,0
	c-0.2,0.1-0.4,0.2-0.6,0.2c-0.2,0-0.6,0-0.7,0s0.4,0.5,0.5,0.6c0.2,0.3,0.3,0.6,0.5,0.9c0.2,0.3,0.3,0.5,0.5,0.7
	c0.6,0.7,1.5,1,2.4,1.1c0.8,0.1,1.8-0.1,2.1-1c0.1-0.3,0-0.7-0.2-0.9c0.1,0.4,0,0.9-0.3,1.2c-0.3,0.2-0.6,0.3-1,0.2
	C29.7,60.3,29.4,60.3,29,60.3z"/>
<path class="st26" d="M29.7,57.3c-0.5-0.2-1.1-0.3-1.6-0.2c-0.3,0-0.6,0.1-0.9,0.3c-0.2,0.2,0,0.5,0.2,0.6s0.8,0,1.1,0.1
	c0.4,0.1,0.7,0.2,1.1,0.3l0.3,0.1c0.2,0.1,0.5,0.3,0.7,0.4c0.1,0.1,0.4,0.3,0.5,0.2c0.4-0.2-0.1-0.7-0.3-0.9
	C30.6,57.8,30.2,57.5,29.7,57.3z"/>
<path class="st24" d="M26.7,56.1c0.1,0,0.2,0,0.3,0c0.4,0,0.7,0.2,1,0.3c0.7,0.2,1.4,0.1,2.1-0.2c1.1-0.4,2-1.1,2.4-2.2
	c0.4-1.1-0.7-1.9-1.6-2c-1-0.1-2.1,0.2-2.9,0.9c-0.4,0.3-0.7,0.7-1,1.2c-0.2,0.4-0.2,1-0.5,1.4c-0.1,0.2-0.5,0.3-0.1,0.5
	C26.5,56.2,26.6,56.2,26.7,56.1z"/>
<path class="st25" d="M30.7,55.2c-0.7,0.4-1.5,0.6-2.3,0.6c-0.7-0.2-1.5-0.5-1-1.6c0.3-0.6,0.8-1.1,1.4-1.5c-0.9,0.3-1.5,1.1-1.7,2
	c0,0.2-0.1,0.4-0.2,0.6c-0.1,0.1-0.4,0.4-0.4,0.6s0.7,0.1,0.8,0.1c0.3,0,0.7,0.2,1,0.3c0.3,0.1,0.6,0.1,0.9,0.1c0.9,0,1.8-0.4,2.4-1
	c0.7-0.5,1-1.4,0.6-2.2c-0.2-0.3-0.5-0.4-0.9-0.4c0.4,0.2,0.6,0.6,0.6,1c0,0.4-0.2,0.7-0.5,0.9C31.2,54.8,30.9,55,30.7,55.2z"/>
<path class="st26" d="M28.9,52.7c-0.5,0.2-0.9,0.6-1.3,1c-0.2,0.3-0.3,0.6-0.4,0.9c0,0.3,0.4,0.3,0.6,0.2s0.5-0.6,0.8-0.8
	c0.3-0.2,0.6-0.4,0.9-0.6l0.3-0.1c0.2-0.1,0.5-0.2,0.8-0.2c0.2,0,0.4-0.1,0.5-0.3c0.1-0.4-0.6-0.4-0.8-0.4
	C29.8,52.4,29.4,52.5,28.9,52.7z"/>
<path class="st24" d="M24.2,38.9c0.1,0.1,0.2,0.1,0.2,0.2c0.2,0.3,0.2,0.7,0.4,1c0.3,0.6,0.9,1.1,1.5,1.4c1,0.5,2.1,0.7,3.2,0.4
	c1.1-0.4,1-1.8,0.4-2.6c-0.6-0.9-1.6-1.5-2.6-1.6c-0.5-0.1-1-0.1-1.6,0.1c-0.5,0.1-0.9,0.5-1.4,0.5c-0.2,0-0.6-0.1-0.5,0.3
	C23.9,38.7,24,38.8,24.2,38.9z"/>
<path class="st25" d="M27.5,41.2c-0.8-0.2-1.5-0.7-2-1.4c-0.4-0.6-0.7-1.4,0.5-1.8c0.7-0.1,1.4-0.1,2,0.1c-0.8-0.4-1.8-0.4-2.6,0
	c-0.2,0.1-0.4,0.2-0.6,0.2c-0.2,0-0.6,0-0.7,0s0.4,0.6,0.5,0.6c0.2,0.3,0.3,0.6,0.5,0.9c0.2,0.3,0.3,0.5,0.5,0.7
	c0.6,0.6,1.5,1,2.4,1.1c0.8,0,1.8-0.1,2.1-1c0.1-0.3,0-0.7-0.2-0.9c0.1,0.4,0,0.9-0.4,1.2c-0.3,0.2-0.7,0.3-1,0.2
	C28.1,41.3,27.8,41.3,27.5,41.2z"/>
<path class="st26" d="M28.2,38.3c-0.5-0.2-1.1-0.3-1.6-0.2c-0.3,0-0.6,0.1-0.9,0.3c-0.2,0.2,0,0.5,0.3,0.6s0.7,0,1.1,0.1
	c0.4,0.1,0.7,0.2,1.1,0.3l0.3,0.1l0.7,0.4c0.1,0.1,0.3,0.3,0.5,0.2c0.4-0.2-0.1-0.7-0.3-0.9C29,38.8,28.6,38.5,28.2,38.3z"/>
<path class="st24" d="M29.5,33.2c0,0.1,0.1,0.2,0.1,0.3c0,0.4-0.2,0.7-0.2,1.1c-0.1,0.7,0.1,1.4,0.5,2c0.5,1,1.4,1.8,2.4,2.1
	c1.1,0.3,1.8-1,1.8-1.9c0-1.1-0.5-2-1.3-2.8c-0.4-0.4-0.8-0.6-1.3-0.8c-0.5-0.1-1-0.2-1.5-0.4c-0.2-0.1-0.4-0.4-0.5,0
	C29.4,33,29.5,33.1,29.5,33.2z"/>
<path class="st25" d="M30.9,37c-0.5-0.6-0.8-1.4-0.9-2.2c0-0.7,0.2-1.5,1.4-1.2c0.7,0.2,1.2,0.7,1.6,1.2c-0.4-0.8-1.2-1.3-2.1-1.4
	c-0.2,0-0.4-0.1-0.7-0.2c-0.1-0.1-0.5-0.4-0.6-0.4s0,0.7,0,0.8c0,0.3-0.1,0.7-0.1,1c0,0.3,0,0.6,0,0.9c0.2,0.9,0.6,1.7,1.3,2.2
	c0.6,0.6,1.6,0.8,2.3,0.3c0.2-0.2,0.3-0.6,0.3-0.9C33.4,37.7,33,38,32.6,38c-0.4,0-0.7-0.1-1-0.4C31.4,37.5,31.1,37.3,30.9,37z"/>
<path class="st26" d="M33.2,35c-0.3-0.5-0.7-0.9-1.2-1.1c-0.3-0.2-0.6-0.2-0.9-0.2c-0.3,0.1-0.3,0.4-0.1,0.6s0.6,0.4,0.9,0.7
	c0.3,0.2,0.5,0.5,0.7,0.8l0.2,0.3c0.1,0.2,0.2,0.5,0.3,0.7c0.1,0.2,0.1,0.4,0.3,0.4c0.5,0.1,0.3-0.6,0.3-0.9
	C33.6,35.9,33.4,35.4,33.2,35z"/>
<path class="st24" d="M23.3,48.2l0.2,0.2c0.2,0.3,0.2,0.7,0.4,1c0.3,0.6,0.9,1.1,1.5,1.4c1,0.6,2.1,0.7,3.2,0.4
	c1.1-0.4,1-1.8,0.4-2.6c-0.6-0.9-1.6-1.4-2.6-1.6c-0.5-0.1-1-0.1-1.6,0.1c-0.5,0.1-0.9,0.5-1.4,0.5c-0.2,0-0.6-0.1-0.5,0.3
	C23.1,48,23.2,48.1,23.3,48.2z"/>
<path class="st25" d="M26.7,50.5c-0.8-0.2-1.5-0.7-2-1.4c-0.4-0.6-0.7-1.4,0.5-1.8c0.7-0.1,1.4-0.1,2,0.1c-0.8-0.4-1.8-0.4-2.6,0
	c-0.2,0.1-0.4,0.2-0.6,0.2c-0.2,0-0.6-0.1-0.7,0s0.4,0.6,0.5,0.6c0.2,0.3,0.3,0.6,0.5,0.9c0.2,0.3,0.3,0.5,0.5,0.7
	c0.6,0.7,1.5,1.1,2.4,1.1c0.8,0,1.8-0.1,2.1-1c0.1-0.3,0-0.7-0.2-0.9c0.1,0.4,0,0.9-0.4,1.2c-0.3,0.2-0.6,0.3-1,0.2
	C27.3,50.6,27,50.6,26.7,50.5z"/>
<path class="st26" d="M27.3,47.6c-0.5-0.2-1.1-0.3-1.6-0.2c-0.3,0-0.6,0.1-0.9,0.3c-0.2,0.2,0,0.5,0.2,0.6s0.8,0,1.1,0.1
	c0.4,0.1,0.7,0.2,1.1,0.3c0.1,0,0.2,0.1,0.3,0.1c0.2,0.1,0.5,0.3,0.7,0.4c0.1,0.1,0.3,0.3,0.5,0.2c0.4-0.2-0.1-0.7-0.3-0.9
	C28.2,48.1,27.8,47.8,27.3,47.6z"/>
<path class="st24" d="M25.7,44.9c0.1,0.1,0.2,0.1,0.2,0.2c0.3,0.3,0.3,0.7,0.4,1c0.4,0.6,0.9,1.1,1.5,1.4c1,0.6,2.1,0.7,3.2,0.4
	c1.1-0.4,1-1.8,0.4-2.6c-0.6-0.9-1.6-1.4-2.6-1.6c-0.5-0.1-1.1-0.1-1.6,0.1c-0.5,0.2-0.9,0.4-1.4,0.5c-0.2,0-0.6-0.1-0.5,0.3
	C25.5,44.7,25.6,44.8,25.7,44.9z"/>
<path class="st25" d="M29,47.2c-0.8-0.2-1.5-0.7-2-1.4c-0.4-0.6-0.7-1.4,0.5-1.8c0.7-0.1,1.4-0.1,2,0.1c-0.8-0.4-1.8-0.4-2.6,0
	c-0.2,0.1-0.4,0.2-0.6,0.2c-0.2,0-0.6,0-0.7,0.1s0.4,0.5,0.5,0.6c0.2,0.3,0.3,0.6,0.5,0.9c0.2,0.3,0.3,0.5,0.5,0.7
	c0.6,0.6,1.5,1,2.4,1.1c0.8,0.1,1.8-0.1,2.1-1c0.1-0.3,0-0.7-0.2-0.9c0.1,0.4,0,0.9-0.3,1.2c-0.3,0.2-0.7,0.3-1,0.2
	C29.7,47.3,29.4,47.3,29,47.2z"/>
<path class="st26" d="M29.7,44.3C29.2,44,28.7,44,28.1,44c-0.3,0-0.6,0.1-0.9,0.3c-0.2,0.2,0,0.5,0.2,0.6s0.8,0,1.1,0.1
	c0.4,0.1,0.7,0.2,1.1,0.3l0.3,0.1c0.2,0.1,0.5,0.3,0.7,0.4c0.1,0.1,0.4,0.3,0.5,0.2c0.4-0.2-0.1-0.7-0.3-0.9
	C30.6,44.8,30.2,44.5,29.7,44.3z"/>
<path class="st27" d="M21.7,60.9c0.1,0,0.2,0,0.3,0.1c0.4,0.2,0.5,0.5,0.8,0.7c0.6,0.4,1.3,0.6,2,0.6c1.1,0.1,2.2-0.3,3.1-1
	c0.8-0.8,0.1-2-0.7-2.5c-0.9-0.5-2-0.6-3-0.3c-0.5,0.1-1,0.4-1.4,0.7c-0.4,0.3-0.7,0.8-1.1,1.1c-0.2,0.1-0.5,0.1-0.3,0.4
	C21.4,60.8,21.5,60.8,21.7,60.9z"/>
<path class="st28" d="M25.7,61.6c-0.8,0.1-1.6,0-2.4-0.4c-0.6-0.4-1.2-1-0.3-1.8c0.5-0.4,1.2-0.7,1.9-0.8c-0.9,0-1.8,0.4-2.3,1.1
	c-0.1,0.2-0.3,0.4-0.5,0.5c-0.1,0.1-0.6,0.2-0.6,0.3s0.6,0.3,0.7,0.4c0.3,0.2,0.5,0.5,0.8,0.6c0.3,0.2,0.5,0.3,0.8,0.4
	c0.8,0.3,1.8,0.3,2.6,0c0.8-0.3,1.6-0.9,1.5-1.8c-0.1-0.3-0.3-0.6-0.6-0.7c0.3,0.3,0.3,0.8,0.2,1.2c-0.2,0.3-0.5,0.5-0.8,0.6
	C26.3,61.4,26,61.5,25.7,61.6z"/>
<path class="st29" d="M25,58.6c-0.6,0-1.1,0.2-1.6,0.5c-0.2,0.2-0.6,0.4-0.7,0.7s0.2,0.5,0.5,0.4s0.7-0.3,1-0.4
	c0.4-0.1,0.7-0.2,1.1-0.2c0.1,0,0.2,0,0.3,0c0.3,0,0.5,0,0.8,0.1c0.2,0,0.4,0.1,0.5,0c0.3-0.4-0.4-0.6-0.6-0.7
	C26,58.7,25.5,58.6,25,58.6z"/>
<path class="st27" d="M28.7,62.4l0.3-0.1c0.4,0,0.7,0.2,1.1,0.3c0.7,0.1,1.4,0,2-0.3c1-0.4,1.9-1.2,2.3-2.2c0.4-1.1-0.8-1.9-1.8-1.9
	c-1.1-0.1-2.1,0.3-2.8,1.1c-0.4,0.4-0.7,0.8-0.9,1.3c-0.2,0.4-0.2,1-0.5,1.4c-0.1,0.2-0.4,0.4-0.1,0.6
	C28.4,62.5,28.6,62.5,28.7,62.4z"/>
<path class="st28" d="M32.6,61.3C32,61.8,31.2,62,30.3,62c-0.7-0.1-1.5-0.4-1.1-1.5c0.3-0.6,0.8-1.2,1.3-1.5c-0.8,0.4-1.4,1.1-1.6,2
	c0,0.2-0.1,0.4-0.2,0.6c-0.1,0.1-0.4,0.4-0.4,0.6s0.7,0,0.8,0c0.3,0,0.7,0.2,1,0.2c0.3,0,0.6,0,0.9,0c0.9-0.1,1.7-0.5,2.3-1.2
	c0.5-0.6,1-1.5,0.5-2.3c-0.2-0.2-0.5-0.4-0.9-0.4c0.4,0.2,0.7,0.6,0.7,1c0,0.4-0.2,0.7-0.5,0.9C33.1,60.8,32.9,61,32.6,61.3z"/>
<path class="st29" d="M30.8,58.9c-0.5,0.2-0.9,0.6-1.2,1.1c-0.2,0.3-0.3,0.6-0.3,0.9c0,0.3,0.4,0.3,0.6,0.2s0.5-0.6,0.7-0.8
	c0.3-0.3,0.6-0.5,0.9-0.7l0.3-0.1c0.2-0.1,0.5-0.2,0.7-0.3c0.2,0,0.4-0.1,0.5-0.3c0.1-0.4-0.6-0.4-0.9-0.3
	C31.6,58.6,31.2,58.7,30.8,58.9z"/>
<path class="st27" d="M23.8,58.6c0.1,0,0.2,0,0.3-0.1c0.4,0,0.7,0.2,1,0.3c0.7,0.1,1.4,0.1,2.1-0.2c1.1-0.4,1.9-1.1,2.4-2.2
	c0.4-1.1-0.8-1.9-1.7-2c-1-0.1-2.1,0.2-2.9,0.9c-0.4,0.3-0.8,0.8-1,1.2c-0.1,0.5-0.3,1-0.5,1.4c-0.1,0.2-0.5,0.4-0.1,0.6
	C23.5,58.7,23.6,58.7,23.8,58.6z"/>
<path class="st28" d="M27.7,57.6c-0.7,0.4-1.5,0.6-2.3,0.6c-0.7-0.1-1.5-0.4-1-1.5c0.3-0.6,0.8-1.1,1.4-1.5c-0.9,0.3-1.5,1.1-1.7,2
	c0,0.2-0.1,0.4-0.2,0.6c-0.1,0.1-0.4,0.4-0.4,0.6s0.7,0.1,0.8,0.1c0.3,0,0.7,0.2,1,0.2c0.3,0,0.6,0.1,0.9,0.1c0.9,0,1.8-0.4,2.4-1.1
	c0.6-0.6,1.1-1.5,0.6-2.2c-0.2-0.3-0.5-0.4-0.9-0.4c0.4,0.2,0.6,0.6,0.7,1c0,0.4-0.2,0.7-0.5,0.9C28.3,57.1,28,57.4,27.7,57.6z"/>
<path class="st29" d="M25.9,55.1c-0.5,0.2-0.9,0.6-1.2,1.1c-0.2,0.3-0.3,0.6-0.3,0.9c0,0.3,0.4,0.3,0.6,0.2s0.5-0.6,0.8-0.8
	c0.3-0.2,0.6-0.5,0.9-0.6l0.3-0.1c0.2-0.1,0.5-0.2,0.8-0.2c0.2,0,0.4-0.1,0.5-0.3c0.1-0.4-0.6-0.4-0.8-0.4
	C26.8,54.8,26.4,54.9,25.9,55.1z"/>
<path class="st27" d="M27.3,40.6c0.1,0,0.2,0.1,0.3,0.1c0.3,0.2,0.4,0.6,0.7,0.8c0.5,0.5,1.1,0.9,1.8,1c1.1,0.3,2.2,0.1,3.2-0.4
	c0.9-0.7,0.5-2-0.2-2.6c-0.8-0.7-1.9-1-2.9-0.9c-0.5,0-1,0.2-1.5,0.5c-0.4,0.2-0.8,0.7-1.2,0.9c-0.2,0.1-0.6,0-0.4,0.4
	C27,40.5,27.2,40.6,27.3,40.6z"/>
<path class="st28" d="M31.1,42c-0.8,0-1.6-0.3-2.2-0.8c-0.5-0.5-1-1.2,0-1.8c0.6-0.3,1.3-0.5,2-0.4c-0.9-0.2-1.8,0-2.5,0.7
	c-0.2,0.2-0.3,0.3-0.5,0.4c-0.1,0.1-0.6,0.1-0.7,0.2s0.5,0.4,0.6,0.5c0.3,0.2,0.4,0.6,0.7,0.8c0.2,0.2,0.5,0.4,0.7,0.6
	c0.8,0.5,1.7,0.6,2.6,0.5c0.8-0.2,1.7-0.6,1.8-1.5c0-0.3-0.2-0.6-0.5-0.8c0.2,0.4,0.2,0.8,0,1.2c-0.2,0.3-0.6,0.5-0.9,0.5
	C31.8,41.9,31.4,42,31.1,42z"/>
<path class="st29" d="M31,39c-0.5-0.1-1.1,0-1.6,0.2c-0.3,0.1-0.6,0.3-0.8,0.5c-0.2,0.3,0.1,0.5,0.4,0.5s0.7-0.2,1.1-0.2
	c0.4-0.1,0.7-0.1,1.1,0c0.1,0,0.2,0,0.3,0.1c0.3,0.1,0.5,0.1,0.8,0.2c0.2,0,0.4,0.2,0.6,0.1c0.3-0.3-0.3-0.7-0.5-0.8
	C31.9,39.2,31.5,39.1,31,39z"/>
<path class="st27" d="M22.4,54.9c0.1,0,0.2,0,0.3-0.1c0.4,0,0.7,0.2,1,0.3c0.7,0.2,1.4,0.1,2.1-0.2c1.1-0.4,1.9-1.1,2.4-2.1
	c0.4-1.1-0.8-1.9-1.7-2c-1.1-0.1-2.1,0.2-2.9,0.9c-0.4,0.3-0.7,0.8-1,1.2c-0.2,0.4-0.2,1-0.5,1.4c-0.1,0.2-0.4,0.4-0.1,0.6
	C22.1,55,22.3,55,22.4,54.9z"/>
<path class="st28" d="M26.3,53.9c-0.7,0.4-1.5,0.6-2.3,0.6c-0.7-0.1-1.5-0.4-1-1.5c0.3-0.6,0.8-1.1,1.4-1.5c-0.9,0.3-1.5,1.1-1.7,2
	c0,0.2-0.1,0.4-0.2,0.6c-0.1,0.1-0.4,0.4-0.4,0.6s0.7,0,0.8,0.1c0.3,0,0.7,0.2,1,0.2c0.3,0,0.6,0.1,0.9,0.1c0.9-0.1,1.8-0.4,2.4-1.1
	c0.7-0.5,0.9-1.4,0.6-2.2c-0.2-0.3-0.5-0.4-0.9-0.4c0.4,0.2,0.6,0.6,0.6,1c0,0.4-0.2,0.7-0.5,0.9C26.9,53.5,26.6,53.7,26.3,53.9z"/>
<path class="st29" d="M24.6,51.5c-0.5,0.2-0.9,0.6-1.2,1.1c-0.2,0.2-0.3,0.5-0.3,0.9c0,0.3,0.4,0.3,0.6,0.2s0.5-0.6,0.8-0.8
	c0.3-0.2,0.6-0.4,0.9-0.6l0.3-0.1c0.2-0.1,0.5-0.2,0.8-0.2c0.2,0,0.4-0.1,0.5-0.3c0.1-0.4-0.6-0.4-0.9-0.4
	C25.5,51.1,25,51.3,24.6,51.5z"/>
<path class="st27" d="M26.7,48.4c0.1,0,0.2,0.1,0.3,0.1c0.3,0.2,0.4,0.6,0.6,0.9c0.5,0.5,1.1,0.9,1.8,1.1c1.1,0.3,2.2,0.2,3.2-0.3
	c1-0.6,0.5-2-0.1-2.6c-0.8-0.7-1.8-1.1-2.9-1c-0.5,0-1,0.2-1.5,0.4c-0.4,0.2-0.8,0.7-1.3,0.8c-0.2,0.1-0.6,0-0.4,0.4
	C26.5,48.3,26.6,48.3,26.7,48.4z"/>
<path class="st28" d="M30.4,49.9c-0.8-0.1-1.6-0.4-2.2-0.9c-0.5-0.5-0.9-1.2,0.1-1.8c0.6-0.3,1.3-0.4,2-0.3c-0.9-0.2-1.8,0-2.5,0.6
	c-0.2,0.1-0.3,0.3-0.5,0.4c-0.2,0.1-0.6,0.1-0.7,0.2s0.5,0.4,0.6,0.5c0.3,0.2,0.4,0.6,0.7,0.8c0.2,0.2,0.4,0.4,0.7,0.6
	c0.8,0.5,1.7,0.7,2.5,0.6c0.8-0.1,1.8-0.5,1.8-1.4c0-0.3-0.2-0.6-0.5-0.9c0.2,0.4,0.1,0.8-0.1,1.2c-0.2,0.3-0.6,0.4-0.9,0.4
	C31.1,49.9,30.8,49.9,30.4,49.9z"/>
<path class="st29" d="M30.5,46.9c-0.5-0.1-1.1-0.1-1.6,0.1c-0.3,0.1-0.6,0.3-0.8,0.5c-0.2,0.3,0.1,0.5,0.4,0.5s0.7-0.1,1.1-0.2
	c0.4,0,0.7,0,1.1,0.1c0.1,0,0.2,0,0.3,0.1c0.3,0.1,0.5,0.2,0.8,0.3c0.1,0,0.4,0.2,0.5,0.1c0.4-0.3-0.2-0.7-0.4-0.8
	C31.4,47.2,31,47,30.5,46.9z"/>
<path class="st27" d="M19.9,49.1c0.1,0.1,0.2,0.1,0.2,0.2c0.2,0.3,0.2,0.7,0.4,1c0.3,0.6,0.8,1.2,1.4,1.5c0.9,0.6,2.1,0.8,3.2,0.6
	c1.1-0.3,1.1-1.7,0.6-2.5c-0.6-0.9-1.4-1.5-2.5-1.8c-0.5-0.1-1.1-0.1-1.6,0c-0.5,0.1-1,0.4-1.4,0.4c-0.2,0-0.6-0.2-0.5,0.2
	C19.6,49,19.8,49,19.9,49.1z"/>
<path class="st28" d="M23,51.7c-0.8-0.3-1.4-0.8-1.9-1.5c-0.3-0.7-0.6-1.5,0.6-1.7c0.7-0.1,1.4,0,2,0.2c-0.8-0.5-1.7-0.5-2.6-0.2
	c-0.2,0.1-0.4,0.2-0.6,0.2c-0.2,0-0.6-0.1-0.7,0s0.4,0.6,0.4,0.7c0.2,0.3,0.2,0.7,0.4,1c0.1,0.3,0.3,0.5,0.5,0.8
	c0.6,0.7,1.4,1.1,2.3,1.3c0.8,0.1,1.8,0,2.2-0.9c0.1-0.3,0-0.7-0.2-0.9c0.1,0.4-0.1,0.8-0.4,1.1c-0.3,0.2-0.7,0.2-1,0.2
	C23.7,51.9,23.4,51.8,23,51.7z"/>
<path class="st29" d="M23.9,48.8c-0.5-0.3-1-0.4-1.6-0.3c-0.3,0-0.6,0.1-0.9,0.2c-0.2,0.2,0,0.5,0.2,0.6s0.7,0.1,1.1,0.2
	c0.4,0.1,0.7,0.2,1,0.4c0.1,0,0.2,0.1,0.3,0.2c0.2,0.1,0.4,0.3,0.6,0.5c0.1,0.1,0.3,0.3,0.5,0.2c0.4-0.2,0-0.7-0.2-0.9
	C24.8,49.3,24.4,49,23.9,48.8z"/>
<path class="st27" d="M22.5,40.9c0.1,0.1,0.2,0.1,0.2,0.2c0.2,0.3,0.2,0.7,0.4,1c0.3,0.6,0.8,1.2,1.4,1.5c0.9,0.6,2.1,0.8,3.2,0.6
	c1.1-0.3,1.1-1.7,0.6-2.5c-0.6-0.9-1.5-1.5-2.5-1.8c-0.5-0.1-1-0.1-1.6,0c-0.5,0.2-1,0.3-1.5,0.4c-0.2,0-0.6-0.1-0.5,0.2
	C22.3,40.8,22.4,40.9,22.5,40.9z"/>
<path class="st28" d="M25.6,43.5c-0.8-0.3-1.4-0.8-1.9-1.5c-0.3-0.7-0.5-1.5,0.6-1.7c0.7-0.1,1.4,0,2,0.2c-0.8-0.5-1.7-0.5-2.6-0.2
	c-0.2,0.1-0.4,0.2-0.6,0.2c-0.2,0-0.6-0.1-0.7,0s0.4,0.6,0.4,0.7c0.2,0.3,0.2,0.7,0.4,1c0.1,0.3,0.3,0.5,0.5,0.8
	c0.6,0.7,1.4,1.1,2.3,1.3c0.8,0.1,1.8,0,2.2-0.9c0.1-0.3,0-0.7-0.2-0.9c0.1,0.4-0.1,0.9-0.4,1.1c-0.3,0.2-0.7,0.2-1,0.2
	C26.3,43.6,26,43.6,25.6,43.5z"/>
<path class="st29" d="M26.5,40.6c-0.5-0.3-1-0.4-1.6-0.4c-0.3,0-0.6,0.1-0.9,0.2c-0.2,0.2,0,0.5,0.2,0.6s0.7,0.1,1.1,0.1
	c0.4,0.1,0.7,0.2,1,0.4l0.3,0.2c0.2,0.1,0.4,0.3,0.6,0.4s0.3,0.3,0.5,0.2c0.4-0.2,0-0.7-0.2-0.9C27.3,41.1,27,40.8,26.5,40.6z"/>
<path class="st27" d="M26.4,35.2c0.1,0.1,0.1,0.2,0.2,0.2c0.1,0.4,0,0.7,0,1.1c0.1,0.7,0.4,1.4,0.9,1.9c0.7,0.9,1.7,1.4,2.8,1.5
	c1.2,0,1.5-1.3,1.3-2.2c-0.3-1-0.9-1.9-1.8-2.4c-0.5-0.3-1-0.5-1.5-0.5c-0.5,0-1,0-1.5,0c-0.2-0.1-0.5-0.3-0.5,0.1
	C26.3,34.9,26.4,35.1,26.4,35.2z"/>
<path class="st28" d="M28.7,38.6c-0.6-0.5-1.1-1.2-1.3-2c-0.1-0.7-0.1-1.6,1.1-1.5c0.7,0.1,1.3,0.4,1.9,0.8c-0.6-0.7-1.5-1-2.4-0.9
	c-0.2,0-0.4,0-0.7,0c-0.2,0-0.5-0.3-0.7-0.2s0.2,0.7,0.2,0.8c0.1,0.3,0,0.7,0.1,1c0.1,0.3,0.1,0.6,0.2,0.9c0.3,0.8,1,1.5,1.8,1.9
	c0.7,0.5,1.7,0.4,2.3-0.2c0.2-0.3,0.2-0.7,0.1-1c-0.1,0.4-0.4,0.8-0.8,0.9c-0.3,0.1-0.7,0-1-0.2C29.3,38.9,29,38.7,28.7,38.6z"/>
<path class="st29" d="M30.4,36.1c-0.4-0.4-0.9-0.7-1.4-0.8c-0.3-0.1-0.6-0.1-0.9,0c-0.3,0.1-0.2,0.5,0,0.6s0.7,0.3,1,0.5
	c0.3,0.2,0.6,0.4,0.9,0.7l0.2,0.2c0.2,0.2,0.3,0.4,0.5,0.6c0.1,0.1,0.2,0.4,0.4,0.4c0.5,0,0.2-0.7,0.1-0.9
	C31,36.9,30.7,36.4,30.4,36.1z"/>
<path class="st24" d="M51.6,60.2l-0.3-0.1c-0.4,0-0.7,0.2-1,0.3c-0.7,0.1-1.4,0.1-2.1-0.2c-1-0.4-1.9-1.1-2.4-2.2
	c-0.4-1.1,0.7-1.9,1.7-2c1.1-0.1,2.1,0.2,2.9,0.9c0.4,0.3,0.8,0.8,1,1.2c0.2,0.4,0.2,1,0.5,1.4c0.1,0.2,0.4,0.4,0.1,0.6
	C51.9,60.3,51.7,60.3,51.6,60.2z"/>
<path class="st25" d="M47.6,59.2c0.7,0.4,1.5,0.7,2.3,0.6c0.7-0.2,1.5-0.4,1-1.5c-0.3-0.6-0.8-1.1-1.4-1.5c0.9,0.3,1.5,1.1,1.7,2
	c0,0.2,0.1,0.4,0.2,0.6c0.1,0.1,0.4,0.4,0.4,0.6S51.2,60,51.1,60c-0.3,0-0.7,0.2-1,0.2c-0.3,0.1-0.6,0.1-0.9,0.1
	c-0.9-0.1-1.7-0.4-2.4-1.1c-0.6-0.6-1.1-1.5-0.6-2.2c0.2-0.3,0.5-0.4,0.9-0.4c-0.4,0.2-0.6,0.6-0.6,1c0,0.4,0.2,0.7,0.5,0.9
	C47.1,58.8,47.3,59,47.6,59.2z"/>
<path class="st26" d="M49.4,56.8c0.5,0.2,0.9,0.6,1.2,1.1c0.2,0.3,0.3,0.6,0.3,0.9c0,0.3-0.4,0.3-0.6,0.2s-0.5-0.6-0.8-0.8
	c-0.3-0.2-0.6-0.4-0.9-0.6l-0.3-0.1l-0.8-0.2c-0.2,0-0.4-0.1-0.5-0.3c-0.1-0.4,0.6-0.4,0.9-0.4C48.5,56.4,48.9,56.6,49.4,56.8z"/>
<path class="st24" d="M49.5,45.7c-0.1,0-0.2,0.1-0.3,0.1c-0.3,0.2-0.4,0.6-0.7,0.8c-0.5,0.5-1.1,0.9-1.8,1c-1.1,0.3-2.2,0.1-3.2-0.5
	c-0.9-0.7-0.4-2,0.3-2.6c0.8-0.7,1.9-1,2.9-0.8c0.5,0.1,1,0.2,1.5,0.5c0.4,0.2,0.8,0.7,1.2,0.9c0.2,0.1,0.6,0,0.4,0.4
	C49.7,45.6,49.6,45.7,49.5,45.7z"/>
<path class="st25" d="M45.6,47.1c0.8,0,1.6-0.3,2.3-0.8c0.5-0.5,1-1.2,0-1.8c-0.6-0.3-1.3-0.5-2-0.5c0.9-0.2,1.8,0.1,2.5,0.7
	c0.2,0.2,0.3,0.3,0.5,0.4c0.1,0.1,0.6,0.1,0.7,0.2s-0.5,0.4-0.6,0.5c-0.3,0.2-0.4,0.5-0.7,0.8c-0.2,0.2-0.5,0.4-0.7,0.5
	c-0.8,0.5-1.7,0.6-2.6,0.4c-0.8-0.2-1.7-0.6-1.7-1.6c0-0.3,0.2-0.6,0.5-0.8c-0.2,0.4-0.2,0.8,0,1.2c0.2,0.3,0.6,0.5,0.9,0.5
	C45,47,45.3,47.1,45.6,47.1z"/>
<path class="st26" d="M45.8,44.1c0.5-0.1,1.1,0,1.6,0.2c0.3,0.1,0.6,0.3,0.8,0.5c0.2,0.3-0.1,0.5-0.4,0.5s-0.7-0.2-1.1-0.2
	c-0.4-0.1-0.7-0.1-1.1,0l-0.3,0.1c-0.3,0.1-0.5,0.1-0.8,0.2s-0.4,0.2-0.5,0c-0.3-0.3,0.3-0.7,0.5-0.8C44.8,44.3,45.3,44.1,45.8,44.1
	z"/>
<path class="st24" d="M46.6,58.6c-0.1,0-0.2,0-0.3,0c-0.4,0.1-0.6,0.4-0.9,0.6c-0.6,0.3-1.4,0.4-2.1,0.2c-1.1-0.1-2.1-0.7-2.8-1.6
	c-0.6-1,0.3-2,1.2-2.3c1-0.3,2.1-0.2,3,0.3c0.5,0.2,0.9,0.6,1.3,1c0.3,0.4,0.5,0.9,0.8,1.2c0.2,0.1,0.5,0.3,0.2,0.5
	C46.9,58.6,46.7,58.6,46.6,58.6z"/>
<path class="st25" d="M42.5,58.5c0.8,0.3,1.6,0.3,2.4,0.1c0.7-0.3,1.4-0.8,0.7-1.7c-0.5-0.5-1-0.9-1.7-1.1c0.9,0.1,1.7,0.7,2.1,1.5
	c0.1,0.2,0.2,0.4,0.4,0.6c0.1,0.1,0.5,0.3,0.5,0.4s-0.7,0.2-0.8,0.2c-0.3,0.1-0.6,0.3-0.9,0.5c-0.3,0.1-0.6,0.2-0.9,0.3
	c-0.9,0.2-1.8,0-2.6-0.5c-0.7-0.4-1.4-1.2-1.1-2.1c0.2-0.3,0.4-0.5,0.8-0.6c-0.3,0.3-0.5,0.7-0.4,1.1c0.1,0.3,0.4,0.6,0.7,0.8
	C41.9,58.2,42.2,58.3,42.5,58.5z"/>
<path class="st26" d="M43.7,55.7c0.5,0.1,1,0.4,1.4,0.8c0.2,0.2,0.4,0.5,0.5,0.8c0,0.3-0.3,0.4-0.5,0.3s-0.6-0.4-0.9-0.6
	c-0.3-0.2-0.7-0.3-1-0.4c-0.1,0-0.2,0-0.3-0.1c-0.3,0-0.5-0.1-0.8-0.1c-0.2,0-0.5,0-0.5-0.2c-0.2-0.4,0.5-0.5,0.7-0.6
	C42.7,55.6,43.2,55.6,43.7,55.7z"/>
<path class="st24" d="M47.8,39.7c-0.1,0.1-0.2,0.1-0.2,0.2c-0.3,0.3-0.3,0.7-0.4,1c-0.3,0.6-0.9,1.1-1.5,1.4c-1,0.6-2.1,0.7-3.2,0.4
	c-1.1-0.4-1-1.8-0.4-2.6c0.6-0.9,1.6-1.4,2.6-1.6c0.5-0.1,1-0.1,1.6,0.1c0.5,0.2,0.9,0.4,1.4,0.5c0.2,0,0.6-0.1,0.5,0.3
	C48,39.5,48,39.6,47.8,39.7z"/>
<path class="st25" d="M44.5,42c0.8-0.2,1.5-0.7,2-1.4c0.4-0.6,0.7-1.4-0.5-1.8c-0.7-0.2-1.4-0.1-2.1,0.1c0.8-0.4,1.8-0.4,2.6,0
	c0.2,0.1,0.4,0.2,0.6,0.2c0.2,0,0.6-0.1,0.7,0s-0.4,0.6-0.5,0.6c-0.2,0.3-0.3,0.6-0.5,0.9c-0.2,0.3-0.3,0.5-0.5,0.7
	c-0.6,0.7-1.5,1.1-2.4,1.2c-0.8,0-1.8-0.1-2.1-1c-0.1-0.4,0-0.7,0.3-1c-0.1,0.4,0,0.9,0.3,1.2c0.3,0.2,0.6,0.3,1,0.2
	C43.8,42.1,44.2,42.1,44.5,42z"/>
<path class="st26" d="M43.8,39.1c0.5-0.2,1.1-0.3,1.6-0.2c0.3,0,0.6,0.1,0.9,0.3c0.2,0.2,0,0.5-0.2,0.6s-0.8,0-1.1,0.1
	c-0.4,0.1-0.7,0.2-1.1,0.3l-0.3,0.1c-0.2,0.1-0.4,0.3-0.7,0.4s-0.3,0.3-0.5,0.2c-0.4-0.2,0.1-0.7,0.3-0.9
	C43,39.6,43.4,39.3,43.8,39.1z"/>
<path class="st24" d="M44.9,34.6c0,0.1-0.1,0.2-0.1,0.3C44.8,35.3,45,35.6,45,36c0.1,0.7-0.1,1.4-0.5,2c-0.5,1-1.3,1.8-2.4,2.1
	c-1.1,0.3-1.8-1-1.8-1.9c0-1.1,0.5-2.1,1.3-2.8c0.4-0.4,0.8-0.6,1.3-0.8c0.5-0.1,1-0.2,1.5-0.4c0.2-0.1,0.4-0.4,0.6,0
	C45,34.4,45,34.5,44.9,34.6z"/>
<path class="st25" d="M43.5,38.4c0.5-0.6,0.8-1.4,0.9-2.2c-0.1-0.7-0.3-1.5-1.4-1.2c-0.6,0.2-1.2,0.7-1.6,1.2
	c0.4-0.8,1.2-1.3,2.1-1.4c0.2,0,0.5-0.1,0.7-0.2c0.1-0.1,0.5-0.4,0.6-0.4s0,0.7,0,0.8c0,0.3,0.1,0.7,0.1,1c0,0.3,0,0.6,0,0.9
	c-0.2,0.9-0.6,1.7-1.3,2.2c-0.6,0.5-1.6,0.9-2.3,0.3c-0.2-0.2-0.3-0.6-0.3-0.9c0.2,0.4,0.5,0.7,0.9,0.8c0.4,0,0.7-0.1,1-0.4
	C43.1,38.8,43.3,38.6,43.5,38.4z"/>
<path class="st26" d="M41.3,36.4c0.3-0.5,0.7-0.9,1.2-1.1c0.3-0.2,0.6-0.2,0.9-0.2c0.3,0.1,0.3,0.4,0.1,0.6s-0.6,0.4-0.9,0.7
	c-0.3,0.2-0.5,0.5-0.7,0.8c0,0.1-0.1,0.2-0.2,0.3c-0.1,0.2-0.2,0.5-0.3,0.7c-0.1,0.1-0.1,0.4-0.3,0.4c-0.5,0.1-0.3-0.6-0.3-0.9
	C40.9,37.2,41.1,36.8,41.3,36.4z"/>
<path class="st24" d="M47.1,48.6c-0.1,0.1-0.2,0.1-0.2,0.2c-0.2,0.3-0.3,0.7-0.4,1c-0.3,0.6-0.9,1.1-1.5,1.4c-1,0.6-2.1,0.7-3.2,0.4
	c-1.1-0.4-1-1.8-0.4-2.6c0.6-0.9,1.6-1.4,2.6-1.6c0.5-0.1,1.1-0.1,1.6,0.1c0.5,0.1,0.9,0.5,1.4,0.5c0.2,0,0.6-0.1,0.5,0.3
	C47.3,48.4,47.2,48.5,47.1,48.6z"/>
<path class="st25" d="M43.8,50.9c0.8-0.2,1.5-0.7,2-1.4c0.4-0.6,0.7-1.4-0.5-1.8c-0.7-0.1-1.4-0.1-2,0.1c0.8-0.4,1.8-0.4,2.6,0
	c0.2,0.1,0.4,0.2,0.6,0.2c0.2,0,0.6-0.1,0.7,0s-0.4,0.6-0.5,0.6c-0.2,0.3-0.3,0.6-0.5,0.9c-0.2,0.3-0.3,0.5-0.5,0.7
	c-0.6,0.6-1.5,1-2.4,1.1c-0.8,0-1.8-0.1-2.1-1c-0.1-0.3,0-0.7,0.2-0.9c-0.1,0.4,0,0.9,0.4,1.2c0.3,0.2,0.6,0.3,1,0.2
	C43.1,51,43.5,51,43.8,50.9z"/>
<path class="st26" d="M43.1,48c0.5-0.2,1.1-0.3,1.6-0.3c0.3,0,0.6,0.1,0.9,0.3c0.2,0.2,0,0.5-0.2,0.6s-0.8,0-1.1,0.1
	c-0.4,0-0.7,0.1-1.1,0.3l-0.3,0.1c-0.2,0.1-0.4,0.3-0.7,0.4s-0.3,0.3-0.5,0.2c-0.4-0.2,0.1-0.7,0.2-0.9C42.2,48.4,42.6,48.2,43.1,48
	z"/>
<path class="st24" d="M45.5,42.8c-0.1,0.1-0.2,0.1-0.2,0.2c-0.2,0.3-0.3,0.7-0.4,1c-0.3,0.6-0.9,1.1-1.5,1.4c-1,0.6-2.1,0.7-3.2,0.4
	c-1.1-0.4-1-1.8-0.4-2.6c0.6-0.9,1.5-1.4,2.6-1.6c0.5-0.1,1.1-0.1,1.6,0.1c0.5,0.1,0.9,0.5,1.4,0.5c0.2,0,0.6-0.1,0.5,0.3
	C45.7,42.6,45.6,42.7,45.5,42.8z"/>
<path class="st25" d="M42.2,45.1c0.8-0.2,1.5-0.7,2-1.4c0.4-0.7,0.7-1.4-0.5-1.8c-0.7-0.2-1.4-0.1-2,0.1c0.8-0.4,1.8-0.4,2.6,0
	c0.2,0.1,0.4,0.2,0.6,0.2c0.2,0,0.6,0,0.7,0s-0.4,0.6-0.5,0.6c-0.2,0.3-0.3,0.6-0.5,0.9c-0.2,0.3-0.3,0.5-0.5,0.7
	c-0.6,0.7-1.5,1.1-2.4,1.1c-0.8,0-1.8-0.1-2.1-1c-0.1-0.3,0-0.7,0.2-0.9c-0.1,0.4,0,0.9,0.3,1.2c0.3,0.2,0.7,0.3,1,0.2
	C41.5,45.2,41.9,45.1,42.2,45.1z"/>
<path class="st26" d="M41.5,42.2c0.5-0.2,1.1-0.3,1.6-0.2c0.3,0,0.6,0.1,0.9,0.3c0.2,0.2,0,0.5-0.3,0.6s-0.7,0-1.1,0.1
	c-0.4,0.1-0.7,0.2-1.1,0.3c-0.1,0-0.2,0.1-0.3,0.1c-0.2,0.1-0.5,0.3-0.7,0.4c-0.1,0.1-0.3,0.3-0.5,0.2c-0.4-0.2,0.1-0.7,0.3-0.9
	C40.7,42.6,41.1,42.4,41.5,42.2z"/>
<path class="st27" d="M50.9,64.4c-0.1,0-0.2-0.1-0.3-0.1c-0.4,0-0.7,0.2-1.1,0.2c-0.7,0.1-1.4-0.1-2-0.4c-1-0.5-1.8-1.3-2.2-2.4
	c-0.3-1.1,1-1.8,1.9-1.8c1.1,0,2.1,0.5,2.8,1.2c0.4,0.4,0.6,0.8,0.8,1.3c0.1,0.5,0.2,1,0.4,1.5c0.1,0.2,0.4,0.4,0,0.6
	C51.2,64.5,51,64.5,50.9,64.4z"/>
<path class="st28" d="M47.1,63c0.6,0.5,1.4,0.8,2.2,0.8c0.7-0.1,1.6-0.3,1.2-1.4c-0.3-0.6-0.7-1.2-1.2-1.6c0.8,0.4,1.3,1.2,1.4,2.1
	c0,0.2,0.1,0.4,0.2,0.6c0.1,0.1,0.4,0.5,0.4,0.6s-0.7,0-0.8,0c-0.3,0-0.7,0.1-1,0.1c-0.3,0-0.6,0-0.9,0c-0.9-0.2-1.7-0.6-2.3-1.3
	c-0.5-0.6-0.9-1.6-0.3-2.3c0.2-0.2,0.6-0.4,0.9-0.3c-0.4,0.2-0.7,0.6-0.8,1c0,0.4,0.1,0.7,0.4,1C46.7,62.6,46.9,62.8,47.1,63z"/>
<path class="st29" d="M49.1,60.8c0.5,0.3,0.9,0.7,1.1,1.2c0.2,0.3,0.2,0.6,0.2,0.9c-0.1,0.3-0.4,0.3-0.6,0.1s-0.4-0.6-0.7-0.9
	c-0.2-0.3-0.5-0.5-0.9-0.7c-0.1-0.1-0.2-0.1-0.3-0.2c-0.2-0.1-0.5-0.2-0.7-0.3c-0.2-0.1-0.4-0.1-0.5-0.3c-0.1-0.4,0.6-0.3,0.9-0.3
	C48.3,60.4,48.7,60.5,49.1,60.8z"/>
<path class="st27" d="M45.2,54.3c-0.1,0-0.2,0-0.3,0.1c-0.3,0.2-0.5,0.5-0.8,0.7c-0.6,0.4-1.3,0.6-2,0.6c-1.1,0.1-2.2-0.3-3-1
	c-0.8-0.8-0.1-2,0.7-2.5c0.9-0.5,2-0.6,3-0.3c0.5,0.2,1,0.4,1.4,0.7c0.4,0.3,0.6,0.8,1,1.1c0.2,0.1,0.6,0.2,0.3,0.5
	C45.4,54.3,45.3,54.3,45.2,54.3z"/>
<path class="st28" d="M41.2,55c0.8,0.1,1.6,0,2.4-0.4c0.6-0.4,1.2-1,0.3-1.8c-0.5-0.4-1.2-0.7-1.9-0.8c0.9,0,1.8,0.4,2.3,1.1
	c0.1,0.2,0.3,0.4,0.4,0.5c0.1,0.1,0.6,0.2,0.6,0.4s-0.6,0.3-0.7,0.3c-0.3,0.2-0.5,0.5-0.8,0.6c-0.3,0.2-0.5,0.3-0.8,0.4
	c-0.8,0.3-1.8,0.3-2.6,0c-0.8-0.3-1.6-0.9-1.4-1.8c0.1-0.3,0.3-0.6,0.6-0.7c-0.3,0.3-0.3,0.8-0.2,1.2c0.2,0.3,0.5,0.5,0.8,0.6
	C40.5,54.8,40.8,54.9,41.2,55z"/>
<path class="st29" d="M41.8,52c0.5,0,1.1,0.2,1.6,0.5c0.2,0.2,0.6,0.4,0.7,0.7s-0.2,0.5-0.5,0.4s-0.7-0.3-1-0.4
	C42.2,53,41.8,53,41.5,53h-0.3c-0.3,0-0.5,0-0.8,0.1c-0.2,0-0.4,0.1-0.5,0c-0.3-0.4,0.4-0.6,0.6-0.7C40.9,52.1,41.4,52,41.8,52z"/>
<path class="st27" d="M45.7,38.9c-0.1,0-0.2,0.1-0.3,0.1c-0.3,0.2-0.4,0.6-0.6,0.9c-0.5,0.6-1.1,0.9-1.8,1.1c-1,0.4-2.2,0.3-3.2-0.2
	c-1-0.6-0.6-2,0-2.6c0.7-0.7,1.8-1.2,2.8-1.1c0.5,0,1,0.1,1.5,0.3c0.4,0.2,0.8,0.7,1.3,0.8c0.2,0,0.6,0,0.4,0.4
	C45.9,38.8,45.8,38.8,45.7,38.9z"/>
<path class="st28" d="M42,40.6c0.8-0.1,1.6-0.4,2.2-1c0.5-0.6,0.9-1.3-0.2-1.8c-0.6-0.3-1.3-0.3-2-0.2c0.9-0.3,1.8-0.1,2.5,0.4
	c0.2,0.1,0.4,0.3,0.6,0.3c0.2,0,0.6,0,0.7,0.2s-0.5,0.5-0.6,0.6c-0.3,0.2-0.4,0.6-0.6,0.8c-0.2,0.2-0.4,0.4-0.7,0.6
	c-0.7,0.5-1.6,0.8-2.5,0.7c-0.8-0.1-1.8-0.4-1.9-1.4c0-0.3,0.2-0.7,0.4-0.9c-0.2,0.4-0.1,0.9,0.2,1.2c0.3,0.3,0.6,0.4,1,0.4
	C41.4,40.6,41.7,40.6,42,40.6z"/>
<path class="st29" d="M41.8,37.6c0.5-0.2,1.1-0.2,1.6,0c0.3,0.1,0.6,0.2,0.8,0.5c0.2,0.3-0.1,0.5-0.3,0.5s-0.8-0.1-1.1-0.1
	c-0.4,0-0.7,0-1.1,0.1l-0.3,0.1c-0.2,0.1-0.5,0.2-0.7,0.3s-0.4,0.2-0.5,0.1c-0.4-0.3,0.2-0.7,0.4-0.8C40.9,37.9,41.3,37.7,41.8,37.6
	z"/>
<path class="st27" d="M50.9,51.1c-0.1,0-0.2,0.1-0.3,0.1c-0.3,0.2-0.4,0.6-0.6,0.9c-0.5,0.5-1.1,0.9-1.8,1.1
	c-1.1,0.4-2.2,0.3-3.2-0.2c-1-0.6-0.6-2,0.1-2.6c0.8-0.7,1.8-1.1,2.9-1c0.5,0,1,0.1,1.5,0.4c0.4,0.2,0.8,0.7,1.3,0.8
	c0.2,0,0.6,0,0.4,0.4C51.2,51,51.1,51.1,50.9,51.1z"/>
<path class="st28" d="M47.2,52.7c0.8-0.1,1.6-0.4,2.2-1c0.5-0.6,0.9-1.3-0.1-1.8c-0.6-0.3-1.3-0.4-2-0.3c0.9-0.3,1.8-0.1,2.5,0.5
	c0.2,0.2,0.4,0.3,0.6,0.4c0.2,0.1,0.6,0.1,0.7,0.2s-0.5,0.5-0.6,0.5c-0.3,0.2-0.4,0.6-0.6,0.8c-0.2,0.2-0.4,0.4-0.7,0.6
	c-0.7,0.5-1.7,0.7-2.6,0.6c-0.8-0.1-1.8-0.5-1.8-1.4c0-0.3,0.2-0.7,0.4-0.9c-0.2,0.4-0.1,0.9,0.1,1.2c0.3,0.3,0.6,0.4,1,0.4
	C46.6,52.6,46.9,52.7,47.2,52.7z"/>
<path class="st29" d="M47.1,49.7c0.5-0.1,1.1-0.1,1.6,0.1c0.3,0.1,0.6,0.3,0.8,0.5c0.2,0.3-0.1,0.5-0.4,0.5s-0.7-0.1-1.1-0.2
	c-0.4,0-0.8,0-1.1,0.1l-0.3,0.1c-0.3,0.1-0.5,0.2-0.8,0.3c-0.1,0.1-0.4,0.2-0.5,0.1c-0.4-0.3,0.2-0.7,0.4-0.8
	C46.2,50,46.6,49.8,47.1,49.7z"/>
<path class="st27" d="M51.6,55.3c-0.1,0-0.2,0.1-0.3,0.1c-0.3,0.2-0.4,0.6-0.7,0.8c-0.5,0.5-1.2,0.8-1.9,0.9
	c-1.1,0.3-2.2,0.1-3.2-0.6c-0.9-0.7-0.4-2,0.3-2.6c0.9-0.6,1.9-0.9,3-0.8c0.5,0.1,1,0.2,1.5,0.5c0.4,0.2,0.8,0.7,1.2,0.9
	c0.2,0.1,0.6,0.1,0.4,0.4C51.9,55.2,51.7,55.3,51.6,55.3z"/>
<path class="st28" d="M47.7,56.5c0.8,0,1.6-0.3,2.3-0.7c0.5-0.5,1-1.2,0.1-1.8c-0.6-0.3-1.3-0.5-2-0.5c0.9-0.2,1.8,0.1,2.5,0.8
	c0.1,0.2,0.3,0.3,0.5,0.4c0.1,0.1,0.6,0.1,0.7,0.3s-0.6,0.4-0.6,0.5c-0.3,0.2-0.4,0.5-0.7,0.7c-0.2,0.2-0.5,0.4-0.7,0.5
	c-0.8,0.4-1.7,0.6-2.6,0.4c-0.8-0.2-1.7-0.7-1.7-1.6c0.1-0.3,0.2-0.6,0.5-0.8c-0.2,0.4-0.2,0.8,0,1.2c0.2,0.3,0.5,0.5,0.9,0.5
	C47.1,56.4,47.4,56.5,47.7,56.5z"/>
<path class="st29" d="M47.9,53.5c0.5-0.1,1.1,0,1.6,0.2c0.2,0.1,0.6,0.3,0.8,0.6s-0.1,0.5-0.4,0.5s-0.7-0.2-1.1-0.3
	c-0.4,0-0.7,0-1.1,0h-0.3c-0.3,0.1-0.5,0.1-0.8,0.2c-0.2,0-0.4,0.2-0.6,0c-0.3-0.3,0.3-0.7,0.5-0.8C47,53.7,47.5,53.6,47.9,53.5z"/>
<path class="st27" d="M48.7,42c-0.1,0-0.2,0.1-0.2,0.2c-0.2,0.3-0.2,0.7-0.4,1c-0.3,0.6-0.8,1.2-1.4,1.5c-0.9,0.6-2.1,0.8-3.2,0.6
	c-1.1-0.3-1.1-1.8-0.6-2.5c0.6-0.9,1.5-1.5,2.5-1.7c0.5-0.1,1.1-0.1,1.6,0c0.5,0.1,1,0.4,1.4,0.4c0.2,0,0.6-0.1,0.5,0.3
	C48.9,41.8,48.8,42,48.7,42z"/>
<path class="st28" d="M45.5,44.5c0.8-0.3,1.4-0.8,1.9-1.5c0.3-0.7,0.6-1.5-0.6-1.8c-0.7-0.1-1.4,0-2,0.2c0.8-0.5,1.8-0.5,2.6-0.1
	c0.2,0.1,0.4,0.2,0.6,0.2c0.2,0,0.6-0.1,0.7,0s-0.4,0.6-0.4,0.7c-0.2,0.3-0.3,0.6-0.4,0.9c-0.1,0.3-0.3,0.5-0.5,0.8
	c-0.6,0.7-1.5,1.1-2.4,1.2c-0.8,0.1-1.8,0-2.2-0.9c-0.1-0.3,0-0.7,0.2-0.9c-0.1,0.4,0.1,0.9,0.4,1.1c0.3,0.2,0.7,0.2,1,0.2
	C44.8,44.7,45.1,44.6,45.5,44.5z"/>
<path class="st29" d="M44.6,41.6c0.5-0.3,1-0.4,1.6-0.3c0.3,0,0.6,0.1,0.9,0.3c0.2,0.2,0,0.5-0.2,0.6s-0.7,0-1.1,0.1
	c-0.4,0.1-0.7,0.2-1.1,0.4c-0.1,0-0.2,0.1-0.3,0.2c-0.2,0.1-0.4,0.3-0.7,0.4c-0.1,0.1-0.3,0.3-0.5,0.2c-0.4-0.2,0-0.7,0.2-0.9
	C43.8,42.2,44.2,41.9,44.6,41.6z"/>
</svg>
