<?xml version="1.0" encoding="utf-8"?>
<!-- Generator: Adobe Illustrator 26.0.0, SVG Export Plug-In . SVG Version: 6.00 Build 0)  -->
<svg version="1.1" id="Layer_1" xmlns="http://www.w3.org/2000/svg" xmlns:xlink="http://www.w3.org/1999/xlink" x="0px" y="0px"
	 viewBox="0 0 99.9 92.4" style="enable-background:new 0 0 99.9 92.4;" xml:space="preserve">
<style type="text/css">
	.st0{fill:#CDC6BD;}
	.st1{fill:#E5DED6;}
	.st2{fill:#A59C92;}
	.st3{fill:#756A60;}
	.st4{opacity:0.75;fill:#756A60;enable-background:new    ;}
	.st5{fill:#9A8E7E;}
	.st6{fill:#AC9E8F;}
	.st7{fill:#7C6F62;}
	.st8{fill:#584B40;}
	.st9{fill:#A69785;}
	.st10{fill:#867767;}
	.st11{fill:#5F5044;}
	.st12{fill:#B9A997;}
	.st13{opacity:0.55;fill:#584B40;enable-background:new    ;}
	.st14{opacity:0.77;fill:#C7D3D3;enable-background:new    ;}
	.st15{opacity:0.76;fill:#EDF9F9;enable-background:new    ;}
	.st16{opacity:0.77;}
	.st17{fill:#C7D3D3;}
	.st18{fill:#FF593E;}
	.st19{fill:#F43D2A;}
	.st20{fill:#FFBBAE;}
	.st21{fill:#E20722;}
	.st22{fill:url(#SVGID_1_);}
	.st23{fill:url(#SVGID_00000106114254526941089450000009865975722887467446_);}
	.st24{fill:#91877D;}
	.st25{opacity:0.3;fill:#756A60;enable-background:new    ;}
	.st26{fill:#706359;}
	.st27{fill:#847970;}
	.st28{fill:#C1B8AE;}
	.st29{fill:#847C74;}
	.st30{opacity:0.58;fill:#756A60;enable-background:new    ;}
</style>
<path class="st0" d="M51.5,75.4c-0.5,0.3-0.9,0.8-1.2,1.2c-0.5,0.5-0.9,1.1-1.4,1.6c-0.2,0.2-0.5,0.4-0.8,0.4
	c-0.3,0-0.4-0.3-0.6-0.5s-0.4-0.2-0.6-0.4c-0.3-0.3-0.3-0.7,0-1c0.1-0.1,0.1-0.1,0.2-0.1c0.3-0.1,0.6-0.3,0.9-0.3
	c1-0.3,1.8-1.4,2.6-2.1c0.4-0.4,1-1.2,1.6-0.7c0.3,0.3,0.5,0.7,0.5,1.1C52.7,75.2,52,75.2,51.5,75.4z"/>
<path class="st1" d="M48.1,77.4c0,0.3,0.1,0.5,0.4,0.5c0.1,0,0.1,0,0.2,0c0.5-0.1,0.7-0.6,1-1c0.3-0.5,0.7-1,1.2-1.4
	c0.2-0.2,0.3-0.3,0.5-0.4c0.2-0.1,0.9-0.4,0.3-0.6c-0.3-0.1-0.6,0.2-0.8,0.3c-0.7,0.6-1.1,1.5-1.9,1.9C48.7,76.9,48.2,77,48.1,77.4z
	"/>
<path class="st2" d="M47,77.7c0.2,0.2,0.4,0.2,0.6,0.4s0.3,0.5,0.6,0.5c0.1,0,0.2,0,0.3-0.1c-0.4-0.2-0.7-0.6-1.1-1
	c-0.1-0.1-0.1-0.4,0-0.5c0,0,0,0,0,0c0.5-0.4,1.2-0.5,1.6-0.9s1.2-1.3,1.7-1.7s0.6-0.7,1.2-0.6c0.4,0,0.7,0.3,0.7,0.6
	c0,0.2-0.1,0.4-0.2,0.5c0.2-0.1,0.3-0.2,0.3-0.4c0-0.4-0.1-0.8-0.5-1.1c-0.6-0.6-1.2,0.3-1.6,0.7c-0.8,0.7-1.6,1.8-2.6,2.1
	c-0.3,0.1-0.6,0.2-0.9,0.3c-0.4,0.2-0.5,0.6-0.4,0.9C46.9,77.6,46.9,77.7,47,77.7z"/>
<path class="st3" d="M47.5,76.4c0.3,0,0.7,0,1-0.2c0.6-0.5,1.2-0.9,1.7-1.5c0.3-0.5,0.9-0.9,1.4-1.1c0.5-0.1,1,0.2,1.1,0.7
	c0,0,0,0,0,0c0-0.4-0.2-0.7-0.5-0.9c-0.6-0.6-1.2,0.3-1.6,0.7c-0.8,0.7-1.6,1.8-2.6,2.1L47.5,76.4z"/>
<path class="st4" d="M52.8,74.4c0-0.2-0.1-0.3-0.1-0.5l0,0c-0.1-0.1-0.2-0.3-0.3-0.4c-0.6-0.6-1.2,0.3-1.6,0.7
	c-0.6,0.7-1.3,1.3-2.1,1.9c0.8-0.4,1.7-0.5,2.5-0.3c0.1-0.1,0.2-0.2,0.3-0.3c0.3-0.1,0.6-0.2,0.9-0.3l0,0l0.1-0.1c0,0,0.1,0,0.1-0.1
	c0.1-0.1,0.1-0.2,0.2-0.3C52.8,74.5,52.8,74.5,52.8,74.4z"/>
<path class="st5" d="M58,68.8c-0.4,0.5-0.8,1-1.1,1.6c-0.4,0.7-0.8,1.4-1.3,2c-0.2,0.3-0.5,0.5-0.8,0.6c-0.3,0-0.5-0.2-0.7-0.4
	s-0.5-0.2-0.8-0.4c-0.4-0.3-0.4-0.8-0.2-1.1c0.1-0.1,0.1-0.1,0.2-0.2c0.3-0.2,0.6-0.4,0.9-0.5c1.1-0.5,1.8-1.9,2.5-2.8
	c0.4-0.5,0.8-1.5,1.6-1c0.4,0.2,0.7,0.7,0.7,1.1C59.1,68.3,58.4,68.4,58,68.8z"/>
<path class="st6" d="M54.5,71.6c0,0.3,0.3,0.5,0.5,0.5c0.1,0,0.1,0,0.2,0c0.5-0.2,0.7-0.8,0.9-1.3c0.3-0.6,0.6-1.2,1-1.8
	c0.1-0.2,0.3-0.4,0.5-0.6c0.2-0.1,0.9-0.6,0.3-0.7c-0.3-0.1-0.6,0.3-0.8,0.5c-0.6,0.8-0.9,1.9-1.8,2.4C55,70.9,54.5,71.2,54.5,71.6z
	"/>
<path class="st7" d="M53.3,72.2c0.2,0.2,0.5,0.2,0.8,0.4s0.4,0.5,0.7,0.4c0.1,0,0.2-0.1,0.3-0.2c-0.5-0.2-1-0.5-1.4-0.9
	c-0.2-0.1-0.2-0.4-0.1-0.6c0,0,0,0,0,0c0.4-0.5,1.3-0.7,1.6-1.3s1.1-1.7,1.5-2.1s0.5-0.8,1.2-0.9c0.4-0.1,0.8,0.2,0.9,0.6
	c0,0.2,0,0.4-0.1,0.6c0.2-0.1,0.3-0.3,0.3-0.6c0-0.5-0.3-0.9-0.7-1.1c-0.8-0.5-1.2,0.5-1.6,1c-0.7,0.9-1.4,2.3-2.5,2.8
	c-0.3,0.1-0.7,0.3-0.9,0.5c-0.4,0.2-0.5,0.7-0.2,1.1C53.2,72,53.2,72.1,53.3,72.2z"/>
<path class="st8" d="M53.7,70.6c0.4,0,0.7-0.2,1.1-0.3c0.6-0.6,1.1-1.3,1.6-1.9c0.3-0.6,0.8-1.2,1.4-1.5c0.5-0.2,1.1,0,1.3,0.6
	c0,0,0,0,0,0c-0.1-0.4-0.3-0.7-0.7-0.9c-0.8-0.5-1.2,0.5-1.6,1c-0.7,0.9-1.4,2.3-2.5,2.8L53.7,70.6z"/>
<path class="st5" d="M57.7,66.3c0-0.1,0-0.2,0.1-0.3c0.1-0.3,0.4-0.5,0.7-0.7C58.7,65,59,64.5,59,64c0.1-0.4,0.2-0.9,0.3-1.3
	c0.1-0.3,0.3-0.5,0.6-0.6c0.3,0,0.5,0.3,0.6,0.6c0.1,0.3,0.1,0.7-0.2,1c-0.3,0.3-0.5,0.7-0.6,1.1c-0.1,0.4-0.2,0.7-0.2,1.1
	c0,0.3,0,0.6-0.1,0.9c-0.1,0.2-0.4,0.3-0.6,0.2c-0.2-0.1-0.2-0.2-0.4-0.3s-0.4-0.1-0.5-0.1C57.7,66.6,57.6,66.4,57.7,66.3z"/>
<path class="st7" d="M57.7,66c0,0.1-0.1,0.2-0.1,0.3c0,0.2,0.1,0.3,0.2,0.4c0.2,0.1,0.4,0.1,0.5,0.1s0.2,0.2,0.4,0.3
	c0.1,0.1,0.3,0.1,0.4,0c-0.4-0.1-0.2-0.5-0.5-0.7s-0.5,0-0.5-0.3s0.3-0.4,0.5-0.5c0.5-0.5,0.3-1.3,0.6-1.9s0.6-1.2,1.2-0.8
	c0,0,0.1,0.1,0.1,0.1c0-0.1,0-0.2,0-0.2c-0.1-0.3-0.3-0.6-0.6-0.6c-0.3,0.1-0.5,0.3-0.6,0.6c-0.1,0.4-0.2,0.9-0.3,1.3
	c0,0.5-0.3,1-0.6,1.3C58.1,65.5,57.8,65.7,57.7,66z"/>
<path class="st8" d="M57.7,66c0,0.1-0.1,0.2-0.1,0.3c0,0.1,0,0.2,0.1,0.3c-0.2-0.4,0.1-0.8,0.5-1c0.4-0.2,0.6-0.5,0.8-0.9
	c0-0.3,0.1-0.5,0.1-0.8c0-0.1,0-0.3,0.1-0.4s0.1-0.7,0.3-0.9c0.3-0.2,0.7-0.2,1,0.1c0,0,0,0,0,0c-0.1-0.3-0.3-0.6-0.6-0.5
	c-0.3,0.1-0.5,0.3-0.6,0.6c-0.1,0.4-0.2,0.9-0.3,1.3c0,0.5-0.3,1-0.6,1.3C58.1,65.5,57.8,65.7,57.7,66z"/>
<path class="st6" d="M59.4,65.5c0.1-0.6,0.3-1.2,0.6-1.8c0-0.1,0.5-0.7,0.2-0.7c-0.2,0-0.4,0.5-0.4,0.6c-0.2,0.5-0.3,0.9-0.5,1.4
	c-0.1,0.3-0.2,0.6-0.3,0.8c-0.1,0.1-0.1,0.3,0,0.4C59.3,66.7,59.4,65.7,59.4,65.5z"/>
<path class="st5" d="M57.7,62.6c-0.1-0.1-0.1-0.2-0.2-0.3c-0.1-0.3-0.1-0.7,0-1c0-0.5-0.1-1.1-0.5-1.5c-0.2-0.4-0.6-0.8-0.8-1.2
	c-0.1-0.3-0.1-0.6,0.1-0.9c0.3-0.2,0.6-0.2,0.9,0c0.3,0.2,0.6,0.5,0.6,0.9c0,0.5,0.2,0.9,0.3,1.3c0.2,0.4,0.4,0.8,0.7,1.1
	c0.2,0.2,0.4,0.4,0.6,0.7c0.1,0.3,0,0.5-0.3,0.6c-0.2,0.1-0.3,0-0.5,0.1s-0.3,0.2-0.5,0.3C58,62.8,57.8,62.7,57.7,62.6z"/>
<path class="st7" d="M57.6,62.3c0,0.1,0.1,0.2,0.2,0.3c0.1,0.2,0.3,0.2,0.5,0.2c0.2-0.1,0.3-0.2,0.5-0.3s0.3,0,0.5-0.1
	c0.1-0.1,0.2-0.2,0.3-0.3c-0.4,0.2-0.5-0.2-0.9-0.2s-0.4,0.4-0.6,0.2s0-0.5,0-0.8c0-0.7-0.7-1.3-0.9-1.9s-0.4-1.4,0.4-1.5
	c0.1,0,0.1,0,0.2,0c-0.1-0.1-0.1-0.1-0.2-0.2c-0.3-0.2-0.6-0.2-0.9,0c-0.2,0.3-0.2,0.6-0.1,0.9c0.2,0.4,0.5,0.8,0.8,1.2
	c0.3,0.4,0.5,0.9,0.5,1.5C57.5,61.6,57.5,62,57.6,62.3z"/>
<path class="st8" d="M57.6,62.3c0,0.1,0.1,0.2,0.2,0.3c0.1,0.1,0.2,0.2,0.3,0.2c-0.4-0.2-0.6-0.7-0.3-1.1c0,0,0,0,0,0
	c0.2-0.4,0.1-0.9-0.1-1.2c-0.2-0.2-0.3-0.5-0.4-0.7s-0.2-0.2-0.3-0.4s-0.4-0.7-0.4-0.9c0.1-0.4,0.4-0.7,0.8-0.6
	c-0.2-0.2-0.6-0.2-0.9,0c-0.2,0.3-0.2,0.6-0.1,0.9c0.2,0.4,0.5,0.8,0.8,1.2c0.3,0.4,0.5,0.9,0.5,1.5C57.5,61.6,57.5,62,57.6,62.3z"
	/>
<path class="st6" d="M58.5,60.7c-0.4-0.5-0.7-1.1-0.9-1.8c0-0.1-0.1-0.9-0.4-0.7s0.1,0.6,0.1,0.8c0.2,0.5,0.4,1,0.7,1.4
	c0.1,0.3,0.2,0.6,0.4,0.9s0.2,0.3,0.3,0.3C59.3,61.7,58.6,60.8,58.5,60.7z"/>
<path class="st9" d="M57.2,57.5c0-0.1-0.1-0.2-0.1-0.2c0-0.3,0-0.6,0.2-0.9c0.1-0.5,0-0.9-0.2-1.3c-0.2-0.4-0.4-0.8-0.5-1.2
	c-0.1-0.3,0-0.6,0.2-0.8c0.3-0.2,0.6-0.1,0.8,0.1c0.3,0.2,0.4,0.5,0.4,0.9c0,0.4,0,0.8,0.2,1.2c0.1,0.4,0.3,0.7,0.5,1
	c0.2,0.2,0.3,0.5,0.4,0.7c0,0.2-0.1,0.5-0.3,0.5c-0.2,0-0.3,0-0.5,0s-0.3,0.1-0.5,0.2C57.5,57.7,57.3,57.7,57.2,57.5z"/>
<path class="st10" d="M57.1,57.3c0,0.1,0.1,0.2,0.1,0.2c0.1,0.1,0.2,0.2,0.4,0.2c0.2,0,0.3-0.2,0.5-0.2s0.3,0,0.5,0
	c0.1,0,0.2-0.1,0.3-0.2c-0.4,0.1-0.4-0.2-0.8-0.3s-0.4,0.3-0.6,0.1s0.1-0.5,0.1-0.7c0.1-0.7-0.4-1.2-0.6-1.8s-0.2-1.3,0.5-1.3
	c0,0,0.1,0,0.2,0c-0.1-0.1-0.1-0.1-0.2-0.2c-0.2-0.2-0.5-0.3-0.8-0.1c-0.2,0.2-0.3,0.5-0.2,0.8c0.1,0.4,0.3,0.8,0.5,1.2
	c0.2,0.4,0.3,0.9,0.2,1.3C57.1,56.7,57.1,57,57.1,57.3z"/>
<path class="st11" d="M57.1,57.3c0,0.1,0.1,0.2,0.1,0.2c0,0.1,0.1,0.2,0.2,0.2c-0.3-0.3-0.4-0.7-0.1-1.1c0.2-0.3,0.2-0.7,0.1-1.1
	c-0.1-0.2-0.2-0.4-0.3-0.7l-0.2-0.4c-0.1-0.2-0.3-0.6-0.2-0.9c0.1-0.3,0.4-0.6,0.8-0.5c0,0,0,0,0,0c-0.2-0.2-0.5-0.3-0.8-0.1
	c-0.2,0.2-0.3,0.5-0.2,0.8c0.1,0.4,0.3,0.8,0.5,1.2c0.2,0.4,0.3,0.9,0.2,1.3C57.1,56.7,57.1,57,57.1,57.3z"/>
<path class="st12" d="M58.2,56c-0.3-0.5-0.5-1.1-0.6-1.7c0-0.1,0-0.8-0.2-0.6s0,0.6,0,0.7c0.1,0.5,0.3,0.9,0.4,1.3
	c0.1,0.3,0.1,0.6,0.2,0.8s0.1,0.2,0.2,0.3C58.8,57,58.2,56.1,58.2,56z"/>
<path class="st13" d="M58,55.3c-0.1-0.4-0.1-0.8-0.2-1.2c0-0.3-0.1-0.5-0.2-0.7l0,0c-0.1-0.1-0.1-0.1-0.2-0.2
	c-0.1-0.1-0.1-0.1-0.2-0.1l0,0h-0.2c0,0-0.1,0-0.1,0c0,0-0.1,0-0.1,0c-0.1,0-0.1,0-0.2,0.1c-0.2,0.2-0.3,0.5-0.2,0.8
	c0.1,0.4,0.3,0.8,0.5,1.2c0.1,0.2,0.2,0.4,0.2,0.6C57.5,55.5,57.7,55.3,58,55.3z"/>
<path class="st14" d="M83.5,9.7c-0.7,2.6-7.2,3.3-14.7,1.4S55.8,5.6,56.5,3s7.2-3.3,14.7-1.4S84.2,7.1,83.5,9.7z"/>
<path class="st15" d="M69.9,1.3c-2.6-0.6-5.3-0.8-8-0.7c-0.7,2.4-0.9,4.9-1.5,7.3c2.3,1.3,4.8,2.3,7.4,3C68.3,7.6,69,4.4,69.9,1.3z"
	/>
<g class="st16">
	<path class="st17" d="M84.5,10.5L84.5,10.5c-1.1,2.8-8,3.6-15.8,1.7S55.1,6.3,55.4,3.3c-0.5,1.5-7.6,25.8,7.5,32
		C79.6,36.9,84.5,10.5,84.5,10.5z"/>
</g>
<path class="st18" d="M82.4,16.5c-0.1,2.2-6.7,3.7-14.7,3.4s-14.3-2-14.2-4.3s6.3-2.9,14.4-2.5S82.5,14.3,82.4,16.5z"/>
<path class="st19" d="M82.4,16.1c-0.6-1.7-5.3-2.4-11.3-2.8c2.5,1.3,4.2,3.3,4.1,6c0,0.1,0,0.2,0,0.4l0,0c1.4-0.1,2.8-0.4,4.1-0.8
	h0.1c0.3-0.1,0.6-0.2,0.9-0.3l0.1,0l0,0c0.5-0.2,1-0.5,1.4-0.8l0.1-0.1l0,0c0.1-0.1,0.2-0.2,0.3-0.3v-0.1c0,0,0,0,0-0.1
	c0.1-0.2,0.1-0.3,0.1-0.5c0-0.1,0-0.3,0-0.4L82.4,16.1z"/>
<path class="st20" d="M82.1,16.6c-4.6,2.4-14.1,3-21.5,1.6c-4.8-0.9-6.4-2.3-6.9-3.9c-0.2,0.2-0.3,0.5-0.3,0.8
	c-0.1,2.2,6.3,4.3,14.4,4.7s14.6-1.1,14.7-3.4c0-0.1,0-0.2,0-0.2C82.3,16.4,82.2,16.5,82.1,16.6z"/>
<path class="st21" d="M53.3,16.2c-0.1,7.2,1.9,16,9.6,19.2c10.9,1,16.8-10.5,19.6-18.2C72.3,21.9,55.8,18.8,53.3,16.2z"/>
<linearGradient id="SVGID_1_" gradientUnits="userSpaceOnUse" x1="57.8765" y1="45.7677" x2="59.6678" y2="28.6851" gradientTransform="matrix(1 0 0 -1 0 62.7861)">
	<stop  offset="0.14" style="stop-color:#FF8C83"/>
	<stop  offset="0.25" style="stop-color:#FD817B"/>
	<stop  offset="0.45" style="stop-color:#F66365"/>
	<stop  offset="0.7" style="stop-color:#EC3342"/>
	<stop  offset="0.91" style="stop-color:#E20722"/>
</linearGradient>
<path class="st22" d="M55.2,17.3c0.2,2.9,0.6,6.7,1.6,9c1.2,2.9,3,5.4,5.3,7.5c-0.9-2.8-1.4-5.7-1.4-8.7c0-1.6,0.1-4.3,0.2-6.3
	C58.9,18.6,57,18,55.2,17.3z"/>
<linearGradient id="SVGID_00000140723391936259941810000008832108192715877292_" gradientUnits="userSpaceOnUse" x1="73.9779" y1="34.2186" x2="68.5779" y2="39.0786" gradientTransform="matrix(1 0 0 -1 0 62.7861)">
	<stop  offset="0" style="stop-color:#771303"/>
	<stop  offset="1" style="stop-color:#E20722"/>
</linearGradient>
<path style="fill:url(#SVGID_00000140723391936259941810000008832108192715877292_);" d="M79.9,18.1c-2.4,0.8-5,1.2-7.5,1.4
	C71,25.2,68.4,31.6,64,35.4l0,0h0.5C72.5,32.4,77.4,25.1,79.9,18.1z"/>
<path class="st3" d="M84.5,10.5L84.5,10.5c-0.2,0.4-0.4,0.8-0.8,1.1c-1.4,7.7-9.1,25.4-20.6,22.7C52.2,31.6,53.2,12,55.7,4.6
	c-0.2-0.4-0.3-0.9-0.2-1.3c-0.5,1.5-7.6,25.8,7.5,32C79.6,36.9,84.5,10.5,84.5,10.5z"/>
<path class="st3" d="M71.4,1.1c-8-2-15.2-1.1-15.9,1.9s5.2,7.1,13.2,9.1s15.2,1.2,15.9-1.9S79.4,3.1,71.4,1.1z M68.9,11.1
	c-7.5-1.8-13-5.5-12.3-8.1s7.2-3.3,14.7-1.4s13,5.5,12.3,8.1S76.3,13,68.9,11.1L68.9,11.1z"/>
<path class="st3" d="M84.5,10.5L84.5,10.5c-0.2,0.4-0.4,0.7-0.8,1c-1.3,7.7-9.1,25.4-20.6,22.7C52.2,31.6,53.2,12,55.7,4.6
	c-0.2-0.4-0.3-0.9-0.2-1.3c-0.5,1.5-7.6,25.8,7.5,32C79.6,36.9,84.5,10.5,84.5,10.5z"/>
<path class="st24" d="M48.7,90c-0.8,2.6-6.4,3.2-12.6,1.4s-10.6-5.4-9.8-8s6.6-3.9,12.8-2.1S49.5,87.4,48.7,90z"/>
<path class="st25" d="M46.5,86.3C45.3,85.1,44,84,42.6,83c-0.9-0.5-1.9-1-2.8-1.5c-0.3,0.5-0.6,0.9-0.9,1.4c0.4,1.2,0.8,2.5,1.2,3.7
	c0.7,1.8,0.4,3.9-0.8,5.4c4,0.7,7.4,0.3,8.8-1.1C48,89.3,47.5,87.7,46.5,86.3z"/>
<path class="st2" d="M38.3,82.6c0.3-0.3,0.6-0.7,0.8-1.1c-4.6-1.2-9.2-0.8-12.8,3.1c0.6,1.5,1.8,2.8,3.2,3.6
	c1.1-3.2,4.3-4.2,7.9-4.5C37.7,83.4,38,83,38.3,82.6z"/>
<path class="st26" d="M48.4,87.8c-2.2,2.7-7,2-10.2,1.4c-5-1-9.1-2.5-11.2-6.9c-0.3,0.3-0.5,0.6-0.7,1c-0.8,2.6,3.6,6.2,9.8,8
	s11.8,1.2,12.6-1.4C48.9,89.2,48.8,88.5,48.4,87.8z"/>
<path class="st2" d="M53.1,58.2c-3.7,8-10.5,18.6-13.1,21.5c-1.2,1.3-6.1,3.5-2.3,5.3c1.7,0.8,3-1,3.8-2.3c1.8-2.9,3.8-5.8,5.8-8.7
	c1.4-2.2,2.3-4.5,3.7-6.7c2.4-3.9,4.2-8.3,6.1-12.4c1.9-3.9,2.6-8.4,5.5-11.8c0.9-1,2.6-1.6,3-3c0.4-1.5-0.8-2.2-2.2-2.2
	C62.8,38,62.4,38,61.9,38c-1.4-0.3-1.9-1.2-3.2,0.4c-0.9,1.1-0.6,1.9-0.5,3.2C58.6,45.1,55.3,53.6,53.1,58.2z"/>
<path class="st27" d="M58.3,41.5c-0.1-1.3-0.4-2.1,0.5-3.2c1.3-1.6,1.8-0.7,3.2-0.4c0.5,0,0.9,0,1.4-0.1c1.4,0,2.7,0.7,2.2,2.2
	c-0.6-0.9-1.7-1-2.9-0.2c-1,0.7-1.8,1.7-2.3,2.9c-0.7,1.5-1.5,3-2.1,4.5c-2.7,6.7-5.1,13.5-8.8,19.7c-1.8,3.1-3.8,6.1-6,9
	c-1,1.3-2.1,2.5-3.3,3.8c-0.8,0.8-1.3,1.7-1.6,2.8c-0.3,1.6,0.6,1.9,1.7,1.6c-0.7,0.8-1.7,1.4-2.8,0.9c-3.8-1.8,1.1-4,2.3-5.3
	c2.6-2.9,9.4-13.5,13.1-21.5C55.3,53.6,58.6,45.1,58.3,41.5z"/>
<path class="st28" d="M58.4,48.4c0.5-1.2,1-2.4,1.5-3.6c0.4-0.8,2.8-6.1,4.3-4.4c0.6,0.6-0.6,1.2-1,1.5c-0.8,0.6-1.5,1.3-2.1,2.2
	c-1.7,2.5-2.3,5.2-3.3,7.9c-0.8,2.1-1.7,4.2-2.6,6.2c-1,2.3-7.4,15.4-11.7,20.9c-0.8,1.2-1.7,2.4-2.6,3.6c-0.2,0.2-0.8,0.8-1.2,0.2
	s0.3-1.2,0.4-1.5c0.8-1.2,3.6-4.2,4.4-5.2c2.7-3.6,8.1-13.9,11-20.7C56.6,53.2,57.5,50.8,58.4,48.4z"/>
<path class="st28" d="M64.6,37.5c0.1,0.7,0.5,2-0.6,2c-0.7,0-1.3-0.2-1.8-0.8c-0.2-0.3-0.2-0.7-0.1-1c0.2-0.5,0.6-0.9,1.2-1
	c0.2,0,0.4,0,0.6,0c0.2,0,0.4,0,0.5,0.1S64.6,37.3,64.6,37.5z"/>
<path class="st29" d="M62.2,38.8c0.4,0.5,1.1,0.8,1.8,0.8c1.1,0,0.7-1.3,0.6-2c0-0.2,0-0.6-0.1-0.7s-0.4-0.1-0.5-0.1
	c-0.2,0-0.4,0-0.6,0c-0.6,0.1-1,0.5-1.2,1C62,38,62.1,38.4,62.2,38.8z M63.1,37.8c0.4-0.3,0.7,0.1,0.8,0.4s0.5,0.4,0.6,0.8
	c0.1,0.8-1.3,0.3-1.5,0C62.7,38.6,62.7,38.1,63.1,37.8L63.1,37.8z"/>
<path class="st3" d="M62.2,38.8c0.1,0.2,0.3,0.3,0.4,0.4c-0.3-0.7-0.1-1.9,0.6-2.1c0.4-0.1,0.7,0.2,0.8,0.6c0,0.2,0.1,0.4,0.2,0.6
	c0.1,0.2,0.3,0.4,0.6,0.5c0-0.4-0.1-0.8-0.1-1.2c0-0.2,0-0.6-0.1-0.7s-0.4-0.1-0.5-0.1c-0.2,0-0.4,0-0.6,0c-0.6,0.1-1,0.5-1.2,1
	C62,38,62.1,38.4,62.2,38.8z"/>
<path class="st2" d="M60.9,33.4c-0.6-0.1-1.2,0.9-1.1,1.4c0,1,1.5,1.1,2,0.3c0-0.1,0.1-0.2,0.2-0.3c0.1-0.1,0.2-0.1,0.3-0.2
	s0.2-0.4-0.1-0.5c-0.2-0.1-0.4-0.1-0.6-0.2c-0.2-0.1-0.2-0.2-0.4-0.3C61,33.5,60.9,33.4,60.9,33.4z"/>
<path class="st3" d="M59.7,34.8c0,0.1,0,0.1,0,0.2c-0.1-0.7,1-1.3,1.5-0.8c0.3,0.4,0.3,0.8,0,1.2c0,0.1-0.1,0.1-0.2,0.2
	c0.2-0.1,0.4-0.2,0.6-0.4c0-0.1,0.1-0.2,0.2-0.3c0.1-0.1,0.2-0.1,0.3-0.2s0.2-0.4-0.1-0.5c-0.2-0.1-0.4-0.1-0.6-0.2
	c-0.2-0.1-0.2-0.2-0.4-0.3c-0.1,0-0.1-0.1-0.2-0.1C60.3,33.3,59.7,34.4,59.7,34.8z"/>
<path class="st0" d="M61,34.7c-0.1-0.1-0.3,0-0.4,0.1s-0.5,0.3-0.2,0.6c0.2,0.1,0.4,0.1,0.6-0.1C61,35.2,61.1,34.8,61,34.7z"/>
<path class="st1" d="M66.8,38c0.2-0.2,0.4-0.5,0.4-0.8c0.1-1-1-0.8-1.6-0.7c-0.3,0.1-0.9,0.2-1.1,0.4c-0.1,0.3-0.2,0.6-0.2,0.9
	c0,0.8,0.8,0.9,1.4,0.8C66.1,38.6,66.5,38.4,66.8,38z"/>
<path class="st0" d="M64.3,37.9c0,0.8,0.8,0.9,1.4,0.8c0.4-0.1,0.8-0.3,1.1-0.6c0.2-0.2,0.4-0.5,0.4-0.8c0.1-1-1-0.8-1.6-0.7
	c-0.3,0.1-0.9,0.2-1.1,0.4C64.4,37.2,64.3,37.5,64.3,37.9z M64.8,37.9c0.2-0.3,0.6-0.5,0.9-0.7C66,37,66.3,37,66.7,37
	c0.1,0.1,0.2,0.2,0.1,0.3c-0.2,0.5-0.6,1-1.1,1.1c-0.2,0.1-0.3,0.1-0.5,0.1c-0.3,0-0.4-0.2-0.4-0.5C64.7,38,64.8,38,64.8,37.9
	L64.8,37.9z"/>
<path class="st2" d="M64.3,37.9c0,0.1,0,0.3,0.1,0.4c0-0.1,0-0.1,0-0.2c0.4-0.8,1.1-1.3,1.9-1.4c0.4-0.1,0.8,0.2,0.9,0.7
	c0,0,0-0.1,0-0.1c0.1-1-1-0.8-1.6-0.7c-0.3,0.1-0.9,0.2-1.1,0.4C64.3,37.2,64.3,37.6,64.3,37.9z"/>
<path class="st0" d="M65.5,36.6c0.2-0.1,0.4-0.2,0.6-0.2c0.3,0,0.4,0.2,0.6,0.2c0.5,0.1,0.6-0.6,0.6-0.9c0.1-0.7-0.9-1-1.3-1.3
	c-0.4-0.3-0.9-0.5-1.4-0.4c-0.4,0.1-0.8,0.5-0.8,0.9c0,0.5,0.1,1,0.3,1.5c0.1,0.3,0.3,0.5,0.5,0.6C65,37.2,65.3,36.7,65.5,36.6z"/>
<path class="st28" d="M63.9,34.9c0,0.5,0.1,1,0.2,1.5c0.1,0.3,0.3,0.5,0.5,0.6c0.3,0.2,0.6-0.3,0.9-0.4c0.2-0.1,0.4-0.2,0.6-0.2
	c0.3,0,0.4,0.2,0.6,0.2c0.5,0.1,0.6-0.6,0.6-0.9c0.1-0.7-0.9-1-1.3-1.3c-0.4-0.3-0.9-0.5-1.4-0.4C64.2,34.1,63.9,34.5,63.9,34.9z
	 M65.4,35.7c0.2-0.1,0.5-0.1,0.8-0.1c0.2,0.1,0.5,0.2,0.5,0.5s-0.6,0.1-0.8,0s-0.4,0.2-0.6,0.4s-0.5,0.4-0.6,0.2
	c-0.1-0.1,0-0.2,0-0.3c0.1-0.2,0.3-0.4,0.6-0.6L65.4,35.7z"/>
<path class="st2" d="M63.9,34.9c0,0.5,0.1,1,0.2,1.5c0.1,0.3,0.3,0.5,0.5,0.6c0.3,0.2,0.6-0.3,0.9-0.4c0.2-0.1,0.4-0.2,0.6-0.2
	c0.3,0,0.4,0.2,0.6,0.2c0.5,0.1,0.6-0.6,0.6-0.9c0.1-0.7-0.9-1-1.3-1.3c-0.4-0.3-0.9-0.5-1.4-0.4C64.2,34.1,63.9,34.5,63.9,34.9z
	 M66.1,35.3c0.1,0,0.2,0.1,0.3,0.1c0.3,0.1,0.6,0.3,0.4,0.7s-0.4,0.2-0.7,0.2s-0.3-0.1-0.4,0s-0.8,0.9-1.2,0.6s-0.1-0.6,0-0.8
	c0.2-0.3,0.4-0.5,0.7-0.5C65.5,35.2,65.8,35.2,66.1,35.3z"/>
<path class="st29" d="M63.9,34.9c0,0.5,0.1,1,0.2,1.5c0.1,0.3,0.3,0.5,0.5,0.6c0.3,0.2,0.6-0.3,0.9-0.4c0.2-0.1,0.4-0.2,0.6-0.2
	c0.3,0,0.4,0.2,0.6,0.2c0.5,0.1,0.6-0.6,0.6-0.9c0.1-0.7-0.9-1-1.3-1.3c-0.4-0.3-0.9-0.5-1.4-0.4C64.2,34.1,63.9,34.5,63.9,34.9z
	 M65,34.6h0.1c0.2,0.1,0.5,0.2,0.7,0.2s0.2,0,0.3,0c0.1,0,0.3,0.1,0.4,0.1c0.3,0.1,0.6,0.4,0.6,0.8c0,0.3-0.1,0.5-0.4,0.6
	c-0.2,0.1-0.5,0-0.7-0.1c-0.6-0.2-0.8,0.6-1.3,0.7s-0.6-0.4-0.7-0.7c-0.1-0.4-0.1-0.9,0.2-1.3C64.5,34.6,64.8,34.5,65,34.6z"/>
<path class="st3" d="M63.9,34.9c0,0.3,0,0.6,0.1,0.8c0-0.2,0.1-0.4,0.2-0.5c0-0.1,0.1-0.3,0.2-0.4c0.2-0.2,0.5-0.3,0.8-0.3h0.1
	c0.2,0.1,0.5,0.2,0.7,0.2s0.2,0,0.3,0c0.1,0,0.3,0.1,0.4,0.1c0.3,0.1,0.5,0.3,0.6,0.5c0.1,0.1,0.1,0.2,0.2,0.3c0,0,0-0.1,0-0.1
	c0.1-0.7-0.9-1-1.3-1.3c-0.4-0.3-0.9-0.5-1.4-0.4C64.2,34.1,63.9,34.5,63.9,34.9z"/>
<path class="st1" d="M65.5,35.9c-0.1,0-0.1,0.1-0.2,0.1c-0.1,0.1-0.4,0.3-0.3,0.4s0.3-0.3,0.4-0.3c0.2-0.2,0.4-0.1,0.7-0.1
	c0.1,0,0.2,0,0.2-0.1s-0.2-0.1-0.3-0.1C65.9,35.8,65.7,35.8,65.5,35.9z"/>
<path class="st28" d="M61.3,37c0.3,0.4,0.9,0.3,1.3,0.2c1-0.3,1.3-1.4,1.5-2.3c0.1-0.3,0.1-0.6,0-0.8c-0.1-0.3-0.4-0.5-0.7-0.5
	c-0.7,0.1-1.4,0.5-1.7,1.2c-0.2,0.3-0.3,0.6-0.3,1C61.3,36.2,61.1,36.7,61.3,37z"/>
<path class="st2" d="M61.3,35.8c0,0.4-0.2,0.8,0,1.2s0.9,0.3,1.3,0.2c1-0.3,1.3-1.4,1.5-2.3c0.1-0.3,0.1-0.6,0-0.8
	c-0.1-0.3-0.4-0.5-0.7-0.5c-0.7,0.1-1.4,0.5-1.7,1.2C61.5,35.1,61.3,35.5,61.3,35.8z M61.6,36c0-0.1,0-0.2,0.1-0.2
	c0.3-0.5,0.7-0.8,1.2-1c0.4-0.2,1-0.3,0.9,0.4c-0.1,0.4-0.2,0.7-0.4,1c-0.2,0.5-1.1,1.6-1.8,1C61.4,36.9,61.5,36.3,61.6,36L61.6,36z
	"/>
<path class="st29" d="M63,34.1c0.7-0.1,1,0.3,1.1,0.7c0.1-0.2,0.1-0.5,0-0.7c-0.1-0.3-0.4-0.5-0.7-0.5c-0.7,0.1-1.4,0.5-1.7,1.2
	c-0.1,0.2-0.2,0.4-0.2,0.6C61.7,34.7,62.3,34.3,63,34.1z"/>
<path class="st2" d="M61.2,38.8c0.5,0.3,1.2,0.7,1.2,0c0-0.2,0-0.3,0-0.4c0-0.1,0-0.3,0.1-0.4c0.1-0.4-0.1-0.5-0.4-0.5
	c-0.3,0-0.5-0.2-0.7-0.4c-0.2-0.2-0.3-0.5-0.3-0.7c-0.1-0.2-0.2-0.6-0.4-0.6c-0.4,0-0.8,0.2-1.1,0.5c-0.3,0.3-0.9,0.8-0.3,1.1
	c0.2,0.1,0.5,0.3,0.7,0.5c0.3,0.3,0.6,0.5,1,0.8L61.2,38.8z"/>
<path class="st29" d="M59.2,37.3c0.1,0,0.2,0.1,0.2,0.2c-0.1-0.2-0.1-0.4-0.1-0.6c0.2-0.7,1-0.7,1.4-0.1c0.1,0.2,0.2,0.4,0.4,0.5
	s0.5,0.2,0.8,0.3c0.3,0.1,0.5,0.3,0.4,0.6c-0.1,0.2-0.1,0.4,0,0.6c0,0.1,0,0.1,0,0.2c0-0.1,0.1-0.2,0.1-0.2c0-0.2,0-0.3,0-0.4
	c0-0.1,0-0.3,0.1-0.4c0.1-0.4-0.1-0.5-0.4-0.5c-0.3,0-0.5-0.2-0.7-0.4c-0.2-0.2-0.3-0.5-0.3-0.7c-0.1-0.2-0.2-0.6-0.4-0.6
	c-0.4,0-0.8,0.2-1.1,0.5C59.2,36.4,58.6,37,59.2,37.3z"/>
<path class="st0" d="M61,38.4c0.2,0.1,0.9,0.7,1,0.2c0.1-0.2,0-0.5-0.2-0.6c-0.2-0.1-0.4,0.1-0.7,0.1c-0.3,0-0.7-0.2-0.9-0.4
	c-0.2-0.2-0.3-0.6-0.5-0.6s-0.2,0.1-0.2,0.2s0.2,0.2,0.3,0.4C60.2,37.9,60.6,38.2,61,38.4z"/>
<path class="st28" d="M60.2,35.7c0,0,0-0.1,0-0.2c-0.1-0.1-0.2-0.2-0.3-0.4s0-0.1,0-0.1c-0.2-0.2,0.1-0.7-0.1-0.9s-0.4,0.1-0.6,0.1
	s-0.6,0.3-0.9,0.4c-0.5,0.3-0.5,0.8-0.1,1.3c0.2,0.2,0.4,0.4,0.6,0.6c0.3,0.3,0.3,0.2,0.5-0.1c0.1-0.3,0.3-0.5,0.6-0.7
	C59.8,35.9,60.1,35.8,60.2,35.7z"/>
<path class="st2" d="M58.1,36.1c0.1,0.1,0.2,0.3,0.4,0.4l0,0c0.1,0.1,0.1,0.1,0.2,0.2l0.2,0.1c0,0,0.1,0,0.1,0l0,0c0,0,0.1,0,0.1,0
	l0,0c0,0,0.1-0.1,0.1-0.1l0,0l0,0c0.1-0.3,0.3-0.5,0.6-0.7c0.1-0.1,0.4-0.1,0.4-0.2c0,0,0-0.1,0-0.2c-0.1-0.1-0.2-0.2-0.3-0.4l0,0
	l0,0c0-0.1,0-0.1,0-0.1c-0.2-0.2,0.1-0.7-0.1-0.9s-0.4,0.1-0.6,0.1s-0.6,0.3-0.9,0.4C57.7,35.1,57.8,35.7,58.1,36.1z M58.9,34.6
	c0.3-0.1,0.6,0,0.7,0.3c0.1,0.2,0.3,0.5,0.2,0.7s-0.2,0.2-0.3,0.3s-0.5,0.5-0.9,0.4c-0.4-0.2-0.6-0.7-0.5-1.1
	C58.3,35,58.6,34.7,58.9,34.6z"/>
<path class="st29" d="M57.9,35.5L57.9,35.5c0.1-0.4,0.4-0.7,0.8-0.8c0.3-0.2,0.7-0.3,0.9,0c0.1,0.2,0.1,0.3,0.2,0.5
	c0.1,0.1,0.2,0.2,0.3,0.4c0,0.1,0,0.1,0,0.2c0,0,0.1,0,0.1-0.1c0,0,0-0.1,0-0.2c-0.1-0.1-0.2-0.2-0.3-0.4l0,0l0,0c0-0.1,0-0.1,0-0.1
	c-0.2-0.2,0.1-0.7-0.1-0.9s-0.4,0.1-0.6,0.1s-0.6,0.3-0.9,0.4C58,34.9,57.8,35.2,57.9,35.5z"/>
<path class="st1" d="M58.8,35.4c-0.2,0.1-0.5,0.4-0.3,0.6s1,0.1,1.1-0.3S59,35.3,58.8,35.4z"/>
<path class="st0" d="M63.1,16.6C63,17,63,17.3,63,17.6c0,0.4,0,0.8,0,1.2c0,0.2-0.1,0.4-0.2,0.5c-0.1,0.1-0.3,0-0.4,0s-0.3,0-0.4,0
	c-0.2,0-0.4-0.2-0.4-0.4c0,0,0-0.1,0-0.1c0.1-0.2,0.2-0.3,0.3-0.5c0.3-0.6,0.4-1.2,0.4-1.9c0-0.3,0-0.9,0.5-0.9
	c0.2,0,0.5,0.1,0.6,0.3C63.5,16.1,63.2,16.4,63.1,16.6z"/>
<path class="st1" d="M62.3,18.8c0.1,0.1,0.2,0.1,0.4,0.1c0,0,0.1,0,0.1-0.1c0.2-0.2,0.1-0.5,0.1-0.8c0-0.4,0-0.7,0-1.1
	c0-0.1,0-0.3,0.1-0.4c0-0.1,0.3-0.5-0.1-0.4c-0.2,0-0.2,0.3-0.2,0.4c-0.1,0.5,0.1,1.1-0.2,1.5C62.4,18.4,62.2,18.6,62.3,18.8z"/>
<path class="st2" d="M62,19.4c0.2,0,0.3,0,0.4,0s0.3,0.1,0.4,0c0,0,0.1-0.1,0.1-0.2c-0.3,0.1-0.6,0.1-0.8,0c-0.1,0-0.2-0.1-0.2-0.2
	c0.1-0.3,0.4-0.7,0.4-1s0.1-1,0.1-1.3s0-0.5,0.3-0.7c0.2-0.1,0.4-0.1,0.6,0c0.1,0.1,0.1,0.2,0.1,0.3c0.1-0.1,0.1-0.2,0-0.3
	c-0.1-0.2-0.4-0.3-0.6-0.3c-0.5,0-0.4,0.5-0.5,0.9c0,0.7-0.1,1.3-0.4,1.9c-0.1,0.1-0.2,0.3-0.3,0.5C61.6,19.1,61.7,19.3,62,19.4
	C61.9,19.4,61.9,19.4,62,19.4z"/>
<path class="st3" d="M61.7,18.6c0.1-0.1,0.3-0.3,0.4-0.4c0.1-0.4,0.2-0.9,0.2-1.3c0-0.3,0-0.7,0.2-1c0.2-0.2,0.5-0.3,0.7-0.1
	c0,0,0,0,0,0c-0.1-0.1-0.3-0.2-0.5-0.2c-0.5,0-0.4,0.5-0.5,0.9c0,0.7-0.1,1.3-0.4,1.9L61.7,18.6z"/>
<path class="st0" d="M62.5,32.4c0.2,0.4,0.3,0.8,0.4,1.2c0,0.7-0.6,0.4-1.1,0.5s-0.6,0.4-1,0s0.1-0.8,0.2-1.1c0.2-0.6,0.3-1.3,0.3-2
	c0-0.9,0-1.8-0.2-2.7c-0.1-0.4-0.1-0.8-0.2-1.2c-0.1-0.4-0.2-0.8-0.2-1.2c0-0.2,0.1-0.5,0.4-0.5c0.1,0,0.2,0,0.3,0
	c0.2-0.1,0.3-0.1,0.5-0.1c0.4,0,0.5,0.7,0.5,1c0,0.5-0.1,1-0.2,1.4c-0.1,0.8-0.1,1.6,0,2.4c0,0.6,0,1.2,0,1.8
	C62.4,32,62.4,32.2,62.5,32.4z"/>
<path class="st1" d="M62.2,33.5c0.1,0,0.2,0.1,0.3,0c0.4-0.2-0.2-0.9-0.2-1.2c-0.1-0.5-0.1-1-0.1-1.5c0-0.8,0-1.6,0-2.4
	c0-0.2,0.5-2.5-0.1-2.3c-0.4,0.1-0.2,1.8-0.2,2.1c0.1,1.1,0.1,2.2,0.1,3.2c0.1,0.6,0,1.1-0.3,1.7c-0.2,0.2-0.3,0.6,0,0.6
	s0.2-0.1,0.3-0.2C62,33.5,62.1,33.4,62.2,33.5z"/>
<path class="st2" d="M61.1,32.9c-0.2,0.4-0.5,0.7-0.2,1.1c0.1,0.2,0.3,0.3,0.5,0.2c0,0,0,0,0,0c0.1-0.1,0.2-0.1,0.3-0.1
	c0,0,0.1,0,0.1,0c0.5,0,1.1,0.2,1-0.5v-0.2c0,0.1,0,0.1,0,0.2c0,0.1-0.1,0.3-0.2,0.3C62.4,34,62.2,34,61.9,34
	c-0.3,0-0.5-0.1-0.7-0.3c-0.1-0.1-0.1-0.3,0-0.4c0.3-0.4,0.5-1,0.5-1.5c0-1-0.1-2-0.2-3.1c0-0.5-0.2-0.9-0.2-1.4s-0.2-1.2,0.3-1.5
	c0.2-0.1,0.4-0.2,0.7-0.1c0.2,0.1,0.2,0.4,0.3,0.6v0.3c0-0.1,0-0.3,0-0.4c0-0.3,0-1-0.5-1c-0.2,0-0.3,0.1-0.5,0.1
	c-0.1,0-0.2,0-0.3,0c-0.3,0-0.4,0.3-0.4,0.5c0,0.4,0.1,0.8,0.2,1.2c0.1,0.4,0.1,0.8,0.2,1.2c0.1,0.9,0.2,1.8,0.2,2.7
	C61.3,31.7,61.2,32.3,61.1,32.9z"/>
<path class="st3" d="M61.1,27c0.1,0.4,0.1,0.8,0.2,1.2c0.1,0.9,0.2,1.8,0.2,2.7c0,0.7-0.1,1.4-0.3,2c-0.2,0.4-0.5,0.7-0.2,1.1
	s0.6,0,1,0s0.9,0.1,1.1-0.2l0,0c-0.1,0-0.2,0.1-0.3,0.1c-0.1,0-0.2,0-0.4,0c-0.2,0-0.4,0-0.7-0.1c-0.1-0.1-0.2-0.1-0.2-0.2
	c-0.1-0.2-0.1-0.4-0.1-0.6c0.1-0.3,0.2-0.7,0.3-1c0.1-0.3,0.1-0.7,0.1-1c0-0.6,0-1.3,0-1.9c0-0.3-0.1-0.7-0.2-1
	c-0.1-0.5-0.2-1.1-0.3-1.6c0-0.4-0.1-0.8,0.2-1c0.2-0.1,0.5-0.2,0.7-0.1c0.2,0,0.3,0.1,0.4,0.2c0.1,0.1,0.2,0.3,0.2,0.5
	c0-0.1,0-0.2,0-0.3l0,0c0,0,0-0.1,0-0.1c0,0,0,0,0-0.1v-0.1v-0.1v-0.1c0,0,0-0.1-0.1-0.1l0,0c0,0,0,0-0.1-0.1l0,0h-0.2
	c-0.2,0-0.3,0.1-0.5,0.1c-0.1,0-0.2,0-0.3,0c-0.3,0-0.4,0.3-0.4,0.5C61.1,26.3,61,26.6,61.1,27z"/>
<path class="st0" d="M62.6,15.4c0,0,0-0.1,0-0.2c0-0.2,0.1-0.3,0.3-0.4c0.2-0.2,0.2-0.5,0.2-0.7c0-0.2,0-0.5,0-0.7
	c0-0.2,0.1-0.3,0.3-0.3c0.2,0,0.3,0.1,0.4,0.2c0.1,0.2,0.1,0.4,0,0.5c-0.1,0.2-0.2,0.4-0.2,0.6c0,0.2,0,0.4,0,0.6c0,0.1,0,0.3,0,0.5
	c0,0.1-0.2,0.2-0.3,0.2c-0.1,0-0.1-0.1-0.2-0.1c-0.1,0-0.2,0-0.3,0C62.6,15.6,62.6,15.5,62.6,15.4z"/>
<path class="st2" d="M62.6,15.3c0,0,0,0.1,0,0.2c0,0.1,0,0.2,0.1,0.2c0.1,0,0.2,0,0.3,0c0.1,0,0.2,0.1,0.2,0.1c0.1,0,0.1,0,0.2,0
	c-0.2,0-0.2-0.2-0.3-0.3s-0.3,0.1-0.3-0.1S63,15.1,63,15c0.2-0.3,0.1-0.7,0.1-1s0.2-0.7,0.6-0.5c0,0,0.1,0,0.1,0c0,0,0-0.1,0-0.1
	c-0.1-0.1-0.2-0.3-0.4-0.2c-0.1,0.1-0.3,0.2-0.3,0.3c0,0.2,0,0.5,0,0.7c0,0.3-0.1,0.5-0.2,0.7C62.8,15,62.7,15.1,62.6,15.3z"/>
<path class="st3" d="M62.6,15.3c0,0,0,0.1,0,0.2c0,0.1,0,0.1,0.1,0.2c-0.1-0.2,0-0.4,0.2-0.5c0.2-0.1,0.3-0.3,0.3-0.5
	c0-0.1,0-0.3,0-0.4c0-0.1,0-0.2,0-0.2c0-0.2,0-0.3,0.1-0.5c0.1-0.1,0.4-0.1,0.5,0c0,0,0,0,0,0c0-0.2-0.2-0.3-0.3-0.2
	c-0.1,0.1-0.3,0.2-0.3,0.3c0,0.2,0,0.5,0,0.7c0,0.3-0.1,0.5-0.2,0.7C62.8,15,62.7,15.1,62.6,15.3z"/>
<path class="st1" d="M63.4,14.9c0-0.3,0-0.7,0.1-1c0,0,0.2-0.4,0-0.4s-0.1,0.3-0.2,0.3c-0.1,0.3-0.1,0.5-0.1,0.8
	c0,0.2-0.1,0.3-0.1,0.5s0,0.2,0,0.2C63.5,15.5,63.4,15,63.4,14.9z"/>
<path class="st0" d="M60.9,25c0.1-0.4,0.2-0.9,0.4-1.3c0.1-0.7,0.2-1.3,0.2-2c0-0.3,0.1-0.6,0.1-1s-0.1-0.6-0.1-0.8
	c0-0.5,0.3-0.6,0.7-0.6c0.7,0,0.7,0.6,0.7,1.1s-0.1,1-0.1,1.5c0,0.7,0.1,1.4,0,2.1c0,0.4,0.3,1.2-0.3,1.4c-0.3,0.1-0.4-0.1-0.7-0.2
	s-0.5,0.1-0.7,0C60.9,25.2,60.9,25.1,60.9,25z"/>
<path class="st1" d="M62.6,20.3c0-0.1,0-0.2,0-0.3c-0.2-0.4-0.5,0-0.5,0.3c0,0.3,0.1,0.7,0.1,1c0,0.7,0,1.3,0,2
	c0,0.3-0.1,0.5-0.2,0.7c-0.1,0.2-0.3,0.3-0.4,0.5c-0.1,0.5,0.4,0.5,0.7,0.3s0.1-0.6,0.1-1C62.4,22.7,62.5,21.6,62.6,20.3
	C62.7,20.4,62.6,20.4,62.6,20.3z"/>
<path class="st2" d="M61.4,23.7c-0.2,0.4-0.3,0.9-0.4,1.3c0,0.1,0.1,0.2,0.2,0.3c0.2,0.2,0.5,0,0.7,0s0.4,0.3,0.7,0.2
	c0.1,0,0.2-0.1,0.3-0.2c-0.5,0.2-1.5,0.1-1.6-0.4c-0.1-0.3,0.2-0.8,0.4-1c0.3-0.7,0.4-1.4,0.3-2.2c0-0.5-0.2-2.2,0.7-2.1
	c0.1,0,0.2,0,0.2,0.1c-0.1-0.2-0.3-0.4-0.6-0.4c-0.4,0-0.7,0.1-0.7,0.6c0,0.3,0.1,0.6,0.1,0.8s-0.1,0.7-0.1,0.9
	C61.5,22.4,61.5,23,61.4,23.7z"/>
<path class="st3" d="M61.6,20.7c0,0.3-0.1,0.6-0.1,1c0,0.5-0.1,1-0.1,1.5c0.2-0.6,0.3-1.3,0.3-2c-0.1-0.5-0.1-1,0.1-1.5
	c0.1-0.3,0.4-0.4,0.6-0.4c0.1,0,0.2,0.1,0.3,0.2c-0.1-0.2-0.3-0.3-0.5-0.2c-0.4,0-0.7,0.1-0.7,0.6C61.5,20.2,61.6,20.5,61.6,20.7z"
	/>
<path class="st0" d="M66.1,33.2c0,0.4-0.1,0.8-0.3,1.2c-0.3,0.7-0.8,0.1-1.2-0.1s-0.8,0.1-0.8-0.5s0.4-0.6,0.8-0.9
	c0.5-0.5,0.9-1,1.2-1.5c0.5-0.8,0.9-1.6,1.2-2.5c0.1-0.4,0.3-0.8,0.5-1.2c0.1-0.4,0.2-0.8,0.3-1.2c0.1-0.2,0.4-0.4,0.6-0.3
	s0.2,0.1,0.3,0.2c0.2,0,0.3,0.1,0.5,0.1c0.4,0.2,0.1,0.8-0.1,1.1c-0.3,0.4-0.5,0.8-0.8,1.2c-0.4,0.7-0.8,1.4-1.2,2.1
	c-0.3,0.5-0.6,1.1-0.9,1.6C66.1,32.8,66.1,33,66.1,33.2z"/>
<path class="st1" d="M65.2,33.9c0.1,0,0.1,0.1,0.3,0.2c0.4,0,0.3-0.9,0.3-1.1c0.2-0.5,0.4-0.9,0.6-1.4c0.3-0.7,0.7-1.4,1.1-2.1
	c0.1-0.2,1.6-2,1-2.1c-0.4-0.1-1,1.5-1.2,1.8c-0.4,1-1,1.9-1.4,2.9c-0.2,0.5-0.6,1-1,1.3c-0.2,0.1-0.6,0.3-0.3,0.6s0.2,0,0.4-0.1
	C65.1,33.9,65.1,33.9,65.2,33.9z"/>
<path class="st2" d="M63.7,33.8c0.1,0.6,0.4,0.3,0.8,0.5l0.2,0.1l0,0l0.1,0.1c0.3,0.2,0.6,0.4,0.9,0.1c-0.5,0-1.4-0.4-1.4-0.9
	c0-0.2,0.1-0.3,0.2-0.4c0.5-0.4,0.8-0.5,1.2-1.1c0.5-0.9,0.9-1.9,1.3-2.8c0.2-0.4,0.3-0.9,0.4-1.3s0.4-1.1,1-1.2
	c0.2,0,0.5,0.1,0.6,0.2c0.1,0.2,0,0.5-0.1,0.7c0,0.1-0.1,0.2-0.1,0.3c0.1-0.1,0.2-0.2,0.2-0.4c0.2-0.3,0.4-0.9,0.1-1.1
	c-0.2-0.1-0.3-0.1-0.5-0.1c-0.1,0-0.2-0.1-0.3-0.2s-0.5,0.1-0.6,0.3c-0.2,0.4-0.3,0.8-0.3,1.2c-0.1,0.4-0.3,0.8-0.5,1.2
	c-0.3,0.9-0.7,1.7-1.2,2.6c-0.3,0.6-0.7,1.1-1.2,1.6C64.1,33.2,63.6,33.3,63.7,33.8z"/>
<path class="st3" d="M64.3,33c-0.3,0.2-0.7,0.4-0.6,0.8s0.3,0.4,0.5,0.4C63.9,34,64.1,33.4,64.3,33z"/>
<path class="st3" d="M66.3,30.9l-0.4,0.6c-0.4,0.6-0.8,1.2-1.4,1.7c0.5-0.3,0.8-0.5,1.2-1.1C65.9,31.8,66.1,31.4,66.3,30.9z"/>
<path class="st3" d="M66.9,28.9l-0.3,0.8c0.5-0.9,0.8-1.9,1.2-2.8c0.2-0.4,0.6-0.4,1-0.3c0.6,0,0.5,0.6,0.3,1.1
	c0.2-0.3,0.4-0.9,0-1.1c-0.2-0.1-0.3-0.1-0.5-0.1c-0.1,0-0.2-0.1-0.3-0.2s-0.5,0.1-0.6,0.3c-0.2,0.4-0.3,0.8-0.3,1.2
	C67.2,28.1,67,28.5,66.9,28.9z"/>
<path class="st0" d="M71.2,18.5c-0.1,0.3-0.2,0.6-0.2,0.9c-0.1,0.4-0.1,0.8-0.2,1.1c0,0.2-0.1,0.3-0.2,0.4c-0.1,0.1-0.3,0-0.4,0
	s-0.3,0-0.4,0c-0.2,0-0.4-0.2-0.3-0.4c0-0.1,0-0.1,0.1-0.2c0.1-0.1,0.2-0.3,0.3-0.4c0.3-0.5,0.5-1.1,0.6-1.7
	c0.1-0.3,0.1-0.8,0.5-0.8c0.2,0,0.4,0.2,0.5,0.4C71.6,18.1,71.3,18.3,71.2,18.5z"/>
<path class="st1" d="M70.2,20.5c0.1,0.1,0.2,0.2,0.3,0.1c0,0,0,0,0.1,0c0.2-0.2,0.1-0.5,0.2-0.7c0-0.3,0-0.7,0.1-1
	c0-0.1,0.1-0.2,0.1-0.3c0.1-0.1,0.3-0.4,0-0.4s-0.2,0.2-0.2,0.4c-0.1,0.5-0.1,1-0.3,1.4C70.3,20.1,70.1,20.3,70.2,20.5z"/>
<path class="st2" d="M69.8,20.9c0.2,0,0.3,0,0.4,0s0.3,0.1,0.4,0c0,0,0.1-0.1,0.1-0.1c-0.3,0-0.5,0-0.8-0.1c-0.1,0-0.2-0.1-0.1-0.2
	c0,0,0,0,0,0c0.1-0.3,0.4-0.6,0.5-0.9s0.2-1,0.3-1.2s0.1-0.5,0.4-0.6c0.2-0.1,0.4-0.1,0.5,0.1c0.1,0.1,0.1,0.2,0.1,0.3
	c0-0.1,0-0.2,0-0.3c-0.1-0.2-0.3-0.3-0.5-0.4c-0.4-0.1-0.4,0.5-0.5,0.8c-0.1,0.6-0.3,1.2-0.6,1.7c-0.1,0.2-0.2,0.3-0.3,0.5
	C69.4,20.6,69.5,20.8,69.8,20.9C69.7,20.9,69.7,20.9,69.8,20.9z"/>
<path class="st3" d="M69.7,20.2c0.2-0.1,0.3-0.2,0.4-0.3c0.1-0.4,0.3-0.8,0.3-1.2c0-0.3,0.1-0.7,0.3-0.9c0.2-0.2,0.5-0.2,0.7,0
	c0,0,0,0,0,0c-0.1-0.2-0.3-0.3-0.5-0.3c-0.4-0.1-0.4,0.5-0.5,0.8c-0.1,0.6-0.3,1.2-0.6,1.7L69.7,20.2z"/>
<path class="st0" d="M70.7,17.3c0,0,0-0.1,0-0.1c0.1-0.1,0.2-0.3,0.3-0.3c0.2-0.2,0.2-0.4,0.2-0.7c0-0.2,0-0.4,0.1-0.6
	c0-0.1,0.1-0.3,0.3-0.3c0.2,0,0.3,0.1,0.3,0.2c0.1,0.1,0.1,0.3,0,0.5c-0.1,0.2-0.2,0.4-0.2,0.6c0,0.2,0,0.4,0,0.6c0,0.1,0,0.3,0,0.4
	c0,0.1-0.2,0.2-0.3,0.1c0,0,0,0,0,0c-0.1,0-0.1-0.1-0.2-0.1s-0.2,0-0.3,0C70.8,17.5,70.8,17.4,70.7,17.3
	C70.7,17.3,70.7,17.3,70.7,17.3z"/>
<path class="st2" d="M70.7,17.1c0,0,0,0.1,0,0.1c0,0.1,0,0.2,0.1,0.2c0.1,0,0.2,0,0.3,0s0.1,0.1,0.2,0.1c0.1,0,0.1,0,0.2,0
	c-0.2,0-0.1-0.2-0.3-0.3s-0.2,0-0.3-0.1s0.1-0.2,0.2-0.3c0.2-0.3,0.1-0.7,0.2-1s0.2-0.6,0.6-0.4H72c0,0,0-0.1,0-0.1
	c0-0.1-0.2-0.3-0.3-0.2c-0.1,0-0.2,0.2-0.3,0.3c0,0.2,0,0.4-0.1,0.6c0,0.2-0.1,0.5-0.2,0.7C70.9,16.8,70.8,16.9,70.7,17.1z"/>
<path class="st3" d="M70.7,17.1c0,0,0,0.1,0,0.1c0,0,0,0.1,0,0.1c-0.1-0.2,0-0.4,0.2-0.5c0.2-0.1,0.3-0.3,0.3-0.5v-0.4
	c0-0.1,0-0.1,0-0.2c0-0.2,0-0.3,0.1-0.4c0.1-0.1,0.3-0.1,0.5,0c-0.1-0.1-0.2-0.3-0.3-0.2c-0.1,0-0.2,0.2-0.3,0.3
	c0,0.2,0,0.4-0.1,0.6c0,0.2-0.1,0.5-0.2,0.7C70.9,16.9,70.8,17,70.7,17.1z"/>
<path class="st1" d="M71.5,16.8c0-0.3,0.1-0.6,0.2-0.9c0,0,0.2-0.3,0-0.3s-0.1,0.2-0.2,0.3c-0.1,0.2-0.1,0.5-0.2,0.7
	s-0.1,0.3-0.1,0.4s0,0.1,0,0.2S71.5,16.9,71.5,16.8z"/>
<path class="st0" d="M67.9,25.9c0.1-0.4,0.5-0.9,0.6-1.1c0.2-0.6,0.4-1.2,0.5-1.8c0.1-0.3,0.2-0.6,0.2-0.8s0-0.5,0-0.8
	c0-0.4,0.4-0.5,0.7-0.4c0.6,0.1,0.6,0.7,0.4,1.1S70.2,23,70,23.5c-0.2,0.6-0.2,1.3-0.3,2c-0.1,0.4,0,1.1-0.5,1.2
	c-0.3,0-0.4-0.2-0.6-0.3s-0.5,0-0.7-0.1C67.8,26.2,67.8,26,67.9,25.9z"/>
<path class="st1" d="M70.3,22c0-0.1,0.1-0.2,0.1-0.3c-0.1-0.4-0.5,0-0.5,0.2c0,0.3-0.1,0.6-0.1,0.9c-0.1,0.6-0.2,1.3-0.4,1.9
	c0,0.2-0.1,0.5-0.3,0.6c-0.1,0.1-0.3,0.2-0.4,0.4c-0.2,0.4,0.2,0.5,0.6,0.4s0.2-0.5,0.3-0.9c0.2-1.1,0.4-2.1,0.8-3.1
	C70.2,22.1,70.2,22,70.3,22z"/>
<path class="st2" d="M68.5,24.8c-0.1,0.2-0.6,0.7-0.6,1.1c0,0.1,0,0.2,0.1,0.3c0.2,0.2,0.4,0.1,0.7,0.1s0.3,0.3,0.6,0.3
	c0.1,0,0.2-0.1,0.3-0.2c-0.4,0.1-1.3-0.2-1.4-0.6s0.3-0.7,0.5-0.9c0.4-0.6,0.6-1.2,0.7-1.9c0.1-0.5,0.2-2.1,1-1.8
	c0.1,0,0.1,0.1,0.1,0.2c0-0.2-0.3-0.4-0.5-0.4c-0.4-0.1-0.7,0-0.7,0.4c0,0.3,0,0.5,0,0.8s-0.2,0.6-0.2,0.8
	C68.9,23.6,68.8,24.2,68.5,24.8z"/>
<path class="st3" d="M69.3,22.2c0,0.3-0.2,0.6-0.2,0.8c-0.1,0.5-0.2,0.9-0.4,1.4c0.3-0.5,0.5-1.1,0.6-1.8c0-0.5,0.1-1,0.4-1.4
	c0.1-0.2,0.4-0.3,0.7-0.2c0.1,0,0.2,0.1,0.2,0.2C70.4,21.1,70.2,21,70,21c-0.4-0.1-0.7,0-0.7,0.4C69.3,21.6,69.3,21.9,69.3,22.2z"/>
<path class="st0" d="M69.3,34.9c-0.3,0.4-0.6,0.7-1,1c-0.7,0.4-0.8-0.3-1.1-0.8s-0.8-0.3-0.5-0.9s0.8-0.3,1.2-0.4
	c0.7-0.2,1.4-0.4,2-0.8c0.9-0.4,1.8-1,2.6-1.6c0.3-0.3,0.8-0.5,1.1-0.8c0.3-0.3,0.6-0.6,1-0.9c0.2-0.1,0.6-0.2,0.7,0.1
	c0.1,0.1,0.1,0.2,0.2,0.3s0.3,0.2,0.4,0.4c0.2,0.4-0.4,0.8-0.7,1c-0.5,0.3-1,0.4-1.4,0.6c-0.8,0.4-1.6,0.8-2.3,1.3
	c-0.6,0.3-1.2,0.6-1.7,1C69.6,34.5,69.4,34.7,69.3,34.9z"/>
<path class="st1" d="M68.1,35.1c0,0.1,0,0.2,0.2,0.3c0.4,0.3,0.8-0.7,1-0.9c0.4-0.4,0.9-0.7,1.3-1c0.7-0.5,1.5-0.9,2.2-1.3
	c0.2-0.1,2.6-0.9,2.1-1.4s-1.8,0.8-2.1,1c-1,0.7-2,1.3-3,1.9c-0.5,0.4-1.1,0.6-1.7,0.7c-0.3,0-0.7,0-0.6,0.4
	c0.1,0.3,0.2,0.1,0.4,0.1S68,35.1,68.1,35.1z"/>
<path class="st2" d="M67.9,33.8c-0.4,0-1-0.1-1.2,0.4c-0.1,0.2,0,0.5,0.2,0.6c0,0,0,0,0,0c0.1,0.1,0.2,0.2,0.3,0.2
	c0,0,0.1,0.1,0.1,0.1c0.3,0.5,0.4,1.1,1,0.7c0.1,0,0.1-0.1,0.2-0.2c0,0-0.1,0.1-0.2,0.1c-0.1,0-0.3,0-0.4-0.1
	c-0.2-0.1-0.4-0.3-0.5-0.6c-0.1-0.3-0.1-0.6,0-0.8c0.1-0.1,0.2-0.2,0.4-0.2c0.6,0,1.2-0.1,1.7-0.4c1-0.6,1.9-1.2,2.8-1.9
	c0.4-0.3,0.8-0.7,1.2-1s1-0.8,1.6-0.6c0.2,0.1,0.4,0.3,0.4,0.6c0,0.2-0.3,0.4-0.4,0.6l-0.3,0.2l0.4-0.2c0.3-0.2,0.9-0.6,0.7-1
	c-0.1-0.2-0.3-0.3-0.4-0.4s-0.1-0.2-0.2-0.3c-0.2-0.3-0.5-0.2-0.7-0.1c-0.4,0.3-0.7,0.6-1,0.9c-0.3,0.3-0.7,0.5-1.1,0.8
	C71.7,32,70.9,32.6,70,33C69.3,33.4,68.7,33.6,67.9,33.8z"/>
<path class="st3" d="M66.7,34.2c-0.1,0.2-0.1,0.5,0.1,0.6c0,0,0.1,0,0.1,0c0-0.2,0.1-0.3,0.2-0.4C67.3,34,67.7,34,68,34
	c0.3-0.1,0.6-0.1,0.9-0.2c0.3-0.1,0.7-0.3,1-0.5c0.6-0.3,1.2-0.7,1.8-1.1c0.3-0.2,0.6-0.5,0.8-0.7c0.4-0.4,0.9-0.8,1.4-1.2
	c0.3-0.2,0.7-0.5,1.1-0.3c0.2,0.1,0.4,0.3,0.5,0.6c0.1,0.2,0.1,0.3,0,0.5c-0.1,0.2-0.2,0.3-0.4,0.4l0.3-0.2l0,0l0.1-0.1l0,0l0.1-0.1
	V31c0,0,0,0,0-0.1c0,0,0-0.1,0-0.1v-0.1c0,0,0-0.1,0-0.1l0,0c0-0.1,0-0.1-0.1-0.2c-0.1-0.2-0.3-0.3-0.4-0.4s-0.1-0.2-0.2-0.3
	c-0.2-0.3-0.5-0.2-0.7-0.1c-0.4,0.3-0.7,0.6-1,0.9c-0.3,0.3-0.7,0.5-1.1,0.8c-0.8,0.6-1.6,1.2-2.5,1.7c-0.6,0.4-1.3,0.6-2,0.8
	C67.5,33.9,67,33.7,66.7,34.2z"/>
<path class="st0" d="M80.7,21.9c-0.2,0.3-0.4,0.6-0.5,1c-0.2,0.4-0.3,0.8-0.5,1.2c-0.1,0.2-0.2,0.4-0.4,0.4s-0.3-0.1-0.4-0.2
	s-0.3-0.1-0.5-0.1c-0.2-0.1-0.3-0.4-0.2-0.6c0,0,0.1-0.1,0.1-0.1c0.2-0.1,0.3-0.3,0.5-0.4c0.6-0.4,0.8-1.2,1.2-1.8
	c0.2-0.3,0.3-0.9,0.8-0.7c0.2,0.1,0.4,0.3,0.5,0.6C81.3,21.5,80.9,21.7,80.7,21.9z"/>
<path class="st1" d="M79,23.8c0,0.2,0.2,0.3,0.3,0.2c0,0,0.1,0,0.1,0c0.3-0.2,0.3-0.5,0.4-0.8c0.1-0.4,0.3-0.8,0.4-1.1
	c0.1-0.1,0.1-0.2,0.2-0.4c0.1-0.1,0.5-0.4,0.1-0.4c-0.2,0-0.3,0.2-0.4,0.4c-0.3,0.5-0.4,1.2-0.8,1.5C79.2,23.4,78.9,23.5,79,23.8z"
	/>
<path class="st2" d="M78.3,24.2c0.2,0.1,0.3,0,0.5,0.1s0.3,0.2,0.4,0.2c0.1,0,0.1-0.1,0.2-0.1c-0.3,0-0.6-0.2-0.9-0.4
	c-0.1-0.1-0.2-0.2-0.1-0.3c0,0,0,0,0,0c0.2-0.3,0.7-0.5,0.8-0.9s0.5-1,0.7-1.3s0.2-0.5,0.6-0.6c0.2-0.1,0.5,0,0.6,0.3
	c0,0.1,0,0.2,0,0.3c0.1-0.1,0.1-0.2,0.1-0.3c-0.1-0.3-0.3-0.5-0.5-0.6c-0.5-0.2-0.7,0.4-0.8,0.7c-0.3,0.6-0.6,1.4-1.2,1.8
	c-0.2,0.1-0.3,0.2-0.5,0.4c-0.2,0.2-0.2,0.5,0,0.7C78.3,24.1,78.3,24.2,78.3,24.2z"/>
<path class="st3" d="M78.4,23.3c0.2-0.1,0.4-0.2,0.6-0.3c0.3-0.4,0.5-0.8,0.7-1.2c0.1-0.4,0.3-0.7,0.7-1c0.3-0.2,0.6-0.1,0.8,0.2
	c0,0,0,0,0,0c-0.1-0.2-0.2-0.4-0.4-0.5c-0.5-0.2-0.7,0.4-0.8,0.7c-0.3,0.6-0.6,1.4-1.2,1.8L78.4,23.3z"/>
<path class="st0" d="M80.5,20.3c0-0.1,0-0.1,0.1-0.2c0.1-0.1,0.3-0.3,0.4-0.3c0.2-0.2,0.4-0.4,0.5-0.7c0.1-0.2,0.2-0.5,0.3-0.7
	c0.1-0.2,0.2-0.3,0.4-0.3c0.2,0,0.3,0.2,0.3,0.4c0,0.2,0,0.4-0.2,0.5c-0.2,0.2-0.3,0.4-0.4,0.6c-0.1,0.2-0.2,0.4-0.2,0.7
	c0,0.2,0,0.3-0.1,0.5c-0.1,0.1-0.2,0.1-0.4,0.1c-0.1,0-0.1-0.2-0.2-0.2l-0.3-0.1C80.5,20.4,80.5,20.3,80.5,20.3z"/>
<path class="st2" d="M80.6,20.1c0,0-0.1,0.1-0.1,0.2c0,0.1,0,0.2,0.1,0.2l0.3,0.1c0.1,0,0.1,0.2,0.2,0.2c0.1,0,0.2,0,0.2,0
	c-0.2-0.1-0.1-0.3-0.2-0.4s-0.3,0-0.3-0.2s0.2-0.2,0.3-0.2c0.3-0.2,0.3-0.7,0.5-1s0.5-0.6,0.8-0.3c0,0,0,0,0.1,0.1c0,0,0-0.1,0-0.2
	c0-0.2-0.1-0.4-0.3-0.4c-0.2,0-0.3,0.1-0.4,0.3c-0.1,0.2-0.2,0.5-0.3,0.7c-0.1,0.3-0.2,0.5-0.5,0.7C80.9,19.8,80.7,20,80.6,20.1z"/>
<path class="st3" d="M80.6,20.1c0,0-0.1,0.1-0.1,0.2c0,0.1,0,0.1,0,0.2c0-0.2,0.1-0.4,0.4-0.5c0.2-0.1,0.4-0.2,0.5-0.5
	c0-0.1,0.1-0.3,0.1-0.4l0.1-0.2c0-0.1,0.1-0.4,0.3-0.5c0.2-0.1,0.4,0,0.5,0.1c0,0,0,0,0,0c0-0.2-0.1-0.3-0.3-0.4
	c-0.2,0-0.3,0.1-0.4,0.3c-0.1,0.2-0.2,0.5-0.3,0.7c-0.1,0.3-0.2,0.5-0.5,0.7C80.8,19.8,80.7,20,80.6,20.1z"/>
<path class="st1" d="M81.6,20c0.1-0.4,0.3-0.7,0.5-1c0,0,0.3-0.3,0.2-0.4s-0.2,0.2-0.3,0.3c-0.1,0.2-0.3,0.5-0.4,0.8
	c-0.1,0.2-0.2,0.3-0.3,0.5c0,0.1,0,0.2,0,0.2C81.4,20.7,81.5,20.1,81.6,20z"/>
<path class="st0" d="M74.6,29.4c0.2-0.4,0.9-0.8,1.1-1.1c0.4-0.6,0.8-1.3,1.2-1.9c0.2-0.3,0.4-0.6,0.5-0.9c0.1-0.3,0.2-0.6,0.3-0.9
	c0.2-0.5,0.6-0.4,1-0.3c0.7,0.3,0.4,0.9,0.1,1.4s-0.6,1-0.8,1.5c-0.4,0.7-0.6,1.5-1,2.2c-0.2,0.4-0.3,1.3-1,1.2
	c-0.3,0-0.4-0.3-0.6-0.5s-0.6-0.1-0.7-0.4C74.5,29.6,74.6,29.5,74.6,29.4z"/>
<path class="st1" d="M78.6,25.5c0.1-0.1,0.1-0.2,0.2-0.3c0-0.5-0.5-0.2-0.6,0c-0.1,0.3-0.2,0.7-0.3,1c-0.3,0.7-0.6,1.4-1,2
	c-0.1,0.3-0.3,0.5-0.6,0.6C76,29,75.8,29,75.6,29.2c-0.3,0.4,0.1,0.7,0.5,0.7s0.4-0.5,0.6-0.9c0.5-1.2,1.1-2.3,1.8-3.3
	C78.5,25.6,78.5,25.6,78.6,25.5z"/>
<path class="st2" d="M75.7,28.3c-0.2,0.2-0.9,0.7-1.1,1.1c-0.1,0.1-0.1,0.2,0,0.4c0.2,0.3,0.5,0.2,0.7,0.4s0.3,0.5,0.6,0.5
	c0.1,0,0.3,0,0.4-0.1c-0.5-0.1-1.5-0.6-1.4-1.2c0.1-0.3,0.6-0.7,0.8-0.8c0.6-0.5,1.1-1.2,1.4-2c0.2-0.5,0.8-2.3,1.7-1.7
	c0.1,0.1,0.1,0.1,0.2,0.2c0-0.3-0.2-0.6-0.4-0.6c-0.4-0.2-0.8-0.2-1,0.3c-0.1,0.3-0.2,0.6-0.3,0.9c-0.2,0.3-0.3,0.6-0.5,0.9
	C76.5,27,76.1,27.7,75.7,28.3z"/>
<path class="st3" d="M77.4,25.5c-0.2,0.3-0.3,0.6-0.5,0.9c-0.3,0.5-0.6,1-0.9,1.5c0.5-0.5,1-1.2,1.2-1.8c0.1-0.6,0.4-1.1,0.8-1.5
	c0.2-0.2,0.6-0.3,0.8,0c0.1,0.1,0.2,0.2,0.2,0.3c0-0.2-0.2-0.4-0.4-0.5c-0.4-0.2-0.8-0.2-1,0.3C77.5,24.8,77.5,25.2,77.4,25.5z"/>
<path class="st0" d="M58.9,31.8c0.4,0.4,0.8,0.8,1.1,1.3c0.4,0.8-0.5,0.9-1.1,1.2s-0.5,0.9-1.2,0.5s-0.3-1-0.3-1.5
	c-0.1-0.9-0.4-1.7-0.7-2.5c-0.5-1.1-1-2.2-1.7-3.2c-0.3-0.5-0.6-1-0.9-1.4c-0.4-0.4-0.7-0.8-1-1.3c-0.1-0.3-0.1-0.7,0.2-0.9
	c0.2-0.1,0.3,0,0.4-0.2c0.2-0.2,0.3-0.3,0.5-0.4c0.6-0.2,1,0.6,1.2,0.9c0.2,0.6,0.4,1.2,0.6,1.8c0.4,1,0.8,2,1.3,2.9
	c0.3,0.7,0.6,1.5,1,2.2C58.6,31.4,58.7,31.6,58.9,31.8z"/>
<path class="st1" d="M59.1,33.3c0.1,0,0.2,0,0.4-0.1c0.4-0.4-0.7-1-0.9-1.3c-0.4-0.5-0.7-1.1-1-1.7c-0.5-0.9-1-1.9-1.4-2.9
	c-0.1-0.3-0.8-3.2-1.4-2.7c-0.4,0.4,0.8,2.3,1,2.6c0.7,1.3,1.3,2.5,2,3.8c0.4,0.6,0.6,1.4,0.6,2.1c-0.1,0.3-0.1,0.9,0.4,0.7
	c0.3-0.1,0.1-0.2,0.2-0.4C59,33.4,59,33.3,59.1,33.3z"/>
<path class="st2" d="M57.5,33.3c0,0.5-0.2,1.2,0.3,1.5c0.2,0.2,0.6,0.1,0.7-0.1c0,0,0,0,0,0c0.1-0.1,0.2-0.2,0.3-0.3
	c0.1,0,0.1-0.1,0.2-0.1c0.6-0.3,1.4-0.3,1-1.2c0-0.1-0.1-0.2-0.2-0.2c0,0.1,0,0.1,0.1,0.2c0,0.2,0,0.4-0.1,0.5
	c-0.2,0.2-0.5,0.4-0.8,0.5c-0.3,0.2-0.7,0.2-1,0c-0.2-0.1-0.2-0.3-0.2-0.5c0.1-0.7,0-1.4-0.2-2.1c-0.6-1.2-1.2-2.4-1.9-3.6
	c-0.3-0.5-0.7-1-1.1-1.5s-0.9-1.3-0.5-2c0.2-0.3,0.4-0.5,0.8-0.5c0.3,0,0.5,0.4,0.7,0.6c0.1,0.1,0.2,0.2,0.2,0.4
	c-0.1-0.2-0.1-0.4-0.2-0.5c-0.2-0.4-0.6-1.2-1.2-0.9c-0.2,0.1-0.4,0.3-0.5,0.4c-0.2,0.1-0.3,0.1-0.4,0.2c-0.3,0.2-0.3,0.6-0.2,0.9
	c0.3,0.5,0.6,0.9,1,1.3c0.3,0.4,0.6,1,0.9,1.4c0.7,1,1.2,2.1,1.7,3.2C57.1,31.5,57.4,32.4,57.5,33.3z"/>
<path class="st3" d="M54.2,26.2c0.3,0.4,0.6,1,0.9,1.4c0.7,1,1.2,2.1,1.7,3.2c0.4,0.8,0.6,1.6,0.7,2.5c0,0.5-0.2,1.2,0.3,1.5
	s0.7-0.2,1.2-0.5s1.1-0.3,1.2-0.8l0,0c-0.1,0.1-0.2,0.2-0.3,0.3c-0.1,0.1-0.3,0.1-0.4,0.2c-0.3,0.2-0.5,0.3-0.8,0.3
	c-0.1,0-0.3-0.1-0.4-0.2c-0.2-0.2-0.4-0.4-0.4-0.7c-0.1-0.4-0.1-0.9-0.2-1.3c-0.1-0.4-0.3-0.8-0.5-1.2c-0.3-0.8-0.7-1.5-1.1-2.3
	c-0.2-0.4-0.5-0.7-0.8-1.1c-0.5-0.6-0.9-1.1-1.2-1.8c-0.2-0.5-0.5-0.9-0.3-1.4c0.1-0.3,0.4-0.5,0.7-0.5c0.2-0.1,0.4-0.1,0.6,0
	c0.2,0.1,0.4,0.3,0.5,0.5c0-0.1-0.1-0.2-0.2-0.3l0,0c0,0-0.1-0.1-0.1-0.1l-0.1-0.1l-0.1-0.1l-0.1-0.1L55,23.5h-0.1h-0.1
	c0,0-0.1,0-0.1,0l0,0c-0.1,0-0.1,0-0.2,0c-0.2,0.1-0.4,0.3-0.5,0.4C53.8,24,53.7,24,53.5,24c-0.3,0.2-0.3,0.6-0.2,0.9
	C53.6,25.4,53.8,25.8,54.2,26.2z"/>
<path class="st0" d="M54.3,13.5c-0.1,0.4-0.1,0.8,0,1.2c0,0.5,0,1,0,1.4c0,0.2-0.1,0.4-0.2,0.6c-0.2,0.1-0.3,0-0.5,0
	s-0.3,0.1-0.5,0.1c-0.3,0-0.5-0.2-0.4-0.5c0-0.1,0-0.1,0-0.2c0.1-0.2,0.2-0.4,0.3-0.6c0.3-0.7,0.4-1.5,0.4-2.2c0-0.4-0.1-1,0.5-1.1
	c0.3,0,0.6,0.1,0.7,0.3C54.8,12.9,54.5,13.2,54.3,13.5z"/>
<path class="st1" d="M53.5,16.1c0.1,0.1,0.3,0.2,0.4,0.1c0,0,0.1,0,0.1-0.1c0.2-0.3,0.1-0.6,0-0.9C54,14.7,54,14.3,54,13.9
	c0-0.2,0-0.3,0.1-0.5c0-0.1,0.3-0.6-0.1-0.4c-0.2,0.1-0.2,0.4-0.2,0.5c-0.1,0.6,0.2,1.3-0.1,1.8C53.5,15.5,53.4,15.8,53.5,16.1z"/>
<path class="st2" d="M53.1,16.7c0.2,0,0.3-0.1,0.5-0.1s0.4,0.1,0.5,0c0.1,0,0.1-0.1,0.1-0.2c-0.3,0.1-0.7,0.1-1,0
	c-0.1,0-0.2-0.1-0.2-0.3c0.1-0.4,0.4-0.8,0.4-1.2s0-1.2,0.1-1.6s0-0.6,0.3-0.9c0.2-0.2,0.5-0.2,0.7,0c0.1,0.1,0.1,0.2,0.1,0.3
	c0.1-0.1,0.1-0.3,0-0.4c-0.2-0.2-0.4-0.4-0.7-0.3c-0.6,0-0.4,0.7-0.5,1.1c0,0.8-0.1,1.5-0.4,2.2c-0.1,0.2-0.2,0.4-0.3,0.6
	c-0.1,0.2,0,0.5,0.2,0.6C53,16.7,53.1,16.7,53.1,16.7z"/>
<path class="st3" d="M52.8,15.8c0.2-0.2,0.3-0.3,0.4-0.5c0.1-0.5,0.1-1,0.2-1.5c-0.1-0.4,0-0.8,0.2-1.2c0.2-0.3,0.6-0.4,0.9-0.2
	c0,0,0,0,0.1,0c-0.2-0.2-0.4-0.2-0.6-0.2c-0.6,0-0.4,0.7-0.5,1.1c0,0.8-0.1,1.5-0.4,2.2C53,15.6,52.9,15.7,52.8,15.8z"/>
<path class="st0" d="M53.5,12c0-0.1,0-0.1,0-0.2c0-0.2,0.1-0.4,0.3-0.5C54,11,54,10.7,54,10.4c0-0.3-0.1-0.5,0-0.8
	c0-0.2,0.1-0.3,0.3-0.4c0.2-0.1,0.4,0.1,0.4,0.2c0.1,0.2,0.1,0.4,0,0.6c-0.1,0.2-0.2,0.5-0.2,0.8c0,0.2,0,0.5,0.1,0.7
	c0.1,0.2,0.1,0.3,0.1,0.5c0,0.2-0.2,0.3-0.3,0.2c-0.1,0-0.2-0.1-0.3-0.1s-0.2,0-0.3,0C53.6,12.2,53.5,12.1,53.5,12z"/>
<path class="st2" d="M53.5,11.8c0,0.1,0,0.1,0,0.2c0,0.1,0.1,0.2,0.2,0.2c0.1,0,0.2,0,0.3,0s0.2,0.1,0.3,0.1c0.1,0,0.2,0,0.2-0.1
	c-0.3,0-0.2-0.2-0.4-0.3s-0.3,0.1-0.3-0.1s0.1-0.3,0.2-0.4c0.2-0.4,0-0.8,0-1.2s0.2-0.8,0.6-0.7c0,0,0.1,0,0.1,0
	c0-0.1,0-0.1-0.1-0.1c-0.1-0.2-0.2-0.3-0.4-0.2c-0.2,0.1-0.3,0.2-0.3,0.4c0,0.3,0,0.5,0,0.8c0.1,0.3,0,0.6-0.2,0.9
	C53.6,11.4,53.5,11.6,53.5,11.8z"/>
<path class="st3" d="M53.5,11.8c0,0.1,0,0.1,0,0.2c0,0.1,0.1,0.1,0.1,0.2c-0.1-0.2-0.1-0.5,0.1-0.7c0,0,0,0,0,0
	c0.2-0.2,0.3-0.4,0.3-0.7c0-0.2,0-0.3,0-0.5s0-0.2,0-0.3c0-0.2,0-0.4,0.1-0.6c0.1-0.2,0.4-0.2,0.6-0.1c0,0,0,0,0,0
	c-0.1-0.2-0.3-0.3-0.4-0.2C54.1,9.3,54,9.4,54,9.6c0,0.3,0,0.5,0,0.8c0.1,0.3,0,0.6-0.2,0.9C53.7,11.4,53.6,11.6,53.5,11.8z"/>
<path class="st1" d="M54.4,11.3c-0.1-0.4-0.1-0.8,0-1.2c0,0,0.2-0.5,0-0.4s-0.1,0.3-0.1,0.4c0,0.3,0,0.6,0,0.9s-0.1,0.4-0.1,0.6
	c0,0.1,0,0.2,0.1,0.2C54.5,12,54.4,11.4,54.4,11.3z"/>
<path class="st0" d="M52.9,23.4c-0.1-0.5,0.3-1.2,0.4-1.6c0.1-0.8,0.1-1.6,0-2.4c0-0.4,0-0.8,0-1.1s-0.2-0.7-0.2-1
	c-0.1-0.6,0.3-0.7,0.8-0.8c0.8-0.1,0.9,0.6,0.9,1.2s0,1.2,0,1.8c0,0.8,0.3,1.7,0.3,2.5c0,0.5,0.4,1.3-0.2,1.7
	c-0.3,0.2-0.5-0.1-0.8-0.1s-0.6,0.2-0.8,0.1C53,23.6,52.9,23.5,52.9,23.4z"/>
<path class="st1" d="M54.4,17.8c0-0.1,0-0.2,0-0.4c-0.3-0.4-0.6,0.1-0.6,0.4c0.1,0.4,0.1,0.7,0.2,1.1c0.1,0.8,0.2,1.6,0.2,2.4
	c0,0.3,0,0.6-0.2,0.9c-0.1,0.2-0.3,0.4-0.4,0.7c-0.1,0.5,0.5,0.6,0.8,0.3s0.1-0.7,0.1-1.1c-0.2-1.3-0.2-2.7-0.2-4.1
	C54.4,17.9,54.4,17.8,54.4,17.8z"/>
<path class="st2" d="M53.3,21.9c0,0.3-0.4,1.1-0.4,1.6c0,0.1,0.1,0.3,0.2,0.3c0.3,0.2,0.6-0.1,0.8-0.1s0.5,0.3,0.8,0.1
	c0.1-0.1,0.2-0.2,0.3-0.3c-0.5,0.2-1.7,0.2-1.9-0.3c-0.1-0.3,0.2-0.9,0.3-1.2c0.3-0.8,0.3-1.7,0.2-2.5c-0.1-0.6-0.5-2.6,0.6-2.5
	c0.1,0,0.2,0,0.3,0.1c-0.1-0.3-0.4-0.4-0.8-0.3c-0.5,0.1-0.8,0.2-0.8,0.8c0.1,0.3,0.2,0.7,0.2,1s0,0.8,0,1.1
	C53.3,20.3,53.3,21.1,53.3,21.9z"/>
<path class="st3" d="M53.3,18.4c0,0.4,0,0.8,0,1.1c0,0.6,0,1.2,0,1.8c0.2-0.8,0.2-1.6,0.1-2.3c-0.2-0.6-0.2-1.2,0-1.8
	c0.1-0.3,0.4-0.6,0.7-0.5c0.1,0,0.3,0.1,0.4,0.2c-0.2-0.2-0.4-0.3-0.7-0.2c-0.5,0.1-0.8,0.2-0.8,0.8C53.1,17.7,53.2,18,53.3,18.4z"
	/>
<path class="st15" d="M58.4,7.7c-1.5,5.9-2.5,13.1-0.8,18.9c0.6,1.9,1.5,3.6,2.7,5.2c-2-7.5-0.2-16.1,1.7-22
	C60.8,9.2,59.6,8.5,58.4,7.7z"/>
<path class="st2" d="M-30.5,71.6c13.8,0.6,33.4-1,39.4-2.6c2.7-0.7,9.3-5.9,9.1,0.7c-0.1,3-3.6,3.4-5.9,3.7
	C6.6,73.8,1.2,74.4-4.2,75c-4,0.4-7.9,0-11.9,0.2c-7.1,0.5-14.5-0.3-21.7-0.6c-6.8-0.3-13.5-2.4-20.3-1c-2.1,0.4-4.1,2.5-6.3,2
	c-2.5-0.5-2.5-2.8-1.5-4.7c0.4-0.6,0.8-1.2,1.1-1.8c0.7-2.2-0.2-3.5,2.9-4.2c2.1-0.4,3,0.6,4.7,1.6C-52.6,69.6-38.5,71.2-30.5,71.6z
	"/>
<path class="st27" d="M-57.3,66.6c-1.7-1.1-2.6-2.1-4.7-1.6c-3.1,0.6-2.2,2-2.9,4.2c-0.3,0.6-0.7,1.3-1.1,1.8c-1,2-0.9,4.2,1.5,4.7
	c-0.8-1.4-0.2-3.1,1.8-4.1c1.7-0.8,3.7-1.2,5.6-1.1c2.6,0.1,5.2,0.1,7.8,0.4c11.3,1.2,22.4,2.7,33.7,2.2c5.6-0.2,11.2-0.8,16.8-1.7
	c2.6-0.4,5.1-1.1,7.6-1.8c1.6-0.5,3.3-0.6,5-0.2c2.5,0.7,2.2,2.1,0.9,3.5c1.7-0.4,3.2-1.3,3.3-3.2c0.2-6.6-6.4-1.4-9.1-0.7
	c-5.9,1.6-25.6,3.2-39.4,2.6C-38.5,71.2-52.6,69.6-57.3,66.6z"/>
<path class="st1" d="M-10.6,61.8c-8.2,0.5-16.5,1.5-24.8,1.5c-6.8,0-14.6,0.2-21.3-1.3c-2.4-0.6-7-3.1-9.4-1.6
	c-1.3,0.8-1.5,2-3.1,2.8c-2.2,1-4.2,1.7-3.4,4.5c1.3,4.5,10.2,1.5,13.4,1c4.2-0.7,8.5-0.7,12.8-1.3c9.6-1.5,19.3-0.7,28.9-1.4
	c7.4-0.5,14.8-1.2,22.2-1.4c2.3-0.1,4.6-0.1,6.9,0c1.6,0.2,3.5,1.3,5.1,0.9c0.6-0.2,1-0.4,1.1-1c0-0.3,0-0.6,0-0.9
	c0.1-0.5,0.3-1,0.7-1.4c0.4-0.6,0.3-1.3-0.2-1.8c-0.6-0.5-1.5-0.6-2.2-0.2c-0.9,0.3-1.9,0.6-2.9,0.7c-0.6,0.1-1.2,0.2-1.8,0.3
	c-1.1,0.2-2.2,0.3-3.3,0.2c-0.9,0-1.9,0.1-2.8,0.1c-1.9,0.1-3.7,0.2-5.6,0.2C-3.7,61.4-7.1,61.6-10.6,61.8z"/>
<path class="st28" d="M-66,60.4c-1.3,0.8-1.5,2-3.1,2.8c-2.2,1-4.2,1.7-3.4,4.5c1,3.5,6.6,2.5,10.5,1.6c-2,0-4-0.1-6-0.3
	c-1.3-0.1-2.2-1.2-2.1-2.5c0-0.1,0-0.3,0.1-0.4c0.4-1.2,2-1.6,3.1-1.8c1.9-0.3,8.8-0.7,10.2-0.6c3.2,0.2,20.1,0.7,26.6,0.7h0.2
	c7.9,0,15.8-0.5,23.7-0.9c3.8-0.2,7.5-0.5,11.2-0.6c1.7-0.1,3.4-0.1,5-0.2c1.4-0.1,3-0.5,4.3-0.1c0.6,0.2,1,0.7,1.1,1.3
	c0.2,0.8-0.1,1.1-0.7,1.7c0.6,0.1,1.2,0.1,1.8,0c0.6-0.2,1-0.4,1.1-1c0-0.3,0-0.6,0-0.9c0.1-0.5,0.3-1,0.7-1.4
	c0.4-0.6,0.3-1.3-0.2-1.8c-0.6-0.5-1.5-0.6-2.2-0.2c-0.9,0.3-1.9,0.6-2.9,0.7c-0.6,0.1-1.2,0.2-1.8,0.3c-1.1,0.2-2.2,0.3-3.3,0.2
	c-0.9,0-1.9,0.1-2.8,0.1c-1.9,0.1-3.7,0.2-5.6,0.2c-3.4-0.1-6.9,0-10.3,0.2c-8.2,0.5-16.5,1.5-24.8,1.5c-6.8,0-14.6,0.2-21.3-1.3
	C-59.1,61.3-63.6,58.8-66,60.4z"/>
<path class="st27" d="M17.1,60.7c-0.1,0.1-0.2,0.2-0.3,0.2c-0.9,0.4-1.8,0.5-2.7,0.5c-0.9,0-1.8,0.1-2.7,0.3
	c0.8-0.1,1.5,0.2,2.3,0.2c0.6,0,1.2,0,1.8,0.2c0.4,0.2,0.9,0.4,1.2,0.8c0.7,0.6,0.8,1.6,0.2,2.3c0,0,0,0-0.1,0.1
	c0.6-0.2,1-0.4,1.1-1c0-0.3,0-0.6,0-0.9c0.1-0.5,0.3-1,0.7-1.4c0.4-0.6,0.3-1.3-0.2-1.8c-0.3-0.3-0.7-0.5-1.2-0.4
	c0.1,0,0.2,0.5,0.2,0.6C17.3,60.5,17.2,60.6,17.1,60.7z"/>
<path class="st28" d="M-47.9,71.8c-2-0.3-4.1-0.4-6.1-0.5c-1.5,0-10.5-0.5-9.3,2.8c0.5,1.3,2.2,0,2.8-0.3c1.4-0.7,3-1.1,4.5-1.3
	c4.7-0.5,8.8,0.6,13.4,1.1c3.5,0.4,7,0.6,10.6,0.9c3.9,0.3,26.7,0.8,37.5-0.9c2.2-0.4,4.7-0.4,6.8-1c0.5-0.1,1.7-0.5,1.2-1.5
	c-0.4-0.8-1.9-0.5-2.3-0.5c-2.2,0.2-8.4,1.9-10.4,2.3c-6.9,1.1-25.2,1.1-36.6,0.2C-39.9,72.8-43.9,72.2-47.9,71.8z"/>
<path class="st0" d="M23.4,57.4c0.1,0.2,0.2,0.5,0.3,0.7c0,0.3,0.2,0.7,0.4,0.9c0.9,0.6,1.6-1,2.1-1.4c1.1-0.8,2.3-1.4,3.4-2
	c0.9-0.6,1.9-0.9,3-1.1c0.8-0.1,1.5,0.2,2.4,0s0.7-0.8,0.5-1.4s-0.2-1.7-1-1.8c-0.6-0.1-1.3,0.1-1.8,0.5c-0.7,0.5-1.4,1-2.2,1.3
	c-1.5,0.7-3.2,1-4.7,1.8c-0.8,0.3-1.6,0.7-2.3,1.1C23,56.5,23.2,56.9,23.4,57.4z"/>
<path class="st2" d="M33.6,51.4c0.7,0,1.2,0.3,1.3,1c0,0.4-0.3,0.7-0.7,0.8c-3.9,1-7.6,2.7-9.2,4.4c-0.8,0.8-1.6-0.5-1.7-1.3
	c-0.2,0.4-0.1,0.8,0.1,1.1c0.1,0.2,0.2,0.5,0.3,0.7c0,0.3,0.2,0.7,0.4,0.9c0.9,0.6,1.6-1,2.1-1.4c1.1-0.8,2.3-1.4,3.4-2
	c0.9-0.6,1.9-0.9,3-1.1c0.8-0.1,1.5,0.2,2.4,0s0.7-0.8,0.5-1.4s-0.2-1.7-1-1.8C34.2,51.3,33.9,51.3,33.6,51.4z"/>
<path class="st30" d="M34.1,51.3c1,0.4,1.4,1.3,0.3,2.1c-0.7,0.3-1.4,0.5-2.1,0.5c-1.2,0.4-2.3,0.9-3.4,1.4c-0.7,0.4-1.4,0.8-2,1.4
	c-0.4,0.4-0.9,0.6-1.3,1c-0.1,0.1-0.2,0.3-0.4,0.3c-0.2,0.1-0.4,0.2-0.6,0.4c-0.2,0.1-0.5,0.1-0.7,0c0,0.3,0.2,0.5,0.4,0.7
	c0.4,0.3,0.8,0.1,1.2-0.3c0,0,0,0,0-0.1c1.1-1.3,2.4-2.4,4-3.1c1.7-1,3.7-1.4,5.7-1.1h0.1c0.7-0.2,0.6-0.8,0.5-1.4s-0.2-1.7-1-1.8
	C34.5,51.2,34.3,51.2,34.1,51.3z"/>
<path class="st1" d="M32.7,52.4c-1.1,0.6-2.2,1.2-3.4,1.6c-0.7,0.3-5.6,1.6-5.1,2.5c0.3,0.6,2.3-0.8,2.7-0.9
	c1.2-0.6,2.5-1.1,3.8-1.5c0.8-0.3,1.5-0.6,2.3-1c0.2-0.1,0.9-0.4,0.9-0.7C33.8,51.6,32.9,52.3,32.7,52.4z"/>
<path class="st0" d="M38.8,52.1c-0.2-0.1-0.5-0.2-0.7-0.3c-0.8-0.4-1.3-0.7-2,0c-0.6,0.5-0.9,1.2-0.8,2c0.5,1.2,1.2,0.9,2.3,0.8
	s2.2-0.6,3.3,0c0.7,0.3,1.4,1.9,2.1,1.8s0.8-1.5,0.8-2c-0.1-0.8-1-0.8-1.7-0.9c-0.7-0.2-1.4-0.4-2.1-0.8
	C39.6,52.4,39.2,52.2,38.8,52.1z"/>
<path class="st2" d="M42.8,55.1c-0.7,0.1-1.4-0.9-1.9-1.2c-1.4-0.7-2.5-0.5-4-0.4c-1.7,0.1-1.4-1.2-0.7-2l-0.2,0.2
	c-0.6,0.5-0.9,1.2-0.8,2c0.5,1.2,1.2,0.9,2.3,0.8s2.2-0.6,3.3,0c0.7,0.3,1.4,1.9,2.1,1.8s0.8-1.5,0.8-2s-0.5-0.7-0.9-0.8
	C43.5,54,43.9,54.9,42.8,55.1z"/>
<path class="st3" d="M43.4,55.4c-0.1,0.1-0.1,0.2-0.2,0.2c-0.3,0.2-0.7,0.1-1-0.2c-0.7-0.7-1-1.4-2.1-1.6c-1.5-0.2-3.1,1.1-4.4-0.1
	c-0.2-0.2-0.4-0.5-0.4-0.9c-0.1,0.2-0.1,0.5,0,0.7c0.5,1.2,1.2,0.9,2.3,0.8s2.2-0.6,3.3,0c0.7,0.3,1.4,1.9,2.1,1.8
	c0.7-0.1,0.8-1.5,0.8-2c0-0.2-0.2-0.5-0.4-0.6C43.7,54.2,43.7,54.9,43.4,55.4z"/>
<path class="st1" d="M37.9,52.7c0.2,0,0.3,0,0.5,0c0.5,0.1,0.9,0.2,1.3,0.3c0.3,0.1,0.6,0.2,0.9,0.2c0-0.3-0.8-0.5-1.1-0.5
	c-0.7-0.1-1.3-0.4-1.9-0.8c-0.3-0.2-0.9-0.5-1.1,0c-0.1,0.2-0.4,0.5-0.3,0.8s0.7,0.3,1,0.2C37.5,52.7,37.7,52.7,37.9,52.7z"/>
<path class="st1" d="M42.5,54.5c0.5,0.2,0.3-0.4,0.1-0.6c-0.2-0.2-0.6-0.4-0.9-0.4c-0.4-0.1-0.4,0.1-0.1,0.3
	C41.9,54.1,42.2,54.3,42.5,54.5z"/>
<path class="st0" d="M49.4,56.9c-0.6-0.1-1.3-0.3-1.8-0.7c-0.3-0.1-0.7-0.3-1-0.5c-0.4-0.3-0.9-0.6-1.3-0.9s-0.7-0.7-1-0.8
	s-0.5,0.2-0.5,0.4s0.1,0.5-0.1,0.7s-0.3,0.3-0.3,0.6s0.2,0.5,0.4,0.7c0.3,0.2,0.6,0.2,0.9,0.2c0.7,0.1,1.4,0.4,2.1,0.7
	c0.5,0.2,1,0.4,1.5,0.5c0.5,0.1,1.4,0.2,1.8-0.3c0.2-0.2,0.3-0.6,0-0.7S49.6,56.9,49.4,56.9z"/>
<path class="st2" d="M50.1,57c-0.5,1.4-2.7,0.2-3.5-0.1c-1.1-0.4-2.6-0.6-2.9-1.8c0,0,0,0.1-0.1,0.1c-0.2,0.2-0.3,0.3-0.3,0.6
	s0.2,0.5,0.4,0.7c0.3,0.2,0.6,0.2,0.9,0.2c0.7,0.1,1.4,0.4,2.1,0.7c0.5,0.2,1,0.4,1.5,0.5c0.5,0.1,1.4,0.2,1.8-0.3
	C50.2,57.4,50.3,57.1,50.1,57L50.1,57z"/>
<path class="st3" d="M46.9,57.2c-0.6-0.3-1.2-0.5-1.8-0.6c-0.4,0-0.9-0.2-1.2-0.5c-0.2-0.2-0.4-0.4-0.5-0.7
	c-0.1,0.1-0.1,0.2-0.1,0.4c0,0.3,0.2,0.5,0.4,0.7c0.3,0.2,0.6,0.2,0.9,0.2c0.7,0.1,1.4,0.4,2.1,0.7c0.5,0.2,1,0.4,1.5,0.5
	c0.5,0.1,1,0.1,1.5,0C48.8,57.9,47.8,57.7,46.9,57.2z"/>
<path class="st1" d="M44.2,54.2c0.1,0,0.2,0,0.3,0.1c0.2,0.3,0.4,0.7,0.5,1c0.2,0.3,0.4,0.6,0.7,0.8c0.2,0.1,0.3,0.2,0.5,0.3
	c-0.3-0.1-0.7-0.2-1-0.3c-0.3-0.1-0.6-0.3-0.9-0.6c-0.3-0.2-0.4-0.6-0.4-0.9C43.9,54.5,44,54.3,44.2,54.2z"/>
<path class="st0" d="M26.2,73.5c-0.7-0.1-1.5-0.3-2.1-0.6c-1.1-0.6-0.1-1.3,0.3-2.1c0.3-0.6-0.1-1.3,0.9-1.4s1,0.8,1.5,1.3
	c0.8,0.8,1.6,1.6,2.6,2.2c1.3,0.9,2.7,1.6,4.2,2.2c0.7,0.3,1.3,0.6,2,0.9c0.7,0.1,1.4,0.4,2,0.7c0.3,0.2,0.7,0.7,0.4,1.1
	c-0.1,0.2-0.3,0.3-0.3,0.5c0,0.3-0.1,0.6-0.3,0.8c-0.4,0.6-1.4,0.1-1.9-0.2c-0.7-0.5-1.3-1-1.9-1.5c-1.1-0.8-2.3-1.5-3.6-2.1
	c-0.9-0.6-1.8-1.1-2.7-1.6C26.8,73.7,26.5,73.6,26.2,73.5z"/>
<path class="st1" d="M24.9,72c-0.1,0.1-0.3,0.2-0.3,0.4c-0.1,0.7,1.5,0.6,1.9,0.7c0.8,0.3,1.6,0.7,2.3,1.2c1.2,0.6,2.4,1.3,3.5,2.1
	c0.3,0.2,3.2,2.9,3.5,1.9c0.2-0.7-2.5-1.9-2.9-2.1c-1.7-0.8-3.2-1.8-4.9-2.7c-0.9-0.4-1.7-1-2.2-1.9c-0.2-0.4-0.5-1-1-0.5
	c-0.3,0.3,0.1,0.4,0.1,0.6C25,71.8,25,71.9,24.9,72z"/>
<path class="st2" d="M26.6,70.9c-0.4-0.6-0.6-1.4-1.5-1.3c-0.4,0-0.7,0.3-0.7,0.7c0,0,0,0,0,0c0,0.2,0,0.4-0.1,0.6
	c0,0.1-0.1,0.1-0.1,0.2c-0.4,0.7-1.2,1.4-0.2,2c0.1,0.1,0.2,0.1,0.3,0.2L24.2,73c-0.2-0.2-0.3-0.4-0.2-0.7c0.1-0.4,0.2-0.8,0.4-1.1
	c0.2-0.4,0.6-0.7,1.1-0.7c0.3,0,0.5,0.2,0.7,0.4c0.6,0.8,0.8,1.5,1.8,2c1.5,0.9,3.1,1.7,4.7,2.4c0.7,0.3,1.5,0.5,2.2,0.8
	s1.9,0.8,2,1.7c0,0.4-0.1,0.8-0.5,1.1c-0.3,0.2-0.8-0.1-1.2-0.2l-0.5-0.2c0.2,0.2,0.4,0.3,0.6,0.4c0.5,0.3,1.5,0.8,1.9,0.2
	c0.1-0.3,0.2-0.5,0.3-0.8c0.1-0.2,0.2-0.3,0.3-0.5c0.2-0.4-0.1-0.9-0.4-1.1c-0.6-0.3-1.3-0.5-2-0.7c-0.7-0.2-1.3-0.6-2-0.9
	c-1.5-0.6-2.9-1.3-4.2-2.2C28.2,72.4,27.4,71.7,26.6,70.9z"/>
<path class="st3" d="M25.2,69.5c-0.6,0.1-0.7,0.3-0.7,0.7c0.2-0.1,0.5-0.1,0.7-0.1c0.7,0,1,0.5,1.3,1s0.6,0.8,1,1.1
	c0.4,0.4,0.9,0.7,1.4,1c0.9,0.6,1.9,1.2,2.9,1.6c0.5,0.2,1.1,0.4,1.6,0.6c0.9,0.3,1.8,0.6,2.6,1c0.6,0.3,1.2,0.6,1.3,1.3
	c0,0.4-0.1,0.8-0.4,1.1c-0.2,0.2-0.4,0.3-0.7,0.4c-0.3,0-0.6-0.1-0.9-0.2l0.4,0.2l0,0l0.2,0.1h0.1h0.2h0.1h0.1h0.2h0.1l0.2-0.1H37
	c0.1,0,0.1-0.1,0.2-0.2c0.1-0.3,0.2-0.5,0.3-0.8c0.1-0.2,0.2-0.3,0.3-0.5c0.2-0.4-0.1-0.9-0.4-1.1c-0.6-0.3-1.3-0.5-2-0.7
	c-0.7-0.2-1.3-0.6-2-0.9c-1.5-0.6-2.9-1.3-4.2-2.2c-1-0.6-1.8-1.3-2.6-2.2C26.2,70.3,26,69.4,25.2,69.5z"/>
<path class="st28" d="M19.9,67.9c-1,0.2-3,1-3.2-0.7c-0.1-1.1,0.2-2.1,1-2.9c0.5-0.3,1-0.4,1.6-0.2c0.9,0.2,1.6,0.9,1.8,1.8
	c0.1,0.3,0.1,0.7,0.1,1c0,0.3,0,0.6-0.1,0.9C20.7,67.9,20.2,67.8,19.9,67.9z"/>
<path class="st29" d="M17.7,64.3c-0.8,0.7-1.1,1.8-1,2.9c0.2,1.8,2.2,0.9,3.2,0.7c0.3,0,0.9,0,1-0.2c0.1-0.3,0.2-0.6,0.1-0.9
	c0-0.3,0-0.7-0.1-1c-0.2-0.9-0.9-1.6-1.8-1.8C18.7,63.9,18.1,64,17.7,64.3z M19.3,65.5c0.5,0.6,0,1.1-0.6,1.4s-0.5,0.9-1.1,1
	c-1.2,0.2-0.7-2-0.2-2.4C17.9,65,18.7,65,19.3,65.5C19.3,65.5,19.3,65.5,19.3,65.5z"/>
<path class="st3" d="M17.7,64.3c-0.3,0.2-0.5,0.4-0.6,0.7c1-0.5,3-0.4,3.3,0.7c0.2,0.6-0.3,1-0.8,1.2c-0.3,0.1-0.6,0.2-0.9,0.3
	c-0.3,0.3-0.5,0.6-0.7,0.9c0.6-0.1,1.3-0.2,1.9-0.3c0.3,0,0.9,0,1-0.2c0.1-0.3,0.2-0.6,0.1-0.9c0-0.3,0-0.7-0.1-1
	c-0.2-0.9-0.9-1.6-1.8-1.8C18.7,63.9,18.1,64,17.7,64.3z"/>
<path class="st2" d="M25.8,61.6c0.2-0.9-1.6-1.7-2.3-1.6C22,60.1,22,62.4,23.3,63c0.2,0.1,0.4,0.1,0.6,0.2s0.2,0.3,0.4,0.4
	c0.3,0.2,0.6,0.2,0.8-0.2c0.1-0.3,0.2-0.7,0.3-1c0.1-0.3,0.3-0.3,0.5-0.6C25.8,61.8,25.8,61.7,25.8,61.6z"/>
<path class="st3" d="M23.5,60c-0.1,0-0.2,0-0.3,0.1c1.1-0.2,2.2,1.4,1.4,2.3c-0.5,0.4-1.3,0.5-1.9,0.1c-0.1-0.1-0.2-0.1-0.3-0.2
	c0.1,0.4,0.4,0.6,0.7,0.8c0.2,0.1,0.4,0.1,0.6,0.2s0.2,0.3,0.4,0.4c0.3,0.2,0.6,0.2,0.8-0.2c0.1-0.3,0.2-0.7,0.3-1
	c0.1-0.3,0.3-0.3,0.5-0.6c0.1-0.1,0.1-0.2,0.1-0.3C26,60.7,24.2,59.9,23.5,60z"/>
<path class="st0" d="M23.8,62c0.1-0.2-0.1-0.5-0.2-0.6c-0.2-0.4-0.6-0.8-0.9-0.3c-0.2,0.3-0.1,0.7,0.2,0.9
	C23,62.1,23.7,62.2,23.8,62z"/>
<path class="st1" d="M19.3,71.4c0.4,0.3,0.9,0.5,1.3,0.5c1.6,0.1,1.2-1.7,0.9-2.6c-0.1-0.4-0.4-1.4-0.8-1.6c-0.5-0.2-1-0.3-1.4-0.3
	c-1.3,0-1.3,1.4-1.1,2.3C18.4,70.4,18.8,70.9,19.3,71.4z"/>
<path class="st0" d="M19.3,67.4c-1.3,0-1.3,1.4-1.1,2.3c0.2,0.7,0.5,1.2,1.1,1.7c0.4,0.3,0.9,0.5,1.3,0.5c1.6,0.1,1.2-1.7,0.9-2.6
	c-0.1-0.4-0.4-1.4-0.8-1.6C20.3,67.5,19.8,67.4,19.3,67.4z M19.3,68.3c0.5,0.3,0.9,0.8,1.2,1.3c0.3,0.4,0.4,0.9,0.3,1.4
	c-0.1,0.2-0.3,0.3-0.5,0.3c-0.9-0.2-1.6-0.8-1.9-1.6c-0.1-0.2-0.2-0.5-0.2-0.8c0-0.4,0.2-0.7,0.6-0.8C19,68.1,19.2,68.2,19.3,68.3
	L19.3,68.3z"/>
<path class="st2" d="M19.3,67.4c-0.2,0-0.5,0.1-0.7,0.2H19c1.2,0.2,2.2,1.8,2.5,2.8c0.1,0.7-0.3,1.3-0.9,1.5h0.2
	c1.6,0.1,1.2-1.7,0.9-2.6c-0.1-0.4-0.4-1.4-0.8-1.6C20.3,67.5,19.8,67.4,19.3,67.4z"/>
<path class="st0" d="M21.4,69.2c0.2,0.3,0.3,0.6,0.3,0.9c0,0.4-0.2,0.7-0.3,1c-0.1,0.8,1,0.8,1.5,0.9c1,0.1,1.4-1.5,1.8-2.2
	c0.5-0.6,0.6-1.5,0.4-2.3c-0.2-0.7-0.8-1.2-1.5-1.1c-0.8,0.1-1.5,0.2-2.2,0.5c-0.4,0.2-0.7,0.5-0.9,0.9
	C20.5,68.4,21.2,68.8,21.4,69.2z"/>
<path class="st28" d="M23.8,66.5c-0.8,0.1-1.5,0.2-2.2,0.5c-0.4,0.2-0.7,0.5-0.9,0.9c-0.2,0.5,0.5,1,0.8,1.4
	c0.2,0.3,0.3,0.6,0.3,0.9c0,0.4-0.2,0.7-0.3,1c-0.1,0.8,1,0.8,1.5,0.9c1,0.1,1.4-1.5,1.8-2.2c0.5-0.6,0.6-1.5,0.4-2.3
	C25.2,66.9,24.5,66.4,23.8,66.5z M22.8,69c0.2,0.4,0.3,0.8,0.2,1.2c-0.1,0.3-0.3,0.8-0.7,0.8s-0.2-1-0.1-1.3s-0.4-0.6-0.6-0.8
	s-0.8-0.7-0.4-1c0.1-0.1,0.3,0,0.5,0C22.2,68.1,22.6,68.5,22.8,69L22.8,69z"/>
<path class="st2" d="M23.8,66.5c-0.8,0.1-1.5,0.2-2.2,0.5c-0.4,0.2-0.7,0.5-0.9,0.9c-0.2,0.5,0.5,1,0.8,1.4c0.2,0.3,0.3,0.6,0.3,0.9
	c0,0.4-0.2,0.7-0.3,1c-0.1,0.8,1,0.8,1.5,0.9c1,0.1,1.4-1.5,1.8-2.2c0.5-0.6,0.6-1.5,0.4-2.3C25.2,66.9,24.5,66.4,23.8,66.5z
	 M23.5,70c0,0.2-0.1,0.3-0.1,0.5c-0.1,0.4-0.5,0.9-1,0.7s-0.4-0.7-0.3-1.1c0-0.2,0.1-0.5,0-0.7c-0.3-0.4-1.5-1.2-1-1.8
	c0.3-0.4,0.9-0.2,1.3,0c0.4,0.2,0.8,0.6,0.9,1.1C23.5,69.1,23.6,69.6,23.5,70z"/>
<path class="st29" d="M23.8,66.5c-0.8,0.1-1.5,0.2-2.2,0.5c-0.4,0.2-0.7,0.5-0.9,0.9c-0.2,0.5,0.5,1,0.8,1.4
	c0.2,0.3,0.3,0.6,0.3,0.9c0,0.4-0.2,0.7-0.3,1c-0.1,0.8,1,0.8,1.5,0.9c1,0.1,1.4-1.5,1.8-2.2c0.5-0.6,0.6-1.5,0.4-2.3
	C25.2,66.9,24.5,66.4,23.8,66.5z M24.5,68.2c0,0.1,0,0.1,0,0.2c0,0.4-0.3,0.8-0.3,1.2c0,0.2,0.1,0.3,0.1,0.5c0,0.2-0.1,0.4-0.2,0.7
	c-0.1,0.5-0.6,1-1.1,1c-0.4,0-0.8-0.2-1-0.6c-0.1-0.4-0.1-0.7,0.1-1.1c0.2-0.9-1-1.2-1.2-2c-0.2-0.6,0.5-1,1-1.2
	c0.7-0.3,1.4-0.2,2.1,0.1C24.4,67.3,24.6,67.8,24.5,68.2z"/>
<path class="st3" d="M23.8,66.5c-0.4,0-0.9,0.1-1.3,0.2c0.3,0,0.6,0.1,0.8,0.2c0.2,0,0.4,0.1,0.6,0.2c0.4,0.2,0.6,0.7,0.5,1.1
	c0,0.1,0,0.1,0,0.2c0,0.4-0.3,0.8-0.3,1.2c0,0.2,0.1,0.3,0.1,0.5c0,0.2-0.1,0.4-0.2,0.7c-0.1,0.4-0.4,0.8-0.8,0.9
	c-0.1,0.1-0.3,0.2-0.5,0.3h0.2c1,0.1,1.4-1.5,1.8-2.2c0.5-0.6,0.6-1.5,0.4-2.3C25.2,66.9,24.5,66.4,23.8,66.5z"/>
<path class="st1" d="M22.5,69.1c-0.1-0.1-0.1-0.2-0.2-0.2c-0.1-0.1-0.5-0.6-0.7-0.4s0.5,0.5,0.5,0.6c0.3,0.2,0.3,0.7,0.3,1.1
	c0,0.1-0.1,0.3,0.1,0.3s0.2-0.3,0.2-0.5C22.8,69.6,22.7,69.3,22.5,69.1z"/>
<path class="st28" d="M20.3,62.6c-0.6,0.5-0.4,1.4-0.2,2c0.6,1.5,2.3,1.9,3.8,2.1c0.4,0.1,0.9,0.1,1.3-0.1c0.4-0.2,0.7-0.7,0.7-1.2
	c-0.2-1.1-1-2.1-2.1-2.5c-0.5-0.2-1.1-0.4-1.6-0.4C21.5,62.5,20.8,62.2,20.3,62.6z"/>
<path class="st2" d="M22.2,62.5c-0.6,0-1.3-0.3-1.9,0.1s-0.4,1.4-0.2,2c0.6,1.5,2.3,1.9,3.8,2.1c0.4,0.1,0.9,0.1,1.3-0.1
	c0.4-0.2,0.7-0.7,0.7-1.2c-0.2-1.1-1-2.1-2.1-2.5C23.3,62.7,22.7,62.5,22.2,62.5z M22,63l0.4,0.1c0.8,0.4,1.4,1,1.7,1.8
	c0.3,0.6,0.5,1.5-0.5,1.5c-0.6-0.1-1.1-0.2-1.7-0.5c-0.7-0.3-2.6-1.6-1.8-2.7C20.5,62.7,21.5,62.9,22,63z"/>
<path class="st29" d="M25,65.1c0.2,1.1-0.3,1.6-1,1.7c0.4,0.1,0.8,0.1,1.1-0.1c0.4-0.3,0.7-0.7,0.7-1.3c-0.2-1.1-1-2.1-2.1-2.5
	c-0.3-0.1-0.6-0.2-0.9-0.3C23.9,63,24.7,63.9,25,65.1z"/>
<path class="st2" d="M17.5,62.7c-0.4,0.8-0.9,2,0.2,1.9c0.2,0,0.4-0.1,0.7-0.1c0.2,0,0.5,0,0.7,0.1c0.6,0.1,0.7-0.2,0.8-0.7
	c0-0.4,0.2-0.8,0.5-1.2c0.3-0.3,0.7-0.5,1.1-0.6c0.3-0.1,0.8-0.3,0.9-0.7c-0.1-0.6-0.4-1.2-0.9-1.6c-0.4-0.4-1.3-1.4-1.8-0.4
	c-0.2,0.4-0.4,0.7-0.7,1.1c-0.4,0.5-0.8,1.1-1.1,1.7C17.8,62.3,17.7,62.5,17.5,62.7z"/>
<path class="st29" d="M19.6,59.4c-0.1,0.1-0.1,0.2-0.2,0.4c0.3-0.2,0.6-0.2,0.9-0.2c1.1,0.2,1.1,1.5,0.4,2.2
	c-0.3,0.2-0.6,0.4-0.8,0.6s-0.3,0.8-0.4,1.2c-0.1,0.5-0.5,0.8-1,0.8c-0.3-0.1-0.7,0-1,0.1c-0.1,0-0.2,0.1-0.3,0.1
	c0.1,0.1,0.3,0.1,0.4,0.1c0.2,0,0.4-0.1,0.7-0.1c0.2,0,0.5,0,0.7,0.1c0.6,0.1,0.7-0.2,0.8-0.7c0-0.4,0.2-0.8,0.5-1.2
	c0.3-0.3,0.7-0.5,1.1-0.6c0.3-0.1,0.8-0.3,0.9-0.7c-0.1-0.6-0.4-1.2-0.9-1.6C21,59.4,20.1,58.4,19.6,59.4z"/>
<path class="st0" d="M18.1,62.4c-0.2,0.4-0.9,1.5-0.2,1.6c0.4,0.1,0.7-0.1,0.9-0.4c0.2-0.4-0.2-0.7-0.2-1c0-0.5,0.2-1.1,0.6-1.5
	c0.2-0.3,0.9-0.5,1-0.9S19.9,60,19.7,60s-0.4,0.4-0.5,0.6C18.7,61.1,18.4,61.7,18.1,62.4z"/>
<path class="st28" d="M22.2,60.8c0.1,0.1,0.2,0.1,0.2,0c0.2-0.2,0.4-0.3,0.6-0.5s0.1-0.1,0.1-0.1c0.4-0.3,1.1,0.1,1.3-0.3
	s-0.1-0.7-0.3-0.9c-0.3-0.4-0.5-0.9-0.8-1.3c-0.5-0.8-1.4-0.6-2-0.1c-0.3,0.3-0.6,0.6-0.8,0.9c-0.4,0.4-0.3,0.5,0.1,0.8
	c0.4,0.2,0.8,0.5,1.1,0.8C21.9,60.3,22,60.7,22.2,60.8z"/>
<path class="st2" d="M21.4,57.6c-0.2,0.2-0.4,0.4-0.6,0.6l0,0c-0.1,0.1-0.2,0.2-0.3,0.3c-0.1,0.1-0.1,0.2-0.2,0.2c0,0.1,0,0.1,0,0.2
	l0,0c0,0,0,0.1,0.1,0.1l0,0c0.1,0,0.1,0.1,0.2,0.1l0,0l0.1,0.1c0.4,0.2,0.8,0.5,1.1,0.8c0.1,0.1,0.2,0.6,0.4,0.7
	c0.1,0.1,0.2,0.1,0.2,0c0.2-0.2,0.3-0.3,0.5-0.5l0,0l0,0c0.1-0.1,0.1-0.1,0.1-0.1c0.4-0.3,1.1,0.1,1.3-0.3s-0.1-0.7-0.3-0.9
	c-0.3-0.4-0.5-0.9-0.8-1.3C22.9,56.9,22,57,21.4,57.6z M23.8,58.7c0.2,0.4,0,0.9-0.4,1.2c-0.3,0.1-0.8,0.6-1.1,0.4s-0.4-0.3-0.5-0.5
	c-0.4-0.3-0.9-0.8-0.8-1.3c0.3-0.6,1-1,1.7-0.9C23.2,57.8,23.6,58.2,23.8,58.7z"/>
<path class="st29" d="M22.3,57.1L22.3,57.1c0.6,0.2,1.1,0.6,1.4,1.3c0.4,0.5,0.6,1.1,0,1.4c-0.2,0.2-0.5,0.2-0.8,0.3
	s-0.3,0.3-0.6,0.4c-0.1,0-0.2,0.1-0.3,0.1c0,0.1,0.1,0.1,0.1,0.2c0.1,0.1,0.2,0.1,0.2,0c0.2-0.2,0.3-0.3,0.5-0.5l0,0l0,0
	c0.1-0.1,0.1-0.1,0.1-0.1c0.4-0.3,1.1,0.1,1.3-0.3s-0.1-0.7-0.3-0.9c-0.3-0.4-0.5-0.9-0.8-1.3C23.1,57.4,22.7,57.1,22.3,57.1z"/>
<path class="st1" d="M22.6,58.5c-0.1-0.4-0.7-0.7-1-0.4c-0.5,0.5,0,1.5,0.7,1.6S22.7,58.9,22.6,58.5z"/>
<path class="st0" d="M58.9,64.1c-0.4,0.6-0.7,1.2-0.9,1.8c-0.3,0.8-0.6,1.6-1,2.3c-0.1,0.3-0.4,0.6-0.7,0.8
	c-0.3,0.1-0.6-0.2-0.8-0.3s-0.6-0.1-0.8-0.3c-0.4-0.2-0.6-0.7-0.4-1.1c0-0.1,0.1-0.2,0.2-0.2c0.3-0.3,0.6-0.5,0.9-0.7
	c1.1-0.7,1.6-2.3,2.2-3.3c0.3-0.6,0.6-1.7,1.5-1.4c0.5,0.2,0.8,0.6,0.9,1.1C60.1,63.5,59.3,63.7,58.9,64.1z"/>
<path class="st1" d="M55.7,67.7c0.1,0.3,0.3,0.5,0.6,0.4c0.1,0,0.1,0,0.2-0.1c0.5-0.3,0.6-1,0.7-1.5c0.2-0.7,0.5-1.4,0.8-2.1
	c0.1-0.2,0.3-0.5,0.4-0.7c0.2-0.2,0.9-0.8,0.2-0.8c-0.3,0-0.6,0.4-0.7,0.7c-0.5,0.9-0.7,2.2-1.5,2.8C56.2,66.9,55.6,67.2,55.7,67.7z
	"/>
<path class="st2" d="M54.6,68.5c0.3,0.2,0.6,0.1,0.8,0.3s0.5,0.4,0.8,0.3c0.1,0,0.2-0.1,0.3-0.2c-0.6-0.1-1.1-0.3-1.6-0.7
	c-0.2-0.1-0.3-0.4-0.2-0.6c0,0,0,0,0,0c0.4-0.6,1.2-1,1.5-1.6s0.9-1.9,1.2-2.5s0.4-1,1.2-1.2c0.4-0.1,0.9,0.1,1,0.5
	c0.1,0.2,0.1,0.4,0,0.6c0.2-0.2,0.3-0.4,0.2-0.6c-0.1-0.5-0.5-0.9-0.9-1.1c-0.9-0.4-1.2,0.8-1.5,1.4c-0.6,1.1-1.1,2.6-2.2,3.3
	c-0.3,0.2-0.6,0.4-0.9,0.7c-0.3,0.3-0.3,0.9,0,1.2C54.4,68.4,54.5,68.4,54.6,68.5z"/>
<path class="st3" d="M54.7,66.8c0.4-0.1,0.8-0.3,1.1-0.6c0.5-0.7,1-1.5,1.4-2.3c0.2-0.7,0.6-1.3,1.2-1.8c0.5-0.3,1.2-0.1,1.5,0.4
	c0,0,0,0,0,0.1c-0.2-0.4-0.5-0.7-0.8-0.8c-0.9-0.4-1.2,0.8-1.5,1.4c-0.6,1.1-1.1,2.6-2.2,3.3C55.1,66.5,54.9,66.6,54.7,66.8z"/>
<path class="st0" d="M28.2,70.1c-0.9,0.1-1.8,0.1-2.7-0.1c-1.5-0.4-0.5-1.5-0.3-2.5c0.2-0.8-0.5-1.5,0.6-1.9s1.5,0.6,2.1,1.2
	c1.1,0.8,2.4,1.4,3.7,1.8c1.8,0.7,3.7,1.1,5.5,1.4c0.8,0.1,1.7,0.4,2.6,0.5c0.9,0,1.7,0.1,2.5,0.2c0.4,0.2,1,0.6,0.8,1.2
	c-0.1,0.3-0.2,0.4-0.3,0.7c0,0.4,0,0.7-0.1,1.1c-0.3,0.9-1.7,0.5-2.3,0.3c-1-0.3-1.8-0.9-2.7-1.2c-1.6-0.6-3.2-1.1-4.8-1.5
	c-1.2-0.5-2.4-0.8-3.7-1.1C28.9,70.1,28.6,70,28.2,70.1z"/>
<path class="st1" d="M26.2,68.6c-0.1,0.2-0.2,0.3-0.2,0.6c0.1,0.8,1.9,0.2,2.5,0.2c1,0.1,2.1,0.4,3.1,0.7c1.6,0.4,3.2,0.9,4.8,1.4
	c0.5,0.2,4.6,2.5,4.6,1.2c0-0.9-3.5-1.5-4.1-1.6c-2.2-0.5-4.3-1.2-6.5-1.8c-1.2-0.2-2.3-0.8-3.1-1.6c-0.3-0.4-0.9-1-1.3-0.3
	c-0.3,0.5,0.2,0.4,0.3,0.7C26.3,68.4,26.3,68.5,26.2,68.6z"/>
<path class="st2" d="M25.9,65.6c-1.1,0.4-0.4,1.1-0.6,1.9c0,0.1-0.1,0.2-0.1,0.3l0,0L25,68.1c-0.3,0.7-0.6,1.4,0.2,1.8
	c-0.3-1.1,0.2-3.1,1.3-3.2c0.3-0.1,0.7,0.1,0.9,0.3c0.9,0.8,1.3,1.5,2.7,1.9c2,0.6,4.1,1.1,6.2,1.5c1,0.2,1.9,0.2,2.9,0.4
	s2.5,0.4,2.9,1.5c0.2,0.5,0.1,1-0.2,1.4c-0.3,0.3-1,0.2-1.4,0.1c-0.2,0-0.4,0-0.7-0.1c0.3,0.1,0.5,0.2,0.8,0.3
	c0.6,0.2,2,0.5,2.3-0.3c0.1-0.4,0.1-0.7,0.1-1.1c0-0.3,0.2-0.4,0.3-0.7c0.2-0.6-0.4-1-0.8-1.2c-0.8-0.2-1.7-0.3-2.5-0.2
	c-0.9-0.1-1.7-0.3-2.6-0.5c-1.9-0.3-3.8-0.7-5.5-1.4c-1.3-0.4-2.6-1-3.7-1.8C27.3,66.2,26.9,65.2,25.9,65.6z"/>
<path class="st3" d="M27.8,66.6c-0.6-0.6-1-1.3-1.9-1s-0.7,0.7-0.6,1.2C25.5,66.1,26.8,66.2,27.8,66.6z"/>
<path class="st3" d="M32.8,69.7c-0.5-0.2-0.9-0.3-1.4-0.5c-1.5-0.5-2.8-1.2-4.1-2.1c0.9,0.8,1.3,1.5,2.7,1.9
	C31,69.2,31.9,69.4,32.8,69.7z"/>
<path class="st3" d="M37.2,70c-0.6-0.1-1.2-0.2-1.9-0.3c2.1,0.6,4.2,0.8,6.2,1.3c0.8,0.2,1,1.1,1.1,1.9c0.1,1.2-1.1,1.2-2.2,1.1
	c0.7,0.2,2,0.5,2.3-0.4c0.1-0.4,0.1-0.7,0.1-1.1c0-0.3,0.2-0.4,0.3-0.7c0.2-0.6-0.4-1-0.8-1.2c-0.8-0.2-1.7-0.3-2.5-0.2
	C39,70.4,38.1,70.1,37.2,70z"/>
<path class="st0" d="M28.9,65.9c-0.9,0.2-1.8,0.2-2.7,0.1c-1.5-0.3-0.6-1.4-0.4-2.5c0.1-0.8-0.6-1.5,0.5-1.9s1.5,0.5,2.2,1
	c1.2,0.7,2.4,1.2,3.8,1.6c1.8,0.5,3.7,0.9,5.6,1c0.9,0.1,1.7,0.3,2.6,0.3c0.8-0.1,1.7,0,2.5,0.1c0.4,0.2,1,0.5,0.9,1.1
	c0,0.3-0.2,0.4-0.2,0.7c0.1,0.4,0.1,0.7,0,1.1c-0.3,0.9-1.6,0.7-2.3,0.5c-0.9-0.3-1.9-0.7-2.8-1.1c-1.6-0.5-3.2-0.9-4.8-1.2
	c-1.2-0.4-2.4-0.7-3.7-0.9C29.7,65.8,29.3,65.8,28.9,65.9z"/>
<path class="st1" d="M27,64.6c-0.1,0.2-0.2,0.3-0.2,0.6c0.1,0.8,1.9,0.1,2.4,0.1c1,0.1,2.1,0.2,3.1,0.5c1.6,0.3,3.2,0.6,4.8,1.1
	c0.5,0.2,4.7,2.1,4.7,0.9c0-0.9-3.6-1.2-4.1-1.3c-2.2-0.4-4.4-0.9-6.6-1.3c-1.2-0.1-2.3-0.6-3.2-1.4c-0.4-0.4-1-1-1.3-0.2
	c-0.2,0.5,0.2,0.4,0.3,0.7C27,64.3,27,64.5,27,64.6z"/>
<path class="st2" d="M28.5,62.7c-0.7-0.5-1.2-1.4-2.2-1c-0.4,0.1-0.7,0.6-0.6,1c0,0,0,0,0,0c0.1,0.2,0.1,0.5,0.1,0.7
	c0,0.1,0,0.2-0.1,0.3c-0.2,1-0.9,2.1,0.5,2.3c0.2,0,0.3,0,0.5,0.1L26.4,66c-0.3-0.1-0.4-0.4-0.5-0.7c-0.1-0.5-0.1-1,0.1-1.4
	c0.2-0.5,0.5-1.1,1-1.2c0.3-0.1,0.6,0,0.9,0.2c1,0.8,1.4,1.4,2.8,1.7c2.1,0.4,4.1,0.8,6.2,1.1c1,0.1,1.9,0.1,2.9,0.2
	s2.5,0.2,2.9,1.3c0.2,0.5,0.1,1-0.2,1.4c-0.3,0.3-1,0.2-1.4,0.2c-0.2,0-0.4,0-0.7-0.1c0.3,0.1,0.6,0.2,0.8,0.3
	c0.7,0.2,2,0.4,2.3-0.5c0.1-0.4,0.1-0.7,0-1.1c0-0.3,0.2-0.4,0.2-0.7c0.1-0.6-0.4-0.9-0.9-1.1c-0.8-0.1-1.7-0.2-2.5-0.1
	c-0.9,0-1.7-0.2-2.6-0.3c-1.9-0.1-3.7-0.5-5.6-1C30.9,63.9,29.7,63.4,28.5,62.7z"/>
<path class="st3" d="M40.5,65.5c-0.9,0-1.7-0.2-2.6-0.3c-1.9-0.1-3.7-0.5-5.6-1c-1.3-0.3-2.6-0.9-3.8-1.6c-0.7-0.5-1.2-1.4-2.2-1
	s-0.4,1.1-0.5,1.9s-0.7,1.7-0.2,2.2l0,0c0-0.2,0-0.5,0-0.7c0-0.2,0.1-0.5,0.2-0.7c0.1-0.5,0.2-0.9,0.5-1.3c0.2-0.1,0.4-0.2,0.6-0.3
	c0.4-0.1,0.9-0.1,1.3,0.1c0.6,0.3,1.2,0.8,1.8,1.1c0.6,0.3,1.3,0.5,2,0.7c1.3,0.4,2.6,0.6,3.9,0.8c0.7,0.1,1.4,0.1,2,0.1
	c1.1,0,2.2,0.1,3.4,0.2c0.8,0.2,1.6,0.3,2,1c0.2,0.5,0.2,1-0.1,1.4c-0.1,0.3-0.4,0.5-0.6,0.7c-0.3,0.1-0.7,0.2-1.1,0.1
	c0.2,0,0.4,0.1,0.6,0.1h0.1h0.3h0.3h0.2H43l0.2-0.1c0,0,0.1,0,0.1,0c0.1,0,0.1-0.1,0.2-0.1c0,0,0,0,0.1-0.1c0.1-0.1,0.1-0.2,0.1-0.3
	c0.1-0.4,0.1-0.7,0-1.1c0-0.3,0.2-0.4,0.2-0.7c0.1-0.6-0.4-0.9-0.9-1.1C42.2,65.6,41.3,65.5,40.5,65.5z"/>
<path class="st0" d="M28.5,61.3c-0.8,0.4-1.6,0.7-2.5,0.8c-1.5,0.1-1-1.2-1.1-2.3c-0.1-0.8-1-1.2,0-2s1.6,0.1,2.4,0.4
	c1.3,0.4,2.7,0.5,4.1,0.5c1.9,0,3.8-0.2,5.6-0.5c0.8-0.2,1.7-0.2,2.6-0.4c0.8-0.3,1.6-0.5,2.4-0.6c0.5,0,1.1,0.2,1.2,0.8
	c0,0.3-0.1,0.4,0,0.7c0.1,0.3,0.2,0.7,0.3,1c0,0.9-1.4,1.1-2,1.1c-1,0-2-0.1-3-0.3c-1.7,0-3.3,0-5,0.2c-1.3,0-2.5,0-3.8,0.2
	C29.3,61,28.9,61.1,28.5,61.3z"/>
<path class="st1" d="M26.2,60.6c0,0.2-0.2,0.3,0,0.6c0.4,0.8,1.9-0.4,2.4-0.6c1-0.2,2.1-0.4,3.1-0.4c1.6-0.2,3.3-0.2,4.9-0.2
	c0.5,0,5.1,0.8,4.7-0.4c-0.3-0.9-3.8-0.2-4.3-0.2c-2.2,0.2-4.4,0.4-6.7,0.5c-1.2,0.2-2.4,0-3.4-0.5c-0.5-0.3-1.2-0.7-1.3,0.2
	c-0.1,0.5,0.3,0.3,0.5,0.6C26.2,60.3,26.2,60.5,26.2,60.6z"/>
<path class="st2" d="M27.2,58.3c-0.8-0.3-1.5-1-2.4-0.4c-0.4,0.2-0.5,0.8-0.3,1.2c0,0,0,0,0,0c0.1,0.2,0.2,0.4,0.3,0.7
	c0,0.1,0,0.2,0,0.3c0.1,1-0.3,2.2,1.1,2.1c0.2,0,0.3,0,0.5-0.1c-0.1,0-0.2,0-0.3,0c-0.3-0.1-0.5-0.2-0.7-0.5
	c-0.2-0.4-0.3-0.9-0.3-1.4c-0.1-0.6,0.2-1.1,0.7-1.4c0.3-0.1,0.6-0.1,0.9,0c1.1,0.5,1.7,1,3.1,0.9c2.1-0.1,4.2-0.3,6.3-0.7
	c1-0.1,1.9-0.5,2.8-0.6s2.4-0.4,3.2,0.4c0.3,0.4,0.4,0.9,0.2,1.4c-0.2,0.4-0.9,0.5-1.3,0.6l-0.7,0.1c0.3,0,0.6,0,0.9,0
	c0.7,0,2-0.2,2-1.1c-0.1-0.3-0.1-0.7-0.3-1c-0.1-0.3,0-0.4,0-0.7c0-0.6-0.7-0.8-1.2-0.8c-0.8,0.1-1.7,0.3-2.4,0.6
	c-0.8,0.2-1.7,0.3-2.6,0.4c-1.8,0.4-3.7,0.6-5.6,0.5C29.9,58.8,28.5,58.6,27.2,58.3z"/>
<path class="st3" d="M39.5,57.8c-0.8,0.2-1.7,0.3-2.6,0.4c-1.8,0.4-3.7,0.6-5.6,0.5c-1.4,0-2.7-0.1-4.1-0.5c-0.8-0.3-1.5-1-2.4-0.4
	s-0.1,1.1,0,2s-0.2,1.8,0.4,2.2l0,0c-0.1-0.2-0.2-0.4-0.2-0.7c0-0.3,0-0.5,0-0.7c-0.1-0.5,0-0.9,0.1-1.4c0.1-0.2,0.3-0.3,0.5-0.4
	c0.4-0.2,0.8-0.3,1.3-0.2c0.7,0.1,1.3,0.4,2.1,0.5c0.7,0.1,1.4,0.1,2.1,0.1c1.3,0,2.7-0.1,4-0.2c0.7-0.1,1.3-0.3,2-0.4
	c1.1-0.3,2.2-0.6,3.3-0.7c0.8-0.1,1.6-0.2,2.2,0.4c0.3,0.4,0.4,0.9,0.3,1.4c0,0.3-0.2,0.6-0.4,0.8c-0.3,0.2-0.6,0.3-1,0.4
	c0.2,0,0.4,0,0.6,0h0.1l0.3-0.1h0.1l0.2-0.1l0.2-0.1c0.1,0,0.1,0,0.2-0.1c0.1,0,0.1-0.1,0.2-0.1c0,0,0.1-0.1,0.1-0.1
	c0.1,0,0.1-0.1,0.1-0.2c0,0,0,0,0-0.1c0-0.1,0.1-0.2,0.1-0.3c-0.1-0.3-0.1-0.7-0.3-1c-0.1-0.3,0-0.4,0-0.7c0-0.6-0.7-0.8-1.2-0.8
	C41.1,57.4,40.3,57.6,39.5,57.8z"/>
<path class="st0" d="M44.7,65.8c0.8,0,2,1,2.6,1.2c1.3,0.4,2.7,0.6,4.1,0.8c0.6,0.2,1.3,0.3,1.9,0.3c0.6,0,1.2,0,1.8,0
	c1,0,1.1,0.7,1.1,1.6c-0.1,1.4-1.4,1.3-2.4,1.1s-2.1-0.4-3.1-0.6c-1.4-0.3-2.9-0.1-4.4-0.4c-0.9-0.2-2.4,0.3-2.8-0.9
	c-0.2-0.6,0.4-0.9,0.5-1.4s-0.2-1,0.2-1.5C44.2,65.8,44.4,65.8,44.7,65.8z"/>
<path class="st1" d="M53.9,70.3c0.2,0.1,0.4,0.1,0.7,0.1c0.8-0.3,0-1-0.4-1.1c-0.7,0-1.3,0-2,0.1c-1.4-0.1-2.8-0.2-4.2-0.5
	c-0.5,0-1-0.2-1.4-0.6c-0.3-0.3-0.5-0.7-1-0.9c-0.9-0.3-1.1,0.6-0.8,1.3s1.2,0.4,1.9,0.5c2.4,0.1,4.7,0.5,7.1,1.1L53.9,70.3z"/>
<path class="st2" d="M47.2,66.9c-0.5-0.2-1.7-1.1-2.6-1.2c-0.2,0-0.5,0.1-0.6,0.2c-0.3,0.4-0.1,1-0.2,1.5s-0.7,0.8-0.5,1.4
	c0.1,0.2,0.2,0.5,0.4,0.6c-0.2-1,0.2-3,1.2-3.2c0.6-0.1,1.5,0.7,2,1c1.3,0.8,2.8,1.2,4.4,1.2c1,0,4.6,0,4.1,1.9
	c0,0.2-0.1,0.3-0.3,0.4c0.5-0.1,0.9-0.6,0.9-1.2c0-0.8-0.1-1.5-1.1-1.6c-0.6,0-1.2,0.1-1.8,0c-0.6-0.1-1.3-0.2-1.9-0.3
	C49.9,67.6,48.6,67.3,47.2,66.9z"/>
<path class="st3" d="M53.2,68.1c-0.6-0.1-1.3-0.2-1.9-0.3c-1-0.2-2.1-0.3-3.1-0.6c1.3,0.6,2.6,0.9,4,1c1.1-0.1,2.1,0.1,3.1,0.5
	c0.6,0.2,0.8,0.8,0.6,1.4c-0.1,0.2-0.3,0.4-0.5,0.6c0.4-0.2,0.6-0.6,0.6-1.1c0-0.8-0.1-1.5-1.1-1.6C54.4,68.1,53.8,68.1,53.2,68.1z"
	/>
<path class="st0" d="M43.6,70.9c0.8,0,2,0.7,2.5,0.8c1.3,0.2,2.6,0.3,3.9,0.4c0.6,0,1.2,0.2,1.8,0.1s1.1-0.2,1.7-0.2
	c0.9-0.1,1.1,0.6,1.1,1.3c0,1.3-1.1,1.4-2.2,1.3s-2-0.1-3-0.2c-1.4-0.1-2.8,0.2-4.1,0.1c-0.8-0.1-2.2,0.5-2.7-0.6
	c-0.2-0.5,0.3-0.8,0.3-1.4s-0.3-1,0-1.4C43.1,71,43.4,70.9,43.6,70.9z"/>
<path class="st1" d="M52.6,74.2c0.2,0,0.4,0,0.6,0c0.8-0.4-0.1-1-0.5-1c-0.6,0-1.2,0.1-1.8,0.2c-1.3,0.1-2.7,0.1-4-0.1
	c-0.5,0-1-0.1-1.4-0.4c-0.3-0.2-0.6-0.6-1-0.7c-0.9-0.2-1,0.7-0.7,1.3s1.2,0.3,1.9,0.2c2.2-0.1,4.5,0,6.7,0.3L52.6,74.2z"/>
<path class="st2" d="M46.1,71.7c-0.5-0.1-1.7-0.9-2.5-0.8c-0.2,0-0.4,0.1-0.6,0.3c-0.3,0.4,0,0.9,0,1.4s-0.5,0.8-0.3,1.4
	c0.1,0.2,0.3,0.4,0.5,0.5c-0.3-0.9-0.1-2.8,0.8-3.1c0.6-0.2,1.5,0.4,2,0.7c1.3,0.6,2.8,0.8,4.2,0.6c1,0,4.3-0.5,4,1.4
	c0,0.2-0.1,0.3-0.2,0.4c0.5-0.2,0.8-0.7,0.7-1.2c0-0.8-0.2-1.4-1.1-1.3c-0.6,0-1.1,0.2-1.7,0.2s-1.2-0.1-1.8-0.1
	C48.7,72,47.4,71.9,46.1,71.7z"/>
<path class="st3" d="M51.8,72.2c-0.6,0-1.2-0.1-1.8-0.1c-1,0-2-0.1-3-0.2c1.2,0.4,2.5,0.6,3.8,0.6c1-0.2,2-0.2,3,0.2
	c0.5,0.1,0.9,0.7,0.7,1.2c-0.1,0.2-0.2,0.4-0.4,0.6c0.3-0.2,0.5-0.6,0.4-1c0-0.8-0.2-1.4-1.1-1.3C52.9,72,52.4,72.2,51.8,72.2z"/>
<path class="st0" d="M57.7,59.4c-0.4,0.4-0.8,0.9-1,1.5c-0.4,0.6-0.8,1.3-1.2,1.9c-0.2,0.3-0.4,0.5-0.8,0.6c-0.3,0-0.5-0.2-0.7-0.4
	s-0.5-0.2-0.7-0.3c-0.3-0.2-0.4-0.7-0.2-1.1c0-0.1,0.1-0.1,0.2-0.2c0.3-0.2,0.6-0.4,0.9-0.5c1-0.5,1.7-1.8,2.4-2.6
	c0.4-0.5,0.8-1.4,1.6-1c0.4,0.3,0.6,0.7,0.6,1.1C58.8,59,58.1,59.1,57.7,59.4z"/>
<path class="st1" d="M54.4,62.1c0,0.3,0.2,0.5,0.5,0.5c0.1,0,0.1,0,0.2,0c0.5-0.2,0.6-0.8,0.8-1.2c0.3-0.6,0.6-1.2,1-1.7
	c0.1-0.2,0.3-0.4,0.5-0.5c0.2-0.1,0.9-0.5,0.3-0.7c-0.3-0.1-0.6,0.3-0.7,0.5c-0.6,0.7-0.9,1.8-1.7,2.3
	C54.9,61.5,54.4,61.7,54.4,62.1z"/>
<path class="st2" d="M53.3,62.6c0.2,0.2,0.5,0.2,0.7,0.3s0.4,0.5,0.7,0.4c0.1,0,0.2-0.1,0.3-0.1c-0.5-0.2-0.9-0.5-1.3-0.8
	c-0.2-0.1-0.2-0.3-0.1-0.5c0,0,0,0,0,0c0.4-0.5,1.2-0.7,1.6-1.2s1.1-1.6,1.4-2s0.5-0.8,1.2-0.8c0.4-0.1,0.8,0.2,0.8,0.6
	c0,0.2,0,0.4-0.1,0.5c0.2-0.1,0.3-0.3,0.3-0.5c0-0.4-0.3-0.9-0.7-1.1c-0.8-0.5-1.2,0.5-1.6,1c-0.7,0.8-1.4,2.2-2.4,2.6
	c-0.3,0.1-0.6,0.3-0.9,0.5c-0.3,0.3-0.4,0.7-0.1,1.1C53.2,62.6,53.3,62.6,53.3,62.6z"/>
<path class="st3" d="M53.7,61.2c0.4,0,0.7-0.2,1-0.3c0.6-0.6,1.1-1.2,1.5-1.8c0.3-0.6,0.7-1.1,1.3-1.4c0.5-0.2,1.1,0.1,1.2,0.6
	c-0.1-0.4-0.3-0.7-0.6-0.9c-0.8-0.5-1.2,0.5-1.6,1c-0.7,0.8-1.4,2.2-2.4,2.6C54.1,61,53.9,61.1,53.7,61.2z"/>
<path class="st0" d="M43.8,58.1c0.7,0.1,1.7,1.1,2.2,1.2c1.2,0.4,2.4,0.8,3.6,1.1c0.6,0.1,1.1,0.4,1.7,0.5s1.1,0,1.6,0.1
	c0.9,0.1,0.9,0.7,0.8,1.5c-0.2,1.2-1.3,1.1-2.2,0.8s-1.8-0.5-2.7-0.8c-1.3-0.4-2.6-0.3-3.9-0.7c-0.8-0.2-2.2,0-2.4-1
	c-0.1-0.5,0.4-0.7,0.5-1.2s-0.1-0.9,0.3-1.3C43.4,58.1,43.6,58,43.8,58.1z"/>
<path class="st1" d="M51.6,62.8c0.2,0.1,0.4,0.1,0.6,0.1c0.8-0.2,0.1-0.9-0.3-1c-0.6-0.1-1.2-0.1-1.8-0.1c-1.2-0.2-2.5-0.4-3.7-0.8
	c-0.5-0.1-0.9-0.3-1.2-0.6c-0.3-0.3-0.4-0.7-0.8-0.8c-0.8-0.4-1.1,0.5-0.9,1.1s1,0.5,1.7,0.6c2.1,0.3,4.2,0.8,6.2,1.6L51.6,62.8z"/>
<path class="st2" d="M46,59.3c-0.5-0.2-1.5-1.1-2.2-1.2c-0.2,0-0.4,0-0.6,0.2c-0.3,0.3-0.2,0.9-0.3,1.3s-0.7,0.7-0.5,1.2
	c0,0.2,0.2,0.4,0.3,0.6c-0.1-0.9,0.4-2.7,1.3-2.7c0.6,0,1.3,0.7,1.7,1c1.1,0.8,2.4,1.3,3.8,1.4c0.9,0.1,4.1,0.3,3.5,2
	c-0.1,0.1-0.1,0.3-0.3,0.3c0.5-0.1,0.9-0.5,0.9-1c0.1-0.7,0-1.4-0.8-1.5c-0.5,0-1.1,0-1.6-0.1s-1.1-0.3-1.7-0.5
	C48.4,60.1,47.2,59.7,46,59.3z"/>
<path class="st3" d="M51.3,60.8c-0.6-0.1-1.1-0.3-1.7-0.5c-0.9-0.2-1.8-0.5-2.7-0.8c1.1,0.6,2.2,1.1,3.5,1.2c1,0,1.9,0.2,2.7,0.7
	c0.5,0.3,0.6,0.9,0.4,1.4c-0.1,0.2-0.2,0.3-0.4,0.4c0.4-0.2,0.6-0.5,0.6-0.9c0.1-0.7,0-1.4-0.8-1.5C52.3,60.9,51.8,60.9,51.3,60.8z"
	/>
<path class="st0" d="M21.8,64.3c-0.5-0.6-1.3-1-1.5-0.6c0,0.1,0,0.2,0,0.2c0.2,0.5,0.6,0.7,0.9,1.1c0.2,0.2,0.8,0.6,1,0.4
	S22.3,64.8,21.8,64.3z"/>
<path class="st0" d="M37.8,77.1c0.7-0.1,1.8,0.4,2.3,0.4c1.2,0,2.3,0,3.5-0.1c0.5-0.1,1.1,0,1.6-0.1s0.9-0.3,1.4-0.4
	c0.8-0.2,1,0.3,1.2,1c0.2,1.2-0.8,1.3-1.7,1.4s-1.7,0.1-2.6,0.2c-1.2,0.1-2.4,0.5-3.6,0.5c-0.8,0-1.9,0.7-2.4-0.2
	c-0.2-0.4,0.1-0.8,0.1-1.2s-0.3-0.8-0.1-1.2C37.4,77.2,37.6,77.1,37.8,77.1z"/>
<path class="st1" d="M46,78.9c0.2,0,0.4,0,0.5-0.1c0.6-0.4-0.2-0.8-0.6-0.8c-0.5,0.1-1.1,0.2-1.6,0.4c-1.1,0.2-2.3,0.3-3.5,0.4
	c-0.4,0.1-0.9,0-1.3-0.2c-0.3-0.2-0.6-0.5-1-0.5c-0.8-0.1-0.8,0.7-0.4,1.2s1,0.1,1.7,0c1.9-0.3,3.9-0.5,5.9-0.5L46,78.9z"/>
<path class="st2" d="M40,77.5c-0.5,0-1.6-0.6-2.3-0.4c-0.2,0-0.4,0.1-0.5,0.3c-0.2,0.4,0.1,0.8,0.1,1.2s-0.4,0.8-0.1,1.2
	c0.1,0.2,0.3,0.3,0.5,0.4c-0.4-0.7-0.4-2.4,0.3-2.8c0.5-0.2,1.4,0.2,1.8,0.4c1.2,0.4,2.5,0.4,3.8,0.1c0.8-0.2,3.7-0.9,3.7,0.8
	c0,0.1,0,0.3-0.1,0.4c0.4-0.2,0.6-0.7,0.5-1.1c-0.1-0.7-0.3-1.2-1.2-1c-0.5,0.1-0.9,0.3-1.4,0.4s-1.1,0-1.6,0.1
	C42.3,77.5,41.2,77.6,40,77.5z"/>
<path class="st3" d="M45.1,77.3c-0.5,0.1-1.1,0-1.6,0.1c-0.9,0.1-1.8,0.1-2.6,0.1c1.1,0.2,2.3,0.2,3.4,0c0.8-0.3,1.7-0.4,2.6-0.2
	c0.5,0.1,0.8,0.5,0.8,1c0,0.2-0.1,0.4-0.3,0.5c0.3-0.3,0.4-0.6,0.3-1c-0.1-0.7-0.3-1.2-1.2-1C46,77,45.5,77.2,45.1,77.3z"/>
</svg>
