<svg id="Layer_1" data-name="Layer 1" xmlns="http://www.w3.org/2000/svg" viewBox="0 0 4000 4000"><defs><style>.cls-1{opacity:0.2;}.cls-2{fill:#650000;}.cls-3{fill:#b17e4f;}.cls-4{fill:#d2623a;}.cls-5{opacity:0.3;}.cls-6{fill:#fff;}.cls-7{fill:#bc462f;}.cls-8{fill:#ff9494;}.cls-9{fill:#ed7272;}.cls-10{fill:#f9d6b6;}.cls-11{fill:#fad6b7;}.cls-12{fill:#f4b68c;}.cls-13{fill:#a05f3c;}.cls-14{fill:#5e3519;}.cls-15{fill:#e2b28a;}.cls-16{fill:#f28475;}.cls-17{fill:#f44a4a;}.cls-18{fill:#e8e8e8;}.cls-19{fill:#ff8080;}.cls-20{opacity:0.7;}.cls-21{fill:#ff5a5a;}.cls-22{fill:#e54141;}</style></defs><g class="cls-1"><ellipse class="cls-2" cx="2200.98" cy="3552.5" rx="988.7" ry="117.5"/></g><path class="cls-3" d="M1856.18,2838.84s-166.12,338-493.07,266c-224.39-49.39-306.59-312.17-471.8-312.17-198,0-127.2,265.4-313.61,248.53C457,3030.28,451.15,2756.08,623.59,2623c182.23-140.62,392.18-93.84,525.65,61.86,90.74,105.85,191.38,202.67,269.4,225,114.3,32.66,271.7-34.58,325.62-173.86"/><path class="cls-4" d="M1856.2,2838.83s-166.14,338-493.08,266c-224.38-49.4-306.6-312.15-471.81-312.15-198,0-127.22,265.37-313.61,248.53-31.81-2.88-55.66-24.07-70.37-56.14V2985c-41-89.6-10.7-264,116.25-362,182.22-140.6,392.2-93.86,525.65,61.88,90.75,105.85,191.36,202.65,269.41,225,81.47,23.28,184.84-4.22,257-72.36A277.15,277.15,0,0,0,1744.25,2736Z"/><g class="cls-5"><path class="cls-6" d="M1675.62,2837.5c-31.49,46.28-84.75,94.75-173.46,112.65-145.35,29.32-303.23-155.39-367.55-237.92-71.3-91.51-281.68-213.45-467.4-85.56C502,2740.48,507.24,2981.07,507.33,2985c-41-89.6-10.7-264,116.25-362,182.22-140.6,392.2-93.86,525.65,61.88,90.75,105.85,191.36,202.65,269.41,225C1500.11,2933.14,1603.48,2905.64,1675.62,2837.5Z"/></g><path class="cls-7" d="M1856.2,2838.83s-166.14,338-493.08,266c-224.38-49.4-306.6-312.15-471.81-312.15-198,0-127.22,265.37-313.61,248.53-49.18-4.48-79.3-52.59-86.05-117.09,12.48,27.76,32.87,47.71,60.9,55.35,152.24,41.36,120.83-244.23,338.76-241.79,165.21,1.87,293.5,269.29,471.81,312.15,231,55.57,283.54-118.69,295.45-197.45,36.73-29.63,67.25-68.81,85.68-116.39Z"/><path class="cls-3" d="M1744.25,2681a274.83,274.83,0,0,1-50.33,82.58Z"/><path class="cls-2" d="M1452.21,3132.5a431,431,0,0,1-92.91-10.33c-119.34-26.27-199.69-109.68-270.58-183.28C1022.31,2870,965,2810.41,891.31,2810.41c-88.23,0-116.07,58.93-145.54,121.32-30.26,64.05-64.59,136.66-169.67,127.14-44.05-4-78.36-37.3-94.12-91.4-30.12-103.38,10.56-265.74,130.77-358.49,90.52-69.84,192.38-98.78,294.54-83.69,94.88,14,185.59,66.59,255.42,148.05,107.64,125.57,197.83,201.45,260.8,219.45,102.67,29.31,252.82-30.49,304.2-163.2a17.75,17.75,0,0,1,33.1,12.81c-48.93,126.37-172.37,193.34-281.39,193.35a238.82,238.82,0,0,1-65.65-8.84c-70.69-20.19-164.22-97.74-278-230.47-137.69-160.63-339.17-184.5-501.34-59.37-108.21,83.51-145.17,228.52-118.38,320.47,6.73,23.12,23.91,62.43,63.24,66,80.49,7.25,104.24-43.13,134.39-107,31.37-66.39,66.92-141.65,177.63-141.65,88.75,0,153.94,67.69,223,139.35,70.69,73.39,143.79,149.28,252.64,173.24,129.28,28.46,247.87-5.53,352.52-101,79.29-72.34,120.41-154.67,120.82-155.49a17.74,17.74,0,0,1,31.84,15.66c-1.75,3.57-44,88.37-127.86,165.24C1657.2,3091.66,1557.62,3132.5,1452.21,3132.5Z"/><path class="cls-8" d="M1216.27,2759.07c-41.09,28.21-90.66-8.43-122-36.51-36.16-32.42-79.13-6-141.74-17.11-84-14.88-85.76-69.1-138.63-94.48-28.92-13.88-42.85-36.87-49.05-59.75,141.85-38.35,284.59,17.15,384.43,133.66C1171.16,2710.46,1193.64,2735.48,1216.27,2759.07Z"/><path class="cls-8" d="M1216.26,2759.09c-41.09,28.21-90.67-8.44-122-36.51-36.16-32.43-79.11-6.09-141.75-17.15-84-14.84-85.78-69.08-138.64-94.44-28.92-13.9-42.82-36.91-49-59.75a347.56,347.56,0,0,1,61.48-10.88c120.78-10.17,237.57,44.87,323,144.5q6.58,7.74,13.32,15.37C1180.23,2720.49,1198.18,2740.26,1216.26,2759.09Z"/><path class="cls-9" d="M1216.26,2759.09c-41.09,28.21-90.67-8.44-122-36.51-36.16-32.43-79.11-6.09-141.75-17.15-84-14.84-85.78-69.08-138.64-94.44-28.92-13.9-42.82-36.91-49-59.75a347.56,347.56,0,0,1,61.48-10.88c3.6,16.92,13,36.51,35.63,50.55,48.11,29.85,45.17,69.43,104.08,73.61s109.85-7.55,151.12,25.67c17.37,14,33.05,14.35,45.44,10C1180.23,2720.49,1198.18,2740.26,1216.26,2759.09Z"/><path class="cls-2" d="M1183.75,2787.11c-44,0-85.17-36.85-101.35-51.33-15.4-13.8-31.9-13.31-62.16-11.17-20.46,1.46-43.65,3.12-70.84-1.69-56.89-10.07-80.76-37-101.83-60.73-12.72-14.34-23.7-26.73-41.39-35.22-29.49-14.16-49.72-38.74-58.5-71.1a17.76,17.76,0,0,1,12.5-21.78c144-38.91,294.46,13.13,402.53,139.24,22.82,26.63,45.15,51.34,66.37,73.46a17.74,17.74,0,0,1-2.76,26.91A73.74,73.74,0,0,1,1183.75,2787.11Zm-139.53-99.17c21.67,0,42.36,3.92,61.85,21.41,31.4,28.09,57,42,77.56,42h1c-15.89-17.17-32.25-35.56-48.85-54.93-94.11-109.82-222.59-158.49-347.2-132.65,7.23,13.79,18.12,24.07,33,31.2,24.13,11.58,38.6,27.89,52.58,43.66,19.72,22.22,36.74,41.42,81.46,49.34,22.87,4,42.83,2.62,62.14,1.23C1026.7,2688.57,1035.54,2687.94,1044.22,2687.94Z"/><path class="cls-2" d="M817.05,2625.9a13.3,13.3,0,0,1-9.91-22.18c2.17-2.43,53.76-59.71,95.48-73.23a13.31,13.31,0,0,1,8.2,25.32c-29,9.38-70.34,50.58-83.85,65.66A13.3,13.3,0,0,1,817.05,2625.9Z"/><path class="cls-2" d="M859.82,2662.57a13.3,13.3,0,0,1-10.08-22c2.41-2.8,59.67-68.82,118.88-92.65a13.31,13.31,0,0,1,9.94,24.69c-53.27,21.44-108.1,84.68-108.65,85.32A13.27,13.27,0,0,1,859.82,2662.57Z"/><path class="cls-2" d="M887.6,2690.65a13.31,13.31,0,0,1-9.32-22.81c3-2.91,73.43-71.6,138.53-98.47A13.31,13.31,0,0,1,1027,2594c-60.28,24.87-129.36,92.19-130.06,92.87A13.27,13.27,0,0,1,887.6,2690.65Z"/><path class="cls-2" d="M935.06,2714.81a13.31,13.31,0,0,1-9.31-22.82c3.36-3.28,82.86-80.65,138.7-94.9a13.31,13.31,0,1,1,6.58,25.79c-48.92,12.49-125.89,87.38-126.66,88.14A13.28,13.28,0,0,1,935.06,2714.81Z"/><path class="cls-2" d="M1109.13,2748.53a13.33,13.33,0,0,1-12.3-8.2c-21.6-52-88.41-92-89.08-92.37a13.31,13.31,0,0,1,13.56-22.9c3,1.8,75.13,45,100.1,105.05a13.31,13.31,0,0,1-12.28,18.42Z"/><path class="cls-3" d="M1694.77,2747s-26,507.81,5.63,681l333.1-5.8s93.25-367.26,157.6-474.84"/><path class="cls-4" d="M2191.09,2947.4c-64.32,107.59-157.61,474.82-157.61,474.82l-74.22,1.29L1700.41,3428c-23.85-130.42-15-450.44-9.15-600.67,1.91-49.35,3.51-80.36,3.51-80.36Z"/><path class="cls-7" d="M2191.09,2947.4c-64.32,107.59-157.61,474.82-157.61,474.82l-74.22,1.29c48.74-63.5,90.84-267.29,78.76-302.6-26.66-78-292.66-127-346.76-293.54,1.91-49.35,3.51-80.36,3.51-80.36Z"/><path class="cls-2" d="M1700.4,3445.78a17.74,17.74,0,0,1-17.45-14.55c-31.67-173.27-7-664.32-5.9-685.14l35.44,1.82c-.25,4.92-24.18,480.25,2.92,662.12l304.28-5.3c17.56-67.69,97.45-368.26,156.18-466.44l30.46,18.22C2144,3060.65,2051.63,3423,2050.7,3426.6a17.74,17.74,0,0,1-16.89,13.38l-333.1,5.8Z"/><path class="cls-10" d="M1640.9,3554.94s-81.77,19.47-70-43.83c12.79-68.8,118.12-132.83,219.17-146.12,38.81-5.1,155.4-17.42,239.26,35.16,93.45,58.6,64.68,98.68,34.4,104.81-38.28,7.74-93.76-30.61-129.83-25.82-13.7,1.83-50.68,17.36-87.67,87.22-28.53,53.89-54.79,57.53-76.48,52s-24.65-39.27-24.65-39.27-29,36.38-74.66,20.55C1639.53,3589,1640.9,3554.94,1640.9,3554.94Z"/><path class="cls-11" d="M2063.74,3505c-38.3,7.73-93.78-30.61-129.85-25.86-13.68,1.82-50.68,17.37-87.69,87.25-28.52,53.88-54.77,57.52-76.45,52.06s-24.65-39.27-24.65-39.27-29,36.34-74.67,20.52c-30.92-10.7-29.54-44.73-29.54-44.73s-81.78,19.46-70-43.84c.22-1.16.44-2.27.71-3.38,15.55-67.52,119.05-129.67,218.46-142.73,38.83-5.1,155.39-17.45,239.26,35.14,25.23,15.86,41.58,30.34,51.35,43.14C2107.09,3477.92,2085.81,3500.49,2063.74,3505Z"/><path class="cls-12" d="M2063.74,3505c-38.3,7.73-93.78-30.61-129.85-25.86-13.68,1.82-50.68,17.37-87.69,87.25-28.52,53.88-54.77,57.52-76.45,52.06s-24.65-39.27-24.65-39.27-29,36.34-74.67,20.52c-30.92-10.7-29.54-44.73-29.54-44.73s-81.78,19.46-70-43.84c.22-1.16.44-2.27.71-3.38,18.57,13.51,49.93,24.7,87.11-9.11,0,0-7.15,60.2,28.61,68.59s72-38.51,72-38.51-.4,42.73,32.43,39.53c27.72-2.71,70-102.39,119.31-120s96.58,15.32,132.91,29.4c30.34,11.73,36.74-12.88,36.74-34.33C2107.09,3477.92,2085.81,3500.49,2063.74,3505Z"/><path class="cls-2" d="M1783.46,3638a73.4,73.4,0,0,1-18.07-2.35c-15.15-3.83-24.31-14.75-29.83-25.88-16.38,9.66-40.72,17.21-70.94,6.72-22.81-7.91-33.9-25.6-38.58-41.37-17.54,1.41-43,.17-59.36-15.39-8.86-8.44-18.36-24.28-13.23-51.82,15.25-82.1,133.5-147.22,234.3-160.47,72-9.46,173.94-10.6,251,37.72,65.89,41.32,75.07,75.49,71.17,96.89-3.64,20-20.39,35.83-42.68,40.34-24.83,5-52.09-4.45-78.45-13.6-19.46-6.75-39.6-13.73-52.56-12-1.45.2-36,5.57-74.32,77.93C1839.45,3617.08,1813.65,3638,1783.46,3638Zm-38.37-76.5a17.3,17.3,0,0,1,5.21.8,17.7,17.7,0,0,1,12.46,15.33c.85,8.65,5.37,22.11,11.33,23.62,9.63,2.42,29.64,7.49,56.45-43.15,43.89-82.92,88.41-94.83,101-96.5,21.32-2.85,45.51,5.55,68.88,13.67,21.86,7.59,44.48,15.45,59.76,12.34,6.54-1.33,13.65-5.52,14.82-11.93.71-3.88,1.37-25-55.12-60.45-53.14-33.33-134-44.91-227.51-32.6-98.05,12.88-193.4,74.46-204,131.76-1.78,9.55-.84,16.14,2.79,19.6,8.24,7.89,32.14,6.87,45.7,3.72a17.77,17.77,0,0,1,21.81,17.83c0,2.28.17,21.38,17.6,27.42,32.83,11.39,54.17-13.87,55.06-15A17.94,17.94,0,0,1,1745.09,3561.46Zm-104.19-6.52h0Z"/><path class="cls-2" d="M1811.37,3464c-27.42,32.16-49.27,73.78-48.56,116.76-.88,23.48-35,23.3-35.6-.26,2.43-26.32,11.88-51.38,25.37-73.52a245.13,245.13,0,0,1,46.61-55.88,8.88,8.88,0,0,1,12.18,12.9Z"/><path class="cls-2" d="M1729,3442.16c-32.87,30-66.76,69.25-70.44,115.13-2.21,23.37-36.28,21.24-35.49-2.3,4.38-28.91,19.41-53.85,37.46-75.38a298.64,298.64,0,0,1,58-51.76,8.88,8.88,0,0,1,10.5,14.31Z"/><path class="cls-3" d="M2600.53,2555.16s214.36,467.4,225.41,602.2l-219.53,197.85s-38-29.47-91.55-100.46c-91-120.75-148.49-219.13-276.62-259"/><path class="cls-4" d="M2825.92,3157.38,2647.7,3318l-41.31,37.22s-38-29.49-91.55-100.48c-91-120.74-148.46-219.13-276.62-259l362.31-440.58s21.41,46.69,51.08,114.83C2715.76,2817.42,2818.37,3065.16,2825.92,3157.38Z"/><path class="cls-7" d="M2647.7,3318l-41.31,37.22s-38-29.49-91.55-100.48c-91-120.74-148.46-219.13-276.62-259l362.31-440.58s21.41,46.69,51.08,114.83c-9,85.82-41.09,211.94-144.5,315.75C2418.58,3074.62,2544.11,3209.75,2647.7,3318Z"/><path class="cls-2" d="M2606.4,3373a17.66,17.66,0,0,1-10.86-3.72c-1.63-1.26-40.54-31.76-94.85-103.81-12-15.89-23.38-31.38-34.39-46.37-71.26-96.91-127.55-173.45-233.34-206.37l10.55-33.89c116.92,36.39,176.26,117.08,251.38,219.24,11,14.9,22.28,30.3,34.14,46,34.53,45.81,62.53,73.93,77.17,87.44l201.13-181.26c-18.44-140.65-220.84-583.15-222.93-587.7l32.26-14.79c8.81,19.2,215.79,471.8,227,608.15a17.74,17.74,0,0,1-5.81,14.63l-219.53,197.85A17.7,17.7,0,0,1,2606.4,3373Z"/><path class="cls-3" d="M2264.7,1965.07s118.86-18.92,289.86,61.13c102.87,48.16,168.92,62.44,225.45,38.12s202.43-149.69,305.69-150.1,172.09,222.74,145.36,224.93c-41.45,3.39-104.77,101.75-189.06,175.37-67.58,59-261.33,220.09-573.55,67.27Z"/><path class="cls-3" d="M2264.7,1965.07s118.86-18.92,289.86,61.13c102.87,48.16,168.92,62.44,225.45,38.12s202.43-149.69,305.69-150.1,172.09,222.74,145.36,224.93c-41.45,3.39-104.77,101.75-189.06,175.37-67.58,59-261.33,220.09-573.55,67.27Z"/><path class="cls-4" d="M3231.05,2139.14c-41.45,3.38-104.75,101.77-189.06,175.38-67.56,59-261.33,220.11-573.53,67.25l-94.08-192.43L2264.7,1965.05s118.87-18.88,289.85,61.17c102.88,48.16,168.94,62.42,225.44,38.12s202.43-149.7,305.71-150.1c33.14-.14,62.77,22.78,86.8,54.06C3223.32,2034.35,3249.22,2137.68,3231.05,2139.14Z"/><path class="cls-7" d="M3231.05,2139.14c-41.45,3.38-104.75,101.77-189.06,175.38-67.56,59-261.33,220.11-573.53,67.25l-94.08-192.43,113.94-27.54s85,185.86,281.41,188.79c168.31,2.53,194.52-76.18,175.91-108.57-74.94-130.24-6.49-171.42,27.19-226.15,17.45-28.38,112.38-41.53,199.67-47.57C3223.32,2034.35,3249.22,2137.68,3231.05,2139.14Z"/><path class="cls-13" d="M3052.65,2305c-3.51,3.24-7.06,6.44-10.61,9.55-53.09,46.33-183.87,155.52-388.65,126.42,4.22-32,13.55-74.22,34.43-103.1a291.29,291.29,0,0,0,81.91,12.75c125.67,1.91,172.13-41.53,179.86-77.12C2977.05,2267.74,3007.52,2272.76,3052.65,2305Z"/><path class="cls-3" d="M2501.82,2003.88c-51,36.42-110.3,65.83-174.53,89.15l-62.59-128S2359.63,1950,2501.82,2003.88Z"/><path class="cls-13" d="M1713.74,2160.47c-43.14-3.87-83.87-9.42-121.1-16.4,16.35-17,33.19-32.47,49.89-44.82,23.85,12.13,61.17,39.72,71.16,60.28A6.62,6.62,0,0,1,1713.74,2160.47Z"/><path class="cls-7" d="M2501.82,2003.88c-51,36.42-110.3,65.83-174.53,89.15l-62.59-128S2359.63,1950,2501.82,2003.88Z"/><path class="cls-13" d="M1823.68,2015.87l-18.3,150.06c-77-2.4-149.35-10-211.89-21.68,19.76-20.43,40.87-39.62,62.37-55C1689.53,2065,1765.89,2024.85,1823.68,2015.87Z"/><path class="cls-13" d="M2393,2066.16c-197.28,90.57-460,112.47-669.08,95.15,11.46-77.34,20.88-129,20.88-129l451.59-94.62Z"/><path class="cls-14" d="M2720.89,2463.6c-83.51,0-170.59-22-260.24-65.87l15.61-31.88c307.59,150.56,493.11-11.45,554.07-64.7,33.2-29,63.48-62.36,90.19-91.8,40-44.12,70.14-77.33,98.68-85.88-.84-22.83-20.85-92.91-61.32-145.12-16.43-21.17-42.22-46.38-71.9-46.38h-.21c-66.62.26-157.27,59.86-223.46,103.38-30.42,20-56.69,37.27-75.29,45.27-68.35,29.42-145.37,5.94-240-38.35-163.28-76.43-278.46-59.84-279.59-59.67l-5.54-35c5.07-.81,126.24-18.84,300.17,62.58C2665.13,2058.37,2724.26,2069,2773,2048c15.74-6.77,40.81-23.25,69.83-42.33,69.9-46,165.65-108.9,242.8-109.21h.37c100.79,0,166.19,170.89,168.52,225.3,1.29,29.91-15,34.48-22,35.06-17.75,1.45-52.3,39.52-85.7,76.35-27.36,30.16-58.37,64.34-93.12,94.69-29.48,25.75-98.5,86-201.65,116.72A457.68,457.68,0,0,1,2720.89,2463.6Z"/><path class="cls-14" d="M2720.89,2463.6c-83.51,0-170.59-22-260.24-65.87l15.61-31.88c307.59,150.56,493.11-11.45,554.07-64.7,33.2-29,63.48-62.36,90.19-91.8,40-44.12,70.14-77.33,98.68-85.88-.84-22.83-20.85-92.91-61.32-145.12-16.43-21.17-42.22-46.38-71.9-46.38h-.21c-66.62.26-157.27,59.86-223.46,103.38-30.42,20-56.69,37.27-75.29,45.27-68.35,29.42-145.37,5.94-240-38.35-163.28-76.43-278.46-59.84-279.59-59.67l-5.54-35c5.07-.81,126.24-18.84,300.17,62.58C2665.13,2058.37,2724.26,2069,2773,2048c15.74-6.77,40.81-23.25,69.83-42.33,69.9-46,165.65-108.9,242.8-109.21h.37c100.79,0,166.19,170.89,168.52,225.3,1.29,29.91-15,34.48-22,35.06-17.75,1.45-52.3,39.52-85.7,76.35-27.36,30.16-58.37,64.34-93.12,94.69-29.48,25.75-98.5,86-201.65,116.72A457.68,457.68,0,0,1,2720.89,2463.6Z"/><path class="cls-2" d="M2720.31,2463.5a494.13,494.13,0,0,1-69.44-5c-61.66-8.75-125.65-29.2-190.2-60.78l15.6-31.88c61.2,29.95,121.62,49.3,179.59,57.52,201.61,28.61,327.21-81,374.5-122.22,3.44-3,6.87-6.11,10.27-9.23,29.14-26.68,56.06-56.36,79.82-82.55,40.05-44.15,70.19-77.38,98.75-85.93-.84-22.82-20.84-92.88-61.31-145.07-16.42-21.19-42.22-46.41-71.92-46.41h-.2c-66.62.25-157.26,59.85-223.46,103.36-30.42,20-56.7,37.28-75.31,45.28-68.38,29.44-145.37,6-240-38.34-163.29-76.42-278.47-59.85-279.61-59.68l-5.53-35c5.09-.81,126.25-18.81,300.18,62.59,103,48.26,162.18,58.87,210.9,37.89,15.75-6.78,40.82-23.26,69.85-42.34,69.91-46,165.65-108.9,242.81-109.2h.35c100.81,0,166.21,170.89,168.54,225.29,1.28,29.91-15,34.48-22,35.06-17.77,1.44-52.34,39.54-85.77,76.4-24.27,26.76-51.78,57.08-82.1,84.84-3.57,3.29-7.22,6.57-10.91,9.8C3013,2363.42,2898.29,2463.5,2720.31,2463.5Z"/><path class="cls-8" d="M3052.64,2305q-5.25,4.84-10.62,9.55C2989,2360.83,2858.16,2470,2653.37,2441c5.57-42.4,20.13-102.43,58.36-126.18,56.45-35.05,99.41,11.34,163.26-12.29C2934.46,2280.44,2967.32,2244.08,3052.64,2305Z"/><path class="cls-9" d="M3052.65,2305c-3.51,3.24-7.06,6.44-10.61,9.55-53.09,46.33-183.87,155.52-388.65,126.42,4.22-32,13.55-74.22,34.43-103.1a291.29,291.29,0,0,0,81.91,12.75c125.67,1.91,172.13-41.53,179.86-77.12C2977.05,2267.74,3007.52,2272.76,3052.65,2305Z"/><path class="cls-2" d="M2720.24,2459.05a488.42,488.42,0,0,1-68.74-4.92,13.3,13.3,0,0,1-11.32-14.91c6.24-47.52,22.5-109.65,64.53-135.75,34.33-21.32,64.22-16.28,93.1-11.41,23.68,4,46,7.75,72.56-2.06,10.19-3.78,19.72-8.06,28.94-12.21,43.59-19.6,84.76-38.1,161.07,16.36a13.31,13.31,0,0,1,1.27,20.63q-5.36,4.93-10.85,9.76C3010.39,2359.79,2896.62,2459.05,2720.24,2459.05Zm-51.72-29.57c173.27,19.89,289.33-59.6,362.5-123-54.31-34.28-81.37-22.11-120.8-4.39-9.62,4.32-19.57,8.79-30.61,12.89-33.19,12.28-61.37,7.53-86.22,3.35-26.23-4.42-48.87-8.23-74.64,7.77C2694.84,2340.93,2677.2,2377.41,2668.52,2429.48Z"/><path class="cls-3" d="M1993.15,3008.84c72.53,24.67,326.39,78.88,498.53-75.84,0,0,65.93-54.68,97.92-125.38s33.87-137,33.87-137c21.38-227.47-160.67-558.79-160.67-558.79l-266.43-174.1-451.57,94.63s-89.53,491.23-53.09,711a289.11,289.11,0,0,0,22.4,72.51s30.63,70.6,133.46,129C1919.62,2985.72,1993.15,3008.84,1993.15,3008.84Z"/><path class="cls-4" d="M2623.49,2670.56s-1.91,66.37-33.89,137-97.91,125.4-97.91,125.4c-172.13,154.72-426,100.53-498.54,75.83,0,0-73.52-23.1-145.57-64-102.84-58.37-133.44-129-133.44-129a286,286,0,0,1-22.44-72.5c-9.15-55.3-10.35-127.8-7-205.36,10-230.55,60.1-505.65,60.1-505.65l451.59-94.62,266.44,174.09s111.68,203.27,149.79,400.64C2623.18,2567.06,2628.11,2621.25,2623.49,2670.56Z"/><path class="cls-7" d="M2623.49,2670.56s-1.91,66.37-33.89,137-97.91,125.4-97.91,125.4c-172.13,154.72-426,100.53-498.54,75.83,0,0-73.52-23.1-145.57-64-102.84-58.37-133.44-129-133.44-129a286,286,0,0,1-22.44-72.5c-9.15-55.3-10.35-127.8-7-205.36l79.24-32.34s33,305.18,323.17,379.45c320.15,81.92,538.13-122.33,526-354.75-.35-6.44-.53-12.39-.53-17.9C2623.18,2567.06,2628.11,2621.25,2623.49,2670.56Z"/><path class="cls-15" d="M2549.18,2749.63c-42.38,112.39-136.91,189.68-282.93,199-147.74,9.42-256.26-47-325.21-132.33,39.45,29.4,87.51,53.79,146.06,68.76C2297.13,2938.82,2463.22,2869.39,2549.18,2749.63Z"/><path class="cls-7" d="M2393,2066.16c-197.28,90.57-460,112.47-669.08,95.15,11.46-77.34,20.88-129,20.88-129l451.59-94.62Z"/><path class="cls-11" d="M2563.23,2482.17c48.28,243.18-51.63,450.83-297,466.49-276.89,17.67-416-196.07-415.33-397.3C1851.58,2340,1982.66,2167.12,2165,2137,2375.51,2102.27,2517.21,2250.46,2563.23,2482.17Z"/><path class="cls-12" d="M2549.18,2749.63c-42.38,112.39-136.91,189.68-282.93,199-147.74,9.42-256.26-47-325.21-132.33,39.45,29.4,87.51,53.79,146.06,68.76C2297.13,2938.82,2463.22,2869.39,2549.18,2749.63Z"/><path class="cls-2" d="M1706,2819.52c-16.22-20.6-26.3-45.65-31.38-71.3-2.5-16.88-4.79-33.71-6.61-50.61-1.58-23.48-3.65-51.93-3.58-75.45-1.77-149.19,16.2-298.77,37.72-446.09,7.59-49.18,15.53-98,25.15-146.94a17.78,17.78,0,0,1,13.82-14.19l451.57-94.63a17.75,17.75,0,0,1,7.28,34.74l-451.57,94.63,13.81-14.19c-10.31,64.69-19.82,130-28.2,195-18,137.78-32.79,276.92-32,415.73.28,14.43,1.6,33.9,2.13,48.41,2.21,22.72,4.77,48,9,70.49,2.62,15.44,6.28,30.8,9,47.19,1.66,8.91-10.48,14.66-16.17,7.22Z"/><path class="cls-2" d="M2497.62,2939.59c-111.5,118.08-292.61,135.69-443.3,98.45-21.74-5.48-43.18-11.95-64-20.8a8.9,8.9,0,0,1,5.71-16.8c41.73,10,84.73,16.16,127.48,19.27,84.54,5.76,171.53-1.61,250.94-32.05a439,439,0,0,0,57.53-26.57,545.5,545.5,0,0,0,53.95-34.81c8.54-6.16,19,5.52,11.71,13.31Z"/><path class="cls-2" d="M2470.58,2107.5c93.54,145.45,186.83,390.07,161.73,563.9-1.75,10.78-18,9.55-17.67-1.66,1.26-145.61-51.43-284.87-103.76-418.77-18-45.17-37.05-90.17-55.92-135.07-4.05-9.67,9.63-17.35,15.62-8.4Z"/><path class="cls-3" d="M1763.91,2505.64c-15.6,42.78-67.33,258.21-283.64,241.36-215.82-16.81-272.7-265.95-314.23-300.22-30.88-25.48,163.57-245,163.57-245s64.39,14.65,140.86,101.44c0,0,88.81-144.62,185.36-214,33.69-24.2,110.05-64.34,167.84-73.31"/><path class="cls-4" d="M1823.68,2015.87l-59.57,488.33-.18,1.42c-15.63,42.82-67.34,258.23-283.67,241.39-215.8-16.84-272.71-266-314.2-300.25-30.92-25.45,163.56-245,163.56-245s50.07,11.42,114.34,73.65c8.62,8.31,17.51,17.55,26.52,27.81,0,0,88.8-144.63,185.38-214C1689.53,2065,1765.89,2024.85,1823.68,2015.87Z"/><path class="cls-7" d="M1823.68,2015.87l-18.3,150.06c-77-2.4-149.35-10-211.89-21.68,19.76-20.43,40.87-39.62,62.37-55C1689.53,2065,1765.89,2024.85,1823.68,2015.87Z"/><path class="cls-7" d="M1764.11,2504.2l-.18,1.42c-15.63,42.82-67.34,258.23-283.67,241.39-215.8-16.84-272.71-266-314.2-300.25-30.92-25.45,163.56-245,163.56-245s50.07,11.42,114.34,73.65c11.29,60.55-24.92,113-121.09,157.7-95.95,44.6,9.28,240.46,153.48,237.61,96.61-1.86,114.78-176.44,102.79-245.78,53.75,41.53,12.66,145.7,77.87,152.94C1687.22,2581.23,1733.73,2533.47,1764.11,2504.2Z"/><path class="cls-2" d="M1772.25,2508.68c-20.08,98.15-72.14,199.79-170.42,239.1-72.78,29.11-157.61,23.85-227.67-10.42-93-45.62-148-139-192.12-228.16-8.57-15.92-15.92-32.81-27.1-46a10.32,10.32,0,0,0-.8-.81l-1.61-1.45c-10.73-9.36-10.7-25.5-7.25-36.86,6.8-22.69,20-42.5,32.55-61.68,14-20.75,28.81-40.45,43.92-59.85,30.32-38.74,61.75-76,94.57-112.54,11.06-12.49,28-1.82,40.66,1.76,36.51,13.88,70.12,34.68,99.88,59.76,12,9.82,22.92,20.74,33.77,31.76l-28.13,3.11c41.77-66.78,88.5-128.6,146.67-182.11,43.78-40.23,97.78-68.81,153.2-89.85,18.69-6.83,38-12.68,58.58-16.07a17.75,17.75,0,1,1,5.45,35.07c-17.11,2.81-34.59,8-51.76,14.29-51.38,19.64-100.87,45.43-141.7,82.91-27.31,24.75-52.25,52.72-75.53,82.06a964.21,964.21,0,0,0-64.42,91.86,17.93,17.93,0,0,1-24.66,5.9c-11.84-10.07-22-22.19-34.3-31.76-31.66-26.41-68.13-48.68-108-59.56l16.9-5.61c-53.26,63.87-109.08,127.9-150.74,199.95-4.15,7.88-8.71,16.5-9.88,24.69a5.07,5.07,0,0,0-.31-1.46,11.46,11.46,0,0,0-3.33-4.87c-.18-.16-.12-.09,0,0l.69.6,1.36,1.22c16.45,16.44,25.64,38.16,36.19,57.62,31.55,62.75,66.84,126.84,118.83,173.25,65.93,61.57,168.78,82.27,252.46,49.64,41.63-16.37,76.08-47.69,102.75-85.18,20.21-28.37,36.43-60.38,50.25-92.74,4.77-11.05,9.11-22,14.38-33.68a8.9,8.9,0,0,1,16.67,6.08Z"/><path class="cls-11" d="M2639.91,1194.38s-7.9-130.4,126.88-162C2896.25,1002,2983.94,1114,2991.3,1212c7.74,103-31.92,168.07-103.94,210.61-75.23,44.43-164.32,45-164.32,45"/><path class="cls-12" d="M2991.3,1212c7.74,103-31.92,168.11-103.92,210.64C2812.14,1467,2723,1467.58,2723,1467.58l-17.8-58.5c33.25-3,99.61-13.24,158.25-47.9,73.14-43.21,115.78-107.63,114.69-206.78A205.53,205.53,0,0,1,2991.3,1212Z"/><path class="cls-16" d="M2854.7,1256.82a154.45,154.45,0,0,1,0,22.48c-3.19,43.36-25.43,72.59-61.28,93-43.56,24.78-94.76,25.7-94.76,25.7l-45.73-148.14s-3.59-70.92,74.12-89.19c29.42-6.91,54.93-1.69,75.29,10.41C2833.56,1189.63,2852.57,1224.51,2854.7,1256.82Z"/><path class="cls-17" d="M2854.66,1279.3c-3.19,43.36-25.43,72.59-61.28,93-43.56,24.78-94.76,25.7-94.76,25.7l-45.73-148.14s-3.59-70.92,74.12-89.19c29.42-6.91,54.93-1.69,75.29,10.41,0,0-69.4,62.46-47.06,119.74C2776,1344.14,2822.64,1311.34,2854.66,1279.3Z"/><path class="cls-2" d="M2698.61,1415.74a17.74,17.74,0,0,1-.33-35.48c.44,0,47.43-1.29,86.35-23.4,38.72-22,55.36-53.42,52.38-98.87-1.67-25.41-16.16-51.75-36.9-67.11-13.64-10.09-36.69-20.53-69.05-12.94-60.75,14.26-60.67,65.36-60.46,71.14a17.79,17.79,0,0,1-17,18.44,17.61,17.61,0,0,1-18.48-16.78c-1.5-29.65,14.94-90.25,87.8-107.35,45.58-10.7,78.6,4.41,98.26,19,29.22,21.63,48.84,57.38,51.2,93.3,3.87,58.93-19.76,103.36-70.26,132-47,26.68-100.94,28-103.22,28Z"/><path class="cls-2" d="M2723,1485.34a17.75,17.75,0,0,1-.11-35.49c.82,0,85.41-1.17,155.41-42.51,71.76-42.39,102-104,95.27-194-4-53.5-34-108.13-76.35-139.18-36.65-26.87-80.36-35.35-126.41-24.54-118.13,27.73-113.47,139-113.22,143.75a17.74,17.74,0,0,1-35.42,2.09c-.09-1.45-7.11-145.74,140.53-180.39,56.46-13.25,110.23-2.72,155.5,30.46,51.14,37.5,85.92,100.78,90.76,165.15,7.78,103.54-29.06,177.86-112.61,227.22-78.46,46.34-169.41,47.41-173.25,47.44Z"/><path class="cls-3" d="M2720.88,1809.36c253-166.58,114.58-370,45.49-398.32,54-450.43-244-795.94-511.06-858h0c-14.71-77.34-45.74-127.34-63-150.39a15,15,0,0,0-23.55-.55c-17.91,21.56-34.4,55.26-47.43,67.06a15,15,0,0,1-23.14-3.67c-21.47-37.45-53.77-83.65-71.43-101.1a15,15,0,0,0-24.09,4.1c-16.38,33.53-53.26,94.27-126.2,153.18-72.1,58.24-138.8,81.53-175.5,94.22-529.7,183.2-587.37,541.69-554.18,836.15,43.77,388.25,187.09,751.06,1026.19,582Z"/><path class="cls-4" d="M2720.87,1809.36,2172.92,2034c-836.15,168.45-981.4-191.28-1025.69-578-.18-1.38-.36-2.71-.49-4.09-33.18-294.42,24.47-652.95,554.16-836.15,36.74-12.66,103.41-36,175.51-94.21,72.94-58.91,109.85-119.63,126.2-153.17a15.08,15.08,0,0,1,23.77-4.44l.35.35c17.64,17.46,49.93,63.66,71.39,101.11a15.06,15.06,0,0,0,23.14,3.64c13.06-11.77,29.54-45.49,47.44-67a15,15,0,0,1,23.55.53c17.32,23.05,48.33,73,63,150.37l0,0c3.64.85,7.28,1.73,10.92,2.71,2.31.58,4.58,1.2,6.89,1.87,6.89,1.86,13.77,4,20.66,6.3,2.44.76,4.93,1.6,7.41,2.49.4.09.8.27,1.2.4,3.6,1.25,7.2,2.58,10.8,4s7,2.66,10.53,4.08c1.33.54,2.62,1.07,4,1.65,2.93,1.2,5.86,2.44,8.75,3.73,3.55,1.51,7.06,3.11,10.57,4.71,1,.48,2,.93,3.11,1.46,2.4,1.11,4.84,2.27,7.29,3.51,1.6.71,3.15,1.51,4.75,2.31,2.4,1.2,4.8,2.4,7.2,3.69,1,.49,2,1,3.06,1.55,2.76,1.47,5.51,2.94,8.26,4.45,1.2.62,2.45,1.33,3.69,2,3.16,1.78,6.31,3.56,9.46,5.38l.67.4c2.71,1.55,5.46,3.2,8.17,4.84,1.65,1,3.29,2,4.93,3,3.16,1.95,6.36,3.95,9.51,6,3.42,2.14,6.75,4.36,10.13,6.62q6.26,4.14,12.53,8.53c3.59,2.53,7.15,5.11,10.75,7.69.4.31.84.62,1.28.93q10.6,7.86,21.06,16.12c8.66,6.89,17.28,14.09,25.76,21.55l7.07,6.26c4.57,4.13,9.1,8.31,13.63,12.62,2.27,2.09,4.49,4.26,6.76,6.44.66.62,1.33,1.29,2,2,3.11,3,6.17,6.08,9.24,9.19s6.09,6.18,9.06,9.33c.76.76,1.51,1.56,2.18,2.31,3.11,3.25,6.13,6.49,9.15,9.82,2.71,2.93,5.33,5.86,7.95,8.84,1.6,1.73,3.11,3.46,4.58,5.2,2.93,3.28,5.77,6.62,8.57,10,2.09,2.45,4.13,4.89,6.13,7.38,1.42,1.68,2.8,3.37,4.18,5.06s2.79,3.51,4.22,5.29c1.59,2,3.19,4,4.79,6.08,1.82,2.31,3.6,4.67,5.38,7.06,1.73,2.23,3.42,4.45,5.11,6.71,2.22,3,4.44,6,6.62,9,.88,1.29,1.82,2.53,2.71,3.82,2.13,2.93,4.22,5.86,6.26,8.84q5.05,7.33,10,14.79c2.44,3.73,4.93,7.51,7.33,11.29a3.18,3.18,0,0,1,.31.53c2.35,3.6,4.62,7.28,6.88,11,.76,1.2,1.51,2.44,2.23,3.64,2.22,3.65,4.44,7.29,6.57,11,2.58,4.31,5.06,8.7,7.55,13.1,2.31,4.13,4.62,8.26,6.89,12.44.57,1.11,1.15,2.18,1.73,3.24,1.78,3.33,3.55,6.71,5.29,10.08,1.95,3.78,3.9,7.6,5.81,11.42,1,2,2,4,2.94,6,4.22,8.67,8.35,17.46,12.3,26.35,1.82,4,3.6,8.13,5.33,12.21,2.22,5.15,4.36,10.4,6.49,15.64q2.92,7.26,5.73,14.66a2,2,0,0,1,.18.44q2.73,7.2,5.33,14.39c1.77,5,3.5,10,5.19,15,.27.72.49,1.47.76,2.18,1.46,4.35,2.89,8.71,4.26,13.11,1.6,5.1,3.2,10.26,4.71,15.41q4.61,15.46,8.62,31.27c1.33,5.29,2.62,10.58,3.86,15.91s2.45,10.66,3.56,16q6.93,32.32,11.33,65.83c2.22,16.75,4,33.77,5.1,51a879.09,879.09,0,0,1-4.22,167.07C2835.47,1439.41,2973.89,1642.77,2720.87,1809.36Z"/><g class="cls-5"><path class="cls-6" d="M2770.57,1244c-127.09-439.51-287-591-608.53-694,65.66-12.79,31.9-97.19,22.7-108.34-10.08-12.18-25.81,44.06-58.06,61-48.64,25.59-77-91.73-110.7-95.5-16.35,33.53-83.47,168.31-310.55,254.66-433.38,164.81-525.64,417.21-530.53,736.78-.62,39-30.65,19.73-27.67,57.44-.18-1.38-.36-2.71-.49-4.09-33.18-294.42,24.47-652.95,554.16-836.15,36.74-12.66,103.41-36,175.51-94.21,72.94-58.91,109.85-119.63,126.2-153.17a15.08,15.08,0,0,1,23.77-4.44l.35.35c17.64,17.46,49.93,63.66,71.39,101.11a15.06,15.06,0,0,0,23.14,3.64c13.06-11.77,29.54-45.49,47.44-67a15,15,0,0,1,23.55.53c17.32,23.05,48.33,73,63,150.37l0,0c3.64.85,7.28,1.73,10.92,2.71,2.31.58,4.58,1.2,6.89,1.87,6.89,1.86,13.77,4,20.66,6.3,2.44.76,4.93,1.6,7.41,2.49.4.09.8.27,1.2.4,3.6,1.25,7.2,2.58,10.8,4s7,2.66,10.53,4.08c1.33.54,2.62,1.07,4,1.65,2.93,1.2,5.86,2.44,8.75,3.73,3.55,1.51,7.06,3.11,10.57,4.71,1,.48,2,.93,3.11,1.46,2.4,1.11,4.84,2.27,7.29,3.51,1.6.71,3.15,1.51,4.75,2.31,2.4,1.2,4.8,2.4,7.2,3.69,1,.49,2,1,3.06,1.55,2.76,1.47,5.51,2.94,8.26,4.45,1.2.62,2.45,1.33,3.69,2,3.16,1.78,6.31,3.56,9.46,5.38l.67.4c2.71,1.55,5.46,3.2,8.17,4.84,1.65,1,3.29,2,4.93,3,3.16,1.95,6.36,3.95,9.51,6,3.42,2.14,6.75,4.36,10.13,6.62q6.26,4.14,12.53,8.53c3.59,2.53,7.15,5.11,10.75,7.69.4.31.84.62,1.28.93q10.6,7.8,21.06,16.12c8.66,6.89,17.28,14.09,25.76,21.55l7.07,6.26c4.57,4.13,9.1,8.31,13.63,12.62,2.27,2.09,4.49,4.26,6.76,6.44.66.62,1.33,1.29,2,2,3.11,3,6.17,6.08,9.24,9.19s6.09,6.18,9.06,9.33c.76.76,1.51,1.56,2.18,2.31,3.11,3.25,6.13,6.49,9.15,9.82,2.71,2.93,5.33,5.86,7.95,8.84,1.6,1.73,3.11,3.46,4.58,5.2,2.93,3.28,5.77,6.62,8.57,10,2.09,2.45,4.13,4.89,6.13,7.38,1.42,1.68,2.8,3.37,4.18,5.06s2.79,3.51,4.22,5.29c1.59,2,3.19,4,4.79,6.08,1.82,2.31,3.6,4.67,5.38,7.06,1.73,2.23,3.42,4.45,5.11,6.71,2.22,3,4.44,6,6.62,9,.88,1.29,1.82,2.53,2.71,3.82,2.13,2.93,4.22,5.86,6.26,8.84q5.05,7.33,10,14.79c2.44,3.73,4.93,7.51,7.33,11.29a3.18,3.18,0,0,1,.31.53c2.35,3.6,4.62,7.28,6.88,11,.76,1.2,1.51,2.44,2.23,3.64,2.22,3.65,4.44,7.29,6.57,11,2.58,4.31,5.06,8.7,7.55,13.1,2.31,4.13,4.62,8.26,6.89,12.44.57,1.11,1.15,2.18,1.73,3.24,1.78,3.33,3.55,6.71,5.29,10.08,1.95,3.78,3.9,7.6,5.81,11.42,1,2,2,4,2.94,6,4.22,8.67,8.35,17.46,12.3,26.35,1.82,4,3.6,8.13,5.33,12.21,2.22,5.15,4.36,10.4,6.49,15.64q2.92,7.26,5.73,14.66a2,2,0,0,1,.18.44q2.73,7.2,5.33,14.39c1.77,5,3.5,10,5.19,15,.27.72.49,1.47.76,2.18,1.46,4.35,2.89,8.71,4.26,13.11,1.6,5.1,3.2,10.26,4.71,15.41,3.07,10.31,5.91,20.75,8.62,31.27,1.33,5.29,2.62,10.58,3.86,15.91s2.45,10.66,3.56,16c4.57,21.55,8.39,43.49,11.33,65.83C2767.64,1209.75,2769.37,1226.77,2770.57,1244Z"/></g><path class="cls-7" d="M2720.87,1809.36,2172.92,2034c-571.84,115.19-820.55-16.66-934.76-235.21l137.22-22.52s129.4,354,976.87,156c290.17-67.79,438-224.59,513.16-366.61C2874.08,1639.53,2843.34,1728.73,2720.87,1809.36Z"/><path class="cls-15" d="M2820.15,1639.22c-11,106.12-132.11,271.91-585.17,381.54-378.25,91.51-715.5,43.84-754.72-128.38,0-.27-.14-.49-.18-.76,120.56,81.7,370.61,157.84,872.17,40.65C2592.84,1876,2735.53,1758.67,2820.15,1639.22Z"/><path class="cls-2" d="M1796.05,2094.51c-181.08,0-322.18-38-426.91-114.36-173.51-126.47-218.7-337-240-526.16-48.12-426.9,137-706.54,566-854.91,35-12.09,100-34.59,170.15-91.25,71.17-57.48,106.61-116.88,121.4-147.17a32.78,32.78,0,0,1,52.51-8.93c20,19.71,52,66.47,72.56,101.79,5-5.72,11.62-16.17,18.05-26.31,7.59-12,16.19-25.55,25.27-36.48a32.76,32.76,0,0,1,51.39,1.23c17.29,23,47.85,71.91,64,146.5,138.27,36,277.9,142.85,375.5,288,111.8,166.29,161.11,369.81,139.43,574.36,38.85,23.27,90.21,85.21,98.13,167.25,6.45,66.66-14.84,165.2-152.88,256.08a17.74,17.74,0,0,1-3,1.59l-548,224.66a17.67,17.67,0,0,1-3.23,1C2034,2080.12,1907.44,2094.51,1796.05,2094.51ZM2016.86,379.67c-17,33.84-55.36,96.06-129.29,155.77-75,60.56-143.85,84.38-180.85,97.18C1295.8,774.74,1118.39,1042.11,1164.37,1450c20.47,181.54,63.28,383.09,225.67,501.46,160.44,117,414.85,138.37,777.72,65.5l544.78-223.36c96.61-64,143.51-140.82,135.65-222.09-7-72.22-56.79-131-88.56-144.06a17.76,17.76,0,0,1-10.88-18.53c24-200.25-22.95-400.06-132.25-562.63-95.34-141.83-231.87-245-365.21-276a17.79,17.79,0,0,1-13.42-14c-13.47-70.8-41.07-117.33-57.7-140.19-6.89,8.76-13.75,19.58-20.4,30.08-9.58,15.11-17.84,28.16-26.58,36.07a32.78,32.78,0,0,1-50.45-8C2062.64,439.2,2033.41,397.34,2016.86,379.67Z"/><path class="cls-11" d="M2248.79,853.52c134.63-48,257.52,18.51,330.72,115.24,167.38,221.18,97.94,512.13,97.94,512.13s115.76,5.31,140.19,111.31c22.38,97-55.06,300.89-582.68,428.56-378.21,91.51-715.48,43.85-754.7-128.37-25.18-110.58,79.13-160.54,79.13-160.54s-201.39-219.43-111-515.1c34.06-111.35,147.89-215.45,245-249.63,163.19-57.45,299.61-8.43,376.4,131.07C2086.4,982.54,2153.68,887.41,2248.79,853.52Z"/><path class="cls-12" d="M2820.15,1639.22c-11,106.12-132.11,271.91-585.17,381.54-378.25,91.51-715.5,43.84-754.72-128.38,0-.27-.14-.49-.18-.76,120.56,81.7,370.61,157.84,872.17,40.65C2592.84,1876,2735.53,1758.67,2820.15,1639.22Z"/><path class="cls-2" d="M1878.31,2084.39c-135.24,0-249-23.51-323.88-69.94-49.88-30.91-80.66-70.65-91.47-118.12-19.13-84,29.58-142,69.44-169.22-18.25-23.32-51.13-70.08-78.73-135-36.78-86.49-70.48-222.72-22.21-380.56,36.69-120,159-227,256-261.17,155.28-54.68,289.16-17.83,373.74,100.79,27.15-103,94.11-183.2,181.61-214.37h0c150.45-53.61,279.87,27.48,350.83,121.25,147.33,194.68,117.65,437.33,105,507.51,47.5,8.64,117.5,41.19,136.28,122.64,7.56,32.82,13.93,119.92-90.12,219.6-99.92,95.73-270.06,173.18-505.68,230.2C2110.94,2069,1987.58,2084.38,1878.31,2084.39ZM1820.42,961.57c-38.1,0-78.71,7.35-121.15,22.29-88.72,31.24-200.46,128.83-233.87,238.08-86.46,282.69,105.12,495.79,107.07,497.91a17.74,17.74,0,0,1-5.41,28c-3.69,1.79-91.14,45.56-69.5,140.59,8.63,37.88,34,70.12,75.56,95.85,125.76,77.92,383.91,85.46,657.67,19.22,229.45-55.52,394.14-130,489.48-221.33,90.91-87.09,86.29-159.08,80.09-186-21-91.26-119.58-97.35-123.77-97.57a17.78,17.78,0,0,1-16.4-21.84c.67-2.82,65.35-285.63-94.83-497.3-63.36-83.72-178.23-156.39-310.61-109.23-87.3,31.1-151.45,119.41-167.41,230.48a17.75,17.75,0,0,1-33.11,6C2001.75,1011.41,1919.64,961.57,1820.42,961.57Z"/><ellipse class="cls-16" cx="1637" cy="1830.02" rx="84.93" ry="47.19" transform="translate(-361.05 402.95) rotate(-12.65)"/><ellipse class="cls-16" cx="2693.04" cy="1590.46" rx="84.93" ry="47.19" transform="translate(-282.95 628.41) rotate(-12.65)"/><ellipse class="cls-6" cx="2449.15" cy="1456.09" rx="122.68" ry="126.88" transform="translate(-259.45 571.76) rotate(-12.65)"/><path class="cls-2" d="M2450.62,1600.56a138.35,138.35,0,0,1-76.21-23.11,145.93,145.93,0,0,1-62.28-90.61c-17.46-77.81,29.79-154.91,105.34-171.87,36.71-8.23,74.5-1.23,106.41,19.75a146,146,0,0,1,62.28,90.61c17.46,77.81-29.79,154.91-105.34,171.87A137.85,137.85,0,0,1,2450.62,1600.56Zm-3-253.45a102.26,102.26,0,0,0-22.34,2.49c-56.45,12.67-91.66,70.75-78.48,129.47a110.64,110.64,0,0,0,47.14,68.73c23.8,15.64,51.91,20.88,79.15,14.77,56.45-12.67,91.66-70.75,78.48-129.46a110.59,110.59,0,0,0-47.14-68.73A103.09,103.09,0,0,0,2447.58,1347.11Z"/><ellipse class="cls-6" cx="1907.2" cy="1577.73" rx="122.68" ry="126.88" transform="translate(-299.24 456) rotate(-12.65)"/><ellipse class="cls-6" cx="1907.2" cy="1577.73" rx="89.23" ry="92.29" transform="translate(-299.24 456) rotate(-12.65)"/><path class="cls-18" d="M1927.41,1667.78c-48.07,10.8-96.09-20.79-107.28-70.49a95.8,95.8,0,0,1-2.27-19.9c25.23,28.07,63.7,42.11,102.22,33.45,33.05-7.42,59-29.94,72.49-59.09.62,2.09,1.2,4.27,1.69,6.45C2005.41,1607.9,1975.51,1657,1927.41,1667.78Z"/><path class="cls-18" d="M2471.11,1546.61c-47.63,10.69-95.2-20.6-106.3-69.85a94.58,94.58,0,0,1-2.24-19.72c25,27.82,63.11,41.73,101.27,33.14,32.75-7.35,58.45-29.66,71.84-58.53.61,2.06,1.18,4.22,1.67,6.38C2548.39,1487.28,2518.77,1535.91,2471.11,1546.61Z"/><path class="cls-2" d="M1908.68,1722.21a138.33,138.33,0,0,1-76.21-23.11A147.73,147.73,0,0,1,1787.76,1500c19.89-32.6,51.06-55.09,87.77-63.33s74.49-1.23,106.41,19.75a145.89,145.89,0,0,1,62.27,90.61c17.47,77.81-29.79,154.91-105.33,171.86A137.32,137.32,0,0,1,1908.68,1722.21Zm-3-253.45a101.5,101.5,0,0,0-22.33,2.49c-27.24,6.11-50.41,22.87-65.24,47.18a112.24,112.24,0,0,0,33.9,151c23.79,15.64,51.9,20.9,79.14,14.78,56.46-12.67,91.66-70.75,78.48-129.47a110.62,110.62,0,0,0-47.13-68.73A103.19,103.19,0,0,0,1905.63,1468.76Z"/><path class="cls-2" d="M2195.48,1674.92a5.19,5.19,0,0,0,5.15-7.05c-4-10.63-13.23-28.38-29.75-27.31-21.88,1.41-20.05,20.27-16.92,25.31,3.64,5.88,9.89,8.67,20.93,8.52C2181.66,1674.29,2189.65,1674.57,2195.48,1674.92Z"/><path class="cls-2" d="M2253.36,1661.92a5.19,5.19,0,0,1-7.67-4.17c-.91-11.32-.16-31.31,15.23-37.4,20.38-8.07,26.79,9.76,26.12,15.65-.78,6.87-5.24,12.07-15.28,16.65C2265.59,1655.45,2258.49,1659.12,2253.36,1661.92Z"/><path class="cls-11" d="M1331.26,1496.09s-49.65-120.84-184.76-90.65c-129.78,29-160,168-123.92,259.48,37.86,96.08,101.9,137.42,185.26,144.36,87.07,7.26,167.52-31,167.52-31"/><path class="cls-12" d="M1022.58,1663c37.87,96.11,101.91,137.45,185.25,144.39,87.06,7.24,167.52-31.07,167.52-31.07l-9.44-60.41c-31.25,11.75-95.43,31.44-163.31,25.76-84.66-7.07-151.09-46.5-193.27-136.23A205.73,205.73,0,0,0,1022.58,1663Z"/><path class="cls-16" d="M1165.07,1643.86a156.36,156.36,0,0,0,9.82,20.22c21.74,37.64,54.5,54.28,95.65,57,50,3.34,96.49-18.12,96.49-18.12l-23.32-153.27s-27.63-65.41-105.55-48c-29.49,6.58-50.19,22.39-63.24,42.15C1154.85,1574.16,1152.92,1613.84,1165.07,1643.86Z"/><path class="cls-17" d="M1174.89,1664.08c21.74,37.64,54.5,54.28,95.65,57,50,3.34,96.49-18.12,96.49-18.12l-23.32-153.27s-27.63-65.41-105.55-48c-29.49,6.58-50.19,22.39-63.24,42.15,0,0,89.66,26,94.48,87.31C1273.9,1688.22,1217.67,1679,1174.89,1664.08Z"/><path class="cls-2" d="M1281.23,1739.21c-3.93,0-7.89-.12-11.89-.39-57.94-3.85-98.56-33.56-120.73-88.3-13.51-33.36-11.41-74.08,5.48-106.28,11.36-21.67,34.5-49.64,80.21-59.85,73-16.3,114.21,31.08,125.78,58.42a17.75,17.75,0,0,1-32.65,13.92c-2.36-5.37-24.55-51.29-85.38-37.71-32.45,7.25-48.65,26.68-56.53,41.7-12,22.87-13.57,52.88-4,76.48,17.1,42.22,45.76,63.26,90.2,66.21,44.66,3,87.52-16.33,88-16.53a17.75,17.75,0,0,1,14.82,32.25C1372.56,1720,1330.26,1739.21,1281.23,1739.21Z"/><path class="cls-2" d="M1230.38,1826c-7.91,0-15.92-.3-24-1-96.72-8.06-162.23-58.94-200.3-155.54-23.66-60.06-19.9-132.17,9.82-188.18,26.31-49.59,70.13-82.48,126.74-95.12,148-33.07,204.49,99.88,205,101.22a17.75,17.75,0,0,1-32.81,13.53c-1.94-4.63-46.2-106.54-164.49-80.12-46.17,10.32-81.83,37-103.13,77.12-24.62,46.4-27.82,108.63-8.15,158.54,33.08,83.94,87.17,126.26,170.23,133.19,81,6.74,157.66-29,158.42-29.39a17.74,17.74,0,0,1,15.24,32C1379.83,1793.82,1311.2,1826,1230.38,1826Z"/><path class="cls-4" d="M1329.72,1448.88s-35.26,226.88,64.68,342.52c0,0,44.09-79.27,18.13-192.25S1329.72,1448.88,1329.72,1448.88Z"/><path class="cls-2" d="M1338.49,1450.24c1,72.62.76,145.79,15.34,217.14,8.76,41.89,23.12,82.6,47.28,118.22,6.11,8.67-5.7,19-13.43,11.6-75.76-74.57-89.79-203.93-76.14-304.72a322.19,322.19,0,0,1,9.41-45,9,9,0,0,1,17.54,2.72Z"/><path class="cls-14" d="M2272.32,1868c-39.12,11.07-129.63,92.55-194.73,25.79-57.14-58.59-14.06-147,57.18-152.59,39.21-3.07,74.54,10.86,101.21,7.5,26-3.28,47.51-15.24,70.16-33.71,51.7-42.16,90-31.34,119.7-.24s43.42,119.38-33.17,143.45C2334.87,1876.37,2311.44,1856.94,2272.32,1868Z"/><path class="cls-2" d="M2392.65,1858.21c-48.36,15.2-72.67,4-102.26,6.5a97.2,97.2,0,0,0-18.06,3.28c-39.13,11.08-129.65,92.57-194.75,25.81a95.43,95.43,0,0,1-19.89-29.63c-22.89-54.86,17.11-118.25,77.08-123,39.21-3.08,74.54,10.86,101.22,7.49,26-3.29,47.49-15.23,70.13-33.71,51.7-42.16,90-31.34,119.7-.25S2469.28,1834.12,2392.65,1858.21Z"/><path class="cls-19" d="M2290.39,1864.71a97.2,97.2,0,0,0-18.06,3.28c-39.13,11.08-129.65,92.57-194.75,25.81a95.43,95.43,0,0,1-19.89-29.63,85.23,85.23,0,0,1,100.85-35.71,85.26,85.26,0,0,1,131.85,36.25Z"/><path class="cls-2" d="M2139.58,1775.17l1.4,49.15s30.31,2.75,45.46,31.65c0,0-1.13-33.39-22.45-49.94"/><path class="cls-2" d="M2137.1,1937.47c-24.78,0-49.73-8.23-72.22-31.29-30.13-30.91-39.34-72.73-24.61-111.88,14.95-39.73,51.5-67.52,93.11-70.79,22.67-1.79,43.58,1.52,62,4.42,15.13,2.39,28.19,4.46,38.35,3.16,20.38-2.56,38.67-11.5,61.18-29.85,66.24-54,114.73-29.13,143.74,1.25,20,20.94,35.58,65.14,25.11,105.83-8.34,32.37-31.7,56.1-65.79,66.81-35.55,11.17-60.24,9.34-80.09,7.88-14.81-1.09-26.51-2-40.75,2.07-7.49,2.11-19.57,8.68-32.36,15.64C2216.81,1915.93,2177.18,1937.47,2137.1,1937.47Zm9.43-179c-3.44,0-6.89.12-10.37.39-27.95,2.2-52.55,21-62.68,47.91-9.89,26.31-3.77,53.5,16.81,74.6,37.08,38,84.23,17.13,137.55-11.86,15.22-8.28,28.36-15.42,39.65-18.61h0c20.28-5.74,36.93-4.5,53-3.31,18.55,1.37,37.76,2.79,66.82-6.35,22.61-7.1,36.76-21.16,42.07-41.8,6.93-26.89-3.12-58.56-16.4-72.47-20.24-21.2-47.44-37.58-95.65,1.74-27.67,22.56-52.08,34.15-79.16,37.56-15.16,1.92-31.27-.62-48.32-3.31C2175.82,1760.78,2161.37,1758.5,2146.53,1758.5Z"/><path class="cls-10" d="M1308.48,2352.61c-21.65,1.31-49.66,22.32-50.09,102.19-.5,92.33-41.05,95.23-54.6,94.67-28.22-1.17-44.58-38.07-44.58-38.07s-8,46.33-48.09,43.58-47.83-49.34-47.83-49.34-13.61,35.65-47,26-48.75-90.16-12.69-179,126.9-158.28,244.44-163,183.28,78.24,201.94,130.91c19.29,54.45,17.15,122.91-25.29,132.22C1355.7,2467.94,1391.63,2347.61,1308.48,2352.61Z"/><path class="cls-11" d="M1457,2419.4c-5.46,17.24-15.85,29.76-32.34,33.4-69,15.15-33-105.19-116.2-100.17-21.64,1.29-49.67,22.3-50.11,102.17-.49,92.31-41,95.24-54.59,94.67-28.21-1.16-44.56-38.07-44.56-38.07s-8,46.33-48.11,43.57-47.84-49.35-47.84-49.35-13.59,35.67-47,26c-10.7-3.11-19.59-13.55-25.45-29.19-12.48-33.09-11.68-89.51,12.79-149.79,36-88.84,126.87-158.32,244.41-163s183.28,78.23,201.94,130.91C1461.73,2353.83,1465.51,2392.35,1457,2419.4Z"/><g class="cls-20"><path class="cls-6" d="M1456.89,2344.73c-23.76-54.46-90.8-129.94-205.23-125.41-121.8,4.85-215.93,76.85-253.29,168.9a300.86,300.86,0,0,0-14.84,47c1.91-25.15,8.22-53.44,20.08-82.63,36-88.84,126.87-158.32,244.41-163s183.28,78.23,201.94,130.91A208,208,0,0,1,1456.89,2344.73Z"/></g><path class="cls-12" d="M1457,2419.4c-5.46,17.24-15.85,29.76-32.34,33.4-69,15.15-33-105.19-116.2-100.17-21.64,1.29-49.67,22.3-50.11,102.17-.49,92.31-41,95.24-54.59,94.67-28.21-1.16-44.56-38.07-44.56-38.07s-8,46.33-48.11,43.57-47.84-49.35-47.84-49.35-13.59,35.67-47,26c-10.7-3.11-19.59-13.55-25.45-29.19,16.79,5,38.42,7.69,42.95-9.59,6.49-24.88-9.28-103.5,40-120.56,0,0-18.56,138.51,21.33,153,38.42,13.9,30.74-38.3,32.51-82.1,3.38-82.49,38.47-101.54,38.47-101.54s-20.92,158.45,13.73,176c36.47,18.52,52.19-29.9,53.88-85s13.86-110.12,69-120.12,76.85,37.67,87.55,67.52C1400.88,2409.72,1417,2449.74,1457,2419.4Z"/><path class="cls-2" d="M1114.66,2572.85c-1.56,0-3.13-.06-4.75-.17-25-1.72-41.47-16.18-51.56-32.08-11.5,8.7-27.2,13.79-47,8.05-13.89-4-25.51-15-33.59-31.65-19.86-40.95-16.16-108.09,9.4-171.06,41-101.05,143.16-169.36,260.18-174q5.19-.21,10.26-.21c125,0,191.29,92.63,209.1,142.93,12.66,35.71,20.42,90.06.63,125.68-8.8,15.85-22.23,26.15-38.83,29.8-48.53,10.64-62.84-28.77-72.29-54.86-11.14-30.71-18.35-46.64-46.65-44.94h0c-15.93,1-33.08,23.68-33.41,84.56-.25,45.58-10,77.9-29.07,96.08-8.28,7.89-22.47,17.11-44,16.23-17.15-.71-30.59-9.64-40.38-19.69C1152.75,2561.32,1137.28,2572.84,1114.66,2572.85ZM1063.27,2488a17.33,17.33,0,0,1,1.91.1,17.7,17.7,0,0,1,15.61,14.64c.22,1.24,6.16,32.81,31.55,34.56,23.08,1.56,28.82-25.87,29.4-29a17.77,17.77,0,0,1,33.69-4.06c3.13,6.91,15.26,27,29.09,27.53,7.47.33,13.11-1.74,18-6.44,6.65-6.35,17.84-24,18.09-70.6.57-104.52,46.88-118.6,66.77-119.8h0c56.09-3.38,71.81,39.74,82.15,68.28,11.44,31.53,15.52,35.76,31.32,32.28,6.64-1.45,11.54-5.38,15.42-12.36,11.2-20.18,10-59.9-3-96.6C1418,2283.37,1360,2203,1248.74,2207.39c-103.13,4.1-192.91,63.72-228.71,151.9-24.83,61.17-22.77,116.6-10.35,142.23,3.48,7.17,7.69,11.92,11.54,13,16.09,4.67,23.61-10.61,25.55-15.4A17.86,17.86,0,0,1,1063.27,2488Zm245.21-135.37h0Z"/><path class="cls-2" d="M1190.26,2307.64c-24.41,53.83-32.33,116.73-19.64,174.67,1.65,8.71,4.71,17.08,6,25.9a17.71,17.71,0,0,1-34.48,7.91,173.1,173.1,0,0,1-5.66-28,292.48,292.48,0,0,1,1.48-84.6c6-37.16,17.78-72.15,37-104.81a8.87,8.87,0,0,1,15.35,8.9Z"/><path class="cls-2" d="M1102.74,2318.37c-16.3,35.53-25.45,75.6-27.24,114.71-1.18,23.37,2.46,46.47,5.25,69.42a17.75,17.75,0,0,1-34.93,6.28c-6.78-34.41-3.41-70,3.81-104,7.52-33.9,19.52-65.62,37.81-95.41a8.87,8.87,0,0,1,15.3,9Z"/><path class="cls-10" d="M3008.62,1934.48c-15.4,8.45-89,50.21-96.2,137.64-6.67,80.48,31.48,130.28,70.8,127.94,38.5-2.28,43.56-41.14,39.31-69.36-4.06-27,2.28-65.85,43.24-71,55.88-7,105.41,73.66,105.41,73.66s-56.12,81.69,0,112.91c46.69,26,80-40.52,80-40.52s33.59,9,49.22-8.57c20.63-23.18,6.34-58.42,6.34-58.42s41.72,23.35,66.68-4.29c28.81-31.91-15-130.18-79.06-177.63C3215.24,1898.28,3090.47,1889.62,3008.62,1934.48Z"/><path class="cls-11" d="M3373.42,2134.49c-25,27.63-66.69,4.29-66.69,4.29s14.29,35.23-6.35,58.45c-15.62,17.55-49.18,8.54-49.18,8.54s-33.3,66.51-80,40.51c-56.09-31.2,0-112.91,0-112.91s-49.52-80.64-105.4-73.64c-40.94,5.1-47.29,43.94-43.21,71,4.25,28.19-.82,67.07-39.31,69.35-19.36,1.16-38.41-10.3-51.93-31.8-14.07-22.23-22.27-55.23-18.88-96.13,7.25-87.46,80.81-129.21,96.17-137.63,81.88-44.88,206.63-36.22,285.77,22.36,48.79,36.14,85.79,101.75,87.93,145C3383,2115.47,3380.28,2126.89,3373.42,2134.49Z"/><path class="cls-10" d="M3306.73,2168.43s1.67,1,4.55,2.23a46.83,46.83,0,0,1-1.46,8.54A71.29,71.29,0,0,0,3306.73,2168.43Z"/><g class="cls-5"><path class="cls-6" d="M3380.93,2119.51c-7.43-42.66-42.1-100.08-86.56-133-79.14-58.58-203.89-67.25-285.77-22.36-15.36,8.41-88.92,50.16-96.17,137.62-.09,1-.17,2.06-.21,3.09a208.91,208.91,0,0,1,.21-32.74c7.25-87.46,80.81-129.21,96.17-137.63,81.88-44.88,206.63-36.22,285.77,22.36,48.79,36.14,85.79,101.75,87.93,145A60.89,60.89,0,0,1,3380.93,2119.51Z"/></g><path class="cls-12" d="M3373.42,2134.49c-25,27.63-66.69,4.29-66.69,4.29s14.29,35.23-6.35,58.45c-15.62,17.55-49.18,8.54-49.18,8.54s-33.3,66.51-80,40.51c-56.09-31.2,0-112.91,0-112.91s-49.52-80.64-105.4-73.64c-40.94,5.1-47.29,43.94-43.21,71,4.25,28.19-.82,67.07-39.31,69.35-19.36,1.16-38.41-10.3-51.93-31.8,20.73,9,46.86,15.49,62.23,1.33,22.57-20.81-18.71-91.75,22.49-125.91s112.47-27.47,148.78,31.11,69.56,92.1,106.13,100.21c29.27,6.52,38.62-20.09,28.32-41.63-10-20.81-31.76-58.49-33.09-60.81,1.85,2,30.09,32.83,27.34-18.11-.86-16.22,23.52,50,55.88,62.44,17.72,6.78,27.5-2.15,32.91-15C3383,2115.47,3380.28,2126.89,3373.42,2134.49Z"/><path class="cls-2" d="M3193,2270a62.25,62.25,0,0,1-30.43-8.24c-16.86-9.37-28-23.72-32.15-41.49-7.66-32.62,9.5-68.87,19.67-86.56-16.3-22.77-50.49-60.42-82.1-56.41-9.45,1.18-16.31,4.74-21,10.89-6.75,8.91-9.33,23.79-6.92,39.83,2,13.24,4.63,46.5-13.82,69.26-10,12.35-24.53,19.42-42,20.46-19.65,1.18-39-7-54.64-23-26.47-27.09-39.18-72.33-34.89-124.13,7.36-88.85,76.13-135.71,105.35-151.73h0c89.39-49,220.43-38.81,304.84,23.69,48.91,36.22,89.65,102.06,94.75,153.15,2.12,21.29-2.41,38.8-13.09,50.63-16.55,18.33-38.28,21.43-57.34,18.52.07,14-3.35,30.33-15.6,44.1-15.11,17-38.51,17.86-53.39,16.32-8.88,13.55-26,34.66-50,42.07A58.42,58.42,0,0,1,3193,2270ZM3072.6,2041.56c62.26,0,111.54,79,113.7,82.54a17.76,17.76,0,0,1-.5,19.34c-7.65,11.22-26.35,45.5-20.83,68.81,1.9,8.08,6.62,14,14.83,18.54,7,3.88,13.32,4.75,19.93,2.73,17-5.19,31.46-27.55,35.61-35.73a17.79,17.79,0,0,1,20.43-9.15c7.2,1.86,25.24,3.66,31.37-3.23,12.92-14.51,3.22-39.79,3.12-40a17.76,17.76,0,0,1,25.15-22.05c.22.12,29.77,16,44.84-.7,3.68-4.08,5.19-12.59,4.11-23.33-3.55-35.57-35.36-94.69-80.55-128.15C3211,1917.24,3093.9,1908,3017.15,1950h0c-24.19,13.27-81.11,51.85-87,123.54-3.4,40.93,5.91,77,24.9,96.4,5.89,6,15.38,13.05,27.16,12.37,9.92-.59,14.18-4.49,16.52-7.38,6.53-8.06,8.95-24,6.29-41.63-1.82-12.15-4.14-43,13.74-66.54,10.44-13.78,26-22.31,44.85-24.67A72.75,72.75,0,0,1,3072.6,2041.56Z"/><path class="cls-2" d="M3208.43,2003.71c49.25,29.88,95.73,73,114.89,128.73,6.31,21.31-23.69,32.66-33.15,12.69-17.17-34.91-40.18-67.05-65.6-96.84-8.78-10.37-18.1-20.76-27.18-30.77-6.76-7.45,2.36-18.76,11-13.81Z"/><path class="cls-2" d="M3251.21,2223.53a18.48,18.48,0,0,1-3.37-.32c-40.72-7.82-83.24-67.9-91.35-79.86a17.74,17.74,0,0,1,29.37-19.92c16.79,24.7,49.19,61.18,68.67,64.92a17.75,17.75,0,0,1-3.32,35.18Z"/><path class="cls-2" d="M3282.5,1995.85c20.45,34.61,37.32,77.2,27.41,117.82-6.44,19.7-35.49,14.11-34.36-6.38.41-8.89,4.1-17.08,4.58-26.18,1.94-25.69-4.27-52.8-13.27-76.87-4.41-10,9.78-17.61,15.64-8.39Z"/><path class="cls-10" d="M2597.59,3276.22c-7.61,13.41-13.83,43.65.73,68.43,33.92,57.75,138.15,27.56,151.83,27.74,21.54.27,70.35,56.11,108.94,25.3,23.94-19.11,11.91-57.29-4.93-75-16.65-17.49-42.92-27.5-42.92-27.5s32-29.74,62.22-31c27.34-1.11,70.16,12.15,97.37,32.32,24.64,18.26,55.94,32.32,76.66,12,22.68-22.22,0-61.74,0-61.74s35.63-.82,35.63-34.8c0-27.35-29-44.75-29-44.75s.3-43.17-45.58-58.64c-54.7-18.44-135.24-7.17-208,40.56C2739.22,3189.43,2634.63,3211,2597.59,3276.22Z"/><path class="cls-11" d="M3047.5,3246.84s22.65,39.54,0,61.75c-20.75,20.3-52,6.26-76.67-12-27.19-20.16-70-33.44-97.38-32.33-30.2,1.24-62.23,31-62.23,31s26.3,10,43,27.49a61,61,0,0,1,6.79,8.71,74.07,74.07,0,0,1,10,23.1v.05c3.73,15.72,1.6,32.42-11.81,43.13-38.61,30.78-87.43-25.06-109-25.32-13.68-.18-117.89,30-151.83-27.72-12.09-20.66-9.82-45.09-4.36-60.41a52,52,0,0,1,3.65-8c37-65.22,141.61-86.8,202.91-127,72.81-47.76,153.35-59,208-40.56,16.75,5.64,27.36,15,34,24.57a64.58,64.58,0,0,1,11.55,34.07s29,17.37,29,44.73C3083.13,3246,3047.5,3246.84,3047.5,3246.84Z"/><path class="cls-12" d="M2870.92,3354.57c3.73,15.72,1.6,32.42-11.81,43.13-38.61,30.78-87.43-25.06-109-25.32-13.68-.18-117.89,30-151.83-27.72-12.09-20.66-9.82-45.09-4.36-60.41,12.35,25.63,32.34,51.21,64.24,59.92,61.88,17,86.4-12.39,112.07,2.67S2865.19,3388.64,2870.92,3354.57Z"/><path class="cls-12" d="M3047.5,3246.84s22.65,39.54,0,61.75c-20.75,20.3-52,6.26-76.67-12-27.19-20.16-70-33.44-97.38-32.33-30.2,1.24-62.23,31-62.23,31s26.3,10,43,27.49a61,61,0,0,1,6.79,8.71c-18.88-16.3-57.3-22.16-57.3-22.16s-26.26-13.33-16-41.23c9.72-26.52,104.08-57.52,177.86-9.55,76.5,49.75,95.51,28.12,86.4,11.24-37.85-70.45-139.13-74.89-139.13-74.89s22.44-35.68,118.12,10.61c27.76,13.46,46.2,1.2,41.22-13.19s-68.5-50.11-140.59-49c0,0,56.15-12.7,94.88-9.91a86.3,86.3,0,0,0,16.13-.08,64.58,64.58,0,0,1,11.55,34.07s29,17.37,29,44.73C3083.13,3246,3047.5,3246.84,3047.5,3246.84Z"/><path class="cls-2" d="M2833.51,3424.65c-24.38,0-47.82-14.18-64-24-6.81-4.13-16.07-9.73-19.7-10.52-1.84.18-6.43,1-10.18,1.59-36.53,6.18-122.1,20.65-156.61-38.11-18.57-31.62-10.69-68.86-.86-86.17h0c27.34-48.16,83.63-73.25,138.06-97.5,26.21-11.68,51-22.71,70.57-35.58,73.21-48,158.82-64.31,223.42-42.53,43.21,14.57,54,48.75,56.75,65.72,11,8.79,29.91,27.74,29.91,54.48,0,24.79-13.74,39.5-29.2,46.8,5.82,19.74,6.44,44.58-11.76,62.41-13.76,13.5-45,30.07-99.65-10.43-25.54-18.93-64.6-29.77-86.09-28.84-9.46.38-20.16,5.11-29.44,10.6a119.64,119.64,0,0,1,22.28,17.89c12.71,13.34,24.79,37.65,23.13,61.89-1.1,16.08-8,29.62-20,39.18S2845.75,3424.65,2833.51,3424.65Zm-83.47-70h.34c11.87.15,23.75,7.35,37.51,15.68,25.65,15.52,45,25.59,60.13,13.5,4.1-3.27,6.3-7.8,6.71-13.85.87-12.68-6.26-27.5-13.42-35-13.57-14.25-36.19-23.07-36.42-23.15a17.77,17.77,0,0,1-5.74-29.57c3.77-3.5,37.83-34.26,73.59-35.7,32.73-1.32,79.35,14.07,108.66,35.79,14.36,10.65,40.43,26.56,53.67,13.6,12.14-11.9-2.85-40-3-40.3a17.77,17.77,0,0,1,15-26.5c6.72-.32,18.31-3,18.31-17.07,0-16.52-20.27-29.46-20.48-29.59a18,18,0,0,1-8.53-15.29c0-3-1.4-30.87-33.5-41.69-53.67-18.11-129.28-3-192.62,38.58-22,14.43-48,26-75.58,38.31C2685.48,3224.3,2634.6,3247,2613,3285h0c-4.49,7.91-10.57,31.65.6,50.67,22.12,37.66,90.77,26.06,120.1,21.1C2741.46,3355.45,2746.23,3354.64,2750,3354.64Z"/><path class="cls-8" d="M1165.5,1158.87s-25-30-13-92c9.5-49.06,49-98.65,89-100,0,0-36-69.32,13.33-145.3s104-61.32,104-61.32,13.31-58.83,56.66-84c54-31.32,119.3-.66,126.63,7.33s30.85,63.05,8.67,102c-17.67,31-111.64,69-122,82.65-10.82,14.3-15.94,77.78-31.16,94.31-17.5,19-50.83,24.33-50.83,24.33S1374.12,1228.85,1165.5,1158.87Z"/><path class="cls-8" d="M1550.75,785.61c-17.68,31-111.63,69-122,82.67-10.79,14.31-16,77.78-31.14,94.31-17.5,19-50.82,24.3-50.82,24.3s27.32,242-181.33,172a51.91,51.91,0,0,1-4.57-7.2c-6.53-12.26-17-40.29-8.4-84.8,9.51-49,49-98.66,89-100,0,0-36-69.3,13.33-145.3s104-61.31,104-61.31,13.28-58.81,56.63-84c44.65-25.9,97-9.42,118,1.6l.31.18c4.22,2.22,7.11,4.26,8.35,5.6C1549.42,691.66,1572.92,746.7,1550.75,785.61Z"/><path class="cls-9" d="M1550.75,785.61c-17.68,31-111.63,69-122,82.67-10.79,14.31-16,77.78-31.14,94.31-17.5,19-50.82,24.3-50.82,24.3s27.32,242-181.33,172a51.91,51.91,0,0,1-4.57-7.2c41.27,2.45,79.16-3.37,76.23-24.87-4.18-30.74-7.16-56,0-62.73,6.62,11.78,39.67,26.3,52.68,5.47,15.81-25.41-28.38-55.13-37.22-88.36,0,0,106.34-12.7,124.15-67.87,7.16-22.22-51.61-12.22-51.61-12.22s52.37-37,33.36-118.69c2.71,10.21,24.21,86,66.59,56.81,18.12-12.48-11.73-84.05,59-107.77,0,0-20.3,69.21,18.44,52.29,47.13-20.57,30.87-105.86,30.87-105.86l.31.18c4.22,2.22,7.11,4.26,8.35,5.6C1549.42,691.66,1572.92,746.7,1550.75,785.61Z"/><g class="cls-5"><path class="cls-6" d="M1554.53,711.3c-22.83-13.55-72.76-33-126.87-8.71-45.71,20.52-69.56,94.71-69.56,94.71s-50.55-17-82.76,41.93c-33.85,61.88-16,148.72-16,148.72-40,1.34-71.83,50.07-81.34,99.15-7.15,36.83-1.2,62.37,4.8,77-5.6-1.51-11.37-3.24-17.33-5.24,0,0-25-30-13-92,9.51-49,49-98.66,89-100,0,0-36-69.3,13.33-145.3s104-61.31,104-61.31,13.28-58.81,56.63-84c54-31.32,119.32-.66,126.65,7.38C1545,686.82,1550.4,697.35,1554.53,711.3Z"/></g><path class="cls-2" d="M1234,1189.33q-33.39,0-74.11-13.64a17.72,17.72,0,0,1-8-5.47c-1.24-1.48-30.23-37.25-16.78-106.7,8.79-45.42,41.26-94.65,82.58-109.74-8.4-28.91-15.56-83.56,22.26-141.83,38.93-60,82.42-70.08,106-70.48,7.43-21.28,25.17-60,60.6-80.5,62.53-36.28,136.73-2.3,148.62,10.68,11.63,12.69,37.79,75.76,11,122.76-12.45,21.86-46.47,41.56-89.65,65-13.24,7.2-29.65,16.12-33.77,19.82-2.7,4.57-6.59,21.71-9.2,33.14-5.79,25.5-11.27,49.59-22.87,62.19-13,14.16-31.81,22-45.16,26,1.38,35.25-1.34,120.31-54.7,163.44C1290,1180.9,1264.28,1189.33,1234,1189.33Zm-57.13-45.44c49,15.35,86.49,12.88,111.61-7.38,51.79-41.77,40.83-146.58,40.71-147.63a17.77,17.77,0,0,1,14.83-19.5c7.59-1.25,29.77-7.1,40.57-18.82,5.2-5.65,11-30.91,14.38-46,5.29-23.27,8.88-38,15.68-47,6-7.9,18.8-15.08,44.94-29.3,25.18-13.69,67.32-36.61,75.77-51.43,16.69-29.29-1.08-73.09-6.22-81-10-7.28-62.67-28.62-104.76-4.21-35.94,20.85-48.14,72.07-48.26,72.59a17.77,17.77,0,0,1-21.9,13.18c-1.48-.34-43.54-9.24-84.49,53.84-42.77,65.89-13.69,125.06-12.43,127.54a17.79,17.79,0,0,1-15.2,25.84c-29.27,1-63.65,41.78-72.14,85.61C1162,1111.23,1172,1135.3,1176.84,1143.89Z"/><path class="cls-2" d="M1286.83,1015.6a117.76,117.76,0,0,1-60.73-39.67c-14.56-18.68,12.25-40.73,27.77-22.8,5.51,9.17,9.22,19.11,17.21,27.38a96.06,96.06,0,0,0,22.65,19c8.64,5.31,2.78,18.72-6.9,16.14Z"/><path class="cls-2" d="M1320.38,893.61c16.74-13.27,31.2-34.18,28.53-56.39-.77-11.33-3.85-23.16-6.09-36.82a165.24,165.24,0,0,1-1.57-42.83c2.89-23.28,36.86-20.18,35.39,3.32-6.25,25.7-.67,48.62-1.17,76.09-.37,30.43-20.43,56.3-45.58,71.6-9.88,5.74-18.87-8.47-9.51-15Z"/><path class="cls-2" d="M1493.23,736.32c-27.87,17.5-36.13,63.17-10.35,85.53a28.37,28.37,0,0,0,3.22,2.49c.24.16.85.55.5.25,18.94,13.71-.46,42-20.09,29.25-11.34-9.09-19.29-21.62-23.72-35.28-12-38.18,6.56-81.82,42.83-98.27,10.61-4.35,17.55,10.5,7.61,16Z"/><path class="cls-2" d="M1245.63,1066.94c6.58,15.86,35.4,74.41,56.5,57,21.47-14.58,41.23,18.32,18.24,30.44-53,26.56-82-41.84-91.69-82.19-2.54-10.77,13-15.53,17-5.23Z"/><path class="cls-8" d="M1642.54,2099.25c23.82,12.15,61.18,39.71,71.17,60.28,0,0,5.88,78.17-38.79,109.9,0,0,6.26,77.79-14.69,95.8-21.22,18.23-66.53,33.61-93.94,36.71-19.32-32.73-61.33-82-89.94-107.94,3.82-5.88,9.38-14.29,16.34-24.44C1524.19,2223.67,1584.44,2142.26,1642.54,2099.25Z"/><path class="cls-8" d="M1713.91,2171.88c-.35,23.32-5.28,73.65-39,97.55,0,0,6.27,77.78-14.7,95.78-21.19,18.25-66.5,33.62-93.91,36.73-19.32-32.74-61.34-82-90-107.94,3.82-5.87,9.37-14.31,16.34-24.43l2.31-3.38c32.08-46.38,90.8-125,147.53-166.94,23.85,12.13,61.17,39.72,71.16,60.28C1713.69,2159.53,1714.05,2164.29,1713.91,2171.88Z"/><path class="cls-9" d="M1674.91,2269.43s6.27,77.78-14.7,95.78c-21.19,18.25-66.5,33.62-93.91,36.73-19.32-32.74-61.34-82-90-107.94,3.82-5.87,9.37-14.31,16.34-24.43l2.31-3.38c16.62,12.93,39.63,32.87,56.78,55.53,35.67,47.13,83.38,33.09,89.68-.58,5.56-29.63-4.62-58.86,20.17-75.74,19.28-13.1,46.33-42.33,52.28-73.52C1713.56,2195.2,1708.63,2245.53,1674.91,2269.43Z"/><path class="cls-9" d="M1713.74,2160.47c-43.14-3.87-83.87-9.42-121.1-16.4,16.35-17,33.19-32.47,49.89-44.82,23.85,12.13,61.17,39.72,71.16,60.28A6.62,6.62,0,0,1,1713.74,2160.47Z"/><path class="cls-2" d="M1641.44,2086a36.72,36.72,0,0,1,12.77,4.42c20,11.4,38.45,24.74,54.79,41.13,6.27,7,15.53,15.82,18,26.83,1.59,43.89-7,93.83-44.34,121.91l5.56-11.92c.82,30.85,3.46,79.84-18,104.2-15,13.43-33,21-51.26,27.86-16.55,5.83-33.24,10.42-51.37,12.53a10.76,10.76,0,0,1-10.85-5.37c-24.65-38-56.27-73.46-89.5-103.88a13.09,13.09,0,0,1-2-16.95l18.11-27c37.3-53.49,77.28-105.65,125.57-149.91,9.87-9,20.44-18.19,32.57-23.85Zm2.21,26.52a13.51,13.51,0,0,1-5.25,6.95c-3.89,3.4-7.94,6.56-11.71,10.15-54.15,49.88-98.49,110.45-139.18,171.64l-2.22-17.11c26.45,25.36,49.16,52.46,70.58,81.71a359.89,359.89,0,0,1,20,30.45l-10.79-5.38c29.22-4.58,63.17-16.2,86.31-34.22,4.48-3.82,5.81-9.53,7.47-15.44,5.11-22.6,4.43-47.57,2.82-70.76a13.55,13.55,0,0,1,5.57-11.92c28.77-22.26,34.15-63.73,33.22-98l1.3,4.82c-5.85-10.85-17.9-21.58-28.13-29.82a244.87,244.87,0,0,0-32.34-21.86l-.52-.3a2.22,2.22,0,0,0,.31.13,2.71,2.71,0,0,0,2.59-1Z"/><path class="cls-2" d="M1705.26,2237a11.09,11.09,0,0,1-9.22-4.92c-32.1-48-99.85-85.09-100.53-85.46a11.09,11.09,0,1,1,10.57-19.49c3,1.61,73.21,40.05,108.39,92.61a11.09,11.09,0,0,1-9.21,17.26Z"/><path class="cls-2" d="M1675,2280.61a11.09,11.09,0,0,1-9.46-5.29c-24.87-40.53-103.77-83.72-104.56-84.15a11.09,11.09,0,1,1,10.59-19.49c3.45,1.87,84.9,46.45,112.88,92a11.1,11.1,0,0,1-9.45,16.89Z"/><path class="cls-2" d="M1506.64,2335.74a11.1,11.1,0,0,1-7.92-18.85c.62-.63,61.81-63.47,88-121.56a11.09,11.09,0,0,1,20.22,9.13c-27.88,61.72-89.8,125.28-92.43,127.95A11,11,0,0,1,1506.64,2335.74Z"/><path class="cls-2" d="M1547.62,2375.43a11.09,11.09,0,0,1-6.42-20.14h0c.64-.45,63.91-46.14,86.7-128a11.09,11.09,0,1,1,21.37,5.95c-25,89.69-92.41,138.11-95.27,140.13A11,11,0,0,1,1547.62,2375.43Z"/><path class="cls-2" d="M1584.3,2409.05a11.09,11.09,0,0,1-6-20.4h0c.6-.39,60.46-40.11,86.44-118.27a11.09,11.09,0,1,1,21,7c-28.52,85.84-92.7,128.14-95.42,129.9A11.07,11.07,0,0,1,1584.3,2409.05Z"/><path class="cls-2" d="M2716.76,2459.09a13.31,13.31,0,0,1-11.61-19.8c16.26-29.13,28.9-110.49,32.4-139.38a13.31,13.31,0,1,1,26.42,3.2c-.54,4.45-13.46,109.53-35.58,149.16A13.32,13.32,0,0,1,2716.76,2459.09Z"/><path class="cls-2" d="M2778.06,2455.49a13.31,13.31,0,0,1-10.94-20.87c25.69-37.18,31.31-126.78,31.37-127.68a13.31,13.31,0,0,1,26.57,1.58c-.24,4-6.13,97.93-36,141.23A13.28,13.28,0,0,1,2778.06,2455.49Z"/><path class="cls-2" d="M2805.17,2374.74a13.31,13.31,0,0,1,0-26.62h0c1.18,0,118.29-1.14,191.84-78.27a13.31,13.31,0,1,1,19.27,18.37C2934.7,2373.75,2810.41,2374.74,2805.17,2374.74Z"/><path class="cls-2" d="M2801.85,2423.08c-5.32,0-8.54-.18-9.26-.23a13.3,13.3,0,0,1,1.62-26.56h0c1.07.07,109.26,5.57,208-65.85a13.31,13.31,0,0,1,15.6,21.57C2927.24,2417.51,2831.66,2423.08,2801.85,2423.08Z"/><path class="cls-8" d="M1750.2,2979.23c-6.17,3.89-26.29,16.28-23.91,42.2,2.77,30.27,10.18,68.41-.24,152.52s49.49,124.44,77.15,124.44,89-29.38,92.46-68.27,0-47.53,20.74-62.22,61.35-51,52.71-88.14-41.48-51.85-69.13-77.77-63.7-65.58-92-49.69C1790.23,2962.24,1763.45,2970.88,1750.2,2979.23Z"/><path class="cls-8" d="M1932.25,3155.29a194,194,0,0,1-15.86,12.62c-20.75,14.7-17.28,23.32-20.75,62.23s-64.81,68.23-92.44,68.23S1715.65,3258.08,1726,3174c6.71-54.11,6-89.2,4-115.37-1.12-14.52-2.71-26.34-3.69-37.13-2.4-25.95,17.72-38.34,23.9-42.2,13.23-8.36,40-17,57.75-27,28.34-15.86,64.36,23.77,92,49.71s60.46,40.6,69.12,77.78C1975.83,3108.74,1952.64,3137.17,1932.25,3155.29Z"/><path class="cls-9" d="M1932.25,3155.29c2.75-13.64,8.08-50-7.55-73.7-24.44-37-77.12-75.74-129.63-63.56-29.85,6.93-51.61,25.49-65.07,40.55-1.12-14.52-2.71-26.34-3.69-37.13-2.4-25.95,17.72-38.34,23.9-42.2,13.23-8.36,40-17,57.75-27,28.34-15.86,64.36,23.77,92,49.71s60.46,40.6,69.12,77.78C1975.83,3108.74,1952.64,3137.17,1932.25,3155.29Z"/><path class="cls-2" d="M1803.2,3311.7c-19.32,0-43.19-12.89-60.81-32.83-24.18-27.36-34.67-65.2-29.55-106.56,8.76-70.64,4.63-108.4,1.61-136-.52-4.8-1-9.33-1.41-13.69-2.06-22.41,8-40.76,29.85-54.54l.2-.14c7.74-4.87,18.57-9.43,30-14.25,10-4.21,20.36-8.56,28.31-13,34-19,69.88,15.42,98.75,43.12,3,2.92,6,5.76,8.89,8.46,7,6.6,14.66,12.61,22.05,18.43,21.42,16.88,43.57,34.34,50.94,66,11.29,48.55-41.52,90.36-58,102-12,8.54-12.23,11-13.84,34.88-.34,5.12-.74,10.94-1.33,17.66C1904.78,3277.74,1836.94,3311.7,1803.2,3311.7Zm-45.91-321.21-.21.13c-8.91,5.62-19,14.07-17.54,29.59.39,4.22.86,8.6,1.37,13.24,3.16,28.87,7.48,68.41-1.65,142.14-5.35,43.16,9.59,70.4,23.07,85.65,15.46,17.49,32.91,23.84,40.87,23.84,23.8,0,76.57-26.56,79.2-56.14.58-6.5,1-12.14,1.3-17.09,1.69-25.12,2.63-39,25-54.8,25.63-18.16,53.43-48.51,47.44-74.28-5.26-22.59-22.05-35.83-41.5-51.16-7.82-6.16-15.91-12.53-23.77-19.91-3-2.76-6-5.68-9.11-8.67-21.34-20.48-50.57-48.51-67.31-39.12-9.27,5.2-20.32,9.85-31,14.35-10.43,4.38-20.27,8.52-26.16,12.23Z"/><path class="cls-2" d="M1730.22,3074.83a13.31,13.31,0,0,1-10.3-21.72c8-9.81,78.94-96.35,104.55-113.93a13.31,13.31,0,0,1,15.06,22c-19,13.06-77.91,83-99,108.8A13.3,13.3,0,0,1,1730.22,3074.83Z"/><path class="cls-2" d="M1729.2,3157.33a13.3,13.3,0,0,1-10.31-21.71c4.69-5.77,115.42-141.7,149.38-166.84a13.31,13.31,0,1,1,15.84,21.4c-26,19.21-113.17,123.63-144.58,162.24A13.28,13.28,0,0,1,1729.2,3157.33Z"/><path class="cls-2" d="M1730.22,3243.51a13.32,13.32,0,0,1-10.46-21.53c6.07-7.73,149.07-189.67,182.24-220.14a13.31,13.31,0,1,1,18,19.6c-31.59,29-177.84,215.1-179.32,217A13.28,13.28,0,0,1,1730.22,3243.51Z"/><path class="cls-2" d="M1952.69,3147a13.29,13.29,0,0,1-10.16-4.71c-15.73-18.59-67.52-54.21-86.14-66.37a13.31,13.31,0,1,1,14.55-22.29c2.87,1.87,70.44,46.11,91.91,71.46a13.32,13.32,0,0,1-10.16,21.91Z"/><path class="cls-2" d="M1908.19,3188a13.29,13.29,0,0,1-10.72-5.41c-15.87-21.5-62.8-49.21-79.55-58.08a13.31,13.31,0,0,1,12.45-23.52c2.68,1.41,65.79,35,88.52,65.79a13.31,13.31,0,0,1-10.7,21.22Z"/><path class="cls-2" d="M1891.48,3258.27a13.31,13.31,0,0,1-10.82-5.55c-21.86-30.43-99.19-84.07-100-84.61a13.3,13.3,0,1,1,15.13-21.89c3.33,2.3,81.92,56.81,106.46,91a13.3,13.3,0,0,1-10.8,21.07Z"/><path class="cls-2" d="M1854.72,3294.45a13.22,13.22,0,0,1-5.83-1.35c-46.18-22.57-94.81-93.88-96.86-96.91a13.31,13.31,0,1,1,22-14.93c.47.69,46.73,68.47,86.52,87.92a13.31,13.31,0,0,1-5.86,25.27Z"/><path class="cls-8" d="M1716.5,1295.62c-8.25-1-28.52-2.56-33,14.1s-21.65,132.08-69.21,129.44c-52.06-2.88-67.44-89.39-57-128.16,6.21-23.12,29.48-43.58,35.24-75.62s3.21-57,55.75-98,102-86.4,159.57-81.06c44.85,4.16,106.37,33,95.48,88.11-10.86,54.93-4.62,68.45-11.54,102.46C1881.51,1297.22,1808.46,1306.83,1716.5,1295.62Z"/><path class="cls-8" d="M1903.28,1144.41a363.89,363.89,0,0,0-6.7,49.57c-1.25,19.24-.62,32.34-4.8,52.86-10.26,50.38-83.34,60-175.29,48.78-8.26-1-28.52-2.58-33,14.08s-21.64,132.11-69.21,129.45c-44.69-2.49-62.33-66.5-59.88-109.1a96.05,96.05,0,0,1,2.84-19.06c6.22-23.1,29.5-43.58,35.27-75.61s3.2-57,55.75-98,102-86.4,159.56-81.06C1852.69,1060.45,1914.21,1089.28,1903.28,1144.41Z"/><path class="cls-9" d="M1903.28,1144.41a363.89,363.89,0,0,0-6.7,49.57c-3.65-65.12-91.47-75.56-148.77-50.19-67.21,29.76-73.12,64.27-136.24,117.94-25,21.32-44.2,47.39-57.17,68.32a96.05,96.05,0,0,1,2.84-19.06c6.22-23.1,29.5-43.58,35.27-75.61s3.2-57,55.75-98,102-86.4,159.56-81.06C1852.69,1060.45,1914.21,1089.28,1903.28,1144.41Z"/><path class="cls-2" d="M1616,1457c-.89,0-1.8,0-2.72-.08-20.25-1.12-38-11.52-51.48-30.08-24.35-33.64-30.22-88.69-21.71-120.4,3.36-12.49,10.21-23.58,16.83-34.3,7.58-12.27,15.41-24.95,18.09-39.86.67-3.72,1.22-7.34,1.77-10.9,4.31-28.32,8.78-57.6,60.53-98,5.55-4.33,11.06-8.71,16.55-13.07,47.73-37.91,97.1-77.1,155.57-71.67,30.58,2.84,74.5,17.14,97.61,48.08,13.31,17.81,18,39,13.63,61.14a355.52,355.52,0,0,0-7.13,61.1c-.54,12.83-1.06,25-4.42,41.45-11.42,56.08-77,77.22-194.8,62.85-10.9-1.32-13.68.81-13.71.83-.52,2.18-1.2,5.52-2.12,9.89C1690.16,1364,1670.73,1457,1616,1457Zm182.63-383.36c-41.53,0-81,31.37-122.69,64.47-5.58,4.42-11.17,8.87-16.8,13.26-40.62,31.7-43.42,50-47.29,75.36-.58,3.87-1.19,7.8-1.91,11.84-3.88,21.53-14,37.83-22.83,52.21-5.76,9.34-10.74,17.4-12.74,24.86-6.3,23.43-.71,67.06,16.18,90.39,7.14,9.87,15.22,14.93,24.69,15.45,7.82.53,28.48-8.87,48.52-104.75,1.09-5.22,1.88-9,2.58-11.59,2.61-9.74,13-31.88,52.28-27.09,54.17,6.61,146.44,10.88,155.72-34.7,2.8-13.75,3.22-23.53,3.75-35.9a385.43,385.43,0,0,1,7.77-66.46c2.45-12.41.08-23.21-7.25-33-15.11-20.23-47.28-31.64-72.46-34C1803.67,1073.71,1801.16,1073.6,1798.66,1073.6Z"/><path class="cls-2" d="M1636.69,1444a13.32,13.32,0,0,1-12.51-8.78c-20.71-57.23-29-121-32.32-164.51-1.94-25.52-2.38-46.26-2.41-59.17,0-27.73.88-28.72,4.31-32.42a13.31,13.31,0,0,1,22.76,11.95c-1.33,14.42-2.62,137.51,32.69,235.09a13.33,13.33,0,0,1-12.52,17.84Z"/><path class="cls-2" d="M1671,1376.11a13.31,13.31,0,0,1-13-10.37,1197.62,1197.62,0,0,1-24.45-157.35c-6.13-70.32-2.78-73.51,1.11-77.21a13.31,13.31,0,0,1,22.26,12.15c-.48,11,1.8,105.19,27,216.53a13.32,13.32,0,0,1-10,15.92A13.61,13.61,0,0,1,1671,1376.11Z"/><path class="cls-2" d="M1701.49,1308.82a13.3,13.3,0,0,1-13-10.68c-17.24-85.14-17.44-185-17.44-189.26a13.31,13.31,0,0,1,26.62,0c0,1,.21,101.5,16.9,184a13.33,13.33,0,0,1-13.06,16Z"/><path class="cls-2" d="M1686.58,1184.87a13.31,13.31,0,0,1-7.6-24.24c3.9-2.69,96.86-65.68,228.2-36.08a13.31,13.31,0,1,1-5.85,26c-119.53-26.93-206.36,31.43-207.22,32A13.27,13.27,0,0,1,1686.58,1184.87Z"/><path class="cls-2" d="M1690.66,1235.28a13.31,13.31,0,0,1-5-25.65c5.3-2.14,130.75-52,215.55-15.37a13.31,13.31,0,0,1-10.57,24.43c-74.55-32.25-193.81,15.14-195,15.62A13.29,13.29,0,0,1,1690.66,1235.28Z"/><path class="cls-2" d="M1697,1283.69a13.31,13.31,0,0,1-4.45-25.86c4.87-1.72,120.29-42,201.64-18.82a13.31,13.31,0,1,1-7.31,25.59c-73.13-20.88-184.33,17.93-185.44,18.32A13.3,13.3,0,0,1,1697,1283.69Z"/><path class="cls-2" d="M2908.41,3186.44c44.66-7.78,92.69-.49,129.78,27,4.72,4.18,12.24,9.94,16.21,14.8l7.44,8.19a17.8,17.8,0,1,1-27.59,22.41c-.57-.82-5.23-7.21-5.94-8.22a44,44,0,0,0-5.2-6.44c-27.14-31-71.74-42.28-111.9-40.21-11.33,1.21-14-15.19-2.8-17.53Z"/><path class="cls-2" d="M2925.13,3134.89c34.76-5.13,69.61-4.56,103.82,4.16a177.42,177.42,0,0,1,34.29,13,17.8,17.8,0,0,1-15.79,31.9c-9-5.64-17.9-11.38-28.29-15.47-28.65-11.67-61.12-16.4-92-16-11.16.65-13-15.76-2-17.62Z"/><path class="cls-2" d="M2162.46,538.13l94.55-2.8c26.61.64,22.92,39.7-3.42,35.33-.48-.12-91.87-14.75-92.29-14.85-10.52-1.76-9.46-17.33,1.16-17.68Z"/><path class="cls-2" d="M1489.68,2282.33c36,37.22,67.43,77.53,91.63,123.24a280.14,280.14,0,0,1,19.35,48.07,8.88,8.88,0,0,1-16.89,5.44,262.11,262.11,0,0,0-21.72-42.52c-26.17-40.43-60.22-76.86-96.49-108.18-18.1-16.45,6.21-42.88,24.12-26.05Z"/><path class="cls-2" d="M1691.15,1028c31.15-31.47,76.35-45,119.94-44.86,43.91.32,88.45,22.91,112.89,59.23a6.71,6.71,0,0,1-9.84,9c-9.86-7.68-19.26-15-30-20.87-47.88-28.4-107.65-25.3-158.33-5.37-9.19,3.58-18.44,7.81-26,12.88-6.37,4.22-13.75-4.23-8.68-10Z"/><path class="cls-2" d="M2308.84,1065.71c53.51-26.89,115.19-22.11,172.93-17.21,7.28.6,8.3,11.28,1.31,13.25-41.83,12.48-85.73,7.81-128.32,12.13-13.9,1.24-27.85,3.16-42.25,4.6-7.38.76-10.31-9.52-3.67-12.77Z"/><path class="cls-21" d="M2434.48,1083.63c-9.89-11.26-9.74-18.53-31.17-41.84s-45.24-21.25-74.91-14c-20.76,5-34.75-12-25.13-28,12.22-20.3,47.75-12.41,55.27-33.08s36.09-42.49,64.66-32,24.81,34.59,54.13,41.73,46.62,35.46,43.11,77.07,21.18,40.13,28.57,71.68c7.52,32.09-16.37,62.16-42.74,50.38-28.52-12.75-23.42-54.9-39-68.43S2444.36,1094.89,2434.48,1083.63Z"/><path class="cls-21" d="M2518,1156a6.74,6.74,0,0,1-2.68-.67c-6.93-3.1-10.16-12.87-14.29-27.41-3.86-13.6-7.85-27.65-19.14-37.49a115.25,115.25,0,0,0-21.76-15c-4.51-2.5-6.38-3.54-9-6.49a63.59,63.59,0,0,1-6.68-9.59c-4.37-7.12-10.36-16.89-24.83-32.63-16.15-17.57-35.34-26.1-58.66-26.1-3.66,0-7.32.21-10.93.57,11.45-4.23,23.71-11.45,29.34-26.92,3.05-8.39,15.38-20.08,28.53-20.08a21.6,21.6,0,0,1,7.58,1.37c7.69,2.84,10.86,7,16.1,13.85,7.44,9.73,17.61,23,40.46,28.62,27.19,6.62,27.4,39.71,26.23,53.62-2.81,33.38,9.62,48.79,18.69,60,5.13,6.34,8.51,10.53,10.39,18.56,2.29,9.78-.53,17.85-3.93,22.15C2522.61,1153.52,2520.37,1156,2518,1156Z"/><g class="cls-5"><path class="cls-6" d="M2498.62,1045.66c-1.61-12-3.71-33.05-24.61-38.38-22.78-5.81-32.66-11.87-40.12-21.6-5.24-6.84-12.77-17.82-28.34-19.5-13.07-1.41-28.33,14.18-26.15,8.14,3.06-8.4,15.37-20.08,28.52-20.08a21.1,21.1,0,0,1,7.59,1.38c7.69,2.84,10.88,7,16.13,13.81,7.41,9.73,17.59,23.06,40.42,28.65C2495.87,1003.86,2499,1029.89,2498.62,1045.66Z"/></g><path class="cls-22" d="M2523.46,1152.45c-.85,1.06-3.07,3.55-5.47,3.55a6.91,6.91,0,0,1-2.66-.66c-6.93-3.11-10.18-12.89-14.31-27.41-3.86-13.6-7.82-27.63-19.14-37.49a113.51,113.51,0,0,0-21.73-15c-4.53-2.49-6.39-3.51-9-6.49a63.18,63.18,0,0,1-6.71-9.6c-4.35-7.1-10.35-16.88-24.83-32.6-16.12-17.59-35.31-26.12-58.63-26.12a86.4,86.4,0,0,0-9,.44c14.13-5.51,39.32-12.52,58.55-2.8,28.34,14.31,31.45,37.45,44.64,51.89,12.31,13.5,35.59,21.72,43.09,1.73-2.75,33.23,9.6,48.6,18.7,59.79,5.11,6.36,8.49,10.58,10.4,18.57C2529.67,1140.1,2526.88,1148.14,2523.46,1152.45Z"/><path class="cls-2" d="M2518.09,1191.57a42.26,42.26,0,0,1-17.25-3.8c-22.6-10.1-29.17-33.25-34-50.15-2.33-8.19-5-17.49-8.3-20.39a79.5,79.5,0,0,0-15.64-10.69c-5.79-3.21-11.79-6.53-18.45-14.13h0a95.82,95.82,0,0,1-10.27-14.45c-4-6.54-8.56-14-20.7-27.16-16.09-17.5-32.81-17.2-62-10.11-15.54,3.78-30.39-.92-38.74-12.29-7.56-10.28-7.91-23.87-.93-35.47,8.71-14.45,24.08-18.71,36.44-22.13,10.09-2.79,16.31-4.77,17.71-8.63,5.65-15.52,19.36-29.89,35.79-37.51,15.19-7.06,31.1-7.87,46-2.39,17.38,6.4,25.51,17.06,32,25.62,6,7.87,10,13.08,20.63,15.67,36.81,9,57.2,43.88,53.23,91.12-1.63,19.18,3.37,25.37,10.94,34.75,6,7.51,13.59,16.85,17.32,32.77,5.28,22.51-1.9,46.48-17.84,59.65A40.56,40.56,0,0,1,2518.09,1191.57Zm-157-182.06c17.93,0,35.66,5.49,52,23.27,13.89,15.11,19.38,24.07,23.8,31.26a71.2,71.2,0,0,0,7.58,10.81h0c3.61,4.11,6.53,5.72,11.35,8.39a105.7,105.7,0,0,1,20.22,13.91c9.3,8.1,12.92,20.85,16.42,33.19,4.82,17,8.76,28.44,19.23,33.11,5.54,2.48,10.75,1.77,15.48-2.13,6.71-5.54,12.35-18.25,8.87-33.06-2.34-10-6.87-15.62-12.12-22.13-9-11.19-19.26-23.88-16.75-53.7,2.84-33.73-9.49-57.29-33-63-19.78-4.82-28.48-16.22-35.48-25.38-5.58-7.3-10-13.06-20.1-16.79S2399,946,2393,948.8c-9.93,4.61-18.76,13.64-22,22.46-6.19,17-22.51,21.55-35.63,25.19-9,2.49-17.51,4.85-20.73,10.21-1.44,2.4-1.59,4.41-.43,6,1.4,1.91,5.13,3.61,11,2.19C2337.06,1012,2349.13,1009.51,2361.1,1009.51Z"/><path class="cls-21" d="M2061.21,1178.71c10-7.2,34.91-12.24,50.7,7.8s33.2,14.62,50.08,32.41c24,25.27,19,86.75-20.18,82.65-28.94-3-64.09-.78-82.42-20.26-21.63-23,.45-45.09-6.15-59.21C2041.17,1196.29,2051.19,1185.91,2061.21,1178.71Z"/><path class="cls-21" d="M2061.21,1178.71c10-7.2,34.91-12.24,50.7,7.8s33.2,14.62,50.08,32.41c24,25.27,19,86.75-20.18,82.65-28.94-3-64.09-.78-82.42-20.26-21.63-23,.45-45.09-6.15-59.21C2041.17,1196.29,2051.19,1185.91,2061.21,1178.71Z"/><path class="cls-21" d="M2154.27,1262.35a33.09,33.09,0,0,1-2.45,11.64c-2.39,5.55-4.66,5.55-6.35,5.55a11.83,11.83,0,0,1-1.33,0c-6.22-.66-12.57-1.06-18.75-1.46-20.21-1.33-41.13-2.71-49.84-12-4.75-5-4.57-7.78-1.64-19.59,2.22-9,5.28-21.32-.53-33.81-2.31-5-3.43-8-3.51-10.08,0-2.71,1.55-3.86,4.3-5.86a17.77,17.77,0,0,1,8.76-2.18,13.8,13.8,0,0,1,11.55,5.69c12,15.23,25.4,20.61,35.22,24.47,7,2.8,11.55,4.62,16.17,9.51C2151.69,1240.36,2154.84,1251.91,2154.27,1262.35Z"/><g class="cls-5"><path class="cls-6" d="M2153.6,1251.55a31,31,0,0,0-5.64-8.84c-5.51-5.82-11-8-19.28-11.32-11.73-4.58-27.72-11-42-29.15a16.25,16.25,0,0,0-10.44-6.48,19.52,19.52,0,0,1,6.71-1.2,13.8,13.8,0,0,1,11.55,5.69c12,15.23,25.4,20.61,35.22,24.47,7,2.8,11.55,4.62,16.17,9.51C2149.74,1238.27,2152.4,1244.67,2153.6,1251.55Z"/></g><path class="cls-22" d="M2154.27,1262.35a33.09,33.09,0,0,1-2.45,11.64c-2.39,5.55-4.66,5.55-6.35,5.55a11.83,11.83,0,0,1-1.33,0c-6.22-.66-12.57-1.06-18.75-1.46-20.21-1.33-41.13-2.71-49.84-12-4.75-5-4.57-7.78-1.64-19.59,2.22-9,5.28-21.32-.53-33.81-2.31-5-3.43-8-3.51-10.08,6.48,3.55,16.83,11.73,17.81,28,1.42,23.85,8.06,27.3,26.07,30.87S2153.08,1252.63,2154.27,1262.35Z"/><path class="cls-2" d="M2145.49,1315.08a48.36,48.36,0,0,1-5.06-.27c-5.51-.58-11.27-1-17.35-1.36-25.84-1.69-55.12-3.6-73.39-23-18.42-19.58-13.32-40.16-10.27-52.47.86-3.49,2.17-8.77,1.73-10.29-17.82-38.11,4.84-54.4,12.29-59.76h0c15.65-11.24,48.36-15.73,68.92,10.37,6.11,7.76,12.14,10.15,20.48,13.47s18.81,7.48,28.8,18c18.69,19.68,23.89,56,11.61,80.9C2175.5,1306.37,2161.92,1315.08,2145.49,1315.08Zm-62.32-129.44a27.9,27.9,0,0,0-14.19,3.87h0c-6.53,4.69-12.18,8.75-3.68,26.94,4.49,9.61,2.09,19.32,0,27.9-3,12-4.26,19.23,3.83,27.83,11.09,11.78,33.78,13.27,55.73,14.71,6.08.39,12.36.8,18.39,1.44,4.69.48,11.5,0,16.17-9.45,7.24-14.69,3.82-39.38-7-50.81-6-6.29-11.87-8.64-19.34-11.61-9.36-3.72-21-8.36-31.55-21.73A22.47,22.47,0,0,0,2083.17,1185.64Zm-22-6.93h0Z"/></svg>